G04 #@! TF.GenerationSoftware,KiCad,Pcbnew,9.0.5-9.0.5~ubuntu25.10.1*
G04 #@! TF.CreationDate,2025-11-15T17:48:43+01:00*
G04 #@! TF.ProjectId,control_board,636f6e74-726f-46c5-9f62-6f6172642e6b,rev?*
G04 #@! TF.SameCoordinates,Original*
G04 #@! TF.FileFunction,Copper,L1,Top*
G04 #@! TF.FilePolarity,Positive*
%FSLAX46Y46*%
G04 Gerber Fmt 4.6, Leading zero omitted, Abs format (unit mm)*
G04 Created by KiCad (PCBNEW 9.0.5-9.0.5~ubuntu25.10.1) date 2025-11-15 17:48:43*
%MOMM*%
%LPD*%
G01*
G04 APERTURE LIST*
G04 Aperture macros list*
%AMRoundRect*
0 Rectangle with rounded corners*
0 $1 Rounding radius*
0 $2 $3 $4 $5 $6 $7 $8 $9 X,Y pos of 4 corners*
0 Add a 4 corners polygon primitive as box body*
4,1,4,$2,$3,$4,$5,$6,$7,$8,$9,$2,$3,0*
0 Add four circle primitives for the rounded corners*
1,1,$1+$1,$2,$3*
1,1,$1+$1,$4,$5*
1,1,$1+$1,$6,$7*
1,1,$1+$1,$8,$9*
0 Add four rect primitives between the rounded corners*
20,1,$1+$1,$2,$3,$4,$5,0*
20,1,$1+$1,$4,$5,$6,$7,0*
20,1,$1+$1,$6,$7,$8,$9,0*
20,1,$1+$1,$8,$9,$2,$3,0*%
G04 Aperture macros list end*
G04 #@! TA.AperFunction,SMDPad,CuDef*
%ADD10RoundRect,0.250000X0.625000X-0.400000X0.625000X0.400000X-0.625000X0.400000X-0.625000X-0.400000X0*%
G04 #@! TD*
G04 #@! TA.AperFunction,SMDPad,CuDef*
%ADD11RoundRect,0.150000X0.150000X-0.587500X0.150000X0.587500X-0.150000X0.587500X-0.150000X-0.587500X0*%
G04 #@! TD*
G04 #@! TA.AperFunction,SMDPad,CuDef*
%ADD12RoundRect,0.250000X-0.650000X0.412500X-0.650000X-0.412500X0.650000X-0.412500X0.650000X0.412500X0*%
G04 #@! TD*
G04 #@! TA.AperFunction,SMDPad,CuDef*
%ADD13RoundRect,0.250000X0.400000X0.625000X-0.400000X0.625000X-0.400000X-0.625000X0.400000X-0.625000X0*%
G04 #@! TD*
G04 #@! TA.AperFunction,SMDPad,CuDef*
%ADD14RoundRect,0.250000X-0.400000X-0.625000X0.400000X-0.625000X0.400000X0.625000X-0.400000X0.625000X0*%
G04 #@! TD*
G04 #@! TA.AperFunction,ComponentPad*
%ADD15C,0.800000*%
G04 #@! TD*
G04 #@! TA.AperFunction,ComponentPad*
%ADD16C,6.400000*%
G04 #@! TD*
G04 #@! TA.AperFunction,ComponentPad*
%ADD17RoundRect,0.250000X1.125000X-1.125000X1.125000X1.125000X-1.125000X1.125000X-1.125000X-1.125000X0*%
G04 #@! TD*
G04 #@! TA.AperFunction,ComponentPad*
%ADD18C,2.750000*%
G04 #@! TD*
G04 #@! TA.AperFunction,ComponentPad*
%ADD19RoundRect,0.250000X-1.125000X1.125000X-1.125000X-1.125000X1.125000X-1.125000X1.125000X1.125000X0*%
G04 #@! TD*
G04 #@! TA.AperFunction,SMDPad,CuDef*
%ADD20RoundRect,0.137500X-0.600000X-0.137500X0.600000X-0.137500X0.600000X0.137500X-0.600000X0.137500X0*%
G04 #@! TD*
G04 #@! TA.AperFunction,SMDPad,CuDef*
%ADD21RoundRect,0.137500X-0.137500X-0.600000X0.137500X-0.600000X0.137500X0.600000X-0.137500X0.600000X0*%
G04 #@! TD*
G04 #@! TA.AperFunction,ComponentPad*
%ADD22R,1.700000X1.700000*%
G04 #@! TD*
G04 #@! TA.AperFunction,ComponentPad*
%ADD23C,1.700000*%
G04 #@! TD*
G04 #@! TA.AperFunction,SMDPad,CuDef*
%ADD24RoundRect,0.250000X-0.625000X0.400000X-0.625000X-0.400000X0.625000X-0.400000X0.625000X0.400000X0*%
G04 #@! TD*
G04 #@! TA.AperFunction,ComponentPad*
%ADD25RoundRect,0.250000X1.325000X-1.325000X1.325000X1.325000X-1.325000X1.325000X-1.325000X-1.325000X0*%
G04 #@! TD*
G04 #@! TA.AperFunction,ComponentPad*
%ADD26C,3.150000*%
G04 #@! TD*
G04 #@! TA.AperFunction,SMDPad,CuDef*
%ADD27RoundRect,0.250000X0.412500X0.650000X-0.412500X0.650000X-0.412500X-0.650000X0.412500X-0.650000X0*%
G04 #@! TD*
G04 #@! TA.AperFunction,SMDPad,CuDef*
%ADD28RoundRect,0.150000X0.150000X-0.825000X0.150000X0.825000X-0.150000X0.825000X-0.150000X-0.825000X0*%
G04 #@! TD*
G04 #@! TA.AperFunction,SMDPad,CuDef*
%ADD29RoundRect,0.250000X-0.412500X-0.650000X0.412500X-0.650000X0.412500X0.650000X-0.412500X0.650000X0*%
G04 #@! TD*
G04 #@! TA.AperFunction,ComponentPad*
%ADD30R,1.800000X1.800000*%
G04 #@! TD*
G04 #@! TA.AperFunction,ComponentPad*
%ADD31C,1.800000*%
G04 #@! TD*
G04 #@! TA.AperFunction,ComponentPad*
%ADD32R,1.500000X1.500000*%
G04 #@! TD*
G04 #@! TA.AperFunction,ComponentPad*
%ADD33C,1.500000*%
G04 #@! TD*
G04 #@! TA.AperFunction,ViaPad*
%ADD34C,0.600000*%
G04 #@! TD*
G04 #@! TA.AperFunction,Conductor*
%ADD35C,0.200000*%
G04 #@! TD*
G04 APERTURE END LIST*
D10*
X223700000Y-97500000D03*
X223700000Y-94400000D03*
D11*
X203699358Y-57016614D03*
X205599358Y-57016614D03*
X204649358Y-55141614D03*
D12*
X205446517Y-93273261D03*
X205446517Y-96398261D03*
D13*
X228829183Y-59320220D03*
X225729183Y-59320220D03*
D14*
X204611242Y-102151479D03*
X207711242Y-102151479D03*
D10*
X207670400Y-79427000D03*
X207670400Y-76327000D03*
D11*
X225035358Y-57016614D03*
X226935358Y-57016614D03*
X225985358Y-55141614D03*
D12*
X198744512Y-110373452D03*
X198744512Y-113498452D03*
D10*
X220472000Y-69775000D03*
X220472000Y-66675000D03*
X223012000Y-69775000D03*
X223012000Y-66675000D03*
X222123000Y-79554000D03*
X222123000Y-76454000D03*
D15*
X223995982Y-133200000D03*
X224698926Y-131502944D03*
X224698926Y-134897056D03*
X226395982Y-130800000D03*
D16*
X226395982Y-133200000D03*
D15*
X226395982Y-135600000D03*
X228093038Y-131502944D03*
X228093038Y-134897056D03*
X228795982Y-133200000D03*
D14*
X210107600Y-59334400D03*
X213207600Y-59334400D03*
D11*
X207684263Y-74309848D03*
X209584263Y-74309848D03*
X208634263Y-72434848D03*
D17*
X211598224Y-105595562D03*
D18*
X211598224Y-100195562D03*
D11*
X221479358Y-57016614D03*
X223379358Y-57016614D03*
X222429358Y-55141614D03*
X218303757Y-74347052D03*
X220203757Y-74347052D03*
X219253757Y-72472052D03*
X211242110Y-74339004D03*
X213142110Y-74339004D03*
X212192110Y-72464004D03*
D19*
X195494512Y-101498452D03*
D18*
X195494512Y-106898452D03*
X195494512Y-112298452D03*
D10*
X223012000Y-52757000D03*
X223012000Y-49657000D03*
D11*
X221859757Y-74347052D03*
X223759757Y-74347052D03*
X222809757Y-72472052D03*
D20*
X210668805Y-123446739D03*
X210668805Y-124246739D03*
X210668805Y-125046739D03*
X210668805Y-125846739D03*
X210668805Y-126646739D03*
X210668805Y-127446739D03*
X210668805Y-128246739D03*
X210668805Y-129046739D03*
X210668805Y-129846739D03*
X210668805Y-130646739D03*
X210668805Y-131446739D03*
D21*
X212331305Y-133109239D03*
X213131305Y-133109239D03*
X213931305Y-133109239D03*
X214731305Y-133109239D03*
X215531305Y-133109239D03*
X216331305Y-133109239D03*
X217131305Y-133109239D03*
X217931305Y-133109239D03*
X218731305Y-133109239D03*
X219531305Y-133109239D03*
X220331305Y-133109239D03*
D20*
X221993805Y-131446739D03*
X221993805Y-130646739D03*
X221993805Y-129846739D03*
X221993805Y-129046739D03*
X221993805Y-128246739D03*
X221993805Y-127446739D03*
X221993805Y-126646739D03*
X221993805Y-125846739D03*
X221993805Y-125046739D03*
X221993805Y-124246739D03*
X221993805Y-123446739D03*
D21*
X220331305Y-121784239D03*
X219531305Y-121784239D03*
X218731305Y-121784239D03*
X217931305Y-121784239D03*
X217131305Y-121784239D03*
X216331305Y-121784239D03*
X215531305Y-121784239D03*
X214731305Y-121784239D03*
X213931305Y-121784239D03*
X213131305Y-121784239D03*
X212331305Y-121784239D03*
D10*
X207772000Y-69775000D03*
X207772000Y-66675000D03*
X205232000Y-52757000D03*
X205232000Y-49657000D03*
D11*
X207255358Y-57016614D03*
X209155358Y-57016614D03*
X208205358Y-55141614D03*
D10*
X225552000Y-69775000D03*
X225552000Y-66675000D03*
D13*
X217479642Y-95141311D03*
X214379642Y-95141311D03*
D10*
X214884000Y-79427000D03*
X214884000Y-76327000D03*
D22*
X205094798Y-121582877D03*
D23*
X207634798Y-121582877D03*
X205094798Y-124122877D03*
X207634798Y-124122877D03*
X205094798Y-126662877D03*
X207634798Y-126662877D03*
D14*
X205002800Y-60299600D03*
X208102800Y-60299600D03*
D10*
X220472000Y-52757000D03*
X220472000Y-49657000D03*
D15*
X212600000Y-41000000D03*
X213302944Y-39302944D03*
X213302944Y-42697056D03*
X215000000Y-38600000D03*
D16*
X215000000Y-41000000D03*
D15*
X215000000Y-43400000D03*
X216697056Y-39302944D03*
X216697056Y-42697056D03*
X217400000Y-41000000D03*
D14*
X204650000Y-85200000D03*
X207750000Y-85200000D03*
D24*
X210850000Y-108700000D03*
X210850000Y-111800000D03*
D14*
X215136800Y-59334400D03*
X218236800Y-59334400D03*
D11*
X217923358Y-57016614D03*
X219823358Y-57016614D03*
X218873358Y-55141614D03*
D10*
X202692000Y-63247200D03*
X202692000Y-60147200D03*
D11*
X214747757Y-74347052D03*
X216647757Y-74347052D03*
X215697757Y-72472052D03*
D10*
X217932000Y-52757000D03*
X217932000Y-49657000D03*
D17*
X212075941Y-88571016D03*
D18*
X212075941Y-83171016D03*
D25*
X189523828Y-125499602D03*
D26*
X189523828Y-119499602D03*
X189523828Y-113499602D03*
X189523828Y-107499602D03*
X189523828Y-101499602D03*
D14*
X220207364Y-59320220D03*
X223307364Y-59320220D03*
X208550000Y-93500000D03*
X211650000Y-93500000D03*
D11*
X204174836Y-74309848D03*
X206074836Y-74309848D03*
X205124836Y-72434848D03*
D15*
X194052944Y-121997056D03*
X194755888Y-120300000D03*
X194755888Y-123694112D03*
X196452944Y-119597056D03*
D16*
X196452944Y-121997056D03*
D15*
X196452944Y-124397056D03*
X198150000Y-120300000D03*
X198150000Y-123694112D03*
X198852944Y-121997056D03*
D10*
X210312000Y-52757000D03*
X210312000Y-49657000D03*
X218440000Y-79502000D03*
X218440000Y-76402000D03*
X226060000Y-79554000D03*
X226060000Y-76454000D03*
X212852000Y-69775000D03*
X212852000Y-66675000D03*
D11*
X225415757Y-74347052D03*
X227315757Y-74347052D03*
X226365757Y-72472052D03*
X210811358Y-57016614D03*
X212711358Y-57016614D03*
X211761358Y-55141614D03*
D27*
X208207579Y-108989219D03*
X205082579Y-108989219D03*
D10*
X204012800Y-79427000D03*
X204012800Y-76327000D03*
D28*
X213490000Y-118675000D03*
X214760000Y-118675000D03*
X216030000Y-118675000D03*
X217300000Y-118675000D03*
X218570000Y-118675000D03*
X219840000Y-118675000D03*
X221110000Y-118675000D03*
X221110000Y-113725000D03*
X219840000Y-113725000D03*
X218570000Y-113725000D03*
X217300000Y-113725000D03*
X216030000Y-113725000D03*
X214760000Y-113725000D03*
X213490000Y-113725000D03*
D10*
X211302600Y-79452400D03*
X211302600Y-76352400D03*
X207772000Y-52757000D03*
X207772000Y-49657000D03*
X225552000Y-52757000D03*
X225552000Y-49657000D03*
X210312000Y-69775000D03*
X210312000Y-66675000D03*
D29*
X213191404Y-111195713D03*
X216316404Y-111195713D03*
D11*
X214367358Y-57016614D03*
X216267358Y-57016614D03*
X215317358Y-55141614D03*
D10*
X215392000Y-69775000D03*
X215392000Y-66675000D03*
D29*
X224964665Y-128498602D03*
X228089665Y-128498602D03*
D10*
X202692000Y-68301200D03*
X202692000Y-65201200D03*
D30*
X205000000Y-104500000D03*
D31*
X207540000Y-104500000D03*
D30*
X205000000Y-87500000D03*
D31*
X207540000Y-87500000D03*
D32*
X225500000Y-62500000D03*
D33*
X222960000Y-62500000D03*
X220420000Y-62500000D03*
X217880000Y-62500000D03*
X215340000Y-62500000D03*
X212800000Y-62500000D03*
X210260000Y-62500000D03*
X207720000Y-62500000D03*
X205180000Y-62500000D03*
X205180000Y-47260000D03*
X207720000Y-47260000D03*
X210260000Y-47260000D03*
X212800000Y-47260000D03*
X215340000Y-47260000D03*
X217880000Y-47260000D03*
X220420000Y-47260000D03*
X222960000Y-47260000D03*
X225500000Y-47260000D03*
D34*
X224750000Y-111950000D03*
X223000000Y-68200000D03*
X228650000Y-57250000D03*
X228850000Y-126400000D03*
X204450000Y-112750000D03*
X205100000Y-114050000D03*
X203450000Y-53800000D03*
X220300000Y-77950000D03*
X225550000Y-51200000D03*
X207750000Y-85200000D03*
X217131305Y-133109239D03*
X225400000Y-112600000D03*
X225400000Y-111950000D03*
X204450000Y-113400000D03*
X224750000Y-112600000D03*
X208800000Y-100050000D03*
X205700000Y-69600000D03*
X216331305Y-121784239D03*
X225400000Y-111300000D03*
X205100000Y-113400000D03*
X207800000Y-95800000D03*
X224750000Y-111300000D03*
X220500000Y-51250000D03*
X204450000Y-114050000D03*
X223100000Y-51200000D03*
X225100000Y-54100000D03*
X202200000Y-58700000D03*
X205100000Y-112750000D03*
X221300000Y-54200000D03*
X204001989Y-100300000D03*
X217931305Y-121784239D03*
X203600989Y-118850000D03*
D35*
X218302276Y-55950000D02*
X219368890Y-57016614D01*
X209155358Y-57016614D02*
X210221972Y-55950000D01*
X212256890Y-57016614D02*
X212711358Y-57016614D01*
X206781921Y-128350000D02*
X205094798Y-126662877D01*
X210668805Y-127446739D02*
X209553261Y-127446739D01*
X227700000Y-126900000D02*
X228089665Y-127289665D01*
X217333972Y-55950000D02*
X218302276Y-55950000D01*
X211190276Y-55950000D02*
X212256890Y-57016614D01*
X209553261Y-127446739D02*
X208650000Y-128350000D01*
X208650000Y-128350000D02*
X206781921Y-128350000D01*
X216267358Y-57016614D02*
X217333972Y-55950000D01*
X210221972Y-55950000D02*
X211190276Y-55950000D01*
X223353261Y-127446739D02*
X223900000Y-126900000D01*
X228089665Y-127289665D02*
X228089665Y-128498602D01*
X219368890Y-57016614D02*
X219823358Y-57016614D01*
X221993805Y-127446739D02*
X223353261Y-127446739D01*
X223900000Y-126900000D02*
X227700000Y-126900000D01*
X216750000Y-76000000D02*
X216750000Y-81000000D01*
X221993805Y-128246739D02*
X224712802Y-128246739D01*
X213191404Y-111195713D02*
X213191404Y-113426404D01*
X217450000Y-71750000D02*
X217450000Y-75300000D01*
X217131305Y-123668695D02*
X217131305Y-121784239D01*
X220109349Y-126646739D02*
X217131305Y-123668695D01*
X212045691Y-110050000D02*
X210250000Y-110050000D01*
X213899000Y-83851000D02*
X213899000Y-91560669D01*
X221993805Y-126646739D02*
X220109349Y-126646739D01*
X217880000Y-71320000D02*
X217450000Y-71750000D01*
X217100000Y-97400000D02*
X206901989Y-97400000D01*
X214390001Y-115600000D02*
X213490000Y-114699999D01*
X210250000Y-110050000D02*
X209572079Y-109372079D01*
X209572079Y-109372079D02*
X209572079Y-103877921D01*
X195493362Y-101499602D02*
X195494512Y-101498452D01*
X217131305Y-121784239D02*
X217131305Y-120460663D01*
X210652667Y-126662877D02*
X210668805Y-126646739D01*
X217131305Y-120460663D02*
X217901000Y-119690968D01*
X213191404Y-113426404D02*
X213490000Y-113725000D01*
X217479642Y-97020358D02*
X217479642Y-95141311D01*
X213191404Y-111195713D02*
X212045691Y-110050000D01*
X223700000Y-94400000D02*
X218220953Y-94400000D01*
X216331305Y-131687393D02*
X220109349Y-127909349D01*
X206901989Y-97400000D02*
X204001989Y-100300000D01*
X217880000Y-62500000D02*
X217880000Y-71320000D01*
X209572079Y-103877921D02*
X210650000Y-102800000D01*
X224712802Y-128246739D02*
X224964665Y-128498602D01*
X210650000Y-102800000D02*
X211700000Y-102800000D01*
X211700000Y-102800000D02*
X217100000Y-97400000D01*
X217450000Y-75300000D02*
X216750000Y-76000000D01*
X213490000Y-114699999D02*
X213490000Y-113725000D01*
X213899000Y-91560669D02*
X217479642Y-95141311D01*
X210668805Y-126646739D02*
X214153261Y-126646739D01*
X216750000Y-81000000D02*
X213899000Y-83851000D01*
X207634798Y-126662877D02*
X210652667Y-126662877D01*
X220109349Y-126646739D02*
X220109349Y-127909349D01*
X218220953Y-94400000D02*
X217479642Y-95141311D01*
X214153261Y-126646739D02*
X217131305Y-123668695D01*
X217100000Y-97400000D02*
X217479642Y-97020358D01*
X217901000Y-116601000D02*
X216900000Y-115600000D01*
X220446739Y-128246739D02*
X221993805Y-128246739D01*
X216331305Y-133109239D02*
X216331305Y-131687393D01*
X216900000Y-115600000D02*
X214390001Y-115600000D01*
X217901000Y-119690968D02*
X217901000Y-116601000D01*
X220109349Y-127909349D02*
X220446739Y-128246739D01*
X214929999Y-116600000D02*
X214050000Y-116600000D01*
X214050000Y-116600000D02*
X212200000Y-114750000D01*
X205673256Y-93500000D02*
X205446517Y-93273261D01*
X216030000Y-118675000D02*
X216030000Y-117700001D01*
X209171079Y-110021079D02*
X209171079Y-107821079D01*
X212200000Y-111338840D02*
X211661160Y-110800000D01*
X203401989Y-93898011D02*
X204026739Y-93273261D01*
X208550000Y-93500000D02*
X205673256Y-93500000D01*
X204700000Y-107050000D02*
X203401989Y-105751989D01*
X209950000Y-110800000D02*
X209171079Y-110021079D01*
X212200000Y-114750000D02*
X212200000Y-111338840D01*
X204026739Y-93273261D02*
X205446517Y-93273261D01*
X216030000Y-117700001D02*
X214929999Y-116600000D01*
X208400000Y-107050000D02*
X204700000Y-107050000D01*
X211661160Y-110800000D02*
X209950000Y-110800000D01*
X209171079Y-107821079D02*
X208400000Y-107050000D01*
X203401989Y-105751989D02*
X203401989Y-93898011D01*
X198744512Y-110148452D02*
X198744512Y-110373452D01*
X195494512Y-106898452D02*
X198744512Y-110148452D01*
X211504438Y-100195562D02*
X211598224Y-100195562D01*
X207200000Y-104500000D02*
X211504438Y-100195562D01*
X204660000Y-102200237D02*
X204611242Y-102151479D01*
X204660000Y-104500000D02*
X204660000Y-102200237D01*
X204625000Y-87500000D02*
X204625000Y-85225000D01*
X204625000Y-85225000D02*
X204650000Y-85200000D01*
X207351391Y-87500000D02*
X207165000Y-87500000D01*
X211638664Y-83212727D02*
X207351391Y-87500000D01*
X210668805Y-122168805D02*
X210082877Y-121582877D01*
X210668805Y-123446739D02*
X210668805Y-122168805D01*
X210082877Y-121582877D02*
X207634798Y-121582877D01*
X208392560Y-125447739D02*
X208791560Y-125846739D01*
X205094798Y-124122877D02*
X206419660Y-125447739D01*
X208791560Y-125846739D02*
X210668805Y-125846739D01*
X206419660Y-125447739D02*
X208392560Y-125447739D01*
X208558660Y-125046739D02*
X210668805Y-125046739D01*
X207634798Y-124122877D02*
X208558660Y-125046739D01*
X206483798Y-122971877D02*
X208121877Y-122971877D01*
X208121877Y-122971877D02*
X209396739Y-124246739D01*
X209396739Y-124246739D02*
X210668805Y-124246739D01*
X205094798Y-121582877D02*
X206483798Y-122971877D01*
X192000000Y-121975774D02*
X189523828Y-119499602D01*
X216179043Y-136399000D02*
X200739066Y-136399000D01*
X218731305Y-133109239D02*
X218731305Y-133846738D01*
X192000000Y-127659934D02*
X192000000Y-121975774D01*
X218731305Y-133846738D02*
X216179043Y-136399000D01*
X200739066Y-136399000D02*
X192000000Y-127659934D01*
X213131305Y-121784239D02*
X213131305Y-121046740D01*
X210934565Y-118850000D02*
X203600989Y-118850000D01*
X213131305Y-121046740D02*
X210934565Y-118850000D01*
X192401000Y-126933900D02*
X192401000Y-121809674D01*
X217931305Y-133846738D02*
X215780043Y-135998000D01*
X217931305Y-133109239D02*
X217931305Y-133846738D01*
X201465100Y-135998000D02*
X192401000Y-126933900D01*
X215780043Y-135998000D02*
X201465100Y-135998000D01*
X192150000Y-116125774D02*
X189523828Y-113499602D01*
X192401000Y-121809674D02*
X192150000Y-121558674D01*
X192150000Y-121558674D02*
X192150000Y-116125774D01*
X223307364Y-58844620D02*
X221479358Y-57016614D01*
X223307364Y-59320220D02*
X223307364Y-58844620D01*
X222429358Y-55141614D02*
X222429358Y-53339642D01*
X222429358Y-53339642D02*
X223012000Y-52757000D01*
X225985358Y-53190358D02*
X225552000Y-52757000D01*
X225985358Y-55141614D02*
X225985358Y-53190358D01*
X225729183Y-59320220D02*
X225729183Y-57710439D01*
X225729183Y-57710439D02*
X225035358Y-57016614D01*
X226060000Y-74991295D02*
X225415757Y-74347052D01*
X226060000Y-76454000D02*
X226060000Y-74991295D01*
X226365757Y-72472052D02*
X226365757Y-70588757D01*
X226365757Y-70588757D02*
X225552000Y-69775000D01*
X222123000Y-76454000D02*
X222123000Y-74610295D01*
X222123000Y-74610295D02*
X221859757Y-74347052D01*
X222809757Y-72472052D02*
X222809757Y-69977243D01*
X222809757Y-69977243D02*
X223012000Y-69775000D01*
X218440000Y-76402000D02*
X218440000Y-74483295D01*
X218440000Y-74483295D02*
X218303757Y-74347052D01*
X219253757Y-70993243D02*
X220472000Y-69775000D01*
X219253757Y-72472052D02*
X219253757Y-70993243D01*
X214367358Y-58174642D02*
X213207600Y-59334400D01*
X214367358Y-57016614D02*
X214367358Y-58174642D01*
X215317358Y-55141614D02*
X217701972Y-52757000D01*
X217701972Y-52757000D02*
X217932000Y-52757000D01*
X220472000Y-53542972D02*
X218873358Y-55141614D01*
X220472000Y-52757000D02*
X220472000Y-53542972D01*
X218236800Y-59334400D02*
X218236800Y-57330056D01*
X218236800Y-57330056D02*
X217923358Y-57016614D01*
X208205358Y-55141614D02*
X208205358Y-53190358D01*
X208205358Y-53190358D02*
X207772000Y-52757000D01*
X203715600Y-59123600D02*
X202692000Y-60147200D01*
X205148372Y-59123600D02*
X203715600Y-59123600D01*
X207255358Y-57016614D02*
X205148372Y-59123600D01*
X204063600Y-64287400D02*
X203149800Y-65201200D01*
X203149800Y-65201200D02*
X202692000Y-65201200D01*
X200601000Y-58987000D02*
X200601000Y-61065360D01*
X200601000Y-61065360D02*
X201257640Y-61722000D01*
X202571386Y-57016614D02*
X203699358Y-57016614D01*
X202977960Y-61722000D02*
X204063600Y-62807640D01*
X201257640Y-61722000D02*
X202977960Y-61722000D01*
X204063600Y-62807640D02*
X204063600Y-64287400D01*
X200601000Y-58987000D02*
X202571386Y-57016614D01*
X204649358Y-53339642D02*
X205232000Y-52757000D01*
X204649358Y-55141614D02*
X204649358Y-53339642D01*
X207772000Y-69787684D02*
X205124836Y-72434848D01*
X207772000Y-69775000D02*
X207772000Y-69787684D01*
X204012800Y-74471884D02*
X204174836Y-74309848D01*
X204012800Y-76327000D02*
X204012800Y-74471884D01*
X212192110Y-70434890D02*
X212852000Y-69775000D01*
X212192110Y-72464004D02*
X212192110Y-70434890D01*
X211302600Y-74399494D02*
X211242110Y-74339004D01*
X211302600Y-76352400D02*
X211302600Y-74399494D01*
X215697757Y-72472052D02*
X215697757Y-70080757D01*
X215697757Y-70080757D02*
X215392000Y-69775000D01*
X214884000Y-74483295D02*
X214747757Y-74347052D01*
X214884000Y-76327000D02*
X214884000Y-74483295D01*
X211761358Y-55141614D02*
X211761358Y-54206358D01*
X211761358Y-54206358D02*
X210312000Y-52757000D01*
X210546986Y-57016614D02*
X208102800Y-59460800D01*
X208102800Y-59460800D02*
X208102800Y-60299600D01*
X210811358Y-57016614D02*
X210546986Y-57016614D01*
X207670400Y-74323711D02*
X207684263Y-74309848D01*
X207670400Y-76327000D02*
X207670400Y-74323711D01*
X210312000Y-69775000D02*
X210312000Y-70757111D01*
X210312000Y-70757111D02*
X208634263Y-72434848D01*
X223012000Y-47312000D02*
X222960000Y-47260000D01*
X223012000Y-49657000D02*
X223012000Y-47312000D01*
X225552000Y-49657000D02*
X225552000Y-47312000D01*
X225552000Y-47312000D02*
X225500000Y-47260000D01*
X225552000Y-66675000D02*
X225552000Y-62552000D01*
X225552000Y-62552000D02*
X225500000Y-62500000D01*
X223012000Y-66675000D02*
X223012000Y-62552000D01*
X223012000Y-62552000D02*
X222960000Y-62500000D01*
X220472000Y-66675000D02*
X220472000Y-62552000D01*
X220472000Y-62552000D02*
X220420000Y-62500000D01*
X217932000Y-47312000D02*
X217880000Y-47260000D01*
X217932000Y-49657000D02*
X217932000Y-47312000D01*
X220472000Y-49657000D02*
X220472000Y-47312000D01*
X220472000Y-47312000D02*
X220420000Y-47260000D01*
X226789800Y-60553600D02*
X221440744Y-60553600D01*
X227725561Y-125046739D02*
X229299000Y-123473300D01*
X221440744Y-60553600D02*
X220207364Y-59320220D01*
X229299000Y-123473300D02*
X229299000Y-63062800D01*
X229299000Y-63062800D02*
X226789800Y-60553600D01*
X221993805Y-125046739D02*
X227725561Y-125046739D01*
X227492661Y-125846739D02*
X229700000Y-123639400D01*
X229700000Y-60191037D02*
X228829183Y-59320220D01*
X221993805Y-125846739D02*
X227492661Y-125846739D01*
X229700000Y-123639400D02*
X229700000Y-60191037D01*
X228096000Y-80715000D02*
X226935000Y-79554000D01*
X226703761Y-121784239D02*
X228096000Y-120392000D01*
X226935000Y-79554000D02*
X226060000Y-79554000D01*
X220331305Y-121784239D02*
X226703761Y-121784239D01*
X228096000Y-120392000D02*
X228096000Y-80715000D01*
X226872800Y-80899000D02*
X223468000Y-80899000D01*
X227695000Y-81721200D02*
X226872800Y-80899000D01*
X220004245Y-120573800D02*
X226031700Y-120573800D01*
X226031700Y-120573800D02*
X227695000Y-118910500D01*
X219531305Y-121046740D02*
X220004245Y-120573800D01*
X223468000Y-80899000D02*
X222123000Y-79554000D01*
X219531305Y-121784239D02*
X219531305Y-121046740D01*
X227695000Y-118910500D02*
X227695000Y-81721200D01*
X218731305Y-121784239D02*
X218731305Y-121046740D01*
X226283200Y-81300000D02*
X223301900Y-81300000D01*
X222901900Y-80900000D02*
X223301900Y-81300000D01*
X218731305Y-121046740D02*
X219605245Y-120172800D01*
X219605245Y-120172800D02*
X225865600Y-120172800D01*
X225865600Y-120172800D02*
X227294000Y-118744400D01*
X220002000Y-79502000D02*
X221400000Y-80900000D01*
X227294000Y-82310800D02*
X226283200Y-81300000D01*
X221400000Y-80900000D02*
X222901900Y-80900000D01*
X227294000Y-118744400D02*
X227294000Y-82310800D01*
X218440000Y-79502000D02*
X220002000Y-79502000D01*
X228497000Y-122454800D02*
X228497000Y-63395000D01*
X212139600Y-61366400D02*
X210107600Y-59334400D01*
X228497000Y-63395000D02*
X226468400Y-61366400D01*
X227505061Y-123446739D02*
X228497000Y-122454800D01*
X226468400Y-61366400D02*
X212139600Y-61366400D01*
X221993805Y-123446739D02*
X227505061Y-123446739D01*
X216757000Y-60954600D02*
X215136800Y-59334400D01*
X221993805Y-124246739D02*
X227958461Y-124246739D01*
X226623700Y-60954600D02*
X216757000Y-60954600D01*
X228898000Y-123307200D02*
X228898000Y-63228900D01*
X228898000Y-63228900D02*
X226623700Y-60954600D01*
X227958461Y-124246739D02*
X228898000Y-123307200D01*
X210850000Y-106343786D02*
X211598224Y-105595562D01*
X218164776Y-97500000D02*
X211598224Y-104066552D01*
X211598224Y-104066552D02*
X211598224Y-105595562D01*
X210850000Y-108700000D02*
X210850000Y-106343786D01*
X223700000Y-97500000D02*
X218164776Y-97500000D01*
X214379642Y-95141311D02*
X213291311Y-95141311D01*
X213291311Y-95141311D02*
X211650000Y-93500000D01*
X211638664Y-88612727D02*
X211638664Y-93488664D01*
X211638664Y-93488664D02*
X211650000Y-93500000D01*
X207772000Y-49657000D02*
X207772000Y-47312000D01*
X207772000Y-47312000D02*
X207720000Y-47260000D01*
X205232000Y-47312000D02*
X205180000Y-47260000D01*
X205232000Y-49657000D02*
X205232000Y-47312000D01*
X207772000Y-62552000D02*
X207720000Y-62500000D01*
X207772000Y-66675000D02*
X207772000Y-62552000D01*
X212852000Y-62552000D02*
X212800000Y-62500000D01*
X212852000Y-66675000D02*
X212852000Y-62552000D01*
X215392000Y-62552000D02*
X215340000Y-62500000D01*
X215392000Y-66675000D02*
X215392000Y-62552000D01*
X210312000Y-49657000D02*
X210312000Y-47312000D01*
X210312000Y-47312000D02*
X210260000Y-47260000D01*
X210312000Y-62552000D02*
X210260000Y-62500000D01*
X210312000Y-66675000D02*
X210312000Y-62552000D01*
X214731305Y-118703695D02*
X214760000Y-118675000D01*
X214731305Y-121784239D02*
X214731305Y-118703695D01*
X217300000Y-119278045D02*
X217300000Y-118675000D01*
X215531305Y-121046740D02*
X217300000Y-119278045D01*
X215531305Y-121784239D02*
X215531305Y-121046740D01*
X203665295Y-134584705D02*
X200594989Y-131514400D01*
X211099439Y-135350739D02*
X210461939Y-134713239D01*
X203793827Y-134713239D02*
X203665295Y-134584705D01*
X201573200Y-63247200D02*
X200594989Y-64225411D01*
X210461939Y-134713239D02*
X203793827Y-134713239D01*
X202692000Y-63247200D02*
X201573200Y-63247200D01*
X214027304Y-135350739D02*
X211099439Y-135350739D01*
X215531305Y-133109239D02*
X215531305Y-133846738D01*
X200594989Y-64225411D02*
X200594989Y-131514400D01*
X215531305Y-133846738D02*
X214027304Y-135350739D01*
X214731305Y-133109239D02*
X214731305Y-133846738D01*
X203959927Y-134312239D02*
X200995989Y-131348300D01*
X214731305Y-133846738D02*
X213628304Y-134949739D01*
X201421400Y-68301200D02*
X200995989Y-68726611D01*
X202692000Y-68301200D02*
X201421400Y-68301200D01*
X213628304Y-134949739D02*
X211265539Y-134949739D01*
X210628039Y-134312239D02*
X203959927Y-134312239D01*
X200995989Y-68726611D02*
X200995989Y-131348300D01*
X211265539Y-134949739D02*
X210628039Y-134312239D01*
X213131305Y-133670683D02*
X212654249Y-134147739D01*
X204012800Y-79427000D02*
X202436800Y-79427000D01*
X204292128Y-133510239D02*
X204215944Y-133434056D01*
X201797989Y-80065811D02*
X201797989Y-131016100D01*
X212654249Y-134147739D02*
X211597739Y-134147739D01*
X210960239Y-133510239D02*
X204292128Y-133510239D01*
X204215944Y-133434056D02*
X201797989Y-131016100D01*
X211597739Y-134147739D02*
X210960239Y-133510239D01*
X213131305Y-133109239D02*
X213131305Y-133670683D01*
X202436800Y-79427000D02*
X201797989Y-80065811D01*
X203396728Y-131446739D02*
X210668805Y-131446739D01*
X202599989Y-80999311D02*
X202599989Y-130650000D01*
X202731100Y-80868200D02*
X202599989Y-80999311D01*
X209886800Y-80868200D02*
X202731100Y-80868200D01*
X211302600Y-79452400D02*
X209886800Y-80868200D01*
X202599989Y-130650000D02*
X203396728Y-131446739D01*
X203130800Y-81269200D02*
X203000989Y-81399011D01*
X203000989Y-81399011D02*
X203000989Y-129650989D01*
X213041800Y-81269200D02*
X203130800Y-81269200D01*
X203000989Y-129650989D02*
X203996739Y-130646739D01*
X214884000Y-79427000D02*
X213041800Y-81269200D01*
X203996739Y-130646739D02*
X210668805Y-130646739D01*
X213229304Y-134548739D02*
X211431639Y-134548739D01*
X203250800Y-69697600D02*
X204012800Y-68935600D01*
X210794139Y-133911239D02*
X204126027Y-133911239D01*
X213931305Y-133846738D02*
X213229304Y-134548739D01*
X204126027Y-133911239D02*
X201396989Y-131182200D01*
X211431639Y-134548739D02*
X210794139Y-133911239D01*
X206231000Y-63161400D02*
X206231000Y-61527800D01*
X213931305Y-133109239D02*
X213931305Y-133846738D01*
X204012800Y-65379600D02*
X206231000Y-63161400D01*
X206231000Y-61527800D02*
X205002800Y-60299600D01*
X201396989Y-70103611D02*
X201803000Y-69697600D01*
X204012800Y-68935600D02*
X204012800Y-65379600D01*
X201803000Y-69697600D02*
X203250800Y-69697600D01*
X201396989Y-131182200D02*
X201396989Y-70103611D01*
X207670400Y-79427000D02*
X206630200Y-80467200D01*
X212331305Y-133109239D02*
X204458228Y-133109239D01*
X204458228Y-133109239D02*
X202198989Y-130850000D01*
X206630200Y-80467200D02*
X202565000Y-80467200D01*
X202198989Y-80833211D02*
X202198989Y-130850000D01*
X202565000Y-80467200D02*
X202198989Y-80833211D01*
X210850000Y-116035000D02*
X213490000Y-118675000D01*
X210850000Y-111800000D02*
X210850000Y-116035000D01*
X210850000Y-111800000D02*
X208800000Y-111800000D01*
X208800000Y-111800000D02*
X208207579Y-111207579D01*
X208207579Y-111207579D02*
X208207579Y-108989219D01*
G04 #@! TA.AperFunction,Conductor*
G36*
X213269031Y-37520185D02*
G01*
X213314786Y-37572989D01*
X213324730Y-37642147D01*
X213295705Y-37705703D01*
X213260445Y-37733858D01*
X213095279Y-37822140D01*
X213095261Y-37822151D01*
X212792964Y-38024140D01*
X212792950Y-38024150D01*
X212511893Y-38254807D01*
X212254807Y-38511893D01*
X212024150Y-38792950D01*
X212024140Y-38792964D01*
X211822151Y-39095261D01*
X211822140Y-39095279D01*
X211650756Y-39415916D01*
X211650754Y-39415921D01*
X211511614Y-39751834D01*
X211406067Y-40099776D01*
X211406064Y-40099787D01*
X211335137Y-40456369D01*
X211299500Y-40818209D01*
X211299500Y-41181790D01*
X211335137Y-41543630D01*
X211406064Y-41900212D01*
X211406067Y-41900223D01*
X211511614Y-42248165D01*
X211650754Y-42584078D01*
X211650756Y-42584083D01*
X211822140Y-42904720D01*
X211822151Y-42904738D01*
X212024140Y-43207035D01*
X212024150Y-43207049D01*
X212254807Y-43488106D01*
X212511893Y-43745192D01*
X212511898Y-43745196D01*
X212511899Y-43745197D01*
X212792956Y-43975854D01*
X213095268Y-44177853D01*
X213095277Y-44177858D01*
X213095279Y-44177859D01*
X213415916Y-44349243D01*
X213415918Y-44349243D01*
X213415924Y-44349247D01*
X213751836Y-44488386D01*
X214099767Y-44593930D01*
X214099773Y-44593931D01*
X214099776Y-44593932D01*
X214099787Y-44593935D01*
X214456369Y-44664862D01*
X214818206Y-44700500D01*
X214818209Y-44700500D01*
X215181791Y-44700500D01*
X215181794Y-44700500D01*
X215543631Y-44664862D01*
X215613045Y-44651054D01*
X215900212Y-44593935D01*
X215900223Y-44593932D01*
X215900223Y-44593931D01*
X215900233Y-44593930D01*
X216248164Y-44488386D01*
X216584076Y-44349247D01*
X216904732Y-44177853D01*
X217207044Y-43975854D01*
X217488101Y-43745197D01*
X217745197Y-43488101D01*
X217975854Y-43207044D01*
X218177853Y-42904732D01*
X218349247Y-42584076D01*
X218488386Y-42248164D01*
X218593930Y-41900233D01*
X218593932Y-41900223D01*
X218593935Y-41900212D01*
X218664862Y-41543630D01*
X218700500Y-41181790D01*
X218700500Y-40818209D01*
X218664862Y-40456369D01*
X218593935Y-40099787D01*
X218593932Y-40099776D01*
X218593931Y-40099773D01*
X218593930Y-40099767D01*
X218488386Y-39751836D01*
X218349247Y-39415924D01*
X218177853Y-39095268D01*
X217975854Y-38792956D01*
X217745197Y-38511899D01*
X217745196Y-38511898D01*
X217745192Y-38511893D01*
X217488106Y-38254807D01*
X217207049Y-38024150D01*
X217207048Y-38024149D01*
X217207044Y-38024146D01*
X216904732Y-37822147D01*
X216904727Y-37822144D01*
X216904720Y-37822140D01*
X216739555Y-37733858D01*
X216689711Y-37684896D01*
X216674250Y-37616758D01*
X216698082Y-37551079D01*
X216753639Y-37508710D01*
X216798008Y-37500500D01*
X230375500Y-37500500D01*
X230442539Y-37520185D01*
X230488294Y-37572989D01*
X230499500Y-37624500D01*
X230499500Y-59915087D01*
X230498393Y-59918854D01*
X230499267Y-59922681D01*
X230488629Y-59952108D01*
X230479815Y-59982126D01*
X230476848Y-59984696D01*
X230475514Y-59988389D01*
X230450651Y-60007396D01*
X230427011Y-60027881D01*
X230423125Y-60028439D01*
X230420007Y-60030824D01*
X230388821Y-60033372D01*
X230357853Y-60037825D01*
X230354282Y-60036194D01*
X230350369Y-60036514D01*
X230322755Y-60021796D01*
X230294297Y-60008800D01*
X230291173Y-60004964D01*
X230288710Y-60003651D01*
X230281916Y-59993593D01*
X230267275Y-59975612D01*
X230260912Y-59964234D01*
X230259577Y-59959252D01*
X230213703Y-59879797D01*
X230180520Y-59822321D01*
X230068716Y-59710517D01*
X230068715Y-59710516D01*
X230064385Y-59706186D01*
X230064374Y-59706176D01*
X230016001Y-59657803D01*
X229982516Y-59596480D01*
X229982516Y-59596479D01*
X229979682Y-59570122D01*
X229979682Y-58645218D01*
X229979681Y-58645201D01*
X229969182Y-58542423D01*
X229969181Y-58542420D01*
X229961840Y-58520266D01*
X229913997Y-58375886D01*
X229821895Y-58226564D01*
X229697839Y-58102508D01*
X229548517Y-58010406D01*
X229381980Y-57955221D01*
X229381978Y-57955220D01*
X229279193Y-57944720D01*
X228379181Y-57944720D01*
X228379163Y-57944721D01*
X228276386Y-57955220D01*
X228276383Y-57955221D01*
X228109851Y-58010405D01*
X228109846Y-58010407D01*
X227960525Y-58102509D01*
X227836472Y-58226562D01*
X227744370Y-58375883D01*
X227744368Y-58375888D01*
X227730540Y-58417619D01*
X227689184Y-58542423D01*
X227689184Y-58542424D01*
X227689183Y-58542424D01*
X227678683Y-58645203D01*
X227678683Y-59995221D01*
X227678684Y-59995238D01*
X227689183Y-60098016D01*
X227689184Y-60098019D01*
X227744368Y-60264551D01*
X227744372Y-60264560D01*
X227822246Y-60390814D01*
X227840686Y-60458206D01*
X227819763Y-60524870D01*
X227766121Y-60569639D01*
X227696790Y-60578300D01*
X227633783Y-60548103D01*
X227629026Y-60543591D01*
X227277390Y-60191955D01*
X227277388Y-60191952D01*
X227158517Y-60073081D01*
X227158516Y-60073080D01*
X227048232Y-60009408D01*
X227021585Y-59994023D01*
X226965185Y-59978910D01*
X226958989Y-59976516D01*
X226936317Y-59959125D01*
X226911926Y-59944257D01*
X226908952Y-59938134D01*
X226903550Y-59933991D01*
X226893881Y-59907108D01*
X226881398Y-59881410D01*
X226880418Y-59869679D01*
X226879903Y-59868245D01*
X226880193Y-59866980D01*
X226879682Y-59860850D01*
X226879682Y-58645218D01*
X226879681Y-58645201D01*
X226869182Y-58542423D01*
X226869181Y-58542420D01*
X226861840Y-58520266D01*
X226813997Y-58375886D01*
X226737219Y-58251409D01*
X227185358Y-58251409D01*
X227185359Y-58251409D01*
X227187844Y-58251214D01*
X227345556Y-58205395D01*
X227486910Y-58121799D01*
X227486919Y-58121792D01*
X227603036Y-58005675D01*
X227603043Y-58005666D01*
X227686640Y-57864310D01*
X227686641Y-57864307D01*
X227732457Y-57706609D01*
X227732458Y-57706603D01*
X227735357Y-57669763D01*
X227735358Y-57669748D01*
X227735358Y-57266614D01*
X227185358Y-57266614D01*
X227185358Y-58251409D01*
X226737219Y-58251409D01*
X226721895Y-58226564D01*
X226721677Y-58226346D01*
X226721575Y-58226159D01*
X226717417Y-58220901D01*
X226718315Y-58220190D01*
X226688192Y-58165023D01*
X226685358Y-58138665D01*
X226685358Y-57266614D01*
X226185956Y-57266614D01*
X226118917Y-57246929D01*
X226098275Y-57230295D01*
X225872177Y-57004197D01*
X225838692Y-56942874D01*
X225835858Y-56916516D01*
X225835858Y-56503614D01*
X225838408Y-56494928D01*
X225837120Y-56485967D01*
X225848098Y-56461926D01*
X225855543Y-56436575D01*
X225862383Y-56430647D01*
X225866145Y-56422411D01*
X225888379Y-56408121D01*
X225908347Y-56390820D01*
X225918861Y-56388532D01*
X225924923Y-56384637D01*
X225959858Y-56379614D01*
X226011358Y-56379614D01*
X226078397Y-56399299D01*
X226124152Y-56452103D01*
X226135358Y-56503614D01*
X226135358Y-56766614D01*
X226685358Y-56766614D01*
X227185358Y-56766614D01*
X227735358Y-56766614D01*
X227735358Y-56363479D01*
X227735357Y-56363464D01*
X227732458Y-56326624D01*
X227732457Y-56326618D01*
X227686641Y-56168920D01*
X227686640Y-56168917D01*
X227603043Y-56027561D01*
X227603036Y-56027552D01*
X227486919Y-55911435D01*
X227486910Y-55911428D01*
X227345554Y-55827831D01*
X227345551Y-55827830D01*
X227187852Y-55782014D01*
X227187855Y-55782014D01*
X227185358Y-55781817D01*
X227185358Y-56766614D01*
X226685358Y-56766614D01*
X226685358Y-56110928D01*
X226702625Y-56047808D01*
X226737102Y-55989512D01*
X226782956Y-55831683D01*
X226785858Y-55794808D01*
X226785858Y-54488420D01*
X226782956Y-54451545D01*
X226737102Y-54293716D01*
X226653439Y-54152249D01*
X226653437Y-54152247D01*
X226653434Y-54152243D01*
X226622177Y-54120986D01*
X226607473Y-54094058D01*
X226590881Y-54068240D01*
X226589989Y-54062039D01*
X226588692Y-54059663D01*
X226585858Y-54033305D01*
X226585858Y-53855802D01*
X226605543Y-53788763D01*
X226640324Y-53754621D01*
X226639987Y-53754195D01*
X226643958Y-53751054D01*
X226644768Y-53750259D01*
X226645656Y-53749712D01*
X226769712Y-53625656D01*
X226861814Y-53476334D01*
X226916999Y-53309797D01*
X226927500Y-53207009D01*
X226927499Y-52306992D01*
X226916999Y-52204203D01*
X226861814Y-52037666D01*
X226769712Y-51888344D01*
X226645656Y-51764288D01*
X226496334Y-51672186D01*
X226329797Y-51617001D01*
X226329795Y-51617000D01*
X226227010Y-51606500D01*
X224876998Y-51606500D01*
X224876981Y-51606501D01*
X224774203Y-51617000D01*
X224774200Y-51617001D01*
X224607668Y-51672185D01*
X224607663Y-51672187D01*
X224458342Y-51764289D01*
X224369681Y-51852951D01*
X224308358Y-51886436D01*
X224238666Y-51881452D01*
X224194319Y-51852951D01*
X224105657Y-51764289D01*
X224105656Y-51764288D01*
X223956334Y-51672186D01*
X223789797Y-51617001D01*
X223789795Y-51617000D01*
X223687010Y-51606500D01*
X222336998Y-51606500D01*
X222336981Y-51606501D01*
X222234203Y-51617000D01*
X222234200Y-51617001D01*
X222067668Y-51672185D01*
X222067663Y-51672187D01*
X221918342Y-51764289D01*
X221829681Y-51852951D01*
X221768358Y-51886436D01*
X221698666Y-51881452D01*
X221654319Y-51852951D01*
X221565657Y-51764289D01*
X221565656Y-51764288D01*
X221416334Y-51672186D01*
X221249797Y-51617001D01*
X221249795Y-51617000D01*
X221147010Y-51606500D01*
X219796998Y-51606500D01*
X219796981Y-51606501D01*
X219694203Y-51617000D01*
X219694200Y-51617001D01*
X219527668Y-51672185D01*
X219527663Y-51672187D01*
X219378342Y-51764289D01*
X219289681Y-51852951D01*
X219228358Y-51886436D01*
X219158666Y-51881452D01*
X219114319Y-51852951D01*
X219025657Y-51764289D01*
X219025656Y-51764288D01*
X218876334Y-51672186D01*
X218709797Y-51617001D01*
X218709795Y-51617000D01*
X218607010Y-51606500D01*
X217256998Y-51606500D01*
X217256981Y-51606501D01*
X217154203Y-51617000D01*
X217154200Y-51617001D01*
X216987668Y-51672185D01*
X216987663Y-51672187D01*
X216838342Y-51764289D01*
X216714289Y-51888342D01*
X216622187Y-52037663D01*
X216622186Y-52037666D01*
X216567001Y-52204203D01*
X216567001Y-52204204D01*
X216567000Y-52204204D01*
X216556500Y-52306983D01*
X216556500Y-53001874D01*
X216536815Y-53068913D01*
X216520181Y-53089555D01*
X215725067Y-53884668D01*
X215663744Y-53918153D01*
X215602793Y-53916064D01*
X215573314Y-53907500D01*
X215569927Y-53906516D01*
X215569924Y-53906515D01*
X215569921Y-53906515D01*
X215533059Y-53903614D01*
X215533052Y-53903614D01*
X215101664Y-53903614D01*
X215101656Y-53903614D01*
X215064790Y-53906515D01*
X215064784Y-53906516D01*
X214906964Y-53952368D01*
X214906961Y-53952369D01*
X214765495Y-54036031D01*
X214765487Y-54036037D01*
X214649281Y-54152243D01*
X214649275Y-54152251D01*
X214565613Y-54293717D01*
X214565612Y-54293720D01*
X214519760Y-54451540D01*
X214519759Y-54451546D01*
X214516858Y-54488412D01*
X214516858Y-55654614D01*
X214497173Y-55721653D01*
X214444369Y-55767408D01*
X214392858Y-55778614D01*
X214151656Y-55778614D01*
X214114790Y-55781515D01*
X214114784Y-55781516D01*
X213956964Y-55827368D01*
X213956961Y-55827369D01*
X213815495Y-55911031D01*
X213815487Y-55911037D01*
X213699281Y-56027243D01*
X213699277Y-56027249D01*
X213645799Y-56117675D01*
X213594729Y-56165358D01*
X213525988Y-56177861D01*
X213461398Y-56151215D01*
X213432335Y-56117674D01*
X213379042Y-56027560D01*
X213379036Y-56027552D01*
X213262919Y-55911435D01*
X213262910Y-55911428D01*
X213121554Y-55827831D01*
X213121551Y-55827830D01*
X212963852Y-55782014D01*
X212963855Y-55782014D01*
X212961358Y-55781817D01*
X212961358Y-56892614D01*
X212941673Y-56959653D01*
X212888869Y-57005408D01*
X212837358Y-57016614D01*
X212711358Y-57016614D01*
X212711358Y-57142614D01*
X212691673Y-57209653D01*
X212638869Y-57255408D01*
X212587358Y-57266614D01*
X211911358Y-57266614D01*
X211911358Y-57669763D01*
X211914257Y-57706603D01*
X211914258Y-57706609D01*
X211960074Y-57864307D01*
X211960075Y-57864310D01*
X212043672Y-58005666D01*
X212043679Y-58005675D01*
X212165318Y-58127314D01*
X212164138Y-58128493D01*
X212199574Y-58177551D01*
X212203370Y-58247318D01*
X212188210Y-58283995D01*
X212122789Y-58390059D01*
X212122786Y-58390066D01*
X212067601Y-58556603D01*
X212067601Y-58556604D01*
X212067600Y-58556604D01*
X212057100Y-58659383D01*
X212057100Y-60009401D01*
X212057101Y-60009408D01*
X212067600Y-60112196D01*
X212067602Y-60112203D01*
X212068045Y-60113539D01*
X212068074Y-60114411D01*
X212069019Y-60118822D01*
X212068232Y-60118990D01*
X212070446Y-60183367D01*
X212034714Y-60243409D01*
X211972194Y-60274601D01*
X211902734Y-60267040D01*
X211862658Y-60240223D01*
X211294418Y-59671983D01*
X211260933Y-59610660D01*
X211258099Y-59584302D01*
X211258099Y-58659390D01*
X211258098Y-58659381D01*
X211247599Y-58556603D01*
X211247598Y-58556600D01*
X211246337Y-58552796D01*
X211192414Y-58390066D01*
X211192407Y-58390054D01*
X211183324Y-58375327D01*
X211164884Y-58307935D01*
X211185807Y-58241272D01*
X211225743Y-58203500D01*
X211256076Y-58185561D01*
X211363223Y-58122195D01*
X211479439Y-58005979D01*
X211563102Y-57864512D01*
X211608956Y-57706683D01*
X211611858Y-57669808D01*
X211611858Y-56503614D01*
X211614408Y-56494928D01*
X211613120Y-56485967D01*
X211624098Y-56461926D01*
X211631543Y-56436575D01*
X211638383Y-56430647D01*
X211642145Y-56422411D01*
X211664379Y-56408121D01*
X211684347Y-56390820D01*
X211694861Y-56388532D01*
X211700923Y-56384637D01*
X211735858Y-56379614D01*
X211787358Y-56379614D01*
X211854397Y-56399299D01*
X211900152Y-56452103D01*
X211911358Y-56503614D01*
X211911358Y-56766614D01*
X212461358Y-56766614D01*
X212461358Y-56110928D01*
X212478625Y-56047808D01*
X212513102Y-55989512D01*
X212558956Y-55831683D01*
X212561858Y-55794808D01*
X212561858Y-54488420D01*
X212558956Y-54451545D01*
X212513102Y-54293716D01*
X212429439Y-54152249D01*
X212369746Y-54092556D01*
X212337655Y-54036972D01*
X212320935Y-53974574D01*
X212308115Y-53952369D01*
X212241882Y-53837648D01*
X212241876Y-53837640D01*
X211722097Y-53317862D01*
X211688612Y-53256539D01*
X211686420Y-53217577D01*
X211687500Y-53207009D01*
X211687499Y-52306992D01*
X211676999Y-52204203D01*
X211621814Y-52037666D01*
X211529712Y-51888344D01*
X211405656Y-51764288D01*
X211256334Y-51672186D01*
X211089797Y-51617001D01*
X211089795Y-51617000D01*
X210987010Y-51606500D01*
X209636998Y-51606500D01*
X209636981Y-51606501D01*
X209534203Y-51617000D01*
X209534200Y-51617001D01*
X209367668Y-51672185D01*
X209367663Y-51672187D01*
X209218342Y-51764289D01*
X209129681Y-51852951D01*
X209068358Y-51886436D01*
X208998666Y-51881452D01*
X208954319Y-51852951D01*
X208865657Y-51764289D01*
X208865656Y-51764288D01*
X208716334Y-51672186D01*
X208549797Y-51617001D01*
X208549795Y-51617000D01*
X208447010Y-51606500D01*
X207096998Y-51606500D01*
X207096981Y-51606501D01*
X206994203Y-51617000D01*
X206994200Y-51617001D01*
X206827668Y-51672185D01*
X206827663Y-51672187D01*
X206678342Y-51764289D01*
X206589681Y-51852951D01*
X206528358Y-51886436D01*
X206458666Y-51881452D01*
X206414319Y-51852951D01*
X206325657Y-51764289D01*
X206325656Y-51764288D01*
X206176334Y-51672186D01*
X206009797Y-51617001D01*
X206009795Y-51617000D01*
X205907010Y-51606500D01*
X204556998Y-51606500D01*
X204556981Y-51606501D01*
X204454203Y-51617000D01*
X204454200Y-51617001D01*
X204287668Y-51672185D01*
X204287663Y-51672187D01*
X204138342Y-51764289D01*
X204014289Y-51888342D01*
X203922187Y-52037663D01*
X203922186Y-52037666D01*
X203867001Y-52204203D01*
X203867001Y-52204204D01*
X203867000Y-52204204D01*
X203856500Y-52306983D01*
X203856500Y-53207001D01*
X203856501Y-53207019D01*
X203867000Y-53309796D01*
X203867001Y-53309799D01*
X203869673Y-53317862D01*
X203922186Y-53476334D01*
X204014288Y-53625656D01*
X204014289Y-53625657D01*
X204014290Y-53625658D01*
X204018766Y-53631319D01*
X204017243Y-53632522D01*
X204046024Y-53685230D01*
X204048858Y-53711588D01*
X204048858Y-54033305D01*
X204029173Y-54100344D01*
X204012539Y-54120986D01*
X203981281Y-54152243D01*
X203981275Y-54152251D01*
X203897613Y-54293717D01*
X203897612Y-54293720D01*
X203851760Y-54451540D01*
X203851759Y-54451546D01*
X203848858Y-54488412D01*
X203848858Y-55654614D01*
X203829173Y-55721653D01*
X203776369Y-55767408D01*
X203724858Y-55778614D01*
X203483656Y-55778614D01*
X203446790Y-55781515D01*
X203446784Y-55781516D01*
X203288964Y-55827368D01*
X203288961Y-55827369D01*
X203147495Y-55911031D01*
X203147487Y-55911037D01*
X203031281Y-56027243D01*
X203031275Y-56027251D01*
X202947613Y-56168717D01*
X202947612Y-56168720D01*
X202901712Y-56326709D01*
X202887398Y-56349122D01*
X202876349Y-56373317D01*
X202868882Y-56378115D01*
X202864106Y-56385595D01*
X202839944Y-56396712D01*
X202817571Y-56411091D01*
X202804662Y-56412947D01*
X202800633Y-56414801D01*
X202782636Y-56416114D01*
X202658056Y-56416114D01*
X202658040Y-56416113D01*
X202650444Y-56416113D01*
X202492329Y-56416113D01*
X202438089Y-56430647D01*
X202339600Y-56457037D01*
X202339595Y-56457040D01*
X202202676Y-56536089D01*
X202202668Y-56536095D01*
X200120481Y-58618282D01*
X200120477Y-58618287D01*
X200104931Y-58645216D01*
X200096747Y-58659392D01*
X200069085Y-58707303D01*
X200041423Y-58755214D01*
X200041423Y-58755215D01*
X200000499Y-58907943D01*
X200000499Y-58907945D01*
X200000499Y-59076046D01*
X200000500Y-59076059D01*
X200000500Y-60978690D01*
X200000499Y-60978708D01*
X200000499Y-61144414D01*
X200000498Y-61144414D01*
X200041423Y-61297147D01*
X200041424Y-61297148D01*
X200056531Y-61323313D01*
X200056533Y-61323316D01*
X200120477Y-61434072D01*
X200120481Y-61434077D01*
X200239349Y-61552945D01*
X200239355Y-61552950D01*
X200772779Y-62086374D01*
X200772789Y-62086385D01*
X200777119Y-62090715D01*
X200777120Y-62090716D01*
X200888924Y-62202520D01*
X200967808Y-62248063D01*
X201025855Y-62281577D01*
X201178582Y-62322500D01*
X201178583Y-62322500D01*
X201286682Y-62322500D01*
X201353721Y-62342185D01*
X201399476Y-62394989D01*
X201409420Y-62464147D01*
X201402574Y-62490603D01*
X201398392Y-62501590D01*
X201382186Y-62527866D01*
X201340362Y-62654081D01*
X201339397Y-62656618D01*
X201319848Y-62682374D01*
X201301438Y-62708964D01*
X201297739Y-62711502D01*
X201297156Y-62712272D01*
X201296008Y-62712691D01*
X201285505Y-62719902D01*
X201204487Y-62766677D01*
X201204482Y-62766681D01*
X200114470Y-63856693D01*
X200114469Y-63856695D01*
X200078680Y-63918684D01*
X200035412Y-63993626D01*
X199994488Y-64146354D01*
X199994488Y-64146356D01*
X199994488Y-64314457D01*
X199994489Y-64314470D01*
X199994489Y-109227065D01*
X199974804Y-109294104D01*
X199922000Y-109339859D01*
X199852842Y-109349803D01*
X199805393Y-109332604D01*
X199713852Y-109276141D01*
X199713847Y-109276139D01*
X199713846Y-109276138D01*
X199547309Y-109220953D01*
X199547307Y-109220952D01*
X199444528Y-109210452D01*
X199444521Y-109210452D01*
X198707109Y-109210452D01*
X198640070Y-109190767D01*
X198619428Y-109174133D01*
X197237279Y-107791984D01*
X197203794Y-107730661D01*
X197208778Y-107660969D01*
X197210386Y-107656882D01*
X197274290Y-107502605D01*
X197337921Y-107265129D01*
X197370012Y-107021379D01*
X197370012Y-106775525D01*
X197337921Y-106531775D01*
X197274290Y-106294299D01*
X197180206Y-106067160D01*
X197057279Y-105854244D01*
X196983078Y-105757544D01*
X196907614Y-105659197D01*
X196907608Y-105659190D01*
X196733773Y-105485355D01*
X196733766Y-105485349D01*
X196538724Y-105335688D01*
X196538723Y-105335687D01*
X196538720Y-105335685D01*
X196362633Y-105234021D01*
X196325806Y-105212759D01*
X196325797Y-105212755D01*
X196098674Y-105118677D01*
X196098667Y-105118675D01*
X196098665Y-105118674D01*
X195861189Y-105055043D01*
X195820451Y-105049679D01*
X195617446Y-105022952D01*
X195617439Y-105022952D01*
X195371585Y-105022952D01*
X195371577Y-105022952D01*
X195139571Y-105053497D01*
X195127835Y-105055043D01*
X194890359Y-105118674D01*
X194890349Y-105118677D01*
X194663226Y-105212755D01*
X194663217Y-105212759D01*
X194450299Y-105335688D01*
X194255257Y-105485349D01*
X194255250Y-105485355D01*
X194081415Y-105659190D01*
X194081409Y-105659197D01*
X193931748Y-105854239D01*
X193808819Y-106067157D01*
X193808815Y-106067166D01*
X193714737Y-106294289D01*
X193714734Y-106294299D01*
X193651103Y-106531775D01*
X193649557Y-106543511D01*
X193619012Y-106775517D01*
X193619012Y-107021386D01*
X193636944Y-107157584D01*
X193651103Y-107265129D01*
X193714734Y-107502604D01*
X193714737Y-107502614D01*
X193787696Y-107678752D01*
X193808818Y-107729744D01*
X193931745Y-107942660D01*
X193931747Y-107942663D01*
X193931748Y-107942664D01*
X194081409Y-108137706D01*
X194081415Y-108137713D01*
X194255250Y-108311548D01*
X194255256Y-108311553D01*
X194450304Y-108461219D01*
X194663220Y-108584146D01*
X194890359Y-108678230D01*
X195127835Y-108741861D01*
X195371585Y-108773952D01*
X195371592Y-108773952D01*
X195617432Y-108773952D01*
X195617439Y-108773952D01*
X195861189Y-108741861D01*
X196098665Y-108678230D01*
X196252912Y-108614338D01*
X196322379Y-108606870D01*
X196384858Y-108638145D01*
X196388044Y-108641219D01*
X197350324Y-109603499D01*
X197383809Y-109664822D01*
X197380349Y-109730183D01*
X197354513Y-109808151D01*
X197344012Y-109910935D01*
X197344012Y-110835953D01*
X197344013Y-110835971D01*
X197354512Y-110938748D01*
X197354513Y-110938751D01*
X197409697Y-111105283D01*
X197409699Y-111105288D01*
X197424030Y-111128522D01*
X197501800Y-111254608D01*
X197625856Y-111378664D01*
X197775178Y-111470766D01*
X197941715Y-111525951D01*
X198044503Y-111536452D01*
X199444520Y-111536451D01*
X199547309Y-111525951D01*
X199713846Y-111470766D01*
X199805392Y-111414299D01*
X199872784Y-111395859D01*
X199939448Y-111416781D01*
X199984217Y-111470423D01*
X199994489Y-111519838D01*
X199994489Y-112352652D01*
X199974804Y-112419691D01*
X199922000Y-112465446D01*
X199852842Y-112475390D01*
X199805392Y-112458191D01*
X199713636Y-112401595D01*
X199713631Y-112401593D01*
X199547209Y-112346446D01*
X199547202Y-112346445D01*
X199444498Y-112335952D01*
X198994512Y-112335952D01*
X198994512Y-114660951D01*
X199444484Y-114660951D01*
X199444498Y-114660950D01*
X199547209Y-114650457D01*
X199713631Y-114595310D01*
X199713642Y-114595305D01*
X199805392Y-114538713D01*
X199872784Y-114520272D01*
X199939448Y-114541194D01*
X199984217Y-114594836D01*
X199994489Y-114644251D01*
X199994489Y-120277708D01*
X199974804Y-120344747D01*
X199922000Y-120390502D01*
X199852842Y-120400446D01*
X199789286Y-120371421D01*
X199761131Y-120336161D01*
X199630803Y-120092335D01*
X199630802Y-120092333D01*
X199630797Y-120092324D01*
X199428798Y-119790012D01*
X199198141Y-119508955D01*
X199198140Y-119508954D01*
X199198136Y-119508949D01*
X198941050Y-119251863D01*
X198659993Y-119021206D01*
X198659992Y-119021205D01*
X198659988Y-119021202D01*
X198357676Y-118819203D01*
X198357671Y-118819200D01*
X198357664Y-118819196D01*
X198037027Y-118647812D01*
X198037022Y-118647810D01*
X197701109Y-118508670D01*
X197353167Y-118403123D01*
X197353156Y-118403120D01*
X196996574Y-118332193D01*
X196724055Y-118305352D01*
X196634738Y-118296556D01*
X196271150Y-118296556D01*
X196188623Y-118304684D01*
X195909313Y-118332193D01*
X195552731Y-118403120D01*
X195552720Y-118403123D01*
X195204778Y-118508670D01*
X194868865Y-118647810D01*
X194868860Y-118647812D01*
X194548223Y-118819196D01*
X194548205Y-118819207D01*
X194245908Y-119021196D01*
X194245894Y-119021206D01*
X193964837Y-119251863D01*
X193707751Y-119508949D01*
X193477094Y-119790006D01*
X193477084Y-119790020D01*
X193275095Y-120092317D01*
X193275084Y-120092335D01*
X193103700Y-120412972D01*
X193103698Y-120412977D01*
X192989061Y-120689736D01*
X192945220Y-120744139D01*
X192878926Y-120766204D01*
X192811226Y-120748925D01*
X192763616Y-120697787D01*
X192750500Y-120642283D01*
X192750500Y-116046719D01*
X192750500Y-116046717D01*
X192709577Y-115893990D01*
X192709577Y-115893989D01*
X192709577Y-115893988D01*
X192673663Y-115831784D01*
X192630520Y-115757058D01*
X192518716Y-115645254D01*
X192518715Y-115645253D01*
X192514385Y-115640923D01*
X192514374Y-115640913D01*
X191419668Y-114546207D01*
X191386183Y-114484884D01*
X191391167Y-114415192D01*
X191392769Y-114411119D01*
X191493398Y-114168181D01*
X191563815Y-113905381D01*
X191599328Y-113635637D01*
X191599328Y-113363567D01*
X191563815Y-113093823D01*
X191493398Y-112831023D01*
X191389281Y-112579662D01*
X191253246Y-112344042D01*
X191247038Y-112335952D01*
X191178772Y-112246986D01*
X191123957Y-112175550D01*
X193619512Y-112175550D01*
X193619512Y-112421353D01*
X193651593Y-112665027D01*
X193715211Y-112902451D01*
X193809261Y-113129511D01*
X193809268Y-113129525D01*
X193932156Y-113342374D01*
X193932162Y-113342381D01*
X194003742Y-113435666D01*
X194722057Y-112717350D01*
X194814855Y-112856232D01*
X194936732Y-112978109D01*
X195075611Y-113070905D01*
X194357296Y-113789220D01*
X194450582Y-113860801D01*
X194450589Y-113860807D01*
X194663438Y-113983695D01*
X194663452Y-113983702D01*
X194890512Y-114077752D01*
X195127936Y-114141370D01*
X195371610Y-114173451D01*
X195371625Y-114173452D01*
X195617399Y-114173452D01*
X195617413Y-114173451D01*
X195861087Y-114141370D01*
X196098511Y-114077752D01*
X196325571Y-113983702D01*
X196325585Y-113983695D01*
X196365001Y-113960938D01*
X197344513Y-113960938D01*
X197355006Y-114063649D01*
X197410153Y-114230071D01*
X197410155Y-114230076D01*
X197502196Y-114379297D01*
X197626166Y-114503267D01*
X197775387Y-114595308D01*
X197775392Y-114595310D01*
X197941814Y-114650457D01*
X197941821Y-114650458D01*
X198044531Y-114660951D01*
X198494511Y-114660951D01*
X198494512Y-114660950D01*
X198494512Y-113748452D01*
X197344513Y-113748452D01*
X197344513Y-113960938D01*
X196365001Y-113960938D01*
X196538447Y-113860799D01*
X196631726Y-113789222D01*
X196631726Y-113789219D01*
X196627278Y-113784771D01*
X195913412Y-113070905D01*
X196052292Y-112978109D01*
X196174169Y-112856232D01*
X196266965Y-112717352D01*
X196985279Y-113435666D01*
X196985282Y-113435666D01*
X197056861Y-113342384D01*
X197115730Y-113240420D01*
X197166296Y-113192204D01*
X197234903Y-113178980D01*
X197299768Y-113204948D01*
X197310798Y-113214738D01*
X197344512Y-113248452D01*
X198494512Y-113248452D01*
X198494512Y-112335952D01*
X198044540Y-112335952D01*
X198044524Y-112335953D01*
X197941814Y-112346446D01*
X197775392Y-112401593D01*
X197775387Y-112401595D01*
X197626166Y-112493636D01*
X197577939Y-112541863D01*
X197516616Y-112575347D01*
X197446924Y-112570362D01*
X197390991Y-112528491D01*
X197366575Y-112463026D01*
X197367320Y-112437994D01*
X197369511Y-112421351D01*
X197369512Y-112421339D01*
X197369512Y-112175564D01*
X197369511Y-112175550D01*
X197337430Y-111931876D01*
X197273812Y-111694452D01*
X197179762Y-111467392D01*
X197179755Y-111467378D01*
X197056867Y-111254529D01*
X197056861Y-111254522D01*
X196985280Y-111161236D01*
X196266965Y-111879551D01*
X196174169Y-111740672D01*
X196052292Y-111618795D01*
X195913411Y-111525998D01*
X196631726Y-110807682D01*
X196538441Y-110736102D01*
X196538434Y-110736096D01*
X196325585Y-110613208D01*
X196325571Y-110613201D01*
X196098511Y-110519151D01*
X195861087Y-110455533D01*
X195617413Y-110423452D01*
X195371610Y-110423452D01*
X195127936Y-110455533D01*
X194890512Y-110519151D01*
X194663452Y-110613201D01*
X194663438Y-110613208D01*
X194450578Y-110736104D01*
X194357296Y-110807681D01*
X194357296Y-110807682D01*
X195075612Y-111525998D01*
X194936732Y-111618795D01*
X194814855Y-111740672D01*
X194722058Y-111879552D01*
X194003742Y-111161236D01*
X194003741Y-111161236D01*
X193932164Y-111254518D01*
X193809268Y-111467378D01*
X193809261Y-111467392D01*
X193715211Y-111694452D01*
X193651593Y-111931876D01*
X193619512Y-112175550D01*
X191123957Y-112175550D01*
X191118713Y-112168716D01*
X191087619Y-112128194D01*
X191087618Y-112128193D01*
X191087611Y-112128185D01*
X190895245Y-111935819D01*
X190895236Y-111935811D01*
X190679398Y-111770191D01*
X190679392Y-111770187D01*
X190679388Y-111770184D01*
X190443768Y-111634149D01*
X190443761Y-111634146D01*
X190192409Y-111530032D01*
X190061007Y-111494823D01*
X189929607Y-111459615D01*
X189869663Y-111451723D01*
X189659870Y-111424102D01*
X189659863Y-111424102D01*
X189387793Y-111424102D01*
X189387785Y-111424102D01*
X189148020Y-111455669D01*
X189118049Y-111459615D01*
X189076433Y-111470766D01*
X188855246Y-111530032D01*
X188603894Y-111634146D01*
X188603885Y-111634150D01*
X188368274Y-111770180D01*
X188368257Y-111770191D01*
X188152419Y-111935811D01*
X187960037Y-112128193D01*
X187794417Y-112344031D01*
X187794406Y-112344048D01*
X187658376Y-112579659D01*
X187658372Y-112579668D01*
X187554258Y-112831020D01*
X187483841Y-113093824D01*
X187448328Y-113363559D01*
X187448328Y-113635644D01*
X187467962Y-113784771D01*
X187483841Y-113905381D01*
X187504825Y-113983695D01*
X187554258Y-114168183D01*
X187658372Y-114419535D01*
X187658376Y-114419544D01*
X187765663Y-114605371D01*
X187794410Y-114655162D01*
X187794413Y-114655166D01*
X187794417Y-114655172D01*
X187960037Y-114871010D01*
X187960045Y-114871019D01*
X188152411Y-115063385D01*
X188152419Y-115063392D01*
X188152420Y-115063393D01*
X188158531Y-115068082D01*
X188368257Y-115229012D01*
X188368260Y-115229014D01*
X188368268Y-115229020D01*
X188603888Y-115365055D01*
X188669828Y-115392368D01*
X188855246Y-115469171D01*
X188855247Y-115469171D01*
X188855249Y-115469172D01*
X189118049Y-115539589D01*
X189387793Y-115575102D01*
X189387800Y-115575102D01*
X189659856Y-115575102D01*
X189659863Y-115575102D01*
X189929607Y-115539589D01*
X190192407Y-115469172D01*
X190435302Y-115368561D01*
X190504768Y-115361093D01*
X190567247Y-115392368D01*
X190570433Y-115395442D01*
X191513181Y-116338190D01*
X191546666Y-116399513D01*
X191549500Y-116425871D01*
X191549500Y-118394395D01*
X191529815Y-118461434D01*
X191477011Y-118507189D01*
X191407853Y-118517133D01*
X191344297Y-118488108D01*
X191318113Y-118456395D01*
X191287356Y-118403123D01*
X191253246Y-118344042D01*
X191227124Y-118310000D01*
X191087618Y-118128193D01*
X191087611Y-118128185D01*
X190895245Y-117935819D01*
X190895236Y-117935811D01*
X190679398Y-117770191D01*
X190679392Y-117770187D01*
X190679388Y-117770184D01*
X190443768Y-117634149D01*
X190443761Y-117634146D01*
X190192409Y-117530032D01*
X190061007Y-117494823D01*
X189929607Y-117459615D01*
X189869663Y-117451723D01*
X189659870Y-117424102D01*
X189659863Y-117424102D01*
X189387793Y-117424102D01*
X189387785Y-117424102D01*
X189148020Y-117455669D01*
X189118049Y-117459615D01*
X189052349Y-117477219D01*
X188855246Y-117530032D01*
X188603894Y-117634146D01*
X188603885Y-117634150D01*
X188368274Y-117770180D01*
X188368257Y-117770191D01*
X188152419Y-117935811D01*
X187960037Y-118128193D01*
X187794417Y-118344031D01*
X187794406Y-118344048D01*
X187658376Y-118579659D01*
X187658372Y-118579668D01*
X187554258Y-118831020D01*
X187483841Y-119093824D01*
X187448328Y-119363559D01*
X187448328Y-119635644D01*
X187464753Y-119760398D01*
X187483841Y-119905381D01*
X187498156Y-119958805D01*
X187554258Y-120168183D01*
X187658372Y-120419535D01*
X187658376Y-120419544D01*
X187735292Y-120552766D01*
X187794410Y-120655162D01*
X187794413Y-120655166D01*
X187794417Y-120655172D01*
X187960037Y-120871010D01*
X187960045Y-120871019D01*
X188152411Y-121063385D01*
X188152419Y-121063392D01*
X188368257Y-121229012D01*
X188368260Y-121229014D01*
X188368268Y-121229020D01*
X188603888Y-121365055D01*
X188669828Y-121392368D01*
X188855246Y-121469171D01*
X188855247Y-121469171D01*
X188855249Y-121469172D01*
X189118049Y-121539589D01*
X189387793Y-121575102D01*
X189387800Y-121575102D01*
X189659856Y-121575102D01*
X189659863Y-121575102D01*
X189929607Y-121539589D01*
X190192407Y-121469172D01*
X190435302Y-121368561D01*
X190504768Y-121361093D01*
X190567247Y-121392368D01*
X190570433Y-121395442D01*
X191363181Y-122188190D01*
X191396666Y-122249513D01*
X191399500Y-122275871D01*
X191399500Y-123410890D01*
X191379815Y-123477929D01*
X191327011Y-123523684D01*
X191257853Y-123533628D01*
X191210404Y-123516429D01*
X191167956Y-123490248D01*
X191167947Y-123490243D01*
X191001525Y-123435096D01*
X191001518Y-123435095D01*
X190898814Y-123424602D01*
X189773828Y-123424602D01*
X189773828Y-124450797D01*
X189608432Y-124424602D01*
X189439224Y-124424602D01*
X189273828Y-124450797D01*
X189273828Y-123424602D01*
X188148856Y-123424602D01*
X188148840Y-123424603D01*
X188046130Y-123435096D01*
X187879708Y-123490243D01*
X187879703Y-123490245D01*
X187730482Y-123582286D01*
X187606512Y-123706256D01*
X187514471Y-123855477D01*
X187514469Y-123855482D01*
X187459322Y-124021904D01*
X187459321Y-124021911D01*
X187448828Y-124124615D01*
X187448828Y-125249602D01*
X188475024Y-125249602D01*
X188448828Y-125414998D01*
X188448828Y-125584206D01*
X188475024Y-125749602D01*
X187448829Y-125749602D01*
X187448829Y-126874588D01*
X187459322Y-126977299D01*
X187514469Y-127143721D01*
X187514471Y-127143726D01*
X187606512Y-127292947D01*
X187730482Y-127416917D01*
X187879703Y-127508958D01*
X187879708Y-127508960D01*
X188046130Y-127564107D01*
X188046137Y-127564108D01*
X188148847Y-127574601D01*
X189273827Y-127574601D01*
X189273828Y-127574600D01*
X189273828Y-126548406D01*
X189439224Y-126574602D01*
X189608432Y-126574602D01*
X189773828Y-126548406D01*
X189773828Y-127574601D01*
X190898800Y-127574601D01*
X190898814Y-127574600D01*
X191001525Y-127564107D01*
X191167947Y-127508960D01*
X191167954Y-127508957D01*
X191210401Y-127482775D01*
X191277793Y-127464334D01*
X191344457Y-127485256D01*
X191389227Y-127538897D01*
X191399499Y-127588313D01*
X191399499Y-127738988D01*
X191399498Y-127738988D01*
X191399499Y-127738991D01*
X191440423Y-127891719D01*
X191440424Y-127891721D01*
X191440423Y-127891721D01*
X191453538Y-127914435D01*
X191453539Y-127914437D01*
X191519475Y-128028643D01*
X191519481Y-128028651D01*
X191638349Y-128147519D01*
X191638355Y-128147524D01*
X199778649Y-136287819D01*
X199812134Y-136349142D01*
X199807150Y-136418834D01*
X199765278Y-136474767D01*
X199699814Y-136499184D01*
X199690968Y-136499500D01*
X185624500Y-136499500D01*
X185557461Y-136479815D01*
X185511706Y-136427011D01*
X185500500Y-136375500D01*
X185500500Y-107363559D01*
X187448328Y-107363559D01*
X187448328Y-107635644D01*
X187468912Y-107791984D01*
X187483841Y-107905381D01*
X187493830Y-107942660D01*
X187554258Y-108168183D01*
X187613645Y-108311554D01*
X187658375Y-108419542D01*
X187794410Y-108655162D01*
X187794413Y-108655166D01*
X187794417Y-108655172D01*
X187960037Y-108871010D01*
X187960045Y-108871019D01*
X188152411Y-109063385D01*
X188152419Y-109063392D01*
X188368257Y-109229012D01*
X188368260Y-109229014D01*
X188368268Y-109229020D01*
X188603888Y-109365055D01*
X188766807Y-109432538D01*
X188855246Y-109469171D01*
X188855247Y-109469171D01*
X188855249Y-109469172D01*
X189118049Y-109539589D01*
X189387793Y-109575102D01*
X189387800Y-109575102D01*
X189659856Y-109575102D01*
X189659863Y-109575102D01*
X189929607Y-109539589D01*
X190192407Y-109469172D01*
X190443768Y-109365055D01*
X190679388Y-109229020D01*
X190895236Y-109063393D01*
X190895240Y-109063388D01*
X190895245Y-109063385D01*
X191087611Y-108871019D01*
X191087614Y-108871014D01*
X191087619Y-108871010D01*
X191253246Y-108655162D01*
X191389281Y-108419542D01*
X191493398Y-108168181D01*
X191563815Y-107905381D01*
X191599328Y-107635637D01*
X191599328Y-107363567D01*
X191563815Y-107093823D01*
X191493398Y-106831023D01*
X191470412Y-106775531D01*
X191431374Y-106681284D01*
X191389281Y-106579662D01*
X191253246Y-106344042D01*
X191193254Y-106265860D01*
X191087618Y-106128193D01*
X191087611Y-106128185D01*
X190895245Y-105935819D01*
X190895236Y-105935811D01*
X190679398Y-105770191D01*
X190679392Y-105770187D01*
X190679388Y-105770184D01*
X190554036Y-105697812D01*
X190443770Y-105634150D01*
X190443761Y-105634146D01*
X190192409Y-105530032D01*
X190025655Y-105485351D01*
X189929607Y-105459615D01*
X189869663Y-105451723D01*
X189659870Y-105424102D01*
X189659863Y-105424102D01*
X189387793Y-105424102D01*
X189387785Y-105424102D01*
X189148020Y-105455669D01*
X189118049Y-105459615D01*
X189052349Y-105477219D01*
X188855246Y-105530032D01*
X188603894Y-105634146D01*
X188603885Y-105634150D01*
X188368274Y-105770180D01*
X188368257Y-105770191D01*
X188152419Y-105935811D01*
X187960037Y-106128193D01*
X187794417Y-106344031D01*
X187794406Y-106344048D01*
X187658376Y-106579659D01*
X187658372Y-106579668D01*
X187554258Y-106831020D01*
X187515050Y-106977348D01*
X187483841Y-107093823D01*
X187482754Y-107102079D01*
X187448328Y-107363559D01*
X185500500Y-107363559D01*
X185500500Y-101363559D01*
X187448328Y-101363559D01*
X187448328Y-101635644D01*
X187470802Y-101806342D01*
X187483841Y-101905381D01*
X187505930Y-101987819D01*
X187554258Y-102168183D01*
X187616928Y-102319480D01*
X187658375Y-102419542D01*
X187794410Y-102655162D01*
X187794413Y-102655166D01*
X187794417Y-102655172D01*
X187960037Y-102871010D01*
X187960045Y-102871019D01*
X188152411Y-103063385D01*
X188152419Y-103063392D01*
X188152420Y-103063393D01*
X188189842Y-103092108D01*
X188368257Y-103229012D01*
X188368260Y-103229014D01*
X188368268Y-103229020D01*
X188603888Y-103365055D01*
X188771462Y-103434466D01*
X188855246Y-103469171D01*
X188855247Y-103469171D01*
X188855249Y-103469172D01*
X189118049Y-103539589D01*
X189387793Y-103575102D01*
X189387800Y-103575102D01*
X189659856Y-103575102D01*
X189659863Y-103575102D01*
X189929607Y-103539589D01*
X190192407Y-103469172D01*
X190443768Y-103365055D01*
X190679388Y-103229020D01*
X190895236Y-103063393D01*
X190895240Y-103063388D01*
X190895245Y-103063385D01*
X191087611Y-102871019D01*
X191087614Y-102871014D01*
X191087619Y-102871010D01*
X191253246Y-102655162D01*
X191389281Y-102419542D01*
X191493398Y-102168181D01*
X191563815Y-101905381D01*
X191599328Y-101635637D01*
X191599328Y-101363567D01*
X191563815Y-101093823D01*
X191493398Y-100831023D01*
X191480429Y-100799714D01*
X191389283Y-100579668D01*
X191389281Y-100579662D01*
X191253246Y-100344042D01*
X191237433Y-100323435D01*
X193619012Y-100323435D01*
X193619012Y-102673453D01*
X193619013Y-102673470D01*
X193629512Y-102776248D01*
X193629513Y-102776251D01*
X193680188Y-102929176D01*
X193684698Y-102942786D01*
X193776800Y-103092108D01*
X193900856Y-103216164D01*
X194050178Y-103308266D01*
X194216715Y-103363451D01*
X194319503Y-103373952D01*
X196669520Y-103373951D01*
X196772309Y-103363451D01*
X196938846Y-103308266D01*
X197088168Y-103216164D01*
X197212224Y-103092108D01*
X197304326Y-102942786D01*
X197359511Y-102776249D01*
X197370012Y-102673461D01*
X197370011Y-100323444D01*
X197359511Y-100220655D01*
X197304326Y-100054118D01*
X197212224Y-99904796D01*
X197088168Y-99780740D01*
X196938846Y-99688638D01*
X196772309Y-99633453D01*
X196772307Y-99633452D01*
X196669522Y-99622952D01*
X194319510Y-99622952D01*
X194319493Y-99622953D01*
X194216715Y-99633452D01*
X194216712Y-99633453D01*
X194050180Y-99688637D01*
X194050175Y-99688639D01*
X193900854Y-99780741D01*
X193776801Y-99904794D01*
X193684699Y-100054115D01*
X193684697Y-100054120D01*
X193678562Y-100072635D01*
X193629513Y-100220655D01*
X193629513Y-100220656D01*
X193629512Y-100220656D01*
X193619012Y-100323435D01*
X191237433Y-100323435D01*
X191233638Y-100318489D01*
X191087618Y-100128193D01*
X191087611Y-100128185D01*
X190895245Y-99935819D01*
X190895236Y-99935811D01*
X190679398Y-99770191D01*
X190679392Y-99770187D01*
X190679388Y-99770184D01*
X190443768Y-99634149D01*
X190442088Y-99633453D01*
X190192409Y-99530032D01*
X190061007Y-99494823D01*
X189929607Y-99459615D01*
X189858588Y-99450265D01*
X189659870Y-99424102D01*
X189659863Y-99424102D01*
X189387793Y-99424102D01*
X189387785Y-99424102D01*
X189148020Y-99455669D01*
X189118049Y-99459615D01*
X189052349Y-99477219D01*
X188855246Y-99530032D01*
X188603894Y-99634146D01*
X188603885Y-99634150D01*
X188368274Y-99770180D01*
X188368257Y-99770191D01*
X188152419Y-99935811D01*
X187960037Y-100128193D01*
X187794417Y-100344031D01*
X187794406Y-100344048D01*
X187658376Y-100579659D01*
X187658372Y-100579668D01*
X187554258Y-100831020D01*
X187518576Y-100964190D01*
X187483841Y-101093823D01*
X187479895Y-101123794D01*
X187448328Y-101363559D01*
X185500500Y-101363559D01*
X185500500Y-98624500D01*
X185520185Y-98557461D01*
X185572989Y-98511706D01*
X185624500Y-98500500D01*
X199065890Y-98500500D01*
X199065892Y-98500500D01*
X199193186Y-98466392D01*
X199307314Y-98400500D01*
X199400500Y-98307314D01*
X199466392Y-98193186D01*
X199500500Y-98065892D01*
X199500500Y-49206983D01*
X203856500Y-49206983D01*
X203856500Y-50107001D01*
X203856501Y-50107019D01*
X203867000Y-50209796D01*
X203867001Y-50209799D01*
X203922185Y-50376331D01*
X203922186Y-50376334D01*
X204014288Y-50525656D01*
X204138344Y-50649712D01*
X204287666Y-50741814D01*
X204454203Y-50796999D01*
X204556991Y-50807500D01*
X205907008Y-50807499D01*
X206009797Y-50796999D01*
X206176334Y-50741814D01*
X206325656Y-50649712D01*
X206414319Y-50561049D01*
X206475642Y-50527564D01*
X206545334Y-50532548D01*
X206589681Y-50561049D01*
X206678344Y-50649712D01*
X206827666Y-50741814D01*
X206994203Y-50796999D01*
X207096991Y-50807500D01*
X208447008Y-50807499D01*
X208549797Y-50796999D01*
X208716334Y-50741814D01*
X208865656Y-50649712D01*
X208954319Y-50561049D01*
X209015642Y-50527564D01*
X209085334Y-50532548D01*
X209129681Y-50561049D01*
X209218344Y-50649712D01*
X209367666Y-50741814D01*
X209534203Y-50796999D01*
X209636991Y-50807500D01*
X210987008Y-50807499D01*
X211089797Y-50796999D01*
X211256334Y-50741814D01*
X211405656Y-50649712D01*
X211529712Y-50525656D01*
X211621814Y-50376334D01*
X211676999Y-50209797D01*
X211687500Y-50107009D01*
X211687499Y-49206992D01*
X211676999Y-49104203D01*
X211621814Y-48937666D01*
X211529712Y-48788344D01*
X211405656Y-48664288D01*
X211256334Y-48572186D01*
X211089797Y-48517001D01*
X211089795Y-48517000D01*
X211033436Y-48511243D01*
X210968745Y-48484847D01*
X210928593Y-48427666D01*
X210925730Y-48357855D01*
X210961064Y-48297578D01*
X210973149Y-48287570D01*
X211074646Y-48213828D01*
X211213828Y-48074646D01*
X211329524Y-47915405D01*
X211418884Y-47740025D01*
X211419515Y-47738787D01*
X211467489Y-47687990D01*
X211535310Y-47671195D01*
X211601445Y-47693732D01*
X211640485Y-47738787D01*
X211730474Y-47915403D01*
X211765234Y-47963246D01*
X211846172Y-48074646D01*
X211985354Y-48213828D01*
X212144595Y-48329524D01*
X212195706Y-48355566D01*
X212319970Y-48418882D01*
X212319972Y-48418882D01*
X212319975Y-48418884D01*
X212420317Y-48451487D01*
X212507173Y-48479709D01*
X212701578Y-48510500D01*
X212701583Y-48510500D01*
X212898422Y-48510500D01*
X213092826Y-48479709D01*
X213280025Y-48418884D01*
X213455405Y-48329524D01*
X213614646Y-48213828D01*
X213753828Y-48074646D01*
X213869524Y-47915405D01*
X213958884Y-47740025D01*
X213959515Y-47738787D01*
X214007489Y-47687990D01*
X214075310Y-47671195D01*
X214141445Y-47693732D01*
X214180485Y-47738787D01*
X214270474Y-47915403D01*
X214305234Y-47963246D01*
X214386172Y-48074646D01*
X214525354Y-48213828D01*
X214684595Y-48329524D01*
X214735706Y-48355566D01*
X214859970Y-48418882D01*
X214859972Y-48418882D01*
X214859975Y-48418884D01*
X214960317Y-48451487D01*
X215047173Y-48479709D01*
X215241578Y-48510500D01*
X215241583Y-48510500D01*
X215438422Y-48510500D01*
X215632826Y-48479709D01*
X215820025Y-48418884D01*
X215995405Y-48329524D01*
X216154646Y-48213828D01*
X216293828Y-48074646D01*
X216409524Y-47915405D01*
X216498884Y-47740025D01*
X216499515Y-47738787D01*
X216547489Y-47687990D01*
X216615310Y-47671195D01*
X216681445Y-47693732D01*
X216720485Y-47738787D01*
X216810474Y-47915403D01*
X216845234Y-47963246D01*
X216926172Y-48074646D01*
X217065354Y-48213828D01*
X217184284Y-48300236D01*
X217226949Y-48355566D01*
X217232928Y-48425180D01*
X217200322Y-48486975D01*
X217150403Y-48518260D01*
X216987666Y-48572186D01*
X216987663Y-48572187D01*
X216838342Y-48664289D01*
X216714289Y-48788342D01*
X216622187Y-48937663D01*
X216622186Y-48937666D01*
X216567001Y-49104203D01*
X216567001Y-49104204D01*
X216567000Y-49104204D01*
X216556500Y-49206983D01*
X216556500Y-50107001D01*
X216556501Y-50107019D01*
X216567000Y-50209796D01*
X216567001Y-50209799D01*
X216622185Y-50376331D01*
X216622186Y-50376334D01*
X216714288Y-50525656D01*
X216838344Y-50649712D01*
X216987666Y-50741814D01*
X217154203Y-50796999D01*
X217256991Y-50807500D01*
X218607008Y-50807499D01*
X218709797Y-50796999D01*
X218876334Y-50741814D01*
X219025656Y-50649712D01*
X219114319Y-50561049D01*
X219175642Y-50527564D01*
X219245334Y-50532548D01*
X219289681Y-50561049D01*
X219378344Y-50649712D01*
X219527666Y-50741814D01*
X219694203Y-50796999D01*
X219796991Y-50807500D01*
X221147008Y-50807499D01*
X221249797Y-50796999D01*
X221416334Y-50741814D01*
X221565656Y-50649712D01*
X221654319Y-50561049D01*
X221715642Y-50527564D01*
X221785334Y-50532548D01*
X221829681Y-50561049D01*
X221918344Y-50649712D01*
X222067666Y-50741814D01*
X222234203Y-50796999D01*
X222336991Y-50807500D01*
X223687008Y-50807499D01*
X223789797Y-50796999D01*
X223956334Y-50741814D01*
X224105656Y-50649712D01*
X224194319Y-50561049D01*
X224255642Y-50527564D01*
X224325334Y-50532548D01*
X224369681Y-50561049D01*
X224458344Y-50649712D01*
X224607666Y-50741814D01*
X224774203Y-50796999D01*
X224876991Y-50807500D01*
X226227008Y-50807499D01*
X226329797Y-50796999D01*
X226496334Y-50741814D01*
X226645656Y-50649712D01*
X226769712Y-50525656D01*
X226861814Y-50376334D01*
X226916999Y-50209797D01*
X226927500Y-50107009D01*
X226927499Y-49206992D01*
X226916999Y-49104203D01*
X226861814Y-48937666D01*
X226769712Y-48788344D01*
X226645656Y-48664288D01*
X226496334Y-48572186D01*
X226329797Y-48517001D01*
X226329795Y-48517000D01*
X226273436Y-48511243D01*
X226208745Y-48484847D01*
X226168593Y-48427666D01*
X226165730Y-48357855D01*
X226201064Y-48297578D01*
X226213149Y-48287570D01*
X226314646Y-48213828D01*
X226453828Y-48074646D01*
X226569524Y-47915405D01*
X226658884Y-47740025D01*
X226719709Y-47552826D01*
X226750500Y-47358422D01*
X226750500Y-47161577D01*
X226719709Y-46967173D01*
X226658882Y-46779970D01*
X226569523Y-46604594D01*
X226453828Y-46445354D01*
X226314646Y-46306172D01*
X226155405Y-46190476D01*
X225980029Y-46101117D01*
X225792826Y-46040290D01*
X225598422Y-46009500D01*
X225598417Y-46009500D01*
X225401583Y-46009500D01*
X225401578Y-46009500D01*
X225207173Y-46040290D01*
X225019970Y-46101117D01*
X224844594Y-46190476D01*
X224753741Y-46256485D01*
X224685354Y-46306172D01*
X224685352Y-46306174D01*
X224685351Y-46306174D01*
X224546174Y-46445351D01*
X224546174Y-46445352D01*
X224546172Y-46445354D01*
X224496485Y-46513741D01*
X224430476Y-46604594D01*
X224340485Y-46781213D01*
X224292511Y-46832009D01*
X224224690Y-46848804D01*
X224158555Y-46826267D01*
X224119515Y-46781213D01*
X224029523Y-46604594D01*
X223913828Y-46445354D01*
X223774646Y-46306172D01*
X223615405Y-46190476D01*
X223440029Y-46101117D01*
X223252826Y-46040290D01*
X223058422Y-46009500D01*
X223058417Y-46009500D01*
X222861583Y-46009500D01*
X222861578Y-46009500D01*
X222667173Y-46040290D01*
X222479970Y-46101117D01*
X222304594Y-46190476D01*
X222213741Y-46256485D01*
X222145354Y-46306172D01*
X222145352Y-46306174D01*
X222145351Y-46306174D01*
X222006174Y-46445351D01*
X222006174Y-46445352D01*
X222006172Y-46445354D01*
X221956485Y-46513741D01*
X221890476Y-46604594D01*
X221800485Y-46781213D01*
X221752511Y-46832009D01*
X221684690Y-46848804D01*
X221618555Y-46826267D01*
X221579515Y-46781213D01*
X221489523Y-46604594D01*
X221373828Y-46445354D01*
X221234646Y-46306172D01*
X221075405Y-46190476D01*
X220900029Y-46101117D01*
X220712826Y-46040290D01*
X220518422Y-46009500D01*
X220518417Y-46009500D01*
X220321583Y-46009500D01*
X220321578Y-46009500D01*
X220127173Y-46040290D01*
X219939970Y-46101117D01*
X219764594Y-46190476D01*
X219673741Y-46256485D01*
X219605354Y-46306172D01*
X219605352Y-46306174D01*
X219605351Y-46306174D01*
X219466174Y-46445351D01*
X219466174Y-46445352D01*
X219466172Y-46445354D01*
X219416485Y-46513741D01*
X219350476Y-46604594D01*
X219260485Y-46781213D01*
X219212511Y-46832009D01*
X219144690Y-46848804D01*
X219078555Y-46826267D01*
X219039515Y-46781213D01*
X218949523Y-46604594D01*
X218833828Y-46445354D01*
X218694646Y-46306172D01*
X218535405Y-46190476D01*
X218360029Y-46101117D01*
X218172826Y-46040290D01*
X217978422Y-46009500D01*
X217978417Y-46009500D01*
X217781583Y-46009500D01*
X217781578Y-46009500D01*
X217587173Y-46040290D01*
X217399970Y-46101117D01*
X217224594Y-46190476D01*
X217133741Y-46256485D01*
X217065354Y-46306172D01*
X217065352Y-46306174D01*
X217065351Y-46306174D01*
X216926174Y-46445351D01*
X216926174Y-46445352D01*
X216926172Y-46445354D01*
X216876485Y-46513741D01*
X216810476Y-46604594D01*
X216720485Y-46781213D01*
X216672511Y-46832009D01*
X216604690Y-46848804D01*
X216538555Y-46826267D01*
X216499515Y-46781213D01*
X216409523Y-46604594D01*
X216293828Y-46445354D01*
X216154646Y-46306172D01*
X215995405Y-46190476D01*
X215820029Y-46101117D01*
X215632826Y-46040290D01*
X215438422Y-46009500D01*
X215438417Y-46009500D01*
X215241583Y-46009500D01*
X215241578Y-46009500D01*
X215047173Y-46040290D01*
X214859970Y-46101117D01*
X214684594Y-46190476D01*
X214593741Y-46256485D01*
X214525354Y-46306172D01*
X214525352Y-46306174D01*
X214525351Y-46306174D01*
X214386174Y-46445351D01*
X214386174Y-46445352D01*
X214386172Y-46445354D01*
X214336485Y-46513741D01*
X214270476Y-46604594D01*
X214180485Y-46781213D01*
X214132511Y-46832009D01*
X214064690Y-46848804D01*
X213998555Y-46826267D01*
X213959515Y-46781213D01*
X213869523Y-46604594D01*
X213753828Y-46445354D01*
X213614646Y-46306172D01*
X213455405Y-46190476D01*
X213280029Y-46101117D01*
X213092826Y-46040290D01*
X212898422Y-46009500D01*
X212898417Y-46009500D01*
X212701583Y-46009500D01*
X212701578Y-46009500D01*
X212507173Y-46040290D01*
X212319970Y-46101117D01*
X212144594Y-46190476D01*
X212053741Y-46256485D01*
X211985354Y-46306172D01*
X211985352Y-46306174D01*
X211985351Y-46306174D01*
X211846174Y-46445351D01*
X211846174Y-46445352D01*
X211846172Y-46445354D01*
X211796485Y-46513741D01*
X211730476Y-46604594D01*
X211640485Y-46781213D01*
X211592511Y-46832009D01*
X211524690Y-46848804D01*
X211458555Y-46826267D01*
X211419515Y-46781213D01*
X211329523Y-46604594D01*
X211213828Y-46445354D01*
X211074646Y-46306172D01*
X210915405Y-46190476D01*
X210740029Y-46101117D01*
X210552826Y-46040290D01*
X210358422Y-46009500D01*
X210358417Y-46009500D01*
X210161583Y-46009500D01*
X210161578Y-46009500D01*
X209967173Y-46040290D01*
X209779970Y-46101117D01*
X209604594Y-46190476D01*
X209513741Y-46256485D01*
X209445354Y-46306172D01*
X209445352Y-46306174D01*
X209445351Y-46306174D01*
X209306174Y-46445351D01*
X209306174Y-46445352D01*
X209306172Y-46445354D01*
X209256485Y-46513741D01*
X209190476Y-46604594D01*
X209100485Y-46781213D01*
X209052511Y-46832009D01*
X208984690Y-46848804D01*
X208918555Y-46826267D01*
X208879515Y-46781213D01*
X208789523Y-46604594D01*
X208673828Y-46445354D01*
X208534646Y-46306172D01*
X208375405Y-46190476D01*
X208200029Y-46101117D01*
X208012826Y-46040290D01*
X207818422Y-46009500D01*
X207818417Y-46009500D01*
X207621583Y-46009500D01*
X207621578Y-46009500D01*
X207427173Y-46040290D01*
X207239970Y-46101117D01*
X207064594Y-46190476D01*
X206973741Y-46256485D01*
X206905354Y-46306172D01*
X206905352Y-46306174D01*
X206905351Y-46306174D01*
X206766174Y-46445351D01*
X206766174Y-46445352D01*
X206766172Y-46445354D01*
X206716485Y-46513741D01*
X206650476Y-46604594D01*
X206560485Y-46781213D01*
X206512511Y-46832009D01*
X206444690Y-46848804D01*
X206378555Y-46826267D01*
X206339515Y-46781213D01*
X206249523Y-46604594D01*
X206133828Y-46445354D01*
X205994646Y-46306172D01*
X205835405Y-46190476D01*
X205660029Y-46101117D01*
X205472826Y-46040290D01*
X205278422Y-46009500D01*
X205278417Y-46009500D01*
X205081583Y-46009500D01*
X205081578Y-46009500D01*
X204887173Y-46040290D01*
X204699970Y-46101117D01*
X204524594Y-46190476D01*
X204433741Y-46256485D01*
X204365354Y-46306172D01*
X204365352Y-46306174D01*
X204365351Y-46306174D01*
X204226174Y-46445351D01*
X204226174Y-46445352D01*
X204226172Y-46445354D01*
X204176485Y-46513741D01*
X204110476Y-46604594D01*
X204021117Y-46779970D01*
X203960290Y-46967173D01*
X203929500Y-47161577D01*
X203929500Y-47358422D01*
X203960290Y-47552826D01*
X204021117Y-47740029D01*
X204110475Y-47915403D01*
X204110476Y-47915405D01*
X204226172Y-48074646D01*
X204365354Y-48213828D01*
X204484284Y-48300236D01*
X204526949Y-48355566D01*
X204532928Y-48425180D01*
X204500322Y-48486975D01*
X204450403Y-48518260D01*
X204287666Y-48572186D01*
X204287663Y-48572187D01*
X204138342Y-48664289D01*
X204014289Y-48788342D01*
X203922187Y-48937663D01*
X203922186Y-48937666D01*
X203867001Y-49104203D01*
X203867001Y-49104204D01*
X203867000Y-49104204D01*
X203856500Y-49206983D01*
X199500500Y-49206983D01*
X199500500Y-37624500D01*
X199520185Y-37557461D01*
X199572989Y-37511706D01*
X199624500Y-37500500D01*
X213201992Y-37500500D01*
X213269031Y-37520185D01*
G37*
G04 #@! TD.AperFunction*
G04 #@! TA.AperFunction,Conductor*
G36*
X230438771Y-123808705D02*
G01*
X230486383Y-123859841D01*
X230499500Y-123915348D01*
X230499500Y-136375500D01*
X230479815Y-136442539D01*
X230427011Y-136488294D01*
X230375500Y-136499500D01*
X228527429Y-136499500D01*
X228460390Y-136479815D01*
X228414635Y-136427011D01*
X228404691Y-136357853D01*
X228433716Y-136294297D01*
X228458538Y-136272398D01*
X228603026Y-136175854D01*
X228884083Y-135945197D01*
X229141179Y-135688101D01*
X229371836Y-135407044D01*
X229573835Y-135104732D01*
X229745229Y-134784076D01*
X229884368Y-134448164D01*
X229989912Y-134100233D01*
X229989914Y-134100223D01*
X229989917Y-134100212D01*
X230060844Y-133743630D01*
X230096482Y-133381790D01*
X230096482Y-133018209D01*
X230060844Y-132656369D01*
X229989917Y-132299787D01*
X229989914Y-132299776D01*
X229989913Y-132299773D01*
X229989912Y-132299767D01*
X229884368Y-131951836D01*
X229745229Y-131615924D01*
X229659538Y-131455608D01*
X229573841Y-131295279D01*
X229573840Y-131295277D01*
X229573835Y-131295268D01*
X229371836Y-130992956D01*
X229141179Y-130711899D01*
X229141178Y-130711898D01*
X229141174Y-130711893D01*
X228884088Y-130454807D01*
X228603031Y-130224150D01*
X228603030Y-130224149D01*
X228603026Y-130224146D01*
X228455695Y-130125702D01*
X228410891Y-130072091D01*
X228402184Y-130002766D01*
X228432338Y-129939738D01*
X228491781Y-129903019D01*
X228524587Y-129898601D01*
X228552137Y-129898601D01*
X228552151Y-129898600D01*
X228654862Y-129888107D01*
X228821284Y-129832960D01*
X228821289Y-129832958D01*
X228970510Y-129740917D01*
X229094480Y-129616947D01*
X229186521Y-129467726D01*
X229186523Y-129467721D01*
X229241670Y-129301299D01*
X229241671Y-129301292D01*
X229252164Y-129198588D01*
X229252165Y-129198575D01*
X229252165Y-128748602D01*
X226927166Y-128748602D01*
X226927166Y-129198588D01*
X226937659Y-129301300D01*
X226957680Y-129361721D01*
X226960081Y-129431549D01*
X226924349Y-129491591D01*
X226861829Y-129522783D01*
X226827820Y-129524127D01*
X226702006Y-129511735D01*
X226577776Y-129499500D01*
X226223240Y-129499500D01*
X226156201Y-129479815D01*
X226110446Y-129427011D01*
X226100502Y-129357853D01*
X226105534Y-129336497D01*
X226117163Y-129301401D01*
X226117164Y-129301399D01*
X226127665Y-129198611D01*
X226127664Y-127798615D01*
X226927165Y-127798615D01*
X226927165Y-128248602D01*
X227839665Y-128248602D01*
X228339665Y-128248602D01*
X229252164Y-128248602D01*
X229252164Y-127798630D01*
X229252163Y-127798615D01*
X229241670Y-127695904D01*
X229186523Y-127529482D01*
X229186521Y-127529477D01*
X229094480Y-127380256D01*
X228970510Y-127256286D01*
X228821289Y-127164245D01*
X228821284Y-127164243D01*
X228654862Y-127109096D01*
X228654855Y-127109095D01*
X228552151Y-127098602D01*
X228339665Y-127098602D01*
X228339665Y-128248602D01*
X227839665Y-128248602D01*
X227839665Y-127098602D01*
X227627194Y-127098602D01*
X227627177Y-127098603D01*
X227524467Y-127109096D01*
X227358045Y-127164243D01*
X227358040Y-127164245D01*
X227208819Y-127256286D01*
X227084849Y-127380256D01*
X226992808Y-127529477D01*
X226992806Y-127529482D01*
X226937659Y-127695904D01*
X226937658Y-127695911D01*
X226927165Y-127798615D01*
X226127664Y-127798615D01*
X226127664Y-127798594D01*
X226121575Y-127738991D01*
X226117164Y-127695805D01*
X226117163Y-127695802D01*
X226111823Y-127679688D01*
X226061979Y-127529268D01*
X225969877Y-127379946D01*
X225845821Y-127255890D01*
X225723156Y-127180230D01*
X225696501Y-127163789D01*
X225696496Y-127163787D01*
X225659425Y-127151503D01*
X225529962Y-127108603D01*
X225529960Y-127108602D01*
X225427175Y-127098102D01*
X224502163Y-127098102D01*
X224502145Y-127098103D01*
X224399368Y-127108602D01*
X224399365Y-127108603D01*
X224232833Y-127163787D01*
X224232828Y-127163789D01*
X224083507Y-127255891D01*
X223959454Y-127379944D01*
X223867352Y-127529265D01*
X223867350Y-127529270D01*
X223856756Y-127561243D01*
X223816983Y-127618688D01*
X223752468Y-127645511D01*
X223739050Y-127646239D01*
X223084437Y-127646239D01*
X223017398Y-127626554D01*
X223015938Y-127625602D01*
X223005558Y-127618723D01*
X222987948Y-127601113D01*
X222904646Y-127551849D01*
X222902010Y-127550102D01*
X222881470Y-127525713D01*
X222859705Y-127502403D01*
X222859117Y-127499171D01*
X222857002Y-127496660D01*
X222852906Y-127465029D01*
X222847201Y-127433661D01*
X222848452Y-127430626D01*
X222848031Y-127427369D01*
X222861690Y-127398538D01*
X222873846Y-127369072D01*
X222876907Y-127366419D01*
X222877946Y-127364227D01*
X222883251Y-127360921D01*
X222907385Y-127340008D01*
X222987948Y-127292365D01*
X223047256Y-127233056D01*
X223108577Y-127199573D01*
X223134936Y-127196739D01*
X223224980Y-127196739D01*
X223224979Y-127196738D01*
X223191712Y-127082229D01*
X223191712Y-127013040D01*
X223228959Y-126884837D01*
X223231805Y-126848674D01*
X223231804Y-126571237D01*
X223251488Y-126504200D01*
X223304292Y-126458445D01*
X223355804Y-126447239D01*
X227405992Y-126447239D01*
X227406008Y-126447240D01*
X227413604Y-126447240D01*
X227571715Y-126447240D01*
X227571718Y-126447240D01*
X227724446Y-126406316D01*
X227785542Y-126371042D01*
X227861377Y-126327259D01*
X227973181Y-126215455D01*
X227973181Y-126215453D01*
X227983385Y-126205250D01*
X227983388Y-126205245D01*
X230180520Y-124008116D01*
X230234079Y-123915348D01*
X230259575Y-123871188D01*
X230260938Y-123867898D01*
X230262831Y-123865548D01*
X230263641Y-123864146D01*
X230263859Y-123864272D01*
X230304778Y-123813493D01*
X230371072Y-123791427D01*
X230438771Y-123808705D01*
G37*
G04 #@! TD.AperFunction*
G04 #@! TA.AperFunction,Conductor*
G36*
X206210068Y-127424594D02*
G01*
X206210068Y-127424593D01*
X206249420Y-127370432D01*
X206254030Y-127361384D01*
X206302003Y-127310586D01*
X206369823Y-127293789D01*
X206435959Y-127316324D01*
X206475002Y-127361381D01*
X206479747Y-127370694D01*
X206604688Y-127542663D01*
X206755011Y-127692986D01*
X206926977Y-127817925D01*
X206926979Y-127817926D01*
X206926982Y-127817928D01*
X207116386Y-127914434D01*
X207318555Y-127980123D01*
X207528511Y-128013377D01*
X207528512Y-128013377D01*
X207741084Y-128013377D01*
X207741085Y-128013377D01*
X207951041Y-127980123D01*
X208153210Y-127914434D01*
X208342614Y-127817928D01*
X208397370Y-127778146D01*
X208514584Y-127692986D01*
X208514586Y-127692983D01*
X208514590Y-127692981D01*
X208664902Y-127542669D01*
X208664904Y-127542665D01*
X208664907Y-127542663D01*
X208746305Y-127430626D01*
X208789849Y-127370693D01*
X208794828Y-127360921D01*
X208810033Y-127331082D01*
X208858007Y-127280286D01*
X208920517Y-127263377D01*
X209594836Y-127263377D01*
X209611238Y-127267986D01*
X209626998Y-127267621D01*
X209649229Y-127278664D01*
X209659435Y-127281533D01*
X209670713Y-127288416D01*
X209674662Y-127292365D01*
X209755959Y-127340443D01*
X209756699Y-127340895D01*
X209779642Y-127366162D01*
X209802904Y-127391076D01*
X209803064Y-127391957D01*
X209803668Y-127392622D01*
X209809312Y-127426309D01*
X209815408Y-127459817D01*
X209815066Y-127460644D01*
X209815215Y-127461531D01*
X209801756Y-127492910D01*
X209788763Y-127524407D01*
X209787941Y-127525118D01*
X209787674Y-127525743D01*
X209785614Y-127527135D01*
X209755221Y-127553471D01*
X209674664Y-127601111D01*
X209674660Y-127601114D01*
X209657087Y-127618688D01*
X209615353Y-127660421D01*
X209554033Y-127693905D01*
X209527674Y-127696739D01*
X209437630Y-127696739D01*
X209470898Y-127811249D01*
X209470897Y-127880438D01*
X209433651Y-128008636D01*
X209433650Y-128008642D01*
X209430805Y-128044796D01*
X209430805Y-128448661D01*
X209430806Y-128448686D01*
X209433651Y-128484837D01*
X209470637Y-128612143D01*
X209470637Y-128681333D01*
X209433651Y-128808636D01*
X209433650Y-128808642D01*
X209430805Y-128844796D01*
X209430805Y-129248661D01*
X209430806Y-129248686D01*
X209433651Y-129284837D01*
X209470637Y-129412143D01*
X209470637Y-129481333D01*
X209433651Y-129608636D01*
X209433650Y-129608642D01*
X209430805Y-129644796D01*
X209430805Y-129644804D01*
X209430805Y-129833416D01*
X209430806Y-129922239D01*
X209411122Y-129989278D01*
X209358318Y-130035033D01*
X209306806Y-130046239D01*
X204296836Y-130046239D01*
X204229797Y-130026554D01*
X204209155Y-130009920D01*
X203637808Y-129438573D01*
X203604323Y-129377250D01*
X203601489Y-129350892D01*
X203601489Y-127218542D01*
X203621174Y-127151503D01*
X203673978Y-127105748D01*
X203743136Y-127095804D01*
X203806692Y-127124829D01*
X203841189Y-127176862D01*
X203841838Y-127176594D01*
X203843214Y-127179917D01*
X203843422Y-127180230D01*
X203843703Y-127181095D01*
X203940173Y-127370427D01*
X203979526Y-127424593D01*
X204611835Y-126792285D01*
X204628873Y-126855870D01*
X204694699Y-126969884D01*
X204787791Y-127062976D01*
X204901805Y-127128802D01*
X204965388Y-127145839D01*
X204333080Y-127778146D01*
X204333080Y-127778147D01*
X204387247Y-127817501D01*
X204576580Y-127913972D01*
X204778668Y-127979634D01*
X204988552Y-128012877D01*
X205201044Y-128012877D01*
X205410925Y-127979634D01*
X205410928Y-127979634D01*
X205613015Y-127913972D01*
X205802352Y-127817499D01*
X205856514Y-127778147D01*
X205856515Y-127778147D01*
X205224206Y-127145839D01*
X205287791Y-127128802D01*
X205401805Y-127062976D01*
X205494897Y-126969884D01*
X205560723Y-126855870D01*
X205577760Y-126792285D01*
X206210068Y-127424594D01*
G37*
G04 #@! TD.AperFunction*
G04 #@! TA.AperFunction,Conductor*
G36*
X203806692Y-124586443D02*
G01*
X203840356Y-124637220D01*
X203841380Y-124636796D01*
X203843239Y-124641287D01*
X203939749Y-124830697D01*
X204064688Y-125002663D01*
X204215011Y-125152986D01*
X204386977Y-125277925D01*
X204386979Y-125277926D01*
X204386982Y-125277928D01*
X204396291Y-125282671D01*
X204447088Y-125330643D01*
X204463885Y-125398464D01*
X204441350Y-125464599D01*
X204396303Y-125503637D01*
X204387244Y-125508253D01*
X204387238Y-125508257D01*
X204333080Y-125547604D01*
X204333080Y-125547605D01*
X204965389Y-126179914D01*
X204901805Y-126196952D01*
X204787791Y-126262778D01*
X204694699Y-126355870D01*
X204628873Y-126469884D01*
X204611835Y-126533468D01*
X203979526Y-125901159D01*
X203979525Y-125901159D01*
X203940178Y-125955316D01*
X203843702Y-126144659D01*
X203843420Y-126145529D01*
X203843222Y-126145817D01*
X203841838Y-126149160D01*
X203841136Y-126148869D01*
X203803983Y-126203204D01*
X203739624Y-126230403D01*
X203670778Y-126218488D01*
X203619302Y-126171244D01*
X203601489Y-126107211D01*
X203601489Y-124680156D01*
X203621174Y-124613117D01*
X203673978Y-124567362D01*
X203743136Y-124557418D01*
X203806692Y-124586443D01*
G37*
G04 #@! TD.AperFunction*
G04 #@! TA.AperFunction,Conductor*
G36*
X203806692Y-107006373D02*
G01*
X203813165Y-107012401D01*
X204065884Y-107265120D01*
X204304803Y-107504039D01*
X204338288Y-107565362D01*
X204333304Y-107635054D01*
X204291432Y-107690987D01*
X204282219Y-107697258D01*
X204201738Y-107746899D01*
X204201734Y-107746902D01*
X204077763Y-107870873D01*
X203985722Y-108020094D01*
X203985720Y-108020099D01*
X203930573Y-108186521D01*
X203930572Y-108186528D01*
X203920079Y-108289232D01*
X203920079Y-108739219D01*
X206245078Y-108739219D01*
X206245078Y-108289247D01*
X206245077Y-108289232D01*
X206234584Y-108186521D01*
X206179437Y-108020099D01*
X206179435Y-108020094D01*
X206087394Y-107870873D01*
X206078702Y-107862181D01*
X206045217Y-107800858D01*
X206050201Y-107731166D01*
X206092073Y-107675233D01*
X206157537Y-107650816D01*
X206166383Y-107650500D01*
X207123068Y-107650500D01*
X207190107Y-107670185D01*
X207235862Y-107722989D01*
X207245806Y-107792147D01*
X207216781Y-107855703D01*
X207210749Y-107862181D01*
X207202368Y-107870561D01*
X207110266Y-108019882D01*
X207110264Y-108019887D01*
X207110194Y-108020099D01*
X207055080Y-108186422D01*
X207055080Y-108186423D01*
X207055079Y-108186423D01*
X207044579Y-108289202D01*
X207044579Y-109689220D01*
X207044580Y-109689237D01*
X207055079Y-109792015D01*
X207055080Y-109792018D01*
X207110264Y-109958550D01*
X207110266Y-109958555D01*
X207132906Y-109995260D01*
X207202367Y-110107875D01*
X207326423Y-110231931D01*
X207475006Y-110323577D01*
X207475747Y-110324034D01*
X207492002Y-110329420D01*
X207522081Y-110339387D01*
X207579526Y-110379157D01*
X207606351Y-110443672D01*
X207607079Y-110457093D01*
X207607079Y-111120909D01*
X207607078Y-111120927D01*
X207607078Y-111286633D01*
X207607077Y-111286633D01*
X207607078Y-111286636D01*
X207643912Y-111424102D01*
X207648003Y-111439366D01*
X207659693Y-111459613D01*
X207659694Y-111459615D01*
X207727056Y-111576291D01*
X207727060Y-111576296D01*
X207845928Y-111695164D01*
X207845934Y-111695169D01*
X208315139Y-112164374D01*
X208315149Y-112164385D01*
X208319479Y-112168715D01*
X208319480Y-112168716D01*
X208431284Y-112280520D01*
X208431286Y-112280521D01*
X208431290Y-112280524D01*
X208489910Y-112314368D01*
X208489915Y-112314370D01*
X208568209Y-112359574D01*
X208568210Y-112359575D01*
X208568212Y-112359575D01*
X208568215Y-112359577D01*
X208720943Y-112400501D01*
X208720946Y-112400501D01*
X208886653Y-112400501D01*
X208886669Y-112400500D01*
X209411267Y-112400500D01*
X209478306Y-112420185D01*
X209524061Y-112472989D01*
X209528972Y-112485494D01*
X209540186Y-112519334D01*
X209632288Y-112668656D01*
X209756344Y-112792712D01*
X209905666Y-112884814D01*
X210072203Y-112939999D01*
X210138103Y-112946731D01*
X210202794Y-112973127D01*
X210242945Y-113030307D01*
X210249500Y-113070089D01*
X210249500Y-115948330D01*
X210249499Y-115948348D01*
X210249499Y-116114054D01*
X210249498Y-116114054D01*
X210290423Y-116266785D01*
X210319358Y-116316900D01*
X210319359Y-116316904D01*
X210319360Y-116316904D01*
X210367053Y-116399513D01*
X210369479Y-116403714D01*
X210369481Y-116403717D01*
X210488349Y-116522585D01*
X210488355Y-116522590D01*
X212653181Y-118687416D01*
X212686666Y-118748739D01*
X212689500Y-118775097D01*
X212689500Y-119456338D01*
X212669815Y-119523377D01*
X212617011Y-119569132D01*
X212547853Y-119579076D01*
X212484297Y-119550051D01*
X212477819Y-119544019D01*
X211422155Y-118488355D01*
X211422153Y-118488352D01*
X211303282Y-118369481D01*
X211303274Y-118369475D01*
X211200259Y-118310000D01*
X211200256Y-118309999D01*
X211166351Y-118290423D01*
X211166352Y-118290423D01*
X211105258Y-118274053D01*
X211013622Y-118249499D01*
X210855508Y-118249499D01*
X210847912Y-118249499D01*
X210847896Y-118249500D01*
X204180755Y-118249500D01*
X204113716Y-118229815D01*
X204111864Y-118228602D01*
X203980174Y-118140609D01*
X203980161Y-118140602D01*
X203834490Y-118080264D01*
X203834480Y-118080261D01*
X203701297Y-118053769D01*
X203639386Y-118021384D01*
X203604812Y-117960668D01*
X203601489Y-117932152D01*
X203601489Y-109689205D01*
X203920080Y-109689205D01*
X203930573Y-109791916D01*
X203985720Y-109958338D01*
X203985722Y-109958343D01*
X204077763Y-110107564D01*
X204201733Y-110231534D01*
X204350954Y-110323575D01*
X204350959Y-110323577D01*
X204517381Y-110378724D01*
X204517388Y-110378725D01*
X204620098Y-110389218D01*
X204832578Y-110389218D01*
X205332579Y-110389218D01*
X205545051Y-110389218D01*
X205545065Y-110389217D01*
X205647776Y-110378724D01*
X205814198Y-110323577D01*
X205814203Y-110323575D01*
X205963424Y-110231534D01*
X206087394Y-110107564D01*
X206179435Y-109958343D01*
X206179437Y-109958338D01*
X206234584Y-109791916D01*
X206234585Y-109791909D01*
X206245078Y-109689205D01*
X206245079Y-109689192D01*
X206245079Y-109239219D01*
X205332579Y-109239219D01*
X205332579Y-110389218D01*
X204832578Y-110389218D01*
X204832579Y-110389217D01*
X204832579Y-109239219D01*
X203920080Y-109239219D01*
X203920080Y-109689205D01*
X203601489Y-109689205D01*
X203601489Y-107100086D01*
X203621174Y-107033047D01*
X203673978Y-106987292D01*
X203743136Y-106977348D01*
X203806692Y-107006373D01*
G37*
G04 #@! TD.AperFunction*
G04 #@! TA.AperFunction,Conductor*
G36*
X214225381Y-102391142D02*
G01*
X214281314Y-102433014D01*
X214305731Y-102498478D01*
X214299978Y-102545641D01*
X214238738Y-102734121D01*
X214238729Y-102734151D01*
X214205870Y-102871019D01*
X214147701Y-103113315D01*
X214119485Y-103230842D01*
X214039577Y-103735357D01*
X214039577Y-103735358D01*
X213999500Y-104244589D01*
X213999500Y-104755410D01*
X214039577Y-105264641D01*
X214039577Y-105264642D01*
X214117646Y-105757544D01*
X214119486Y-105769163D01*
X214238732Y-106265860D01*
X214264131Y-106344031D01*
X214396578Y-106751664D01*
X214429450Y-106831023D01*
X214592060Y-107223598D01*
X214823963Y-107678733D01*
X214823968Y-107678741D01*
X214823970Y-107678745D01*
X214823973Y-107678752D01*
X215008989Y-107980668D01*
X215090861Y-108114271D01*
X215217988Y-108289247D01*
X215391102Y-108527518D01*
X215391112Y-108527532D01*
X215684471Y-108871010D01*
X215722853Y-108915949D01*
X216084051Y-109277147D01*
X216472474Y-109608892D01*
X216517626Y-109641697D01*
X216560291Y-109697025D01*
X216564356Y-109744351D01*
X216566404Y-109744351D01*
X216566404Y-110945713D01*
X217478903Y-110945713D01*
X217478903Y-110495741D01*
X217478902Y-110495731D01*
X217476235Y-110469623D01*
X217489004Y-110400930D01*
X217536884Y-110350044D01*
X217604673Y-110333123D01*
X217655883Y-110346532D01*
X217776402Y-110407940D01*
X218248330Y-110603419D01*
X218248335Y-110603421D01*
X218278457Y-110613208D01*
X218734140Y-110761268D01*
X219230837Y-110880514D01*
X219735359Y-110960423D01*
X220244595Y-111000500D01*
X220244603Y-111000500D01*
X220755397Y-111000500D01*
X220755405Y-111000500D01*
X221264641Y-110960423D01*
X221769163Y-110880514D01*
X222265860Y-110761268D01*
X222751670Y-110603419D01*
X223223598Y-110407940D01*
X223678733Y-110176037D01*
X223678748Y-110176027D01*
X223678752Y-110176026D01*
X223840257Y-110077055D01*
X224114271Y-109909139D01*
X224527526Y-109608892D01*
X224533841Y-109603499D01*
X224677904Y-109480457D01*
X224915949Y-109277147D01*
X225277147Y-108915949D01*
X225608892Y-108527526D01*
X225909139Y-108114271D01*
X226143906Y-107731166D01*
X226176026Y-107678752D01*
X226176027Y-107678748D01*
X226176037Y-107678733D01*
X226407940Y-107223598D01*
X226454940Y-107110129D01*
X226498780Y-107055728D01*
X226565074Y-107033663D01*
X226632773Y-107050942D01*
X226680384Y-107102079D01*
X226693500Y-107157584D01*
X226693500Y-118444302D01*
X226673815Y-118511341D01*
X226657181Y-118531983D01*
X225653184Y-119535981D01*
X225591861Y-119569466D01*
X225565503Y-119572300D01*
X222034000Y-119572300D01*
X221966961Y-119552615D01*
X221921206Y-119499811D01*
X221910000Y-119448300D01*
X221910000Y-118925000D01*
X221234000Y-118925000D01*
X221166961Y-118905315D01*
X221121206Y-118852511D01*
X221110000Y-118801000D01*
X221110000Y-118675000D01*
X220984000Y-118675000D01*
X220916961Y-118655315D01*
X220871206Y-118602511D01*
X220860000Y-118551000D01*
X220860000Y-118425000D01*
X221360000Y-118425000D01*
X221910000Y-118425000D01*
X221910000Y-117784365D01*
X221909999Y-117784350D01*
X221907100Y-117747510D01*
X221907099Y-117747504D01*
X221861283Y-117589806D01*
X221861282Y-117589803D01*
X221777685Y-117448447D01*
X221777678Y-117448438D01*
X221661561Y-117332321D01*
X221661552Y-117332314D01*
X221520196Y-117248717D01*
X221520193Y-117248716D01*
X221362494Y-117202900D01*
X221362497Y-117202900D01*
X221360000Y-117202703D01*
X221360000Y-118425000D01*
X220860000Y-118425000D01*
X220860000Y-117202703D01*
X220857503Y-117202900D01*
X220699806Y-117248716D01*
X220699803Y-117248717D01*
X220558449Y-117332313D01*
X220552283Y-117337097D01*
X220550389Y-117334655D01*
X220501580Y-117361239D01*
X220431894Y-117356179D01*
X220399227Y-117335159D01*
X220398031Y-117336702D01*
X220391862Y-117331917D01*
X220264196Y-117256416D01*
X220250398Y-117248256D01*
X220250397Y-117248255D01*
X220250396Y-117248255D01*
X220250393Y-117248254D01*
X220092573Y-117202402D01*
X220092567Y-117202401D01*
X220055701Y-117199500D01*
X220055694Y-117199500D01*
X219624306Y-117199500D01*
X219624298Y-117199500D01*
X219587432Y-117202401D01*
X219587426Y-117202402D01*
X219429606Y-117248254D01*
X219429603Y-117248255D01*
X219288137Y-117331917D01*
X219281969Y-117336702D01*
X219280072Y-117334256D01*
X219231358Y-117360857D01*
X219161666Y-117355873D01*
X219129296Y-117335069D01*
X219128031Y-117336702D01*
X219121862Y-117331917D01*
X218994196Y-117256416D01*
X218980398Y-117248256D01*
X218980397Y-117248255D01*
X218980396Y-117248255D01*
X218980393Y-117248254D01*
X218822573Y-117202402D01*
X218822567Y-117202401D01*
X218785701Y-117199500D01*
X218785694Y-117199500D01*
X218625500Y-117199500D01*
X218558461Y-117179815D01*
X218512706Y-117127011D01*
X218501500Y-117075500D01*
X218501500Y-116690060D01*
X218501501Y-116690047D01*
X218501501Y-116521944D01*
X218475758Y-116425871D01*
X218460577Y-116369216D01*
X218401439Y-116266785D01*
X218381524Y-116232290D01*
X218381518Y-116232282D01*
X217971819Y-115822583D01*
X217541408Y-115392173D01*
X217507924Y-115330851D01*
X217512908Y-115261160D01*
X217554780Y-115205226D01*
X217594491Y-115185418D01*
X217710398Y-115151744D01*
X217851865Y-115068081D01*
X217851870Y-115068075D01*
X217858031Y-115063298D01*
X217859933Y-115065750D01*
X217908579Y-115039155D01*
X217978274Y-115044104D01*
X218010695Y-115064940D01*
X218011969Y-115063298D01*
X218018132Y-115068078D01*
X218018135Y-115068081D01*
X218159602Y-115151744D01*
X218201224Y-115163836D01*
X218317426Y-115197597D01*
X218317429Y-115197597D01*
X218317431Y-115197598D01*
X218354306Y-115200500D01*
X218354314Y-115200500D01*
X218785686Y-115200500D01*
X218785694Y-115200500D01*
X218822569Y-115197598D01*
X218822571Y-115197597D01*
X218822573Y-115197597D01*
X218864499Y-115185416D01*
X218980398Y-115151744D01*
X219121865Y-115068081D01*
X219121870Y-115068075D01*
X219128031Y-115063298D01*
X219129933Y-115065750D01*
X219178579Y-115039155D01*
X219248274Y-115044104D01*
X219280695Y-115064940D01*
X219281969Y-115063298D01*
X219288132Y-115068078D01*
X219288135Y-115068081D01*
X219429602Y-115151744D01*
X219471224Y-115163836D01*
X219587426Y-115197597D01*
X219587429Y-115197597D01*
X219587431Y-115197598D01*
X219624306Y-115200500D01*
X219624314Y-115200500D01*
X220055686Y-115200500D01*
X220055694Y-115200500D01*
X220092569Y-115197598D01*
X220092571Y-115197597D01*
X220092573Y-115197597D01*
X220134499Y-115185416D01*
X220250398Y-115151744D01*
X220391865Y-115068081D01*
X220391870Y-115068075D01*
X220398031Y-115063298D01*
X220399933Y-115065750D01*
X220448579Y-115039155D01*
X220518274Y-115044104D01*
X220550695Y-115064940D01*
X220551969Y-115063298D01*
X220558132Y-115068078D01*
X220558135Y-115068081D01*
X220699602Y-115151744D01*
X220741224Y-115163836D01*
X220857426Y-115197597D01*
X220857429Y-115197597D01*
X220857431Y-115197598D01*
X220894306Y-115200500D01*
X220894314Y-115200500D01*
X221325686Y-115200500D01*
X221325694Y-115200500D01*
X221362569Y-115197598D01*
X221362571Y-115197597D01*
X221362573Y-115197597D01*
X221404499Y-115185416D01*
X221520398Y-115151744D01*
X221661865Y-115068081D01*
X221778081Y-114951865D01*
X221861744Y-114810398D01*
X221907598Y-114652569D01*
X221910500Y-114615694D01*
X221910500Y-112834306D01*
X221907598Y-112797431D01*
X221906226Y-112792710D01*
X221861745Y-112639606D01*
X221861744Y-112639603D01*
X221861744Y-112639602D01*
X221778081Y-112498135D01*
X221778079Y-112498133D01*
X221778076Y-112498129D01*
X221661870Y-112381923D01*
X221661862Y-112381917D01*
X221520731Y-112298453D01*
X221520398Y-112298256D01*
X221520397Y-112298255D01*
X221520396Y-112298255D01*
X221520393Y-112298254D01*
X221362573Y-112252402D01*
X221362567Y-112252401D01*
X221325701Y-112249500D01*
X221325694Y-112249500D01*
X220894306Y-112249500D01*
X220894298Y-112249500D01*
X220857432Y-112252401D01*
X220857426Y-112252402D01*
X220699606Y-112298254D01*
X220699603Y-112298255D01*
X220558137Y-112381917D01*
X220551969Y-112386702D01*
X220550072Y-112384256D01*
X220501358Y-112410857D01*
X220431666Y-112405873D01*
X220399296Y-112385069D01*
X220398031Y-112386702D01*
X220391862Y-112381917D01*
X220250731Y-112298453D01*
X220250398Y-112298256D01*
X220250397Y-112298255D01*
X220250396Y-112298255D01*
X220250393Y-112298254D01*
X220092573Y-112252402D01*
X220092567Y-112252401D01*
X220055701Y-112249500D01*
X220055694Y-112249500D01*
X219624306Y-112249500D01*
X219624298Y-112249500D01*
X219587432Y-112252401D01*
X219587426Y-112252402D01*
X219429606Y-112298254D01*
X219429603Y-112298255D01*
X219288137Y-112381917D01*
X219281969Y-112386702D01*
X219280072Y-112384256D01*
X219231358Y-112410857D01*
X219161666Y-112405873D01*
X219129296Y-112385069D01*
X219128031Y-112386702D01*
X219121862Y-112381917D01*
X218980731Y-112298453D01*
X218980398Y-112298256D01*
X218980397Y-112298255D01*
X218980396Y-112298255D01*
X218980393Y-112298254D01*
X218822573Y-112252402D01*
X218822567Y-112252401D01*
X218785701Y-112249500D01*
X218785694Y-112249500D01*
X218354306Y-112249500D01*
X218354298Y-112249500D01*
X218317432Y-112252401D01*
X218317426Y-112252402D01*
X218159606Y-112298254D01*
X218159603Y-112298255D01*
X218018137Y-112381917D01*
X218011969Y-112386702D01*
X218010072Y-112384256D01*
X217961358Y-112410857D01*
X217891666Y-112405873D01*
X217859296Y-112385069D01*
X217858031Y-112386702D01*
X217851862Y-112381917D01*
X217710731Y-112298453D01*
X217710398Y-112298256D01*
X217710397Y-112298255D01*
X217710396Y-112298255D01*
X217710393Y-112298254D01*
X217552573Y-112252402D01*
X217552559Y-112252400D01*
X217546269Y-112251905D01*
X217480981Y-112227020D01*
X217439512Y-112170787D01*
X217435028Y-112101062D01*
X217438296Y-112089283D01*
X217468409Y-111998407D01*
X217468410Y-111998403D01*
X217478903Y-111895699D01*
X217478904Y-111895686D01*
X217478904Y-111445713D01*
X215153905Y-111445713D01*
X215153905Y-111895699D01*
X215164398Y-111998410D01*
X215199515Y-112104387D01*
X215201917Y-112174216D01*
X215166185Y-112234258D01*
X215103664Y-112265450D01*
X215047214Y-112262467D01*
X215012573Y-112252402D01*
X215012567Y-112252401D01*
X214975701Y-112249500D01*
X214975694Y-112249500D01*
X214544306Y-112249500D01*
X214544298Y-112249500D01*
X214507432Y-112252401D01*
X214459875Y-112266218D01*
X214390005Y-112266018D01*
X214331336Y-112228075D01*
X214302493Y-112164436D01*
X214307574Y-112108142D01*
X214343903Y-111998510D01*
X214354404Y-111895722D01*
X214354403Y-110495726D01*
X215153904Y-110495726D01*
X215153904Y-110945713D01*
X216066404Y-110945713D01*
X216066404Y-109795713D01*
X215853933Y-109795713D01*
X215853916Y-109795714D01*
X215751206Y-109806207D01*
X215584784Y-109861354D01*
X215584779Y-109861356D01*
X215435558Y-109953397D01*
X215311588Y-110077367D01*
X215219547Y-110226588D01*
X215219545Y-110226593D01*
X215164398Y-110393015D01*
X215164397Y-110393022D01*
X215153904Y-110495726D01*
X214354403Y-110495726D01*
X214354403Y-110495705D01*
X214343903Y-110392916D01*
X214288718Y-110226379D01*
X214196616Y-110077057D01*
X214072560Y-109953001D01*
X213923238Y-109860899D01*
X213756701Y-109805714D01*
X213756699Y-109805713D01*
X213653914Y-109795213D01*
X212728902Y-109795213D01*
X212728882Y-109795215D01*
X212706982Y-109797452D01*
X212705059Y-109797094D01*
X212703228Y-109797778D01*
X212670863Y-109790737D01*
X212638290Y-109784682D01*
X212636259Y-109783209D01*
X212634955Y-109782926D01*
X212606701Y-109761775D01*
X212533281Y-109688355D01*
X212533279Y-109688352D01*
X212414408Y-109569481D01*
X212414407Y-109569480D01*
X212392143Y-109556626D01*
X212330471Y-109521020D01*
X212330464Y-109521016D01*
X212327595Y-109519360D01*
X212277476Y-109490423D01*
X212262206Y-109486331D01*
X212250646Y-109480457D01*
X212234271Y-109465025D01*
X212215062Y-109453315D01*
X212209336Y-109441527D01*
X212199798Y-109432538D01*
X212194365Y-109410701D01*
X212184537Y-109390466D01*
X212185668Y-109375745D01*
X212182929Y-109364735D01*
X212187563Y-109351085D01*
X212189114Y-109330910D01*
X212214999Y-109252797D01*
X212225500Y-109150009D01*
X212225499Y-108249992D01*
X212214999Y-108147203D01*
X212159814Y-107980666D01*
X212067712Y-107831344D01*
X211943656Y-107707288D01*
X211943655Y-107707287D01*
X211932813Y-107700600D01*
X211886088Y-107648652D01*
X211874865Y-107579690D01*
X211902708Y-107515608D01*
X211960777Y-107476751D01*
X211997909Y-107471061D01*
X212773226Y-107471061D01*
X212773232Y-107471061D01*
X212876021Y-107460561D01*
X213042558Y-107405376D01*
X213191880Y-107313274D01*
X213315936Y-107189218D01*
X213408038Y-107039896D01*
X213463223Y-106873359D01*
X213473724Y-106770571D01*
X213473723Y-104420554D01*
X213463223Y-104317765D01*
X213408038Y-104151228D01*
X213315936Y-104001906D01*
X213191880Y-103877850D01*
X213042558Y-103785748D01*
X213042556Y-103785747D01*
X213042553Y-103785746D01*
X213021964Y-103778924D01*
X212997315Y-103770756D01*
X212939871Y-103730985D01*
X212913048Y-103666469D01*
X212925363Y-103597693D01*
X212948636Y-103565373D01*
X214094368Y-102419641D01*
X214155689Y-102386158D01*
X214225381Y-102391142D01*
G37*
G04 #@! TD.AperFunction*
G04 #@! TA.AperFunction,Conductor*
G36*
X215417942Y-98020185D02*
G01*
X215463697Y-98072989D01*
X215473641Y-98142147D01*
X215444616Y-98205703D01*
X215438584Y-98212181D01*
X213663669Y-99987095D01*
X213602346Y-100020580D01*
X213532654Y-100015596D01*
X213476721Y-99973724D01*
X213453049Y-99915599D01*
X213451626Y-99904794D01*
X213441633Y-99828885D01*
X213378002Y-99591409D01*
X213283918Y-99364270D01*
X213160991Y-99151354D01*
X213011325Y-98956306D01*
X213011320Y-98956300D01*
X212837485Y-98782465D01*
X212837478Y-98782459D01*
X212642436Y-98632798D01*
X212642435Y-98632797D01*
X212642432Y-98632795D01*
X212429516Y-98509868D01*
X212406900Y-98500500D01*
X212202386Y-98415787D01*
X212202379Y-98415785D01*
X212202377Y-98415784D01*
X211964901Y-98352153D01*
X211924163Y-98346789D01*
X211721158Y-98320062D01*
X211721151Y-98320062D01*
X211475297Y-98320062D01*
X211475289Y-98320062D01*
X211243283Y-98350607D01*
X211231547Y-98352153D01*
X211169953Y-98368657D01*
X210994071Y-98415784D01*
X210994061Y-98415787D01*
X210766938Y-98509865D01*
X210766929Y-98509869D01*
X210554011Y-98632798D01*
X210358969Y-98782459D01*
X210358962Y-98782465D01*
X210185127Y-98956300D01*
X210185121Y-98956307D01*
X210035460Y-99151349D01*
X209912531Y-99364267D01*
X209912527Y-99364276D01*
X209818449Y-99591399D01*
X209818446Y-99591409D01*
X209754816Y-99828882D01*
X209754814Y-99828893D01*
X209722724Y-100072627D01*
X209722724Y-100318496D01*
X209731123Y-100382286D01*
X209754815Y-100562239D01*
X209814900Y-100786480D01*
X209818446Y-100799714D01*
X209818451Y-100799730D01*
X209854866Y-100887643D01*
X209862335Y-100957112D01*
X209831060Y-101019591D01*
X209827986Y-101022776D01*
X209072922Y-101777841D01*
X209011599Y-101811326D01*
X208941908Y-101806342D01*
X208885974Y-101764470D01*
X208861557Y-101699006D01*
X208861241Y-101690160D01*
X208861241Y-101476507D01*
X208861240Y-101476492D01*
X208850747Y-101373781D01*
X208795600Y-101207359D01*
X208795598Y-101207354D01*
X208703557Y-101058133D01*
X208579587Y-100934163D01*
X208430366Y-100842122D01*
X208430361Y-100842120D01*
X208263939Y-100786973D01*
X208263932Y-100786972D01*
X208161228Y-100776479D01*
X207961242Y-100776479D01*
X207961242Y-102027479D01*
X207941557Y-102094518D01*
X207888753Y-102140273D01*
X207837242Y-102151479D01*
X207711242Y-102151479D01*
X207711242Y-102277479D01*
X207691557Y-102344518D01*
X207638753Y-102390273D01*
X207587242Y-102401479D01*
X206561243Y-102401479D01*
X206561243Y-102826465D01*
X206571736Y-102929176D01*
X206626883Y-103095598D01*
X206626885Y-103095603D01*
X206709945Y-103230264D01*
X206718909Y-103263027D01*
X206728406Y-103295631D01*
X206728107Y-103296641D01*
X206728385Y-103297657D01*
X206718214Y-103330059D01*
X206708575Y-103362627D01*
X206707704Y-103363546D01*
X206707462Y-103364320D01*
X206685405Y-103389250D01*
X206681469Y-103392645D01*
X206627635Y-103431758D01*
X206574241Y-103485151D01*
X206570782Y-103488136D01*
X206542956Y-103500770D01*
X206516140Y-103515413D01*
X206511447Y-103515077D01*
X206507163Y-103517023D01*
X206476921Y-103512607D01*
X206446448Y-103510428D01*
X206442681Y-103507608D01*
X206438026Y-103506929D01*
X206414976Y-103486868D01*
X206390515Y-103468557D01*
X206387417Y-103462883D01*
X206385322Y-103461060D01*
X206384064Y-103456744D01*
X206373601Y-103437580D01*
X206343797Y-103357671D01*
X206343793Y-103357664D01*
X206257547Y-103242455D01*
X206257544Y-103242452D01*
X206142335Y-103156206D01*
X206142328Y-103156202D01*
X206007482Y-103105908D01*
X206007483Y-103105908D01*
X205947883Y-103099501D01*
X205947881Y-103099500D01*
X205947873Y-103099500D01*
X205947865Y-103099500D01*
X205866554Y-103099500D01*
X205799515Y-103079815D01*
X205753760Y-103027011D01*
X205743816Y-102957853D01*
X205748845Y-102936503D01*
X205751241Y-102929276D01*
X205761742Y-102826488D01*
X205761741Y-101476492D01*
X206561242Y-101476492D01*
X206561242Y-101901479D01*
X207461242Y-101901479D01*
X207461242Y-100776479D01*
X207261271Y-100776479D01*
X207261254Y-100776480D01*
X207158544Y-100786973D01*
X206992122Y-100842120D01*
X206992117Y-100842122D01*
X206842896Y-100934163D01*
X206718926Y-101058133D01*
X206626885Y-101207354D01*
X206626883Y-101207359D01*
X206571736Y-101373781D01*
X206571735Y-101373788D01*
X206561242Y-101476492D01*
X205761741Y-101476492D01*
X205761741Y-101476471D01*
X205751241Y-101373682D01*
X205696056Y-101207145D01*
X205603954Y-101057823D01*
X205479898Y-100933767D01*
X205330576Y-100841665D01*
X205164039Y-100786480D01*
X205164037Y-100786479D01*
X205061258Y-100775979D01*
X205061251Y-100775979D01*
X204856866Y-100775979D01*
X204789827Y-100756294D01*
X204744072Y-100703490D01*
X204734128Y-100634332D01*
X204742305Y-100604527D01*
X204771724Y-100533501D01*
X204771726Y-100533497D01*
X204802489Y-100378842D01*
X204802627Y-100378150D01*
X204835012Y-100316239D01*
X204836507Y-100314716D01*
X207114405Y-98036819D01*
X207175728Y-98003334D01*
X207202086Y-98000500D01*
X215350903Y-98000500D01*
X215417942Y-98020185D01*
G37*
G04 #@! TD.AperFunction*
G04 #@! TA.AperFunction,Conductor*
G36*
X213246427Y-84744579D02*
G01*
X213289618Y-84799500D01*
X213298500Y-84845586D01*
X213298500Y-86571516D01*
X213278815Y-86638555D01*
X213226011Y-86684310D01*
X213174500Y-86695516D01*
X210900939Y-86695516D01*
X210900922Y-86695517D01*
X210798144Y-86706016D01*
X210798141Y-86706017D01*
X210631609Y-86761201D01*
X210631604Y-86761203D01*
X210482283Y-86853305D01*
X210358230Y-86977358D01*
X210266128Y-87126679D01*
X210266127Y-87126682D01*
X210210942Y-87293219D01*
X210210942Y-87293220D01*
X210210941Y-87293220D01*
X210200441Y-87395999D01*
X210200441Y-89746017D01*
X210200442Y-89746034D01*
X210210941Y-89848812D01*
X210210942Y-89848815D01*
X210261086Y-90000138D01*
X210266127Y-90015350D01*
X210358229Y-90164672D01*
X210482285Y-90288728D01*
X210631607Y-90380830D01*
X210798144Y-90436015D01*
X210900932Y-90446516D01*
X210914159Y-90446515D01*
X210981197Y-90466195D01*
X211026955Y-90518997D01*
X211038164Y-90570515D01*
X211038164Y-92065023D01*
X211018479Y-92132062D01*
X210965675Y-92177817D01*
X210953171Y-92182728D01*
X210930667Y-92190185D01*
X210781342Y-92282289D01*
X210657289Y-92406342D01*
X210565187Y-92555663D01*
X210565185Y-92555668D01*
X210547547Y-92608897D01*
X210510001Y-92722203D01*
X210510001Y-92722204D01*
X210510000Y-92722204D01*
X210499500Y-92824983D01*
X210499500Y-94175001D01*
X210499501Y-94175018D01*
X210510000Y-94277796D01*
X210510001Y-94277799D01*
X210565185Y-94444331D01*
X210565187Y-94444336D01*
X210578740Y-94466309D01*
X210657288Y-94593656D01*
X210781344Y-94717712D01*
X210930666Y-94809814D01*
X211097203Y-94864999D01*
X211199991Y-94875500D01*
X212100008Y-94875499D01*
X212110576Y-94874419D01*
X212179268Y-94887187D01*
X212210861Y-94910096D01*
X212806450Y-95505685D01*
X212806460Y-95505696D01*
X212810790Y-95510026D01*
X212810791Y-95510027D01*
X212922595Y-95621831D01*
X213009406Y-95671950D01*
X213059526Y-95700888D01*
X213145943Y-95724043D01*
X213152420Y-95726585D01*
X213174750Y-95743900D01*
X213198875Y-95758605D01*
X213201993Y-95765024D01*
X213207635Y-95769399D01*
X213217058Y-95796035D01*
X213229405Y-95821451D01*
X213230480Y-95829413D01*
X213239643Y-95919108D01*
X213239643Y-95919110D01*
X213294827Y-96085642D01*
X213294828Y-96085645D01*
X213386930Y-96234967D01*
X213510986Y-96359023D01*
X213660308Y-96451125D01*
X213826845Y-96506310D01*
X213929633Y-96516811D01*
X214829650Y-96516810D01*
X214829658Y-96516809D01*
X214829661Y-96516809D01*
X214885944Y-96511059D01*
X214932439Y-96506310D01*
X215098976Y-96451125D01*
X215248298Y-96359023D01*
X215372354Y-96234967D01*
X215464456Y-96085645D01*
X215519641Y-95919108D01*
X215530142Y-95816320D01*
X215530141Y-94466303D01*
X215525999Y-94425760D01*
X215519641Y-94363514D01*
X215519640Y-94363512D01*
X215519199Y-94362180D01*
X215519168Y-94361308D01*
X215518223Y-94356889D01*
X215519010Y-94356720D01*
X215516792Y-94292352D01*
X215552520Y-94232308D01*
X215615038Y-94201111D01*
X215684498Y-94208666D01*
X215724583Y-94235487D01*
X216292823Y-94803727D01*
X216326308Y-94865050D01*
X216329142Y-94891408D01*
X216329142Y-95816312D01*
X216329143Y-95816330D01*
X216339642Y-95919107D01*
X216339643Y-95919110D01*
X216394827Y-96085642D01*
X216394828Y-96085645D01*
X216486930Y-96234967D01*
X216610986Y-96359023D01*
X216760308Y-96451125D01*
X216794142Y-96462336D01*
X216851589Y-96502107D01*
X216878414Y-96566622D01*
X216879142Y-96580043D01*
X216879142Y-96675500D01*
X216859457Y-96742539D01*
X216806653Y-96788294D01*
X216755142Y-96799500D01*
X206970517Y-96799500D01*
X206903478Y-96779815D01*
X206857723Y-96727011D01*
X206846517Y-96675500D01*
X206846517Y-96648261D01*
X205696517Y-96648261D01*
X205696517Y-97560760D01*
X205706574Y-97570817D01*
X205740059Y-97632140D01*
X205735075Y-97701832D01*
X205706574Y-97746179D01*
X204214170Y-99238583D01*
X204152847Y-99272068D01*
X204083155Y-99267084D01*
X204027222Y-99225212D01*
X204002805Y-99159748D01*
X204002489Y-99150902D01*
X204002489Y-97376756D01*
X204022174Y-97309717D01*
X204074978Y-97263962D01*
X204144136Y-97254018D01*
X204207692Y-97283043D01*
X204214170Y-97289075D01*
X204328171Y-97403076D01*
X204477392Y-97495117D01*
X204477397Y-97495119D01*
X204643819Y-97550266D01*
X204643826Y-97550267D01*
X204746536Y-97560760D01*
X205196516Y-97560760D01*
X205196517Y-97560759D01*
X205196517Y-96148261D01*
X205696517Y-96148261D01*
X206846516Y-96148261D01*
X206846516Y-95935789D01*
X206846515Y-95935774D01*
X206836022Y-95833063D01*
X206780875Y-95666641D01*
X206780873Y-95666636D01*
X206688832Y-95517415D01*
X206564862Y-95393445D01*
X206415641Y-95301404D01*
X206415636Y-95301402D01*
X206249214Y-95246255D01*
X206249207Y-95246254D01*
X206146503Y-95235761D01*
X205696517Y-95235761D01*
X205696517Y-96148261D01*
X205196517Y-96148261D01*
X205196517Y-95235761D01*
X204746545Y-95235761D01*
X204746529Y-95235762D01*
X204643819Y-95246255D01*
X204477397Y-95301402D01*
X204477392Y-95301404D01*
X204328171Y-95393445D01*
X204214170Y-95507447D01*
X204152847Y-95540932D01*
X204083155Y-95535948D01*
X204027222Y-95494076D01*
X204002805Y-95428612D01*
X204002489Y-95419766D01*
X204002489Y-94252463D01*
X204022174Y-94185424D01*
X204074978Y-94139669D01*
X204144136Y-94129725D01*
X204207692Y-94158750D01*
X204214170Y-94164782D01*
X204327861Y-94278473D01*
X204477183Y-94370575D01*
X204643720Y-94425760D01*
X204746508Y-94436261D01*
X206146525Y-94436260D01*
X206249314Y-94425760D01*
X206415851Y-94370575D01*
X206565173Y-94278473D01*
X206689229Y-94154417D01*
X206689232Y-94154411D01*
X206693710Y-94148750D01*
X206695993Y-94150555D01*
X206738093Y-94112682D01*
X206791692Y-94100500D01*
X207279911Y-94100500D01*
X207346950Y-94120185D01*
X207392705Y-94172989D01*
X207403269Y-94211898D01*
X207410001Y-94277797D01*
X207410001Y-94277799D01*
X207465185Y-94444331D01*
X207465187Y-94444336D01*
X207478740Y-94466309D01*
X207557288Y-94593656D01*
X207681344Y-94717712D01*
X207830666Y-94809814D01*
X207997203Y-94864999D01*
X208099991Y-94875500D01*
X209000008Y-94875499D01*
X209000016Y-94875498D01*
X209000019Y-94875498D01*
X209056302Y-94869748D01*
X209102797Y-94864999D01*
X209269334Y-94809814D01*
X209418656Y-94717712D01*
X209542712Y-94593656D01*
X209634814Y-94444334D01*
X209689999Y-94277797D01*
X209700500Y-94175009D01*
X209700499Y-92824992D01*
X209699044Y-92810753D01*
X209689999Y-92722203D01*
X209689998Y-92722200D01*
X209673374Y-92672032D01*
X209634814Y-92555666D01*
X209542712Y-92406344D01*
X209418656Y-92282288D01*
X209269334Y-92190186D01*
X209102797Y-92135001D01*
X209102795Y-92135000D01*
X209000010Y-92124500D01*
X208099998Y-92124500D01*
X208099980Y-92124501D01*
X207997203Y-92135000D01*
X207997200Y-92135001D01*
X207830668Y-92190185D01*
X207830663Y-92190187D01*
X207681342Y-92282289D01*
X207557289Y-92406342D01*
X207465187Y-92555663D01*
X207465185Y-92555668D01*
X207447547Y-92608897D01*
X207412824Y-92713686D01*
X207410001Y-92722204D01*
X207410000Y-92722205D01*
X207403268Y-92788103D01*
X207376871Y-92852795D01*
X207319690Y-92892946D01*
X207279910Y-92899500D01*
X206968060Y-92899500D01*
X206901021Y-92879815D01*
X206855266Y-92827011D01*
X206844702Y-92788101D01*
X206840056Y-92742621D01*
X206836516Y-92707964D01*
X206781331Y-92541427D01*
X206689229Y-92392105D01*
X206565173Y-92268049D01*
X206415851Y-92175947D01*
X206249314Y-92120762D01*
X206249312Y-92120761D01*
X206146527Y-92110261D01*
X204746515Y-92110261D01*
X204746498Y-92110262D01*
X204643720Y-92120761D01*
X204643717Y-92120762D01*
X204477185Y-92175946D01*
X204477180Y-92175948D01*
X204327859Y-92268050D01*
X204203806Y-92392103D01*
X204111703Y-92541427D01*
X204096348Y-92587765D01*
X204056575Y-92645210D01*
X203992058Y-92672032D01*
X203978642Y-92672760D01*
X203947682Y-92672760D01*
X203840326Y-92701526D01*
X203794949Y-92713685D01*
X203794948Y-92713686D01*
X203787487Y-92717994D01*
X203719587Y-92734465D01*
X203653560Y-92711612D01*
X203610371Y-92656690D01*
X203601489Y-92610606D01*
X203601489Y-88899741D01*
X203621174Y-88832702D01*
X203673978Y-88786947D01*
X203743136Y-88777003D01*
X203799798Y-88800473D01*
X203857665Y-88843793D01*
X203857668Y-88843795D01*
X203857671Y-88843797D01*
X203992517Y-88894091D01*
X203992516Y-88894091D01*
X203999444Y-88894835D01*
X204052127Y-88900500D01*
X205947872Y-88900499D01*
X206007483Y-88894091D01*
X206142331Y-88843796D01*
X206257546Y-88757546D01*
X206343796Y-88642331D01*
X206343798Y-88642326D01*
X206373601Y-88562420D01*
X206415471Y-88506486D01*
X206480936Y-88482068D01*
X206549209Y-88496919D01*
X206577464Y-88518071D01*
X206627636Y-88568243D01*
X206627641Y-88568247D01*
X206729603Y-88642326D01*
X206805978Y-88697815D01*
X206934375Y-88763237D01*
X207002393Y-88797895D01*
X207002396Y-88797896D01*
X207107221Y-88831955D01*
X207212049Y-88866015D01*
X207429778Y-88900500D01*
X207429779Y-88900500D01*
X207650221Y-88900500D01*
X207650222Y-88900500D01*
X207867951Y-88866015D01*
X208077606Y-88797895D01*
X208274022Y-88697815D01*
X208452365Y-88568242D01*
X208608242Y-88412365D01*
X208737815Y-88234022D01*
X208837895Y-88037606D01*
X208906015Y-87827951D01*
X208940500Y-87610222D01*
X208940500Y-87389778D01*
X208906015Y-87172049D01*
X208837895Y-86962394D01*
X208836935Y-86959438D01*
X208834940Y-86889596D01*
X208867183Y-86833441D01*
X210923315Y-84777309D01*
X210984636Y-84743826D01*
X211054328Y-84748810D01*
X211072993Y-84757604D01*
X211244649Y-84856710D01*
X211471788Y-84950794D01*
X211709264Y-85014425D01*
X211953014Y-85046516D01*
X211953021Y-85046516D01*
X212198861Y-85046516D01*
X212198868Y-85046516D01*
X212442618Y-85014425D01*
X212680094Y-84950794D01*
X212907233Y-84856710D01*
X213112500Y-84738198D01*
X213180400Y-84721726D01*
X213246427Y-84744579D01*
G37*
G04 #@! TD.AperFunction*
G04 #@! TA.AperFunction,Conductor*
G36*
X210526052Y-81889385D02*
G01*
X210571807Y-81942189D01*
X210581751Y-82011347D01*
X210557389Y-82069184D01*
X210540763Y-82090853D01*
X210513174Y-82126807D01*
X210390248Y-82339721D01*
X210390244Y-82339730D01*
X210296166Y-82566853D01*
X210296163Y-82566863D01*
X210239388Y-82778754D01*
X210232533Y-82804336D01*
X210232531Y-82804347D01*
X210200441Y-83048081D01*
X210200441Y-83293950D01*
X210223946Y-83472481D01*
X210232532Y-83537693D01*
X210263015Y-83651458D01*
X210261352Y-83721308D01*
X210230921Y-83771232D01*
X209111680Y-84890473D01*
X209050357Y-84923958D01*
X208980665Y-84918974D01*
X208924732Y-84877102D01*
X208900315Y-84811638D01*
X208899999Y-84802792D01*
X208899999Y-84525028D01*
X208899998Y-84525013D01*
X208889505Y-84422302D01*
X208834358Y-84255880D01*
X208834356Y-84255875D01*
X208742315Y-84106654D01*
X208618345Y-83982684D01*
X208469124Y-83890643D01*
X208469119Y-83890641D01*
X208302697Y-83835494D01*
X208302690Y-83835493D01*
X208199986Y-83825000D01*
X208000000Y-83825000D01*
X208000000Y-85076000D01*
X207980315Y-85143039D01*
X207927511Y-85188794D01*
X207876000Y-85200000D01*
X207750000Y-85200000D01*
X207750000Y-85326000D01*
X207730315Y-85393039D01*
X207677511Y-85438794D01*
X207626000Y-85450000D01*
X206600001Y-85450000D01*
X206600001Y-85874986D01*
X206610494Y-85977697D01*
X206665641Y-86144119D01*
X206665643Y-86144124D01*
X206716043Y-86225834D01*
X206725069Y-86258823D01*
X206734502Y-86291691D01*
X206734272Y-86292455D01*
X206734483Y-86293226D01*
X206724234Y-86325880D01*
X206714406Y-86358609D01*
X206713744Y-86359305D01*
X206713561Y-86359890D01*
X206691131Y-86385140D01*
X206687373Y-86388355D01*
X206627635Y-86431758D01*
X206574065Y-86485327D01*
X206570410Y-86488456D01*
X206542746Y-86500884D01*
X206516140Y-86515413D01*
X206511198Y-86515059D01*
X206506677Y-86517091D01*
X206476687Y-86512590D01*
X206446448Y-86510428D01*
X206442480Y-86507458D01*
X206437581Y-86506723D01*
X206414793Y-86486731D01*
X206390515Y-86468557D01*
X206387240Y-86462559D01*
X206385058Y-86460645D01*
X206383798Y-86456256D01*
X206373601Y-86437580D01*
X206343797Y-86357671D01*
X206343793Y-86357664D01*
X206257547Y-86242455D01*
X206257544Y-86242452D01*
X206142335Y-86156206D01*
X206142328Y-86156202D01*
X206007482Y-86105908D01*
X206007483Y-86105908D01*
X205947883Y-86099501D01*
X205947881Y-86099500D01*
X205947873Y-86099500D01*
X205947865Y-86099500D01*
X205914879Y-86099500D01*
X205847840Y-86079815D01*
X205802085Y-86027011D01*
X205791521Y-85962897D01*
X205800499Y-85875016D01*
X205800500Y-85875009D01*
X205800499Y-84525013D01*
X206600000Y-84525013D01*
X206600000Y-84950000D01*
X207500000Y-84950000D01*
X207500000Y-83825000D01*
X207300029Y-83825000D01*
X207300012Y-83825001D01*
X207197302Y-83835494D01*
X207030880Y-83890641D01*
X207030875Y-83890643D01*
X206881654Y-83982684D01*
X206757684Y-84106654D01*
X206665643Y-84255875D01*
X206665641Y-84255880D01*
X206610494Y-84422302D01*
X206610493Y-84422309D01*
X206600000Y-84525013D01*
X205800499Y-84525013D01*
X205800499Y-84524992D01*
X205797727Y-84497860D01*
X205789999Y-84422203D01*
X205789998Y-84422200D01*
X205756552Y-84321267D01*
X205734814Y-84255666D01*
X205642712Y-84106344D01*
X205518656Y-83982288D01*
X205369334Y-83890186D01*
X205202797Y-83835001D01*
X205202795Y-83835000D01*
X205100010Y-83824500D01*
X204199998Y-83824500D01*
X204199980Y-83824501D01*
X204097203Y-83835000D01*
X204097200Y-83835001D01*
X203930668Y-83890185D01*
X203930659Y-83890189D01*
X203790585Y-83976588D01*
X203723193Y-83995028D01*
X203656530Y-83974105D01*
X203611760Y-83920463D01*
X203601489Y-83871049D01*
X203601489Y-81993700D01*
X203621174Y-81926661D01*
X203673978Y-81880906D01*
X203725489Y-81869700D01*
X210459013Y-81869700D01*
X210526052Y-81889385D01*
G37*
G04 #@! TD.AperFunction*
G04 #@! TA.AperFunction,Conductor*
G36*
X216627227Y-62915256D02*
G01*
X216639808Y-62914717D01*
X216659673Y-62926312D01*
X216681445Y-62933732D01*
X216690719Y-62944434D01*
X216700150Y-62949940D01*
X216720485Y-62978787D01*
X216810474Y-63155403D01*
X216814817Y-63161380D01*
X216926172Y-63314646D01*
X217065354Y-63453828D01*
X217224595Y-63569524D01*
X217228386Y-63572278D01*
X217271051Y-63627608D01*
X217279500Y-63672596D01*
X217279500Y-71019902D01*
X217259815Y-71086941D01*
X217243181Y-71107583D01*
X216969481Y-71381282D01*
X216969479Y-71381285D01*
X216959219Y-71399057D01*
X216932415Y-71445483D01*
X216890423Y-71518215D01*
X216849499Y-71670943D01*
X216849499Y-71670945D01*
X216849499Y-71839046D01*
X216849500Y-71839059D01*
X216849500Y-74223052D01*
X216829815Y-74290091D01*
X216777011Y-74335846D01*
X216725500Y-74347052D01*
X216647757Y-74347052D01*
X216647757Y-74473052D01*
X216628072Y-74540091D01*
X216575268Y-74585846D01*
X216523757Y-74597052D01*
X215847757Y-74597052D01*
X215847757Y-75000201D01*
X215850656Y-75037041D01*
X215853183Y-75045737D01*
X215853163Y-75052615D01*
X215856218Y-75058776D01*
X215853064Y-75087100D01*
X215852983Y-75115606D01*
X215849248Y-75121381D01*
X215848487Y-75128217D01*
X215830517Y-75150343D01*
X215815040Y-75174276D01*
X215808775Y-75177115D01*
X215804440Y-75182454D01*
X215777363Y-75191352D01*
X215751402Y-75203119D01*
X215743012Y-75202641D01*
X215738063Y-75204268D01*
X215716399Y-75201125D01*
X215702986Y-75200362D01*
X215698995Y-75199327D01*
X215661797Y-75187001D01*
X215644726Y-75185257D01*
X215635585Y-75182887D01*
X215613372Y-75169594D01*
X215589405Y-75159813D01*
X215583881Y-75151945D01*
X215575631Y-75147008D01*
X215564131Y-75123815D01*
X215549257Y-75102630D01*
X215548502Y-75092295D01*
X215544593Y-75084411D01*
X215546606Y-75066324D01*
X215544936Y-75043444D01*
X215544858Y-75043438D01*
X215544898Y-75042924D01*
X215544726Y-75040562D01*
X215545353Y-75037126D01*
X215545355Y-75037121D01*
X215548257Y-75000246D01*
X215548257Y-73834052D01*
X215550807Y-73825366D01*
X215549519Y-73816405D01*
X215560497Y-73792364D01*
X215567942Y-73767013D01*
X215574782Y-73761085D01*
X215578544Y-73752849D01*
X215600778Y-73738559D01*
X215620746Y-73721258D01*
X215631260Y-73718970D01*
X215637322Y-73715075D01*
X215672257Y-73710052D01*
X215723757Y-73710052D01*
X215790796Y-73729737D01*
X215836551Y-73782541D01*
X215847757Y-73834052D01*
X215847757Y-74097052D01*
X216397757Y-74097052D01*
X216397757Y-73441366D01*
X216415024Y-73378246D01*
X216449501Y-73319950D01*
X216495355Y-73162121D01*
X216498257Y-73125246D01*
X216498257Y-71818858D01*
X216495355Y-71781983D01*
X216495259Y-71781654D01*
X216449502Y-71624158D01*
X216449501Y-71624155D01*
X216449501Y-71624154D01*
X216365838Y-71482687D01*
X216365836Y-71482685D01*
X216365833Y-71482681D01*
X216334576Y-71451424D01*
X216301091Y-71390101D01*
X216298257Y-71363743D01*
X216298257Y-70952506D01*
X216317942Y-70885467D01*
X216357158Y-70846969D01*
X216485656Y-70767712D01*
X216609712Y-70643656D01*
X216701814Y-70494334D01*
X216756999Y-70327797D01*
X216767500Y-70225009D01*
X216767499Y-69324992D01*
X216756999Y-69222203D01*
X216701814Y-69055666D01*
X216609712Y-68906344D01*
X216485656Y-68782288D01*
X216336334Y-68690186D01*
X216169797Y-68635001D01*
X216169795Y-68635000D01*
X216067010Y-68624500D01*
X214716998Y-68624500D01*
X214716981Y-68624501D01*
X214614203Y-68635000D01*
X214614200Y-68635001D01*
X214447668Y-68690185D01*
X214447663Y-68690187D01*
X214298342Y-68782289D01*
X214209681Y-68870951D01*
X214148358Y-68904436D01*
X214078666Y-68899452D01*
X214034319Y-68870951D01*
X213945657Y-68782289D01*
X213945656Y-68782288D01*
X213796334Y-68690186D01*
X213629797Y-68635001D01*
X213629795Y-68635000D01*
X213527010Y-68624500D01*
X212176998Y-68624500D01*
X212176981Y-68624501D01*
X212074203Y-68635000D01*
X212074200Y-68635001D01*
X211907668Y-68690185D01*
X211907663Y-68690187D01*
X211758342Y-68782289D01*
X211669681Y-68870951D01*
X211608358Y-68904436D01*
X211538666Y-68899452D01*
X211494319Y-68870951D01*
X211405657Y-68782289D01*
X211405656Y-68782288D01*
X211256334Y-68690186D01*
X211089797Y-68635001D01*
X211089795Y-68635000D01*
X210987010Y-68624500D01*
X209636998Y-68624500D01*
X209636981Y-68624501D01*
X209534203Y-68635000D01*
X209534200Y-68635001D01*
X209367668Y-68690185D01*
X209367663Y-68690187D01*
X209218342Y-68782289D01*
X209129681Y-68870951D01*
X209068358Y-68904436D01*
X208998666Y-68899452D01*
X208954319Y-68870951D01*
X208865657Y-68782289D01*
X208865656Y-68782288D01*
X208716334Y-68690186D01*
X208549797Y-68635001D01*
X208549795Y-68635000D01*
X208447010Y-68624500D01*
X207096998Y-68624500D01*
X207096981Y-68624501D01*
X206994203Y-68635000D01*
X206994200Y-68635001D01*
X206827668Y-68690185D01*
X206827663Y-68690187D01*
X206678342Y-68782289D01*
X206554289Y-68906342D01*
X206462187Y-69055663D01*
X206462186Y-69055666D01*
X206407001Y-69222203D01*
X206407001Y-69222204D01*
X206407000Y-69222204D01*
X206396500Y-69324983D01*
X206396500Y-70225001D01*
X206396501Y-70225019D01*
X206398756Y-70247086D01*
X206385986Y-70315779D01*
X206363079Y-70347368D01*
X205532545Y-71177902D01*
X205471222Y-71211387D01*
X205410271Y-71209298D01*
X205377408Y-71199751D01*
X205377409Y-71199751D01*
X205377405Y-71199750D01*
X205377402Y-71199749D01*
X205377399Y-71199749D01*
X205340537Y-71196848D01*
X205340530Y-71196848D01*
X204909142Y-71196848D01*
X204909134Y-71196848D01*
X204872268Y-71199749D01*
X204872262Y-71199750D01*
X204714442Y-71245602D01*
X204714439Y-71245603D01*
X204572973Y-71329265D01*
X204572965Y-71329271D01*
X204456759Y-71445477D01*
X204456753Y-71445485D01*
X204373091Y-71586951D01*
X204373090Y-71586954D01*
X204327238Y-71744774D01*
X204327237Y-71744780D01*
X204324336Y-71781646D01*
X204324336Y-72947848D01*
X204304651Y-73014887D01*
X204251847Y-73060642D01*
X204200336Y-73071848D01*
X203959134Y-73071848D01*
X203922268Y-73074749D01*
X203922262Y-73074750D01*
X203764442Y-73120602D01*
X203764439Y-73120603D01*
X203622973Y-73204265D01*
X203622965Y-73204271D01*
X203506759Y-73320477D01*
X203506753Y-73320485D01*
X203423091Y-73461951D01*
X203423090Y-73461954D01*
X203377238Y-73619774D01*
X203377237Y-73619780D01*
X203374336Y-73656646D01*
X203374336Y-74963049D01*
X203377237Y-74999915D01*
X203377238Y-74999921D01*
X203384426Y-75024660D01*
X203384227Y-75094530D01*
X203346285Y-75153200D01*
X203282646Y-75182043D01*
X203277953Y-75182613D01*
X203235002Y-75187001D01*
X203235000Y-75187001D01*
X203068468Y-75242185D01*
X203068463Y-75242187D01*
X202919142Y-75334289D01*
X202795089Y-75458342D01*
X202702987Y-75607663D01*
X202702985Y-75607668D01*
X202678133Y-75682666D01*
X202647801Y-75774203D01*
X202647801Y-75774204D01*
X202647800Y-75774204D01*
X202637300Y-75876983D01*
X202637300Y-76777001D01*
X202637301Y-76777019D01*
X202647800Y-76879796D01*
X202647801Y-76879799D01*
X202689884Y-77006795D01*
X202702986Y-77046334D01*
X202795088Y-77195656D01*
X202919144Y-77319712D01*
X203068466Y-77411814D01*
X203235003Y-77466999D01*
X203337791Y-77477500D01*
X204687808Y-77477499D01*
X204790597Y-77466999D01*
X204957134Y-77411814D01*
X205106456Y-77319712D01*
X205230512Y-77195656D01*
X205322614Y-77046334D01*
X205377799Y-76879797D01*
X205388300Y-76777009D01*
X205388299Y-75876992D01*
X205377799Y-75774203D01*
X205322614Y-75607666D01*
X205230512Y-75458344D01*
X205106456Y-75334288D01*
X204990719Y-75262901D01*
X204943997Y-75210955D01*
X204932774Y-75141993D01*
X204936742Y-75122769D01*
X204972433Y-74999921D01*
X204972434Y-74999915D01*
X204975335Y-74963049D01*
X204975336Y-74963042D01*
X204975336Y-74962997D01*
X205274836Y-74962997D01*
X205277735Y-74999837D01*
X205277736Y-74999843D01*
X205323552Y-75157541D01*
X205323553Y-75157544D01*
X205389183Y-75268519D01*
X205444135Y-75335887D01*
X205523274Y-75415026D01*
X205523283Y-75415033D01*
X205664637Y-75498629D01*
X205822350Y-75544448D01*
X205822347Y-75544448D01*
X205824834Y-75544643D01*
X205824836Y-75544643D01*
X205824836Y-74559848D01*
X205274836Y-74559848D01*
X205274836Y-74962997D01*
X204975336Y-74962997D01*
X204975336Y-73796848D01*
X204977886Y-73788162D01*
X204976598Y-73779201D01*
X204987576Y-73755160D01*
X204995021Y-73729809D01*
X205001861Y-73723881D01*
X205005623Y-73715645D01*
X205027857Y-73701355D01*
X205047825Y-73684054D01*
X205058339Y-73681766D01*
X205064401Y-73677871D01*
X205099336Y-73672848D01*
X205150836Y-73672848D01*
X205217875Y-73692533D01*
X205263630Y-73745337D01*
X205274836Y-73796848D01*
X205274836Y-74059848D01*
X205824836Y-74059848D01*
X205824836Y-73404162D01*
X205842103Y-73341042D01*
X205876580Y-73282746D01*
X205912878Y-73157808D01*
X205922433Y-73124921D01*
X205922434Y-73124915D01*
X205922773Y-73120604D01*
X205925336Y-73088042D01*
X205925336Y-72534944D01*
X205945021Y-72467905D01*
X205961650Y-72447268D01*
X207447100Y-70961817D01*
X207508423Y-70928333D01*
X207534781Y-70925499D01*
X208447002Y-70925499D01*
X208447008Y-70925499D01*
X208549797Y-70914999D01*
X208716334Y-70859814D01*
X208865656Y-70767712D01*
X208954319Y-70679049D01*
X208960169Y-70675854D01*
X208963959Y-70670368D01*
X208990453Y-70659318D01*
X209015642Y-70645564D01*
X209022291Y-70646039D01*
X209028445Y-70643473D01*
X209056704Y-70648500D01*
X209085334Y-70650548D01*
X209092285Y-70654830D01*
X209097234Y-70655711D01*
X209118240Y-70670820D01*
X209126275Y-70675770D01*
X209128002Y-70677370D01*
X209218344Y-70767712D01*
X209239785Y-70780937D01*
X209248664Y-70789163D01*
X209260612Y-70809189D01*
X209276211Y-70826532D01*
X209278180Y-70838635D01*
X209284462Y-70849164D01*
X209283686Y-70872473D01*
X209287432Y-70895495D01*
X209282545Y-70906740D01*
X209282138Y-70918995D01*
X209268883Y-70938184D01*
X209259589Y-70959577D01*
X209252070Y-70967804D01*
X209041972Y-71177902D01*
X208980649Y-71211387D01*
X208919698Y-71209298D01*
X208886835Y-71199751D01*
X208886836Y-71199751D01*
X208886832Y-71199750D01*
X208886829Y-71199749D01*
X208886826Y-71199749D01*
X208849964Y-71196848D01*
X208849957Y-71196848D01*
X208418569Y-71196848D01*
X208418561Y-71196848D01*
X208381695Y-71199749D01*
X208381689Y-71199750D01*
X208223869Y-71245602D01*
X208223866Y-71245603D01*
X208082400Y-71329265D01*
X208082392Y-71329271D01*
X207966186Y-71445477D01*
X207966180Y-71445485D01*
X207882518Y-71586951D01*
X207882517Y-71586954D01*
X207836665Y-71744774D01*
X207836664Y-71744780D01*
X207833763Y-71781646D01*
X207833763Y-72947848D01*
X207814078Y-73014887D01*
X207761274Y-73060642D01*
X207709763Y-73071848D01*
X207468561Y-73071848D01*
X207431695Y-73074749D01*
X207431689Y-73074750D01*
X207273869Y-73120602D01*
X207273866Y-73120603D01*
X207132400Y-73204265D01*
X207132392Y-73204271D01*
X207016186Y-73320477D01*
X207016182Y-73320483D01*
X206985991Y-73371533D01*
X206934921Y-73419216D01*
X206866179Y-73431719D01*
X206801590Y-73405073D01*
X206772527Y-73371532D01*
X206742521Y-73320795D01*
X206742514Y-73320786D01*
X206626397Y-73204669D01*
X206626388Y-73204662D01*
X206485032Y-73121065D01*
X206485029Y-73121064D01*
X206327330Y-73075248D01*
X206327333Y-73075248D01*
X206324836Y-73075051D01*
X206324836Y-75556086D01*
X206345394Y-75590456D01*
X206343148Y-75660289D01*
X206343061Y-75660551D01*
X206305401Y-75774200D01*
X206305400Y-75774204D01*
X206294900Y-75876983D01*
X206294900Y-76777001D01*
X206294901Y-76777019D01*
X206305400Y-76879796D01*
X206305401Y-76879799D01*
X206347484Y-77006795D01*
X206360586Y-77046334D01*
X206452688Y-77195656D01*
X206576744Y-77319712D01*
X206726066Y-77411814D01*
X206892603Y-77466999D01*
X206995391Y-77477500D01*
X208345408Y-77477499D01*
X208448197Y-77466999D01*
X208614734Y-77411814D01*
X208764056Y-77319712D01*
X208888112Y-77195656D01*
X208980214Y-77046334D01*
X209035399Y-76879797D01*
X209045900Y-76777009D01*
X209045899Y-75876992D01*
X209035399Y-75774203D01*
X208992163Y-75643728D01*
X208989762Y-75573902D01*
X209025493Y-75513860D01*
X209088014Y-75482667D01*
X209157473Y-75490227D01*
X209172997Y-75497998D01*
X209174064Y-75498629D01*
X209331777Y-75544448D01*
X209331774Y-75544448D01*
X209334261Y-75544643D01*
X209334263Y-75544643D01*
X209334263Y-74559848D01*
X208784263Y-74559848D01*
X208784263Y-74962997D01*
X208787162Y-74999835D01*
X208820778Y-75115542D01*
X208820578Y-75185412D01*
X208782635Y-75244082D01*
X208718997Y-75272925D01*
X208654392Y-75264757D01*
X208645129Y-75260933D01*
X208614734Y-75242186D01*
X208538523Y-75216932D01*
X208534421Y-75215239D01*
X208510508Y-75196018D01*
X208485281Y-75178552D01*
X208483525Y-75174330D01*
X208479962Y-75171466D01*
X208470236Y-75142365D01*
X208458458Y-75114036D01*
X208458936Y-75108556D01*
X208457815Y-75105200D01*
X208459972Y-75096700D01*
X208462653Y-75066029D01*
X208481861Y-74999917D01*
X208484763Y-74963042D01*
X208484763Y-73796848D01*
X208487313Y-73788162D01*
X208486025Y-73779201D01*
X208497003Y-73755160D01*
X208504448Y-73729809D01*
X208511288Y-73723881D01*
X208515050Y-73715645D01*
X208537284Y-73701355D01*
X208557252Y-73684054D01*
X208567766Y-73681766D01*
X208573828Y-73677871D01*
X208608763Y-73672848D01*
X208660263Y-73672848D01*
X208727302Y-73692533D01*
X208773057Y-73745337D01*
X208784263Y-73796848D01*
X208784263Y-74059848D01*
X209334263Y-74059848D01*
X209334263Y-73404162D01*
X209351530Y-73341042D01*
X209386007Y-73282746D01*
X209422305Y-73157808D01*
X209431860Y-73124921D01*
X209431861Y-73124915D01*
X209432200Y-73120604D01*
X209434763Y-73088042D01*
X209434763Y-72534944D01*
X209454448Y-72467905D01*
X209471077Y-72447268D01*
X210670506Y-71247838D01*
X210670511Y-71247835D01*
X210680714Y-71237631D01*
X210680716Y-71237631D01*
X210792520Y-71125827D01*
X210871577Y-70988895D01*
X210871577Y-70988893D01*
X210872382Y-70987500D01*
X210922949Y-70939284D01*
X210979770Y-70925499D01*
X210987002Y-70925499D01*
X210987008Y-70925499D01*
X211089797Y-70914999D01*
X211256334Y-70859814D01*
X211402514Y-70769649D01*
X211469906Y-70751210D01*
X211536569Y-70772133D01*
X211581339Y-70825775D01*
X211591610Y-70875189D01*
X211591610Y-71355695D01*
X211571925Y-71422734D01*
X211555291Y-71443376D01*
X211524033Y-71474633D01*
X211524027Y-71474641D01*
X211440365Y-71616107D01*
X211440364Y-71616110D01*
X211394512Y-71773930D01*
X211394511Y-71773936D01*
X211391610Y-71810802D01*
X211391610Y-72977004D01*
X211371925Y-73044043D01*
X211319121Y-73089798D01*
X211267610Y-73101004D01*
X211026408Y-73101004D01*
X210989542Y-73103905D01*
X210989536Y-73103906D01*
X210831716Y-73149758D01*
X210831713Y-73149759D01*
X210690247Y-73233421D01*
X210690239Y-73233427D01*
X210574033Y-73349633D01*
X210574026Y-73349642D01*
X210528249Y-73427048D01*
X210477180Y-73474732D01*
X210408438Y-73487235D01*
X210343849Y-73460589D01*
X210314785Y-73427048D01*
X210251947Y-73320794D01*
X210251941Y-73320786D01*
X210135824Y-73204669D01*
X210135815Y-73204662D01*
X209994459Y-73121065D01*
X209994456Y-73121064D01*
X209836757Y-73075248D01*
X209836760Y-73075248D01*
X209834263Y-73075051D01*
X209834263Y-75544643D01*
X209840940Y-75544118D01*
X209909317Y-75558483D01*
X209959073Y-75607535D01*
X209974411Y-75675701D01*
X209968373Y-75706738D01*
X209958986Y-75735067D01*
X209937601Y-75799603D01*
X209937600Y-75799604D01*
X209927100Y-75902383D01*
X209927100Y-76802401D01*
X209927101Y-76802419D01*
X209937600Y-76905196D01*
X209937601Y-76905199D01*
X209984368Y-77046331D01*
X209992786Y-77071734D01*
X210084888Y-77221056D01*
X210208944Y-77345112D01*
X210358266Y-77437214D01*
X210524803Y-77492399D01*
X210627591Y-77502900D01*
X211977608Y-77502899D01*
X212080397Y-77492399D01*
X212246934Y-77437214D01*
X212396256Y-77345112D01*
X212520312Y-77221056D01*
X212612414Y-77071734D01*
X212667599Y-76905197D01*
X212678100Y-76802409D01*
X212678099Y-75902392D01*
X212675504Y-75876992D01*
X212667599Y-75799603D01*
X212635267Y-75702034D01*
X212632866Y-75632208D01*
X212668597Y-75572166D01*
X212731118Y-75540973D01*
X212787569Y-75543956D01*
X212889615Y-75573603D01*
X212889621Y-75573604D01*
X212892108Y-75573799D01*
X212892110Y-75573799D01*
X212892110Y-74589004D01*
X212342110Y-74589004D01*
X212342110Y-74992153D01*
X212345009Y-75028993D01*
X212366358Y-75102476D01*
X212366326Y-75113487D01*
X212370553Y-75123653D01*
X212366228Y-75147805D01*
X212366158Y-75172345D01*
X212360178Y-75181590D01*
X212358238Y-75192428D01*
X212341541Y-75210409D01*
X212328215Y-75231015D01*
X212318186Y-75235560D01*
X212310695Y-75243628D01*
X212286928Y-75249727D01*
X212264577Y-75259858D01*
X212251910Y-75258714D01*
X212243018Y-75260997D01*
X212208277Y-75254776D01*
X212108099Y-75221580D01*
X212050654Y-75181807D01*
X212023831Y-75117291D01*
X212028027Y-75069278D01*
X212032868Y-75052615D01*
X212039708Y-75029073D01*
X212042610Y-74992198D01*
X212042610Y-73826004D01*
X212045160Y-73817318D01*
X212043872Y-73808357D01*
X212054850Y-73784316D01*
X212062295Y-73758965D01*
X212069135Y-73753037D01*
X212072897Y-73744801D01*
X212095131Y-73730511D01*
X212115099Y-73713210D01*
X212125613Y-73710922D01*
X212131675Y-73707027D01*
X212166610Y-73702004D01*
X212218110Y-73702004D01*
X212285149Y-73721689D01*
X212330904Y-73774493D01*
X212342110Y-73826004D01*
X212342110Y-74089004D01*
X212892110Y-74089004D01*
X212892110Y-73433318D01*
X212909377Y-73370198D01*
X212943854Y-73311902D01*
X212987370Y-73162121D01*
X212989707Y-73154077D01*
X212989708Y-73154071D01*
X212990047Y-73149760D01*
X212992610Y-73117198D01*
X212992610Y-71810810D01*
X212989708Y-71773935D01*
X212981237Y-71744779D01*
X212943855Y-71616110D01*
X212943854Y-71616107D01*
X212943854Y-71616106D01*
X212860191Y-71474639D01*
X212860189Y-71474637D01*
X212860186Y-71474633D01*
X212828929Y-71443376D01*
X212795444Y-71382053D01*
X212792610Y-71355695D01*
X212792610Y-71049499D01*
X212812295Y-70982460D01*
X212865099Y-70936705D01*
X212916610Y-70925499D01*
X213527002Y-70925499D01*
X213527008Y-70925499D01*
X213629797Y-70914999D01*
X213796334Y-70859814D01*
X213945656Y-70767712D01*
X214034319Y-70679049D01*
X214095642Y-70645564D01*
X214165334Y-70650548D01*
X214209681Y-70679049D01*
X214298344Y-70767712D01*
X214447666Y-70859814D01*
X214614203Y-70914999D01*
X214716991Y-70925500D01*
X214973258Y-70925499D01*
X215040296Y-70945183D01*
X215086051Y-70997987D01*
X215097257Y-71049499D01*
X215097257Y-71363743D01*
X215077572Y-71430782D01*
X215060938Y-71451424D01*
X215029680Y-71482681D01*
X215029674Y-71482689D01*
X214946012Y-71624155D01*
X214946011Y-71624158D01*
X214900159Y-71781978D01*
X214900158Y-71781984D01*
X214897257Y-71818850D01*
X214897257Y-72985052D01*
X214877572Y-73052091D01*
X214824768Y-73097846D01*
X214773257Y-73109052D01*
X214532055Y-73109052D01*
X214495189Y-73111953D01*
X214495183Y-73111954D01*
X214337363Y-73157806D01*
X214337360Y-73157807D01*
X214195894Y-73241469D01*
X214195886Y-73241475D01*
X214079680Y-73357681D01*
X214079671Y-73357692D01*
X214053753Y-73401518D01*
X214002684Y-73449201D01*
X213933942Y-73461704D01*
X213869353Y-73435058D01*
X213840289Y-73401516D01*
X213809792Y-73349948D01*
X213809788Y-73349942D01*
X213693671Y-73233825D01*
X213693662Y-73233818D01*
X213552306Y-73150221D01*
X213552303Y-73150220D01*
X213394604Y-73104404D01*
X213394607Y-73104404D01*
X213392110Y-73104207D01*
X213392110Y-75573799D01*
X213392111Y-75573799D01*
X213400919Y-75573107D01*
X213401071Y-75575040D01*
X213461463Y-75581399D01*
X213515963Y-75625120D01*
X213538174Y-75691365D01*
X213531969Y-75735067D01*
X213519001Y-75774200D01*
X213519000Y-75774204D01*
X213508500Y-75876983D01*
X213508500Y-76777001D01*
X213508501Y-76777019D01*
X213519000Y-76879796D01*
X213519001Y-76879799D01*
X213561084Y-77006795D01*
X213574186Y-77046334D01*
X213666288Y-77195656D01*
X213790344Y-77319712D01*
X213939666Y-77411814D01*
X214106203Y-77466999D01*
X214208991Y-77477500D01*
X215559008Y-77477499D01*
X215661797Y-77466999D01*
X215828334Y-77411814D01*
X215960404Y-77330352D01*
X216027796Y-77311913D01*
X216094459Y-77332836D01*
X216139229Y-77386478D01*
X216149500Y-77435892D01*
X216149500Y-78318107D01*
X216129815Y-78385146D01*
X216077011Y-78430901D01*
X216007853Y-78440845D01*
X215960404Y-78423646D01*
X215828340Y-78342189D01*
X215828335Y-78342187D01*
X215828334Y-78342186D01*
X215661797Y-78287001D01*
X215661795Y-78287000D01*
X215559010Y-78276500D01*
X214208998Y-78276500D01*
X214208981Y-78276501D01*
X214106203Y-78287000D01*
X214106200Y-78287001D01*
X213939668Y-78342185D01*
X213939663Y-78342187D01*
X213790342Y-78434289D01*
X213666289Y-78558342D01*
X213574187Y-78707663D01*
X213574185Y-78707668D01*
X213552714Y-78772463D01*
X213519001Y-78874203D01*
X213519001Y-78874204D01*
X213519000Y-78874204D01*
X213508500Y-78976983D01*
X213508500Y-79877000D01*
X213508501Y-79877011D01*
X213509581Y-79887583D01*
X213496808Y-79956275D01*
X213473903Y-79987860D01*
X212829384Y-80632381D01*
X212768061Y-80665866D01*
X212741703Y-80668700D01*
X212470230Y-80668700D01*
X212403191Y-80649015D01*
X212357436Y-80596211D01*
X212347492Y-80527053D01*
X212376517Y-80463497D01*
X212393321Y-80447432D01*
X212396246Y-80445117D01*
X212396256Y-80445112D01*
X212520312Y-80321056D01*
X212612414Y-80171734D01*
X212667599Y-80005197D01*
X212678100Y-79902409D01*
X212678099Y-79002392D01*
X212675504Y-78976992D01*
X212667599Y-78899603D01*
X212667598Y-78899600D01*
X212661054Y-78879851D01*
X212612414Y-78733066D01*
X212520312Y-78583744D01*
X212396256Y-78459688D01*
X212303488Y-78402469D01*
X212246936Y-78367587D01*
X212246931Y-78367585D01*
X212245462Y-78367098D01*
X212080397Y-78312401D01*
X212080395Y-78312400D01*
X211977610Y-78301900D01*
X210627598Y-78301900D01*
X210627581Y-78301901D01*
X210524803Y-78312400D01*
X210524800Y-78312401D01*
X210358268Y-78367585D01*
X210358263Y-78367587D01*
X210208942Y-78459689D01*
X210084889Y-78583742D01*
X209992787Y-78733063D01*
X209992785Y-78733068D01*
X209970954Y-78798950D01*
X209937601Y-78899603D01*
X209937601Y-78899604D01*
X209937600Y-78899604D01*
X209927100Y-79002383D01*
X209927100Y-79902400D01*
X209927101Y-79902411D01*
X209928181Y-79912983D01*
X209915408Y-79981675D01*
X209892503Y-80013260D01*
X209674382Y-80231382D01*
X209613062Y-80264866D01*
X209586703Y-80267700D01*
X209111717Y-80267700D01*
X209044678Y-80248015D01*
X208998923Y-80195211D01*
X208988979Y-80126053D01*
X208994011Y-80104696D01*
X209035399Y-79979797D01*
X209045900Y-79877009D01*
X209045899Y-78976992D01*
X209045323Y-78971358D01*
X209035399Y-78874203D01*
X209035398Y-78874200D01*
X209019592Y-78826500D01*
X208980214Y-78707666D01*
X208888112Y-78558344D01*
X208764056Y-78434288D01*
X208655913Y-78367585D01*
X208614736Y-78342187D01*
X208614731Y-78342185D01*
X208613262Y-78341698D01*
X208448197Y-78287001D01*
X208448195Y-78287000D01*
X208345410Y-78276500D01*
X206995398Y-78276500D01*
X206995381Y-78276501D01*
X206892603Y-78287000D01*
X206892600Y-78287001D01*
X206726068Y-78342185D01*
X206726063Y-78342187D01*
X206576742Y-78434289D01*
X206452689Y-78558342D01*
X206360587Y-78707663D01*
X206360585Y-78707668D01*
X206339114Y-78772463D01*
X206305401Y-78874203D01*
X206305401Y-78874204D01*
X206305400Y-78874204D01*
X206294900Y-78976983D01*
X206294900Y-78976991D01*
X206294900Y-79398265D01*
X206294901Y-79742700D01*
X206275217Y-79809739D01*
X206222413Y-79855494D01*
X206170901Y-79866700D01*
X205512300Y-79866700D01*
X205445261Y-79847015D01*
X205399506Y-79794211D01*
X205388300Y-79742700D01*
X205388299Y-78976998D01*
X205388298Y-78976980D01*
X205377799Y-78874203D01*
X205377798Y-78874200D01*
X205361992Y-78826500D01*
X205322614Y-78707666D01*
X205230512Y-78558344D01*
X205106456Y-78434288D01*
X204998313Y-78367585D01*
X204957136Y-78342187D01*
X204957131Y-78342185D01*
X204955662Y-78341698D01*
X204790597Y-78287001D01*
X204790595Y-78287000D01*
X204687810Y-78276500D01*
X203337798Y-78276500D01*
X203337781Y-78276501D01*
X203235003Y-78287000D01*
X203235000Y-78287001D01*
X203068468Y-78342185D01*
X203068463Y-78342187D01*
X202919142Y-78434289D01*
X202795089Y-78558342D01*
X202702987Y-78707663D01*
X202702984Y-78707671D01*
X202691772Y-78741506D01*
X202651999Y-78798950D01*
X202587483Y-78825772D01*
X202574067Y-78826500D01*
X202357743Y-78826500D01*
X202205012Y-78867423D01*
X202183488Y-78879851D01*
X202115587Y-78896322D01*
X202049561Y-78873470D01*
X202006371Y-78818548D01*
X201997489Y-78772463D01*
X201997489Y-70422100D01*
X202017174Y-70355061D01*
X202069978Y-70309306D01*
X202121489Y-70298100D01*
X203164131Y-70298100D01*
X203164147Y-70298101D01*
X203171743Y-70298101D01*
X203329854Y-70298101D01*
X203329857Y-70298101D01*
X203482585Y-70257177D01*
X203565981Y-70209028D01*
X203619516Y-70178120D01*
X203731320Y-70066316D01*
X203731320Y-70066314D01*
X203741524Y-70056111D01*
X203741527Y-70056106D01*
X204493320Y-69304316D01*
X204572377Y-69167384D01*
X204613301Y-69014657D01*
X204613301Y-68856542D01*
X204613301Y-68848947D01*
X204613300Y-68848929D01*
X204613300Y-65679697D01*
X204632985Y-65612658D01*
X204649619Y-65592016D01*
X205593232Y-64648403D01*
X206711520Y-63530116D01*
X206730970Y-63496426D01*
X206781536Y-63448210D01*
X206850143Y-63434986D01*
X206911242Y-63458106D01*
X207064595Y-63569524D01*
X207103795Y-63589497D01*
X207154590Y-63637469D01*
X207171500Y-63699981D01*
X207171500Y-65404911D01*
X207151815Y-65471950D01*
X207099011Y-65517705D01*
X207060102Y-65528269D01*
X206994202Y-65535001D01*
X206994200Y-65535001D01*
X206827668Y-65590185D01*
X206827663Y-65590187D01*
X206678342Y-65682289D01*
X206554289Y-65806342D01*
X206462187Y-65955663D01*
X206462186Y-65955666D01*
X206407001Y-66122203D01*
X206407001Y-66122204D01*
X206407000Y-66122204D01*
X206396500Y-66224983D01*
X206396500Y-67125001D01*
X206396501Y-67125019D01*
X206407000Y-67227796D01*
X206407001Y-67227799D01*
X206462185Y-67394331D01*
X206462186Y-67394334D01*
X206554288Y-67543656D01*
X206678344Y-67667712D01*
X206827666Y-67759814D01*
X206994203Y-67814999D01*
X207096991Y-67825500D01*
X208447008Y-67825499D01*
X208549797Y-67814999D01*
X208716334Y-67759814D01*
X208865656Y-67667712D01*
X208954319Y-67579049D01*
X209015642Y-67545564D01*
X209085334Y-67550548D01*
X209129681Y-67579049D01*
X209218344Y-67667712D01*
X209367666Y-67759814D01*
X209534203Y-67814999D01*
X209636991Y-67825500D01*
X210987008Y-67825499D01*
X211089797Y-67814999D01*
X211256334Y-67759814D01*
X211405656Y-67667712D01*
X211494319Y-67579049D01*
X211555642Y-67545564D01*
X211625334Y-67550548D01*
X211669681Y-67579049D01*
X211758344Y-67667712D01*
X211907666Y-67759814D01*
X212074203Y-67814999D01*
X212176991Y-67825500D01*
X213527008Y-67825499D01*
X213629797Y-67814999D01*
X213796334Y-67759814D01*
X213945656Y-67667712D01*
X214034319Y-67579049D01*
X214095642Y-67545564D01*
X214165334Y-67550548D01*
X214209681Y-67579049D01*
X214298344Y-67667712D01*
X214447666Y-67759814D01*
X214614203Y-67814999D01*
X214716991Y-67825500D01*
X216067008Y-67825499D01*
X216169797Y-67814999D01*
X216336334Y-67759814D01*
X216485656Y-67667712D01*
X216609712Y-67543656D01*
X216701814Y-67394334D01*
X216756999Y-67227797D01*
X216767500Y-67125009D01*
X216767499Y-66224992D01*
X216756999Y-66122203D01*
X216701814Y-65955666D01*
X216609712Y-65806344D01*
X216485656Y-65682288D01*
X216336334Y-65590186D01*
X216169797Y-65535001D01*
X216169794Y-65535000D01*
X216103897Y-65528268D01*
X216039205Y-65501871D01*
X215999054Y-65444690D01*
X215992500Y-65404910D01*
X215992500Y-63634815D01*
X216012185Y-63567776D01*
X216043611Y-63534499D01*
X216154646Y-63453828D01*
X216293828Y-63314646D01*
X216409524Y-63155405D01*
X216498884Y-62980025D01*
X216499515Y-62978787D01*
X216508160Y-62969632D01*
X216512896Y-62957966D01*
X216531694Y-62944714D01*
X216547489Y-62927990D01*
X216559711Y-62924963D01*
X216570002Y-62917709D01*
X216592982Y-62916723D01*
X216615310Y-62911195D01*
X216627227Y-62915256D01*
G37*
G04 #@! TD.AperFunction*
G04 #@! TA.AperFunction,Conductor*
G36*
X224325334Y-70650548D02*
G01*
X224369681Y-70679049D01*
X224458344Y-70767712D01*
X224607666Y-70859814D01*
X224774203Y-70914999D01*
X224876991Y-70925500D01*
X225641257Y-70925499D01*
X225708296Y-70945183D01*
X225754051Y-70997987D01*
X225765257Y-71049499D01*
X225765257Y-71363743D01*
X225745572Y-71430782D01*
X225728938Y-71451424D01*
X225697680Y-71482681D01*
X225697674Y-71482689D01*
X225614012Y-71624155D01*
X225614011Y-71624158D01*
X225568159Y-71781978D01*
X225568158Y-71781984D01*
X225565257Y-71818850D01*
X225565257Y-72985052D01*
X225545572Y-73052091D01*
X225492768Y-73097846D01*
X225441257Y-73109052D01*
X225200055Y-73109052D01*
X225163189Y-73111953D01*
X225163183Y-73111954D01*
X225005363Y-73157806D01*
X225005360Y-73157807D01*
X224863894Y-73241469D01*
X224863886Y-73241475D01*
X224747680Y-73357681D01*
X224747676Y-73357687D01*
X224694198Y-73448113D01*
X224643128Y-73495796D01*
X224574387Y-73508299D01*
X224509797Y-73481653D01*
X224480734Y-73448112D01*
X224427441Y-73357998D01*
X224427435Y-73357990D01*
X224311318Y-73241873D01*
X224311309Y-73241866D01*
X224169953Y-73158269D01*
X224169950Y-73158268D01*
X224012251Y-73112452D01*
X224012254Y-73112452D01*
X224009757Y-73112255D01*
X224009757Y-75581847D01*
X224009758Y-75581847D01*
X224012243Y-75581652D01*
X224169955Y-75535833D01*
X224311309Y-75452237D01*
X224311318Y-75452230D01*
X224427435Y-75336113D01*
X224427439Y-75336107D01*
X224480733Y-75245992D01*
X224531802Y-75198308D01*
X224600544Y-75185804D01*
X224665133Y-75212449D01*
X224694198Y-75245991D01*
X224747673Y-75336413D01*
X224747680Y-75336422D01*
X224832397Y-75421139D01*
X224865882Y-75482462D01*
X224860898Y-75552154D01*
X224845771Y-75579007D01*
X224846080Y-75579198D01*
X224842290Y-75585341D01*
X224842288Y-75585344D01*
X224812853Y-75633066D01*
X224750187Y-75734663D01*
X224750185Y-75734668D01*
X224745780Y-75747962D01*
X224695001Y-75901203D01*
X224695001Y-75901204D01*
X224695000Y-75901204D01*
X224684500Y-76003983D01*
X224684500Y-76904001D01*
X224684501Y-76904019D01*
X224695000Y-77006796D01*
X224695001Y-77006799D01*
X224750185Y-77173331D01*
X224750186Y-77173334D01*
X224842288Y-77322656D01*
X224966344Y-77446712D01*
X225115666Y-77538814D01*
X225282203Y-77593999D01*
X225384991Y-77604500D01*
X226735008Y-77604499D01*
X226837797Y-77593999D01*
X227004334Y-77538814D01*
X227153656Y-77446712D01*
X227277712Y-77322656D01*
X227369814Y-77173334D01*
X227424999Y-77006797D01*
X227435500Y-76904009D01*
X227435499Y-76003992D01*
X227424999Y-75901203D01*
X227374084Y-75747554D01*
X227371683Y-75677728D01*
X227407415Y-75617686D01*
X227469935Y-75586493D01*
X227491791Y-75584552D01*
X227531391Y-75584552D01*
X227531406Y-75584551D01*
X227568246Y-75581652D01*
X227568252Y-75581651D01*
X227733447Y-75533658D01*
X227734033Y-75535675D01*
X227792577Y-75528440D01*
X227855545Y-75558720D01*
X227892146Y-75618235D01*
X227896500Y-75650804D01*
X227896500Y-79366903D01*
X227876815Y-79433942D01*
X227824011Y-79479697D01*
X227754853Y-79489641D01*
X227691297Y-79460616D01*
X227684819Y-79454584D01*
X227471818Y-79241583D01*
X227438333Y-79180260D01*
X227435499Y-79153902D01*
X227435499Y-79103998D01*
X227435498Y-79103981D01*
X227424999Y-79001203D01*
X227424998Y-79001200D01*
X227416978Y-78976998D01*
X227369814Y-78834666D01*
X227277712Y-78685344D01*
X227153656Y-78561288D01*
X227004334Y-78469186D01*
X226837797Y-78414001D01*
X226837795Y-78414000D01*
X226735010Y-78403500D01*
X225384998Y-78403500D01*
X225384981Y-78403501D01*
X225282203Y-78414000D01*
X225282200Y-78414001D01*
X225115668Y-78469185D01*
X225115663Y-78469187D01*
X224966342Y-78561289D01*
X224842289Y-78685342D01*
X224750187Y-78834663D01*
X224750185Y-78834668D01*
X224737086Y-78874200D01*
X224695001Y-79001203D01*
X224695001Y-79001204D01*
X224695000Y-79001204D01*
X224684500Y-79103983D01*
X224684500Y-80004001D01*
X224684501Y-80004019D01*
X224695000Y-80106796D01*
X224704511Y-80135495D01*
X224706913Y-80205323D01*
X224671182Y-80265365D01*
X224608662Y-80296559D01*
X224586805Y-80298500D01*
X223768097Y-80298500D01*
X223738656Y-80289855D01*
X223708670Y-80283332D01*
X223703654Y-80279577D01*
X223701058Y-80278815D01*
X223680416Y-80262181D01*
X223533097Y-80114862D01*
X223499612Y-80053539D01*
X223497420Y-80014577D01*
X223498500Y-80004009D01*
X223498499Y-79103992D01*
X223487999Y-79001203D01*
X223432814Y-78834666D01*
X223340712Y-78685344D01*
X223216656Y-78561288D01*
X223067334Y-78469186D01*
X222900797Y-78414001D01*
X222900795Y-78414000D01*
X222798010Y-78403500D01*
X221447998Y-78403500D01*
X221447981Y-78403501D01*
X221345203Y-78414000D01*
X221345200Y-78414001D01*
X221178668Y-78469185D01*
X221178663Y-78469187D01*
X221029342Y-78561289D01*
X220905289Y-78685342D01*
X220813187Y-78834663D01*
X220813185Y-78834668D01*
X220800086Y-78874200D01*
X220758001Y-79001203D01*
X220758001Y-79001204D01*
X220758000Y-79001204D01*
X220747499Y-79103995D01*
X220747432Y-79105317D01*
X220747336Y-79105589D01*
X220747179Y-79107132D01*
X220746810Y-79107094D01*
X220741134Y-79123313D01*
X220739775Y-79142330D01*
X220729834Y-79155608D01*
X220724356Y-79171266D01*
X220709327Y-79183002D01*
X220697903Y-79198263D01*
X220682363Y-79204058D01*
X220669288Y-79214270D01*
X220650300Y-79216017D01*
X220632439Y-79222680D01*
X220616231Y-79219154D01*
X220599712Y-79220675D01*
X220582794Y-79211880D01*
X220564166Y-79207828D01*
X220539547Y-79189398D01*
X220537719Y-79188448D01*
X220535912Y-79186677D01*
X220489590Y-79140355D01*
X220489588Y-79140352D01*
X220370717Y-79021481D01*
X220370716Y-79021480D01*
X220283904Y-78971360D01*
X220283904Y-78971359D01*
X220283900Y-78971358D01*
X220233785Y-78942423D01*
X220081057Y-78901499D01*
X219922943Y-78901499D01*
X219915347Y-78901499D01*
X219915331Y-78901500D01*
X219878733Y-78901500D01*
X219811694Y-78881815D01*
X219765939Y-78829011D01*
X219761028Y-78816506D01*
X219755210Y-78798950D01*
X219749814Y-78782666D01*
X219657712Y-78633344D01*
X219533656Y-78509288D01*
X219406570Y-78430901D01*
X219384336Y-78417187D01*
X219384331Y-78417185D01*
X219374719Y-78414000D01*
X219217797Y-78362001D01*
X219217795Y-78362000D01*
X219115010Y-78351500D01*
X217764998Y-78351500D01*
X217764981Y-78351501D01*
X217662203Y-78362000D01*
X217662200Y-78362001D01*
X217513504Y-78411275D01*
X217443676Y-78413677D01*
X217383634Y-78377945D01*
X217352441Y-78315425D01*
X217350500Y-78293569D01*
X217350500Y-77610430D01*
X217370185Y-77543391D01*
X217422989Y-77497636D01*
X217492147Y-77487692D01*
X217513494Y-77492721D01*
X217662203Y-77541999D01*
X217764991Y-77552500D01*
X219115008Y-77552499D01*
X219217797Y-77541999D01*
X219384334Y-77486814D01*
X219533656Y-77394712D01*
X219657712Y-77270656D01*
X219749814Y-77121334D01*
X219804999Y-76954797D01*
X219815500Y-76852009D01*
X219815499Y-75951992D01*
X219810431Y-75902383D01*
X219804999Y-75849203D01*
X219804998Y-75849200D01*
X219765502Y-75730010D01*
X219763100Y-75660182D01*
X219798832Y-75600140D01*
X219861352Y-75568947D01*
X219917804Y-75571930D01*
X219951265Y-75581651D01*
X219951268Y-75581652D01*
X219953755Y-75581847D01*
X219953757Y-75581847D01*
X219953757Y-74597052D01*
X219403757Y-74597052D01*
X219403757Y-75000201D01*
X219406656Y-75037041D01*
X219433293Y-75128727D01*
X219433275Y-75134795D01*
X219436040Y-75140195D01*
X219433176Y-75169319D01*
X219433093Y-75198597D01*
X219429797Y-75203692D01*
X219429204Y-75209730D01*
X219411045Y-75232688D01*
X219395150Y-75257266D01*
X219389624Y-75259770D01*
X219385860Y-75264530D01*
X219358166Y-75274027D01*
X219331511Y-75286109D01*
X219324040Y-75285731D01*
X219319769Y-75287197D01*
X219300667Y-75284551D01*
X219284644Y-75283743D01*
X219279877Y-75282572D01*
X219217797Y-75262001D01*
X219180653Y-75258206D01*
X219172263Y-75256146D01*
X219149217Y-75242754D01*
X219124539Y-75232684D01*
X219119474Y-75225470D01*
X219111853Y-75221042D01*
X219099706Y-75197317D01*
X219084389Y-75175503D01*
X219084027Y-75166695D01*
X219080011Y-75158850D01*
X219082618Y-75132323D01*
X219081527Y-75105691D01*
X219082759Y-75101128D01*
X219101355Y-75037121D01*
X219104257Y-75000246D01*
X219104257Y-73834052D01*
X219106807Y-73825366D01*
X219105519Y-73816405D01*
X219116497Y-73792364D01*
X219123942Y-73767013D01*
X219130782Y-73761085D01*
X219134544Y-73752849D01*
X219156778Y-73738559D01*
X219176746Y-73721258D01*
X219187260Y-73718970D01*
X219193322Y-73715075D01*
X219228257Y-73710052D01*
X219279757Y-73710052D01*
X219346796Y-73729737D01*
X219392551Y-73782541D01*
X219403757Y-73834052D01*
X219403757Y-74097052D01*
X219953757Y-74097052D01*
X219953757Y-73441366D01*
X219971024Y-73378246D01*
X220005501Y-73319950D01*
X220051355Y-73162121D01*
X220054257Y-73125246D01*
X220054257Y-71818858D01*
X220051355Y-71781983D01*
X220051259Y-71781654D01*
X220005502Y-71624158D01*
X220005501Y-71624155D01*
X220005501Y-71624154D01*
X219921838Y-71482687D01*
X219921836Y-71482685D01*
X219921833Y-71482681D01*
X219890576Y-71451424D01*
X219875872Y-71424496D01*
X219859280Y-71398678D01*
X219858388Y-71392477D01*
X219857091Y-71390101D01*
X219854257Y-71363743D01*
X219854257Y-71293339D01*
X219873942Y-71226300D01*
X219890572Y-71205662D01*
X220134416Y-70961817D01*
X220195739Y-70928333D01*
X220222097Y-70925499D01*
X221147002Y-70925499D01*
X221147008Y-70925499D01*
X221249797Y-70914999D01*
X221416334Y-70859814D01*
X221565656Y-70767712D01*
X221654319Y-70679049D01*
X221715642Y-70645564D01*
X221785334Y-70650548D01*
X221829681Y-70679049D01*
X221918344Y-70767712D01*
X222067666Y-70859814D01*
X222124260Y-70878567D01*
X222181706Y-70918339D01*
X222208529Y-70982855D01*
X222209257Y-70996273D01*
X222209257Y-71363743D01*
X222189572Y-71430782D01*
X222172938Y-71451424D01*
X222141680Y-71482681D01*
X222141674Y-71482689D01*
X222058012Y-71624155D01*
X222058011Y-71624158D01*
X222012159Y-71781978D01*
X222012158Y-71781984D01*
X222009257Y-71818850D01*
X222009257Y-72985052D01*
X221989572Y-73052091D01*
X221936768Y-73097846D01*
X221885257Y-73109052D01*
X221644055Y-73109052D01*
X221607189Y-73111953D01*
X221607183Y-73111954D01*
X221449363Y-73157806D01*
X221449360Y-73157807D01*
X221307894Y-73241469D01*
X221307886Y-73241475D01*
X221191680Y-73357681D01*
X221191676Y-73357687D01*
X221138198Y-73448113D01*
X221087128Y-73495796D01*
X221018387Y-73508299D01*
X220953797Y-73481653D01*
X220924734Y-73448112D01*
X220871441Y-73357998D01*
X220871435Y-73357990D01*
X220755318Y-73241873D01*
X220755309Y-73241866D01*
X220613953Y-73158269D01*
X220613950Y-73158268D01*
X220456251Y-73112452D01*
X220456254Y-73112452D01*
X220453757Y-73112255D01*
X220453757Y-75581847D01*
X220453758Y-75581847D01*
X220456243Y-75581652D01*
X220613953Y-75535834D01*
X220688300Y-75491865D01*
X220756024Y-75474682D01*
X220822287Y-75496841D01*
X220866050Y-75551307D01*
X220873420Y-75620787D01*
X220856962Y-75663692D01*
X220813188Y-75734661D01*
X220813185Y-75734668D01*
X220808780Y-75747962D01*
X220758001Y-75901203D01*
X220758001Y-75901204D01*
X220758000Y-75901204D01*
X220747500Y-76003983D01*
X220747500Y-76904001D01*
X220747501Y-76904019D01*
X220758000Y-77006796D01*
X220758001Y-77006799D01*
X220813185Y-77173331D01*
X220813186Y-77173334D01*
X220905288Y-77322656D01*
X221029344Y-77446712D01*
X221178666Y-77538814D01*
X221345203Y-77593999D01*
X221447991Y-77604500D01*
X222798008Y-77604499D01*
X222900797Y-77593999D01*
X223067334Y-77538814D01*
X223216656Y-77446712D01*
X223340712Y-77322656D01*
X223432814Y-77173334D01*
X223487999Y-77006797D01*
X223498500Y-76904009D01*
X223498499Y-76003992D01*
X223487999Y-75901203D01*
X223437218Y-75747959D01*
X223434817Y-75678133D01*
X223470549Y-75618091D01*
X223470754Y-75617901D01*
X223509757Y-75581847D01*
X223509757Y-74597052D01*
X222959757Y-74597052D01*
X222935182Y-74621627D01*
X222873859Y-74655112D01*
X222804167Y-74650128D01*
X222748234Y-74608256D01*
X222728038Y-74567182D01*
X222723501Y-74550874D01*
X222723501Y-74531238D01*
X222682577Y-74378510D01*
X222669008Y-74355009D01*
X222664794Y-74339860D01*
X222665014Y-74324379D01*
X222660257Y-74306624D01*
X222660257Y-73834052D01*
X222679942Y-73767013D01*
X222732746Y-73721258D01*
X222784257Y-73710052D01*
X222835757Y-73710052D01*
X222902796Y-73729737D01*
X222948551Y-73782541D01*
X222959757Y-73834052D01*
X222959757Y-74097052D01*
X223509757Y-74097052D01*
X223509757Y-73441366D01*
X223527024Y-73378246D01*
X223561501Y-73319950D01*
X223607355Y-73162121D01*
X223610257Y-73125246D01*
X223610257Y-71818858D01*
X223607355Y-71781983D01*
X223607259Y-71781654D01*
X223561502Y-71624158D01*
X223561501Y-71624155D01*
X223561501Y-71624154D01*
X223477838Y-71482687D01*
X223477836Y-71482685D01*
X223477833Y-71482681D01*
X223446576Y-71451424D01*
X223413091Y-71390101D01*
X223410257Y-71363743D01*
X223410257Y-71049499D01*
X223429942Y-70982460D01*
X223482746Y-70936705D01*
X223534257Y-70925499D01*
X223687002Y-70925499D01*
X223687008Y-70925499D01*
X223789797Y-70914999D01*
X223956334Y-70859814D01*
X224105656Y-70767712D01*
X224194319Y-70679049D01*
X224255642Y-70645564D01*
X224325334Y-70650548D01*
G37*
G04 #@! TD.AperFunction*
G04 #@! TA.AperFunction,Conductor*
G36*
X226955702Y-62703383D02*
G01*
X226962180Y-62709415D01*
X227860181Y-63607416D01*
X227893666Y-63668739D01*
X227896500Y-63695097D01*
X227896500Y-73043299D01*
X227876815Y-73110338D01*
X227824011Y-73156093D01*
X227754853Y-73166037D01*
X227733571Y-73160018D01*
X227733447Y-73160446D01*
X227568251Y-73112452D01*
X227568254Y-73112452D01*
X227565757Y-73112255D01*
X227565757Y-74223052D01*
X227546072Y-74290091D01*
X227493268Y-74335846D01*
X227441757Y-74347052D01*
X227315757Y-74347052D01*
X227315757Y-74473052D01*
X227296072Y-74540091D01*
X227243268Y-74585846D01*
X227191757Y-74597052D01*
X226566355Y-74597052D01*
X226536918Y-74588408D01*
X226506929Y-74581885D01*
X226501912Y-74578129D01*
X226499316Y-74577367D01*
X226478675Y-74560734D01*
X226458032Y-74540091D01*
X226428716Y-74510775D01*
X226428713Y-74510773D01*
X226252576Y-74334636D01*
X226219091Y-74273313D01*
X226216257Y-74246955D01*
X226216257Y-73834052D01*
X226235942Y-73767013D01*
X226288746Y-73721258D01*
X226340257Y-73710052D01*
X226391757Y-73710052D01*
X226458796Y-73729737D01*
X226504551Y-73782541D01*
X226515757Y-73834052D01*
X226515757Y-74097052D01*
X227065757Y-74097052D01*
X227065757Y-73441366D01*
X227083024Y-73378246D01*
X227117501Y-73319950D01*
X227163355Y-73162121D01*
X227166257Y-73125246D01*
X227166257Y-71818858D01*
X227163355Y-71781983D01*
X227163259Y-71781654D01*
X227117502Y-71624158D01*
X227117501Y-71624155D01*
X227117501Y-71624154D01*
X227033838Y-71482687D01*
X227033836Y-71482685D01*
X227033833Y-71482681D01*
X227002576Y-71451424D01*
X226969091Y-71390101D01*
X226966257Y-71363743D01*
X226966257Y-70509702D01*
X226966256Y-70509698D01*
X226962139Y-70494334D01*
X226942785Y-70422100D01*
X226934919Y-70392741D01*
X226934919Y-70392740D01*
X226923231Y-70349122D01*
X226925961Y-70348390D01*
X226919438Y-70303920D01*
X226920033Y-70298101D01*
X226927500Y-70225009D01*
X226927499Y-69324992D01*
X226916999Y-69222203D01*
X226861814Y-69055666D01*
X226769712Y-68906344D01*
X226645656Y-68782288D01*
X226496334Y-68690186D01*
X226329797Y-68635001D01*
X226329795Y-68635000D01*
X226227010Y-68624500D01*
X224876998Y-68624500D01*
X224876981Y-68624501D01*
X224774203Y-68635000D01*
X224774200Y-68635001D01*
X224607668Y-68690185D01*
X224607663Y-68690187D01*
X224458342Y-68782289D01*
X224369681Y-68870951D01*
X224308358Y-68904436D01*
X224238666Y-68899452D01*
X224194319Y-68870951D01*
X224105657Y-68782289D01*
X224105656Y-68782288D01*
X223956334Y-68690186D01*
X223789797Y-68635001D01*
X223789795Y-68635000D01*
X223687010Y-68624500D01*
X222336998Y-68624500D01*
X222336981Y-68624501D01*
X222234203Y-68635000D01*
X222234200Y-68635001D01*
X222067668Y-68690185D01*
X222067663Y-68690187D01*
X221918342Y-68782289D01*
X221829681Y-68870951D01*
X221768358Y-68904436D01*
X221698666Y-68899452D01*
X221654319Y-68870951D01*
X221565657Y-68782289D01*
X221565656Y-68782288D01*
X221416334Y-68690186D01*
X221249797Y-68635001D01*
X221249795Y-68635000D01*
X221147010Y-68624500D01*
X219796998Y-68624500D01*
X219796981Y-68624501D01*
X219694203Y-68635000D01*
X219694200Y-68635001D01*
X219527668Y-68690185D01*
X219527663Y-68690187D01*
X219378342Y-68782289D01*
X219254289Y-68906342D01*
X219162187Y-69055663D01*
X219162186Y-69055666D01*
X219107001Y-69222203D01*
X219107001Y-69222204D01*
X219107000Y-69222204D01*
X219096500Y-69324983D01*
X219096500Y-70225000D01*
X219096501Y-70225011D01*
X219097581Y-70235583D01*
X219084808Y-70304275D01*
X219061903Y-70335860D01*
X218885043Y-70512721D01*
X218773238Y-70624525D01*
X218773232Y-70624533D01*
X218740484Y-70681256D01*
X218740483Y-70681258D01*
X218711886Y-70730788D01*
X218661319Y-70779003D01*
X218592711Y-70792225D01*
X218527847Y-70766257D01*
X218487319Y-70709342D01*
X218480500Y-70668787D01*
X218480500Y-63672596D01*
X218500185Y-63605557D01*
X218531614Y-63572278D01*
X218535403Y-63569524D01*
X218535405Y-63569524D01*
X218694646Y-63453828D01*
X218833828Y-63314646D01*
X218949524Y-63155405D01*
X219038884Y-62980025D01*
X219039515Y-62978787D01*
X219087489Y-62927990D01*
X219155310Y-62911195D01*
X219221445Y-62933732D01*
X219260485Y-62978787D01*
X219350474Y-63155403D01*
X219354817Y-63161380D01*
X219466172Y-63314646D01*
X219605354Y-63453828D01*
X219695251Y-63519142D01*
X219764590Y-63569521D01*
X219764591Y-63569521D01*
X219764595Y-63569524D01*
X219803795Y-63589497D01*
X219854590Y-63637469D01*
X219871500Y-63699981D01*
X219871500Y-65404911D01*
X219851815Y-65471950D01*
X219799011Y-65517705D01*
X219760102Y-65528269D01*
X219694202Y-65535001D01*
X219694200Y-65535001D01*
X219527668Y-65590185D01*
X219527663Y-65590187D01*
X219378342Y-65682289D01*
X219254289Y-65806342D01*
X219162187Y-65955663D01*
X219162186Y-65955666D01*
X219107001Y-66122203D01*
X219107001Y-66122204D01*
X219107000Y-66122204D01*
X219096500Y-66224983D01*
X219096500Y-67125001D01*
X219096501Y-67125019D01*
X219107000Y-67227796D01*
X219107001Y-67227799D01*
X219162185Y-67394331D01*
X219162186Y-67394334D01*
X219254288Y-67543656D01*
X219378344Y-67667712D01*
X219527666Y-67759814D01*
X219694203Y-67814999D01*
X219796991Y-67825500D01*
X221147008Y-67825499D01*
X221249797Y-67814999D01*
X221416334Y-67759814D01*
X221565656Y-67667712D01*
X221654319Y-67579049D01*
X221715642Y-67545564D01*
X221785334Y-67550548D01*
X221829681Y-67579049D01*
X221918344Y-67667712D01*
X222067666Y-67759814D01*
X222234203Y-67814999D01*
X222336991Y-67825500D01*
X223687008Y-67825499D01*
X223789797Y-67814999D01*
X223956334Y-67759814D01*
X224105656Y-67667712D01*
X224194319Y-67579049D01*
X224255642Y-67545564D01*
X224325334Y-67550548D01*
X224369681Y-67579049D01*
X224458344Y-67667712D01*
X224607666Y-67759814D01*
X224774203Y-67814999D01*
X224876991Y-67825500D01*
X226227008Y-67825499D01*
X226329797Y-67814999D01*
X226496334Y-67759814D01*
X226645656Y-67667712D01*
X226769712Y-67543656D01*
X226861814Y-67394334D01*
X226916999Y-67227797D01*
X226927500Y-67125009D01*
X226927499Y-66224992D01*
X226916999Y-66122203D01*
X226861814Y-65955666D01*
X226769712Y-65806344D01*
X226645656Y-65682288D01*
X226496334Y-65590186D01*
X226329797Y-65535001D01*
X226329794Y-65535000D01*
X226263897Y-65528268D01*
X226199205Y-65501871D01*
X226159054Y-65444690D01*
X226152500Y-65404910D01*
X226152500Y-63874499D01*
X226172185Y-63807460D01*
X226224989Y-63761705D01*
X226276500Y-63750499D01*
X226297871Y-63750499D01*
X226297872Y-63750499D01*
X226357483Y-63744091D01*
X226492331Y-63693796D01*
X226607546Y-63607546D01*
X226693796Y-63492331D01*
X226744091Y-63357483D01*
X226750500Y-63297873D01*
X226750499Y-62797094D01*
X226770183Y-62730057D01*
X226822987Y-62684302D01*
X226892146Y-62674358D01*
X226955702Y-62703383D01*
G37*
G04 #@! TD.AperFunction*
G04 #@! TA.AperFunction,Conductor*
G36*
X209085334Y-53632548D02*
G01*
X209129681Y-53661049D01*
X209218344Y-53749712D01*
X209367666Y-53841814D01*
X209534203Y-53896999D01*
X209636991Y-53907500D01*
X210561901Y-53907499D01*
X210628940Y-53927183D01*
X210649582Y-53943818D01*
X210955477Y-54249713D01*
X210988962Y-54311036D01*
X210986873Y-54371988D01*
X210963760Y-54451544D01*
X210963759Y-54451550D01*
X210960858Y-54488412D01*
X210960858Y-55654614D01*
X210941173Y-55721653D01*
X210888369Y-55767408D01*
X210836858Y-55778614D01*
X210595656Y-55778614D01*
X210558790Y-55781515D01*
X210558784Y-55781516D01*
X210400964Y-55827368D01*
X210400961Y-55827369D01*
X210259495Y-55911031D01*
X210259487Y-55911037D01*
X210143281Y-56027243D01*
X210143277Y-56027249D01*
X210089799Y-56117675D01*
X210038729Y-56165358D01*
X209969988Y-56177861D01*
X209905398Y-56151215D01*
X209876335Y-56117674D01*
X209823042Y-56027560D01*
X209823036Y-56027552D01*
X209706919Y-55911435D01*
X209706910Y-55911428D01*
X209565554Y-55827831D01*
X209565551Y-55827830D01*
X209407852Y-55782014D01*
X209407855Y-55782014D01*
X209405358Y-55781817D01*
X209405358Y-56892614D01*
X209385673Y-56959653D01*
X209332869Y-57005408D01*
X209281358Y-57016614D01*
X209155358Y-57016614D01*
X209155358Y-57142614D01*
X209135673Y-57209653D01*
X209082869Y-57255408D01*
X209031358Y-57266614D01*
X208355358Y-57266614D01*
X208355358Y-57669763D01*
X208358257Y-57706603D01*
X208358258Y-57706609D01*
X208404074Y-57864307D01*
X208404075Y-57864310D01*
X208487672Y-58005666D01*
X208487679Y-58005675D01*
X208510502Y-58028498D01*
X208543987Y-58089821D01*
X208539003Y-58159513D01*
X208510502Y-58203860D01*
X207826582Y-58887781D01*
X207765259Y-58921266D01*
X207738902Y-58924100D01*
X207652799Y-58924100D01*
X207652780Y-58924101D01*
X207550003Y-58934600D01*
X207550000Y-58934601D01*
X207383468Y-58989785D01*
X207383463Y-58989787D01*
X207234142Y-59081889D01*
X207110089Y-59205942D01*
X207017987Y-59355263D01*
X207017986Y-59355266D01*
X206962801Y-59521803D01*
X206962801Y-59521804D01*
X206962800Y-59521804D01*
X206952300Y-59624583D01*
X206952300Y-60974601D01*
X206952301Y-60974618D01*
X206962800Y-61077396D01*
X206962801Y-61077400D01*
X206983055Y-61138521D01*
X206985457Y-61208350D01*
X206949725Y-61268392D01*
X206887204Y-61299584D01*
X206817745Y-61292023D01*
X206763399Y-61248110D01*
X206757965Y-61239530D01*
X206753626Y-61232014D01*
X206720480Y-61174603D01*
X206711524Y-61159090D01*
X206711521Y-61159086D01*
X206711520Y-61159084D01*
X206599716Y-61047280D01*
X206599715Y-61047279D01*
X206595385Y-61042949D01*
X206595374Y-61042939D01*
X206189618Y-60637183D01*
X206156133Y-60575860D01*
X206153299Y-60549502D01*
X206153299Y-59624598D01*
X206153298Y-59624581D01*
X206142799Y-59521803D01*
X206142798Y-59521800D01*
X206111671Y-59427866D01*
X206087614Y-59355266D01*
X206040292Y-59278544D01*
X206016368Y-59239756D01*
X205997928Y-59172364D01*
X206018851Y-59105700D01*
X206034221Y-59086984D01*
X206847649Y-58273556D01*
X206908970Y-58240073D01*
X206969920Y-58242162D01*
X207002789Y-58251712D01*
X207039664Y-58254614D01*
X207039672Y-58254614D01*
X207471044Y-58254614D01*
X207471052Y-58254614D01*
X207507927Y-58251712D01*
X207507929Y-58251711D01*
X207507931Y-58251711D01*
X207594486Y-58226564D01*
X207665756Y-58205858D01*
X207807223Y-58122195D01*
X207923439Y-58005979D01*
X208007102Y-57864512D01*
X208052956Y-57706683D01*
X208055858Y-57669808D01*
X208055858Y-56503614D01*
X208058408Y-56494928D01*
X208057120Y-56485967D01*
X208068098Y-56461926D01*
X208075543Y-56436575D01*
X208082383Y-56430647D01*
X208086145Y-56422411D01*
X208108379Y-56408121D01*
X208128347Y-56390820D01*
X208138861Y-56388532D01*
X208144923Y-56384637D01*
X208179858Y-56379614D01*
X208231358Y-56379614D01*
X208298397Y-56399299D01*
X208344152Y-56452103D01*
X208355358Y-56503614D01*
X208355358Y-56766614D01*
X208905358Y-56766614D01*
X208905358Y-56110928D01*
X208922625Y-56047808D01*
X208957102Y-55989512D01*
X209002956Y-55831683D01*
X209005858Y-55794808D01*
X209005858Y-54488420D01*
X209002956Y-54451545D01*
X208957102Y-54293716D01*
X208873439Y-54152249D01*
X208873437Y-54152247D01*
X208873434Y-54152243D01*
X208842177Y-54120986D01*
X208827473Y-54094058D01*
X208810881Y-54068240D01*
X208809989Y-54062039D01*
X208808692Y-54059663D01*
X208805858Y-54033305D01*
X208805858Y-53855802D01*
X208825543Y-53788763D01*
X208860324Y-53754621D01*
X208859987Y-53754195D01*
X208863958Y-53751054D01*
X208864768Y-53750259D01*
X208865656Y-53749712D01*
X208954319Y-53661049D01*
X209015642Y-53627564D01*
X209085334Y-53632548D01*
G37*
G04 #@! TD.AperFunction*
G04 #@! TA.AperFunction,Conductor*
G36*
X218171909Y-53913737D02*
G01*
X218193998Y-53915317D01*
X218204781Y-53923389D01*
X218217703Y-53927184D01*
X218232202Y-53943917D01*
X218249931Y-53957189D01*
X218254638Y-53969809D01*
X218263458Y-53979988D01*
X218266609Y-54001905D01*
X218274348Y-54022653D01*
X218271485Y-54035813D01*
X218273402Y-54049146D01*
X218264202Y-54069289D01*
X218259496Y-54090926D01*
X218246227Y-54108651D01*
X218244377Y-54112702D01*
X218238345Y-54119180D01*
X218205281Y-54152243D01*
X218205275Y-54152251D01*
X218121613Y-54293717D01*
X218121612Y-54293720D01*
X218075760Y-54451540D01*
X218075759Y-54451546D01*
X218072858Y-54488412D01*
X218072858Y-55654614D01*
X218053173Y-55721653D01*
X218000369Y-55767408D01*
X217948858Y-55778614D01*
X217707656Y-55778614D01*
X217670790Y-55781515D01*
X217670784Y-55781516D01*
X217512964Y-55827368D01*
X217512961Y-55827369D01*
X217371495Y-55911031D01*
X217371487Y-55911037D01*
X217255281Y-56027243D01*
X217255277Y-56027249D01*
X217201799Y-56117675D01*
X217150729Y-56165358D01*
X217081988Y-56177861D01*
X217017398Y-56151215D01*
X216988335Y-56117674D01*
X216935042Y-56027560D01*
X216935036Y-56027552D01*
X216818919Y-55911435D01*
X216818910Y-55911428D01*
X216677554Y-55827831D01*
X216677551Y-55827830D01*
X216519852Y-55782014D01*
X216519855Y-55782014D01*
X216517358Y-55781817D01*
X216517358Y-58251409D01*
X216517359Y-58251409D01*
X216519844Y-58251214D01*
X216677556Y-58205395D01*
X216818910Y-58121799D01*
X216818919Y-58121792D01*
X216935036Y-58005675D01*
X216935040Y-58005669D01*
X216988334Y-57915554D01*
X216988388Y-57915502D01*
X216988407Y-57915432D01*
X217013793Y-57891782D01*
X217039403Y-57867870D01*
X217039475Y-57867856D01*
X217039530Y-57867806D01*
X217074014Y-57861574D01*
X217108145Y-57855366D01*
X217108213Y-57855394D01*
X217108286Y-57855381D01*
X217140927Y-57868889D01*
X217172734Y-57882011D01*
X217172797Y-57882079D01*
X217172845Y-57882099D01*
X217173217Y-57882529D01*
X217196902Y-57907924D01*
X217199494Y-57911655D01*
X217255277Y-58005979D01*
X217287214Y-58037916D01*
X217293537Y-58047017D01*
X217301220Y-58070077D01*
X217312868Y-58091409D01*
X217312065Y-58102629D01*
X217315622Y-58113304D01*
X217309617Y-58136856D01*
X217307884Y-58161101D01*
X217300513Y-58172569D01*
X217298362Y-58181009D01*
X217290207Y-58188605D01*
X217279384Y-58205447D01*
X217244089Y-58240742D01*
X217151987Y-58390063D01*
X217151986Y-58390066D01*
X217096801Y-58556603D01*
X217096801Y-58556604D01*
X217096800Y-58556604D01*
X217086300Y-58659383D01*
X217086300Y-60009401D01*
X217086301Y-60009408D01*
X217096800Y-60112196D01*
X217096802Y-60112203D01*
X217097245Y-60113539D01*
X217097274Y-60114411D01*
X217098219Y-60118822D01*
X217097432Y-60118990D01*
X217099646Y-60183367D01*
X217063914Y-60243409D01*
X217001394Y-60274601D01*
X216931934Y-60267040D01*
X216891858Y-60240223D01*
X216323618Y-59671983D01*
X216290133Y-59610660D01*
X216287299Y-59584302D01*
X216287299Y-58659390D01*
X216287298Y-58659381D01*
X216276799Y-58556603D01*
X216276798Y-58556600D01*
X216275537Y-58552796D01*
X216221614Y-58390066D01*
X216129512Y-58240744D01*
X216053677Y-58164909D01*
X216020192Y-58103586D01*
X216017358Y-58077228D01*
X216017358Y-57266614D01*
X215467358Y-57266614D01*
X215467358Y-57669763D01*
X215470257Y-57706603D01*
X215470258Y-57706609D01*
X215497480Y-57800305D01*
X215497405Y-57826558D01*
X215501142Y-57852547D01*
X215497307Y-57860943D01*
X215497281Y-57870174D01*
X215483024Y-57892219D01*
X215472117Y-57916103D01*
X215464351Y-57921093D01*
X215459339Y-57928844D01*
X215435426Y-57939682D01*
X215413339Y-57953877D01*
X215399820Y-57955820D01*
X215395701Y-57957688D01*
X215378404Y-57958900D01*
X215256833Y-57958900D01*
X215189794Y-57939215D01*
X215144039Y-57886411D01*
X215134095Y-57817253D01*
X215137756Y-57800305D01*
X215145002Y-57775364D01*
X215164956Y-57706683D01*
X215167858Y-57669808D01*
X215167858Y-56503614D01*
X215170408Y-56494928D01*
X215169120Y-56485967D01*
X215180098Y-56461926D01*
X215187543Y-56436575D01*
X215194383Y-56430647D01*
X215198145Y-56422411D01*
X215220379Y-56408121D01*
X215240347Y-56390820D01*
X215250861Y-56388532D01*
X215256923Y-56384637D01*
X215291858Y-56379614D01*
X215343358Y-56379614D01*
X215410397Y-56399299D01*
X215456152Y-56452103D01*
X215467358Y-56503614D01*
X215467358Y-56766614D01*
X216017358Y-56766614D01*
X216017358Y-56110928D01*
X216034625Y-56047808D01*
X216069102Y-55989512D01*
X216114956Y-55831683D01*
X216117858Y-55794808D01*
X216117858Y-55241710D01*
X216137543Y-55174671D01*
X216154172Y-55154034D01*
X217364388Y-53943817D01*
X217425711Y-53910333D01*
X217452069Y-53907499D01*
X218150664Y-53907499D01*
X218171909Y-53913737D01*
G37*
G04 #@! TD.AperFunction*
G04 #@! TA.AperFunction,Conductor*
G36*
X206545334Y-53632548D02*
G01*
X206589681Y-53661049D01*
X206678344Y-53749712D01*
X206827666Y-53841814D01*
X206994203Y-53896999D01*
X207096991Y-53907500D01*
X207480858Y-53907499D01*
X207489544Y-53910049D01*
X207498505Y-53908761D01*
X207522541Y-53919738D01*
X207547897Y-53927183D01*
X207553825Y-53934025D01*
X207562061Y-53937786D01*
X207576347Y-53960017D01*
X207593652Y-53979987D01*
X207595939Y-53990502D01*
X207599835Y-53996564D01*
X207604858Y-54031499D01*
X207604858Y-54033305D01*
X207585173Y-54100344D01*
X207568539Y-54120986D01*
X207537281Y-54152243D01*
X207537275Y-54152251D01*
X207453613Y-54293717D01*
X207453612Y-54293720D01*
X207407760Y-54451540D01*
X207407759Y-54451546D01*
X207404858Y-54488412D01*
X207404858Y-55654614D01*
X207385173Y-55721653D01*
X207332369Y-55767408D01*
X207280858Y-55778614D01*
X207039656Y-55778614D01*
X207002790Y-55781515D01*
X207002784Y-55781516D01*
X206844964Y-55827368D01*
X206844961Y-55827369D01*
X206703495Y-55911031D01*
X206703487Y-55911037D01*
X206587281Y-56027243D01*
X206587277Y-56027249D01*
X206533799Y-56117675D01*
X206482729Y-56165358D01*
X206413988Y-56177861D01*
X206349398Y-56151215D01*
X206320335Y-56117674D01*
X206267042Y-56027560D01*
X206267036Y-56027552D01*
X206150919Y-55911435D01*
X206150910Y-55911428D01*
X206009554Y-55827831D01*
X206009551Y-55827830D01*
X205851852Y-55782014D01*
X205851855Y-55782014D01*
X205849358Y-55781817D01*
X205849358Y-56892614D01*
X205829673Y-56959653D01*
X205776869Y-57005408D01*
X205725358Y-57016614D01*
X205599358Y-57016614D01*
X205599358Y-57142614D01*
X205579673Y-57209653D01*
X205526869Y-57255408D01*
X205475358Y-57266614D01*
X204799358Y-57266614D01*
X204799358Y-57669763D01*
X204802257Y-57706603D01*
X204802258Y-57706609D01*
X204848074Y-57864307D01*
X204848075Y-57864310D01*
X204931672Y-58005666D01*
X204931679Y-58005675D01*
X205047796Y-58121792D01*
X205047802Y-58121796D01*
X205069269Y-58134492D01*
X205085903Y-58152307D01*
X205105416Y-58166914D01*
X205109323Y-58177389D01*
X205116953Y-58185561D01*
X205121314Y-58209540D01*
X205129833Y-58232379D01*
X205127456Y-58243304D01*
X205129457Y-58254303D01*
X205120162Y-58276833D01*
X205114981Y-58300652D01*
X205104634Y-58314473D01*
X205102812Y-58318892D01*
X205093831Y-58328906D01*
X204935954Y-58486782D01*
X204874633Y-58520266D01*
X204848275Y-58523100D01*
X203802269Y-58523100D01*
X203802253Y-58523099D01*
X203794657Y-58523099D01*
X203636543Y-58523099D01*
X203529187Y-58551865D01*
X203483810Y-58564024D01*
X203483809Y-58564025D01*
X203433696Y-58592959D01*
X203433695Y-58592960D01*
X203401737Y-58611411D01*
X203346885Y-58643079D01*
X203346882Y-58643081D01*
X203235078Y-58754886D01*
X203029582Y-58960381D01*
X202968259Y-58993866D01*
X202941901Y-58996700D01*
X202016998Y-58996700D01*
X202016980Y-58996701D01*
X201914203Y-59007200D01*
X201914200Y-59007201D01*
X201747668Y-59062385D01*
X201747659Y-59062389D01*
X201677677Y-59105555D01*
X201610285Y-59123995D01*
X201543621Y-59103072D01*
X201498852Y-59049430D01*
X201490191Y-58980099D01*
X201520388Y-58917092D01*
X201524900Y-58912335D01*
X201950454Y-58486781D01*
X202714958Y-57722277D01*
X202776279Y-57688794D01*
X202845971Y-57693778D01*
X202901904Y-57735650D01*
X202921713Y-57775364D01*
X202947612Y-57864509D01*
X202947613Y-57864510D01*
X202947614Y-57864512D01*
X202957963Y-57882011D01*
X203031275Y-58005976D01*
X203031281Y-58005984D01*
X203147487Y-58122190D01*
X203147491Y-58122193D01*
X203147493Y-58122195D01*
X203288960Y-58205858D01*
X203330582Y-58217950D01*
X203446784Y-58251711D01*
X203446787Y-58251711D01*
X203446789Y-58251712D01*
X203483664Y-58254614D01*
X203483672Y-58254614D01*
X203915044Y-58254614D01*
X203915052Y-58254614D01*
X203951927Y-58251712D01*
X203951929Y-58251711D01*
X203951931Y-58251711D01*
X204038486Y-58226564D01*
X204109756Y-58205858D01*
X204251223Y-58122195D01*
X204367439Y-58005979D01*
X204451102Y-57864512D01*
X204496956Y-57706683D01*
X204499858Y-57669808D01*
X204499858Y-56503614D01*
X204502408Y-56494928D01*
X204501120Y-56485967D01*
X204512098Y-56461926D01*
X204519543Y-56436575D01*
X204526383Y-56430647D01*
X204530145Y-56422411D01*
X204552379Y-56408121D01*
X204572347Y-56390820D01*
X204582861Y-56388532D01*
X204588923Y-56384637D01*
X204623858Y-56379614D01*
X204675358Y-56379614D01*
X204742397Y-56399299D01*
X204788152Y-56452103D01*
X204799358Y-56503614D01*
X204799358Y-56766614D01*
X205349358Y-56766614D01*
X205349358Y-56110928D01*
X205366625Y-56047808D01*
X205401102Y-55989512D01*
X205446956Y-55831683D01*
X205449858Y-55794808D01*
X205449858Y-54488420D01*
X205446956Y-54451545D01*
X205401102Y-54293716D01*
X205317439Y-54152249D01*
X205317437Y-54152247D01*
X205317434Y-54152243D01*
X205286177Y-54120986D01*
X205271473Y-54094058D01*
X205254881Y-54068240D01*
X205253989Y-54062039D01*
X205252692Y-54059663D01*
X205249858Y-54033305D01*
X205249858Y-54031499D01*
X205269543Y-53964460D01*
X205322347Y-53918705D01*
X205373858Y-53907499D01*
X205907002Y-53907499D01*
X205907008Y-53907499D01*
X206009797Y-53896999D01*
X206176334Y-53841814D01*
X206325656Y-53749712D01*
X206414319Y-53661049D01*
X206475642Y-53627564D01*
X206545334Y-53632548D01*
G37*
G04 #@! TD.AperFunction*
G04 #@! TA.AperFunction,Conductor*
G36*
X221748192Y-53669690D02*
G01*
X221804125Y-53711562D01*
X221828542Y-53777026D01*
X221828858Y-53785872D01*
X221828858Y-54033305D01*
X221809173Y-54100344D01*
X221792539Y-54120986D01*
X221761281Y-54152243D01*
X221761275Y-54152251D01*
X221677613Y-54293717D01*
X221677612Y-54293720D01*
X221631760Y-54451540D01*
X221631759Y-54451546D01*
X221628858Y-54488412D01*
X221628858Y-55654614D01*
X221609173Y-55721653D01*
X221556369Y-55767408D01*
X221504858Y-55778614D01*
X221263656Y-55778614D01*
X221226790Y-55781515D01*
X221226784Y-55781516D01*
X221068964Y-55827368D01*
X221068961Y-55827369D01*
X220927495Y-55911031D01*
X220927487Y-55911037D01*
X220811281Y-56027243D01*
X220811277Y-56027249D01*
X220757799Y-56117675D01*
X220706729Y-56165358D01*
X220637988Y-56177861D01*
X220573398Y-56151215D01*
X220544335Y-56117674D01*
X220491042Y-56027560D01*
X220491036Y-56027552D01*
X220374919Y-55911435D01*
X220374910Y-55911428D01*
X220233554Y-55827831D01*
X220233551Y-55827830D01*
X220075852Y-55782014D01*
X220075855Y-55782014D01*
X220073358Y-55781817D01*
X220073358Y-56892614D01*
X220053673Y-56959653D01*
X220000869Y-57005408D01*
X219949358Y-57016614D01*
X219823358Y-57016614D01*
X219823358Y-57142614D01*
X219803673Y-57209653D01*
X219750869Y-57255408D01*
X219699358Y-57266614D01*
X219016351Y-57266614D01*
X219001219Y-57274876D01*
X218970764Y-57291604D01*
X218970603Y-57291592D01*
X218970462Y-57291670D01*
X218935841Y-57289193D01*
X218901060Y-57286792D01*
X218900930Y-57286695D01*
X218900770Y-57286684D01*
X218872964Y-57265868D01*
X218845023Y-57245059D01*
X218844939Y-57244888D01*
X218844838Y-57244812D01*
X218828032Y-57214124D01*
X218825900Y-57208451D01*
X218796377Y-57098271D01*
X218767439Y-57048151D01*
X218749232Y-57016614D01*
X218740470Y-57001437D01*
X218723858Y-56939439D01*
X218723858Y-56503614D01*
X218743543Y-56436575D01*
X218796347Y-56390820D01*
X218847858Y-56379614D01*
X218899358Y-56379614D01*
X218966397Y-56399299D01*
X219012152Y-56452103D01*
X219023358Y-56503614D01*
X219023358Y-56766614D01*
X219573358Y-56766614D01*
X219573358Y-56110928D01*
X219590625Y-56047808D01*
X219625102Y-55989512D01*
X219670956Y-55831683D01*
X219673858Y-55794808D01*
X219673858Y-55241710D01*
X219693543Y-55174671D01*
X219710172Y-55154033D01*
X220840713Y-54023493D01*
X220840716Y-54023492D01*
X220920393Y-53943814D01*
X220981715Y-53910332D01*
X220981719Y-53910332D01*
X221008071Y-53907499D01*
X221147002Y-53907499D01*
X221147008Y-53907499D01*
X221249797Y-53896999D01*
X221416334Y-53841814D01*
X221565656Y-53749712D01*
X221617177Y-53698191D01*
X221678500Y-53664706D01*
X221748192Y-53669690D01*
G37*
G04 #@! TD.AperFunction*
G04 #@! TA.AperFunction,Conductor*
G36*
X224325334Y-53632548D02*
G01*
X224369681Y-53661049D01*
X224458344Y-53749712D01*
X224607666Y-53841814D01*
X224774203Y-53896999D01*
X224876991Y-53907500D01*
X225260858Y-53907499D01*
X225269544Y-53910049D01*
X225278505Y-53908761D01*
X225302541Y-53919738D01*
X225327897Y-53927183D01*
X225333825Y-53934025D01*
X225342061Y-53937786D01*
X225356347Y-53960017D01*
X225373652Y-53979987D01*
X225375939Y-53990502D01*
X225379835Y-53996564D01*
X225384858Y-54031499D01*
X225384858Y-54033305D01*
X225365173Y-54100344D01*
X225348539Y-54120986D01*
X225317281Y-54152243D01*
X225317275Y-54152251D01*
X225233613Y-54293717D01*
X225233612Y-54293720D01*
X225187760Y-54451540D01*
X225187759Y-54451546D01*
X225184858Y-54488412D01*
X225184858Y-55654614D01*
X225165173Y-55721653D01*
X225112369Y-55767408D01*
X225060858Y-55778614D01*
X224819656Y-55778614D01*
X224782790Y-55781515D01*
X224782784Y-55781516D01*
X224624964Y-55827368D01*
X224624961Y-55827369D01*
X224483495Y-55911031D01*
X224483487Y-55911037D01*
X224367281Y-56027243D01*
X224367277Y-56027249D01*
X224313799Y-56117675D01*
X224262729Y-56165358D01*
X224193988Y-56177861D01*
X224129398Y-56151215D01*
X224100335Y-56117674D01*
X224047042Y-56027560D01*
X224047036Y-56027552D01*
X223930919Y-55911435D01*
X223930910Y-55911428D01*
X223789554Y-55827831D01*
X223789551Y-55827830D01*
X223631852Y-55782014D01*
X223631855Y-55782014D01*
X223629358Y-55781817D01*
X223629358Y-56892614D01*
X223609673Y-56959653D01*
X223556869Y-57005408D01*
X223505358Y-57016614D01*
X223379358Y-57016614D01*
X223379358Y-57142614D01*
X223359673Y-57209653D01*
X223306869Y-57255408D01*
X223255358Y-57266614D01*
X222629955Y-57266614D01*
X222562916Y-57246929D01*
X222542274Y-57230295D01*
X222316177Y-57004198D01*
X222282692Y-56942875D01*
X222279858Y-56916517D01*
X222279858Y-56503614D01*
X222282408Y-56494928D01*
X222281120Y-56485967D01*
X222292098Y-56461926D01*
X222299543Y-56436575D01*
X222306383Y-56430647D01*
X222310145Y-56422411D01*
X222332379Y-56408121D01*
X222352347Y-56390820D01*
X222362861Y-56388532D01*
X222368923Y-56384637D01*
X222403858Y-56379614D01*
X222455358Y-56379614D01*
X222522397Y-56399299D01*
X222568152Y-56452103D01*
X222579358Y-56503614D01*
X222579358Y-56766614D01*
X223129358Y-56766614D01*
X223129358Y-56110928D01*
X223146625Y-56047808D01*
X223181102Y-55989512D01*
X223226956Y-55831683D01*
X223229858Y-55794808D01*
X223229858Y-54488420D01*
X223226956Y-54451545D01*
X223181102Y-54293716D01*
X223097439Y-54152249D01*
X223097437Y-54152247D01*
X223097434Y-54152243D01*
X223066177Y-54120986D01*
X223051473Y-54094058D01*
X223034881Y-54068240D01*
X223033989Y-54062039D01*
X223032692Y-54059663D01*
X223029858Y-54033305D01*
X223029858Y-54031499D01*
X223049543Y-53964460D01*
X223102347Y-53918705D01*
X223153858Y-53907499D01*
X223687002Y-53907499D01*
X223687008Y-53907499D01*
X223789797Y-53896999D01*
X223956334Y-53841814D01*
X224105656Y-53749712D01*
X224194319Y-53661049D01*
X224255642Y-53627564D01*
X224325334Y-53632548D01*
G37*
G04 #@! TD.AperFunction*
M02*
