G04 #@! TF.GenerationSoftware,KiCad,Pcbnew,9.0.5-9.0.5~ubuntu25.10.1*
G04 #@! TF.CreationDate,2025-11-15T17:48:43+01:00*
G04 #@! TF.ProjectId,control_board,636f6e74-726f-46c5-9f62-6f6172642e6b,rev?*
G04 #@! TF.SameCoordinates,Original*
G04 #@! TF.FileFunction,Legend,Bot*
G04 #@! TF.FilePolarity,Positive*
%FSLAX46Y46*%
G04 Gerber Fmt 4.6, Leading zero omitted, Abs format (unit mm)*
G04 Created by KiCad (PCBNEW 9.0.5-9.0.5~ubuntu25.10.1) date 2025-11-15 17:48:43*
%MOMM*%
%LPD*%
G01*
G04 APERTURE LIST*
%ADD10C,0.150000*%
%ADD11C,0.120000*%
G04 APERTURE END LIST*
D10*
X208008094Y-100994819D02*
X208008094Y-99994819D01*
X207531904Y-100328152D02*
X207531904Y-100994819D01*
X207531904Y-100423390D02*
X207484285Y-100375771D01*
X207484285Y-100375771D02*
X207389047Y-100328152D01*
X207389047Y-100328152D02*
X207246190Y-100328152D01*
X207246190Y-100328152D02*
X207150952Y-100375771D01*
X207150952Y-100375771D02*
X207103333Y-100471009D01*
X207103333Y-100471009D02*
X207103333Y-100994819D01*
X206198571Y-100994819D02*
X206198571Y-99994819D01*
X206198571Y-100947200D02*
X206293809Y-100994819D01*
X206293809Y-100994819D02*
X206484285Y-100994819D01*
X206484285Y-100994819D02*
X206579523Y-100947200D01*
X206579523Y-100947200D02*
X206627142Y-100899580D01*
X206627142Y-100899580D02*
X206674761Y-100804342D01*
X206674761Y-100804342D02*
X206674761Y-100518628D01*
X206674761Y-100518628D02*
X206627142Y-100423390D01*
X206627142Y-100423390D02*
X206579523Y-100375771D01*
X206579523Y-100375771D02*
X206484285Y-100328152D01*
X206484285Y-100328152D02*
X206293809Y-100328152D01*
X206293809Y-100328152D02*
X206198571Y-100375771D01*
X204960475Y-100471009D02*
X204627142Y-100471009D01*
X204484285Y-100994819D02*
X204960475Y-100994819D01*
X204960475Y-100994819D02*
X204960475Y-99994819D01*
X204960475Y-99994819D02*
X204484285Y-99994819D01*
D11*
X203890475Y-107563855D02*
X203890475Y-106763855D01*
X203890475Y-106763855D02*
X203699999Y-106763855D01*
X203699999Y-106763855D02*
X203585713Y-106801950D01*
X203585713Y-106801950D02*
X203509523Y-106878140D01*
X203509523Y-106878140D02*
X203471428Y-106954331D01*
X203471428Y-106954331D02*
X203433332Y-107106712D01*
X203433332Y-107106712D02*
X203433332Y-107220998D01*
X203433332Y-107220998D02*
X203471428Y-107373379D01*
X203471428Y-107373379D02*
X203509523Y-107449569D01*
X203509523Y-107449569D02*
X203585713Y-107525760D01*
X203585713Y-107525760D02*
X203699999Y-107563855D01*
X203699999Y-107563855D02*
X203890475Y-107563855D01*
X202671428Y-107563855D02*
X203128571Y-107563855D01*
X202899999Y-107563855D02*
X202899999Y-106763855D01*
X202899999Y-106763855D02*
X202976190Y-106878140D01*
X202976190Y-106878140D02*
X203052380Y-106954331D01*
X203052380Y-106954331D02*
X203128571Y-106992426D01*
D10*
X210031904Y-83994819D02*
X210031904Y-82994819D01*
X209555714Y-83328152D02*
X209555714Y-83994819D01*
X209555714Y-83423390D02*
X209508095Y-83375771D01*
X209508095Y-83375771D02*
X209412857Y-83328152D01*
X209412857Y-83328152D02*
X209270000Y-83328152D01*
X209270000Y-83328152D02*
X209174762Y-83375771D01*
X209174762Y-83375771D02*
X209127143Y-83471009D01*
X209127143Y-83471009D02*
X209127143Y-83994819D01*
X208222381Y-83994819D02*
X208222381Y-82994819D01*
X208222381Y-83947200D02*
X208317619Y-83994819D01*
X208317619Y-83994819D02*
X208508095Y-83994819D01*
X208508095Y-83994819D02*
X208603333Y-83947200D01*
X208603333Y-83947200D02*
X208650952Y-83899580D01*
X208650952Y-83899580D02*
X208698571Y-83804342D01*
X208698571Y-83804342D02*
X208698571Y-83518628D01*
X208698571Y-83518628D02*
X208650952Y-83423390D01*
X208650952Y-83423390D02*
X208603333Y-83375771D01*
X208603333Y-83375771D02*
X208508095Y-83328152D01*
X208508095Y-83328152D02*
X208317619Y-83328152D01*
X208317619Y-83328152D02*
X208222381Y-83375771D01*
X206984285Y-83471009D02*
X206650952Y-83471009D01*
X206508095Y-83994819D02*
X206984285Y-83994819D01*
X206984285Y-83994819D02*
X206984285Y-82994819D01*
X206984285Y-82994819D02*
X206508095Y-82994819D01*
X205317618Y-83994819D02*
X205317618Y-82994819D01*
X205317618Y-82994819D02*
X204936666Y-82994819D01*
X204936666Y-82994819D02*
X204841428Y-83042438D01*
X204841428Y-83042438D02*
X204793809Y-83090057D01*
X204793809Y-83090057D02*
X204746190Y-83185295D01*
X204746190Y-83185295D02*
X204746190Y-83328152D01*
X204746190Y-83328152D02*
X204793809Y-83423390D01*
X204793809Y-83423390D02*
X204841428Y-83471009D01*
X204841428Y-83471009D02*
X204936666Y-83518628D01*
X204936666Y-83518628D02*
X205317618Y-83518628D01*
X204412856Y-82994819D02*
X204174761Y-83994819D01*
X204174761Y-83994819D02*
X203984285Y-83280533D01*
X203984285Y-83280533D02*
X203793809Y-83994819D01*
X203793809Y-83994819D02*
X203555714Y-82994819D01*
X203174761Y-83994819D02*
X203174761Y-82994819D01*
X203174761Y-82994819D02*
X202841428Y-83709104D01*
X202841428Y-83709104D02*
X202508095Y-82994819D01*
X202508095Y-82994819D02*
X202508095Y-83994819D01*
D11*
X203990475Y-90663855D02*
X203990475Y-89863855D01*
X203990475Y-89863855D02*
X203799999Y-89863855D01*
X203799999Y-89863855D02*
X203685713Y-89901950D01*
X203685713Y-89901950D02*
X203609523Y-89978140D01*
X203609523Y-89978140D02*
X203571428Y-90054331D01*
X203571428Y-90054331D02*
X203533332Y-90206712D01*
X203533332Y-90206712D02*
X203533332Y-90320998D01*
X203533332Y-90320998D02*
X203571428Y-90473379D01*
X203571428Y-90473379D02*
X203609523Y-90549569D01*
X203609523Y-90549569D02*
X203685713Y-90625760D01*
X203685713Y-90625760D02*
X203799999Y-90663855D01*
X203799999Y-90663855D02*
X203990475Y-90663855D01*
X203228571Y-89940045D02*
X203190475Y-89901950D01*
X203190475Y-89901950D02*
X203114285Y-89863855D01*
X203114285Y-89863855D02*
X202923809Y-89863855D01*
X202923809Y-89863855D02*
X202847618Y-89901950D01*
X202847618Y-89901950D02*
X202809523Y-89940045D01*
X202809523Y-89940045D02*
X202771428Y-90016236D01*
X202771428Y-90016236D02*
X202771428Y-90092426D01*
X202771428Y-90092426D02*
X202809523Y-90206712D01*
X202809523Y-90206712D02*
X203266666Y-90663855D01*
X203266666Y-90663855D02*
X202771428Y-90663855D01*
D10*
X201454819Y-53833333D02*
X200454819Y-53833333D01*
X200454819Y-53833333D02*
X200454819Y-54071428D01*
X200454819Y-54071428D02*
X200502438Y-54214285D01*
X200502438Y-54214285D02*
X200597676Y-54309523D01*
X200597676Y-54309523D02*
X200692914Y-54357142D01*
X200692914Y-54357142D02*
X200883390Y-54404761D01*
X200883390Y-54404761D02*
X201026247Y-54404761D01*
X201026247Y-54404761D02*
X201216723Y-54357142D01*
X201216723Y-54357142D02*
X201311961Y-54309523D01*
X201311961Y-54309523D02*
X201407200Y-54214285D01*
X201407200Y-54214285D02*
X201454819Y-54071428D01*
X201454819Y-54071428D02*
X201454819Y-53833333D01*
X201169104Y-54785714D02*
X201169104Y-55261904D01*
X201454819Y-54690476D02*
X200454819Y-55023809D01*
X200454819Y-55023809D02*
X201454819Y-55357142D01*
X200454819Y-56166666D02*
X200454819Y-55690476D01*
X200454819Y-55690476D02*
X200931009Y-55642857D01*
X200931009Y-55642857D02*
X200883390Y-55690476D01*
X200883390Y-55690476D02*
X200835771Y-55785714D01*
X200835771Y-55785714D02*
X200835771Y-56023809D01*
X200835771Y-56023809D02*
X200883390Y-56119047D01*
X200883390Y-56119047D02*
X200931009Y-56166666D01*
X200931009Y-56166666D02*
X201026247Y-56214285D01*
X201026247Y-56214285D02*
X201264342Y-56214285D01*
X201264342Y-56214285D02*
X201359580Y-56166666D01*
X201359580Y-56166666D02*
X201407200Y-56119047D01*
X201407200Y-56119047D02*
X201454819Y-56023809D01*
X201454819Y-56023809D02*
X201454819Y-55785714D01*
X201454819Y-55785714D02*
X201407200Y-55690476D01*
X201407200Y-55690476D02*
X201359580Y-55642857D01*
X200454819Y-57071428D02*
X200454819Y-56880952D01*
X200454819Y-56880952D02*
X200502438Y-56785714D01*
X200502438Y-56785714D02*
X200550057Y-56738095D01*
X200550057Y-56738095D02*
X200692914Y-56642857D01*
X200692914Y-56642857D02*
X200883390Y-56595238D01*
X200883390Y-56595238D02*
X201264342Y-56595238D01*
X201264342Y-56595238D02*
X201359580Y-56642857D01*
X201359580Y-56642857D02*
X201407200Y-56690476D01*
X201407200Y-56690476D02*
X201454819Y-56785714D01*
X201454819Y-56785714D02*
X201454819Y-56976190D01*
X201454819Y-56976190D02*
X201407200Y-57071428D01*
X201407200Y-57071428D02*
X201359580Y-57119047D01*
X201359580Y-57119047D02*
X201264342Y-57166666D01*
X201264342Y-57166666D02*
X201026247Y-57166666D01*
X201026247Y-57166666D02*
X200931009Y-57119047D01*
X200931009Y-57119047D02*
X200883390Y-57071428D01*
X200883390Y-57071428D02*
X200835771Y-56976190D01*
X200835771Y-56976190D02*
X200835771Y-56785714D01*
X200835771Y-56785714D02*
X200883390Y-56690476D01*
X200883390Y-56690476D02*
X200931009Y-56642857D01*
X200931009Y-56642857D02*
X201026247Y-56595238D01*
X201073866Y-57595238D02*
X201073866Y-58357143D01*
X201454819Y-59357142D02*
X201454819Y-58785714D01*
X201454819Y-59071428D02*
X200454819Y-59071428D01*
X200454819Y-59071428D02*
X200597676Y-58976190D01*
X200597676Y-58976190D02*
X200692914Y-58880952D01*
X200692914Y-58880952D02*
X200740533Y-58785714D01*
X201454819Y-60309523D02*
X201454819Y-59738095D01*
X201454819Y-60023809D02*
X200454819Y-60023809D01*
X200454819Y-60023809D02*
X200597676Y-59928571D01*
X200597676Y-59928571D02*
X200692914Y-59833333D01*
X200692914Y-59833333D02*
X200740533Y-59738095D01*
X200931009Y-60738095D02*
X200931009Y-61071428D01*
X201454819Y-61214285D02*
X201454819Y-60738095D01*
X201454819Y-60738095D02*
X200454819Y-60738095D01*
X200454819Y-60738095D02*
X200454819Y-61214285D01*
X200454819Y-61547619D02*
X201454819Y-61785714D01*
X201454819Y-61785714D02*
X200740533Y-61976190D01*
X200740533Y-61976190D02*
X201454819Y-62166666D01*
X201454819Y-62166666D02*
X200454819Y-62404762D01*
X201169104Y-62738095D02*
X201169104Y-63214285D01*
X201454819Y-62642857D02*
X200454819Y-62976190D01*
X200454819Y-62976190D02*
X201454819Y-63309523D01*
X214954819Y-53738095D02*
X215764342Y-53738095D01*
X215764342Y-53738095D02*
X215859580Y-53785714D01*
X215859580Y-53785714D02*
X215907200Y-53833333D01*
X215907200Y-53833333D02*
X215954819Y-53928571D01*
X215954819Y-53928571D02*
X215954819Y-54119047D01*
X215954819Y-54119047D02*
X215907200Y-54214285D01*
X215907200Y-54214285D02*
X215859580Y-54261904D01*
X215859580Y-54261904D02*
X215764342Y-54309523D01*
X215764342Y-54309523D02*
X214954819Y-54309523D01*
X215954819Y-55309523D02*
X215954819Y-54738095D01*
X215954819Y-55023809D02*
X214954819Y-55023809D01*
X214954819Y-55023809D02*
X215097676Y-54928571D01*
X215097676Y-54928571D02*
X215192914Y-54833333D01*
X215192914Y-54833333D02*
X215240533Y-54738095D01*
D11*
X203710000Y-106045000D02*
X203710000Y-102955000D01*
X203710000Y-102955170D02*
G75*
G02*
X209260000Y-104500000I2560000J-1544830D01*
G01*
X209260000Y-104500000D02*
G75*
G02*
X203710000Y-106044830I-2990000J0D01*
G01*
X208770000Y-104500000D02*
G75*
G02*
X203770000Y-104500000I-2500000J0D01*
G01*
X203770000Y-104500000D02*
G75*
G02*
X208770000Y-104500000I2500000J0D01*
G01*
X203710000Y-89045000D02*
X203710000Y-85955000D01*
X203710000Y-85955170D02*
G75*
G02*
X209260000Y-87500000I2560000J-1544830D01*
G01*
X209260000Y-87500000D02*
G75*
G02*
X203710000Y-89044830I-2990000J0D01*
G01*
X208770000Y-87500000D02*
G75*
G02*
X203770000Y-87500000I-2500000J0D01*
G01*
X203770000Y-87500000D02*
G75*
G02*
X208770000Y-87500000I2500000J0D01*
G01*
X202710000Y-45235000D02*
X202710000Y-64525000D01*
X202710000Y-64525000D02*
X227960000Y-64525000D01*
X227960000Y-45235000D02*
X202710000Y-45235000D01*
X227960000Y-64525000D02*
X227960000Y-45235000D01*
X228210000Y-64780000D02*
X225500000Y-64780000D01*
X228210000Y-64780000D02*
X228210000Y-62500000D01*
M02*
