G04 #@! TF.GenerationSoftware,KiCad,Pcbnew,9.0.5-9.0.5~ubuntu25.10.1*
G04 #@! TF.CreationDate,2025-11-15T17:48:43+01:00*
G04 #@! TF.ProjectId,control_board,636f6e74-726f-46c5-9f62-6f6172642e6b,rev?*
G04 #@! TF.SameCoordinates,Original*
G04 #@! TF.FileFunction,Soldermask,Top*
G04 #@! TF.FilePolarity,Negative*
%FSLAX46Y46*%
G04 Gerber Fmt 4.6, Leading zero omitted, Abs format (unit mm)*
G04 Created by KiCad (PCBNEW 9.0.5-9.0.5~ubuntu25.10.1) date 2025-11-15 17:48:43*
%MOMM*%
%LPD*%
G01*
G04 APERTURE LIST*
G04 Aperture macros list*
%AMRoundRect*
0 Rectangle with rounded corners*
0 $1 Rounding radius*
0 $2 $3 $4 $5 $6 $7 $8 $9 X,Y pos of 4 corners*
0 Add a 4 corners polygon primitive as box body*
4,1,4,$2,$3,$4,$5,$6,$7,$8,$9,$2,$3,0*
0 Add four circle primitives for the rounded corners*
1,1,$1+$1,$2,$3*
1,1,$1+$1,$4,$5*
1,1,$1+$1,$6,$7*
1,1,$1+$1,$8,$9*
0 Add four rect primitives between the rounded corners*
20,1,$1+$1,$2,$3,$4,$5,0*
20,1,$1+$1,$4,$5,$6,$7,0*
20,1,$1+$1,$6,$7,$8,$9,0*
20,1,$1+$1,$8,$9,$2,$3,0*%
G04 Aperture macros list end*
%ADD10RoundRect,0.250000X0.625000X-0.400000X0.625000X0.400000X-0.625000X0.400000X-0.625000X-0.400000X0*%
%ADD11RoundRect,0.150000X0.150000X-0.587500X0.150000X0.587500X-0.150000X0.587500X-0.150000X-0.587500X0*%
%ADD12RoundRect,0.250000X-0.650000X0.412500X-0.650000X-0.412500X0.650000X-0.412500X0.650000X0.412500X0*%
%ADD13RoundRect,0.250000X0.400000X0.625000X-0.400000X0.625000X-0.400000X-0.625000X0.400000X-0.625000X0*%
%ADD14RoundRect,0.250000X-0.400000X-0.625000X0.400000X-0.625000X0.400000X0.625000X-0.400000X0.625000X0*%
%ADD15C,0.800000*%
%ADD16C,6.400000*%
%ADD17RoundRect,0.250000X1.125000X-1.125000X1.125000X1.125000X-1.125000X1.125000X-1.125000X-1.125000X0*%
%ADD18C,2.750000*%
%ADD19RoundRect,0.250000X-1.125000X1.125000X-1.125000X-1.125000X1.125000X-1.125000X1.125000X1.125000X0*%
%ADD20RoundRect,0.137500X-0.600000X-0.137500X0.600000X-0.137500X0.600000X0.137500X-0.600000X0.137500X0*%
%ADD21RoundRect,0.137500X-0.137500X-0.600000X0.137500X-0.600000X0.137500X0.600000X-0.137500X0.600000X0*%
%ADD22R,1.700000X1.700000*%
%ADD23C,1.700000*%
%ADD24RoundRect,0.250000X-0.625000X0.400000X-0.625000X-0.400000X0.625000X-0.400000X0.625000X0.400000X0*%
%ADD25RoundRect,0.250000X1.325000X-1.325000X1.325000X1.325000X-1.325000X1.325000X-1.325000X-1.325000X0*%
%ADD26C,3.150000*%
%ADD27RoundRect,0.250000X0.412500X0.650000X-0.412500X0.650000X-0.412500X-0.650000X0.412500X-0.650000X0*%
%ADD28RoundRect,0.150000X0.150000X-0.825000X0.150000X0.825000X-0.150000X0.825000X-0.150000X-0.825000X0*%
%ADD29RoundRect,0.250000X-0.412500X-0.650000X0.412500X-0.650000X0.412500X0.650000X-0.412500X0.650000X0*%
%ADD30R,1.800000X1.800000*%
%ADD31C,1.800000*%
%ADD32R,1.500000X1.500000*%
%ADD33C,1.500000*%
G04 APERTURE END LIST*
D10*
X223700000Y-97500000D03*
X223700000Y-94400000D03*
D11*
X203699358Y-57016614D03*
X205599358Y-57016614D03*
X204649358Y-55141614D03*
D12*
X205446517Y-93273261D03*
X205446517Y-96398261D03*
D13*
X228829183Y-59320220D03*
X225729183Y-59320220D03*
D14*
X204611242Y-102151479D03*
X207711242Y-102151479D03*
D10*
X207670400Y-79427000D03*
X207670400Y-76327000D03*
D11*
X225035358Y-57016614D03*
X226935358Y-57016614D03*
X225985358Y-55141614D03*
D12*
X198744512Y-110373452D03*
X198744512Y-113498452D03*
D10*
X220472000Y-69775000D03*
X220472000Y-66675000D03*
X223012000Y-69775000D03*
X223012000Y-66675000D03*
X222123000Y-79554000D03*
X222123000Y-76454000D03*
D15*
X223995982Y-133200000D03*
X224698926Y-131502944D03*
X224698926Y-134897056D03*
X226395982Y-130800000D03*
D16*
X226395982Y-133200000D03*
D15*
X226395982Y-135600000D03*
X228093038Y-131502944D03*
X228093038Y-134897056D03*
X228795982Y-133200000D03*
D14*
X210107600Y-59334400D03*
X213207600Y-59334400D03*
D11*
X207684263Y-74309848D03*
X209584263Y-74309848D03*
X208634263Y-72434848D03*
D17*
X211598224Y-105595562D03*
D18*
X211598224Y-100195562D03*
D11*
X221479358Y-57016614D03*
X223379358Y-57016614D03*
X222429358Y-55141614D03*
X218303757Y-74347052D03*
X220203757Y-74347052D03*
X219253757Y-72472052D03*
X211242110Y-74339004D03*
X213142110Y-74339004D03*
X212192110Y-72464004D03*
D19*
X195494512Y-101498452D03*
D18*
X195494512Y-106898452D03*
X195494512Y-112298452D03*
D10*
X223012000Y-52757000D03*
X223012000Y-49657000D03*
D11*
X221859757Y-74347052D03*
X223759757Y-74347052D03*
X222809757Y-72472052D03*
D20*
X210668805Y-123446739D03*
X210668805Y-124246739D03*
X210668805Y-125046739D03*
X210668805Y-125846739D03*
X210668805Y-126646739D03*
X210668805Y-127446739D03*
X210668805Y-128246739D03*
X210668805Y-129046739D03*
X210668805Y-129846739D03*
X210668805Y-130646739D03*
X210668805Y-131446739D03*
D21*
X212331305Y-133109239D03*
X213131305Y-133109239D03*
X213931305Y-133109239D03*
X214731305Y-133109239D03*
X215531305Y-133109239D03*
X216331305Y-133109239D03*
X217131305Y-133109239D03*
X217931305Y-133109239D03*
X218731305Y-133109239D03*
X219531305Y-133109239D03*
X220331305Y-133109239D03*
D20*
X221993805Y-131446739D03*
X221993805Y-130646739D03*
X221993805Y-129846739D03*
X221993805Y-129046739D03*
X221993805Y-128246739D03*
X221993805Y-127446739D03*
X221993805Y-126646739D03*
X221993805Y-125846739D03*
X221993805Y-125046739D03*
X221993805Y-124246739D03*
X221993805Y-123446739D03*
D21*
X220331305Y-121784239D03*
X219531305Y-121784239D03*
X218731305Y-121784239D03*
X217931305Y-121784239D03*
X217131305Y-121784239D03*
X216331305Y-121784239D03*
X215531305Y-121784239D03*
X214731305Y-121784239D03*
X213931305Y-121784239D03*
X213131305Y-121784239D03*
X212331305Y-121784239D03*
D10*
X207772000Y-69775000D03*
X207772000Y-66675000D03*
X205232000Y-52757000D03*
X205232000Y-49657000D03*
D11*
X207255358Y-57016614D03*
X209155358Y-57016614D03*
X208205358Y-55141614D03*
D10*
X225552000Y-69775000D03*
X225552000Y-66675000D03*
D13*
X217479642Y-95141311D03*
X214379642Y-95141311D03*
D10*
X214884000Y-79427000D03*
X214884000Y-76327000D03*
D22*
X205094798Y-121582877D03*
D23*
X207634798Y-121582877D03*
X205094798Y-124122877D03*
X207634798Y-124122877D03*
X205094798Y-126662877D03*
X207634798Y-126662877D03*
D14*
X205002800Y-60299600D03*
X208102800Y-60299600D03*
D10*
X220472000Y-52757000D03*
X220472000Y-49657000D03*
D15*
X212600000Y-41000000D03*
X213302944Y-39302944D03*
X213302944Y-42697056D03*
X215000000Y-38600000D03*
D16*
X215000000Y-41000000D03*
D15*
X215000000Y-43400000D03*
X216697056Y-39302944D03*
X216697056Y-42697056D03*
X217400000Y-41000000D03*
D14*
X204650000Y-85200000D03*
X207750000Y-85200000D03*
D24*
X210850000Y-108700000D03*
X210850000Y-111800000D03*
D14*
X215136800Y-59334400D03*
X218236800Y-59334400D03*
D11*
X217923358Y-57016614D03*
X219823358Y-57016614D03*
X218873358Y-55141614D03*
D10*
X202692000Y-63247200D03*
X202692000Y-60147200D03*
D11*
X214747757Y-74347052D03*
X216647757Y-74347052D03*
X215697757Y-72472052D03*
D10*
X217932000Y-52757000D03*
X217932000Y-49657000D03*
D17*
X212075941Y-88571016D03*
D18*
X212075941Y-83171016D03*
D25*
X189523828Y-125499602D03*
D26*
X189523828Y-119499602D03*
X189523828Y-113499602D03*
X189523828Y-107499602D03*
X189523828Y-101499602D03*
D14*
X220207364Y-59320220D03*
X223307364Y-59320220D03*
X208550000Y-93500000D03*
X211650000Y-93500000D03*
D11*
X204174836Y-74309848D03*
X206074836Y-74309848D03*
X205124836Y-72434848D03*
D15*
X194052944Y-121997056D03*
X194755888Y-120300000D03*
X194755888Y-123694112D03*
X196452944Y-119597056D03*
D16*
X196452944Y-121997056D03*
D15*
X196452944Y-124397056D03*
X198150000Y-120300000D03*
X198150000Y-123694112D03*
X198852944Y-121997056D03*
D10*
X210312000Y-52757000D03*
X210312000Y-49657000D03*
X218440000Y-79502000D03*
X218440000Y-76402000D03*
X226060000Y-79554000D03*
X226060000Y-76454000D03*
X212852000Y-69775000D03*
X212852000Y-66675000D03*
D11*
X225415757Y-74347052D03*
X227315757Y-74347052D03*
X226365757Y-72472052D03*
X210811358Y-57016614D03*
X212711358Y-57016614D03*
X211761358Y-55141614D03*
D27*
X208207579Y-108989219D03*
X205082579Y-108989219D03*
D10*
X204012800Y-79427000D03*
X204012800Y-76327000D03*
D28*
X213490000Y-118675000D03*
X214760000Y-118675000D03*
X216030000Y-118675000D03*
X217300000Y-118675000D03*
X218570000Y-118675000D03*
X219840000Y-118675000D03*
X221110000Y-118675000D03*
X221110000Y-113725000D03*
X219840000Y-113725000D03*
X218570000Y-113725000D03*
X217300000Y-113725000D03*
X216030000Y-113725000D03*
X214760000Y-113725000D03*
X213490000Y-113725000D03*
D10*
X211302600Y-79452400D03*
X211302600Y-76352400D03*
X207772000Y-52757000D03*
X207772000Y-49657000D03*
X225552000Y-52757000D03*
X225552000Y-49657000D03*
X210312000Y-69775000D03*
X210312000Y-66675000D03*
D29*
X213191404Y-111195713D03*
X216316404Y-111195713D03*
D11*
X214367358Y-57016614D03*
X216267358Y-57016614D03*
X215317358Y-55141614D03*
D10*
X215392000Y-69775000D03*
X215392000Y-66675000D03*
D29*
X224964665Y-128498602D03*
X228089665Y-128498602D03*
D10*
X202692000Y-68301200D03*
X202692000Y-65201200D03*
D30*
X205000000Y-104500000D03*
D31*
X207540000Y-104500000D03*
D30*
X205000000Y-87500000D03*
D31*
X207540000Y-87500000D03*
D32*
X225500000Y-62500000D03*
D33*
X222960000Y-62500000D03*
X220420000Y-62500000D03*
X217880000Y-62500000D03*
X215340000Y-62500000D03*
X212800000Y-62500000D03*
X210260000Y-62500000D03*
X207720000Y-62500000D03*
X205180000Y-62500000D03*
X205180000Y-47260000D03*
X207720000Y-47260000D03*
X210260000Y-47260000D03*
X212800000Y-47260000D03*
X215340000Y-47260000D03*
X217880000Y-47260000D03*
X220420000Y-47260000D03*
X222960000Y-47260000D03*
X225500000Y-47260000D03*
M02*
