M48
INCH,TZ
T1C0.0118
T2C0.0197
T3C0.0354
T4C0.0394
T5C0.0689
T6C0.0846
T7C0.1260
%
G90
G05
T1
X79606Y-23110
X80098Y-21181
X80158Y-46791
X80316Y-39488
X80492Y-44390
X80492Y-44646
X80492Y-44902
X80748Y-44390
X80748Y-44646
X80748Y-44902
X80984Y-27402
X81791Y-33543
X81811Y-37717
X82205Y-39390
X85170Y-47947
X85485Y-52405
X85800Y-47947
X86732Y-30689
X86811Y-20177
X87126Y-21339
X87795Y-26850
X87835Y-20157
X88484Y-43819
X88484Y-44075
X88484Y-44331
X88622Y-21299
X88740Y-43819
X88740Y-44075
X88740Y-44331
X88799Y-20157
X90020Y-22539
X90098Y-49764
T2
X76399Y-48030
X76676Y-47362
X76676Y-48698
X77344Y-47085
X77344Y-48975
X78012Y-47362
X78012Y-48698
X78289Y-48030
X83701Y-16142
X83978Y-15474
X83978Y-16810
X84646Y-15197
X84646Y-17087
X85314Y-15474
X85314Y-16810
X85591Y-16142
X88187Y-52441
X88464Y-51773
X88464Y-53109
X89132Y-51496
X89132Y-53386
X89800Y-51773
X89800Y-53109
X90077Y-52441
T3
X80709Y-34449
X80709Y-41142
X81709Y-34449
X81709Y-41142
T4
X80746Y-47867
X80746Y-48867
X80746Y-49867
X80780Y-18606
X80780Y-24606
X81746Y-47867
X81746Y-48867
X81746Y-49867
X81780Y-18606
X81780Y-24606
X82780Y-18606
X82780Y-24606
X83780Y-18606
X83780Y-24606
X84780Y-18606
X84780Y-24606
X85780Y-18606
X85780Y-24606
X86780Y-18606
X86780Y-24606
X87780Y-18606
X87780Y-24606
X88780Y-18606
X88780Y-24606
T5
X76966Y-39960
X76966Y-42086
X76966Y-44212
X83306Y-39447
X83306Y-41573
X83494Y-32744
X83494Y-34870
T6
X74616Y-39960
X74616Y-42323
X74616Y-44685
X74616Y-47047
X74616Y-49409
T7
X77344Y-48030
X84646Y-16142
X89132Y-52441
M30
