                                                                        S0000001
,,31HOpen CASCADE IGES processor 7.7,13HFilename.iges,                  G0000001
16HOpen CASCADE 7.7,31HOpen CASCADE IGES processor 7.7,32,308,15,308,15,G0000002
,1.,2,2HMM,1,0.01,15H20251110.091612,1E-07,130.018863,,,11,0,           G0000003
15H20251110.091612,;                                                    G0000004
     402       1       0       0       0       0       0       000000000D0000001
     402       0       0       2       1                               0D0000002
     144       3       0       0       0       0       0       000020000D0000003
     144       0       0       1       0                               0D0000004
     108       4       0       0       0       0       0       000010000D0000005
     108       0       0       1       0                               0D0000006
     142       5       0       0       0       0       0       000010500D0000007
     142       0       0       1       0                               0D0000008
     102       6       0       0       0       0       0       000010000D0000009
     102       0       0       1       0                               0D0000010
     110       7       0       0       0       0       0       000010000D0000011
     110       0       0       1       0                               0D0000012
     110       8       0       0       0       0       0       000010000D0000013
     110       0       0       1       0                               0D0000014
     110       9       0       0       0       0       0       000010000D0000015
     110       0       0       1       0                               0D0000016
     100      10       0       0       0       0      19       000010000D0000017
     100       0       0       1       0                               0D0000018
     124      11       0       0       0       0       0       000000000D0000019
     124       0       0       1       0                               0D0000020
     110      12       0       0       0       0       0       000010000D0000021
     110       0       0       1       0                               0D0000022
     100      13       0       0       0       0      25       000010000D0000023
     100       0       0       1       0                               0D0000024
     124      14       0       0       0       0       0       000000000D0000025
     124       0       0       1       0                               0D0000026
     142      15       0       0       0       0       0       000010500D0000027
     142       0       0       1       0                               0D0000028
     100      16       0       0       0       0      31       000010000D0000029
     100       0       0       1       0                               0D0000030
     124      17       0       0       0       0       0       000000000D0000031
     124       0       0       1       0                               0D0000032
     142      18       0       0       0       0       0       000010500D0000033
     142       0       0       1       0                               0D0000034
     100      19       0       0       0       0      37       000010000D0000035
     100       0       0       1       0                               0D0000036
     124      20       0       0       0       0       0       000000000D0000037
     124       0       0       1       0                               0D0000038
     142      21       0       0       0       0       0       000010500D0000039
     142       0       0       1       0                               0D0000040
     100      22       0       0       0       0      43       000010000D0000041
     100       0       0       1       0                               0D0000042
     124      23       0       0       0       0       0       000000000D0000043
     124       0       0       1       0                               0D0000044
     144      24       0       0       0       0       0       000020000D0000045
     144       0       0       1       0                               0D0000046
     108      25       0       0       0       0       0       000010000D0000047
     108       0       0       1       0                               0D0000048
     142      26       0       0       0       0       0       000010500D0000049
     142       0       0       1       0                               0D0000050
     102      27       0       0       0       0       0       000010000D0000051
     102       0       0       1       0                               0D0000052
     110      28       0       0       0       0       0       000010000D0000053
     110       0       0       1       0                               0D0000054
     110      29       0       0       0       0       0       000010000D0000055
     110       0       0       1       0                               0D0000056
     110      30       0       0       0       0       0       000010000D0000057
     110       0       0       1       0                               0D0000058
     110      31       0       0       0       0       0       000010000D0000059
     110       0       0       1       0                               0D0000060
     110      32       0       0       0       0       0       000010000D0000061
     110       0       0       1       0                               0D0000062
     110      33       0       0       0       0       0       000010000D0000063
     110       0       0       1       0                               0D0000064
     110      34       0       0       0       0       0       000010000D0000065
     110       0       0       1       0                               0D0000066
     110      35       0       0       0       0       0       000010000D0000067
     110       0       0       1       0                               0D0000068
     144      36       0       0       0       0       0       000020000D0000069
     144       0       0       1       0                               0D0000070
     120      37       0       0       0       0      73       000010000D0000071
     120       0       0       1       0                               0D0000072
     124      38       0       0       0       0       0       000000000D0000073
     124       0       0       1       0                               0D0000074
     110      39       0       0       0       0       0       000010000D0000075
     110       0       0       1       0                               0D0000076
     110      40       0       0       0       0       0       000010000D0000077
     110       0       0       1       0                               0D0000078
     142      41       0       0       0       0       0       000010500D0000079
     142       0       0       1       0                               0D0000080
     102      42       0       0       0       0       0       000010000D0000081
     102       0       0       1       0                               0D0000082
     100      43       0       0       0       0      85       000010000D0000083
     100       0       0       1       0                               0D0000084
     124      44       0       0       0       0       0       000000000D0000085
     124       0       0       1       0                               0D0000086
     110      45       0       0       0       0       0       000010000D0000087
     110       0       0       1       0                               0D0000088
     100      46       0       0       0       0      91       000010000D0000089
     100       0       0       1       0                               0D0000090
     124      47       0       0       0       0       0       000000000D0000091
     124       0       0       1       0                               0D0000092
     110      48       0       0       0       0       0       000010000D0000093
     110       0       0       1       0                               0D0000094
     144      49       0       0       0       0       0       000020000D0000095
     144       0       0       1       0                               0D0000096
     108      50       0       0       0       0       0       000010000D0000097
     108       0       0       1       0                               0D0000098
     142      51       0       0       0       0       0       000010500D0000099
     142       0       0       1       0                               0D0000100
     102      52       0       0       0       0       0       000010000D0000101
     102       0       0       1       0                               0D0000102
     110      53       0       0       0       0       0       000010000D0000103
     110       0       0       1       0                               0D0000104
     110      54       0       0       0       0       0       000010000D0000105
     110       0       0       1       0                               0D0000106
     110      55       0       0       0       0       0       000010000D0000107
     110       0       0       1       0                               0D0000108
     110      56       0       0       0       0       0       000010000D0000109
     110       0       0       1       0                               0D0000110
     110      57       0       0       0       0       0       000010000D0000111
     110       0       0       1       0                               0D0000112
     110      58       0       0       0       0       0       000010000D0000113
     110       0       0       1       0                               0D0000114
     110      59       0       0       0       0       0       000010000D0000115
     110       0       0       1       0                               0D0000116
     110      60       0       0       0       0       0       000010000D0000117
     110       0       0       1       0                               0D0000118
     142      61       0       0       0       0       0       000010500D0000119
     142       0       0       1       0                               0D0000120
     100      62       0       0       0       0     123       000010000D0000121
     100       0       0       1       0                               0D0000122
     124      63       0       0       0       0       0       000000000D0000123
     124       0       0       1       0                               0D0000124
     142      64       0       0       0       0       0       000010500D0000125
     142       0       0       1       0                               0D0000126
     100      65       0       0       0       0     129       000010000D0000127
     100       0       0       1       0                               0D0000128
     124      66       0       0       0       0       0       000000000D0000129
     124       0       0       1       0                               0D0000130
     142      67       0       0       0       0       0       000010500D0000131
     142       0       0       1       0                               0D0000132
     100      68       0       0       0       0     135       000010000D0000133
     100       0       0       1       0                               0D0000134
     124      69       0       0       0       0       0       000000000D0000135
     124       0       0       1       0                               0D0000136
     142      70       0       0       0       0       0       000010500D0000137
     142       0       0       1       0                               0D0000138
     100      71       0       0       0       0     141       000010000D0000139
     100       0       0       1       0                               0D0000140
     124      72       0       0       0       0       0       000000000D0000141
     124       0       0       1       0                               0D0000142
     144      73       0       0       0       0       0       000020000D0000143
     144       0       0       1       0                               0D0000144
     108      74       0       0       0       0       0       000010000D0000145
     108       0       0       1       0                               0D0000146
     142      75       0       0       0       0       0       000010500D0000147
     142       0       0       1       0                               0D0000148
     102      76       0       0       0       0       0       000010000D0000149
     102       0       0       1       0                               0D0000150
     110      77       0       0       0       0       0       000010000D0000151
     110       0       0       1       0                               0D0000152
     110      78       0       0       0       0       0       000010000D0000153
     110       0       0       1       0                               0D0000154
     110      79       0       0       0       0       0       000010000D0000155
     110       0       0       1       0                               0D0000156
     110      80       0       0       0       0       0       000010000D0000157
     110       0       0       1       0                               0D0000158
     144      81       0       0       0       0       0       000020000D0000159
     144       0       0       1       0                               0D0000160
     108      82       0       0       0       0       0       000010000D0000161
     108       0       0       1       0                               0D0000162
     142      83       0       0       0       0       0       000010500D0000163
     142       0       0       1       0                               0D0000164
     102      84       0       0       0       0       0       000010000D0000165
     102       0       0       1       0                               0D0000166
     110      85       0       0       0       0       0       000010000D0000167
     110       0       0       1       0                               0D0000168
     110      86       0       0       0       0       0       000010000D0000169
     110       0       0       1       0                               0D0000170
     110      87       0       0       0       0       0       000010000D0000171
     110       0       0       1       0                               0D0000172
     110      88       0       0       0       0       0       000010000D0000173
     110       0       0       1       0                               0D0000174
     110      89       0       0       0       0       0       000010000D0000175
     110       0       0       1       0                               0D0000176
     144      90       0       0       0       0       0       000020000D0000177
     144       0       0       1       0                               0D0000178
     120      91       0       0       0       0     181       000010000D0000179
     120       0       0       1       0                               0D0000180
     124      92       0       0       0       0       0       000000000D0000181
     124       0       0       1       0                               0D0000182
     110      93       0       0       0       0       0       000010000D0000183
     110       0       0       1       0                               0D0000184
     110      94       0       0       0       0       0       000010000D0000185
     110       0       0       1       0                               0D0000186
     142      95       0       0       0       0       0       000010500D0000187
     142       0       0       1       0                               0D0000188
     102      96       0       0       0       0       0       000010000D0000189
     102       0       0       1       0                               0D0000190
     100      97       0       0       0       0     193       000010000D0000191
     100       0       0       1       0                               0D0000192
     124      98       0       0       0       0       0       000000000D0000193
     124       0       0       1       0                               0D0000194
     110      99       0       0       0       0       0       000010000D0000195
     110       0       0       1       0                               0D0000196
     100     100       0       0       0       0     199       000010000D0000197
     100       0       0       1       0                               0D0000198
     124     101       0       0       0       0       0       000000000D0000199
     124       0       0       1       0                               0D0000200
     110     102       0       0       0       0       0       000010000D0000201
     110       0       0       1       0                               0D0000202
     144     103       0       0       0       0       0       000020000D0000203
     144       0       0       1       0                               0D0000204
     120     104       0       0       0       0     207       000010000D0000205
     120       0       0       1       0                               0D0000206
     124     105       0       0       0       0       0       000000000D0000207
     124       0       0       1       1                               0D0000208
     110     106       0       0       0       0       0       000010000D0000209
     110       0       0       1       0                               0D0000210
     110     107       0       0       0       0       0       000010000D0000211
     110       0       0       1       0                               0D0000212
     142     108       0       0       0       0       0       000010500D0000213
     142       0       0       1       0                               0D0000214
     102     109       0       0       0       0       0       000010000D0000215
     102       0       0       1       0                               0D0000216
     100     110       0       0       0       0     219       000010000D0000217
     100       0       0       1       0                               0D0000218
     124     111       0       0       0       0       0       000000000D0000219
     124       0       0       1       0                               0D0000220
     110     112       0       0       0       0       0       000010000D0000221
     110       0       0       1       0                               0D0000222
     100     113       0       0       0       0     225       000010000D0000223
     100       0       0       1       0                               0D0000224
     124     114       0       0       0       0       0       000000000D0000225
     124       0       0       1       0                               0D0000226
     110     115       0       0       0       0       0       000010000D0000227
     110       0       0       1       0                               0D0000228
     144     116       0       0       0       0       0       000020000D0000229
     144       0       0       1       0                               0D0000230
     120     117       0       0       0       0     233       000010000D0000231
     120       0       0       1       0                               0D0000232
     124     118       0       0       0       0       0       000000000D0000233
     124       0       0       1       1                               0D0000234
     110     119       0       0       0       0       0       000010000D0000235
     110       0       0       1       0                               0D0000236
     110     120       0       0       0       0       0       000010000D0000237
     110       0       0       1       0                               0D0000238
     142     121       0       0       0       0       0       000010500D0000239
     142       0       0       1       0                               0D0000240
     102     122       0       0       0       0       0       000010000D0000241
     102       0       0       1       0                               0D0000242
     100     123       0       0       0       0     245       000010000D0000243
     100       0       0       1       0                               0D0000244
     124     124       0       0       0       0       0       000000000D0000245
     124       0       0       1       0                               0D0000246
     110     125       0       0       0       0       0       000010000D0000247
     110       0       0       1       0                               0D0000248
     100     126       0       0       0       0     251       000010000D0000249
     100       0       0       1       0                               0D0000250
     124     127       0       0       0       0       0       000000000D0000251
     124       0       0       1       0                               0D0000252
     110     128       0       0       0       0       0       000010000D0000253
     110       0       0       1       0                               0D0000254
     144     129       0       0       0       0       0       000020000D0000255
     144       0       0       1       0                               0D0000256
     120     130       0       0       0       0     259       000010000D0000257
     120       0       0       1       0                               0D0000258
     124     131       0       0       0       0       0       000000000D0000259
     124       0       0       1       1                               0D0000260
     110     132       0       0       0       0       0       000010000D0000261
     110       0       0       1       0                               0D0000262
     110     133       0       0       0       0       0       000010000D0000263
     110       0       0       1       0                               0D0000264
     142     134       0       0       0       0       0       000010500D0000265
     142       0       0       1       0                               0D0000266
     102     135       0       0       0       0       0       000010000D0000267
     102       0       0       1       0                               0D0000268
     100     136       0       0       0       0     271       000010000D0000269
     100       0       0       1       0                               0D0000270
     124     137       0       0       0       0       0       000000000D0000271
     124       0       0       1       0                               0D0000272
     110     138       0       0       0       0       0       000010000D0000273
     110       0       0       1       0                               0D0000274
     100     139       0       0       0       0     277       000010000D0000275
     100       0       0       1       0                               0D0000276
     124     140       0       0       0       0       0       000000000D0000277
     124       0       0       1       0                               0D0000278
     110     141       0       0       0       0       0       000010000D0000279
     110       0       0       1       0                               0D0000280
     144     142       0       0       0       0       0       000020000D0000281
     144       0       0       1       0                               0D0000282
     108     143       0       0       0       0       0       000010000D0000283
     108       0       0       1       0                               0D0000284
     142     144       0       0       0       0       0       000010500D0000285
     142       0       0       1       0                               0D0000286
     102     145       0       0       0       0       0       000010000D0000287
     102       0       0       1       0                               0D0000288
     100     146       0       0       0       0     291       000010000D0000289
     100       0       0       1       0                               0D0000290
     124     147       0       0       0       0       0       000000000D0000291
     124       0       0       1       0                               0D0000292
     110     148       0       0       0       0       0       000010000D0000293
     110       0       0       1       0                               0D0000294
     110     149       0       0       0       0       0       000010000D0000295
     110       0       0       1       0                               0D0000296
     110     150       0       0       0       0       0       000010000D0000297
     110       0       0       1       0                               0D0000298
     100     151       0       0       0       0     301       000010000D0000299
     100       0       0       1       0                               0D0000300
     124     152       0       0       0       0       0       000000000D0000301
     124       0       0       1       0                               0D0000302
     110     153       0       0       0       0       0       000010000D0000303
     110       0       0       1       0                               0D0000304
     142     154       0       0       0       0       0       000010500D0000305
     142       0       0       1       0                               0D0000306
     100     155       0       0       0       0     309       000010000D0000307
     100       0       0       1       0                               0D0000308
     124     156       0       0       0       0       0       000000000D0000309
     124       0       0       1       0                               0D0000310
     142     157       0       0       0       0       0       000010500D0000311
     142       0       0       1       0                               0D0000312
     100     158       0       0       0       0     315       000010000D0000313
     100       0       0       1       0                               0D0000314
     124     159       0       0       0       0       0       000000000D0000315
     124       0       0       1       0                               0D0000316
     142     160       0       0       0       0       0       000010500D0000317
     142       0       0       1       0                               0D0000318
     100     161       0       0       0       0     321       000010000D0000319
     100       0       0       1       0                               0D0000320
     124     162       0       0       0       0       0       000000000D0000321
     124       0       0       1       0                               0D0000322
     144     163       0       0       0       0       0       000020000D0000323
     144       0       0       1       0                               0D0000324
     108     164       0       0       0       0       0       000010000D0000325
     108       0       0       1       0                               0D0000326
     142     165       0       0       0       0       0       000010500D0000327
     142       0       0       1       0                               0D0000328
     102     166       0       0       0       0       0       000010000D0000329
     102       0       0       1       0                               0D0000330
     100     167       0       0       0       0     333       000010000D0000331
     100       0       0       1       0                               0D0000332
     124     168       0       0       0       0       0       000000000D0000333
     124       0       0       1       0                               0D0000334
     110     169       0       0       0       0       0       000010000D0000335
     110       0       0       1       0                               0D0000336
     110     170       0       0       0       0       0       000010000D0000337
     110       0       0       1       0                               0D0000338
     110     171       0       0       0       0       0       000010000D0000339
     110       0       0       1       0                               0D0000340
     100     172       0       0       0       0     343       000010000D0000341
     100       0       0       1       0                               0D0000342
     124     173       0       0       0       0       0       000000000D0000343
     124       0       0       1       0                               0D0000344
     110     174       0       0       0       0       0       000010000D0000345
     110       0       0       1       0                               0D0000346
     142     175       0       0       0       0       0       000010500D0000347
     142       0       0       1       0                               0D0000348
     100     176       0       0       0       0     351       000010000D0000349
     100       0       0       1       0                               0D0000350
     124     177       0       0       0       0       0       000000000D0000351
     124       0       0       1       0                               0D0000352
     142     178       0       0       0       0       0       000010500D0000353
     142       0       0       1       0                               0D0000354
     100     179       0       0       0       0     357       000010000D0000355
     100       0       0       1       0                               0D0000356
     124     180       0       0       0       0       0       000000000D0000357
     124       0       0       1       0                               0D0000358
     142     181       0       0       0       0       0       000010500D0000359
     142       0       0       1       0                               0D0000360
     100     182       0       0       0       0     363       000010000D0000361
     100       0       0       1       0                               0D0000362
     124     183       0       0       0       0       0       000000000D0000363
     124       0       0       1       0                               0D0000364
     144     184       0       0       0       0       0       000020000D0000365
     144       0       0       1       0                               0D0000366
     108     185       0       0       0       0       0       000010000D0000367
     108       0       0       1       0                               0D0000368
     142     186       0       0       0       0       0       000010500D0000369
     142       0       0       1       0                               0D0000370
     102     187       0       0       0       0       0       000010000D0000371
     102       0       0       1       0                               0D0000372
     110     188       0       0       0       0       0       000010000D0000373
     110       0       0       1       0                               0D0000374
     110     189       0       0       0       0       0       000010000D0000375
     110       0       0       1       0                               0D0000376
     110     190       0       0       0       0       0       000010000D0000377
     110       0       0       1       0                               0D0000378
     110     191       0       0       0       0       0       000010000D0000379
     110       0       0       1       0                               0D0000380
     110     192       0       0       0       0       0       000010000D0000381
     110       0       0       1       0                               0D0000382
     110     193       0       0       0       0       0       000010000D0000383
     110       0       0       1       0                               0D0000384
     142     194       0       0       0       0       0       000010500D0000385
     142       0       0       1       0                               0D0000386
     100     195       0       0       0       0     389       000010000D0000387
     100       0       0       1       0                               0D0000388
     124     196       0       0       0       0       0       000000000D0000389
     124       0       0       1       0                               0D0000390
     142     197       0       0       0       0       0       000010500D0000391
     142       0       0       1       0                               0D0000392
     100     198       0       0       0       0     395       000010000D0000393
     100       0       0       1       0                               0D0000394
     124     199       0       0       0       0       0       000000000D0000395
     124       0       0       1       0                               0D0000396
     142     200       0       0       0       0       0       000010500D0000397
     142       0       0       1       0                               0D0000398
     100     201       0       0       0       0     401       000010000D0000399
     100       0       0       1       0                               0D0000400
     124     202       0       0       0       0       0       000000000D0000401
     124       0       0       1       0                               0D0000402
     142     203       0       0       0       0       0       000010500D0000403
     142       0       0       1       0                               0D0000404
     100     204       0       0       0       0     407       000010000D0000405
     100       0       0       1       0                               0D0000406
     124     205       0       0       0       0       0       000000000D0000407
     124       0       0       1       0                               0D0000408
     144     206       0       0       0       0       0       000020000D0000409
     144       0       0       1       0                               0D0000410
     120     207       0       0       0       0     413       000010000D0000411
     120       0       0       1       0                               0D0000412
     124     208       0       0       0       0       0       000000000D0000413
     124       0       0       1       0                               0D0000414
     110     209       0       0       0       0       0       000010000D0000415
     110       0       0       1       0                               0D0000416
     110     210       0       0       0       0       0       000010000D0000417
     110       0       0       1       0                               0D0000418
     142     211       0       0       0       0       0       000010500D0000419
     142       0       0       1       0                               0D0000420
     102     212       0       0       0       0       0       000010000D0000421
     102       0       0       1       0                               0D0000422
     100     213       0       0       0       0     425       000010000D0000423
     100       0       0       1       0                               0D0000424
     124     214       0       0       0       0       0       000000000D0000425
     124       0       0       1       0                               0D0000426
     110     215       0       0       0       0       0       000010000D0000427
     110       0       0       1       0                               0D0000428
     100     216       0       0       0       0     431       000010000D0000429
     100       0       0       1       0                               0D0000430
     124     217       0       0       0       0       0       000000000D0000431
     124       0       0       1       0                               0D0000432
     110     218       0       0       0       0       0       000010000D0000433
     110       0       0       1       0                               0D0000434
     144     219       0       0       0       0       0       000020000D0000435
     144       0       0       1       0                               0D0000436
     108     220       0       0       0       0       0       000010000D0000437
     108       0       0       1       0                               0D0000438
     142     221       0       0       0       0       0       000010500D0000439
     142       0       0       1       0                               0D0000440
     102     222       0       0       0       0       0       000010000D0000441
     102       0       0       1       0                               0D0000442
     110     223       0       0       0       0       0       000010000D0000443
     110       0       0       1       0                               0D0000444
     110     224       0       0       0       0       0       000010000D0000445
     110       0       0       1       0                               0D0000446
     110     225       0       0       0       0       0       000010000D0000447
     110       0       0       1       0                               0D0000448
     100     226       0       0       0       0     451       000010000D0000449
     100       0       0       1       0                               0D0000450
     124     227       0       0       0       0       0       000000000D0000451
     124       0       0       1       0                               0D0000452
     110     228       0       0       0       0       0       000010000D0000453
     110       0       0       1       0                               0D0000454
     100     229       0       0       0       0     457       000010000D0000455
     100       0       0       1       0                               0D0000456
     124     230       0       0       0       0       0       000000000D0000457
     124       0       0       1       0                               0D0000458
     142     231       0       0       0       0       0       000010500D0000459
     142       0       0       1       0                               0D0000460
     100     232       0       0       0       0     463       000010000D0000461
     100       0       0       1       0                               0D0000462
     124     233       0       0       0       0       0       000000000D0000463
     124       0       0       1       0                               0D0000464
     142     234       0       0       0       0       0       000010500D0000465
     142       0       0       1       0                               0D0000466
     100     235       0       0       0       0     469       000010000D0000467
     100       0       0       1       0                               0D0000468
     124     236       0       0       0       0       0       000000000D0000469
     124       0       0       1       0                               0D0000470
     142     237       0       0       0       0       0       000010500D0000471
     142       0       0       1       0                               0D0000472
     100     238       0       0       0       0     475       000010000D0000473
     100       0       0       1       0                               0D0000474
     124     239       0       0       0       0       0       000000000D0000475
     124       0       0       1       0                               0D0000476
     144     240       0       0       0       0       0       000020000D0000477
     144       0       0       1       0                               0D0000478
     108     241       0       0       0       0       0       000010000D0000479
     108       0       0       1       0                               0D0000480
     142     242       0       0       0       0       0       000010500D0000481
     142       0       0       1       0                               0D0000482
     102     243       0       0       0       0       0       000010000D0000483
     102       0       0       1       0                               0D0000484
     110     244       0       0       0       0       0       000010000D0000485
     110       0       0       1       0                               0D0000486
     110     245       0       0       0       0       0       000010000D0000487
     110       0       0       1       0                               0D0000488
     110     246       0       0       0       0       0       000010000D0000489
     110       0       0       1       0                               0D0000490
     110     247       0       0       0       0       0       000010000D0000491
     110       0       0       1       0                               0D0000492
     110     248       0       0       0       0       0       000010000D0000493
     110       0       0       1       0                               0D0000494
     144     249       0       0       0       0       0       000020000D0000495
     144       0       0       1       0                               0D0000496
     108     250       0       0       0       0       0       000010000D0000497
     108       0       0       1       0                               0D0000498
     142     251       0       0       0       0       0       000010500D0000499
     142       0       0       1       0                               0D0000500
     102     252       0       0       0       0       0       000010000D0000501
     102       0       0       1       0                               0D0000502
     110     253       0       0       0       0       0       000010000D0000503
     110       0       0       1       0                               0D0000504
     110     254       0       0       0       0       0       000010000D0000505
     110       0       0       1       0                               0D0000506
     110     255       0       0       0       0       0       000010000D0000507
     110       0       0       1       0                               0D0000508
     110     256       0       0       0       0       0       000010000D0000509
     110       0       0       1       0                               0D0000510
     144     257       0       0       0       0       0       000020000D0000511
     144       0       0       1       0                               0D0000512
     108     258       0       0       0       0       0       000010000D0000513
     108       0       0       1       0                               0D0000514
     142     259       0       0       0       0       0       000010500D0000515
     142       0       0       1       0                               0D0000516
     102     260       0       0       0       0       0       000010000D0000517
     102       0       0       1       0                               0D0000518
     110     261       0       0       0       0       0       000010000D0000519
     110       0       0       1       0                               0D0000520
     110     262       0       0       0       0       0       000010000D0000521
     110       0       0       1       0                               0D0000522
     110     263       0       0       0       0       0       000010000D0000523
     110       0       0       1       0                               0D0000524
     110     264       0       0       0       0       0       000010000D0000525
     110       0       0       1       0                               0D0000526
     144     265       0       0       0       0       0       000020000D0000527
     144       0       0       1       0                               0D0000528
     108     266       0       0       0       0       0       000010000D0000529
     108       0       0       1       0                               0D0000530
     142     267       0       0       0       0       0       000010500D0000531
     142       0       0       1       0                               0D0000532
     102     268       0       0       0       0       0       000010000D0000533
     102       0       0       1       0                               0D0000534
     110     269       0       0       0       0       0       000010000D0000535
     110       0       0       1       0                               0D0000536
     110     270       0       0       0       0       0       000010000D0000537
     110       0       0       1       0                               0D0000538
     110     271       0       0       0       0       0       000010000D0000539
     110       0       0       1       0                               0D0000540
     110     272       0       0       0       0       0       000010000D0000541
     110       0       0       1       0                               0D0000542
     144     273       0       0       0       0       0       000020000D0000543
     144       0       0       1       0                               0D0000544
     120     274       0       0       0       0     547       000010000D0000545
     120       0       0       1       0                               0D0000546
     124     275       0       0       0       0       0       000000000D0000547
     124       0       0       1       1                               0D0000548
     110     276       0       0       0       0       0       000010000D0000549
     110       0       0       1       0                               0D0000550
     110     277       0       0       0       0       0       000010000D0000551
     110       0       0       1       0                               0D0000552
     142     278       0       0       0       0       0       000010500D0000553
     142       0       0       1       0                               0D0000554
     102     279       0       0       0       0       0       000010000D0000555
     102       0       0       1       0                               0D0000556
     110     280       0       0       0       0       0       000010000D0000557
     110       0       0       1       0                               0D0000558
     100     281       0       0       0       0     561       000010000D0000559
     100       0       0       1       0                               0D0000560
     124     282       0       0       0       0       0       000000000D0000561
     124       0       0       1       0                               0D0000562
     110     283       0       0       0       0       0       000010000D0000563
     110       0       0       1       0                               0D0000564
     100     284       0       0       0       0     567       000010000D0000565
     100       0       0       1       0                               0D0000566
     124     285       0       0       0       0       0       000000000D0000567
     124       0       0       1       0                               0D0000568
     144     286       0       0       0       0       0       000020000D0000569
     144       0       0       1       0                               0D0000570
     120     287       0       0       0       0     573       000010000D0000571
     120       0       0       1       0                               0D0000572
     124     288       0       0       0       0       0       000000000D0000573
     124       0       0       1       1                               0D0000574
     110     289       0       0       0       0       0       000010000D0000575
     110       0       0       1       0                               0D0000576
     110     290       0       0       0       0       0       000010000D0000577
     110       0       0       1       0                               0D0000578
     142     291       0       0       0       0       0       000010500D0000579
     142       0       0       1       0                               0D0000580
     102     292       0       0       0       0       0       000010000D0000581
     102       0       0       1       0                               0D0000582
     110     293       0       0       0       0       0       000010000D0000583
     110       0       0       1       0                               0D0000584
     100     294       0       0       0       0     587       000010000D0000585
     100       0       0       1       0                               0D0000586
     124     295       0       0       0       0       0       000000000D0000587
     124       0       0       1       0                               0D0000588
     110     296       0       0       0       0       0       000010000D0000589
     110       0       0       1       0                               0D0000590
     100     297       0       0       0       0     593       000010000D0000591
     100       0       0       1       0                               0D0000592
     124     298       0       0       0       0       0       000000000D0000593
     124       0       0       1       0                               0D0000594
     144     299       0       0       0       0       0       000020000D0000595
     144       0       0       1       0                               0D0000596
     120     300       0       0       0       0     599       000010000D0000597
     120       0       0       1       0                               0D0000598
     124     301       0       0       0       0       0       000000000D0000599
     124       0       0       1       1                               0D0000600
     110     302       0       0       0       0       0       000010000D0000601
     110       0       0       1       0                               0D0000602
     110     303       0       0       0       0       0       000010000D0000603
     110       0       0       1       0                               0D0000604
     142     304       0       0       0       0       0       000010500D0000605
     142       0       0       1       0                               0D0000606
     102     305       0       0       0       0       0       000010000D0000607
     102       0       0       1       0                               0D0000608
     110     306       0       0       0       0       0       000010000D0000609
     110       0       0       1       0                               0D0000610
     100     307       0       0       0       0     613       000010000D0000611
     100       0       0       1       0                               0D0000612
     124     308       0       0       0       0       0       000000000D0000613
     124       0       0       1       0                               0D0000614
     110     309       0       0       0       0       0       000010000D0000615
     110       0       0       1       0                               0D0000616
     100     310       0       0       0       0     619       000010000D0000617
     100       0       0       1       0                               0D0000618
     124     311       0       0       0       0       0       000000000D0000619
     124       0       0       1       0                               0D0000620
     144     312       0       0       0       0       0       000020000D0000621
     144       0       0       1       0                               0D0000622
     120     313       0       0       0       0     625       000010000D0000623
     120       0       0       1       0                               0D0000624
     124     314       0       0       0       0       0       000000000D0000625
     124       0       0       1       1                               0D0000626
     110     315       0       0       0       0       0       000010000D0000627
     110       0       0       1       0                               0D0000628
     110     316       0       0       0       0       0       000010000D0000629
     110       0       0       1       0                               0D0000630
     142     317       0       0       0       0       0       000010500D0000631
     142       0       0       1       0                               0D0000632
     102     318       0       0       0       0       0       000010000D0000633
     102       0       0       1       0                               0D0000634
     110     319       0       0       0       0       0       000010000D0000635
     110       0       0       1       0                               0D0000636
     100     320       0       0       0       0     639       000010000D0000637
     100       0       0       1       0                               0D0000638
     124     321       0       0       0       0       0       000000000D0000639
     124       0       0       1       0                               0D0000640
     110     322       0       0       0       0       0       000010000D0000641
     110       0       0       1       0                               0D0000642
     100     323       0       0       0       0     645       000010000D0000643
     100       0       0       1       0                               0D0000644
     124     324       0       0       0       0       0       000000000D0000645
     124       0       0       1       0                               0D0000646
     144     325       0       0       0       0       0       000020000D0000647
     144       0       0       1       0                               0D0000648
     108     326       0       0       0       0       0       000010000D0000649
     108       0       0       1       0                               0D0000650
     142     327       0       0       0       0       0       000010500D0000651
     142       0       0       1       0                               0D0000652
     102     328       0       0       0       0       0       000010000D0000653
     102       0       0       1       0                               0D0000654
     110     329       0       0       0       0       0       000010000D0000655
     110       0       0       1       0                               0D0000656
     110     330       0       0       0       0       0       000010000D0000657
     110       0       0       1       0                               0D0000658
     110     331       0       0       0       0       0       000010000D0000659
     110       0       0       1       0                               0D0000660
     110     332       0       0       0       0       0       000010000D0000661
     110       0       0       1       0                               0D0000662
     144     333       0       0       0       0       0       000020000D0000663
     144       0       0       1       0                               0D0000664
     120     334       0       0       0       0     667       000010000D0000665
     120       0       0       1       0                               0D0000666
     124     335       0       0       0       0       0       000000000D0000667
     124       0       0       1       0                               0D0000668
     110     336       0       0       0       0       0       000010000D0000669
     110       0       0       1       0                               0D0000670
     110     337       0       0       0       0       0       000010000D0000671
     110       0       0       1       0                               0D0000672
     142     338       0       0       0       0       0       000010500D0000673
     142       0       0       1       0                               0D0000674
     102     339       0       0       0       0       0       000010000D0000675
     102       0       0       1       0                               0D0000676
     100     340       0       0       0       0     679       000010000D0000677
     100       0       0       1       0                               0D0000678
     124     341       0       0       0       0       0       000000000D0000679
     124       0       0       1       0                               0D0000680
     110     342       0       0       0       0       0       000010000D0000681
     110       0       0       1       0                               0D0000682
     100     343       0       0       0       0     685       000010000D0000683
     100       0       0       1       0                               0D0000684
     124     344       0       0       0       0       0       000000000D0000685
     124       0       0       1       0                               0D0000686
     110     345       0       0       0       0       0       000010000D0000687
     110       0       0       1       0                               0D0000688
     144     346       0       0       0       0       0       000020000D0000689
     144       0       0       1       0                               0D0000690
     120     347       0       0       0       0     693       000010000D0000691
     120       0       0       1       0                               0D0000692
     124     348       0       0       0       0       0       000000000D0000693
     124       0       0       1       1                               0D0000694
     110     349       0       0       0       0       0       000010000D0000695
     110       0       0       1       0                               0D0000696
     110     350       0       0       0       0       0       000010000D0000697
     110       0       0       1       0                               0D0000698
     142     351       0       0       0       0       0       000010500D0000699
     142       0       0       1       0                               0D0000700
     102     352       0       0       0       0       0       000010000D0000701
     102       0       0       1       0                               0D0000702
     100     353       0       0       0       0     705       000010000D0000703
     100       0       0       1       0                               0D0000704
     124     354       0       0       0       0       0       000000000D0000705
     124       0       0       1       0                               0D0000706
     110     355       0       0       0       0       0       000010000D0000707
     110       0       0       1       0                               0D0000708
     100     356       0       0       0       0     711       000010000D0000709
     100       0       0       1       0                               0D0000710
     124     357       0       0       0       0       0       000000000D0000711
     124       0       0       1       0                               0D0000712
     110     358       0       0       0       0       0       000010000D0000713
     110       0       0       1       0                               0D0000714
     144     359       0       0       0       0       0       000020000D0000715
     144       0       0       1       0                               0D0000716
     120     360       0       0       0       0     719       000010000D0000717
     120       0       0       1       0                               0D0000718
     124     361       0       0       0       0       0       000000000D0000719
     124       0       0       1       1                               0D0000720
     110     362       0       0       0       0       0       000010000D0000721
     110       0       0       1       0                               0D0000722
     110     363       0       0       0       0       0       000010000D0000723
     110       0       0       1       0                               0D0000724
     142     364       0       0       0       0       0       000010500D0000725
     142       0       0       1       0                               0D0000726
     102     365       0       0       0       0       0       000010000D0000727
     102       0       0       1       0                               0D0000728
     100     366       0       0       0       0     731       000010000D0000729
     100       0       0       1       0                               0D0000730
     124     367       0       0       0       0       0       000000000D0000731
     124       0       0       1       0                               0D0000732
     110     368       0       0       0       0       0       000010000D0000733
     110       0       0       1       0                               0D0000734
     100     369       0       0       0       0     737       000010000D0000735
     100       0       0       1       0                               0D0000736
     124     370       0       0       0       0       0       000000000D0000737
     124       0       0       1       0                               0D0000738
     110     371       0       0       0       0       0       000010000D0000739
     110       0       0       1       0                               0D0000740
     144     372       0       0       0       0       0       000020000D0000741
     144       0       0       1       0                               0D0000742
     120     373       0       0       0       0     745       000010000D0000743
     120       0       0       1       0                               0D0000744
     124     374       0       0       0       0       0       000000000D0000745
     124       0       0       1       1                               0D0000746
     110     375       0       0       0       0       0       000010000D0000747
     110       0       0       1       0                               0D0000748
     110     376       0       0       0       0       0       000010000D0000749
     110       0       0       1       0                               0D0000750
     142     377       0       0       0       0       0       000010500D0000751
     142       0       0       1       0                               0D0000752
     102     378       0       0       0       0       0       000010000D0000753
     102       0       0       1       0                               0D0000754
     100     379       0       0       0       0     757       000010000D0000755
     100       0       0       1       0                               0D0000756
     124     380       0       0       0       0       0       000000000D0000757
     124       0       0       1       0                               0D0000758
     110     381       0       0       0       0       0       000010000D0000759
     110       0       0       1       0                               0D0000760
     100     382       0       0       0       0     763       000010000D0000761
     100       0       0       1       0                               0D0000762
     124     383       0       0       0       0       0       000000000D0000763
     124       0       0       1       0                               0D0000764
     110     384       0       0       0       0       0       000010000D0000765
     110       0       0       1       0                               0D0000766
402,28,3,45,69,95,143,159,177,203,229,255,281,323,365,409,435,   0000001P0000001
477,495,511,527,543,569,595,621,647,663,689,715,741;             0000001P0000002
144,5,1,3,7,27,33,39;                                            0000003P0000003
108,1.,0.,0.,72.,0,72.,0.,0.,0.;                                 0000005P0000004
142,0,5,0,9,2;                                                   0000007P0000005
102,6,11,13,15,17,21,23;                                         0000009P0000006
110,72.,0.,37.,72.,0.,0.;                                        0000011P0000007
110,72.,0.,0.,72.,130.,0.;                                       0000013P0000008
110,72.,130.,0.,72.,130.,37.;                                    0000015P0000009
100,0.,0.,0.,0.,-3.,3.,0.;                                       0000017P0000010
124,0.,0.,1.,72.,0.,-1.,-0.,127.,1.,0.,0.,37.;                   0000019P0000011
110,72.,127.,40.,72.,3.,40.;                                     0000021P0000012
100,0.,0.,0.,3.,0.,0.,3.;                                        0000023P0000013
124,0.,0.,1.,72.,0.,-1.,0.,3.,1.,0.,0.,37.;                      0000025P0000014
142,0,5,0,29,2;                                                  0000027P0000015
100,0.,0.,0.,5.,0.,5.,0.;                                        0000029P0000016
124,2.2E-16,0.,-1.,72.,0.,-1.,0.,110.,-1.,0.,-2.2E-16,25.;       0000031P0000017
142,0,5,0,35,2;                                                  0000033P0000018
100,0.,0.,0.,5.,0.,5.,0.;                                        0000035P0000019
124,2.2E-16,0.,-1.,72.,0.,-1.,0.,65.,-1.,0.,-2.2E-16,25.;        0000037P0000020
142,0,5,0,41,2;                                                  0000039P0000021
100,0.,0.,0.,5.,0.,5.,0.;                                        0000041P0000022
124,2.2E-16,0.,-1.,72.,0.,-1.,0.,21.,-1.,0.,-2.2E-16,25.;        0000043P0000023
144,47,1,0,49;                                                   0000045P0000024
108,-0.,-1.,-0.,-0.,0,35.,0.,11.5,0.;                            0000047P0000025
142,0,47,0,51,2;                                                 0000049P0000026
102,8,53,55,57,59,61,63,65,67;                                   0000051P0000027
110,72.,0.,0.,72.,0.,37.;                                        0000053P0000028
110,72.,-4.4E-16,37.,70.,-4.4E-16,37.;                           0000055P0000029
110,70.,0.,37.,70.,0.,2.;                                        0000057P0000030
110,70.,0.,2.,0.,0.,2.;                                          0000059P0000031
110,0.,0.,2.,0.,0.,37.;                                          0000061P0000032
110,0.,-4.4E-16,37.,-2.,-4.4E-16,37.;                            0000063P0000033
110,-2.,0.,37.,-2.,0.,0.;                                        0000065P0000034
110,-2.,0.,0.,72.,0.,0.;                                         0000067P0000035
144,71,1,0,79;                                                   0000069P0000036
120,75,77,4.71238898,6.283185307;                                0000071P0000037
124,0.,0.,1.,70.,0.,-1.,0.,3.,1.,0.,0.,37.;                      0000073P0000038
110,0.,0.,1.,0.,0.,0.;                                           0000075P0000039
110,3.,0.,0.,3.,0.,2.;                                           0000077P0000040
142,0,71,0,81,2;                                                 0000079P0000041
102,4,83,87,89,93;                                               0000081P0000042
100,0.,0.,0.,3.,0.,0.,3.;                                        0000083P0000043
124,0.,0.,1.,70.,0.,-1.,0.,3.,1.,0.,0.,37.;                      0000085P0000044
110,70.,-4.4E-16,37.,72.,-4.4E-16,37.;                           0000087P0000045
100,0.,0.,0.,0.,-3.,3.,-8.881784197E-16;                         0000089P0000046
124,0.,0.,-1.,72.,0.,1.,0.,3.,1.,0.,0.,37.;                      0000091P0000047
110,72.,3.,40.,70.,3.,40.;                                       0000093P0000048
144,97,1,4,99,119,125,131,137;                                   0000095P0000049
108,-0.,-0.,-1.,-0.,0,35.,65.300737056,0.,0.;                    0000097P0000050
142,0,97,0,101,2;                                                0000099P0000051
102,8,103,105,107,109,111,113,115,117;                           0000101P0000052
110,72.,0.,0.,-2.,0.,0.;                                         0000103P0000053
110,-2.,0.,0.,-2.,130.,0.;                                       0000105P0000054
110,-2.,130.,0.,0.,130.,0.;                                      0000107P0000055
110,0.,130.,0.,15.,104.,0.;                                      0000109P0000056
110,15.,104.,0.,55.,104.,0.;                                     0000111P0000057
110,55.,104.,0.,70.,130.,0.;                                     0000113P0000058
110,70.,130.,0.,72.,130.,0.;                                     0000115P0000059
110,72.,130.,0.,72.,0.,0.;                                       0000117P0000060
142,0,97,0,121,2;                                                0000119P0000061
100,0.,0.,0.,3.,0.,3.,0.;                                        0000121P0000062
124,1.,0.,0.,52.,0.,1.,0.,42.,0.,0.,1.,0.;                       0000123P0000063
142,0,97,0,127,2;                                                0000125P0000064
100,0.,0.,0.,3.,0.,3.,0.;                                        0000127P0000065
124,1.,0.,0.,18.,0.,1.,0.,42.,0.,0.,1.,0.;                       0000129P0000066
142,0,97,0,133,2;                                                0000131P0000067
100,0.,0.,0.,3.,0.,3.,0.;                                        0000133P0000068
124,1.,0.,0.,18.,0.,1.,0.,66.,0.,0.,1.,0.;                       0000135P0000069
142,0,97,0,139,2;                                                0000137P0000070
100,0.,0.,0.,3.,0.,3.,0.;                                        0000139P0000071
124,1.,0.,0.,52.,0.,1.,0.,66.,0.,0.,1.,0.;                       0000141P0000072
144,145,1,0,147;                                                 0000143P0000073
108,0.,0.,1.,40.,0,70.,0.,40.,0.;                                0000145P0000074
142,0,145,0,149,2;                                               0000147P0000075
102,4,151,153,155,157;                                           0000149P0000076
110,70.,127.,40.,70.,3.,40.;                                     0000151P0000077
110,70.,3.,40.,72.,3.,40.;                                       0000153P0000078
110,72.,3.,40.,72.,127.,40.;                                     0000155P0000079
110,72.,127.,40.,70.,127.,40.;                                   0000157P0000080
144,161,1,0,163;                                                 0000159P0000081
108,0.,1.,0.,130.,0,70.,130.,0.,0.;                              0000161P0000082
142,0,161,0,165,2;                                               0000163P0000083
102,5,167,169,171,173,175;                                       0000165P0000084
110,72.,130.,37.,72.,130.,0.;                                    0000167P0000085
110,72.,130.,0.,70.,130.,0.;                                     0000169P0000086
110,70.,130.,0.,70.,130.,2.;                                     0000171P0000087
110,70.,130.,2.,70.,130.,37.;                                    0000173P0000088
110,70.,130.,37.,72.,130.,37.;                                   0000175P0000089
144,179,1,0,187;                                                 0000177P0000090
120,183,185,6.283185307,7.853981634;                             0000179P0000091
124,0.,0.,1.,70.,0.,-1.,0.,127.,1.,0.,0.,37.;                    0000181P0000092
110,0.,0.,1.,0.,0.,0.;                                           0000183P0000093
110,3.,0.,0.,3.,0.,2.;                                           0000185P0000094
142,0,179,0,189,2;                                               0000187P0000095
102,4,191,195,197,201;                                           0000189P0000096
100,0.,0.,0.,3.,0.,0.,3.;                                        0000191P0000097
124,0.,0.,-1.,72.,0.,1.,0.,127.,1.,0.,0.,37.;                    0000193P0000098
110,72.,130.,37.,70.,130.,37.;                                   0000195P0000099
100,0.,0.,0.,0.,-3.,3.,0.;                                       0000197P0000100
124,0.,0.,1.,70.,0.,-1.,-0.,127.,1.,0.,0.,37.;                   0000199P0000101
110,70.,127.,40.,72.,127.,40.;                                   0000201P0000102
144,205,1,0,213;                                                 0000203P0000103
120,209,211,-6.283185307,0.;                                     0000205P0000104
124,0.,0.,-1.,-10.,0.,1.,0.,110.,-1.,0.,0.,25.;                  0000207P0000105
110,0.,0.,1.,0.,0.,0.;                                           0000209P0000106
110,5.,0.,-82.,5.,0.,-80.;                                       0000211P0000107
142,0,205,0,215,2;                                               0000213P0000108
102,4,217,221,223,227;                                           0000215P0000109
100,0.,0.,0.,5.,0.,5.,0.;                                        0000217P0000110
124,2.2E-16,0.,-1.,70.,0.,-1.,0.,110.,-1.,0.,-2.2E-16,25.;       0000219P0000111
110,70.,110.,20.,72.,110.,20.;                                   0000221P0000112
100,0.,0.,0.,5.,0.,5.,0.;                                        0000223P0000113
124,2.2E-16,0.,1.,72.,0.,1.,0.,110.,-1.,0.,2.2E-16,25.;          0000225P0000114
110,72.,110.,20.,70.,110.,20.;                                   0000227P0000115
144,231,1,0,239;                                                 0000229P0000116
120,235,237,-6.283185307,0.;                                     0000231P0000117
124,0.,0.,-1.,-10.,0.,1.,0.,65.,-1.,0.,0.,25.;                   0000233P0000118
110,0.,0.,1.,0.,0.,0.;                                           0000235P0000119
110,5.,0.,-82.,5.,0.,-80.;                                       0000237P0000120
142,0,231,0,241,2;                                               0000239P0000121
102,4,243,247,249,253;                                           0000241P0000122
100,0.,0.,0.,5.,0.,5.,0.;                                        0000243P0000123
124,2.2E-16,0.,-1.,70.,0.,-1.,0.,65.,-1.,0.,-2.2E-16,25.;        0000245P0000124
110,70.,65.,20.,72.,65.,20.;                                     0000247P0000125
100,0.,0.,0.,5.,0.,5.,0.;                                        0000249P0000126
124,2.2E-16,0.,1.,72.,0.,1.,0.,65.,-1.,0.,2.2E-16,25.;           0000251P0000127
110,72.,65.,20.,70.,65.,20.;                                     0000253P0000128
144,257,1,0,265;                                                 0000255P0000129
120,261,263,-6.283185307,0.;                                     0000257P0000130
124,0.,0.,-1.,-10.,0.,1.,0.,21.,-1.,0.,0.,25.;                   0000259P0000131
110,0.,0.,1.,0.,0.,0.;                                           0000261P0000132
110,5.,0.,-82.,5.,0.,-80.;                                       0000263P0000133
142,0,257,0,267,2;                                               0000265P0000134
102,4,269,273,275,279;                                           0000267P0000135
100,0.,0.,0.,5.,0.,5.,0.;                                        0000269P0000136
124,2.2E-16,0.,-1.,70.,0.,-1.,0.,21.,-1.,0.,-2.2E-16,25.;        0000271P0000137
110,70.,21.,20.,72.,21.,20.;                                     0000273P0000138
100,0.,0.,0.,5.,0.,5.,0.;                                        0000275P0000139
124,2.2E-16,0.,1.,72.,0.,1.,0.,21.,-1.,0.,2.2E-16,25.;           0000277P0000140
110,72.,21.,20.,70.,21.,20.;                                     0000279P0000141
144,283,1,3,285,305,311,317;                                     0000281P0000142
108,-1.,-0.,-0.,-70.,0,70.,0.,0.,0.;                             0000283P0000143
142,0,283,0,287,2;                                               0000285P0000144
102,6,289,293,295,297,299,303;                                   0000287P0000145
100,0.,0.,0.,3.,0.,0.,3.;                                        0000289P0000146
124,0.,0.,-1.,70.,0.,1.,0.,127.,1.,0.,0.,37.;                    0000291P0000147
110,70.,130.,37.,70.,130.,2.;                                    0000293P0000148
110,70.,130.,2.,70.,0.,2.;                                       0000295P0000149
110,70.,0.,2.,70.,0.,37.;                                        0000297P0000150
100,0.,0.,0.,0.,-3.,3.,-8.881784197E-16;                         0000299P0000151
124,0.,0.,-1.,70.,0.,1.,0.,3.,1.,0.,0.,37.;                      0000301P0000152
110,70.,3.,40.,70.,127.,40.;                                     0000303P0000153
142,0,283,0,307,2;                                               0000305P0000154
100,0.,0.,0.,5.,0.,5.,0.;                                        0000307P0000155
124,2.2E-16,0.,1.,70.,0.,1.,0.,110.,-1.,0.,2.2E-16,25.;          0000309P0000156
142,0,283,0,313,2;                                               0000311P0000157
100,0.,0.,0.,5.,0.,5.,0.;                                        0000313P0000158
124,2.2E-16,0.,1.,70.,0.,1.,0.,65.,-1.,0.,2.2E-16,25.;           0000315P0000159
142,0,283,0,319,2;                                               0000317P0000160
100,0.,0.,0.,5.,0.,5.,0.;                                        0000319P0000161
124,2.2E-16,0.,1.,70.,0.,1.,0.,21.,-1.,0.,2.2E-16,25.;           0000321P0000162
144,325,1,3,327,347,353,359;                                     0000323P0000163
108,-1.,-0.,-0.,2.,0,-2.,0.,0.,0.;                               0000325P0000164
142,0,325,0,329,2;                                               0000327P0000165
102,6,331,335,337,339,341,345;                                   0000329P0000166
100,0.,0.,0.,3.,0.,0.,3.;                                        0000331P0000167
124,0.,0.,-1.,-2.,0.,1.,0.,127.,1.,0.,0.,37.;                    0000333P0000168
110,-2.,130.,37.,-2.,130.,0.;                                    0000335P0000169
110,-2.,130.,0.,-2.,0.,0.;                                       0000337P0000170
110,-2.,0.,0.,-2.,0.,37.;                                        0000339P0000171
100,0.,0.,0.,0.,-3.,3.,-8.881784197E-16;                         0000341P0000172
124,0.,0.,-1.,-2.,0.,1.,0.,3.,1.,0.,0.,37.;                      0000343P0000173
110,-2.,3.,40.,-2.,127.,40.;                                     0000345P0000174
142,0,325,0,349,2;                                               0000347P0000175
100,0.,0.,0.,5.,0.,5.,0.;                                        0000349P0000176
124,2.2E-16,0.,1.,-2.,0.,1.,0.,110.,-1.,0.,2.2E-16,25.;          0000351P0000177
142,0,325,0,355,2;                                               0000353P0000178
100,0.,0.,0.,5.,0.,5.,0.;                                        0000355P0000179
124,2.2E-16,0.,1.,-2.,0.,1.,0.,65.,-1.,0.,2.2E-16,25.;           0000357P0000180
142,0,325,0,361,2;                                               0000359P0000181
100,0.,0.,0.,5.,0.,5.,0.;                                        0000361P0000182
124,2.2E-16,0.,1.,-2.,0.,1.,0.,21.,-1.,0.,2.2E-16,25.;           0000363P0000183
144,367,1,4,369,385,391,397,403;                                 0000365P0000184
108,0.,0.,1.,2.,0,35.,63.874545641,2.,0.;                        0000367P0000185
142,0,367,0,371,2;                                               0000369P0000186
102,6,373,375,377,379,381,383;                                   0000371P0000187
110,0.,130.,2.,0.,0.,2.;                                         0000373P0000188
110,0.,0.,2.,70.,0.,2.;                                          0000375P0000189
110,70.,0.,2.,70.,130.,2.;                                       0000377P0000190
110,70.,130.,2.,55.,104.,2.;                                     0000379P0000191
110,55.,104.,2.,15.,104.,2.;                                     0000381P0000192
110,15.,104.,2.,0.,130.,2.;                                      0000383P0000193
142,0,367,0,387,2;                                               0000385P0000194
100,0.,0.,0.,3.,0.,3.,0.;                                        0000387P0000195
124,1.,0.,0.,18.,0.,-1.,0.,66.,0.,0.,-1.,2.;                     0000389P0000196
142,0,367,0,393,2;                                               0000391P0000197
100,0.,0.,0.,3.,0.,3.,0.;                                        0000393P0000198
124,1.,0.,0.,52.,0.,-1.,0.,42.,0.,0.,-1.,2.;                     0000395P0000199
142,0,367,0,399,2;                                               0000397P0000200
100,0.,0.,0.,3.,0.,3.,0.;                                        0000399P0000201
124,1.,0.,0.,18.,0.,-1.,0.,42.,0.,0.,-1.,2.;                     0000401P0000202
142,0,367,0,405,2;                                               0000403P0000203
100,0.,0.,0.,3.,0.,3.,0.;                                        0000405P0000204
124,1.,0.,0.,52.,0.,-1.,0.,66.,0.,0.,-1.,2.;                     0000407P0000205
144,411,1,0,419;                                                 0000409P0000206
120,415,417,4.71238898,6.283185307;                              0000411P0000207
124,0.,0.,1.,-2.,0.,-1.,0.,3.,1.,0.,0.,37.;                      0000413P0000208
110,0.,0.,1.,0.,0.,0.;                                           0000415P0000209
110,3.,0.,0.,3.,0.,2.;                                           0000417P0000210
142,0,411,0,421,2;                                               0000419P0000211
102,4,423,427,429,433;                                           0000421P0000212
100,0.,0.,0.,3.,0.,0.,3.;                                        0000423P0000213
124,0.,0.,1.,-2.,0.,-1.,0.,3.,1.,0.,0.,37.;                      0000425P0000214
110,-2.,-4.4E-16,37.,0.,-4.4E-16,37.;                            0000427P0000215
100,0.,0.,0.,0.,-3.,3.,-8.881784197E-16;                         0000429P0000216
124,0.,0.,-1.,0.,0.,1.,0.,3.,1.,0.,0.,37.;                       0000431P0000217
110,0.,3.,40.,-2.,3.,40.;                                        0000433P0000218
144,437,1,3,439,459,465,471;                                     0000435P0000219
108,1.,0.,0.,0.,0,0.,0.,0.,0.;                                   0000437P0000220
142,0,437,0,441,2;                                               0000439P0000221
102,6,443,445,447,449,453,455;                                   0000441P0000222
110,0.,0.,37.,0.,0.,2.;                                          0000443P0000223
110,0.,0.,2.,0.,130.,2.;                                         0000445P0000224
110,0.,130.,2.,0.,130.,37.;                                      0000447P0000225
100,0.,0.,0.,0.,-3.,3.,0.;                                       0000449P0000226
124,0.,0.,1.,0.,0.,-1.,-0.,127.,1.,0.,0.,37.;                    0000451P0000227
110,0.,127.,40.,0.,3.,40.;                                       0000453P0000228
100,0.,0.,0.,3.,0.,0.,3.;                                        0000455P0000229
124,0.,0.,1.,0.,0.,-1.,0.,3.,1.,0.,0.,37.;                       0000457P0000230
142,0,437,0,461,2;                                               0000459P0000231
100,0.,0.,0.,5.,0.,5.,0.;                                        0000461P0000232
124,2.2E-16,0.,-1.,0.,0.,-1.,0.,110.,-1.,0.,-2.2E-16,25.;        0000463P0000233
142,0,437,0,467,2;                                               0000465P0000234
100,0.,0.,0.,5.,0.,5.,0.;                                        0000467P0000235
124,2.2E-16,0.,-1.,0.,0.,-1.,0.,65.,-1.,0.,-2.2E-16,25.;         0000469P0000236
142,0,437,0,473,2;                                               0000471P0000237
100,0.,0.,0.,5.,0.,5.,0.;                                        0000473P0000238
124,2.2E-16,0.,-1.,0.,0.,-1.,0.,21.,-1.,0.,-2.2E-16,25.;         0000475P0000239
144,479,1,0,481;                                                 0000477P0000240
108,0.,1.,0.,130.,0,-2.,130.,0.,0.;                              0000479P0000241
142,0,479,0,483,2;                                               0000481P0000242
102,5,485,487,489,491,493;                                       0000483P0000243
110,0.,130.,37.,0.,130.,2.;                                      0000485P0000244
110,0.,130.,2.,0.,130.,0.;                                       0000487P0000245
110,0.,130.,0.,-2.,130.,0.;                                      0000489P0000246
110,-2.,130.,0.,-2.,130.,37.;                                    0000491P0000247
110,-2.,130.,37.,0.,130.,37.;                                    0000493P0000248
144,497,1,0,499;                                                 0000495P0000249
108,0.866185586,0.499722453,-0.,64.963918954,0,15.,104.,0.,0.;   0000497P0000250
142,0,497,0,501,2;                                               0000499P0000251
102,4,503,505,507,509;                                           0000501P0000252
110,0.,130.,2.,15.,104.,2.;                                      0000503P0000253
110,15.,104.,2.,15.,104.,0.;                                     0000505P0000254
110,15.,104.,0.,0.,130.,0.;                                      0000507P0000255
110,0.,130.,0.,0.,130.,2.;                                       0000509P0000256
144,513,1,0,515;                                                 0000511P0000257
108,-0.,1.,-0.,104.,0,55.,104.,0.,0.;                            0000513P0000258
142,0,513,0,517,2;                                               0000515P0000259
102,4,519,521,523,525;                                           0000517P0000260
110,15.,104.,2.,55.,104.,2.;                                     0000519P0000261
110,55.,104.,2.,55.,104.,0.;                                     0000521P0000262
110,55.,104.,0.,15.,104.,0.;                                     0000523P0000263
110,15.,104.,0.,15.,104.,2.;                                     0000525P0000264
144,529,1,0,531;                                                 0000527P0000265
108,-0.866185586,0.499722453,-0.,4.33092793,0,70.,130.,0.,0.;    0000529P0000266
142,0,529,0,533,2;                                               0000531P0000267
102,4,535,537,539,541;                                           0000533P0000268
110,55.,104.,2.,70.,130.,2.;                                     0000535P0000269
110,70.,130.,2.,70.,130.,0.;                                     0000537P0000270
110,70.,130.,0.,55.,104.,0.;                                     0000539P0000271
110,55.,104.,0.,55.,104.,2.;                                     0000541P0000272
144,545,1,0,553;                                                 0000543P0000273
120,549,551,-6.283185307,0.;                                     0000545P0000274
124,1.,0.,0.,52.,0.,1.,0.,42.,0.,0.,-1.,0.;                      0000547P0000275
110,0.,0.,1.,0.,0.,0.;                                           0000549P0000276
110,3.,0.,-2.,3.,0.,0.;                                          0000551P0000277
142,0,545,0,555,2;                                               0000553P0000278
102,4,557,559,563,565;                                           0000555P0000279
110,55.,42.,0.,55.,42.,2.;                                       0000557P0000280
100,0.,0.,0.,3.,0.,3.,0.;                                        0000559P0000281
124,1.,0.,0.,52.,0.,1.,0.,42.,0.,0.,1.,2.;                       0000561P0000282
110,55.,42.,2.,55.,42.,0.;                                       0000563P0000283
100,0.,0.,0.,3.,0.,3.,0.;                                        0000565P0000284
124,1.,0.,0.,52.,0.,-1.,0.,42.,0.,0.,-1.,0.;                     0000567P0000285
144,571,1,0,579;                                                 0000569P0000286
120,575,577,-6.283185307,0.;                                     0000571P0000287
124,1.,0.,0.,18.,0.,1.,0.,42.,0.,0.,-1.,0.;                      0000573P0000288
110,0.,0.,1.,0.,0.,0.;                                           0000575P0000289
110,3.,0.,-2.,3.,0.,0.;                                          0000577P0000290
142,0,571,0,581,2;                                               0000579P0000291
102,4,583,585,589,591;                                           0000581P0000292
110,21.,42.,0.,21.,42.,2.;                                       0000583P0000293
100,0.,0.,0.,3.,0.,3.,0.;                                        0000585P0000294
124,1.,0.,0.,18.,0.,1.,0.,42.,0.,0.,1.,2.;                       0000587P0000295
110,21.,42.,2.,21.,42.,0.;                                       0000589P0000296
100,0.,0.,0.,3.,0.,3.,0.;                                        0000591P0000297
124,1.,0.,0.,18.,0.,-1.,0.,42.,0.,0.,-1.,0.;                     0000593P0000298
144,597,1,0,605;                                                 0000595P0000299
120,601,603,-6.283185307,0.;                                     0000597P0000300
124,1.,0.,0.,18.,0.,1.,0.,66.,0.,0.,-1.,0.;                      0000599P0000301
110,0.,0.,1.,0.,0.,0.;                                           0000601P0000302
110,3.,0.,-2.,3.,0.,0.;                                          0000603P0000303
142,0,597,0,607,2;                                               0000605P0000304
102,4,609,611,615,617;                                           0000607P0000305
110,21.,66.,0.,21.,66.,2.;                                       0000609P0000306
100,0.,0.,0.,3.,0.,3.,0.;                                        0000611P0000307
124,1.,0.,0.,18.,0.,1.,0.,66.,0.,0.,1.,2.;                       0000613P0000308
110,21.,66.,2.,21.,66.,0.;                                       0000615P0000309
100,0.,0.,0.,3.,0.,3.,0.;                                        0000617P0000310
124,1.,0.,0.,18.,0.,-1.,0.,66.,0.,0.,-1.,0.;                     0000619P0000311
144,623,1,0,631;                                                 0000621P0000312
120,627,629,-6.283185307,0.;                                     0000623P0000313
124,1.,0.,0.,52.,0.,1.,0.,66.,0.,0.,-1.,0.;                      0000625P0000314
110,0.,0.,1.,0.,0.,0.;                                           0000627P0000315
110,3.,0.,-2.,3.,0.,0.;                                          0000629P0000316
142,0,623,0,633,2;                                               0000631P0000317
102,4,635,637,641,643;                                           0000633P0000318
110,55.,66.,0.,55.,66.,2.;                                       0000635P0000319
100,0.,0.,0.,3.,0.,3.,0.;                                        0000637P0000320
124,1.,0.,0.,52.,0.,1.,0.,66.,0.,0.,1.,2.;                       0000639P0000321
110,55.,66.,2.,55.,66.,0.;                                       0000641P0000322
100,0.,0.,0.,3.,0.,3.,0.;                                        0000643P0000323
124,1.,0.,0.,52.,0.,-1.,0.,66.,0.,0.,-1.,0.;                     0000645P0000324
144,649,1,0,651;                                                 0000647P0000325
108,0.,0.,1.,40.,0,-2.,0.,40.,0.;                                0000649P0000326
142,0,649,0,653,2;                                               0000651P0000327
102,4,655,657,659,661;                                           0000653P0000328
110,-2.,127.,40.,-2.,3.,40.;                                     0000655P0000329
110,-2.,3.,40.,0.,3.,40.;                                        0000657P0000330
110,0.,3.,40.,0.,127.,40.;                                       0000659P0000331
110,0.,127.,40.,-2.,127.,40.;                                    0000661P0000332
144,665,1,0,673;                                                 0000663P0000333
120,669,671,6.283185307,7.853981634;                             0000665P0000334
124,0.,0.,1.,-2.,0.,-1.,0.,127.,1.,0.,0.,37.;                    0000667P0000335
110,0.,0.,1.,0.,0.,0.;                                           0000669P0000336
110,3.,0.,0.,3.,0.,2.;                                           0000671P0000337
142,0,665,0,675,2;                                               0000673P0000338
102,4,677,681,683,687;                                           0000675P0000339
100,0.,0.,0.,3.,0.,0.,3.;                                        0000677P0000340
124,0.,0.,-1.,0.,0.,1.,0.,127.,1.,0.,0.,37.;                     0000679P0000341
110,0.,130.,37.,-2.,130.,37.;                                    0000681P0000342
100,0.,0.,0.,0.,-3.,3.,0.;                                       0000683P0000343
124,0.,0.,1.,-2.,0.,-1.,-0.,127.,1.,0.,0.,37.;                   0000685P0000344
110,-2.,127.,40.,0.,127.,40.;                                    0000687P0000345
144,691,1,0,699;                                                 0000689P0000346
120,695,697,-6.283185307,0.;                                     0000691P0000347
124,0.,0.,-1.,-10.,0.,1.,0.,110.,-1.,0.,0.,25.;                  0000693P0000348
110,0.,0.,1.,0.,0.,0.;                                           0000695P0000349
110,5.,0.,-10.,5.,0.,-8.;                                        0000697P0000350
142,0,691,0,701,2;                                               0000699P0000351
102,4,703,707,709,713;                                           0000701P0000352
100,0.,0.,0.,5.,0.,5.,0.;                                        0000703P0000353
124,2.2E-16,0.,-1.,-2.,0.,-1.,0.,110.,-1.,0.,-2.2E-16,25.;       0000705P0000354
110,-2.,110.,20.,-1.776356839E-15,110.,20.;                      0000707P0000355
100,0.,0.,0.,5.,0.,5.,0.;                                        0000709P0000356
124,2.2E-16,0.,1.,0.,0.,1.,0.,110.,-1.,0.,2.2E-16,25.;           0000711P0000357
110,-1.776356839E-15,110.,20.,-2.,110.,20.;                      0000713P0000358
144,717,1,0,725;                                                 0000715P0000359
120,721,723,-6.283185307,0.;                                     0000717P0000360
124,0.,0.,-1.,-10.,0.,1.,0.,65.,-1.,0.,0.,25.;                   0000719P0000361
110,0.,0.,1.,0.,0.,0.;                                           0000721P0000362
110,5.,0.,-10.,5.,0.,-8.;                                        0000723P0000363
142,0,717,0,727,2;                                               0000725P0000364
102,4,729,733,735,739;                                           0000727P0000365
100,0.,0.,0.,5.,0.,5.,0.;                                        0000729P0000366
124,2.2E-16,0.,-1.,-2.,0.,-1.,0.,65.,-1.,0.,-2.2E-16,25.;        0000731P0000367
110,-2.,65.,20.,-1.776356839E-15,65.,20.;                        0000733P0000368
100,0.,0.,0.,5.,0.,5.,0.;                                        0000735P0000369
124,2.2E-16,0.,1.,0.,0.,1.,0.,65.,-1.,0.,2.2E-16,25.;            0000737P0000370
110,-1.776356839E-15,65.,20.,-2.,65.,20.;                        0000739P0000371
144,743,1,0,751;                                                 0000741P0000372
120,747,749,-6.283185307,0.;                                     0000743P0000373
124,0.,0.,-1.,-10.,0.,1.,0.,21.,-1.,0.,0.,25.;                   0000745P0000374
110,0.,0.,1.,0.,0.,0.;                                           0000747P0000375
110,5.,0.,-10.,5.,0.,-8.;                                        0000749P0000376
142,0,743,0,753,2;                                               0000751P0000377
102,4,755,759,761,765;                                           0000753P0000378
100,0.,0.,0.,5.,0.,5.,0.;                                        0000755P0000379
124,2.2E-16,0.,-1.,-2.,0.,-1.,0.,21.,-1.,0.,-2.2E-16,25.;        0000757P0000380
110,-2.,21.,20.,-1.776356839E-15,21.,20.;                        0000759P0000381
100,0.,0.,0.,5.,0.,5.,0.;                                        0000761P0000382
124,2.2E-16,0.,1.,0.,0.,1.,0.,21.,-1.,0.,2.2E-16,25.;            0000763P0000383
110,-1.776356839E-15,21.,20.,-2.,21.,20.;                        0000765P0000384
S      1G      4D    766P    384                                        T0000001
