M48
INCH,TZ
T1C0.0157
T2C0.0295
T3C0.0315
T4C0.0374
T5C0.0394
T6C0.0433
T7C0.0689
T8C0.0984
T9C0.1260
%
G90
G05
T1
X16900Y-13100
X17600Y-26100
X17700Y-30200
X18100Y-12900
X20200Y-10600
X24600Y-20700
X24800Y-15100
X25800Y-23200
X26400Y-20700
X28000Y-23200
X35200Y-23200
X37700Y-17800
X42500Y-23500
X46400Y-17800
T2
X20558Y-32400
X20558Y-33400
X20560Y-21300
X20560Y-22300
X20568Y-15750
X20568Y-16750
X20570Y-26960
X20570Y-27960
X21058Y-32900
X21060Y-21800
X21068Y-16250
X21070Y-27460
T3
X15069Y-14185
X15069Y-17185
X15069Y-19746
X15069Y-22746
X15069Y-25406
X15069Y-28406
X15069Y-30937
X15069Y-33937
X16069Y-14185
X16069Y-17185
X16069Y-19746
X16069Y-22746
X16069Y-25406
X16069Y-28406
X16069Y-30937
X16069Y-33937
X17069Y-14185
X17069Y-17185
X17069Y-19746
X17069Y-22746
X17069Y-25406
X17069Y-28406
X17069Y-30937
X17069Y-33937
X18069Y-14185
X18069Y-17185
X18069Y-19746
X18069Y-22746
X18069Y-25406
X18069Y-28406
X18069Y-30937
X18069Y-33937
X18900Y-8200
X18900Y-9200
X18900Y-10200
X18900Y-11200
X21900Y-8200
X21900Y-9200
X21900Y-10200
X21900Y-11200
X29528Y-14646
X29528Y-20646
X30528Y-14646
X30528Y-20646
X31528Y-14646
X31528Y-20646
X32528Y-14646
X32528Y-20646
X33528Y-14646
X33528Y-20646
X34321Y-12628
X34528Y-14646
X34528Y-20646
X35321Y-12628
X35528Y-14646
X35528Y-20646
X36321Y-12628
X36528Y-14646
X36528Y-20646
X37321Y-12628
X37528Y-14646
X37528Y-20646
X38321Y-12628
X38528Y-14646
X38528Y-20646
X39321Y-12628
X39528Y-14646
X39528Y-20646
X40528Y-14646
X40528Y-20646
X41528Y-14646
X41528Y-20646
X42528Y-14646
X42528Y-20646
X43528Y-14646
X43528Y-20646
X44528Y-14646
X44528Y-20646
X45528Y-14646
X45528Y-20646
X46528Y-14646
X46528Y-20646
X47232Y-12618
X47528Y-14646
X47528Y-20646
X48232Y-12618
X48528Y-14646
X48528Y-20646
X49232Y-12618
X50232Y-12618
T4
X9100Y-8307
X9100Y-9291
X9100Y-10276
X9100Y-11260
X9100Y-12244
T5
X19610Y-42274
X19610Y-47687
X19620Y-50159
X19620Y-55520
X19620Y-53209
X19640Y-44720
X20344Y-35220
X20344Y-36220
X20344Y-37220
X20610Y-42274
X20610Y-47687
X20620Y-50159
X20620Y-55520
X20620Y-53209
X20640Y-44720
X25318Y-14190
X25318Y-19750
X25320Y-25400
X25320Y-32910
X25322Y-16250
X25322Y-21800
X25322Y-27460
X25328Y-30940
X26318Y-14190
X26318Y-19750
X26320Y-25400
X26320Y-32910
X26322Y-16250
X26322Y-21800
X26322Y-27460
X26328Y-30940
X29486Y-24511
X29528Y-7800
X29528Y-8800
X29986Y-26511
X30486Y-24511
X30986Y-26511
X31486Y-24511
X31890Y-7800
X31890Y-8800
X31986Y-26511
X32486Y-24511
X32986Y-26511
X33486Y-24511
X33986Y-26511
X34252Y-7798
X34252Y-8798
X34486Y-24511
X34986Y-26511
X35486Y-24511
X35986Y-26511
X36486Y-24511
X36614Y-7798
X36614Y-8798
X37874Y-21941
X37874Y-22941
X37874Y-23941
X37874Y-24941
X37874Y-25941
X38976Y-7798
X38976Y-8798
X40197Y-21945
X40197Y-22945
X40197Y-23945
X40197Y-24945
X40197Y-25945
X40420Y-42280
X40420Y-53220
X40422Y-44800
X40422Y-47700
X40422Y-50160
X40440Y-55560
X41339Y-7798
X41339Y-8798
X41420Y-42280
X41420Y-53220
X41422Y-44800
X41422Y-47700
X41422Y-50160
X41440Y-55560
X41508Y-24511
X42008Y-26511
X42508Y-24511
X43008Y-26511
X43508Y-24511
X43701Y-7798
X43701Y-8798
X44008Y-26511
X44508Y-24511
X45008Y-26511
X45508Y-24511
X46008Y-26511
X46508Y-24511
X47008Y-26511
X47244Y-7798
X47244Y-8798
X47508Y-24511
X48008Y-26511
X48508Y-24511
X49606Y-7798
X49606Y-8798
X50246Y-21945
X50246Y-22945
X50246Y-23945
X50246Y-24945
X50246Y-25945
X51969Y-7795
X51969Y-8795
X52303Y-12559
X52303Y-13559
X52303Y-14559
X52303Y-15559
X52612Y-18000
X52612Y-19000
X52612Y-20000
X53612Y-18000
X53612Y-19000
X53612Y-20000
X54331Y-7798
X54331Y-8798
X56693Y-7795
X56693Y-8795
X59055Y-7795
X59055Y-8795
X60821Y-31358
X60860Y-24281
X60860Y-33848
X60866Y-26467
X60870Y-21988
X60870Y-29203
X60898Y-37850
X60907Y-35508
X61202Y-50120
X61220Y-44720
X61220Y-53200
X61220Y-55580
X61222Y-42260
X61222Y-47680
X61821Y-31358
X61860Y-24281
X61860Y-33848
X61866Y-26467
X61870Y-21988
X61870Y-29203
X61898Y-37850
X61907Y-35508
X62202Y-50120
X62220Y-44720
X62220Y-53200
X62220Y-55580
X62222Y-42260
X62222Y-47680
T6
X11309Y-53278
X11309Y-54278
X11309Y-55278
X11311Y-42344
X11311Y-43344
X11311Y-44344
X11321Y-47757
X11321Y-48757
X11321Y-49757
X12055Y-15112
X12055Y-16112
X12055Y-17112
X12055Y-20181
X12055Y-21181
X12055Y-22181
X12057Y-25585
X12057Y-26585
X12057Y-27585
X12057Y-31713
X12057Y-32713
X12057Y-33713
X14537Y-54291
X14547Y-48763
X14547Y-43307
X15537Y-54291
X15547Y-48763
X15547Y-43307
X15804Y-8936
X15804Y-9936
X15804Y-10936
X16537Y-54291
X16547Y-48763
X16547Y-43307
X32100Y-42320
X32100Y-43320
X32100Y-44320
X32100Y-47760
X32100Y-48760
X32100Y-49760
X32100Y-53280
X32100Y-54280
X32100Y-55280
X35340Y-43300
X35340Y-48760
X35340Y-54280
X36340Y-43300
X36340Y-48760
X36340Y-54280
X37340Y-43300
X37340Y-48760
X37340Y-54280
X52900Y-42300
X52900Y-43300
X52900Y-44300
X52900Y-53260
X52900Y-54260
X52900Y-55260
X52908Y-47760
X52908Y-48760
X52908Y-49760
X56140Y-43320
X56140Y-48760
X56140Y-54300
X57140Y-43320
X57140Y-48760
X57140Y-54300
X58140Y-43320
X58140Y-48760
X58140Y-54300
X58740Y-36024
X58740Y-37024
X58740Y-38024
X58742Y-31835
X58742Y-32835
X58742Y-33835
X58750Y-21988
X58750Y-22988
X58750Y-23988
X58750Y-26937
X58750Y-27937
X58750Y-28937
T7
X9104Y-14833
X9104Y-16959
X9104Y-20085
X9104Y-22211
X9104Y-25305
X9104Y-27431
X9104Y-31545
X9104Y-33671
X9104Y-42766
X9104Y-44892
X9104Y-48219
X9104Y-50344
X9104Y-53750
X9104Y-55876
X29900Y-42780
X29900Y-44906
X29900Y-48220
X29900Y-50346
X29900Y-53760
X29900Y-55886
X50680Y-42780
X50680Y-44906
X50700Y-48240
X50700Y-50366
X50700Y-53760
X50700Y-55886
X56565Y-21890
X56565Y-24016
X56573Y-35803
X56573Y-37929
X56575Y-26959
X56575Y-29085
X56575Y-31555
X56575Y-33681
T8
X28435Y-29592
X38435Y-29592
X40492Y-29592
X50492Y-29592
T9
X9055Y-37795
X26378Y-9843
X26378Y-55512
X47244Y-55512
X51969Y-37795
X61811Y-14173
M30
