G04 #@! TF.GenerationSoftware,KiCad,Pcbnew,8.0.2-8.0.2-0~ubuntu24.04.1*
G04 #@! TF.CreationDate,2024-04-29T20:29:20+02:00*
G04 #@! TF.ProjectId,astrobox_control,61737472-6f62-46f7-985f-636f6e74726f,1*
G04 #@! TF.SameCoordinates,Original*
G04 #@! TF.FileFunction,Soldermask,Top*
G04 #@! TF.FilePolarity,Negative*
%FSLAX46Y46*%
G04 Gerber Fmt 4.6, Leading zero omitted, Abs format (unit mm)*
G04 Created by KiCad (PCBNEW 8.0.2-8.0.2-0~ubuntu24.04.1) date 2024-04-29 20:29:20*
%MOMM*%
%LPD*%
G01*
G04 APERTURE LIST*
G04 Aperture macros list*
%AMRoundRect*
0 Rectangle with rounded corners*
0 $1 Rounding radius*
0 $2 $3 $4 $5 $6 $7 $8 $9 X,Y pos of 4 corners*
0 Add a 4 corners polygon primitive as box body*
4,1,4,$2,$3,$4,$5,$6,$7,$8,$9,$2,$3,0*
0 Add four circle primitives for the rounded corners*
1,1,$1+$1,$2,$3*
1,1,$1+$1,$4,$5*
1,1,$1+$1,$6,$7*
1,1,$1+$1,$8,$9*
0 Add four rect primitives between the rounded corners*
20,1,$1+$1,$2,$3,$4,$5,0*
20,1,$1+$1,$4,$5,$6,$7,0*
20,1,$1+$1,$6,$7,$8,$9,0*
20,1,$1+$1,$8,$9,$2,$3,0*%
G04 Aperture macros list end*
%ADD10R,1.905000X2.000000*%
%ADD11O,1.905000X2.000000*%
%ADD12RoundRect,0.250000X-0.650000X0.412500X-0.650000X-0.412500X0.650000X-0.412500X0.650000X0.412500X0*%
%ADD13R,1.300000X1.300000*%
%ADD14C,1.300000*%
%ADD15RoundRect,0.250000X-0.400000X-0.625000X0.400000X-0.625000X0.400000X0.625000X-0.400000X0.625000X0*%
%ADD16R,1.700000X1.700000*%
%ADD17O,1.700000X1.700000*%
%ADD18RoundRect,0.250000X-0.625000X0.400000X-0.625000X-0.400000X0.625000X-0.400000X0.625000X0.400000X0*%
%ADD19RoundRect,0.250000X-1.125000X1.125000X-1.125000X-1.125000X1.125000X-1.125000X1.125000X1.125000X0*%
%ADD20C,2.750000*%
%ADD21RoundRect,0.250000X0.650000X-0.412500X0.650000X0.412500X-0.650000X0.412500X-0.650000X-0.412500X0*%
%ADD22RoundRect,0.250000X0.400000X0.625000X-0.400000X0.625000X-0.400000X-0.625000X0.400000X-0.625000X0*%
%ADD23R,2.000000X1.905000*%
%ADD24O,2.000000X1.905000*%
%ADD25C,6.400000*%
%ADD26RoundRect,0.250000X0.650000X-1.500000X0.650000X1.500000X-0.650000X1.500000X-0.650000X-1.500000X0*%
%ADD27R,1.600000X1.600000*%
%ADD28O,1.600000X1.600000*%
%ADD29RoundRect,0.250000X0.412500X0.650000X-0.412500X0.650000X-0.412500X-0.650000X0.412500X-0.650000X0*%
%ADD30RoundRect,0.250000X-0.412500X-0.650000X0.412500X-0.650000X0.412500X0.650000X-0.412500X0.650000X0*%
%ADD31RoundRect,0.250000X1.125000X-1.125000X1.125000X1.125000X-1.125000X1.125000X-1.125000X-1.125000X0*%
%ADD32R,1.800000X1.800000*%
%ADD33O,1.800000X1.800000*%
%ADD34RoundRect,0.250000X-0.650000X1.500000X-0.650000X-1.500000X0.650000X-1.500000X0.650000X1.500000X0*%
%ADD35RoundRect,0.250000X0.625000X-0.400000X0.625000X0.400000X-0.625000X0.400000X-0.625000X-0.400000X0*%
%ADD36RoundRect,0.250000X-1.500000X-0.650000X1.500000X-0.650000X1.500000X0.650000X-1.500000X0.650000X0*%
%ADD37RoundRect,0.250000X1.500000X0.650000X-1.500000X0.650000X-1.500000X-0.650000X1.500000X-0.650000X0*%
%ADD38C,4.000000*%
%ADD39RoundRect,0.250000X0.725000X-0.600000X0.725000X0.600000X-0.725000X0.600000X-0.725000X-0.600000X0*%
%ADD40O,1.950000X1.700000*%
G04 APERTURE END LIST*
D10*
G04 #@! TO.C,U15*
X94843600Y-109982000D03*
D11*
X92303600Y-109982000D03*
X89763600Y-109982000D03*
G04 #@! TD*
D12*
G04 #@! TO.C,C12*
X119200000Y-87200000D03*
X119200000Y-90325000D03*
G04 #@! TD*
D13*
G04 #@! TO.C,Q7*
X52218000Y-82296000D03*
D14*
X53488000Y-83566000D03*
X52218000Y-84836000D03*
G04 #@! TD*
D15*
G04 #@! TO.C,R11*
X56539800Y-83566000D03*
X59639800Y-83566000D03*
G04 #@! TD*
D16*
G04 #@! TO.C,D13*
X150000000Y-19800000D03*
D17*
X150000000Y-22340000D03*
G04 #@! TD*
D12*
G04 #@! TO.C,C14*
X77450000Y-87187500D03*
X77450000Y-90312500D03*
G04 #@! TD*
D16*
G04 #@! TO.C,SW12*
X120000000Y-19807000D03*
D17*
X120000000Y-22347000D03*
G04 #@! TD*
D18*
G04 #@! TO.C,R22*
X138000000Y-25095200D03*
X138000000Y-28195200D03*
G04 #@! TD*
D19*
G04 #@! TO.C,J22*
X23125000Y-108625000D03*
D20*
X23125000Y-114025000D03*
G04 #@! TD*
D19*
G04 #@! TO.C,J30*
X128778000Y-136550400D03*
D20*
X128778000Y-141950400D03*
G04 #@! TD*
D16*
G04 #@! TO.C,SW9*
X132000000Y-19800000D03*
D17*
X132000000Y-22340000D03*
G04 #@! TD*
D21*
G04 #@! TO.C,C42*
X147675600Y-105968800D03*
X147675600Y-102843800D03*
G04 #@! TD*
D16*
G04 #@! TO.C,SW6*
X144000000Y-19800000D03*
D17*
X144000000Y-22340000D03*
G04 #@! TD*
D22*
G04 #@! TO.C,R48*
X112523200Y-107391200D03*
X109423200Y-107391200D03*
G04 #@! TD*
D16*
G04 #@! TO.C,U9*
X132850000Y-39520000D03*
D17*
X132850000Y-36980000D03*
X132850000Y-34440000D03*
X132850000Y-31900000D03*
G04 #@! TD*
D15*
G04 #@! TO.C,R16*
X83600000Y-93500000D03*
X86700000Y-93500000D03*
G04 #@! TD*
D23*
G04 #@! TO.C,Q8*
X30625000Y-85630000D03*
D24*
X30625000Y-83090000D03*
X30625000Y-80550000D03*
G04 #@! TD*
D25*
G04 #@! TO.C,REF\u002A\u002A*
X132000000Y-96000000D03*
G04 #@! TD*
D15*
G04 #@! TO.C,R43*
X56565200Y-113588800D03*
X59665200Y-113588800D03*
G04 #@! TD*
D26*
G04 #@! TO.C,D12*
X95500000Y-93600000D03*
X95500000Y-88600000D03*
G04 #@! TD*
D15*
G04 #@! TO.C,R7*
X56565200Y-64516000D03*
X59665200Y-64516000D03*
G04 #@! TD*
D27*
G04 #@! TO.C,U6*
X123260000Y-37200000D03*
D28*
X120720000Y-37200000D03*
X118180000Y-37200000D03*
X115640000Y-37200000D03*
X113100000Y-37200000D03*
X110560000Y-37200000D03*
X108020000Y-37200000D03*
X105480000Y-37200000D03*
X102940000Y-37200000D03*
X100400000Y-37200000D03*
X97860000Y-37200000D03*
X95320000Y-37200000D03*
X92780000Y-37200000D03*
X90240000Y-37200000D03*
X87700000Y-37200000D03*
X85160000Y-37200000D03*
X82620000Y-37200000D03*
X80080000Y-37200000D03*
X77540000Y-37200000D03*
X75000000Y-37200000D03*
X75000000Y-52440000D03*
X77540000Y-52440000D03*
X80080000Y-52440000D03*
X82620000Y-52440000D03*
X85160000Y-52440000D03*
X87700000Y-52440000D03*
X90240000Y-52440000D03*
X92780000Y-52440000D03*
X95320000Y-52440000D03*
X97860000Y-52440000D03*
X100400000Y-52440000D03*
X102940000Y-52440000D03*
X105480000Y-52440000D03*
X108020000Y-52440000D03*
X110560000Y-52440000D03*
X113100000Y-52440000D03*
X115640000Y-52440000D03*
X118180000Y-52440000D03*
X120720000Y-52440000D03*
X123260000Y-52440000D03*
G04 #@! TD*
D13*
G04 #@! TO.C,Q3*
X52222400Y-54102000D03*
D14*
X53492400Y-55372000D03*
X52222400Y-56642000D03*
G04 #@! TD*
D16*
G04 #@! TO.C,SW20*
X52374800Y-127403938D03*
D17*
X49834800Y-127403938D03*
G04 #@! TD*
D19*
G04 #@! TO.C,J28*
X75946000Y-108661200D03*
D20*
X75946000Y-114061200D03*
G04 #@! TD*
D19*
G04 #@! TO.C,J24*
X75946000Y-136550400D03*
D20*
X75946000Y-141950400D03*
G04 #@! TD*
D21*
G04 #@! TO.C,C32*
X94843600Y-133756400D03*
X94843600Y-130631400D03*
G04 #@! TD*
D23*
G04 #@! TO.C,Q19*
X134366000Y-135280400D03*
D24*
X134366000Y-137820400D03*
X134366000Y-140360400D03*
G04 #@! TD*
D15*
G04 #@! TO.C,R2*
X56539800Y-41275000D03*
X59639800Y-41275000D03*
G04 #@! TD*
D16*
G04 #@! TO.C,D28*
X158043800Y-107340400D03*
D17*
X155503800Y-107340400D03*
G04 #@! TD*
D12*
G04 #@! TO.C,C23*
X87000000Y-25095200D03*
X87000000Y-28220200D03*
G04 #@! TD*
D29*
G04 #@! TO.C,C5*
X40662500Y-60550000D03*
X37537500Y-60550000D03*
G04 #@! TD*
D16*
G04 #@! TO.C,D14*
X138000000Y-19807000D03*
D17*
X138000000Y-22347000D03*
G04 #@! TD*
D12*
G04 #@! TO.C,C24*
X81000000Y-25095200D03*
X81000000Y-28220200D03*
G04 #@! TD*
D22*
G04 #@! TO.C,R50*
X165355200Y-135178800D03*
X162255200Y-135178800D03*
G04 #@! TD*
G04 #@! TO.C,R12*
X46635000Y-88544400D03*
X43535000Y-88544400D03*
G04 #@! TD*
D23*
G04 #@! TO.C,Q16*
X81534000Y-135331200D03*
D24*
X81534000Y-137871200D03*
X81534000Y-140411200D03*
G04 #@! TD*
D15*
G04 #@! TO.C,R39*
X56539200Y-141020800D03*
X59639200Y-141020800D03*
G04 #@! TD*
D21*
G04 #@! TO.C,C36*
X94843600Y-105956500D03*
X94843600Y-102831500D03*
G04 #@! TD*
D15*
G04 #@! TO.C,R8*
X56539800Y-69748400D03*
X59639800Y-69748400D03*
G04 #@! TD*
D16*
G04 #@! TO.C,SW13*
X81000000Y-19812000D03*
D17*
X81000000Y-22352000D03*
G04 #@! TD*
D12*
G04 #@! TO.C,C43*
X142595600Y-102843800D03*
X142595600Y-105968800D03*
G04 #@! TD*
G04 #@! TO.C,C18*
X105000000Y-25100000D03*
X105000000Y-28225000D03*
G04 #@! TD*
D23*
G04 #@! TO.C,Q21*
X134366000Y-107442000D03*
D24*
X134366000Y-109982000D03*
X134366000Y-112522000D03*
G04 #@! TD*
D15*
G04 #@! TO.C,R5*
X56539800Y-55372000D03*
X59639800Y-55372000D03*
G04 #@! TD*
D10*
G04 #@! TO.C,U14*
X94843600Y-123850400D03*
D11*
X92303600Y-123850400D03*
X89763600Y-123850400D03*
G04 #@! TD*
D16*
G04 #@! TO.C,SW2*
X66857800Y-55372000D03*
D17*
X64317800Y-55372000D03*
G04 #@! TD*
D12*
G04 #@! TO.C,C16*
X144000000Y-25150000D03*
X144000000Y-28275000D03*
G04 #@! TD*
G04 #@! TO.C,C21*
X93000000Y-25095200D03*
X93000000Y-28220200D03*
G04 #@! TD*
D16*
G04 #@! TO.C,SW16*
X157150000Y-55850000D03*
D17*
X154610000Y-55850000D03*
G04 #@! TD*
D16*
G04 #@! TO.C,SW3*
X66857800Y-69748400D03*
D17*
X64317800Y-69748400D03*
G04 #@! TD*
D22*
G04 #@! TO.C,R44*
X112523200Y-135178800D03*
X109423200Y-135178800D03*
G04 #@! TD*
D16*
G04 #@! TO.C,SW11*
X87000000Y-19807000D03*
D17*
X87000000Y-22347000D03*
G04 #@! TD*
D15*
G04 #@! TO.C,R55*
X162204400Y-113588800D03*
X165304400Y-113588800D03*
G04 #@! TD*
D30*
G04 #@! TO.C,C8*
X48437000Y-64516000D03*
X51562000Y-64516000D03*
G04 #@! TD*
D23*
G04 #@! TO.C,Q13*
X28725000Y-135325000D03*
D24*
X28725000Y-137865000D03*
X28725000Y-140405000D03*
G04 #@! TD*
D31*
G04 #@! TO.C,J5*
X23125000Y-85525000D03*
D20*
X23125000Y-80125000D03*
G04 #@! TD*
D32*
G04 #@! TO.C,U7*
X123210000Y-62257500D03*
D33*
X121940000Y-67337500D03*
X120670000Y-62257500D03*
X119400000Y-67337500D03*
X118130000Y-62257500D03*
X116860000Y-67337500D03*
X115590000Y-62257500D03*
X114320000Y-67337500D03*
X113050000Y-62257500D03*
X111780000Y-67337500D03*
X110510000Y-62257500D03*
X109240000Y-67337500D03*
X107970000Y-62257500D03*
X106700000Y-67337500D03*
X105430000Y-62257500D03*
G04 #@! TD*
D22*
G04 #@! TO.C,R36*
X166175000Y-85000000D03*
X163075000Y-85000000D03*
G04 #@! TD*
D29*
G04 #@! TO.C,C9*
X40662500Y-88550000D03*
X37537500Y-88550000D03*
G04 #@! TD*
D10*
G04 #@! TO.C,U13*
X94843600Y-137871200D03*
D11*
X92303600Y-137871200D03*
X89763600Y-137871200D03*
G04 #@! TD*
D13*
G04 #@! TO.C,Q1*
X52243400Y-40005000D03*
D14*
X53513400Y-41275000D03*
X52243400Y-42545000D03*
G04 #@! TD*
D16*
G04 #@! TO.C,SW25*
X158038800Y-141173200D03*
D17*
X155498800Y-141173200D03*
G04 #@! TD*
D23*
G04 #@! TO.C,Q4*
X30620000Y-56340000D03*
D24*
X30620000Y-53800000D03*
X30620000Y-51260000D03*
G04 #@! TD*
D16*
G04 #@! TO.C,SW17*
X157140000Y-67225000D03*
D17*
X154600000Y-67225000D03*
G04 #@! TD*
D30*
G04 #@! TO.C,C10*
X48450100Y-78562200D03*
X51575100Y-78562200D03*
G04 #@! TD*
D13*
G04 #@! TO.C,Q5*
X52247800Y-68478400D03*
D14*
X53517800Y-69748400D03*
X52247800Y-71018400D03*
G04 #@! TD*
D16*
G04 #@! TO.C,D4*
X64333200Y-78587600D03*
D17*
X66873200Y-78587600D03*
G04 #@! TD*
D32*
G04 #@! TO.C,U8*
X92675000Y-62257500D03*
D33*
X91405000Y-67337500D03*
X90135000Y-62257500D03*
X88865000Y-67337500D03*
X87595000Y-62257500D03*
X86325000Y-67337500D03*
X85055000Y-62257500D03*
X83785000Y-67337500D03*
X82515000Y-62257500D03*
X81245000Y-67337500D03*
X79975000Y-62257500D03*
X78705000Y-67337500D03*
X77435000Y-62257500D03*
X76165000Y-67337500D03*
X74895000Y-62257500D03*
G04 #@! TD*
D29*
G04 #@! TO.C,C1*
X35750900Y-27736800D03*
X32625900Y-27736800D03*
G04 #@! TD*
D15*
G04 #@! TO.C,R35*
X163050000Y-67225000D03*
X166150000Y-67225000D03*
G04 #@! TD*
D16*
G04 #@! TO.C,SW8*
X99000000Y-19807000D03*
D17*
X99000000Y-22347000D03*
G04 #@! TD*
D27*
G04 #@! TO.C,RN1*
X99875000Y-32075000D03*
D28*
X97335000Y-32075000D03*
X94795000Y-32075000D03*
X92255000Y-32075000D03*
X89715000Y-32075000D03*
X87175000Y-32075000D03*
G04 #@! TD*
D16*
G04 #@! TO.C,J6*
X127625000Y-55740000D03*
D17*
X127625000Y-58280000D03*
X127625000Y-60820000D03*
X127625000Y-63360000D03*
X127625000Y-65900000D03*
G04 #@! TD*
D12*
G04 #@! TO.C,C19*
X132000000Y-25150000D03*
X132000000Y-28275000D03*
G04 #@! TD*
D16*
G04 #@! TO.C,D3*
X64312800Y-64516000D03*
D17*
X66852800Y-64516000D03*
G04 #@! TD*
D16*
G04 #@! TO.C,J9*
X136175000Y-50800000D03*
D17*
X133635000Y-50800000D03*
X136175000Y-48260000D03*
X133635000Y-48260000D03*
X136175000Y-45720000D03*
X133635000Y-45720000D03*
G04 #@! TD*
D15*
G04 #@! TO.C,R53*
X162255200Y-127304800D03*
X165355200Y-127304800D03*
G04 #@! TD*
D16*
G04 #@! TO.C,D21*
X52350000Y-121125000D03*
D17*
X49810000Y-121125000D03*
G04 #@! TD*
D15*
G04 #@! TO.C,R1*
X56565200Y-36017200D03*
X59665200Y-36017200D03*
G04 #@! TD*
D12*
G04 #@! TO.C,C35*
X89814400Y-116610600D03*
X89814400Y-119735600D03*
G04 #@! TD*
D16*
G04 #@! TO.C,D27*
X158043800Y-121107200D03*
D17*
X155503800Y-121107200D03*
G04 #@! TD*
D31*
G04 #@! TO.C,J10*
X143695000Y-96340000D03*
D20*
X143695000Y-90940000D03*
G04 #@! TD*
D16*
G04 #@! TO.C,D16*
X157245000Y-90190000D03*
D17*
X154705000Y-90190000D03*
G04 #@! TD*
D15*
G04 #@! TO.C,R31*
X163145000Y-95290000D03*
X166245000Y-95290000D03*
G04 #@! TD*
D23*
G04 #@! TO.C,Q15*
X28730000Y-107553938D03*
D24*
X28730000Y-110093938D03*
X28730000Y-112633938D03*
G04 #@! TD*
D16*
G04 #@! TO.C,D17*
X157125000Y-61675000D03*
D17*
X154585000Y-61675000D03*
G04 #@! TD*
D10*
G04 #@! TO.C,U12*
X42030000Y-110000000D03*
D11*
X39490000Y-110000000D03*
X36950000Y-110000000D03*
G04 #@! TD*
D23*
G04 #@! TO.C,Q11*
X149225000Y-68420000D03*
D24*
X149225000Y-70960000D03*
X149225000Y-73500000D03*
G04 #@! TD*
D12*
G04 #@! TO.C,C15*
X82550000Y-87187500D03*
X82550000Y-90312500D03*
G04 #@! TD*
D19*
G04 #@! TO.C,J20*
X23125000Y-122475000D03*
D20*
X23125000Y-127875000D03*
G04 #@! TD*
D16*
G04 #@! TO.C,SW24*
X105211800Y-113792000D03*
D17*
X102671800Y-113792000D03*
G04 #@! TD*
D16*
G04 #@! TO.C,D2*
X64307800Y-50165000D03*
D17*
X66847800Y-50165000D03*
G04 #@! TD*
D16*
G04 #@! TO.C,SW7*
X105000000Y-19807000D03*
D17*
X105000000Y-22347000D03*
G04 #@! TD*
D16*
G04 #@! TO.C,D15*
X126000000Y-19807000D03*
D17*
X126000000Y-22347000D03*
G04 #@! TD*
D12*
G04 #@! TO.C,C27*
X36950000Y-130662500D03*
X36950000Y-133787500D03*
G04 #@! TD*
D10*
G04 #@! TO.C,U10*
X42005000Y-137900000D03*
D11*
X39465000Y-137900000D03*
X36925000Y-137900000D03*
G04 #@! TD*
D16*
G04 #@! TO.C,SW1*
X66857800Y-41275000D03*
D17*
X64317800Y-41275000D03*
G04 #@! TD*
D30*
G04 #@! TO.C,C6*
X48437000Y-50165000D03*
X51562000Y-50165000D03*
G04 #@! TD*
D34*
G04 #@! TO.C,D7*
X137750000Y-60800000D03*
X137750000Y-65800000D03*
G04 #@! TD*
D22*
G04 #@! TO.C,R9*
X46660400Y-74625200D03*
X43560400Y-74625200D03*
G04 #@! TD*
D21*
G04 #@! TO.C,C38*
X147675600Y-133744100D03*
X147675600Y-130619100D03*
G04 #@! TD*
D18*
G04 #@! TO.C,R25*
X126000000Y-25150000D03*
X126000000Y-28250000D03*
G04 #@! TD*
D12*
G04 #@! TO.C,C33*
X89763600Y-130631400D03*
X89763600Y-133756400D03*
G04 #@! TD*
G04 #@! TO.C,C39*
X142595600Y-130631400D03*
X142595600Y-133756400D03*
G04 #@! TD*
D16*
G04 #@! TO.C,J8*
X96200000Y-55730000D03*
D17*
X96200000Y-58270000D03*
X96200000Y-60810000D03*
X96200000Y-63350000D03*
X96200000Y-65890000D03*
G04 #@! TD*
D25*
G04 #@! TO.C,REF\u002A\u002A*
X157000000Y-36000000D03*
G04 #@! TD*
D12*
G04 #@! TO.C,C20*
X99000000Y-25100000D03*
X99000000Y-28225000D03*
G04 #@! TD*
D29*
G04 #@! TO.C,C3*
X40650000Y-46482000D03*
X37525000Y-46482000D03*
G04 #@! TD*
D26*
G04 #@! TO.C,D9*
X101800000Y-93600000D03*
X101800000Y-88600000D03*
G04 #@! TD*
D23*
G04 #@! TO.C,Q20*
X134386200Y-121310400D03*
D24*
X134386200Y-123850400D03*
X134386200Y-126390400D03*
G04 #@! TD*
D15*
G04 #@! TO.C,R45*
X109397200Y-141122400D03*
X112497200Y-141122400D03*
G04 #@! TD*
G04 #@! TO.C,R41*
X56565200Y-127406400D03*
X59665200Y-127406400D03*
G04 #@! TD*
D23*
G04 #@! TO.C,Q2*
X30620000Y-43465000D03*
D24*
X30620000Y-40925000D03*
X30620000Y-38385000D03*
G04 #@! TD*
D16*
G04 #@! TO.C,D1*
X64307800Y-36042600D03*
D17*
X66847800Y-36042600D03*
G04 #@! TD*
D21*
G04 #@! TO.C,C30*
X42025000Y-106025000D03*
X42025000Y-102900000D03*
G04 #@! TD*
D23*
G04 #@! TO.C,Q10*
X149225000Y-55850000D03*
D24*
X149225000Y-58390000D03*
X149225000Y-60930000D03*
G04 #@! TD*
D15*
G04 #@! TO.C,R33*
X163000000Y-55850000D03*
X166100000Y-55850000D03*
G04 #@! TD*
D16*
G04 #@! TO.C,SW15*
X157220000Y-96140000D03*
D17*
X154680000Y-96140000D03*
G04 #@! TD*
D31*
G04 #@! TO.C,J3*
X23125000Y-56415000D03*
D20*
X23125000Y-51015000D03*
G04 #@! TD*
D23*
G04 #@! TO.C,Q9*
X149200000Y-91500000D03*
D24*
X149200000Y-94040000D03*
X149200000Y-96580000D03*
G04 #@! TD*
D21*
G04 #@! TO.C,C34*
X94843600Y-119735600D03*
X94843600Y-116610600D03*
G04 #@! TD*
D22*
G04 #@! TO.C,R6*
X46660400Y-60553600D03*
X43560400Y-60553600D03*
G04 #@! TD*
D12*
G04 #@! TO.C,C22*
X120000000Y-25150000D03*
X120000000Y-28275000D03*
G04 #@! TD*
G04 #@! TO.C,C17*
X111000000Y-25100000D03*
X111000000Y-28225000D03*
G04 #@! TD*
D30*
G04 #@! TO.C,C4*
X48348500Y-36017200D03*
X51473500Y-36017200D03*
G04 #@! TD*
D12*
G04 #@! TO.C,C25*
X75000000Y-25095200D03*
X75000000Y-28220200D03*
G04 #@! TD*
D31*
G04 #@! TO.C,J4*
X23125000Y-69675000D03*
D20*
X23125000Y-64275000D03*
G04 #@! TD*
D35*
G04 #@! TO.C,R19*
X75000000Y-33675000D03*
X75000000Y-30575000D03*
G04 #@! TD*
D23*
G04 #@! TO.C,Q14*
X28755000Y-121303938D03*
D24*
X28755000Y-123843938D03*
X28755000Y-126383938D03*
G04 #@! TD*
D19*
G04 #@! TO.C,J18*
X23125000Y-136525000D03*
D20*
X23125000Y-141925000D03*
G04 #@! TD*
D16*
G04 #@! TO.C,SW4*
X66852800Y-83591400D03*
D17*
X64312800Y-83591400D03*
G04 #@! TD*
D27*
G04 #@! TO.C,U2*
X38275000Y-43650000D03*
D28*
X40815000Y-43650000D03*
X43355000Y-43650000D03*
X45895000Y-43650000D03*
X45895000Y-36030000D03*
X43355000Y-36030000D03*
X40815000Y-36030000D03*
X38275000Y-36030000D03*
G04 #@! TD*
D15*
G04 #@! TO.C,R49*
X109422000Y-113792000D03*
X112522000Y-113792000D03*
G04 #@! TD*
G04 #@! TO.C,R47*
X109371200Y-127406400D03*
X112471200Y-127406400D03*
G04 #@! TD*
D12*
G04 #@! TO.C,C13*
X114200000Y-87200000D03*
X114200000Y-90325000D03*
G04 #@! TD*
D16*
G04 #@! TO.C,SW14*
X75000000Y-19812000D03*
D17*
X75000000Y-22352000D03*
G04 #@! TD*
D18*
G04 #@! TO.C,R18*
X150000000Y-25100000D03*
X150000000Y-28200000D03*
G04 #@! TD*
D16*
G04 #@! TO.C,D18*
X157150000Y-74175000D03*
D17*
X154610000Y-74175000D03*
G04 #@! TD*
D23*
G04 #@! TO.C,Q6*
X30625000Y-70065000D03*
D24*
X30625000Y-67525000D03*
X30625000Y-64985000D03*
G04 #@! TD*
D23*
G04 #@! TO.C,U1*
X40143400Y-22696800D03*
D24*
X40143400Y-25236800D03*
X40143400Y-27776800D03*
G04 #@! TD*
D31*
G04 #@! TO.C,J2*
X23125000Y-43075000D03*
D20*
X23125000Y-37675000D03*
G04 #@! TD*
D16*
G04 #@! TO.C,D20*
X52375000Y-135150000D03*
D17*
X49835000Y-135150000D03*
G04 #@! TD*
D26*
G04 #@! TO.C,D8*
X132525000Y-65800000D03*
X132525000Y-60800000D03*
G04 #@! TD*
D16*
G04 #@! TO.C,SW27*
X158038800Y-113588800D03*
D17*
X155498800Y-113588800D03*
G04 #@! TD*
D30*
G04 #@! TO.C,C2*
X32625900Y-22661800D03*
X35750900Y-22661800D03*
G04 #@! TD*
D25*
G04 #@! TO.C,*
X120000000Y-141000000D03*
G04 #@! TD*
D36*
G04 #@! TO.C,D5*
X57175000Y-95350000D03*
X62175000Y-95350000D03*
G04 #@! TD*
D16*
G04 #@! TO.C,D26*
X158038800Y-135128000D03*
D17*
X155498800Y-135128000D03*
G04 #@! TD*
D12*
G04 #@! TO.C,C37*
X89763600Y-102831500D03*
X89763600Y-105956500D03*
G04 #@! TD*
D19*
G04 #@! TO.C,J13*
X143675000Y-55600000D03*
D20*
X143675000Y-61000000D03*
G04 #@! TD*
D21*
G04 #@! TO.C,C28*
X42050000Y-119737500D03*
X42050000Y-116612500D03*
G04 #@! TD*
D16*
G04 #@! TO.C,SW23*
X105211800Y-127406400D03*
D17*
X102671800Y-127406400D03*
G04 #@! TD*
D15*
G04 #@! TO.C,R4*
X56539800Y-50165000D03*
X59639800Y-50165000D03*
G04 #@! TD*
D10*
G04 #@! TO.C,U11*
X42029000Y-123858938D03*
D11*
X39489000Y-123858938D03*
X36949000Y-123858938D03*
G04 #@! TD*
D16*
G04 #@! TO.C,D24*
X105211800Y-121158000D03*
D17*
X102671800Y-121158000D03*
G04 #@! TD*
D25*
G04 #@! TO.C,*
X23000000Y-96000000D03*
G04 #@! TD*
D19*
G04 #@! TO.C,J15*
X143700000Y-68475000D03*
D20*
X143700000Y-73875000D03*
G04 #@! TD*
D37*
G04 #@! TO.C,D6*
X62175000Y-90350000D03*
X57175000Y-90350000D03*
G04 #@! TD*
D19*
G04 #@! TO.C,J17*
X143700000Y-80150000D03*
D20*
X143700000Y-85550000D03*
G04 #@! TD*
D16*
G04 #@! TO.C,SW22*
X105257600Y-141122400D03*
D17*
X102717600Y-141122400D03*
G04 #@! TD*
D15*
G04 #@! TO.C,R51*
X162204400Y-141173200D03*
X165304400Y-141173200D03*
G04 #@! TD*
D19*
G04 #@! TO.C,J34*
X128727200Y-108661200D03*
D20*
X128727200Y-114061200D03*
G04 #@! TD*
D12*
G04 #@! TO.C,C29*
X36950000Y-116637500D03*
X36950000Y-119762500D03*
G04 #@! TD*
D25*
G04 #@! TO.C,*
X67000000Y-25000000D03*
G04 #@! TD*
D27*
G04 #@! TO.C,RN3*
X127590000Y-32050000D03*
D28*
X125050000Y-32050000D03*
X122510000Y-32050000D03*
X119970000Y-32050000D03*
G04 #@! TD*
D16*
G04 #@! TO.C,RV1*
X51675000Y-94540000D03*
D17*
X51675000Y-92000000D03*
X51675000Y-89460000D03*
G04 #@! TD*
D22*
G04 #@! TO.C,R34*
X166150000Y-74175000D03*
X163050000Y-74175000D03*
G04 #@! TD*
G04 #@! TO.C,R40*
X59700000Y-121125000D03*
X56600000Y-121125000D03*
G04 #@! TD*
D21*
G04 #@! TO.C,C26*
X42025000Y-133787500D03*
X42025000Y-130662500D03*
G04 #@! TD*
D15*
G04 #@! TO.C,R10*
X56539800Y-78587600D03*
X59639800Y-78587600D03*
G04 #@! TD*
D35*
G04 #@! TO.C,R17*
X81000000Y-33675000D03*
X81000000Y-30575000D03*
G04 #@! TD*
D16*
G04 #@! TO.C,SW5*
X111000000Y-19807000D03*
D17*
X111000000Y-22347000D03*
G04 #@! TD*
D22*
G04 #@! TO.C,R42*
X59700000Y-107375000D03*
X56600000Y-107375000D03*
G04 #@! TD*
D25*
G04 #@! TO.C,*
X67000000Y-141000000D03*
G04 #@! TD*
D10*
G04 #@! TO.C,U18*
X147675600Y-110032800D03*
D11*
X145135600Y-110032800D03*
X142595600Y-110032800D03*
G04 #@! TD*
D16*
G04 #@! TO.C,J7*
X102100000Y-55740000D03*
D17*
X102100000Y-58280000D03*
X102100000Y-60820000D03*
X102100000Y-63360000D03*
X102100000Y-65900000D03*
G04 #@! TD*
D10*
G04 #@! TO.C,U16*
X147675600Y-137922000D03*
D11*
X145135600Y-137922000D03*
X142595600Y-137922000D03*
G04 #@! TD*
D22*
G04 #@! TO.C,R46*
X112523200Y-121158000D03*
X109423200Y-121158000D03*
G04 #@! TD*
D34*
G04 #@! TO.C,D10*
X107000000Y-88600000D03*
X107000000Y-93600000D03*
G04 #@! TD*
D22*
G04 #@! TO.C,R30*
X166195000Y-90190000D03*
X163095000Y-90190000D03*
G04 #@! TD*
D16*
G04 #@! TO.C,D25*
X105206800Y-107391200D03*
D17*
X102666800Y-107391200D03*
G04 #@! TD*
D22*
G04 #@! TO.C,R13*
X79600000Y-94000000D03*
X76500000Y-94000000D03*
G04 #@! TD*
D34*
G04 #@! TO.C,D11*
X90550000Y-88600000D03*
X90550000Y-93600000D03*
G04 #@! TD*
D29*
G04 #@! TO.C,C7*
X40662500Y-74625000D03*
X37537500Y-74625000D03*
G04 #@! TD*
D16*
G04 #@! TO.C,SW19*
X52374800Y-141020800D03*
D17*
X49834800Y-141020800D03*
G04 #@! TD*
D15*
G04 #@! TO.C,R37*
X163075000Y-79650000D03*
X166175000Y-79650000D03*
G04 #@! TD*
D38*
G04 #@! TO.C,REF\u002A\u002A*
X97625000Y-75162500D03*
X72225000Y-75162500D03*
G04 #@! TD*
D22*
G04 #@! TO.C,R38*
X59700000Y-135150000D03*
X56600000Y-135150000D03*
G04 #@! TD*
D16*
G04 #@! TO.C,SW26*
X157993000Y-127304800D03*
D17*
X155453000Y-127304800D03*
G04 #@! TD*
D16*
G04 #@! TO.C,SW18*
X157025000Y-79650000D03*
D17*
X154485000Y-79650000D03*
G04 #@! TD*
D22*
G04 #@! TO.C,R54*
X165355200Y-107391200D03*
X162255200Y-107391200D03*
G04 #@! TD*
D16*
G04 #@! TO.C,D23*
X105206800Y-135178800D03*
D17*
X102666800Y-135178800D03*
G04 #@! TD*
D19*
G04 #@! TO.C,J32*
X128778000Y-122529600D03*
D20*
X128778000Y-127929600D03*
G04 #@! TD*
D27*
G04 #@! TO.C,U3*
X38275000Y-57775000D03*
D28*
X40815000Y-57775000D03*
X43355000Y-57775000D03*
X45895000Y-57775000D03*
X45895000Y-50155000D03*
X43355000Y-50155000D03*
X40815000Y-50155000D03*
X38275000Y-50155000D03*
G04 #@! TD*
D16*
G04 #@! TO.C,SW21*
X52425600Y-113588800D03*
D17*
X49885600Y-113588800D03*
G04 #@! TD*
D39*
G04 #@! TO.C,J1*
X23114000Y-31100000D03*
D40*
X23114000Y-28600000D03*
X23114000Y-26100000D03*
X23114000Y-23600000D03*
X23114000Y-21100000D03*
G04 #@! TD*
D16*
G04 #@! TO.C,SW10*
X93000000Y-19807000D03*
D17*
X93000000Y-22347000D03*
G04 #@! TD*
D10*
G04 #@! TO.C,U17*
X147675600Y-123850400D03*
D11*
X145135600Y-123850400D03*
X142595600Y-123850400D03*
G04 #@! TD*
D22*
G04 #@! TO.C,R14*
X136800000Y-69275000D03*
X133700000Y-69275000D03*
G04 #@! TD*
D38*
G04 #@! TO.C,REF\u002A\u002A*
X128250000Y-75162500D03*
X102850000Y-75162500D03*
G04 #@! TD*
D22*
G04 #@! TO.C,R52*
X165355200Y-121158000D03*
X162255200Y-121158000D03*
G04 #@! TD*
D27*
G04 #@! TO.C,U4*
X38275000Y-72150000D03*
D28*
X40815000Y-72150000D03*
X43355000Y-72150000D03*
X45895000Y-72150000D03*
X45895000Y-64530000D03*
X43355000Y-64530000D03*
X40815000Y-64530000D03*
X38275000Y-64530000D03*
G04 #@! TD*
D22*
G04 #@! TO.C,R3*
X46660400Y-46482000D03*
X43560400Y-46482000D03*
G04 #@! TD*
D27*
G04 #@! TO.C,U5*
X38275000Y-86200000D03*
D28*
X40815000Y-86200000D03*
X43355000Y-86200000D03*
X45895000Y-86200000D03*
X45895000Y-78580000D03*
X43355000Y-78580000D03*
X40815000Y-78580000D03*
X38275000Y-78580000D03*
G04 #@! TD*
D23*
G04 #@! TO.C,Q18*
X81534000Y-107492800D03*
D24*
X81534000Y-110032800D03*
X81534000Y-112572800D03*
G04 #@! TD*
D12*
G04 #@! TO.C,C31*
X36975000Y-102887500D03*
X36975000Y-106012500D03*
G04 #@! TD*
D21*
G04 #@! TO.C,C11*
X105000000Y-33775000D03*
X105000000Y-30650000D03*
G04 #@! TD*
D23*
G04 #@! TO.C,Q17*
X81534000Y-121310400D03*
D24*
X81534000Y-123850400D03*
X81534000Y-126390400D03*
G04 #@! TD*
D16*
G04 #@! TO.C,D19*
X157125000Y-85975000D03*
D17*
X154585000Y-85975000D03*
G04 #@! TD*
D22*
G04 #@! TO.C,R15*
X113900000Y-93600000D03*
X110800000Y-93600000D03*
G04 #@! TD*
D21*
G04 #@! TO.C,C40*
X147624800Y-119735600D03*
X147624800Y-116610600D03*
G04 #@! TD*
D23*
G04 #@! TO.C,Q12*
X149205000Y-80860000D03*
D24*
X149205000Y-83400000D03*
X149205000Y-85940000D03*
G04 #@! TD*
D22*
G04 #@! TO.C,R32*
X166100000Y-61675000D03*
X163000000Y-61675000D03*
G04 #@! TD*
D16*
G04 #@! TO.C,D22*
X52350000Y-107375000D03*
D17*
X49810000Y-107375000D03*
G04 #@! TD*
D12*
G04 #@! TO.C,C41*
X142595600Y-116610600D03*
X142595600Y-119735600D03*
G04 #@! TD*
D19*
G04 #@! TO.C,J26*
X75946000Y-122478800D03*
D20*
X75946000Y-127878800D03*
G04 #@! TD*
M02*
