G04 #@! TF.GenerationSoftware,KiCad,Pcbnew,9.0.2-9.0.2-0~ubuntu24.10.1*
G04 #@! TF.CreationDate,2025-05-11T12:44:46+02:00*
G04 #@! TF.ProjectId,vyhrivani_sekundar,76796872-6976-4616-9e69-5f73656b756e,rev?*
G04 #@! TF.SameCoordinates,Original*
G04 #@! TF.FileFunction,Paste,Top*
G04 #@! TF.FilePolarity,Positive*
%FSLAX46Y46*%
G04 Gerber Fmt 4.6, Leading zero omitted, Abs format (unit mm)*
G04 Created by KiCad (PCBNEW 9.0.2-9.0.2-0~ubuntu24.10.1) date 2025-05-11 12:44:46*
%MOMM*%
%LPD*%
G01*
G04 APERTURE LIST*
G04 Aperture macros list*
%AMRoundRect*
0 Rectangle with rounded corners*
0 $1 Rounding radius*
0 $2 $3 $4 $5 $6 $7 $8 $9 X,Y pos of 4 corners*
0 Add a 4 corners polygon primitive as box body*
4,1,4,$2,$3,$4,$5,$6,$7,$8,$9,$2,$3,0*
0 Add four circle primitives for the rounded corners*
1,1,$1+$1,$2,$3*
1,1,$1+$1,$4,$5*
1,1,$1+$1,$6,$7*
1,1,$1+$1,$8,$9*
0 Add four rect primitives between the rounded corners*
20,1,$1+$1,$2,$3,$4,$5,0*
20,1,$1+$1,$4,$5,$6,$7,0*
20,1,$1+$1,$6,$7,$8,$9,0*
20,1,$1+$1,$8,$9,$2,$3,0*%
G04 Aperture macros list end*
%ADD10RoundRect,0.250000X-0.350000X-0.450000X0.350000X-0.450000X0.350000X0.450000X-0.350000X0.450000X0*%
%ADD11RoundRect,0.250000X-0.450000X0.350000X-0.450000X-0.350000X0.450000X-0.350000X0.450000X0.350000X0*%
%ADD12RoundRect,0.250000X0.450000X-0.350000X0.450000X0.350000X-0.450000X0.350000X-0.450000X-0.350000X0*%
%ADD13RoundRect,0.250000X0.350000X0.450000X-0.350000X0.450000X-0.350000X-0.450000X0.350000X-0.450000X0*%
%ADD14RoundRect,0.250000X-0.250000X-0.750000X0.250000X-0.750000X0.250000X0.750000X-0.250000X0.750000X0*%
G04 APERTURE END LIST*
D10*
X43000000Y-53400000D03*
X45000000Y-53400000D03*
X96800000Y-60250000D03*
X98800000Y-60250000D03*
D11*
X52250000Y-76000000D03*
X52250000Y-78000000D03*
D12*
X48800000Y-75700000D03*
X48800000Y-73700000D03*
D13*
X69300000Y-81650000D03*
X67300000Y-81650000D03*
X103700000Y-57550000D03*
X101700000Y-57550000D03*
X80050000Y-39050000D03*
X78050000Y-39050000D03*
D10*
X82650000Y-40150000D03*
X84650000Y-40150000D03*
D12*
X89300000Y-80350000D03*
X89300000Y-78350000D03*
D10*
X82650000Y-44450000D03*
X84650000Y-44450000D03*
X78100000Y-46050000D03*
X80100000Y-46050000D03*
D11*
X91850000Y-78350000D03*
X91850000Y-80350000D03*
D12*
X100650000Y-76550000D03*
X100650000Y-74550000D03*
D10*
X94250000Y-48300000D03*
X96250000Y-48300000D03*
D13*
X73900000Y-83150000D03*
X71900000Y-83150000D03*
D12*
X94700000Y-80350000D03*
X94700000Y-78350000D03*
D10*
X58550000Y-45650000D03*
X60550000Y-45650000D03*
D13*
X91200000Y-84700000D03*
X89200000Y-84700000D03*
D11*
X52250000Y-79800000D03*
X52250000Y-81800000D03*
D14*
X41500000Y-64800000D03*
D13*
X82500000Y-79500000D03*
X80500000Y-79500000D03*
X86800000Y-79350000D03*
X84800000Y-79350000D03*
X84650000Y-42350000D03*
X82650000Y-42350000D03*
D12*
X45750000Y-76150000D03*
X45750000Y-74150000D03*
X55200000Y-47600000D03*
X55200000Y-45600000D03*
D10*
X80500000Y-85200000D03*
X82500000Y-85200000D03*
X73650000Y-41300000D03*
X75650000Y-41300000D03*
X102950000Y-67950000D03*
X104950000Y-67950000D03*
D13*
X88550000Y-45700000D03*
X86550000Y-45700000D03*
D10*
X87100000Y-41150000D03*
X89100000Y-41150000D03*
D14*
X41501100Y-60710200D03*
D13*
X64800000Y-81200000D03*
X62800000Y-81200000D03*
D11*
X63450000Y-43100000D03*
X63450000Y-45100000D03*
D10*
X71900000Y-85250000D03*
X73900000Y-85250000D03*
D13*
X73950000Y-81200000D03*
X71950000Y-81200000D03*
D10*
X69700000Y-41950000D03*
X71700000Y-41950000D03*
D11*
X97650000Y-78350000D03*
X97650000Y-80350000D03*
D12*
X86600000Y-85900000D03*
X86600000Y-83900000D03*
D13*
X80100000Y-43850000D03*
X78100000Y-43850000D03*
D10*
X95050000Y-67950000D03*
X97050000Y-67950000D03*
D13*
X88550000Y-43450000D03*
X86550000Y-43450000D03*
D11*
X84450000Y-83900000D03*
X84450000Y-85900000D03*
D12*
X98550000Y-52150000D03*
X98550000Y-50150000D03*
D10*
X80500000Y-81400000D03*
X82500000Y-81400000D03*
D12*
X48100000Y-51550000D03*
X48100000Y-49550000D03*
D10*
X78100000Y-41600000D03*
X80100000Y-41600000D03*
X89900000Y-48300000D03*
X91900000Y-48300000D03*
X65850000Y-42800000D03*
X67850000Y-42800000D03*
D13*
X101200000Y-65350000D03*
X99200000Y-65350000D03*
D11*
X104900000Y-69950000D03*
X104900000Y-71950000D03*
D13*
X99150000Y-57550000D03*
X97150000Y-57550000D03*
D10*
X98950000Y-67950000D03*
X100950000Y-67950000D03*
D13*
X60350000Y-80100000D03*
X58350000Y-80100000D03*
D11*
X94900000Y-58200000D03*
X94900000Y-60200000D03*
D13*
X78350000Y-80750000D03*
X76350000Y-80750000D03*
X96200000Y-51100000D03*
X94200000Y-51100000D03*
D11*
X107300000Y-67950000D03*
X107300000Y-69950000D03*
D13*
X49650000Y-78300000D03*
X47650000Y-78300000D03*
D11*
X97650000Y-74550000D03*
X97650000Y-76550000D03*
D13*
X71700000Y-39750000D03*
X69700000Y-39750000D03*
D10*
X59450000Y-43100000D03*
X61450000Y-43100000D03*
X50450000Y-48800000D03*
X52450000Y-48800000D03*
D12*
X98500000Y-47900000D03*
X98500000Y-45900000D03*
D13*
X75650000Y-39050000D03*
X73650000Y-39050000D03*
D11*
X97550000Y-70000000D03*
X97550000Y-72000000D03*
D13*
X64800000Y-85850000D03*
X62800000Y-85850000D03*
D10*
X93050000Y-82700000D03*
X95050000Y-82700000D03*
D12*
X94700000Y-76550000D03*
X94700000Y-74550000D03*
D10*
X76350000Y-82850000D03*
X78350000Y-82850000D03*
X61450000Y-40800000D03*
X63450000Y-40800000D03*
D13*
X67850000Y-45000000D03*
X65850000Y-45000000D03*
D10*
X55200000Y-43350000D03*
X57200000Y-43350000D03*
D12*
X89300000Y-76500000D03*
X89300000Y-74500000D03*
D10*
X93350000Y-56000000D03*
X95350000Y-56000000D03*
D13*
X73900000Y-87400000D03*
X71900000Y-87400000D03*
X82500000Y-87100000D03*
X80500000Y-87100000D03*
D12*
X43500000Y-72300000D03*
X43500000Y-70300000D03*
D13*
X84650000Y-46550000D03*
X82650000Y-46550000D03*
X69300000Y-86300000D03*
X67300000Y-86300000D03*
X97050000Y-65350000D03*
X95050000Y-65350000D03*
D11*
X86800000Y-75050000D03*
X86800000Y-77050000D03*
D13*
X82500000Y-83300000D03*
X80500000Y-83300000D03*
X60300000Y-84300000D03*
X58300000Y-84300000D03*
D10*
X67300000Y-84050000D03*
X69300000Y-84050000D03*
X106000000Y-60250000D03*
X108000000Y-60250000D03*
D13*
X56450000Y-82700000D03*
X54450000Y-82700000D03*
D11*
X106150000Y-55550000D03*
X106150000Y-57550000D03*
D10*
X58300000Y-82200000D03*
X60300000Y-82200000D03*
D12*
X87350000Y-50300000D03*
X87350000Y-48300000D03*
D13*
X92850000Y-43450000D03*
X90850000Y-43450000D03*
D10*
X50350000Y-46600000D03*
X52350000Y-46600000D03*
D13*
X91900000Y-51100000D03*
X89900000Y-51100000D03*
D12*
X101400000Y-72000000D03*
X101400000Y-70000000D03*
D11*
X91750000Y-74550000D03*
X91750000Y-76550000D03*
X56450000Y-77950000D03*
X56450000Y-79950000D03*
D10*
X89200000Y-82700000D03*
X91200000Y-82700000D03*
X101250000Y-60250000D03*
X103250000Y-60250000D03*
D11*
X103300000Y-74550000D03*
X103300000Y-76550000D03*
D13*
X92850000Y-45700000D03*
X90850000Y-45700000D03*
D12*
X94250000Y-72000000D03*
X94250000Y-70000000D03*
X54450000Y-80700000D03*
X54450000Y-78700000D03*
D10*
X76350000Y-86900000D03*
X78350000Y-86900000D03*
X62800000Y-83550000D03*
X64800000Y-83550000D03*
X101750000Y-54550000D03*
X103750000Y-54550000D03*
D13*
X78350000Y-84900000D03*
X76350000Y-84900000D03*
X71700002Y-44200000D03*
X69700000Y-44200000D03*
D12*
X46350000Y-71800000D03*
X46350000Y-69800000D03*
D10*
X97250000Y-54550000D03*
X99250000Y-54550000D03*
D13*
X75650000Y-43600000D03*
X73650000Y-43600000D03*
D12*
X95500000Y-45900000D03*
X95500000Y-43900000D03*
D13*
X67850000Y-40450000D03*
X65850000Y-40450000D03*
D10*
X84800000Y-81750000D03*
X86800000Y-81750000D03*
M02*
