M48
INCH,TZ
T1C0.0118
%
G90
G05
T1
X15650Y-25157
X15650Y-25453
X15650Y-25748
X15650Y-26043
X17441Y-25118
X17441Y-25413
X17441Y-25709
X17441Y-26004
X17736Y-25118
X17736Y-25413
X17736Y-25709
X17736Y-26004
X18031Y-25118
X18031Y-25413
X18031Y-25709
X18031Y-26004
X23386Y-31949
X24390Y-17638
X25531Y-17283
X27835Y-33169
X32815Y-33917
X33878Y-16594
X34528Y-18504
X35571Y-28760
X37736Y-27559
X42520Y-23051
M30
