G04 #@! TF.GenerationSoftware,KiCad,Pcbnew,9.0.2-9.0.2-0~ubuntu24.10.1*
G04 #@! TF.CreationDate,2025-05-11T12:44:46+02:00*
G04 #@! TF.ProjectId,vyhrivani_sekundar,76796872-6976-4616-9e69-5f73656b756e,rev?*
G04 #@! TF.SameCoordinates,Original*
G04 #@! TF.FileFunction,Copper,L1,Top*
G04 #@! TF.FilePolarity,Positive*
%FSLAX46Y46*%
G04 Gerber Fmt 4.6, Leading zero omitted, Abs format (unit mm)*
G04 Created by KiCad (PCBNEW 9.0.2-9.0.2-0~ubuntu24.10.1) date 2025-05-11 12:44:46*
%MOMM*%
%LPD*%
G01*
G04 APERTURE LIST*
G04 Aperture macros list*
%AMRoundRect*
0 Rectangle with rounded corners*
0 $1 Rounding radius*
0 $2 $3 $4 $5 $6 $7 $8 $9 X,Y pos of 4 corners*
0 Add a 4 corners polygon primitive as box body*
4,1,4,$2,$3,$4,$5,$6,$7,$8,$9,$2,$3,0*
0 Add four circle primitives for the rounded corners*
1,1,$1+$1,$2,$3*
1,1,$1+$1,$4,$5*
1,1,$1+$1,$6,$7*
1,1,$1+$1,$8,$9*
0 Add four rect primitives between the rounded corners*
20,1,$1+$1,$2,$3,$4,$5,0*
20,1,$1+$1,$4,$5,$6,$7,0*
20,1,$1+$1,$6,$7,$8,$9,0*
20,1,$1+$1,$8,$9,$2,$3,0*%
G04 Aperture macros list end*
G04 #@! TA.AperFunction,SMDPad,CuDef*
%ADD10RoundRect,0.250000X-0.350000X-0.450000X0.350000X-0.450000X0.350000X0.450000X-0.350000X0.450000X0*%
G04 #@! TD*
G04 #@! TA.AperFunction,SMDPad,CuDef*
%ADD11RoundRect,0.250000X-0.450000X0.350000X-0.450000X-0.350000X0.450000X-0.350000X0.450000X0.350000X0*%
G04 #@! TD*
G04 #@! TA.AperFunction,SMDPad,CuDef*
%ADD12RoundRect,0.250000X0.450000X-0.350000X0.450000X0.350000X-0.450000X0.350000X-0.450000X-0.350000X0*%
G04 #@! TD*
G04 #@! TA.AperFunction,SMDPad,CuDef*
%ADD13RoundRect,0.250000X0.350000X0.450000X-0.350000X0.450000X-0.350000X-0.450000X0.350000X-0.450000X0*%
G04 #@! TD*
G04 #@! TA.AperFunction,SMDPad,CuDef*
%ADD14RoundRect,0.250000X-0.250000X-0.750000X0.250000X-0.750000X0.250000X0.750000X-0.250000X0.750000X0*%
G04 #@! TD*
G04 #@! TA.AperFunction,ViaPad*
%ADD15C,0.600000*%
G04 #@! TD*
G04 #@! TA.AperFunction,Conductor*
%ADD16C,0.500000*%
G04 #@! TD*
G04 APERTURE END LIST*
D10*
X43000000Y-53400000D03*
X45000000Y-53400000D03*
X96800000Y-60250000D03*
X98800000Y-60250000D03*
D11*
X52250000Y-76000000D03*
X52250000Y-78000000D03*
D12*
X48800000Y-75700000D03*
X48800000Y-73700000D03*
D13*
X69300000Y-81650000D03*
X67300000Y-81650000D03*
X103700000Y-57550000D03*
X101700000Y-57550000D03*
X80050000Y-39050000D03*
X78050000Y-39050000D03*
D10*
X82650000Y-40150000D03*
X84650000Y-40150000D03*
D12*
X89300000Y-80350000D03*
X89300000Y-78350000D03*
D10*
X82650000Y-44450000D03*
X84650000Y-44450000D03*
X78100000Y-46050000D03*
X80100000Y-46050000D03*
D11*
X91850000Y-78350000D03*
X91850000Y-80350000D03*
D12*
X100650000Y-76550000D03*
X100650000Y-74550000D03*
D10*
X94250000Y-48300000D03*
X96250000Y-48300000D03*
D13*
X73900000Y-83150000D03*
X71900000Y-83150000D03*
D12*
X94700000Y-80350000D03*
X94700000Y-78350000D03*
D10*
X58550000Y-45650000D03*
X60550000Y-45650000D03*
D13*
X91200000Y-84700000D03*
X89200000Y-84700000D03*
D11*
X52250000Y-79800000D03*
X52250000Y-81800000D03*
D14*
X41500000Y-64800000D03*
D13*
X82500000Y-79500000D03*
X80500000Y-79500000D03*
X86800000Y-79350000D03*
X84800000Y-79350000D03*
X84650000Y-42350000D03*
X82650000Y-42350000D03*
D12*
X45750000Y-76150000D03*
X45750000Y-74150000D03*
X55200000Y-47600000D03*
X55200000Y-45600000D03*
D10*
X80500000Y-85200000D03*
X82500000Y-85200000D03*
X73650000Y-41300000D03*
X75650000Y-41300000D03*
X102950000Y-67950000D03*
X104950000Y-67950000D03*
D13*
X88550000Y-45700000D03*
X86550000Y-45700000D03*
D10*
X87100000Y-41150000D03*
X89100000Y-41150000D03*
D14*
X41501100Y-60710200D03*
D13*
X64800000Y-81200000D03*
X62800000Y-81200000D03*
D11*
X63450000Y-43100000D03*
X63450000Y-45100000D03*
D10*
X71900000Y-85250000D03*
X73900000Y-85250000D03*
D13*
X73950000Y-81200000D03*
X71950000Y-81200000D03*
D10*
X69700000Y-41950000D03*
X71700000Y-41950000D03*
D11*
X97650000Y-78350000D03*
X97650000Y-80350000D03*
D12*
X86600000Y-85900000D03*
X86600000Y-83900000D03*
D13*
X80100000Y-43850000D03*
X78100000Y-43850000D03*
D10*
X95050000Y-67950000D03*
X97050000Y-67950000D03*
D13*
X88550000Y-43450000D03*
X86550000Y-43450000D03*
D11*
X84450000Y-83900000D03*
X84450000Y-85900000D03*
D12*
X98550000Y-52150000D03*
X98550000Y-50150000D03*
D10*
X80500000Y-81400000D03*
X82500000Y-81400000D03*
D12*
X48100000Y-51550000D03*
X48100000Y-49550000D03*
D10*
X78100000Y-41600000D03*
X80100000Y-41600000D03*
X89900000Y-48300000D03*
X91900000Y-48300000D03*
X65850000Y-42800000D03*
X67850000Y-42800000D03*
D13*
X101200000Y-65350000D03*
X99200000Y-65350000D03*
D11*
X104900000Y-69950000D03*
X104900000Y-71950000D03*
D13*
X99150000Y-57550000D03*
X97150000Y-57550000D03*
D10*
X98950000Y-67950000D03*
X100950000Y-67950000D03*
D13*
X60350000Y-80100000D03*
X58350000Y-80100000D03*
D11*
X94900000Y-58200000D03*
X94900000Y-60200000D03*
D13*
X78350000Y-80750000D03*
X76350000Y-80750000D03*
X96200000Y-51100000D03*
X94200000Y-51100000D03*
D11*
X107300000Y-67950000D03*
X107300000Y-69950000D03*
D13*
X49650000Y-78300000D03*
X47650000Y-78300000D03*
D11*
X97650000Y-74550000D03*
X97650000Y-76550000D03*
D13*
X71700000Y-39750000D03*
X69700000Y-39750000D03*
D10*
X59450000Y-43100000D03*
X61450000Y-43100000D03*
X50450000Y-48800000D03*
X52450000Y-48800000D03*
D12*
X98500000Y-47900000D03*
X98500000Y-45900000D03*
D13*
X75650000Y-39050000D03*
X73650000Y-39050000D03*
D11*
X97550000Y-70000000D03*
X97550000Y-72000000D03*
D13*
X64800000Y-85850000D03*
X62800000Y-85850000D03*
D10*
X93050000Y-82700000D03*
X95050000Y-82700000D03*
D12*
X94700000Y-76550000D03*
X94700000Y-74550000D03*
D10*
X76350000Y-82850000D03*
X78350000Y-82850000D03*
X61450000Y-40800000D03*
X63450000Y-40800000D03*
D13*
X67850000Y-45000000D03*
X65850000Y-45000000D03*
D10*
X55200000Y-43350000D03*
X57200000Y-43350000D03*
D12*
X89300000Y-76500000D03*
X89300000Y-74500000D03*
D10*
X93350000Y-56000000D03*
X95350000Y-56000000D03*
D13*
X73900000Y-87400000D03*
X71900000Y-87400000D03*
X82500000Y-87100000D03*
X80500000Y-87100000D03*
D12*
X43500000Y-72300000D03*
X43500000Y-70300000D03*
D13*
X84650000Y-46550000D03*
X82650000Y-46550000D03*
X69300000Y-86300000D03*
X67300000Y-86300000D03*
X97050000Y-65350000D03*
X95050000Y-65350000D03*
D11*
X86800000Y-75050000D03*
X86800000Y-77050000D03*
D13*
X82500000Y-83300000D03*
X80500000Y-83300000D03*
X60300000Y-84300000D03*
X58300000Y-84300000D03*
D10*
X67300000Y-84050000D03*
X69300000Y-84050000D03*
X106000000Y-60250000D03*
X108000000Y-60250000D03*
D13*
X56450000Y-82700000D03*
X54450000Y-82700000D03*
D11*
X106150000Y-55550000D03*
X106150000Y-57550000D03*
D10*
X58300000Y-82200000D03*
X60300000Y-82200000D03*
D12*
X87350000Y-50300000D03*
X87350000Y-48300000D03*
D13*
X92850000Y-43450000D03*
X90850000Y-43450000D03*
D10*
X50350000Y-46600000D03*
X52350000Y-46600000D03*
D13*
X91900000Y-51100000D03*
X89900000Y-51100000D03*
D12*
X101400000Y-72000000D03*
X101400000Y-70000000D03*
D11*
X91750000Y-74550000D03*
X91750000Y-76550000D03*
X56450000Y-77950000D03*
X56450000Y-79950000D03*
D10*
X89200000Y-82700000D03*
X91200000Y-82700000D03*
X101250000Y-60250000D03*
X103250000Y-60250000D03*
D11*
X103300000Y-74550000D03*
X103300000Y-76550000D03*
D13*
X92850000Y-45700000D03*
X90850000Y-45700000D03*
D12*
X94250000Y-72000000D03*
X94250000Y-70000000D03*
X54450000Y-80700000D03*
X54450000Y-78700000D03*
D10*
X76350000Y-86900000D03*
X78350000Y-86900000D03*
X62800000Y-83550000D03*
X64800000Y-83550000D03*
X101750000Y-54550000D03*
X103750000Y-54550000D03*
D13*
X78350000Y-84900000D03*
X76350000Y-84900000D03*
X71700002Y-44200000D03*
X69700000Y-44200000D03*
D12*
X46350000Y-71800000D03*
X46350000Y-69800000D03*
D10*
X97250000Y-54550000D03*
X99250000Y-54550000D03*
D13*
X75650000Y-43600000D03*
X73650000Y-43600000D03*
D12*
X95500000Y-45900000D03*
X95500000Y-43900000D03*
D13*
X67850000Y-40450000D03*
X65850000Y-40450000D03*
D10*
X84800000Y-81750000D03*
X86800000Y-81750000D03*
D15*
X86050000Y-42150000D03*
X61950000Y-44800000D03*
X39750000Y-64650000D03*
X44300000Y-65300000D03*
X95850000Y-70000000D03*
X70700000Y-84250000D03*
X45050000Y-63800000D03*
X44300000Y-64550000D03*
X108000000Y-58550000D03*
X87700000Y-47000000D03*
X45800000Y-66050000D03*
X45050000Y-64550000D03*
X83350000Y-86150000D03*
X64850000Y-43900000D03*
X44300000Y-63800000D03*
X39750000Y-63900000D03*
X45050000Y-65300000D03*
X39750000Y-66150000D03*
X44300000Y-66050000D03*
X59400000Y-81150000D03*
X45050000Y-66050000D03*
X90350000Y-73050000D03*
X45800000Y-65300000D03*
X39750000Y-65400000D03*
X45800000Y-63800000D03*
X45800000Y-64550000D03*
D16*
X86550000Y-42650000D02*
X86050000Y-42150000D01*
X86550000Y-43450000D02*
X86550000Y-42650000D01*
X62250000Y-45100000D02*
X61950000Y-44800000D01*
X63450000Y-45100000D02*
X62250000Y-45100000D01*
X83901607Y-48951607D02*
X81451607Y-48951607D01*
X76850000Y-47196290D02*
X76025302Y-46371592D01*
X98550000Y-52150000D02*
X97800000Y-52900000D01*
X76850000Y-47196290D02*
X76850000Y-42850000D01*
X54813246Y-48978118D02*
X52133346Y-51658018D01*
X82500000Y-79350000D02*
X84002478Y-77847522D01*
X97800000Y-52900000D02*
X93950000Y-52900000D01*
X61499000Y-78949000D02*
X62599000Y-80049000D01*
X84002478Y-77847522D02*
X86800000Y-75050000D01*
X76854710Y-47201000D02*
X76850000Y-47196290D01*
X56450000Y-77950000D02*
X57449000Y-78949000D01*
X45348292Y-56100000D02*
X41501100Y-56100000D01*
X92387288Y-63450000D02*
X92387288Y-55237288D01*
X80203451Y-77847522D02*
X84002478Y-77847522D01*
X91750000Y-72900000D02*
X90350000Y-71500000D01*
X90350000Y-71500000D02*
X92387288Y-69462712D01*
X91750000Y-74550000D02*
X91750000Y-72900000D01*
X80050000Y-39650000D02*
X78100000Y-41600000D01*
X62599000Y-80049000D02*
X72799000Y-80049000D01*
X41501100Y-60710200D02*
X41501100Y-56100000D01*
X62128408Y-46371592D02*
X61500000Y-47000000D01*
X76124688Y-79150000D02*
X78900973Y-79150000D01*
X56721882Y-48978118D02*
X54813246Y-48978118D01*
X100400000Y-63450000D02*
X92387288Y-63450000D01*
X72799000Y-80049000D02*
X75225688Y-80049000D01*
X75225688Y-80049000D02*
X76124688Y-79150000D01*
X49790274Y-51658018D02*
X45348292Y-56100000D01*
X76025302Y-46371592D02*
X62128408Y-46371592D01*
X61500000Y-47000000D02*
X58700000Y-47000000D01*
X80050000Y-39050000D02*
X80050000Y-39650000D01*
X92000000Y-54850000D02*
X89800000Y-54850000D01*
X58700000Y-47000000D02*
X56721882Y-48978118D01*
X92387288Y-69462712D02*
X92387288Y-63450000D01*
X92387288Y-55237288D02*
X92000000Y-54850000D01*
X79701000Y-47201000D02*
X76854710Y-47201000D01*
X86800000Y-75050000D02*
X90350000Y-71500000D01*
X72799000Y-80049000D02*
X73950000Y-81200000D01*
X41501100Y-56100000D02*
X41501100Y-54898900D01*
X52133346Y-51658018D02*
X49790274Y-51658018D01*
X93950000Y-52900000D02*
X92000000Y-54850000D01*
X101200000Y-65350000D02*
X101200000Y-64250000D01*
X78900973Y-79150000D02*
X80203451Y-77847522D01*
X76850000Y-42850000D02*
X78100000Y-41600000D01*
X89800000Y-54850000D02*
X83901607Y-48951607D01*
X57449000Y-78949000D02*
X61499000Y-78949000D01*
X101200000Y-64250000D02*
X100400000Y-63450000D01*
X81451607Y-48951607D02*
X79701000Y-47201000D01*
X93150000Y-56000000D02*
X92387288Y-55237288D01*
X93350000Y-56000000D02*
X93150000Y-56000000D01*
X41501100Y-54898900D02*
X43000000Y-53400000D01*
X108000000Y-60250000D02*
X108000000Y-58550000D01*
X58350000Y-80100000D02*
X59400000Y-81150000D01*
X65750000Y-45100000D02*
X65850000Y-45000000D01*
X43500000Y-70300000D02*
X43500000Y-69900000D01*
X70800000Y-84250000D02*
X71900000Y-83150000D01*
X86550000Y-45850000D02*
X87700000Y-47000000D01*
X82500000Y-85300000D02*
X83279318Y-86079318D01*
X89300000Y-74500000D02*
X89300000Y-74100000D01*
X89300000Y-74100000D02*
X90350000Y-73050000D01*
X65850000Y-45000000D02*
X65850000Y-44900000D01*
X43500000Y-69900000D02*
X39750000Y-66150000D01*
X65850000Y-44900000D02*
X64850000Y-43900000D01*
X70700000Y-84250000D02*
X70800000Y-84250000D01*
X94250000Y-70000000D02*
X95850000Y-70000000D01*
X46250000Y-53400000D02*
X48100000Y-51550000D01*
X45000000Y-53400000D02*
X46250000Y-53400000D01*
X48100000Y-49550000D02*
X48100000Y-48850000D01*
X48100000Y-48850000D02*
X50350000Y-46600000D01*
X50450000Y-48500000D02*
X52350000Y-46600000D01*
X50450000Y-48800000D02*
X50450000Y-48500000D01*
X54000000Y-48800000D02*
X55200000Y-47600000D01*
X52450000Y-48800000D02*
X54000000Y-48800000D01*
X55200000Y-47600000D02*
X55000000Y-47600000D01*
X55200000Y-43350000D02*
X55200000Y-45600000D01*
X58550000Y-44700000D02*
X57200000Y-43350000D01*
X58550000Y-45650000D02*
X58550000Y-44700000D01*
X59450000Y-43100000D02*
X59450000Y-44550000D01*
X59450000Y-44550000D02*
X60550000Y-45650000D01*
X61450000Y-40800000D02*
X61450000Y-43100000D01*
X63450000Y-43100000D02*
X63450000Y-40800000D01*
X78050000Y-39050000D02*
X75650000Y-39050000D01*
X73650000Y-41300000D02*
X73650000Y-39050000D01*
X75650000Y-41300000D02*
X75650000Y-43600000D01*
X72300002Y-43600000D02*
X71700002Y-44200000D01*
X73650000Y-43600000D02*
X72300002Y-43600000D01*
X69700000Y-44200000D02*
X69700000Y-41950000D01*
X71700000Y-41950000D02*
X71700000Y-39750000D01*
X68550000Y-39750000D02*
X67850000Y-40450000D01*
X69700000Y-39750000D02*
X68550000Y-39750000D01*
X65850000Y-42800000D02*
X65850000Y-40450000D01*
X67850000Y-42800000D02*
X67850000Y-45000000D01*
X80100000Y-43850000D02*
X80100000Y-41600000D01*
X78100000Y-46050000D02*
X78100000Y-43850000D01*
X81950000Y-47900000D02*
X80100000Y-46050000D01*
X84650000Y-46550000D02*
X84650000Y-47250000D01*
X84000000Y-47900000D02*
X81950000Y-47900000D01*
X84650000Y-47250000D02*
X84000000Y-47900000D01*
X82650000Y-44450000D02*
X82650000Y-46550000D01*
X84650000Y-42350000D02*
X84650000Y-44450000D01*
X82650000Y-40150000D02*
X82650000Y-42350000D01*
X87100000Y-41150000D02*
X85650000Y-41150000D01*
X85650000Y-41150000D02*
X84650000Y-40150000D01*
X92850000Y-43450000D02*
X90550000Y-41150000D01*
X90550000Y-41150000D02*
X89100000Y-41150000D01*
X88550000Y-43450000D02*
X90850000Y-43450000D01*
X98550000Y-50150000D02*
X97150000Y-50150000D01*
X97150000Y-50150000D02*
X96200000Y-51100000D01*
X91900000Y-51100000D02*
X94200000Y-51100000D01*
X89100000Y-50300000D02*
X89900000Y-51100000D01*
X87350000Y-50300000D02*
X89100000Y-50300000D01*
X89900000Y-48300000D02*
X87350000Y-48300000D01*
X94250000Y-48300000D02*
X91900000Y-48300000D01*
X96650000Y-47900000D02*
X96250000Y-48300000D01*
X98500000Y-47900000D02*
X96650000Y-47900000D01*
X95500000Y-45900000D02*
X98500000Y-45900000D01*
X94650000Y-43900000D02*
X92850000Y-45700000D01*
X95500000Y-43900000D02*
X94650000Y-43900000D01*
X88550000Y-45700000D02*
X90850000Y-45700000D01*
X96800000Y-54550000D02*
X95350000Y-56000000D01*
X97250000Y-54550000D02*
X96800000Y-54550000D01*
X99250000Y-54550000D02*
X101750000Y-54550000D01*
X103750000Y-54550000D02*
X105150000Y-54550000D01*
X105150000Y-54550000D02*
X106150000Y-55550000D01*
X106150000Y-57550000D02*
X103700000Y-57550000D01*
X101700000Y-57550000D02*
X99150000Y-57550000D01*
X97150000Y-57550000D02*
X95550000Y-57550000D01*
X95550000Y-57550000D02*
X94900000Y-58200000D01*
X94900000Y-60200000D02*
X96750000Y-60200000D01*
X96750000Y-60200000D02*
X96800000Y-60250000D01*
X98800000Y-60250000D02*
X101250000Y-60250000D01*
X103250000Y-60250000D02*
X106000000Y-60250000D01*
X97050000Y-65350000D02*
X99200000Y-65350000D01*
X95050000Y-67950000D02*
X95050000Y-65350000D01*
X98950000Y-67950000D02*
X97050000Y-67950000D01*
X102950000Y-67950000D02*
X100950000Y-67950000D01*
X107300000Y-67950000D02*
X104950000Y-67950000D01*
X104900000Y-69950000D02*
X107300000Y-69950000D01*
X104900000Y-71950000D02*
X101450000Y-71950000D01*
X101400000Y-70000000D02*
X97550000Y-70000000D01*
X97550000Y-72000000D02*
X94250000Y-72000000D01*
X94700000Y-76550000D02*
X91750000Y-76550000D01*
X97650000Y-74550000D02*
X94700000Y-74550000D01*
X100650000Y-76550000D02*
X97650000Y-76550000D01*
X103300000Y-74550000D02*
X100650000Y-74550000D01*
X97650000Y-78350000D02*
X101500000Y-78350000D01*
X101500000Y-78350000D02*
X103300000Y-76550000D01*
X94700000Y-80350000D02*
X97650000Y-80350000D01*
X91850000Y-78350000D02*
X94700000Y-78350000D01*
X91850000Y-80350000D02*
X89300000Y-80350000D01*
X89300000Y-76500000D02*
X89300000Y-78350000D01*
X86800000Y-77050000D02*
X86800000Y-79350000D01*
X84800000Y-79350000D02*
X84800000Y-81750000D01*
X88250000Y-81750000D02*
X89200000Y-82700000D01*
X86800000Y-81750000D02*
X88250000Y-81750000D01*
X91200000Y-82700000D02*
X93050000Y-82700000D01*
X93899000Y-83851000D02*
X92049000Y-83851000D01*
X95050000Y-82700000D02*
X93899000Y-83851000D01*
X92049000Y-83851000D02*
X91200000Y-84700000D01*
X87800000Y-84700000D02*
X86600000Y-85900000D01*
X89200000Y-84700000D02*
X87800000Y-84700000D01*
X86600000Y-83900000D02*
X84450000Y-83900000D01*
X83250000Y-87100000D02*
X84450000Y-85900000D01*
X82500000Y-87100000D02*
X83250000Y-87100000D01*
X80500000Y-87100000D02*
X80500000Y-85200000D01*
X80500000Y-81400000D02*
X80500000Y-79500000D01*
X82500000Y-83300000D02*
X82500000Y-81400000D01*
X78350000Y-81048292D02*
X80500000Y-83198292D01*
X76350000Y-82850000D02*
X76350000Y-80750000D01*
X78350000Y-84900000D02*
X78350000Y-82850000D01*
X76350000Y-86900000D02*
X76350000Y-84900000D01*
X77199371Y-88050629D02*
X74550629Y-88050629D01*
X74550629Y-88050629D02*
X73900000Y-87400000D01*
X78350000Y-86900000D02*
X77199371Y-88050629D01*
X71900000Y-87400000D02*
X71900000Y-85250000D01*
X73900000Y-85250000D02*
X73900000Y-83150000D01*
X71500000Y-81650000D02*
X71950000Y-81200000D01*
X69300000Y-81650000D02*
X71500000Y-81650000D01*
X67300000Y-84050000D02*
X67300000Y-81650000D01*
X69300000Y-84050000D02*
X69300000Y-86300000D01*
X67300000Y-86300000D02*
X65250000Y-86300000D01*
X65250000Y-86300000D02*
X64800000Y-85850000D01*
X62800000Y-83550000D02*
X62800000Y-85850000D01*
X64800000Y-83550000D02*
X64800000Y-81200000D01*
X61749000Y-82851000D02*
X60300000Y-84300000D01*
X62800000Y-81200000D02*
X61749000Y-82251000D01*
X61749000Y-82251000D02*
X61749000Y-82851000D01*
X58300000Y-84300000D02*
X58300000Y-82200000D01*
X60300000Y-82200000D02*
X60300000Y-80150000D01*
X56450000Y-79950000D02*
X56450000Y-82700000D01*
X54450000Y-82700000D02*
X54450000Y-80700000D01*
X54450000Y-78700000D02*
X54450000Y-78200000D01*
X54450000Y-78200000D02*
X52250000Y-76000000D01*
X52250000Y-78000000D02*
X52250000Y-79800000D01*
X52250000Y-81800000D02*
X51300000Y-81800000D01*
X51300000Y-81800000D02*
X49650000Y-80150000D01*
X49650000Y-80150000D02*
X49650000Y-78300000D01*
X45750000Y-77300000D02*
X45750000Y-76150000D01*
X47650000Y-78300000D02*
X46750000Y-78300000D01*
X46750000Y-78300000D02*
X45750000Y-77300000D01*
X48800000Y-75700000D02*
X47300000Y-75700000D01*
X47300000Y-75700000D02*
X45750000Y-74150000D01*
X48250000Y-73700000D02*
X46350000Y-71800000D01*
X48800000Y-73700000D02*
X48250000Y-73700000D01*
X45000000Y-71550000D02*
X44250000Y-72300000D01*
X44250000Y-72300000D02*
X43500000Y-72300000D01*
X45550000Y-69800000D02*
X45000000Y-70350000D01*
X45000000Y-70350000D02*
X45000000Y-71550000D01*
X46350000Y-69800000D02*
X45550000Y-69800000D01*
G04 #@! TA.AperFunction,Conductor*
G36*
X45992524Y-62946887D02*
G01*
X46003078Y-62950065D01*
X46014046Y-62948918D01*
X46035943Y-62959958D01*
X46059425Y-62967027D01*
X46066588Y-62975409D01*
X46076434Y-62980373D01*
X46088885Y-63001498D01*
X46104819Y-63020141D01*
X46106314Y-63031066D01*
X46111913Y-63040565D01*
X46115585Y-63075667D01*
X46115226Y-63084956D01*
X46111460Y-63104734D01*
X46113430Y-63131474D01*
X46113162Y-63138433D01*
X46112919Y-63142761D01*
X46111459Y-63162566D01*
X46117085Y-63192105D01*
X46118938Y-63206185D01*
X46236932Y-64806702D01*
X46237463Y-64813901D01*
X46235895Y-64850639D01*
X46242285Y-64879331D01*
X46242950Y-64888352D01*
X46242951Y-64888356D01*
X46244448Y-64908657D01*
X46244449Y-64908663D01*
X46254175Y-64936567D01*
X46258118Y-64950422D01*
X46493301Y-66006381D01*
X46612049Y-66539553D01*
X46615558Y-66575053D01*
X46626313Y-66603598D01*
X46628220Y-66612159D01*
X46628220Y-66612160D01*
X46632943Y-66633369D01*
X46645984Y-66658362D01*
X46652086Y-66672004D01*
X46682895Y-66753775D01*
X46688111Y-66823449D01*
X46654830Y-66884883D01*
X46593619Y-66918572D01*
X46573515Y-66921315D01*
X39448052Y-67304404D01*
X39380052Y-67288347D01*
X39331529Y-67238076D01*
X39320328Y-67207392D01*
X39256371Y-66918572D01*
X39009904Y-65805562D01*
X39007303Y-65787816D01*
X39001066Y-65702690D01*
X38993541Y-65599986D01*
X40500001Y-65599986D01*
X40510494Y-65702697D01*
X40565641Y-65869119D01*
X40565643Y-65869124D01*
X40657684Y-66018345D01*
X40781654Y-66142315D01*
X40930875Y-66234356D01*
X40930880Y-66234358D01*
X41097302Y-66289505D01*
X41097309Y-66289506D01*
X41200019Y-66299999D01*
X41750000Y-66299999D01*
X41799972Y-66299999D01*
X41799986Y-66299998D01*
X41902697Y-66289505D01*
X42069119Y-66234358D01*
X42069124Y-66234356D01*
X42218345Y-66142315D01*
X42342315Y-66018345D01*
X42434356Y-65869124D01*
X42434358Y-65869119D01*
X42489505Y-65702697D01*
X42489506Y-65702690D01*
X42499999Y-65599986D01*
X42500000Y-65599973D01*
X42500000Y-65050000D01*
X41750000Y-65050000D01*
X41750000Y-66299999D01*
X41200019Y-66299999D01*
X41249999Y-66299998D01*
X41250000Y-66299998D01*
X41250000Y-65050000D01*
X40500001Y-65050000D01*
X40500001Y-65599986D01*
X38993541Y-65599986D01*
X38876319Y-64000013D01*
X40500000Y-64000013D01*
X40500000Y-64550000D01*
X41250000Y-64550000D01*
X41750000Y-64550000D01*
X42499999Y-64550000D01*
X42499999Y-64000028D01*
X42499998Y-64000013D01*
X42489505Y-63897302D01*
X42434358Y-63730880D01*
X42434356Y-63730875D01*
X42342315Y-63581654D01*
X42218345Y-63457684D01*
X42069124Y-63365643D01*
X42069119Y-63365641D01*
X41902697Y-63310494D01*
X41902690Y-63310493D01*
X41799986Y-63300000D01*
X41750000Y-63300000D01*
X41750000Y-64550000D01*
X41250000Y-64550000D01*
X41250000Y-63300000D01*
X41249999Y-63299999D01*
X41200029Y-63300000D01*
X41200011Y-63300001D01*
X41097302Y-63310494D01*
X40930880Y-63365641D01*
X40930875Y-63365643D01*
X40781654Y-63457684D01*
X40657684Y-63581654D01*
X40565643Y-63730875D01*
X40565641Y-63730880D01*
X40510494Y-63897302D01*
X40510493Y-63897309D01*
X40500000Y-64000013D01*
X38876319Y-64000013D01*
X38816754Y-63186999D01*
X38816754Y-63168900D01*
X38827477Y-63022533D01*
X38852008Y-62957113D01*
X38908014Y-62915339D01*
X38944945Y-62907752D01*
X39096514Y-62900174D01*
X39103484Y-62900023D01*
X45992524Y-62946887D01*
G37*
G04 #@! TD.AperFunction*
M02*
