G04 #@! TF.GenerationSoftware,KiCad,Pcbnew,8.0.7-8.0.7-0~ubuntu24.04.1*
G04 #@! TF.CreationDate,2025-01-24T13:02:35+01:00*
G04 #@! TF.ProjectId,astrobox_power_smallbox,61737472-6f62-46f7-985f-706f7765725f,1*
G04 #@! TF.SameCoordinates,Original*
G04 #@! TF.FileFunction,Copper,L2,Bot*
G04 #@! TF.FilePolarity,Positive*
%FSLAX46Y46*%
G04 Gerber Fmt 4.6, Leading zero omitted, Abs format (unit mm)*
G04 Created by KiCad (PCBNEW 8.0.7-8.0.7-0~ubuntu24.04.1) date 2025-01-24 13:02:35*
%MOMM*%
%LPD*%
G01*
G04 APERTURE LIST*
G04 Aperture macros list*
%AMRoundRect*
0 Rectangle with rounded corners*
0 $1 Rounding radius*
0 $2 $3 $4 $5 $6 $7 $8 $9 X,Y pos of 4 corners*
0 Add a 4 corners polygon primitive as box body*
4,1,4,$2,$3,$4,$5,$6,$7,$8,$9,$2,$3,0*
0 Add four circle primitives for the rounded corners*
1,1,$1+$1,$2,$3*
1,1,$1+$1,$4,$5*
1,1,$1+$1,$6,$7*
1,1,$1+$1,$8,$9*
0 Add four rect primitives between the rounded corners*
20,1,$1+$1,$2,$3,$4,$5,0*
20,1,$1+$1,$4,$5,$6,$7,0*
20,1,$1+$1,$6,$7,$8,$9,0*
20,1,$1+$1,$8,$9,$2,$3,0*%
G04 Aperture macros list end*
G04 #@! TA.AperFunction,ComponentPad*
%ADD10RoundRect,0.249999X-1.300001X-1.300001X1.300001X-1.300001X1.300001X1.300001X-1.300001X1.300001X0*%
G04 #@! TD*
G04 #@! TA.AperFunction,ComponentPad*
%ADD11C,3.100000*%
G04 #@! TD*
G04 #@! TA.AperFunction,ComponentPad*
%ADD12R,1.905000X2.000000*%
G04 #@! TD*
G04 #@! TA.AperFunction,ComponentPad*
%ADD13O,1.905000X2.000000*%
G04 #@! TD*
G04 #@! TA.AperFunction,ComponentPad*
%ADD14C,6.400000*%
G04 #@! TD*
G04 #@! TA.AperFunction,ComponentPad*
%ADD15C,1.600000*%
G04 #@! TD*
G04 #@! TA.AperFunction,ComponentPad*
%ADD16O,1.600000X1.600000*%
G04 #@! TD*
G04 #@! TA.AperFunction,ComponentPad*
%ADD17R,1.600000X1.600000*%
G04 #@! TD*
G04 #@! TA.AperFunction,ComponentPad*
%ADD18R,2.400000X2.400000*%
G04 #@! TD*
G04 #@! TA.AperFunction,ComponentPad*
%ADD19O,2.400000X2.400000*%
G04 #@! TD*
G04 #@! TA.AperFunction,ComponentPad*
%ADD20R,1.700000X1.700000*%
G04 #@! TD*
G04 #@! TA.AperFunction,ComponentPad*
%ADD21O,1.700000X1.700000*%
G04 #@! TD*
G04 #@! TA.AperFunction,ComponentPad*
%ADD22C,2.000000*%
G04 #@! TD*
G04 #@! TA.AperFunction,ComponentPad*
%ADD23RoundRect,0.250000X1.125000X1.125000X-1.125000X1.125000X-1.125000X-1.125000X1.125000X-1.125000X0*%
G04 #@! TD*
G04 #@! TA.AperFunction,ComponentPad*
%ADD24C,2.750000*%
G04 #@! TD*
G04 #@! TA.AperFunction,ComponentPad*
%ADD25R,1.800000X1.100000*%
G04 #@! TD*
G04 #@! TA.AperFunction,ComponentPad*
%ADD26RoundRect,0.275000X0.625000X-0.275000X0.625000X0.275000X-0.625000X0.275000X-0.625000X-0.275000X0*%
G04 #@! TD*
G04 #@! TA.AperFunction,Conductor*
%ADD27C,0.600000*%
G04 #@! TD*
G04 APERTURE END LIST*
D10*
X147878800Y-54203600D03*
D11*
X153878800Y-54203600D03*
D10*
X163519600Y-54223800D03*
D11*
X169519600Y-54223800D03*
D12*
X114858800Y-62707400D03*
D13*
X117398800Y-62707400D03*
X119938800Y-62707400D03*
D14*
X104000000Y-55000000D03*
D10*
X132737600Y-54325400D03*
D11*
X138737600Y-54325400D03*
D15*
X166979600Y-74777600D03*
D16*
X179679600Y-74777600D03*
D12*
X133197600Y-62687200D03*
D13*
X135737600Y-62687200D03*
X138277600Y-62687200D03*
D17*
X185572400Y-92862400D03*
D16*
X188112400Y-92862400D03*
X190652400Y-92862400D03*
X193192400Y-92862400D03*
X193192400Y-85242400D03*
X190652400Y-85242400D03*
X188112400Y-85242400D03*
X185572400Y-85242400D03*
D10*
X177698400Y-54223800D03*
D11*
X183698400Y-54223800D03*
D18*
X177698400Y-94894400D03*
D19*
X177698400Y-82194400D03*
D20*
X163372800Y-106222800D03*
D21*
X165912800Y-106222800D03*
X168452800Y-106222800D03*
X170992800Y-106222800D03*
X173532800Y-106222800D03*
X176072800Y-106222800D03*
X178612800Y-106222800D03*
X181152800Y-106222800D03*
X183692800Y-106222800D03*
X186232800Y-106222800D03*
D15*
X161594800Y-67767200D03*
D16*
X174294800Y-67767200D03*
D15*
X146405600Y-67767200D03*
D16*
X159105600Y-67767200D03*
D14*
X195000000Y-55000000D03*
D12*
X178206400Y-62738000D03*
D13*
X180746400Y-62738000D03*
X183286400Y-62738000D03*
D15*
X164185600Y-97739200D03*
D16*
X151485600Y-97739200D03*
D15*
X161594800Y-83362800D03*
D16*
X161594800Y-70662800D03*
D15*
X112725200Y-67767200D03*
D16*
X125425200Y-67767200D03*
D15*
X146405600Y-83362800D03*
D16*
X146405600Y-70662800D03*
D14*
X195000000Y-104000000D03*
D22*
X184505600Y-80630400D03*
X184505600Y-75630400D03*
D18*
X170586400Y-82194400D03*
D19*
X170586400Y-94894400D03*
D22*
X193192400Y-80630400D03*
X193192400Y-75630400D03*
D12*
X148488400Y-62738000D03*
D13*
X151028400Y-62738000D03*
X153568400Y-62738000D03*
D15*
X131216400Y-83362800D03*
D16*
X131216400Y-70662800D03*
D15*
X189534800Y-67767200D03*
D16*
X176834800Y-67767200D03*
D15*
X112725200Y-83261200D03*
D16*
X112725200Y-70561200D03*
D15*
X131165600Y-67767200D03*
D16*
X143865600Y-67767200D03*
D14*
X104000000Y-104000000D03*
D12*
X163677600Y-62687200D03*
D13*
X166217600Y-62687200D03*
X168757600Y-62687200D03*
D15*
X193141600Y-59588400D03*
D16*
X193141600Y-72288400D03*
D10*
X114503200Y-54325400D03*
D11*
X120503200Y-54325400D03*
D23*
X134061200Y-91440000D03*
D24*
X128661200Y-91440000D03*
X123261200Y-91440000D03*
X117861200Y-91440000D03*
X112461200Y-91440000D03*
D25*
X158438800Y-92659200D03*
D26*
X156368800Y-91389200D03*
X158438800Y-90119200D03*
D15*
X138785600Y-91440000D03*
D16*
X151485600Y-91440000D03*
D27*
X173939200Y-74777600D02*
X168427400Y-69265800D01*
X171754800Y-65938400D02*
X171754800Y-56459000D01*
X132369600Y-87731600D02*
X149961600Y-87731600D01*
X172333800Y-51409600D02*
X169519600Y-54223800D01*
X196342000Y-79146400D02*
X196342000Y-91948000D01*
X128661200Y-91440000D02*
X132369600Y-87731600D01*
X180884200Y-51409600D02*
X172333800Y-51409600D01*
X171754800Y-56459000D02*
X169519600Y-54223800D01*
X179679600Y-74777600D02*
X173939200Y-74777600D01*
X168427400Y-69265800D02*
X171754800Y-65938400D01*
X195275200Y-78079600D02*
X196342000Y-79146400D01*
X149961600Y-87731600D02*
X168427400Y-69265800D01*
X179679600Y-76911200D02*
X180848000Y-78079600D01*
X179679600Y-74777600D02*
X179679600Y-76911200D01*
X180848000Y-78079600D02*
X195275200Y-78079600D01*
X195427600Y-92862400D02*
X193192400Y-92862400D01*
X183698400Y-54223800D02*
X180884200Y-51409600D01*
X185572400Y-85242400D02*
X183489600Y-85242400D01*
X180848000Y-82600800D02*
X180848000Y-78079600D01*
X196342000Y-91948000D02*
X195427600Y-92862400D01*
X183489600Y-85242400D02*
X180848000Y-82600800D01*
X189139200Y-80630400D02*
X190652400Y-82143600D01*
X188112400Y-94996000D02*
X188112400Y-92862400D01*
X190652400Y-85242400D02*
X190652400Y-87071200D01*
X190652400Y-82143600D02*
X190652400Y-85242400D01*
X190652400Y-87071200D02*
X188112400Y-89611200D01*
X183692800Y-99415600D02*
X188112400Y-94996000D01*
X183692800Y-106222800D02*
X183692800Y-99415600D01*
X188112400Y-89611200D02*
X188112400Y-92862400D01*
X184505600Y-80630400D02*
X189139200Y-80630400D01*
X193192400Y-80630400D02*
X193192400Y-85242400D01*
X181152800Y-106222800D02*
X181152800Y-98348800D01*
X181152800Y-98348800D02*
X177698400Y-94894400D01*
X178612800Y-99872800D02*
X173634400Y-94894400D01*
X178612800Y-106222800D02*
X178612800Y-99872800D01*
X173634400Y-94894400D02*
X170586400Y-94894400D01*
X140919200Y-56507000D02*
X138737600Y-54325400D01*
X140919200Y-68382000D02*
X140919200Y-56507000D01*
X117861200Y-91440000D02*
X140919200Y-68382000D01*
X128595200Y-86106000D02*
X140004800Y-86106000D01*
X140004800Y-86106000D02*
X156108400Y-70002400D01*
X156108400Y-56433200D02*
X153878800Y-54203600D01*
X156108400Y-70002400D02*
X156108400Y-56433200D01*
X123261200Y-91440000D02*
X128595200Y-86106000D01*
X112461200Y-91440000D02*
X122529600Y-81371600D01*
X122529600Y-81371600D02*
X122529600Y-56351800D01*
X122529600Y-56351800D02*
X120503200Y-54325400D01*
X162864800Y-99872800D02*
X161594800Y-98602800D01*
X161594800Y-98602800D02*
X161594800Y-83362800D01*
X173532800Y-106222800D02*
X173532800Y-102260400D01*
X171145200Y-99872800D02*
X162864800Y-99872800D01*
X173532800Y-102260400D02*
X171145200Y-99872800D01*
X117398800Y-62707400D02*
X117398800Y-57221000D01*
X117398800Y-57221000D02*
X114503200Y-54325400D01*
X135737600Y-62687200D02*
X135737600Y-57325400D01*
X135737600Y-57325400D02*
X132737600Y-54325400D01*
X151028400Y-57353200D02*
X147878800Y-54203600D01*
X151028400Y-62738000D02*
X151028400Y-57353200D01*
X166217600Y-56921800D02*
X163519600Y-54223800D01*
X166217600Y-62687200D02*
X166217600Y-56921800D01*
X180746400Y-62738000D02*
X180746400Y-57271800D01*
X180746400Y-57271800D02*
X177698400Y-54223800D01*
X179781200Y-88493600D02*
X177698400Y-86410800D01*
X187198000Y-88493600D02*
X179781200Y-88493600D01*
X170586400Y-82194400D02*
X177698400Y-82194400D01*
X166979600Y-74777600D02*
X166979600Y-78587600D01*
X188112400Y-87579200D02*
X187198000Y-88493600D01*
X166979600Y-78587600D02*
X170586400Y-82194400D01*
X177698400Y-86410800D02*
X177698400Y-82194400D01*
X188112400Y-85242400D02*
X188112400Y-87579200D01*
X151485600Y-97739200D02*
X151485600Y-91440000D01*
X156768800Y-91389200D02*
X151536400Y-91389200D01*
X151536400Y-91389200D02*
X151485600Y-91440000D01*
X182930800Y-67767200D02*
X191109600Y-59588400D01*
X176834800Y-67767200D02*
X182930800Y-67767200D01*
X178206400Y-62738000D02*
X178206400Y-66395600D01*
X178206400Y-66395600D02*
X176834800Y-67767200D01*
X191109600Y-59588400D02*
X193141600Y-59588400D01*
X164185600Y-97739200D02*
X173075600Y-97739200D01*
X176072800Y-100736400D02*
X176072800Y-106222800D01*
X173075600Y-97739200D02*
X176072800Y-100736400D01*
X114858800Y-65633600D02*
X112725200Y-67767200D01*
X112725200Y-70561200D02*
X112725200Y-67767200D01*
X114858800Y-62707400D02*
X114858800Y-65633600D01*
X133197600Y-65735200D02*
X131165600Y-67767200D01*
X131216400Y-67818000D02*
X131165600Y-67767200D01*
X131216400Y-70662800D02*
X131216400Y-67818000D01*
X133197600Y-62687200D02*
X133197600Y-65735200D01*
X148488400Y-62738000D02*
X148488400Y-65684400D01*
X146405600Y-70662800D02*
X146405600Y-67767200D01*
X148488400Y-65684400D02*
X146405600Y-67767200D01*
X163677600Y-62687200D02*
X163677600Y-65684400D01*
X163677600Y-65684400D02*
X161594800Y-67767200D01*
X161594800Y-70662800D02*
X161594800Y-67767200D01*
G04 #@! TA.AperFunction,Conductor*
G36*
X171578999Y-50819685D02*
G01*
X171624754Y-50872489D01*
X171634698Y-50941647D01*
X171605673Y-51005203D01*
X171599641Y-51011681D01*
X170348608Y-52262712D01*
X170287285Y-52296197D01*
X170217593Y-52291213D01*
X170211530Y-52288767D01*
X170207878Y-52287181D01*
X170207876Y-52287180D01*
X170207875Y-52287180D01*
X170120548Y-52262712D01*
X169937766Y-52211498D01*
X169937762Y-52211497D01*
X169937761Y-52211497D01*
X169790796Y-52191297D01*
X169659859Y-52173300D01*
X169659858Y-52173300D01*
X169379342Y-52173300D01*
X169379341Y-52173300D01*
X169101439Y-52211497D01*
X169101433Y-52211498D01*
X168831323Y-52287180D01*
X168574033Y-52398936D01*
X168334357Y-52544686D01*
X168116754Y-52721719D01*
X167925292Y-52926725D01*
X167925292Y-52926726D01*
X167763519Y-53155903D01*
X167634463Y-53404971D01*
X167540526Y-53669283D01*
X167540521Y-53669300D01*
X167483452Y-53943935D01*
X167483451Y-53943937D01*
X167464309Y-54223800D01*
X167483451Y-54503662D01*
X167483452Y-54503664D01*
X167540521Y-54778299D01*
X167540526Y-54778316D01*
X167627284Y-55022428D01*
X167634464Y-55042630D01*
X167763519Y-55291696D01*
X167925288Y-55520869D01*
X167925292Y-55520873D01*
X167925292Y-55520874D01*
X168116754Y-55725880D01*
X168116755Y-55725881D01*
X168334354Y-55902911D01*
X168334356Y-55902912D01*
X168334357Y-55902913D01*
X168574033Y-56048663D01*
X168756258Y-56127814D01*
X168831325Y-56160420D01*
X169101439Y-56236103D01*
X169345759Y-56269684D01*
X169379341Y-56274300D01*
X169379342Y-56274300D01*
X169659859Y-56274300D01*
X169689819Y-56270181D01*
X169937761Y-56236103D01*
X170207875Y-56160420D01*
X170211519Y-56158836D01*
X170280849Y-56150179D01*
X170343855Y-56180378D01*
X170348609Y-56184887D01*
X170917981Y-56754259D01*
X170951466Y-56815582D01*
X170954300Y-56841940D01*
X170954300Y-65555460D01*
X170934615Y-65622499D01*
X170917981Y-65643141D01*
X149666341Y-86894781D01*
X149605018Y-86928266D01*
X149578660Y-86931100D01*
X140611141Y-86931100D01*
X140544102Y-86911415D01*
X140498347Y-86858611D01*
X140488403Y-86789453D01*
X140517428Y-86725897D01*
X140523460Y-86719419D01*
X143880081Y-83362798D01*
X145100132Y-83362798D01*
X145100132Y-83362801D01*
X145119964Y-83589486D01*
X145119966Y-83589497D01*
X145178858Y-83809288D01*
X145178861Y-83809297D01*
X145275031Y-84015532D01*
X145275032Y-84015534D01*
X145405554Y-84201941D01*
X145566458Y-84362845D01*
X145566461Y-84362847D01*
X145752866Y-84493368D01*
X145959104Y-84589539D01*
X145959109Y-84589540D01*
X145959111Y-84589541D01*
X146012015Y-84603716D01*
X146178908Y-84648435D01*
X146340830Y-84662601D01*
X146405598Y-84668268D01*
X146405600Y-84668268D01*
X146405602Y-84668268D01*
X146462273Y-84663309D01*
X146632292Y-84648435D01*
X146852096Y-84589539D01*
X147058334Y-84493368D01*
X147244739Y-84362847D01*
X147405647Y-84201939D01*
X147536168Y-84015534D01*
X147632339Y-83809296D01*
X147691235Y-83589492D01*
X147711068Y-83362800D01*
X147710322Y-83354278D01*
X147692889Y-83155012D01*
X147691235Y-83136108D01*
X147632339Y-82916304D01*
X147536168Y-82710066D01*
X147405647Y-82523661D01*
X147405645Y-82523658D01*
X147244741Y-82362754D01*
X147058334Y-82232232D01*
X147058332Y-82232231D01*
X146852097Y-82136061D01*
X146852088Y-82136058D01*
X146632297Y-82077166D01*
X146632293Y-82077165D01*
X146632292Y-82077165D01*
X146632291Y-82077164D01*
X146632286Y-82077164D01*
X146405602Y-82057332D01*
X146405598Y-82057332D01*
X146178913Y-82077164D01*
X146178902Y-82077166D01*
X145959111Y-82136058D01*
X145959102Y-82136061D01*
X145752867Y-82232231D01*
X145752865Y-82232232D01*
X145566458Y-82362754D01*
X145405554Y-82523658D01*
X145275032Y-82710065D01*
X145275031Y-82710067D01*
X145178861Y-82916302D01*
X145178858Y-82916311D01*
X145119966Y-83136102D01*
X145119964Y-83136113D01*
X145100132Y-83362798D01*
X143880081Y-83362798D01*
X156730186Y-70512692D01*
X156730189Y-70512689D01*
X156817794Y-70381579D01*
X156878138Y-70235897D01*
X156908900Y-70081242D01*
X156908900Y-69923557D01*
X156908900Y-67517199D01*
X157826727Y-67517199D01*
X157826728Y-67517200D01*
X158789914Y-67517200D01*
X158785520Y-67521594D01*
X158732859Y-67612806D01*
X158705600Y-67714539D01*
X158705600Y-67819861D01*
X158732859Y-67921594D01*
X158785520Y-68012806D01*
X158789914Y-68017200D01*
X157826728Y-68017200D01*
X157879330Y-68213517D01*
X157879334Y-68213526D01*
X157975465Y-68419682D01*
X158105942Y-68606020D01*
X158266779Y-68766857D01*
X158453117Y-68897334D01*
X158659273Y-68993465D01*
X158659282Y-68993469D01*
X158855599Y-69046072D01*
X158855600Y-69046071D01*
X158855600Y-68082886D01*
X158859994Y-68087280D01*
X158951206Y-68139941D01*
X159052939Y-68167200D01*
X159158261Y-68167200D01*
X159259994Y-68139941D01*
X159351206Y-68087280D01*
X159355600Y-68082886D01*
X159355600Y-69046072D01*
X159551917Y-68993469D01*
X159551926Y-68993465D01*
X159758082Y-68897334D01*
X159944420Y-68766857D01*
X160105257Y-68606020D01*
X160235732Y-68419684D01*
X160237539Y-68415810D01*
X160283709Y-68363368D01*
X160350902Y-68344213D01*
X160417784Y-68364425D01*
X160462304Y-68415800D01*
X160464229Y-68419929D01*
X160464232Y-68419934D01*
X160594754Y-68606341D01*
X160757981Y-68769568D01*
X160791466Y-68830891D01*
X160794300Y-68857249D01*
X160794300Y-69572751D01*
X160774615Y-69639790D01*
X160757981Y-69660432D01*
X160594754Y-69823658D01*
X160464232Y-70010065D01*
X160464231Y-70010067D01*
X160368061Y-70216302D01*
X160368058Y-70216311D01*
X160309166Y-70436102D01*
X160309164Y-70436113D01*
X160289332Y-70662798D01*
X160289332Y-70662801D01*
X160309164Y-70889486D01*
X160309166Y-70889497D01*
X160368058Y-71109288D01*
X160368061Y-71109297D01*
X160464231Y-71315532D01*
X160464232Y-71315534D01*
X160594754Y-71501941D01*
X160755658Y-71662845D01*
X160755661Y-71662847D01*
X160942066Y-71793368D01*
X161148304Y-71889539D01*
X161368108Y-71948435D01*
X161530030Y-71962601D01*
X161594798Y-71968268D01*
X161594800Y-71968268D01*
X161594802Y-71968268D01*
X161651473Y-71963309D01*
X161821492Y-71948435D01*
X162041296Y-71889539D01*
X162247534Y-71793368D01*
X162433939Y-71662847D01*
X162594847Y-71501939D01*
X162725368Y-71315534D01*
X162821539Y-71109296D01*
X162880435Y-70889492D01*
X162900268Y-70662800D01*
X162880435Y-70436108D01*
X162821539Y-70216304D01*
X162725368Y-70010066D01*
X162594847Y-69823661D01*
X162594845Y-69823658D01*
X162431619Y-69660432D01*
X162398134Y-69599109D01*
X162395300Y-69572751D01*
X162395300Y-68857249D01*
X162414985Y-68790210D01*
X162431619Y-68769568D01*
X162594845Y-68606341D01*
X162594847Y-68606339D01*
X162725368Y-68419934D01*
X162821539Y-68213696D01*
X162880435Y-67993892D01*
X162900268Y-67767200D01*
X162891357Y-67665358D01*
X162905123Y-67596862D01*
X162927201Y-67566875D01*
X164299389Y-66194689D01*
X164386994Y-66063579D01*
X164447337Y-65917897D01*
X164478100Y-65763242D01*
X164478100Y-65605558D01*
X164478100Y-64311699D01*
X164497785Y-64244660D01*
X164550589Y-64198905D01*
X164602100Y-64187699D01*
X164677971Y-64187699D01*
X164677972Y-64187699D01*
X164737583Y-64181291D01*
X164872431Y-64130996D01*
X164987646Y-64044746D01*
X165073896Y-63929531D01*
X165084290Y-63901660D01*
X165126160Y-63845727D01*
X165191623Y-63821308D01*
X165259897Y-63836158D01*
X165273346Y-63844665D01*
X165456062Y-63977417D01*
X165658927Y-64080782D01*
X165659844Y-64081249D01*
X165877351Y-64151921D01*
X165877352Y-64151921D01*
X165877355Y-64151922D01*
X166103246Y-64187700D01*
X166103247Y-64187700D01*
X166331953Y-64187700D01*
X166331954Y-64187700D01*
X166557845Y-64151922D01*
X166557848Y-64151921D01*
X166557849Y-64151921D01*
X166775355Y-64081249D01*
X166775355Y-64081248D01*
X166775358Y-64081248D01*
X166979138Y-63977417D01*
X167164166Y-63842986D01*
X167325886Y-63681266D01*
X167387592Y-63596334D01*
X167442919Y-63553670D01*
X167512532Y-63547691D01*
X167574327Y-63580296D01*
X167588226Y-63596335D01*
X167649697Y-63680941D01*
X167649697Y-63680942D01*
X167811357Y-63842602D01*
X167996323Y-63976988D01*
X168200029Y-64080782D01*
X168417471Y-64151434D01*
X168507600Y-64165709D01*
X168507600Y-63177947D01*
X168545308Y-63199718D01*
X168685191Y-63237200D01*
X168830009Y-63237200D01*
X168969892Y-63199718D01*
X169007600Y-63177947D01*
X169007600Y-64165708D01*
X169097728Y-64151434D01*
X169315170Y-64080782D01*
X169518876Y-63976988D01*
X169703842Y-63842602D01*
X169865502Y-63680942D01*
X169999888Y-63495976D01*
X170103682Y-63292270D01*
X170174334Y-63074828D01*
X170196132Y-62937200D01*
X169248348Y-62937200D01*
X169270118Y-62899492D01*
X169307600Y-62759609D01*
X169307600Y-62614791D01*
X169270118Y-62474908D01*
X169248348Y-62437200D01*
X170196132Y-62437200D01*
X170174334Y-62299571D01*
X170103682Y-62082129D01*
X169999888Y-61878423D01*
X169865502Y-61693457D01*
X169703842Y-61531797D01*
X169518876Y-61397411D01*
X169315168Y-61293617D01*
X169097724Y-61222965D01*
X169007600Y-61208690D01*
X169007600Y-62196452D01*
X168969892Y-62174682D01*
X168830009Y-62137200D01*
X168685191Y-62137200D01*
X168545308Y-62174682D01*
X168507600Y-62196452D01*
X168507600Y-61208690D01*
X168507599Y-61208690D01*
X168417475Y-61222965D01*
X168200031Y-61293617D01*
X167996323Y-61397411D01*
X167811357Y-61531797D01*
X167649697Y-61693457D01*
X167588227Y-61778064D01*
X167532897Y-61820729D01*
X167463284Y-61826708D01*
X167401489Y-61794102D01*
X167387591Y-61778064D01*
X167325886Y-61693134D01*
X167164166Y-61531414D01*
X167069213Y-61462426D01*
X167026549Y-61407096D01*
X167018100Y-61362109D01*
X167018100Y-56842961D01*
X167018099Y-56842954D01*
X167018090Y-56842911D01*
X167017149Y-56838179D01*
X166987337Y-56688303D01*
X166968906Y-56643806D01*
X166950434Y-56599211D01*
X166926997Y-56542627D01*
X166926990Y-56542614D01*
X166839390Y-56411512D01*
X166793276Y-56365398D01*
X166727889Y-56300011D01*
X165606419Y-55178541D01*
X165572934Y-55117218D01*
X165570100Y-55090860D01*
X165570100Y-52873795D01*
X165570099Y-52873782D01*
X165569978Y-52872602D01*
X165559599Y-52771002D01*
X165504414Y-52604465D01*
X165412312Y-52455144D01*
X165288256Y-52331088D01*
X165184684Y-52267204D01*
X165138937Y-52238987D01*
X165138932Y-52238985D01*
X165111168Y-52229785D01*
X164972398Y-52183801D01*
X164972396Y-52183800D01*
X164869617Y-52173300D01*
X164869610Y-52173300D01*
X162169590Y-52173300D01*
X162169582Y-52173300D01*
X162066803Y-52183800D01*
X162066802Y-52183801D01*
X162044181Y-52191297D01*
X161900267Y-52238985D01*
X161900262Y-52238987D01*
X161750942Y-52331089D01*
X161626889Y-52455142D01*
X161534787Y-52604462D01*
X161534785Y-52604467D01*
X161520928Y-52646286D01*
X161479601Y-52771002D01*
X161479601Y-52771003D01*
X161479600Y-52771003D01*
X161469100Y-52873782D01*
X161469100Y-55573817D01*
X161479600Y-55676596D01*
X161510695Y-55770433D01*
X161534786Y-55843135D01*
X161626888Y-55992456D01*
X161750944Y-56116512D01*
X161900265Y-56208614D01*
X162066802Y-56263799D01*
X162169590Y-56274300D01*
X164386660Y-56274300D01*
X164453699Y-56293985D01*
X164474341Y-56310619D01*
X165380781Y-57217059D01*
X165414266Y-57278382D01*
X165417100Y-57304740D01*
X165417100Y-61362109D01*
X165397415Y-61429148D01*
X165365986Y-61462426D01*
X165281875Y-61523538D01*
X165273359Y-61529725D01*
X165207552Y-61553205D01*
X165139499Y-61537380D01*
X165090804Y-61487274D01*
X165084290Y-61472738D01*
X165080444Y-61462427D01*
X165073896Y-61444869D01*
X165073893Y-61444864D01*
X164987647Y-61329655D01*
X164987644Y-61329652D01*
X164872435Y-61243406D01*
X164872428Y-61243402D01*
X164737582Y-61193108D01*
X164737583Y-61193108D01*
X164677983Y-61186701D01*
X164677981Y-61186700D01*
X164677973Y-61186700D01*
X164677964Y-61186700D01*
X162677229Y-61186700D01*
X162677223Y-61186701D01*
X162617616Y-61193108D01*
X162482771Y-61243402D01*
X162482764Y-61243406D01*
X162367555Y-61329652D01*
X162367552Y-61329655D01*
X162281306Y-61444864D01*
X162281302Y-61444871D01*
X162231008Y-61579717D01*
X162224601Y-61639316D01*
X162224600Y-61639335D01*
X162224600Y-63735070D01*
X162224601Y-63735076D01*
X162231008Y-63794683D01*
X162281302Y-63929528D01*
X162281306Y-63929535D01*
X162367552Y-64044744D01*
X162367555Y-64044747D01*
X162482764Y-64130993D01*
X162482771Y-64130997D01*
X162485592Y-64132049D01*
X162617617Y-64181291D01*
X162677227Y-64187700D01*
X162753100Y-64187699D01*
X162820138Y-64207383D01*
X162865894Y-64260186D01*
X162877100Y-64311699D01*
X162877100Y-65301459D01*
X162857415Y-65368498D01*
X162840781Y-65389140D01*
X161795126Y-66434794D01*
X161733803Y-66468279D01*
X161696638Y-66470641D01*
X161594802Y-66461732D01*
X161594798Y-66461732D01*
X161368113Y-66481564D01*
X161368102Y-66481566D01*
X161148311Y-66540458D01*
X161148302Y-66540461D01*
X160942067Y-66636631D01*
X160942065Y-66636632D01*
X160755658Y-66767154D01*
X160594754Y-66928058D01*
X160464232Y-67114465D01*
X160464230Y-67114470D01*
X160462302Y-67118604D01*
X160416125Y-67171039D01*
X160348930Y-67190186D01*
X160282051Y-67169965D01*
X160237542Y-67118594D01*
X160235735Y-67114720D01*
X160235734Y-67114718D01*
X160105257Y-66928379D01*
X159944420Y-66767542D01*
X159758082Y-66637065D01*
X159551928Y-66540934D01*
X159355600Y-66488327D01*
X159355600Y-67451514D01*
X159351206Y-67447120D01*
X159259994Y-67394459D01*
X159158261Y-67367200D01*
X159052939Y-67367200D01*
X158951206Y-67394459D01*
X158859994Y-67447120D01*
X158855600Y-67451514D01*
X158855600Y-66488327D01*
X158659271Y-66540934D01*
X158453117Y-66637065D01*
X158266779Y-66767542D01*
X158105942Y-66928379D01*
X157975465Y-67114717D01*
X157879334Y-67320873D01*
X157879330Y-67320882D01*
X157826727Y-67517199D01*
X156908900Y-67517199D01*
X156908900Y-56354358D01*
X156898090Y-56300011D01*
X156878138Y-56199703D01*
X156817794Y-56054021D01*
X156817792Y-56054018D01*
X156817790Y-56054014D01*
X156730189Y-55922911D01*
X156730186Y-55922907D01*
X155836574Y-55029296D01*
X155803089Y-54967973D01*
X155807414Y-54900092D01*
X155857875Y-54758111D01*
X155857876Y-54758103D01*
X155857878Y-54758099D01*
X155889637Y-54605264D01*
X155914948Y-54483462D01*
X155934091Y-54203600D01*
X155914948Y-53923738D01*
X155883188Y-53770900D01*
X155857878Y-53649100D01*
X155857873Y-53649083D01*
X155802332Y-53492806D01*
X155763936Y-53384770D01*
X155634881Y-53135704D01*
X155473112Y-52906531D01*
X155473107Y-52906525D01*
X155281645Y-52701519D01*
X155213758Y-52646289D01*
X155064046Y-52524489D01*
X155064044Y-52524488D01*
X155064042Y-52524486D01*
X154824366Y-52378736D01*
X154567076Y-52266980D01*
X154296966Y-52191298D01*
X154296962Y-52191297D01*
X154296961Y-52191297D01*
X154158009Y-52172198D01*
X154019059Y-52153100D01*
X154019058Y-52153100D01*
X153738542Y-52153100D01*
X153738541Y-52153100D01*
X153460639Y-52191297D01*
X153460633Y-52191298D01*
X153190523Y-52266980D01*
X152933233Y-52378736D01*
X152693557Y-52524486D01*
X152475954Y-52701519D01*
X152284492Y-52906525D01*
X152284492Y-52906526D01*
X152284489Y-52906528D01*
X152284488Y-52906531D01*
X152235887Y-52975382D01*
X152122719Y-53135703D01*
X151993663Y-53384771D01*
X151899726Y-53649083D01*
X151899721Y-53649100D01*
X151842652Y-53923735D01*
X151842651Y-53923737D01*
X151823509Y-54203600D01*
X151842651Y-54483462D01*
X151842652Y-54483464D01*
X151899721Y-54758099D01*
X151899726Y-54758116D01*
X151993663Y-55022428D01*
X151993664Y-55022430D01*
X152122719Y-55271496D01*
X152284488Y-55500669D01*
X152284492Y-55500673D01*
X152284492Y-55500674D01*
X152448793Y-55676598D01*
X152475955Y-55705681D01*
X152693554Y-55882711D01*
X152693556Y-55882712D01*
X152693557Y-55882713D01*
X152933233Y-56028463D01*
X153135939Y-56116510D01*
X153190525Y-56140220D01*
X153460639Y-56215903D01*
X153704959Y-56249484D01*
X153738541Y-56254100D01*
X153738542Y-56254100D01*
X154019059Y-56254100D01*
X154049019Y-56249981D01*
X154296961Y-56215903D01*
X154567075Y-56140220D01*
X154570719Y-56138636D01*
X154640049Y-56129979D01*
X154703055Y-56160178D01*
X154707809Y-56164687D01*
X155271581Y-56728459D01*
X155305066Y-56789782D01*
X155307900Y-56816140D01*
X155307900Y-69619460D01*
X155288215Y-69686499D01*
X155271581Y-69707141D01*
X139709541Y-85269181D01*
X139648218Y-85302666D01*
X139621860Y-85305500D01*
X128516355Y-85305500D01*
X128437218Y-85321242D01*
X128437217Y-85321242D01*
X128361710Y-85336261D01*
X128361698Y-85336264D01*
X128216027Y-85396602D01*
X128216014Y-85396609D01*
X128107538Y-85469092D01*
X128107537Y-85469093D01*
X128084908Y-85484212D01*
X123950937Y-89618183D01*
X123889614Y-89651668D01*
X123819925Y-89646685D01*
X123806785Y-89641784D01*
X123790939Y-89635874D01*
X123790937Y-89635873D01*
X123790933Y-89635872D01*
X123528801Y-89578849D01*
X123528794Y-89578848D01*
X123261201Y-89559709D01*
X123261199Y-89559709D01*
X122993605Y-89578848D01*
X122993598Y-89578849D01*
X122731465Y-89635872D01*
X122480097Y-89729627D01*
X122480093Y-89729629D01*
X122244643Y-89858195D01*
X122244635Y-89858200D01*
X122029878Y-90018964D01*
X122029860Y-90018980D01*
X121840180Y-90208660D01*
X121840164Y-90208678D01*
X121679400Y-90423435D01*
X121679395Y-90423443D01*
X121550829Y-90658893D01*
X121550827Y-90658897D01*
X121457072Y-90910265D01*
X121400049Y-91172398D01*
X121400048Y-91172405D01*
X121380909Y-91439998D01*
X121380909Y-91440001D01*
X121400048Y-91707594D01*
X121400049Y-91707601D01*
X121457072Y-91969734D01*
X121550827Y-92221102D01*
X121550829Y-92221106D01*
X121679395Y-92456556D01*
X121679400Y-92456564D01*
X121840164Y-92671321D01*
X121840180Y-92671339D01*
X122029860Y-92861019D01*
X122029878Y-92861035D01*
X122244635Y-93021799D01*
X122244643Y-93021804D01*
X122480093Y-93150370D01*
X122480097Y-93150372D01*
X122480099Y-93150373D01*
X122731461Y-93244126D01*
X122731464Y-93244126D01*
X122731465Y-93244127D01*
X122810271Y-93261270D01*
X122993607Y-93301152D01*
X123240585Y-93318816D01*
X123261199Y-93320291D01*
X123261200Y-93320291D01*
X123261201Y-93320291D01*
X123280340Y-93318922D01*
X123528793Y-93301152D01*
X123790939Y-93244126D01*
X124042301Y-93150373D01*
X124277762Y-93021801D01*
X124492529Y-92861029D01*
X124682229Y-92671329D01*
X124843001Y-92456562D01*
X124971573Y-92221101D01*
X125065326Y-91969739D01*
X125122352Y-91707593D01*
X125141491Y-91440000D01*
X125122352Y-91172407D01*
X125065326Y-90910261D01*
X125054514Y-90881275D01*
X125049530Y-90811585D01*
X125083011Y-90750265D01*
X128890459Y-86942819D01*
X128951782Y-86909334D01*
X128978140Y-86906500D01*
X131763259Y-86906500D01*
X131830298Y-86926185D01*
X131876053Y-86978989D01*
X131885997Y-87048147D01*
X131856972Y-87111703D01*
X131850940Y-87118181D01*
X129350937Y-89618183D01*
X129289614Y-89651668D01*
X129219925Y-89646685D01*
X129206785Y-89641784D01*
X129190939Y-89635874D01*
X129190937Y-89635873D01*
X129190933Y-89635872D01*
X128928801Y-89578849D01*
X128928794Y-89578848D01*
X128661201Y-89559709D01*
X128661199Y-89559709D01*
X128393605Y-89578848D01*
X128393598Y-89578849D01*
X128131465Y-89635872D01*
X127880097Y-89729627D01*
X127880093Y-89729629D01*
X127644643Y-89858195D01*
X127644635Y-89858200D01*
X127429878Y-90018964D01*
X127429860Y-90018980D01*
X127240180Y-90208660D01*
X127240164Y-90208678D01*
X127079400Y-90423435D01*
X127079395Y-90423443D01*
X126950829Y-90658893D01*
X126950827Y-90658897D01*
X126857072Y-90910265D01*
X126800049Y-91172398D01*
X126800048Y-91172405D01*
X126780909Y-91439998D01*
X126780909Y-91440001D01*
X126800048Y-91707594D01*
X126800049Y-91707601D01*
X126857072Y-91969734D01*
X126950827Y-92221102D01*
X126950829Y-92221106D01*
X127079395Y-92456556D01*
X127079400Y-92456564D01*
X127240164Y-92671321D01*
X127240180Y-92671339D01*
X127429860Y-92861019D01*
X127429878Y-92861035D01*
X127644635Y-93021799D01*
X127644643Y-93021804D01*
X127880093Y-93150370D01*
X127880097Y-93150372D01*
X127880099Y-93150373D01*
X128131461Y-93244126D01*
X128131464Y-93244126D01*
X128131465Y-93244127D01*
X128210271Y-93261270D01*
X128393607Y-93301152D01*
X128640585Y-93318816D01*
X128661199Y-93320291D01*
X128661200Y-93320291D01*
X128661201Y-93320291D01*
X128680340Y-93318922D01*
X128928793Y-93301152D01*
X129190939Y-93244126D01*
X129442301Y-93150373D01*
X129677762Y-93021801D01*
X129892529Y-92861029D01*
X130082229Y-92671329D01*
X130243001Y-92456562D01*
X130371573Y-92221101D01*
X130465326Y-91969739D01*
X130522352Y-91707593D01*
X130541491Y-91440000D01*
X130522352Y-91172407D01*
X130465326Y-90910261D01*
X130454514Y-90881275D01*
X130449530Y-90811585D01*
X130483011Y-90750265D01*
X130968263Y-90265013D01*
X132186200Y-90265013D01*
X132186200Y-91190000D01*
X133218786Y-91190000D01*
X133186200Y-91353820D01*
X133186200Y-91526180D01*
X133218786Y-91690000D01*
X132186201Y-91690000D01*
X132186201Y-92614986D01*
X132196694Y-92717697D01*
X132251841Y-92884119D01*
X132251843Y-92884124D01*
X132343884Y-93033345D01*
X132467854Y-93157315D01*
X132617075Y-93249356D01*
X132617080Y-93249358D01*
X132783502Y-93304505D01*
X132783509Y-93304506D01*
X132886219Y-93314999D01*
X133811199Y-93314999D01*
X133811200Y-93314998D01*
X133811200Y-92282413D01*
X133975020Y-92315000D01*
X134147380Y-92315000D01*
X134311200Y-92282413D01*
X134311200Y-93314999D01*
X135236172Y-93314999D01*
X135236186Y-93314998D01*
X135338897Y-93304505D01*
X135505319Y-93249358D01*
X135505324Y-93249356D01*
X135654545Y-93157315D01*
X135778515Y-93033345D01*
X135870556Y-92884124D01*
X135870558Y-92884119D01*
X135925705Y-92717697D01*
X135925706Y-92717690D01*
X135936199Y-92614986D01*
X135936200Y-92614973D01*
X135936200Y-91690000D01*
X134903614Y-91690000D01*
X134936200Y-91526180D01*
X134936200Y-91439997D01*
X137480634Y-91439997D01*
X137480634Y-91440002D01*
X137500458Y-91666599D01*
X137500460Y-91666610D01*
X137559330Y-91886317D01*
X137559335Y-91886331D01*
X137655463Y-92092478D01*
X137706574Y-92165472D01*
X138385600Y-91486446D01*
X138385600Y-91492661D01*
X138412859Y-91594394D01*
X138465520Y-91685606D01*
X138539994Y-91760080D01*
X138631206Y-91812741D01*
X138732939Y-91840000D01*
X138739153Y-91840000D01*
X138060126Y-92519025D01*
X138133113Y-92570132D01*
X138133121Y-92570136D01*
X138339268Y-92666264D01*
X138339282Y-92666269D01*
X138558989Y-92725139D01*
X138559000Y-92725141D01*
X138785598Y-92744966D01*
X138785602Y-92744966D01*
X139012199Y-92725141D01*
X139012210Y-92725139D01*
X139231917Y-92666269D01*
X139231931Y-92666264D01*
X139438078Y-92570136D01*
X139511071Y-92519024D01*
X138832047Y-91840000D01*
X138838261Y-91840000D01*
X138939994Y-91812741D01*
X139031206Y-91760080D01*
X139105680Y-91685606D01*
X139158341Y-91594394D01*
X139185600Y-91492661D01*
X139185600Y-91486447D01*
X139864624Y-92165471D01*
X139915736Y-92092478D01*
X140011864Y-91886331D01*
X140011869Y-91886317D01*
X140070739Y-91666610D01*
X140070741Y-91666599D01*
X140090566Y-91440002D01*
X140090566Y-91439998D01*
X150180132Y-91439998D01*
X150180132Y-91440001D01*
X150199964Y-91666686D01*
X150199966Y-91666697D01*
X150258858Y-91886488D01*
X150258861Y-91886497D01*
X150355031Y-92092732D01*
X150355032Y-92092734D01*
X150485554Y-92279141D01*
X150648781Y-92442368D01*
X150682266Y-92503691D01*
X150685100Y-92530049D01*
X150685100Y-96649151D01*
X150665415Y-96716190D01*
X150648781Y-96736832D01*
X150485554Y-96900058D01*
X150355032Y-97086465D01*
X150355031Y-97086467D01*
X150258861Y-97292702D01*
X150258858Y-97292711D01*
X150199966Y-97512502D01*
X150199964Y-97512513D01*
X150180132Y-97739198D01*
X150180132Y-97739201D01*
X150199964Y-97965886D01*
X150199966Y-97965897D01*
X150258858Y-98185688D01*
X150258861Y-98185697D01*
X150355031Y-98391932D01*
X150355032Y-98391934D01*
X150485554Y-98578341D01*
X150646458Y-98739245D01*
X150646461Y-98739247D01*
X150832866Y-98869768D01*
X151039104Y-98965939D01*
X151039109Y-98965940D01*
X151039111Y-98965941D01*
X151092015Y-98980116D01*
X151258908Y-99024835D01*
X151420830Y-99039001D01*
X151485598Y-99044668D01*
X151485600Y-99044668D01*
X151485602Y-99044668D01*
X151542273Y-99039709D01*
X151712292Y-99024835D01*
X151932096Y-98965939D01*
X152138334Y-98869768D01*
X152324739Y-98739247D01*
X152485647Y-98578339D01*
X152616168Y-98391934D01*
X152712339Y-98185696D01*
X152771235Y-97965892D01*
X152791068Y-97739200D01*
X152790001Y-97727009D01*
X152771235Y-97512513D01*
X152771235Y-97512508D01*
X152712339Y-97292704D01*
X152616168Y-97086466D01*
X152498919Y-96919015D01*
X152485645Y-96900058D01*
X152322419Y-96736832D01*
X152288934Y-96675509D01*
X152286100Y-96649151D01*
X152286100Y-92530049D01*
X152305785Y-92463010D01*
X152322419Y-92442368D01*
X152485645Y-92279141D01*
X152485647Y-92279139D01*
X152511248Y-92242577D01*
X152565824Y-92198952D01*
X152612823Y-92189700D01*
X155121215Y-92189700D01*
X155188254Y-92209385D01*
X155208896Y-92226019D01*
X155257224Y-92274347D01*
X155405194Y-92367322D01*
X155570143Y-92425041D01*
X155570149Y-92425041D01*
X155570151Y-92425042D01*
X155611550Y-92429706D01*
X155700242Y-92439699D01*
X155700245Y-92439700D01*
X156914300Y-92439700D01*
X156981339Y-92459385D01*
X157027094Y-92512189D01*
X157038300Y-92563700D01*
X157038300Y-93257070D01*
X157038301Y-93257076D01*
X157044708Y-93316683D01*
X157095002Y-93451528D01*
X157095006Y-93451535D01*
X157181252Y-93566744D01*
X157181255Y-93566747D01*
X157296464Y-93652993D01*
X157296471Y-93652997D01*
X157431317Y-93703291D01*
X157431316Y-93703291D01*
X157438244Y-93704035D01*
X157490927Y-93709700D01*
X159386672Y-93709699D01*
X159446283Y-93703291D01*
X159581131Y-93652996D01*
X159696346Y-93566746D01*
X159782596Y-93451531D01*
X159832891Y-93316683D01*
X159839300Y-93257073D01*
X159839299Y-92061328D01*
X159832891Y-92001717D01*
X159828517Y-91989991D01*
X159782597Y-91866871D01*
X159782593Y-91866864D01*
X159696347Y-91751655D01*
X159696344Y-91751652D01*
X159581135Y-91665406D01*
X159581128Y-91665402D01*
X159446282Y-91615108D01*
X159446283Y-91615108D01*
X159386683Y-91608701D01*
X159386681Y-91608700D01*
X159386673Y-91608700D01*
X159386665Y-91608700D01*
X157893300Y-91608700D01*
X157826261Y-91589015D01*
X157780506Y-91536211D01*
X157769300Y-91484700D01*
X157769300Y-91293200D01*
X157788985Y-91226161D01*
X157841789Y-91180406D01*
X157893300Y-91169200D01*
X158188800Y-91169200D01*
X158688800Y-91169200D01*
X159107327Y-91169200D01*
X159107330Y-91169199D01*
X159237339Y-91154551D01*
X159402186Y-91096869D01*
X159550062Y-91003953D01*
X159673553Y-90880462D01*
X159766469Y-90732586D01*
X159824151Y-90567739D01*
X159838799Y-90437730D01*
X159838800Y-90437726D01*
X159838800Y-90369200D01*
X158688800Y-90369200D01*
X158688800Y-91169200D01*
X158188800Y-91169200D01*
X158188800Y-90465610D01*
X158269055Y-90419275D01*
X158338875Y-90349455D01*
X158388244Y-90263945D01*
X158413800Y-90168570D01*
X158413800Y-90069830D01*
X158388244Y-89974455D01*
X158338875Y-89888945D01*
X158319130Y-89869200D01*
X158688800Y-89869200D01*
X159838800Y-89869200D01*
X159838800Y-89800673D01*
X159838799Y-89800669D01*
X159824151Y-89670660D01*
X159766469Y-89505813D01*
X159673553Y-89357937D01*
X159550062Y-89234446D01*
X159402186Y-89141530D01*
X159237339Y-89083848D01*
X159107330Y-89069200D01*
X158688800Y-89069200D01*
X158688800Y-89869200D01*
X158319130Y-89869200D01*
X158269055Y-89819125D01*
X158188800Y-89772789D01*
X158188800Y-89069200D01*
X157770269Y-89069200D01*
X157640260Y-89083848D01*
X157475413Y-89141530D01*
X157327537Y-89234446D01*
X157204046Y-89357937D01*
X157111130Y-89505813D01*
X157053448Y-89670660D01*
X157038800Y-89800669D01*
X157038800Y-89869200D01*
X157758470Y-89869200D01*
X157738725Y-89888945D01*
X157689356Y-89974455D01*
X157663800Y-90069830D01*
X157663800Y-90168570D01*
X157689356Y-90263945D01*
X157738725Y-90349455D01*
X157758470Y-90369200D01*
X157233795Y-90369200D01*
X157192840Y-90362241D01*
X157167458Y-90353359D01*
X157167448Y-90353357D01*
X157037358Y-90338700D01*
X157037352Y-90338700D01*
X155700248Y-90338700D01*
X155700241Y-90338700D01*
X155570151Y-90353357D01*
X155570141Y-90353359D01*
X155405195Y-90411077D01*
X155257223Y-90504053D01*
X155208896Y-90552381D01*
X155147573Y-90585866D01*
X155121215Y-90588700D01*
X152524848Y-90588700D01*
X152457809Y-90569015D01*
X152437171Y-90552385D01*
X152324739Y-90439953D01*
X152324738Y-90439952D01*
X152324737Y-90439951D01*
X152138334Y-90309432D01*
X152138332Y-90309431D01*
X151932097Y-90213261D01*
X151932088Y-90213258D01*
X151712297Y-90154366D01*
X151712293Y-90154365D01*
X151712292Y-90154365D01*
X151712291Y-90154364D01*
X151712286Y-90154364D01*
X151485602Y-90134532D01*
X151485598Y-90134532D01*
X151258913Y-90154364D01*
X151258902Y-90154366D01*
X151039111Y-90213258D01*
X151039102Y-90213261D01*
X150832867Y-90309431D01*
X150832865Y-90309432D01*
X150646458Y-90439954D01*
X150485554Y-90600858D01*
X150355032Y-90787265D01*
X150355031Y-90787267D01*
X150258861Y-90993502D01*
X150258858Y-90993511D01*
X150199966Y-91213302D01*
X150199964Y-91213313D01*
X150180132Y-91439998D01*
X140090566Y-91439998D01*
X140090566Y-91439997D01*
X140070741Y-91213400D01*
X140070739Y-91213389D01*
X140011869Y-90993682D01*
X140011864Y-90993668D01*
X139915736Y-90787521D01*
X139915732Y-90787513D01*
X139864625Y-90714526D01*
X139185600Y-91393551D01*
X139185600Y-91387339D01*
X139158341Y-91285606D01*
X139105680Y-91194394D01*
X139031206Y-91119920D01*
X138939994Y-91067259D01*
X138838261Y-91040000D01*
X138832045Y-91040000D01*
X139511072Y-90360974D01*
X139438078Y-90309863D01*
X139231931Y-90213735D01*
X139231917Y-90213730D01*
X139012210Y-90154860D01*
X139012199Y-90154858D01*
X138785602Y-90135034D01*
X138785598Y-90135034D01*
X138559000Y-90154858D01*
X138558989Y-90154860D01*
X138339282Y-90213730D01*
X138339273Y-90213734D01*
X138133116Y-90309866D01*
X138133112Y-90309868D01*
X138060126Y-90360973D01*
X138060126Y-90360974D01*
X138739153Y-91040000D01*
X138732939Y-91040000D01*
X138631206Y-91067259D01*
X138539994Y-91119920D01*
X138465520Y-91194394D01*
X138412859Y-91285606D01*
X138385600Y-91387339D01*
X138385600Y-91393552D01*
X137706574Y-90714526D01*
X137706573Y-90714526D01*
X137655468Y-90787512D01*
X137655466Y-90787516D01*
X137559334Y-90993673D01*
X137559330Y-90993682D01*
X137500460Y-91213389D01*
X137500458Y-91213400D01*
X137480634Y-91439997D01*
X134936200Y-91439997D01*
X134936200Y-91353820D01*
X134903614Y-91190000D01*
X135936199Y-91190000D01*
X135936199Y-90265028D01*
X135936198Y-90265013D01*
X135925705Y-90162302D01*
X135870558Y-89995880D01*
X135870556Y-89995875D01*
X135778515Y-89846654D01*
X135654545Y-89722684D01*
X135505324Y-89630643D01*
X135505319Y-89630641D01*
X135338897Y-89575494D01*
X135338890Y-89575493D01*
X135236186Y-89565000D01*
X134311200Y-89565000D01*
X134311200Y-90597586D01*
X134147380Y-90565000D01*
X133975020Y-90565000D01*
X133811200Y-90597586D01*
X133811200Y-89565000D01*
X132886228Y-89565000D01*
X132886212Y-89565001D01*
X132783502Y-89575494D01*
X132617080Y-89630641D01*
X132617075Y-89630643D01*
X132467854Y-89722684D01*
X132343884Y-89846654D01*
X132251843Y-89995875D01*
X132251841Y-89995880D01*
X132196694Y-90162302D01*
X132196693Y-90162309D01*
X132186200Y-90265013D01*
X130968263Y-90265013D01*
X132664859Y-88568419D01*
X132726182Y-88534934D01*
X132752540Y-88532100D01*
X150040444Y-88532100D01*
X150040445Y-88532099D01*
X150195097Y-88501337D01*
X150340779Y-88440994D01*
X150471889Y-88353389D01*
X168339719Y-70485557D01*
X168401042Y-70452073D01*
X168470734Y-70457057D01*
X168515081Y-70485558D01*
X173313070Y-75283547D01*
X173313091Y-75283570D01*
X173428907Y-75399386D01*
X173428911Y-75399389D01*
X173560014Y-75486990D01*
X173560027Y-75486997D01*
X173705698Y-75547335D01*
X173705703Y-75547337D01*
X173705707Y-75547337D01*
X173705708Y-75547338D01*
X173860354Y-75578100D01*
X173860357Y-75578100D01*
X173860358Y-75578100D01*
X178589551Y-75578100D01*
X178656590Y-75597785D01*
X178677232Y-75614419D01*
X178842781Y-75779968D01*
X178876266Y-75841291D01*
X178879100Y-75867649D01*
X178879100Y-76990046D01*
X178909861Y-77144689D01*
X178909864Y-77144701D01*
X178970202Y-77290372D01*
X178970209Y-77290385D01*
X179057810Y-77421488D01*
X179057813Y-77421492D01*
X180011181Y-78374859D01*
X180044666Y-78436182D01*
X180047500Y-78462540D01*
X180047500Y-82679646D01*
X180078261Y-82834289D01*
X180078264Y-82834301D01*
X180138602Y-82979972D01*
X180138609Y-82979985D01*
X180226210Y-83111088D01*
X180226213Y-83111092D01*
X182979307Y-85864186D01*
X182979311Y-85864189D01*
X183110414Y-85951790D01*
X183110418Y-85951792D01*
X183110421Y-85951794D01*
X183256103Y-86012138D01*
X183410753Y-86042899D01*
X183410757Y-86042900D01*
X183410758Y-86042900D01*
X183568443Y-86042900D01*
X184482351Y-86042900D01*
X184549390Y-86062585D01*
X184570032Y-86079219D01*
X184733258Y-86242445D01*
X184733261Y-86242447D01*
X184919666Y-86372968D01*
X185125904Y-86469139D01*
X185345708Y-86528035D01*
X185507630Y-86542201D01*
X185572398Y-86547868D01*
X185572400Y-86547868D01*
X185572402Y-86547868D01*
X185629073Y-86542909D01*
X185799092Y-86528035D01*
X186018896Y-86469139D01*
X186225134Y-86372968D01*
X186411539Y-86242447D01*
X186572447Y-86081539D01*
X186702968Y-85895134D01*
X186730018Y-85837124D01*
X186776190Y-85784685D01*
X186843383Y-85765533D01*
X186910265Y-85785748D01*
X186954782Y-85837125D01*
X186981829Y-85895128D01*
X186981832Y-85895134D01*
X187112354Y-86081541D01*
X187275581Y-86244768D01*
X187309066Y-86306091D01*
X187311900Y-86332449D01*
X187311900Y-87196260D01*
X187292215Y-87263299D01*
X187275581Y-87283941D01*
X186902741Y-87656781D01*
X186841418Y-87690266D01*
X186815060Y-87693100D01*
X180164140Y-87693100D01*
X180097101Y-87673415D01*
X180076459Y-87656781D01*
X178535219Y-86115541D01*
X178501734Y-86054218D01*
X178498900Y-86027860D01*
X178498900Y-83772284D01*
X178518585Y-83705245D01*
X178553045Y-83669833D01*
X178761617Y-83527632D01*
X178948450Y-83354277D01*
X179107359Y-83155012D01*
X179234793Y-82934288D01*
X179327908Y-82697037D01*
X179384622Y-82448557D01*
X179403668Y-82194400D01*
X179398909Y-82130900D01*
X179384622Y-81940245D01*
X179381886Y-81928259D01*
X179327908Y-81691763D01*
X179234793Y-81454512D01*
X179107359Y-81233788D01*
X178948450Y-81034523D01*
X178761617Y-80861168D01*
X178551034Y-80717595D01*
X178551030Y-80717593D01*
X178551027Y-80717591D01*
X178551026Y-80717590D01*
X178321406Y-80607012D01*
X178321408Y-80607012D01*
X178077866Y-80531889D01*
X178077862Y-80531888D01*
X178077858Y-80531887D01*
X177956631Y-80513614D01*
X177825840Y-80493900D01*
X177825835Y-80493900D01*
X177570965Y-80493900D01*
X177570959Y-80493900D01*
X177414009Y-80517557D01*
X177318942Y-80531887D01*
X177318939Y-80531888D01*
X177318933Y-80531889D01*
X177075392Y-80607012D01*
X176845773Y-80717590D01*
X176845772Y-80717591D01*
X176635182Y-80861168D01*
X176448352Y-81034521D01*
X176448350Y-81034523D01*
X176289442Y-81233786D01*
X176289441Y-81233788D01*
X176232795Y-81331901D01*
X176182231Y-81380115D01*
X176125410Y-81393900D01*
X172410899Y-81393900D01*
X172343860Y-81374215D01*
X172298105Y-81321411D01*
X172286899Y-81269900D01*
X172286899Y-80946529D01*
X172286898Y-80946523D01*
X172280491Y-80886916D01*
X172230197Y-80752071D01*
X172230193Y-80752064D01*
X172143947Y-80636855D01*
X172143944Y-80636852D01*
X172028735Y-80550606D01*
X172028728Y-80550602D01*
X171893882Y-80500308D01*
X171893883Y-80500308D01*
X171834283Y-80493901D01*
X171834281Y-80493900D01*
X171834273Y-80493900D01*
X171834265Y-80493900D01*
X170069340Y-80493900D01*
X170002301Y-80474215D01*
X169981659Y-80457581D01*
X167816419Y-78292341D01*
X167782934Y-78231018D01*
X167780100Y-78204660D01*
X167780100Y-75867649D01*
X167799785Y-75800610D01*
X167816419Y-75779968D01*
X167979645Y-75616741D01*
X167979647Y-75616739D01*
X168110168Y-75430334D01*
X168206339Y-75224096D01*
X168265235Y-75004292D01*
X168285068Y-74777600D01*
X168283573Y-74760517D01*
X168265235Y-74550913D01*
X168265235Y-74550908D01*
X168206339Y-74331104D01*
X168110168Y-74124866D01*
X167992919Y-73957415D01*
X167979645Y-73938458D01*
X167818741Y-73777554D01*
X167632334Y-73647032D01*
X167632332Y-73647031D01*
X167426097Y-73550861D01*
X167426088Y-73550858D01*
X167206297Y-73491966D01*
X167206293Y-73491965D01*
X167206292Y-73491965D01*
X167206291Y-73491964D01*
X167206286Y-73491964D01*
X166979602Y-73472132D01*
X166979598Y-73472132D01*
X166752913Y-73491964D01*
X166752902Y-73491966D01*
X166533111Y-73550858D01*
X166533102Y-73550861D01*
X166326867Y-73647031D01*
X166326865Y-73647032D01*
X166140458Y-73777554D01*
X165979554Y-73938458D01*
X165849032Y-74124865D01*
X165849031Y-74124867D01*
X165752861Y-74331102D01*
X165752858Y-74331111D01*
X165693966Y-74550902D01*
X165693964Y-74550913D01*
X165674132Y-74777598D01*
X165674132Y-74777601D01*
X165693964Y-75004286D01*
X165693966Y-75004297D01*
X165752858Y-75224088D01*
X165752861Y-75224097D01*
X165849031Y-75430332D01*
X165849032Y-75430334D01*
X165979554Y-75616741D01*
X166142781Y-75779968D01*
X166176266Y-75841291D01*
X166179100Y-75867649D01*
X166179100Y-78666446D01*
X166209861Y-78821089D01*
X166209864Y-78821101D01*
X166270202Y-78966772D01*
X166270209Y-78966785D01*
X166357810Y-79097888D01*
X166357813Y-79097892D01*
X168849581Y-81589659D01*
X168883066Y-81650982D01*
X168885900Y-81677340D01*
X168885900Y-83442270D01*
X168885901Y-83442276D01*
X168892308Y-83501883D01*
X168942602Y-83636728D01*
X168942606Y-83636735D01*
X169028852Y-83751944D01*
X169028855Y-83751947D01*
X169144064Y-83838193D01*
X169144071Y-83838197D01*
X169278917Y-83888491D01*
X169278916Y-83888491D01*
X169285844Y-83889235D01*
X169338527Y-83894900D01*
X171834272Y-83894899D01*
X171893883Y-83888491D01*
X172028731Y-83838196D01*
X172143946Y-83751946D01*
X172230196Y-83636731D01*
X172280491Y-83501883D01*
X172286900Y-83442273D01*
X172286900Y-83118900D01*
X172306585Y-83051861D01*
X172359389Y-83006106D01*
X172410900Y-82994900D01*
X176125410Y-82994900D01*
X176192449Y-83014585D01*
X176232795Y-83056898D01*
X176289441Y-83155012D01*
X176448350Y-83354277D01*
X176635183Y-83527632D01*
X176843753Y-83669832D01*
X176888053Y-83723859D01*
X176897900Y-83772284D01*
X176897900Y-86489646D01*
X176928661Y-86644289D01*
X176928664Y-86644301D01*
X176989002Y-86789972D01*
X176989009Y-86789985D01*
X177076610Y-86921088D01*
X177076613Y-86921092D01*
X179159411Y-89003889D01*
X179224722Y-89069200D01*
X179270912Y-89115390D01*
X179402014Y-89202990D01*
X179402027Y-89202997D01*
X179477953Y-89234446D01*
X179547703Y-89263337D01*
X179702353Y-89294099D01*
X179702356Y-89294100D01*
X187208198Y-89294100D01*
X187275237Y-89313785D01*
X187320992Y-89366589D01*
X187330936Y-89435747D01*
X187329815Y-89442292D01*
X187311900Y-89532355D01*
X187311900Y-91772351D01*
X187292215Y-91839390D01*
X187275581Y-91860032D01*
X187112354Y-92023258D01*
X187095125Y-92047864D01*
X187040547Y-92091488D01*
X186971048Y-92098680D01*
X186908694Y-92067157D01*
X186873282Y-92006926D01*
X186870261Y-91989991D01*
X186866491Y-91954916D01*
X186816197Y-91820071D01*
X186816193Y-91820064D01*
X186729947Y-91704855D01*
X186729944Y-91704852D01*
X186614735Y-91618606D01*
X186614728Y-91618602D01*
X186479882Y-91568308D01*
X186479883Y-91568308D01*
X186420283Y-91561901D01*
X186420281Y-91561900D01*
X186420273Y-91561900D01*
X186420264Y-91561900D01*
X184724529Y-91561900D01*
X184724523Y-91561901D01*
X184664916Y-91568308D01*
X184530071Y-91618602D01*
X184530064Y-91618606D01*
X184414855Y-91704852D01*
X184414852Y-91704855D01*
X184328606Y-91820064D01*
X184328602Y-91820071D01*
X184278308Y-91954917D01*
X184271901Y-92014516D01*
X184271900Y-92014535D01*
X184271900Y-93710270D01*
X184271901Y-93710276D01*
X184278308Y-93769883D01*
X184328602Y-93904728D01*
X184328606Y-93904735D01*
X184414852Y-94019944D01*
X184414855Y-94019947D01*
X184530064Y-94106193D01*
X184530071Y-94106197D01*
X184664917Y-94156491D01*
X184664916Y-94156491D01*
X184671844Y-94157235D01*
X184724527Y-94162900D01*
X186420272Y-94162899D01*
X186479883Y-94156491D01*
X186614731Y-94106196D01*
X186729946Y-94019946D01*
X186816196Y-93904731D01*
X186866491Y-93769883D01*
X186870262Y-93734801D01*
X186896999Y-93670255D01*
X186954390Y-93630406D01*
X187024216Y-93627911D01*
X187084305Y-93663563D01*
X187095126Y-93676936D01*
X187112356Y-93701543D01*
X187275581Y-93864768D01*
X187309066Y-93926091D01*
X187311900Y-93952449D01*
X187311900Y-94613060D01*
X187292215Y-94680099D01*
X187275581Y-94700741D01*
X183182511Y-98793811D01*
X183140033Y-98836289D01*
X183071009Y-98905312D01*
X182983409Y-99036414D01*
X182983402Y-99036427D01*
X182923064Y-99182098D01*
X182923061Y-99182110D01*
X182892300Y-99336753D01*
X182892300Y-105070109D01*
X182872615Y-105137148D01*
X182839425Y-105171683D01*
X182821401Y-105184303D01*
X182821395Y-105184308D01*
X182654305Y-105351397D01*
X182524375Y-105536958D01*
X182469798Y-105580583D01*
X182400300Y-105587777D01*
X182337945Y-105556254D01*
X182321225Y-105536958D01*
X182191294Y-105351397D01*
X182024204Y-105184308D01*
X182024202Y-105184306D01*
X182024201Y-105184305D01*
X182006174Y-105171682D01*
X181962551Y-105117106D01*
X181953300Y-105070109D01*
X181953300Y-98269957D01*
X181949228Y-98249490D01*
X181949228Y-98249489D01*
X181922537Y-98115303D01*
X181913096Y-98092511D01*
X181862194Y-97969621D01*
X181862192Y-97969619D01*
X181862192Y-97969617D01*
X181774589Y-97838511D01*
X181774586Y-97838507D01*
X181658770Y-97722691D01*
X181658747Y-97722670D01*
X179435218Y-95499141D01*
X179401733Y-95437818D01*
X179398899Y-95411460D01*
X179398899Y-93646529D01*
X179398898Y-93646523D01*
X179398897Y-93646516D01*
X179392491Y-93586917D01*
X179386850Y-93571794D01*
X179342197Y-93452071D01*
X179342193Y-93452064D01*
X179255947Y-93336855D01*
X179255944Y-93336852D01*
X179140735Y-93250606D01*
X179140728Y-93250602D01*
X179005882Y-93200308D01*
X179005883Y-93200308D01*
X178946283Y-93193901D01*
X178946281Y-93193900D01*
X178946273Y-93193900D01*
X178946264Y-93193900D01*
X176450529Y-93193900D01*
X176450523Y-93193901D01*
X176390916Y-93200308D01*
X176256071Y-93250602D01*
X176256064Y-93250606D01*
X176140855Y-93336852D01*
X176140852Y-93336855D01*
X176054606Y-93452064D01*
X176054602Y-93452071D01*
X176004308Y-93586917D01*
X175999633Y-93630406D01*
X175997901Y-93646523D01*
X175997900Y-93646535D01*
X175997900Y-95826459D01*
X175978215Y-95893498D01*
X175925411Y-95939253D01*
X175856253Y-95949197D01*
X175792697Y-95920172D01*
X175786219Y-95914140D01*
X174144692Y-94272613D01*
X174144688Y-94272610D01*
X174013585Y-94185009D01*
X174013572Y-94185002D01*
X173867901Y-94124664D01*
X173867889Y-94124661D01*
X173713245Y-94093900D01*
X173713242Y-94093900D01*
X172159390Y-94093900D01*
X172092351Y-94074215D01*
X172052004Y-94031901D01*
X171995359Y-93933788D01*
X171836450Y-93734523D01*
X171649617Y-93561168D01*
X171439034Y-93417595D01*
X171439030Y-93417593D01*
X171439027Y-93417591D01*
X171439026Y-93417590D01*
X171209406Y-93307012D01*
X171209408Y-93307012D01*
X170965866Y-93231889D01*
X170965862Y-93231888D01*
X170965858Y-93231887D01*
X170844631Y-93213614D01*
X170713840Y-93193900D01*
X170713835Y-93193900D01*
X170458965Y-93193900D01*
X170458959Y-93193900D01*
X170302009Y-93217557D01*
X170206942Y-93231887D01*
X170206939Y-93231888D01*
X170206933Y-93231889D01*
X169963392Y-93307012D01*
X169733773Y-93417590D01*
X169733772Y-93417591D01*
X169523182Y-93561168D01*
X169336352Y-93734521D01*
X169336350Y-93734523D01*
X169177441Y-93933788D01*
X169050008Y-94154509D01*
X168956892Y-94391762D01*
X168956890Y-94391769D01*
X168900177Y-94640245D01*
X168881132Y-94894395D01*
X168881132Y-94894404D01*
X168900177Y-95148554D01*
X168900178Y-95148557D01*
X168956892Y-95397037D01*
X169050007Y-95634288D01*
X169177441Y-95855012D01*
X169336350Y-96054277D01*
X169523183Y-96227632D01*
X169733766Y-96371205D01*
X169733771Y-96371207D01*
X169733772Y-96371208D01*
X169733773Y-96371209D01*
X169855728Y-96429938D01*
X169963392Y-96481787D01*
X169963393Y-96481787D01*
X169963396Y-96481789D01*
X170206942Y-96556913D01*
X170458965Y-96594900D01*
X170713835Y-96594900D01*
X170965858Y-96556913D01*
X171209404Y-96481789D01*
X171439034Y-96371205D01*
X171649617Y-96227632D01*
X171836450Y-96054277D01*
X171995359Y-95855012D01*
X172052004Y-95756898D01*
X172102569Y-95708685D01*
X172159390Y-95694900D01*
X173251460Y-95694900D01*
X173318499Y-95714585D01*
X173339141Y-95731219D01*
X177775981Y-100168059D01*
X177809466Y-100229382D01*
X177812300Y-100255740D01*
X177812300Y-105070109D01*
X177792615Y-105137148D01*
X177759425Y-105171683D01*
X177741401Y-105184303D01*
X177741395Y-105184308D01*
X177574305Y-105351397D01*
X177444375Y-105536958D01*
X177389798Y-105580583D01*
X177320300Y-105587777D01*
X177257945Y-105556254D01*
X177241225Y-105536958D01*
X177111294Y-105351397D01*
X176944204Y-105184308D01*
X176944202Y-105184306D01*
X176944201Y-105184305D01*
X176926174Y-105171682D01*
X176882551Y-105117106D01*
X176873300Y-105070109D01*
X176873300Y-100657555D01*
X176873299Y-100657553D01*
X176864792Y-100614786D01*
X176842537Y-100502903D01*
X176792909Y-100383089D01*
X176782197Y-100357227D01*
X176782190Y-100357214D01*
X176694590Y-100226112D01*
X176672856Y-100204378D01*
X176583089Y-100114611D01*
X175112536Y-98644058D01*
X173585892Y-97117413D01*
X173585888Y-97117410D01*
X173454785Y-97029809D01*
X173454772Y-97029802D01*
X173309101Y-96969464D01*
X173309089Y-96969461D01*
X173154445Y-96938700D01*
X173154442Y-96938700D01*
X165275649Y-96938700D01*
X165208610Y-96919015D01*
X165187968Y-96902381D01*
X165024741Y-96739154D01*
X164838334Y-96608632D01*
X164838332Y-96608631D01*
X164632097Y-96512461D01*
X164632088Y-96512458D01*
X164412297Y-96453566D01*
X164412293Y-96453565D01*
X164412292Y-96453565D01*
X164412291Y-96453564D01*
X164412286Y-96453564D01*
X164185602Y-96433732D01*
X164185598Y-96433732D01*
X163958913Y-96453564D01*
X163958902Y-96453566D01*
X163739111Y-96512458D01*
X163739102Y-96512461D01*
X163532867Y-96608631D01*
X163532865Y-96608632D01*
X163346458Y-96739154D01*
X163185554Y-96900058D01*
X163055032Y-97086465D01*
X163055031Y-97086467D01*
X162958861Y-97292702D01*
X162958858Y-97292711D01*
X162899966Y-97512502D01*
X162899964Y-97512513D01*
X162880132Y-97739198D01*
X162880132Y-97739201D01*
X162899964Y-97965886D01*
X162899966Y-97965897D01*
X162958858Y-98185688D01*
X162958861Y-98185697D01*
X163055031Y-98391932D01*
X163055032Y-98391934D01*
X163185554Y-98578341D01*
X163346458Y-98739245D01*
X163499957Y-98846725D01*
X163543582Y-98901301D01*
X163550776Y-98970800D01*
X163519254Y-99033155D01*
X163459024Y-99068569D01*
X163428834Y-99072300D01*
X163247740Y-99072300D01*
X163180701Y-99052615D01*
X163160059Y-99035981D01*
X162431619Y-98307541D01*
X162398134Y-98246218D01*
X162395300Y-98219860D01*
X162395300Y-84452849D01*
X162414985Y-84385810D01*
X162431619Y-84365168D01*
X162594845Y-84201941D01*
X162594847Y-84201939D01*
X162725368Y-84015534D01*
X162821539Y-83809296D01*
X162880435Y-83589492D01*
X162900268Y-83362800D01*
X162899522Y-83354278D01*
X162882089Y-83155012D01*
X162880435Y-83136108D01*
X162821539Y-82916304D01*
X162725368Y-82710066D01*
X162594847Y-82523661D01*
X162594845Y-82523658D01*
X162433941Y-82362754D01*
X162247534Y-82232232D01*
X162247532Y-82232231D01*
X162041297Y-82136061D01*
X162041288Y-82136058D01*
X161821497Y-82077166D01*
X161821493Y-82077165D01*
X161821492Y-82077165D01*
X161821491Y-82077164D01*
X161821486Y-82077164D01*
X161594802Y-82057332D01*
X161594798Y-82057332D01*
X161368113Y-82077164D01*
X161368102Y-82077166D01*
X161148311Y-82136058D01*
X161148302Y-82136061D01*
X160942067Y-82232231D01*
X160942065Y-82232232D01*
X160755658Y-82362754D01*
X160594754Y-82523658D01*
X160464232Y-82710065D01*
X160464231Y-82710067D01*
X160368061Y-82916302D01*
X160368058Y-82916311D01*
X160309166Y-83136102D01*
X160309164Y-83136113D01*
X160289332Y-83362798D01*
X160289332Y-83362801D01*
X160309164Y-83589486D01*
X160309166Y-83589497D01*
X160368058Y-83809288D01*
X160368061Y-83809297D01*
X160464231Y-84015532D01*
X160464232Y-84015534D01*
X160594754Y-84201941D01*
X160757981Y-84365168D01*
X160791466Y-84426491D01*
X160794300Y-84452849D01*
X160794300Y-98681646D01*
X160825061Y-98836289D01*
X160825064Y-98836301D01*
X160885402Y-98981972D01*
X160885409Y-98981985D01*
X160973010Y-99113088D01*
X160973013Y-99113092D01*
X162243011Y-100383089D01*
X162335708Y-100475786D01*
X162354512Y-100494590D01*
X162485614Y-100582190D01*
X162485627Y-100582197D01*
X162631298Y-100642535D01*
X162631303Y-100642537D01*
X162631307Y-100642537D01*
X162631308Y-100642538D01*
X162785954Y-100673300D01*
X162785957Y-100673300D01*
X162785958Y-100673300D01*
X170762260Y-100673300D01*
X170829299Y-100692985D01*
X170849941Y-100709619D01*
X172695981Y-102555658D01*
X172729466Y-102616981D01*
X172732300Y-102643339D01*
X172732300Y-105070109D01*
X172712615Y-105137148D01*
X172679425Y-105171683D01*
X172661401Y-105184303D01*
X172661395Y-105184308D01*
X172494305Y-105351397D01*
X172364375Y-105536958D01*
X172309798Y-105580583D01*
X172240300Y-105587777D01*
X172177945Y-105556254D01*
X172161225Y-105536958D01*
X172031294Y-105351397D01*
X171864202Y-105184306D01*
X171864195Y-105184301D01*
X171670634Y-105048767D01*
X171670630Y-105048765D01*
X171670628Y-105048764D01*
X171456463Y-104948897D01*
X171456459Y-104948896D01*
X171456455Y-104948894D01*
X171228213Y-104887738D01*
X171228203Y-104887736D01*
X170992801Y-104867141D01*
X170992799Y-104867141D01*
X170757396Y-104887736D01*
X170757386Y-104887738D01*
X170529144Y-104948894D01*
X170529135Y-104948898D01*
X170314971Y-105048764D01*
X170314969Y-105048765D01*
X170121397Y-105184305D01*
X169954305Y-105351397D01*
X169824375Y-105536958D01*
X169769798Y-105580583D01*
X169700300Y-105587777D01*
X169637945Y-105556254D01*
X169621225Y-105536958D01*
X169491294Y-105351397D01*
X169324202Y-105184306D01*
X169324195Y-105184301D01*
X169130634Y-105048767D01*
X169130630Y-105048765D01*
X169130628Y-105048764D01*
X168916463Y-104948897D01*
X168916459Y-104948896D01*
X168916455Y-104948894D01*
X168688213Y-104887738D01*
X168688203Y-104887736D01*
X168452801Y-104867141D01*
X168452799Y-104867141D01*
X168217396Y-104887736D01*
X168217386Y-104887738D01*
X167989144Y-104948894D01*
X167989135Y-104948898D01*
X167774971Y-105048764D01*
X167774969Y-105048765D01*
X167581397Y-105184305D01*
X167414305Y-105351397D01*
X167284375Y-105536958D01*
X167229798Y-105580583D01*
X167160300Y-105587777D01*
X167097945Y-105556254D01*
X167081225Y-105536958D01*
X166951294Y-105351397D01*
X166784202Y-105184306D01*
X166784195Y-105184301D01*
X166590634Y-105048767D01*
X166590630Y-105048765D01*
X166590628Y-105048764D01*
X166376463Y-104948897D01*
X166376459Y-104948896D01*
X166376455Y-104948894D01*
X166148213Y-104887738D01*
X166148203Y-104887736D01*
X165912801Y-104867141D01*
X165912799Y-104867141D01*
X165677396Y-104887736D01*
X165677386Y-104887738D01*
X165449144Y-104948894D01*
X165449135Y-104948898D01*
X165234971Y-105048764D01*
X165234969Y-105048765D01*
X165041400Y-105184303D01*
X164919473Y-105306230D01*
X164858150Y-105339714D01*
X164788458Y-105334730D01*
X164732525Y-105292858D01*
X164715610Y-105261881D01*
X164666597Y-105130471D01*
X164666593Y-105130464D01*
X164580347Y-105015255D01*
X164580344Y-105015252D01*
X164465135Y-104929006D01*
X164465128Y-104929002D01*
X164330282Y-104878708D01*
X164330283Y-104878708D01*
X164270683Y-104872301D01*
X164270681Y-104872300D01*
X164270673Y-104872300D01*
X164270664Y-104872300D01*
X162474929Y-104872300D01*
X162474923Y-104872301D01*
X162415316Y-104878708D01*
X162280471Y-104929002D01*
X162280464Y-104929006D01*
X162165255Y-105015252D01*
X162165252Y-105015255D01*
X162079006Y-105130464D01*
X162079002Y-105130471D01*
X162028708Y-105265317D01*
X162022301Y-105324916D01*
X162022300Y-105324935D01*
X162022300Y-107120670D01*
X162022301Y-107120676D01*
X162028708Y-107180283D01*
X162079002Y-107315128D01*
X162079006Y-107315135D01*
X162165252Y-107430344D01*
X162165255Y-107430347D01*
X162280464Y-107516593D01*
X162280471Y-107516597D01*
X162415317Y-107566891D01*
X162415316Y-107566891D01*
X162422244Y-107567635D01*
X162474927Y-107573300D01*
X164270672Y-107573299D01*
X164330283Y-107566891D01*
X164465131Y-107516596D01*
X164580346Y-107430346D01*
X164666596Y-107315131D01*
X164715610Y-107183716D01*
X164757481Y-107127784D01*
X164822945Y-107103366D01*
X164891218Y-107118217D01*
X164919473Y-107139369D01*
X165041399Y-107261295D01*
X165138184Y-107329065D01*
X165234965Y-107396832D01*
X165234967Y-107396833D01*
X165234970Y-107396835D01*
X165449137Y-107496703D01*
X165677392Y-107557863D01*
X165853834Y-107573300D01*
X165912799Y-107578459D01*
X165912800Y-107578459D01*
X165912801Y-107578459D01*
X165971766Y-107573300D01*
X166148208Y-107557863D01*
X166376463Y-107496703D01*
X166590630Y-107396835D01*
X166784201Y-107261295D01*
X166951295Y-107094201D01*
X167081225Y-106908642D01*
X167135802Y-106865017D01*
X167205300Y-106857823D01*
X167267655Y-106889346D01*
X167284375Y-106908642D01*
X167414081Y-107093882D01*
X167414305Y-107094201D01*
X167581399Y-107261295D01*
X167678184Y-107329065D01*
X167774965Y-107396832D01*
X167774967Y-107396833D01*
X167774970Y-107396835D01*
X167989137Y-107496703D01*
X168217392Y-107557863D01*
X168393834Y-107573300D01*
X168452799Y-107578459D01*
X168452800Y-107578459D01*
X168452801Y-107578459D01*
X168511766Y-107573300D01*
X168688208Y-107557863D01*
X168916463Y-107496703D01*
X169130630Y-107396835D01*
X169324201Y-107261295D01*
X169491295Y-107094201D01*
X169621225Y-106908642D01*
X169675802Y-106865017D01*
X169745300Y-106857823D01*
X169807655Y-106889346D01*
X169824375Y-106908642D01*
X169954081Y-107093882D01*
X169954305Y-107094201D01*
X170121399Y-107261295D01*
X170218184Y-107329065D01*
X170314965Y-107396832D01*
X170314967Y-107396833D01*
X170314970Y-107396835D01*
X170529137Y-107496703D01*
X170757392Y-107557863D01*
X170933834Y-107573300D01*
X170992799Y-107578459D01*
X170992800Y-107578459D01*
X170992801Y-107578459D01*
X171051766Y-107573300D01*
X171228208Y-107557863D01*
X171456463Y-107496703D01*
X171670630Y-107396835D01*
X171864201Y-107261295D01*
X172031295Y-107094201D01*
X172161225Y-106908642D01*
X172215802Y-106865017D01*
X172285300Y-106857823D01*
X172347655Y-106889346D01*
X172364375Y-106908642D01*
X172494081Y-107093882D01*
X172494305Y-107094201D01*
X172661399Y-107261295D01*
X172758184Y-107329065D01*
X172854965Y-107396832D01*
X172854967Y-107396833D01*
X172854970Y-107396835D01*
X173069137Y-107496703D01*
X173297392Y-107557863D01*
X173473834Y-107573300D01*
X173532799Y-107578459D01*
X173532800Y-107578459D01*
X173532801Y-107578459D01*
X173591766Y-107573300D01*
X173768208Y-107557863D01*
X173996463Y-107496703D01*
X174210630Y-107396835D01*
X174404201Y-107261295D01*
X174571295Y-107094201D01*
X174701225Y-106908642D01*
X174755802Y-106865017D01*
X174825300Y-106857823D01*
X174887655Y-106889346D01*
X174904375Y-106908642D01*
X175034081Y-107093882D01*
X175034305Y-107094201D01*
X175201399Y-107261295D01*
X175298184Y-107329065D01*
X175394965Y-107396832D01*
X175394967Y-107396833D01*
X175394970Y-107396835D01*
X175609137Y-107496703D01*
X175837392Y-107557863D01*
X176013834Y-107573300D01*
X176072799Y-107578459D01*
X176072800Y-107578459D01*
X176072801Y-107578459D01*
X176131766Y-107573300D01*
X176308208Y-107557863D01*
X176536463Y-107496703D01*
X176750630Y-107396835D01*
X176944201Y-107261295D01*
X177111295Y-107094201D01*
X177241225Y-106908642D01*
X177295802Y-106865017D01*
X177365300Y-106857823D01*
X177427655Y-106889346D01*
X177444375Y-106908642D01*
X177574081Y-107093882D01*
X177574305Y-107094201D01*
X177741399Y-107261295D01*
X177838184Y-107329065D01*
X177934965Y-107396832D01*
X177934967Y-107396833D01*
X177934970Y-107396835D01*
X178149137Y-107496703D01*
X178377392Y-107557863D01*
X178553834Y-107573300D01*
X178612799Y-107578459D01*
X178612800Y-107578459D01*
X178612801Y-107578459D01*
X178671766Y-107573300D01*
X178848208Y-107557863D01*
X179076463Y-107496703D01*
X179290630Y-107396835D01*
X179484201Y-107261295D01*
X179651295Y-107094201D01*
X179781225Y-106908642D01*
X179835802Y-106865017D01*
X179905300Y-106857823D01*
X179967655Y-106889346D01*
X179984375Y-106908642D01*
X180114081Y-107093882D01*
X180114305Y-107094201D01*
X180281399Y-107261295D01*
X180378184Y-107329065D01*
X180474965Y-107396832D01*
X180474967Y-107396833D01*
X180474970Y-107396835D01*
X180689137Y-107496703D01*
X180917392Y-107557863D01*
X181093834Y-107573300D01*
X181152799Y-107578459D01*
X181152800Y-107578459D01*
X181152801Y-107578459D01*
X181211766Y-107573300D01*
X181388208Y-107557863D01*
X181616463Y-107496703D01*
X181830630Y-107396835D01*
X182024201Y-107261295D01*
X182191295Y-107094201D01*
X182321225Y-106908642D01*
X182375802Y-106865017D01*
X182445300Y-106857823D01*
X182507655Y-106889346D01*
X182524375Y-106908642D01*
X182654081Y-107093882D01*
X182654305Y-107094201D01*
X182821399Y-107261295D01*
X182918184Y-107329065D01*
X183014965Y-107396832D01*
X183014967Y-107396833D01*
X183014970Y-107396835D01*
X183229137Y-107496703D01*
X183457392Y-107557863D01*
X183633834Y-107573300D01*
X183692799Y-107578459D01*
X183692800Y-107578459D01*
X183692801Y-107578459D01*
X183751766Y-107573300D01*
X183928208Y-107557863D01*
X184156463Y-107496703D01*
X184370630Y-107396835D01*
X184564201Y-107261295D01*
X184731295Y-107094201D01*
X184861530Y-106908205D01*
X184916107Y-106864581D01*
X184985605Y-106857387D01*
X185047960Y-106888910D01*
X185064679Y-106908205D01*
X185194690Y-107093878D01*
X185361717Y-107260905D01*
X185555221Y-107396400D01*
X185769307Y-107496229D01*
X185769316Y-107496233D01*
X185982800Y-107553434D01*
X185982800Y-106655812D01*
X186039807Y-106688725D01*
X186166974Y-106722800D01*
X186298626Y-106722800D01*
X186425793Y-106688725D01*
X186482800Y-106655812D01*
X186482800Y-107553433D01*
X186696283Y-107496233D01*
X186696292Y-107496229D01*
X186910378Y-107396400D01*
X187103882Y-107260905D01*
X187270905Y-107093882D01*
X187406400Y-106900378D01*
X187506229Y-106686292D01*
X187506232Y-106686286D01*
X187563436Y-106472800D01*
X186665812Y-106472800D01*
X186698725Y-106415793D01*
X186732800Y-106288626D01*
X186732800Y-106156974D01*
X186698725Y-106029807D01*
X186665812Y-105972800D01*
X187563436Y-105972800D01*
X187563435Y-105972799D01*
X187506232Y-105759313D01*
X187506229Y-105759307D01*
X187406400Y-105545222D01*
X187406399Y-105545220D01*
X187270913Y-105351726D01*
X187270908Y-105351720D01*
X187103882Y-105184694D01*
X186910378Y-105049199D01*
X186696292Y-104949370D01*
X186696286Y-104949367D01*
X186482800Y-104892164D01*
X186482800Y-105789788D01*
X186425793Y-105756875D01*
X186298626Y-105722800D01*
X186166974Y-105722800D01*
X186039807Y-105756875D01*
X185982800Y-105789788D01*
X185982800Y-104892164D01*
X185982799Y-104892164D01*
X185769313Y-104949367D01*
X185769307Y-104949370D01*
X185555222Y-105049199D01*
X185555220Y-105049200D01*
X185361726Y-105184686D01*
X185361720Y-105184691D01*
X185194691Y-105351720D01*
X185194690Y-105351722D01*
X185064680Y-105537395D01*
X185010103Y-105581019D01*
X184940604Y-105588212D01*
X184878250Y-105556690D01*
X184861530Y-105537394D01*
X184731294Y-105351397D01*
X184564204Y-105184308D01*
X184564202Y-105184306D01*
X184564201Y-105184305D01*
X184546174Y-105171682D01*
X184502551Y-105117106D01*
X184493300Y-105070109D01*
X184493300Y-104000000D01*
X191294422Y-104000000D01*
X191314722Y-104387338D01*
X191375398Y-104770433D01*
X191449976Y-105048764D01*
X191475788Y-105145094D01*
X191614787Y-105507197D01*
X191790877Y-105852793D01*
X192002122Y-106178082D01*
X192002124Y-106178084D01*
X192246219Y-106479516D01*
X192520484Y-106753781D01*
X192520488Y-106753784D01*
X192821917Y-106997877D01*
X193039796Y-107139369D01*
X193147211Y-107209125D01*
X193492806Y-107385214D01*
X193854913Y-107524214D01*
X194229567Y-107624602D01*
X194612662Y-107685278D01*
X194978576Y-107704455D01*
X194999999Y-107705578D01*
X195000000Y-107705578D01*
X195000001Y-107705578D01*
X195020301Y-107704514D01*
X195387338Y-107685278D01*
X195770433Y-107624602D01*
X196145087Y-107524214D01*
X196507194Y-107385214D01*
X196852789Y-107209125D01*
X197178084Y-106997876D01*
X197479516Y-106753781D01*
X197753781Y-106479516D01*
X197997876Y-106178084D01*
X198209125Y-105852789D01*
X198385214Y-105507194D01*
X198524214Y-105145087D01*
X198624602Y-104770433D01*
X198685278Y-104387338D01*
X198705578Y-104000000D01*
X198685278Y-103612662D01*
X198624602Y-103229567D01*
X198524214Y-102854913D01*
X198385214Y-102492806D01*
X198209125Y-102147211D01*
X197997876Y-101821916D01*
X197939729Y-101750111D01*
X197753784Y-101520488D01*
X197753781Y-101520484D01*
X197479516Y-101246219D01*
X197178084Y-101002124D01*
X197178082Y-101002122D01*
X196852793Y-100790877D01*
X196507197Y-100614787D01*
X196145094Y-100475788D01*
X196145087Y-100475786D01*
X195770433Y-100375398D01*
X195770429Y-100375397D01*
X195770428Y-100375397D01*
X195387339Y-100314722D01*
X195000001Y-100294422D01*
X194999999Y-100294422D01*
X194612660Y-100314722D01*
X194229572Y-100375397D01*
X194229570Y-100375397D01*
X193854905Y-100475788D01*
X193492802Y-100614787D01*
X193147206Y-100790877D01*
X192821917Y-101002122D01*
X192520488Y-101246215D01*
X192520480Y-101246222D01*
X192246222Y-101520480D01*
X192246215Y-101520488D01*
X192002122Y-101821917D01*
X191790877Y-102147206D01*
X191614787Y-102492802D01*
X191475788Y-102854905D01*
X191375397Y-103229570D01*
X191375397Y-103229572D01*
X191314722Y-103612662D01*
X191294422Y-104000000D01*
X184493300Y-104000000D01*
X184493300Y-99798540D01*
X184512985Y-99731501D01*
X184529619Y-99710859D01*
X188734186Y-95506292D01*
X188734189Y-95506289D01*
X188821794Y-95375179D01*
X188882137Y-95229497D01*
X188912900Y-95074842D01*
X188912900Y-93952449D01*
X188932585Y-93885410D01*
X188949219Y-93864768D01*
X189112445Y-93701541D01*
X189112447Y-93701539D01*
X189242968Y-93515134D01*
X189270018Y-93457124D01*
X189316190Y-93404685D01*
X189383383Y-93385533D01*
X189450265Y-93405748D01*
X189494782Y-93457125D01*
X189521829Y-93515128D01*
X189521832Y-93515134D01*
X189652354Y-93701541D01*
X189813258Y-93862445D01*
X189813261Y-93862447D01*
X189999666Y-93992968D01*
X190205904Y-94089139D01*
X190425708Y-94148035D01*
X190587630Y-94162201D01*
X190652398Y-94167868D01*
X190652400Y-94167868D01*
X190652402Y-94167868D01*
X190709207Y-94162898D01*
X190879092Y-94148035D01*
X191098896Y-94089139D01*
X191305134Y-93992968D01*
X191491539Y-93862447D01*
X191652447Y-93701539D01*
X191782968Y-93515134D01*
X191810018Y-93457124D01*
X191856190Y-93404685D01*
X191923383Y-93385533D01*
X191990265Y-93405748D01*
X192034782Y-93457125D01*
X192061829Y-93515128D01*
X192061832Y-93515134D01*
X192192354Y-93701541D01*
X192353258Y-93862445D01*
X192353261Y-93862447D01*
X192539666Y-93992968D01*
X192745904Y-94089139D01*
X192965708Y-94148035D01*
X193127630Y-94162201D01*
X193192398Y-94167868D01*
X193192400Y-94167868D01*
X193192402Y-94167868D01*
X193249207Y-94162898D01*
X193419092Y-94148035D01*
X193638896Y-94089139D01*
X193845134Y-93992968D01*
X194031539Y-93862447D01*
X194031541Y-93862445D01*
X194194768Y-93699219D01*
X194256091Y-93665734D01*
X194282449Y-93662900D01*
X195506444Y-93662900D01*
X195506445Y-93662899D01*
X195661097Y-93632137D01*
X195806779Y-93571794D01*
X195937889Y-93484189D01*
X196963789Y-92458289D01*
X197051394Y-92327179D01*
X197111737Y-92181497D01*
X197142500Y-92026842D01*
X197142500Y-91869158D01*
X197142500Y-79067558D01*
X197142500Y-79067555D01*
X197142499Y-79067553D01*
X197122455Y-78966785D01*
X197111737Y-78912903D01*
X197073707Y-78821089D01*
X197051397Y-78767227D01*
X197051390Y-78767214D01*
X196963790Y-78636112D01*
X196963789Y-78636111D01*
X196852289Y-78524611D01*
X196532338Y-78204660D01*
X195785492Y-77457813D01*
X195785488Y-77457810D01*
X195654385Y-77370209D01*
X195654372Y-77370202D01*
X195508701Y-77309864D01*
X195508689Y-77309861D01*
X195354045Y-77279100D01*
X195354042Y-77279100D01*
X193752649Y-77279100D01*
X193685610Y-77259415D01*
X193639855Y-77206611D01*
X193629911Y-77137453D01*
X193658936Y-77073897D01*
X193712386Y-77037819D01*
X193797003Y-77008769D01*
X193797014Y-77008764D01*
X194015630Y-76890456D01*
X194015636Y-76890451D01*
X194062455Y-76854010D01*
X194062456Y-76854009D01*
X193321808Y-76113362D01*
X193385393Y-76096325D01*
X193499407Y-76030499D01*
X193592499Y-75937407D01*
X193658325Y-75823393D01*
X193675362Y-75759809D01*
X194415835Y-76500282D01*
X194516133Y-76346764D01*
X194615987Y-76119117D01*
X194677012Y-75878138D01*
X194677014Y-75878129D01*
X194697541Y-75630405D01*
X194697541Y-75630394D01*
X194677014Y-75382670D01*
X194677012Y-75382661D01*
X194615987Y-75141682D01*
X194516132Y-74914032D01*
X194415835Y-74760516D01*
X193675362Y-75500990D01*
X193658325Y-75437407D01*
X193592499Y-75323393D01*
X193499407Y-75230301D01*
X193385393Y-75164475D01*
X193321809Y-75147437D01*
X194062455Y-74406789D01*
X194062455Y-74406788D01*
X194015636Y-74370347D01*
X194015631Y-74370344D01*
X193797014Y-74252035D01*
X193797003Y-74252030D01*
X193561893Y-74171316D01*
X193316693Y-74130400D01*
X193068107Y-74130400D01*
X192822906Y-74171316D01*
X192587796Y-74252030D01*
X192587785Y-74252035D01*
X192369170Y-74370343D01*
X192322343Y-74406789D01*
X193062991Y-75147437D01*
X192999407Y-75164475D01*
X192885393Y-75230301D01*
X192792301Y-75323393D01*
X192726475Y-75437407D01*
X192709437Y-75500990D01*
X191968963Y-74760517D01*
X191868667Y-74914033D01*
X191868665Y-74914037D01*
X191768812Y-75141682D01*
X191707787Y-75382661D01*
X191707785Y-75382670D01*
X191687259Y-75630394D01*
X191687259Y-75630405D01*
X191707785Y-75878129D01*
X191707787Y-75878138D01*
X191768812Y-76119117D01*
X191868667Y-76346767D01*
X191968962Y-76500281D01*
X192709437Y-75759808D01*
X192726475Y-75823393D01*
X192792301Y-75937407D01*
X192885393Y-76030499D01*
X192999407Y-76096325D01*
X193062991Y-76113362D01*
X192322343Y-76854009D01*
X192369168Y-76890455D01*
X192369171Y-76890457D01*
X192587785Y-77008764D01*
X192587796Y-77008769D01*
X192672414Y-77037819D01*
X192729429Y-77078205D01*
X192755560Y-77143004D01*
X192742508Y-77211644D01*
X192694420Y-77262332D01*
X192632151Y-77279100D01*
X185065849Y-77279100D01*
X184998810Y-77259415D01*
X184953055Y-77206611D01*
X184943111Y-77137453D01*
X184972136Y-77073897D01*
X185025586Y-77037819D01*
X185110203Y-77008769D01*
X185110214Y-77008764D01*
X185328830Y-76890456D01*
X185328836Y-76890451D01*
X185375655Y-76854010D01*
X185375656Y-76854009D01*
X184635008Y-76113362D01*
X184698593Y-76096325D01*
X184812607Y-76030499D01*
X184905699Y-75937407D01*
X184971525Y-75823393D01*
X184988562Y-75759809D01*
X185729035Y-76500282D01*
X185829333Y-76346764D01*
X185929187Y-76119117D01*
X185990212Y-75878138D01*
X185990214Y-75878129D01*
X186010741Y-75630405D01*
X186010741Y-75630394D01*
X185990214Y-75382670D01*
X185990212Y-75382661D01*
X185929187Y-75141682D01*
X185829332Y-74914032D01*
X185729035Y-74760516D01*
X184988562Y-75500990D01*
X184971525Y-75437407D01*
X184905699Y-75323393D01*
X184812607Y-75230301D01*
X184698593Y-75164475D01*
X184635009Y-75147437D01*
X185375655Y-74406789D01*
X185375655Y-74406788D01*
X185328836Y-74370347D01*
X185328831Y-74370344D01*
X185110214Y-74252035D01*
X185110203Y-74252030D01*
X184875093Y-74171316D01*
X184629893Y-74130400D01*
X184381307Y-74130400D01*
X184136106Y-74171316D01*
X183900996Y-74252030D01*
X183900985Y-74252035D01*
X183682370Y-74370343D01*
X183635543Y-74406789D01*
X184376191Y-75147437D01*
X184312607Y-75164475D01*
X184198593Y-75230301D01*
X184105501Y-75323393D01*
X184039675Y-75437407D01*
X184022637Y-75500991D01*
X183282163Y-74760517D01*
X183181867Y-74914033D01*
X183181865Y-74914037D01*
X183082012Y-75141682D01*
X183020987Y-75382661D01*
X183020985Y-75382670D01*
X183000459Y-75630394D01*
X183000459Y-75630405D01*
X183020985Y-75878129D01*
X183020987Y-75878138D01*
X183082012Y-76119117D01*
X183181867Y-76346767D01*
X183282162Y-76500281D01*
X184022637Y-75759808D01*
X184039675Y-75823393D01*
X184105501Y-75937407D01*
X184198593Y-76030499D01*
X184312607Y-76096325D01*
X184376191Y-76113362D01*
X183635543Y-76854009D01*
X183682368Y-76890455D01*
X183682371Y-76890457D01*
X183900985Y-77008764D01*
X183900996Y-77008769D01*
X183985614Y-77037819D01*
X184042629Y-77078205D01*
X184068760Y-77143004D01*
X184055708Y-77211644D01*
X184007620Y-77262332D01*
X183945351Y-77279100D01*
X181230940Y-77279100D01*
X181163901Y-77259415D01*
X181143259Y-77242781D01*
X180516419Y-76615941D01*
X180482934Y-76554618D01*
X180480100Y-76528260D01*
X180480100Y-75867649D01*
X180499785Y-75800610D01*
X180516419Y-75779968D01*
X180679645Y-75616741D01*
X180679647Y-75616739D01*
X180810168Y-75430334D01*
X180906339Y-75224096D01*
X180965235Y-75004292D01*
X180985068Y-74777600D01*
X180983573Y-74760517D01*
X180965235Y-74550913D01*
X180965235Y-74550908D01*
X180906339Y-74331104D01*
X180810168Y-74124866D01*
X180692919Y-73957415D01*
X180679645Y-73938458D01*
X180518741Y-73777554D01*
X180332334Y-73647032D01*
X180332332Y-73647031D01*
X180126097Y-73550861D01*
X180126088Y-73550858D01*
X179906297Y-73491966D01*
X179906293Y-73491965D01*
X179906292Y-73491965D01*
X179906291Y-73491964D01*
X179906286Y-73491964D01*
X179679602Y-73472132D01*
X179679598Y-73472132D01*
X179452913Y-73491964D01*
X179452902Y-73491966D01*
X179233111Y-73550858D01*
X179233102Y-73550861D01*
X179026867Y-73647031D01*
X179026865Y-73647032D01*
X178840458Y-73777554D01*
X178677232Y-73940781D01*
X178615909Y-73974266D01*
X178589551Y-73977100D01*
X174322139Y-73977100D01*
X174255100Y-73957415D01*
X174234458Y-73940781D01*
X172332076Y-72038399D01*
X191862727Y-72038399D01*
X191862728Y-72038400D01*
X192825914Y-72038400D01*
X192821520Y-72042794D01*
X192768859Y-72134006D01*
X192741600Y-72235739D01*
X192741600Y-72341061D01*
X192768859Y-72442794D01*
X192821520Y-72534006D01*
X192825914Y-72538400D01*
X191862728Y-72538400D01*
X191915330Y-72734717D01*
X191915334Y-72734726D01*
X192011465Y-72940882D01*
X192141942Y-73127220D01*
X192302779Y-73288057D01*
X192489117Y-73418534D01*
X192695273Y-73514665D01*
X192695282Y-73514669D01*
X192891599Y-73567272D01*
X192891600Y-73567271D01*
X192891600Y-72604086D01*
X192895994Y-72608480D01*
X192987206Y-72661141D01*
X193088939Y-72688400D01*
X193194261Y-72688400D01*
X193295994Y-72661141D01*
X193387206Y-72608480D01*
X193391600Y-72604086D01*
X193391600Y-73567272D01*
X193587917Y-73514669D01*
X193587926Y-73514665D01*
X193794082Y-73418534D01*
X193980420Y-73288057D01*
X194141257Y-73127220D01*
X194271734Y-72940882D01*
X194367865Y-72734726D01*
X194367869Y-72734717D01*
X194420472Y-72538400D01*
X193457286Y-72538400D01*
X193461680Y-72534006D01*
X193514341Y-72442794D01*
X193541600Y-72341061D01*
X193541600Y-72235739D01*
X193514341Y-72134006D01*
X193461680Y-72042794D01*
X193457286Y-72038400D01*
X194420472Y-72038400D01*
X194420472Y-72038399D01*
X194367869Y-71842082D01*
X194367865Y-71842073D01*
X194271734Y-71635917D01*
X194141257Y-71449579D01*
X193980420Y-71288742D01*
X193794082Y-71158265D01*
X193587928Y-71062134D01*
X193391600Y-71009527D01*
X193391600Y-71972714D01*
X193387206Y-71968320D01*
X193295994Y-71915659D01*
X193194261Y-71888400D01*
X193088939Y-71888400D01*
X192987206Y-71915659D01*
X192895994Y-71968320D01*
X192891600Y-71972714D01*
X192891600Y-71009527D01*
X192695271Y-71062134D01*
X192489117Y-71158265D01*
X192302779Y-71288742D01*
X192141942Y-71449579D01*
X192011465Y-71635917D01*
X191915334Y-71842073D01*
X191915330Y-71842082D01*
X191862727Y-72038399D01*
X172332076Y-72038399D01*
X169647158Y-69353481D01*
X169613673Y-69292158D01*
X169618657Y-69222466D01*
X169647158Y-69178119D01*
X171005417Y-67819861D01*
X172376589Y-66448689D01*
X172406892Y-66403337D01*
X172464194Y-66317579D01*
X172524537Y-66171897D01*
X172555300Y-66017242D01*
X172555300Y-56380158D01*
X172533976Y-56272958D01*
X172533975Y-56272954D01*
X172524538Y-56225510D01*
X172524537Y-56225503D01*
X172501331Y-56169479D01*
X172497578Y-56160419D01*
X172474628Y-56105011D01*
X172464194Y-56079821D01*
X172464192Y-56079819D01*
X172464192Y-56079817D01*
X172376590Y-55948712D01*
X172330789Y-55902911D01*
X172265089Y-55837211D01*
X171477374Y-55049496D01*
X171443889Y-54988173D01*
X171448214Y-54920292D01*
X171498675Y-54778311D01*
X171498676Y-54778303D01*
X171498678Y-54778299D01*
X171534635Y-54605262D01*
X171555748Y-54503662D01*
X171574891Y-54223800D01*
X171555748Y-53943938D01*
X171519787Y-53770883D01*
X171498678Y-53669300D01*
X171498673Y-53669283D01*
X171448215Y-53527308D01*
X171444312Y-53457548D01*
X171477372Y-53398104D01*
X172629059Y-52246419D01*
X172690382Y-52212934D01*
X172716740Y-52210100D01*
X175751370Y-52210100D01*
X175818409Y-52229785D01*
X175864164Y-52282589D01*
X175874108Y-52351747D01*
X175845083Y-52415303D01*
X175839051Y-52421781D01*
X175805689Y-52455142D01*
X175713587Y-52604462D01*
X175713585Y-52604467D01*
X175699728Y-52646286D01*
X175658401Y-52771002D01*
X175658401Y-52771003D01*
X175658400Y-52771003D01*
X175647900Y-52873782D01*
X175647900Y-55573817D01*
X175658400Y-55676596D01*
X175689495Y-55770433D01*
X175713586Y-55843135D01*
X175805688Y-55992456D01*
X175929744Y-56116512D01*
X176079065Y-56208614D01*
X176245602Y-56263799D01*
X176348390Y-56274300D01*
X178565460Y-56274300D01*
X178632499Y-56293985D01*
X178653141Y-56310619D01*
X179909581Y-57567059D01*
X179943066Y-57628382D01*
X179945900Y-57654740D01*
X179945900Y-61412909D01*
X179926215Y-61479948D01*
X179894786Y-61513226D01*
X179811959Y-61573405D01*
X179802159Y-61580525D01*
X179736352Y-61604005D01*
X179668299Y-61588180D01*
X179619604Y-61538074D01*
X179613090Y-61523538D01*
X179609244Y-61513227D01*
X179602696Y-61495669D01*
X179602693Y-61495664D01*
X179516447Y-61380455D01*
X179516444Y-61380452D01*
X179401235Y-61294206D01*
X179401228Y-61294202D01*
X179266382Y-61243908D01*
X179266383Y-61243908D01*
X179206783Y-61237501D01*
X179206781Y-61237500D01*
X179206773Y-61237500D01*
X179206764Y-61237500D01*
X177206029Y-61237500D01*
X177206023Y-61237501D01*
X177146416Y-61243908D01*
X177011571Y-61294202D01*
X177011564Y-61294206D01*
X176896355Y-61380452D01*
X176896352Y-61380455D01*
X176810106Y-61495664D01*
X176810102Y-61495671D01*
X176759808Y-61630517D01*
X176753401Y-61690116D01*
X176753400Y-61690135D01*
X176753400Y-63785870D01*
X176753401Y-63785876D01*
X176759808Y-63845483D01*
X176810102Y-63980328D01*
X176810106Y-63980335D01*
X176896352Y-64095544D01*
X176896355Y-64095547D01*
X177011564Y-64181793D01*
X177011571Y-64181797D01*
X177027398Y-64187700D01*
X177146417Y-64232091D01*
X177206027Y-64238500D01*
X177281900Y-64238499D01*
X177348938Y-64258183D01*
X177394694Y-64310986D01*
X177405900Y-64362499D01*
X177405900Y-66012660D01*
X177386215Y-66079699D01*
X177369581Y-66100341D01*
X177035127Y-66434794D01*
X176973804Y-66468279D01*
X176936639Y-66470641D01*
X176834802Y-66461732D01*
X176834798Y-66461732D01*
X176608113Y-66481564D01*
X176608102Y-66481566D01*
X176388311Y-66540458D01*
X176388302Y-66540461D01*
X176182067Y-66636631D01*
X176182065Y-66636632D01*
X175995658Y-66767154D01*
X175834754Y-66928058D01*
X175704233Y-67114464D01*
X175704232Y-67114466D01*
X175677852Y-67171039D01*
X175676906Y-67173067D01*
X175630733Y-67225506D01*
X175563539Y-67244657D01*
X175496658Y-67224441D01*
X175452142Y-67173065D01*
X175424935Y-67114720D01*
X175424934Y-67114718D01*
X175294457Y-66928379D01*
X175133620Y-66767542D01*
X174947282Y-66637065D01*
X174741128Y-66540934D01*
X174544800Y-66488327D01*
X174544800Y-67451514D01*
X174540406Y-67447120D01*
X174449194Y-67394459D01*
X174347461Y-67367200D01*
X174242139Y-67367200D01*
X174140406Y-67394459D01*
X174049194Y-67447120D01*
X174044800Y-67451514D01*
X174044800Y-66488327D01*
X173848471Y-66540934D01*
X173642317Y-66637065D01*
X173455979Y-66767542D01*
X173295142Y-66928379D01*
X173164665Y-67114717D01*
X173068534Y-67320873D01*
X173068530Y-67320882D01*
X173015927Y-67517199D01*
X173015928Y-67517200D01*
X173979114Y-67517200D01*
X173974720Y-67521594D01*
X173922059Y-67612806D01*
X173894800Y-67714539D01*
X173894800Y-67819861D01*
X173922059Y-67921594D01*
X173974720Y-68012806D01*
X173979114Y-68017200D01*
X173015928Y-68017200D01*
X173068530Y-68213517D01*
X173068534Y-68213526D01*
X173164665Y-68419682D01*
X173295142Y-68606020D01*
X173455979Y-68766857D01*
X173642317Y-68897334D01*
X173848473Y-68993465D01*
X173848482Y-68993469D01*
X174044799Y-69046072D01*
X174044800Y-69046071D01*
X174044800Y-68082886D01*
X174049194Y-68087280D01*
X174140406Y-68139941D01*
X174242139Y-68167200D01*
X174347461Y-68167200D01*
X174449194Y-68139941D01*
X174540406Y-68087280D01*
X174544800Y-68082886D01*
X174544800Y-69046072D01*
X174741117Y-68993469D01*
X174741126Y-68993465D01*
X174947282Y-68897334D01*
X175133620Y-68766857D01*
X175294457Y-68606020D01*
X175424932Y-68419684D01*
X175452141Y-68361334D01*
X175498313Y-68308895D01*
X175565507Y-68289742D01*
X175632388Y-68309957D01*
X175676906Y-68361333D01*
X175704231Y-68419932D01*
X175704232Y-68419934D01*
X175834754Y-68606341D01*
X175995658Y-68767245D01*
X175995661Y-68767247D01*
X176182066Y-68897768D01*
X176388304Y-68993939D01*
X176608108Y-69052835D01*
X176770030Y-69067001D01*
X176834798Y-69072668D01*
X176834800Y-69072668D01*
X176834802Y-69072668D01*
X176891473Y-69067709D01*
X177061492Y-69052835D01*
X177281296Y-68993939D01*
X177487534Y-68897768D01*
X177673939Y-68767247D01*
X177722420Y-68718766D01*
X177837168Y-68604019D01*
X177898491Y-68570534D01*
X177924849Y-68567700D01*
X183009644Y-68567700D01*
X183009645Y-68567699D01*
X183164297Y-68536937D01*
X183309979Y-68476594D01*
X183441089Y-68388989D01*
X184062880Y-67767198D01*
X188229332Y-67767198D01*
X188229332Y-67767201D01*
X188249164Y-67993886D01*
X188249166Y-67993897D01*
X188308058Y-68213688D01*
X188308061Y-68213697D01*
X188404231Y-68419932D01*
X188404232Y-68419934D01*
X188534754Y-68606341D01*
X188695658Y-68767245D01*
X188695661Y-68767247D01*
X188882066Y-68897768D01*
X189088304Y-68993939D01*
X189308108Y-69052835D01*
X189470030Y-69067001D01*
X189534798Y-69072668D01*
X189534800Y-69072668D01*
X189534802Y-69072668D01*
X189591473Y-69067709D01*
X189761492Y-69052835D01*
X189981296Y-68993939D01*
X190187534Y-68897768D01*
X190373939Y-68767247D01*
X190534847Y-68606339D01*
X190665368Y-68419934D01*
X190761539Y-68213696D01*
X190820435Y-67993892D01*
X190840268Y-67767200D01*
X190820435Y-67540508D01*
X190761539Y-67320704D01*
X190665368Y-67114466D01*
X190548119Y-66947015D01*
X190534845Y-66928058D01*
X190373941Y-66767154D01*
X190187534Y-66636632D01*
X190187532Y-66636631D01*
X189981297Y-66540461D01*
X189981288Y-66540458D01*
X189761497Y-66481566D01*
X189761493Y-66481565D01*
X189761492Y-66481565D01*
X189761491Y-66481564D01*
X189761486Y-66481564D01*
X189534802Y-66461732D01*
X189534798Y-66461732D01*
X189308113Y-66481564D01*
X189308102Y-66481566D01*
X189088311Y-66540458D01*
X189088302Y-66540461D01*
X188882067Y-66636631D01*
X188882065Y-66636632D01*
X188695658Y-66767154D01*
X188534754Y-66928058D01*
X188404232Y-67114465D01*
X188404231Y-67114467D01*
X188308061Y-67320702D01*
X188308058Y-67320711D01*
X188249166Y-67540502D01*
X188249164Y-67540513D01*
X188229332Y-67767198D01*
X184062880Y-67767198D01*
X191404859Y-60425219D01*
X191466182Y-60391734D01*
X191492540Y-60388900D01*
X192051551Y-60388900D01*
X192118590Y-60408585D01*
X192139232Y-60425219D01*
X192302458Y-60588445D01*
X192302461Y-60588447D01*
X192488866Y-60718968D01*
X192695104Y-60815139D01*
X192914908Y-60874035D01*
X193076830Y-60888201D01*
X193141598Y-60893868D01*
X193141600Y-60893868D01*
X193141602Y-60893868D01*
X193198273Y-60888909D01*
X193368292Y-60874035D01*
X193588096Y-60815139D01*
X193794334Y-60718968D01*
X193980739Y-60588447D01*
X194141647Y-60427539D01*
X194272168Y-60241134D01*
X194368339Y-60034896D01*
X194427235Y-59815092D01*
X194447068Y-59588400D01*
X194427235Y-59361708D01*
X194368339Y-59141904D01*
X194272168Y-58935666D01*
X194200060Y-58832684D01*
X194177733Y-58766477D01*
X194194744Y-58698710D01*
X194245692Y-58650898D01*
X194314402Y-58638220D01*
X194321006Y-58639084D01*
X194612662Y-58685278D01*
X194978576Y-58704455D01*
X194999999Y-58705578D01*
X195000000Y-58705578D01*
X195000001Y-58705578D01*
X195020301Y-58704514D01*
X195387338Y-58685278D01*
X195770433Y-58624602D01*
X196145087Y-58524214D01*
X196507194Y-58385214D01*
X196852789Y-58209125D01*
X197178084Y-57997876D01*
X197479516Y-57753781D01*
X197753781Y-57479516D01*
X197997876Y-57178084D01*
X198209125Y-56852789D01*
X198385214Y-56507194D01*
X198524214Y-56145087D01*
X198624602Y-55770433D01*
X198685278Y-55387338D01*
X198705578Y-55000000D01*
X198685278Y-54612662D01*
X198624602Y-54229567D01*
X198524214Y-53854913D01*
X198385214Y-53492806D01*
X198209125Y-53147211D01*
X198209122Y-53147206D01*
X197997877Y-52821917D01*
X197855656Y-52646289D01*
X197753781Y-52520484D01*
X197479516Y-52246219D01*
X197178084Y-52002124D01*
X197178082Y-52002122D01*
X196852793Y-51790877D01*
X196507197Y-51614787D01*
X196145094Y-51475788D01*
X196145087Y-51475786D01*
X195770433Y-51375398D01*
X195770429Y-51375397D01*
X195770428Y-51375397D01*
X195387339Y-51314722D01*
X195000001Y-51294422D01*
X194999999Y-51294422D01*
X194612660Y-51314722D01*
X194229572Y-51375397D01*
X194229570Y-51375397D01*
X193854905Y-51475788D01*
X193492802Y-51614787D01*
X193147206Y-51790877D01*
X192821917Y-52002122D01*
X192520488Y-52246215D01*
X192520480Y-52246222D01*
X192246222Y-52520480D01*
X192246215Y-52520488D01*
X192002122Y-52821917D01*
X191790877Y-53147206D01*
X191614787Y-53492802D01*
X191475788Y-53854905D01*
X191375397Y-54229570D01*
X191375397Y-54229572D01*
X191314722Y-54612660D01*
X191294422Y-54999999D01*
X191294422Y-55000000D01*
X191314722Y-55387339D01*
X191368342Y-55725881D01*
X191375398Y-55770433D01*
X191444536Y-56028462D01*
X191475788Y-56145094D01*
X191614787Y-56507197D01*
X191790877Y-56852793D01*
X192002122Y-57178082D01*
X192218401Y-57445164D01*
X192246219Y-57479516D01*
X192520484Y-57753781D01*
X192520488Y-57753784D01*
X192821917Y-57997877D01*
X192947856Y-58079663D01*
X192993359Y-58132684D01*
X193002973Y-58201889D01*
X192973646Y-58265306D01*
X192914689Y-58302800D01*
X192912414Y-58303433D01*
X192695111Y-58361658D01*
X192695102Y-58361661D01*
X192488867Y-58457831D01*
X192488865Y-58457832D01*
X192302458Y-58588354D01*
X192139232Y-58751581D01*
X192077909Y-58785066D01*
X192051551Y-58787900D01*
X191030755Y-58787900D01*
X190876110Y-58818661D01*
X190876098Y-58818664D01*
X190730427Y-58879002D01*
X190730414Y-58879009D01*
X190599311Y-58966610D01*
X190599307Y-58966613D01*
X182635541Y-66930381D01*
X182574218Y-66963866D01*
X182547860Y-66966700D01*
X179019545Y-66966700D01*
X178952506Y-66947015D01*
X178906751Y-66894211D01*
X178896807Y-66825053D01*
X178913825Y-66780637D01*
X178912921Y-66780154D01*
X178915790Y-66774784D01*
X178915794Y-66774779D01*
X178976137Y-66629097D01*
X179006900Y-66474442D01*
X179006900Y-64362499D01*
X179026585Y-64295460D01*
X179079389Y-64249705D01*
X179130900Y-64238499D01*
X179206771Y-64238499D01*
X179206772Y-64238499D01*
X179266383Y-64232091D01*
X179401231Y-64181796D01*
X179516446Y-64095546D01*
X179602696Y-63980331D01*
X179613090Y-63952460D01*
X179654960Y-63896527D01*
X179720423Y-63872108D01*
X179788697Y-63886958D01*
X179802146Y-63895465D01*
X179984862Y-64028217D01*
X180128586Y-64101448D01*
X180188644Y-64132049D01*
X180406151Y-64202721D01*
X180406152Y-64202721D01*
X180406155Y-64202722D01*
X180632046Y-64238500D01*
X180632047Y-64238500D01*
X180860753Y-64238500D01*
X180860754Y-64238500D01*
X181086645Y-64202722D01*
X181086648Y-64202721D01*
X181086649Y-64202721D01*
X181304155Y-64132049D01*
X181304155Y-64132048D01*
X181304158Y-64132048D01*
X181507938Y-64028217D01*
X181692966Y-63893786D01*
X181854686Y-63732066D01*
X181916392Y-63647134D01*
X181971719Y-63604470D01*
X182041332Y-63598491D01*
X182103127Y-63631096D01*
X182117026Y-63647135D01*
X182178497Y-63731741D01*
X182178497Y-63731742D01*
X182340157Y-63893402D01*
X182525123Y-64027788D01*
X182728829Y-64131582D01*
X182946271Y-64202234D01*
X183036400Y-64216509D01*
X183036400Y-63228747D01*
X183074108Y-63250518D01*
X183213991Y-63288000D01*
X183358809Y-63288000D01*
X183498692Y-63250518D01*
X183536400Y-63228747D01*
X183536400Y-64216508D01*
X183626528Y-64202234D01*
X183843970Y-64131582D01*
X184047676Y-64027788D01*
X184232642Y-63893402D01*
X184394302Y-63731742D01*
X184528688Y-63546776D01*
X184632482Y-63343070D01*
X184703134Y-63125628D01*
X184724932Y-62988000D01*
X183777148Y-62988000D01*
X183798918Y-62950292D01*
X183836400Y-62810409D01*
X183836400Y-62665591D01*
X183798918Y-62525708D01*
X183777148Y-62488000D01*
X184724932Y-62488000D01*
X184703134Y-62350371D01*
X184632482Y-62132929D01*
X184528688Y-61929223D01*
X184394302Y-61744257D01*
X184232642Y-61582597D01*
X184047676Y-61448211D01*
X183843968Y-61344417D01*
X183626524Y-61273765D01*
X183536400Y-61259490D01*
X183536400Y-62247252D01*
X183498692Y-62225482D01*
X183358809Y-62188000D01*
X183213991Y-62188000D01*
X183074108Y-62225482D01*
X183036400Y-62247252D01*
X183036400Y-61259490D01*
X183036399Y-61259490D01*
X182946275Y-61273765D01*
X182728831Y-61344417D01*
X182525123Y-61448211D01*
X182340157Y-61582597D01*
X182178497Y-61744257D01*
X182117027Y-61828864D01*
X182061697Y-61871529D01*
X181992084Y-61877508D01*
X181930289Y-61844902D01*
X181916391Y-61828864D01*
X181914825Y-61826708D01*
X181854686Y-61743934D01*
X181692966Y-61582214D01*
X181598013Y-61513226D01*
X181555349Y-61457896D01*
X181546900Y-61412909D01*
X181546900Y-57192955D01*
X181546899Y-57192953D01*
X181536795Y-57142158D01*
X181516137Y-57038303D01*
X181477993Y-56946214D01*
X181455797Y-56892627D01*
X181455790Y-56892614D01*
X181368190Y-56761512D01*
X181315060Y-56708382D01*
X181256689Y-56650011D01*
X179785219Y-55178541D01*
X179751734Y-55117218D01*
X179748900Y-55090860D01*
X179748900Y-52873795D01*
X179748899Y-52873782D01*
X179748778Y-52872602D01*
X179738399Y-52771002D01*
X179683214Y-52604465D01*
X179591112Y-52455144D01*
X179557749Y-52421781D01*
X179524264Y-52360458D01*
X179529248Y-52290766D01*
X179571120Y-52234833D01*
X179636584Y-52210416D01*
X179645430Y-52210100D01*
X180501260Y-52210100D01*
X180568299Y-52229785D01*
X180588941Y-52246419D01*
X181740624Y-53398102D01*
X181774109Y-53459425D01*
X181769784Y-53527307D01*
X181719324Y-53669292D01*
X181719321Y-53669303D01*
X181662252Y-53943935D01*
X181662251Y-53943937D01*
X181643109Y-54223800D01*
X181662251Y-54503662D01*
X181662252Y-54503664D01*
X181719321Y-54778299D01*
X181719326Y-54778316D01*
X181806084Y-55022428D01*
X181813264Y-55042630D01*
X181942319Y-55291696D01*
X182104088Y-55520869D01*
X182104092Y-55520873D01*
X182104092Y-55520874D01*
X182295554Y-55725880D01*
X182295555Y-55725881D01*
X182513154Y-55902911D01*
X182513156Y-55902912D01*
X182513157Y-55902913D01*
X182752833Y-56048663D01*
X182935058Y-56127814D01*
X183010125Y-56160420D01*
X183280239Y-56236103D01*
X183524559Y-56269684D01*
X183558141Y-56274300D01*
X183558142Y-56274300D01*
X183838659Y-56274300D01*
X183868619Y-56270181D01*
X184116561Y-56236103D01*
X184386675Y-56160420D01*
X184595500Y-56069714D01*
X184643966Y-56048663D01*
X184643968Y-56048662D01*
X184883646Y-55902911D01*
X185101245Y-55725881D01*
X185292712Y-55520869D01*
X185454481Y-55291696D01*
X185583536Y-55042630D01*
X185677475Y-54778311D01*
X185677476Y-54778304D01*
X185677478Y-54778299D01*
X185713435Y-54605262D01*
X185734548Y-54503662D01*
X185753691Y-54223800D01*
X185734548Y-53943938D01*
X185698587Y-53770883D01*
X185677478Y-53669300D01*
X185677473Y-53669283D01*
X185627015Y-53527308D01*
X185583536Y-53404970D01*
X185454481Y-53155904D01*
X185292712Y-52926731D01*
X185292707Y-52926725D01*
X185101245Y-52721719D01*
X184957123Y-52604467D01*
X184883646Y-52544689D01*
X184883644Y-52544688D01*
X184883642Y-52544686D01*
X184643966Y-52398936D01*
X184386676Y-52287180D01*
X184116566Y-52211498D01*
X184116562Y-52211497D01*
X184116561Y-52211497D01*
X183969596Y-52191297D01*
X183838659Y-52173300D01*
X183838658Y-52173300D01*
X183558142Y-52173300D01*
X183558141Y-52173300D01*
X183280239Y-52211497D01*
X183280233Y-52211498D01*
X183010120Y-52287181D01*
X183006457Y-52288772D01*
X182937124Y-52297416D01*
X182874124Y-52267204D01*
X182869390Y-52262712D01*
X181618359Y-51011681D01*
X181584874Y-50950358D01*
X181589858Y-50880666D01*
X181631730Y-50824733D01*
X181697194Y-50800316D01*
X181706040Y-50800000D01*
X199291237Y-50800000D01*
X199358276Y-50819685D01*
X199404031Y-50872489D01*
X199415236Y-50924161D01*
X199396306Y-65317698D01*
X199339362Y-108613626D01*
X199319589Y-108680640D01*
X199266725Y-108726325D01*
X199215426Y-108737463D01*
X101038372Y-108788135D01*
X100971322Y-108768485D01*
X100925540Y-108715705D01*
X100914308Y-108664029D01*
X100916272Y-106422114D01*
X100936014Y-106355099D01*
X100988858Y-106309391D01*
X101058026Y-106299508D01*
X101121556Y-106328588D01*
X101136637Y-106344194D01*
X101246219Y-106479516D01*
X101520484Y-106753781D01*
X101520488Y-106753784D01*
X101821917Y-106997877D01*
X102039796Y-107139369D01*
X102147211Y-107209125D01*
X102492806Y-107385214D01*
X102854913Y-107524214D01*
X103229567Y-107624602D01*
X103612662Y-107685278D01*
X103978576Y-107704455D01*
X103999999Y-107705578D01*
X104000000Y-107705578D01*
X104000001Y-107705578D01*
X104020301Y-107704514D01*
X104387338Y-107685278D01*
X104770433Y-107624602D01*
X105145087Y-107524214D01*
X105507194Y-107385214D01*
X105852789Y-107209125D01*
X106178084Y-106997876D01*
X106479516Y-106753781D01*
X106753781Y-106479516D01*
X106997876Y-106178084D01*
X107209125Y-105852789D01*
X107385214Y-105507194D01*
X107524214Y-105145087D01*
X107624602Y-104770433D01*
X107685278Y-104387338D01*
X107705578Y-104000000D01*
X107685278Y-103612662D01*
X107624602Y-103229567D01*
X107524214Y-102854913D01*
X107385214Y-102492806D01*
X107209125Y-102147211D01*
X106997876Y-101821916D01*
X106939729Y-101750111D01*
X106753784Y-101520488D01*
X106753781Y-101520484D01*
X106479516Y-101246219D01*
X106178084Y-101002124D01*
X106178082Y-101002122D01*
X105852793Y-100790877D01*
X105507197Y-100614787D01*
X105145094Y-100475788D01*
X105145087Y-100475786D01*
X104770433Y-100375398D01*
X104770429Y-100375397D01*
X104770428Y-100375397D01*
X104387339Y-100314722D01*
X104000001Y-100294422D01*
X103999999Y-100294422D01*
X103612660Y-100314722D01*
X103229572Y-100375397D01*
X103229570Y-100375397D01*
X102854905Y-100475788D01*
X102492802Y-100614787D01*
X102147206Y-100790877D01*
X101821917Y-101002122D01*
X101520488Y-101246215D01*
X101520480Y-101246222D01*
X101246222Y-101520480D01*
X101246215Y-101520488D01*
X101140887Y-101650558D01*
X101083400Y-101690269D01*
X101013569Y-101692597D01*
X100953565Y-101656802D01*
X100922439Y-101594248D01*
X100920521Y-101572413D01*
X100929397Y-91439998D01*
X110580909Y-91439998D01*
X110580909Y-91440001D01*
X110600048Y-91707594D01*
X110600049Y-91707601D01*
X110657072Y-91969734D01*
X110750827Y-92221102D01*
X110750829Y-92221106D01*
X110879395Y-92456556D01*
X110879400Y-92456564D01*
X111040164Y-92671321D01*
X111040180Y-92671339D01*
X111229860Y-92861019D01*
X111229878Y-92861035D01*
X111444635Y-93021799D01*
X111444643Y-93021804D01*
X111680093Y-93150370D01*
X111680097Y-93150372D01*
X111680099Y-93150373D01*
X111931461Y-93244126D01*
X111931464Y-93244126D01*
X111931465Y-93244127D01*
X112010271Y-93261270D01*
X112193607Y-93301152D01*
X112440585Y-93318816D01*
X112461199Y-93320291D01*
X112461200Y-93320291D01*
X112461201Y-93320291D01*
X112480340Y-93318922D01*
X112728793Y-93301152D01*
X112990939Y-93244126D01*
X113242301Y-93150373D01*
X113477762Y-93021801D01*
X113692529Y-92861029D01*
X113882229Y-92671329D01*
X114043001Y-92456562D01*
X114171573Y-92221101D01*
X114265326Y-91969739D01*
X114322352Y-91707593D01*
X114341491Y-91440000D01*
X114341491Y-91439998D01*
X115980909Y-91439998D01*
X115980909Y-91440001D01*
X116000048Y-91707594D01*
X116000049Y-91707601D01*
X116057072Y-91969734D01*
X116150827Y-92221102D01*
X116150829Y-92221106D01*
X116279395Y-92456556D01*
X116279400Y-92456564D01*
X116440164Y-92671321D01*
X116440180Y-92671339D01*
X116629860Y-92861019D01*
X116629878Y-92861035D01*
X116844635Y-93021799D01*
X116844643Y-93021804D01*
X117080093Y-93150370D01*
X117080097Y-93150372D01*
X117080099Y-93150373D01*
X117331461Y-93244126D01*
X117331464Y-93244126D01*
X117331465Y-93244127D01*
X117410271Y-93261270D01*
X117593607Y-93301152D01*
X117840585Y-93318816D01*
X117861199Y-93320291D01*
X117861200Y-93320291D01*
X117861201Y-93320291D01*
X117880340Y-93318922D01*
X118128793Y-93301152D01*
X118390939Y-93244126D01*
X118642301Y-93150373D01*
X118877762Y-93021801D01*
X119092529Y-92861029D01*
X119282229Y-92671329D01*
X119443001Y-92456562D01*
X119571573Y-92221101D01*
X119665326Y-91969739D01*
X119722352Y-91707593D01*
X119741491Y-91440000D01*
X119722352Y-91172407D01*
X119665326Y-90910261D01*
X119654514Y-90881275D01*
X119649530Y-90811585D01*
X119683011Y-90750265D01*
X127070478Y-83362798D01*
X129910932Y-83362798D01*
X129910932Y-83362801D01*
X129930764Y-83589486D01*
X129930766Y-83589497D01*
X129989658Y-83809288D01*
X129989661Y-83809297D01*
X130085831Y-84015532D01*
X130085832Y-84015534D01*
X130216354Y-84201941D01*
X130377258Y-84362845D01*
X130377261Y-84362847D01*
X130563666Y-84493368D01*
X130769904Y-84589539D01*
X130769909Y-84589540D01*
X130769911Y-84589541D01*
X130822815Y-84603716D01*
X130989708Y-84648435D01*
X131151630Y-84662601D01*
X131216398Y-84668268D01*
X131216400Y-84668268D01*
X131216402Y-84668268D01*
X131273073Y-84663309D01*
X131443092Y-84648435D01*
X131662896Y-84589539D01*
X131869134Y-84493368D01*
X132055539Y-84362847D01*
X132216447Y-84201939D01*
X132346968Y-84015534D01*
X132443139Y-83809296D01*
X132502035Y-83589492D01*
X132521868Y-83362800D01*
X132521122Y-83354278D01*
X132503689Y-83155012D01*
X132502035Y-83136108D01*
X132443139Y-82916304D01*
X132346968Y-82710066D01*
X132216447Y-82523661D01*
X132216445Y-82523658D01*
X132055541Y-82362754D01*
X131869134Y-82232232D01*
X131869132Y-82232231D01*
X131662897Y-82136061D01*
X131662888Y-82136058D01*
X131443097Y-82077166D01*
X131443093Y-82077165D01*
X131443092Y-82077165D01*
X131443091Y-82077164D01*
X131443086Y-82077164D01*
X131216402Y-82057332D01*
X131216398Y-82057332D01*
X130989713Y-82077164D01*
X130989702Y-82077166D01*
X130769911Y-82136058D01*
X130769902Y-82136061D01*
X130563667Y-82232231D01*
X130563665Y-82232232D01*
X130377258Y-82362754D01*
X130216354Y-82523658D01*
X130085832Y-82710065D01*
X130085831Y-82710067D01*
X129989661Y-82916302D01*
X129989658Y-82916311D01*
X129930766Y-83136102D01*
X129930764Y-83136113D01*
X129910932Y-83362798D01*
X127070478Y-83362798D01*
X141425158Y-69008119D01*
X141425169Y-69008109D01*
X141540986Y-68892292D01*
X141540989Y-68892289D01*
X141628594Y-68761179D01*
X141688937Y-68615497D01*
X141694459Y-68587737D01*
X141704564Y-68536935D01*
X141719700Y-68460845D01*
X141719700Y-67517199D01*
X142586727Y-67517199D01*
X142586728Y-67517200D01*
X143549914Y-67517200D01*
X143545520Y-67521594D01*
X143492859Y-67612806D01*
X143465600Y-67714539D01*
X143465600Y-67819861D01*
X143492859Y-67921594D01*
X143545520Y-68012806D01*
X143549914Y-68017200D01*
X142586728Y-68017200D01*
X142639330Y-68213517D01*
X142639334Y-68213526D01*
X142735465Y-68419682D01*
X142865942Y-68606020D01*
X143026779Y-68766857D01*
X143213117Y-68897334D01*
X143419273Y-68993465D01*
X143419282Y-68993469D01*
X143615599Y-69046072D01*
X143615600Y-69046071D01*
X143615600Y-68082886D01*
X143619994Y-68087280D01*
X143711206Y-68139941D01*
X143812939Y-68167200D01*
X143918261Y-68167200D01*
X144019994Y-68139941D01*
X144111206Y-68087280D01*
X144115600Y-68082886D01*
X144115600Y-69046072D01*
X144311917Y-68993469D01*
X144311926Y-68993465D01*
X144518082Y-68897334D01*
X144704420Y-68766857D01*
X144865257Y-68606020D01*
X144995732Y-68419684D01*
X145022941Y-68361334D01*
X145069113Y-68308895D01*
X145136307Y-68289742D01*
X145203188Y-68309957D01*
X145247706Y-68361333D01*
X145275031Y-68419932D01*
X145275032Y-68419934D01*
X145405554Y-68606341D01*
X145568781Y-68769568D01*
X145602266Y-68830891D01*
X145605100Y-68857249D01*
X145605100Y-69572751D01*
X145585415Y-69639790D01*
X145568781Y-69660432D01*
X145405554Y-69823658D01*
X145275032Y-70010065D01*
X145275031Y-70010067D01*
X145178861Y-70216302D01*
X145178858Y-70216311D01*
X145119966Y-70436102D01*
X145119964Y-70436113D01*
X145100132Y-70662798D01*
X145100132Y-70662801D01*
X145119964Y-70889486D01*
X145119966Y-70889497D01*
X145178858Y-71109288D01*
X145178861Y-71109297D01*
X145275031Y-71315532D01*
X145275032Y-71315534D01*
X145405554Y-71501941D01*
X145566458Y-71662845D01*
X145566461Y-71662847D01*
X145752866Y-71793368D01*
X145959104Y-71889539D01*
X146178908Y-71948435D01*
X146340830Y-71962601D01*
X146405598Y-71968268D01*
X146405600Y-71968268D01*
X146405602Y-71968268D01*
X146462273Y-71963309D01*
X146632292Y-71948435D01*
X146852096Y-71889539D01*
X147058334Y-71793368D01*
X147244739Y-71662847D01*
X147405647Y-71501939D01*
X147536168Y-71315534D01*
X147632339Y-71109296D01*
X147691235Y-70889492D01*
X147711068Y-70662800D01*
X147691235Y-70436108D01*
X147632339Y-70216304D01*
X147536168Y-70010066D01*
X147405647Y-69823661D01*
X147405645Y-69823658D01*
X147242419Y-69660432D01*
X147208934Y-69599109D01*
X147206100Y-69572751D01*
X147206100Y-68857249D01*
X147225785Y-68790210D01*
X147242419Y-68769568D01*
X147405645Y-68606341D01*
X147405647Y-68606339D01*
X147536168Y-68419934D01*
X147632339Y-68213696D01*
X147691235Y-67993892D01*
X147711068Y-67767200D01*
X147702157Y-67665358D01*
X147715923Y-67596862D01*
X147738001Y-67566875D01*
X149110189Y-66194689D01*
X149197794Y-66063579D01*
X149258137Y-65917897D01*
X149288900Y-65763242D01*
X149288900Y-65605558D01*
X149288900Y-64362499D01*
X149308585Y-64295460D01*
X149361389Y-64249705D01*
X149412900Y-64238499D01*
X149488771Y-64238499D01*
X149488772Y-64238499D01*
X149548383Y-64232091D01*
X149683231Y-64181796D01*
X149798446Y-64095546D01*
X149884696Y-63980331D01*
X149895090Y-63952460D01*
X149936960Y-63896527D01*
X150002423Y-63872108D01*
X150070697Y-63886958D01*
X150084146Y-63895465D01*
X150266862Y-64028217D01*
X150410586Y-64101448D01*
X150470644Y-64132049D01*
X150688151Y-64202721D01*
X150688152Y-64202721D01*
X150688155Y-64202722D01*
X150914046Y-64238500D01*
X150914047Y-64238500D01*
X151142753Y-64238500D01*
X151142754Y-64238500D01*
X151368645Y-64202722D01*
X151368648Y-64202721D01*
X151368649Y-64202721D01*
X151586155Y-64132049D01*
X151586155Y-64132048D01*
X151586158Y-64132048D01*
X151789938Y-64028217D01*
X151974966Y-63893786D01*
X152136686Y-63732066D01*
X152198392Y-63647134D01*
X152253719Y-63604470D01*
X152323332Y-63598491D01*
X152385127Y-63631096D01*
X152399026Y-63647135D01*
X152460497Y-63731741D01*
X152460497Y-63731742D01*
X152622157Y-63893402D01*
X152807123Y-64027788D01*
X153010829Y-64131582D01*
X153228271Y-64202234D01*
X153318400Y-64216509D01*
X153318400Y-63228747D01*
X153356108Y-63250518D01*
X153495991Y-63288000D01*
X153640809Y-63288000D01*
X153780692Y-63250518D01*
X153818400Y-63228747D01*
X153818400Y-64216508D01*
X153908528Y-64202234D01*
X154125970Y-64131582D01*
X154329676Y-64027788D01*
X154514642Y-63893402D01*
X154676302Y-63731742D01*
X154810688Y-63546776D01*
X154914482Y-63343070D01*
X154985134Y-63125628D01*
X155006932Y-62988000D01*
X154059148Y-62988000D01*
X154080918Y-62950292D01*
X154118400Y-62810409D01*
X154118400Y-62665591D01*
X154080918Y-62525708D01*
X154059148Y-62488000D01*
X155006932Y-62488000D01*
X154985134Y-62350371D01*
X154914482Y-62132929D01*
X154810688Y-61929223D01*
X154676302Y-61744257D01*
X154514642Y-61582597D01*
X154329676Y-61448211D01*
X154125968Y-61344417D01*
X153908524Y-61273765D01*
X153818400Y-61259490D01*
X153818400Y-62247252D01*
X153780692Y-62225482D01*
X153640809Y-62188000D01*
X153495991Y-62188000D01*
X153356108Y-62225482D01*
X153318400Y-62247252D01*
X153318400Y-61259490D01*
X153318399Y-61259490D01*
X153228275Y-61273765D01*
X153010831Y-61344417D01*
X152807123Y-61448211D01*
X152622157Y-61582597D01*
X152460497Y-61744257D01*
X152399027Y-61828864D01*
X152343697Y-61871529D01*
X152274084Y-61877508D01*
X152212289Y-61844902D01*
X152198391Y-61828864D01*
X152196825Y-61826708D01*
X152136686Y-61743934D01*
X151974966Y-61582214D01*
X151880013Y-61513226D01*
X151837349Y-61457896D01*
X151828900Y-61412909D01*
X151828900Y-57274355D01*
X151828899Y-57274353D01*
X151817370Y-57216393D01*
X151798137Y-57119703D01*
X151764423Y-57038310D01*
X151737797Y-56974027D01*
X151737790Y-56974014D01*
X151650190Y-56842912D01*
X151597060Y-56789782D01*
X151538689Y-56731411D01*
X149965619Y-55158341D01*
X149932134Y-55097018D01*
X149929300Y-55070660D01*
X149929300Y-52853595D01*
X149929299Y-52853582D01*
X149918799Y-52750803D01*
X149918799Y-52750802D01*
X149863614Y-52584265D01*
X149771512Y-52434944D01*
X149647456Y-52310888D01*
X149542611Y-52246219D01*
X149498137Y-52218787D01*
X149498132Y-52218785D01*
X149471922Y-52210100D01*
X149331598Y-52163601D01*
X149331596Y-52163600D01*
X149228817Y-52153100D01*
X149228810Y-52153100D01*
X146528790Y-52153100D01*
X146528782Y-52153100D01*
X146426003Y-52163600D01*
X146426002Y-52163601D01*
X146365046Y-52183800D01*
X146259467Y-52218785D01*
X146259462Y-52218787D01*
X146110142Y-52310889D01*
X145986089Y-52434942D01*
X145893987Y-52584262D01*
X145893985Y-52584267D01*
X145876444Y-52637203D01*
X145838801Y-52750802D01*
X145838801Y-52750803D01*
X145838800Y-52750803D01*
X145828300Y-52853582D01*
X145828300Y-55553617D01*
X145838800Y-55656396D01*
X145893985Y-55822932D01*
X145893987Y-55822937D01*
X145906445Y-55843135D01*
X145986088Y-55972256D01*
X146110144Y-56096312D01*
X146259465Y-56188414D01*
X146426002Y-56243599D01*
X146528790Y-56254100D01*
X148745860Y-56254100D01*
X148812899Y-56273785D01*
X148833541Y-56290419D01*
X150191581Y-57648459D01*
X150225066Y-57709782D01*
X150227900Y-57736140D01*
X150227900Y-61412909D01*
X150208215Y-61479948D01*
X150176786Y-61513226D01*
X150093959Y-61573405D01*
X150084159Y-61580525D01*
X150018352Y-61604005D01*
X149950299Y-61588180D01*
X149901604Y-61538074D01*
X149895090Y-61523538D01*
X149891244Y-61513227D01*
X149884696Y-61495669D01*
X149884693Y-61495664D01*
X149798447Y-61380455D01*
X149798444Y-61380452D01*
X149683235Y-61294206D01*
X149683228Y-61294202D01*
X149548382Y-61243908D01*
X149548383Y-61243908D01*
X149488783Y-61237501D01*
X149488781Y-61237500D01*
X149488773Y-61237500D01*
X149488764Y-61237500D01*
X147488029Y-61237500D01*
X147488023Y-61237501D01*
X147428416Y-61243908D01*
X147293571Y-61294202D01*
X147293564Y-61294206D01*
X147178355Y-61380452D01*
X147178352Y-61380455D01*
X147092106Y-61495664D01*
X147092102Y-61495671D01*
X147041808Y-61630517D01*
X147035401Y-61690116D01*
X147035400Y-61690135D01*
X147035400Y-63785870D01*
X147035401Y-63785876D01*
X147041808Y-63845483D01*
X147092102Y-63980328D01*
X147092106Y-63980335D01*
X147178352Y-64095544D01*
X147178355Y-64095547D01*
X147293564Y-64181793D01*
X147293571Y-64181797D01*
X147309398Y-64187700D01*
X147428417Y-64232091D01*
X147488027Y-64238500D01*
X147563900Y-64238499D01*
X147630938Y-64258183D01*
X147676694Y-64310986D01*
X147687900Y-64362499D01*
X147687900Y-65301459D01*
X147668215Y-65368498D01*
X147651581Y-65389140D01*
X146605926Y-66434794D01*
X146544603Y-66468279D01*
X146507438Y-66470641D01*
X146405602Y-66461732D01*
X146405598Y-66461732D01*
X146178913Y-66481564D01*
X146178902Y-66481566D01*
X145959111Y-66540458D01*
X145959102Y-66540461D01*
X145752867Y-66636631D01*
X145752865Y-66636632D01*
X145566458Y-66767154D01*
X145405554Y-66928058D01*
X145275033Y-67114464D01*
X145275032Y-67114466D01*
X145248652Y-67171039D01*
X145247706Y-67173067D01*
X145201533Y-67225506D01*
X145134339Y-67244657D01*
X145067458Y-67224441D01*
X145022942Y-67173065D01*
X144995735Y-67114720D01*
X144995734Y-67114718D01*
X144865257Y-66928379D01*
X144704420Y-66767542D01*
X144518082Y-66637065D01*
X144311928Y-66540934D01*
X144115600Y-66488327D01*
X144115600Y-67451514D01*
X144111206Y-67447120D01*
X144019994Y-67394459D01*
X143918261Y-67367200D01*
X143812939Y-67367200D01*
X143711206Y-67394459D01*
X143619994Y-67447120D01*
X143615600Y-67451514D01*
X143615600Y-66488327D01*
X143419271Y-66540934D01*
X143213117Y-66637065D01*
X143026779Y-66767542D01*
X142865942Y-66928379D01*
X142735465Y-67114717D01*
X142639334Y-67320873D01*
X142639330Y-67320882D01*
X142586727Y-67517199D01*
X141719700Y-67517199D01*
X141719700Y-56428155D01*
X141719699Y-56428153D01*
X141688937Y-56273503D01*
X141688935Y-56273498D01*
X141628597Y-56127827D01*
X141628590Y-56127814D01*
X141540989Y-55996711D01*
X141540986Y-55996707D01*
X141425170Y-55880891D01*
X141425147Y-55880870D01*
X140695373Y-55151096D01*
X140661888Y-55089773D01*
X140666213Y-55021893D01*
X140716675Y-54879911D01*
X140716676Y-54879905D01*
X140716678Y-54879899D01*
X140772210Y-54612662D01*
X140773748Y-54605262D01*
X140792891Y-54325400D01*
X140773748Y-54045538D01*
X140748437Y-53923735D01*
X140716678Y-53770900D01*
X140716673Y-53770883D01*
X140622736Y-53506571D01*
X140622736Y-53506570D01*
X140493681Y-53257504D01*
X140331912Y-53028331D01*
X140331907Y-53028325D01*
X140140445Y-52823319D01*
X139996323Y-52706067D01*
X139922846Y-52646289D01*
X139922844Y-52646288D01*
X139922842Y-52646286D01*
X139683166Y-52500536D01*
X139425876Y-52388780D01*
X139155766Y-52313098D01*
X139155762Y-52313097D01*
X139155761Y-52313097D01*
X138996544Y-52291213D01*
X138877859Y-52274900D01*
X138877858Y-52274900D01*
X138597342Y-52274900D01*
X138597341Y-52274900D01*
X138319439Y-52313097D01*
X138319433Y-52313098D01*
X138049323Y-52388780D01*
X137792033Y-52500536D01*
X137552357Y-52646286D01*
X137334754Y-52823319D01*
X137143292Y-53028325D01*
X137143292Y-53028326D01*
X136981519Y-53257503D01*
X136852463Y-53506571D01*
X136758526Y-53770883D01*
X136758521Y-53770900D01*
X136701452Y-54045535D01*
X136701451Y-54045537D01*
X136682309Y-54325400D01*
X136701451Y-54605262D01*
X136701452Y-54605264D01*
X136758521Y-54879899D01*
X136758526Y-54879916D01*
X136842864Y-55117218D01*
X136852464Y-55144230D01*
X136981519Y-55393296D01*
X137143288Y-55622469D01*
X137143292Y-55622473D01*
X137143292Y-55622474D01*
X137330509Y-55822935D01*
X137334755Y-55827481D01*
X137552354Y-56004511D01*
X137552356Y-56004512D01*
X137552357Y-56004513D01*
X137792033Y-56150263D01*
X137989653Y-56236101D01*
X138049325Y-56262020D01*
X138319439Y-56337703D01*
X138563759Y-56371284D01*
X138597341Y-56375900D01*
X138597342Y-56375900D01*
X138877859Y-56375900D01*
X138907819Y-56371781D01*
X139155761Y-56337703D01*
X139425875Y-56262020D01*
X139429519Y-56260436D01*
X139498849Y-56251779D01*
X139561855Y-56281978D01*
X139566609Y-56286487D01*
X140082381Y-56802258D01*
X140115866Y-56863581D01*
X140118700Y-56889939D01*
X140118700Y-67999059D01*
X140099015Y-68066098D01*
X140082381Y-68086740D01*
X118550937Y-89618183D01*
X118489614Y-89651668D01*
X118419925Y-89646685D01*
X118406785Y-89641784D01*
X118390939Y-89635874D01*
X118390937Y-89635873D01*
X118390933Y-89635872D01*
X118128801Y-89578849D01*
X118128794Y-89578848D01*
X117861201Y-89559709D01*
X117861199Y-89559709D01*
X117593605Y-89578848D01*
X117593598Y-89578849D01*
X117331465Y-89635872D01*
X117080097Y-89729627D01*
X117080093Y-89729629D01*
X116844643Y-89858195D01*
X116844635Y-89858200D01*
X116629878Y-90018964D01*
X116629860Y-90018980D01*
X116440180Y-90208660D01*
X116440164Y-90208678D01*
X116279400Y-90423435D01*
X116279395Y-90423443D01*
X116150829Y-90658893D01*
X116150827Y-90658897D01*
X116057072Y-90910265D01*
X116000049Y-91172398D01*
X116000048Y-91172405D01*
X115980909Y-91439998D01*
X114341491Y-91439998D01*
X114322352Y-91172407D01*
X114265326Y-90910261D01*
X114254514Y-90881275D01*
X114249530Y-90811585D01*
X114283011Y-90750265D01*
X123151389Y-81881889D01*
X123238994Y-81750779D01*
X123299337Y-81605097D01*
X123330100Y-81450442D01*
X123330100Y-81292757D01*
X123330100Y-67517199D01*
X124146327Y-67517199D01*
X124146328Y-67517200D01*
X125109514Y-67517200D01*
X125105120Y-67521594D01*
X125052459Y-67612806D01*
X125025200Y-67714539D01*
X125025200Y-67819861D01*
X125052459Y-67921594D01*
X125105120Y-68012806D01*
X125109514Y-68017200D01*
X124146328Y-68017200D01*
X124198930Y-68213517D01*
X124198934Y-68213526D01*
X124295065Y-68419682D01*
X124425542Y-68606020D01*
X124586379Y-68766857D01*
X124772717Y-68897334D01*
X124978873Y-68993465D01*
X124978882Y-68993469D01*
X125175199Y-69046072D01*
X125175200Y-69046071D01*
X125175200Y-68082886D01*
X125179594Y-68087280D01*
X125270806Y-68139941D01*
X125372539Y-68167200D01*
X125477861Y-68167200D01*
X125579594Y-68139941D01*
X125670806Y-68087280D01*
X125675200Y-68082886D01*
X125675200Y-69046072D01*
X125871517Y-68993469D01*
X125871526Y-68993465D01*
X126077682Y-68897334D01*
X126264020Y-68766857D01*
X126424857Y-68606020D01*
X126555334Y-68419682D01*
X126651465Y-68213526D01*
X126651469Y-68213517D01*
X126704072Y-68017200D01*
X125740886Y-68017200D01*
X125745280Y-68012806D01*
X125797941Y-67921594D01*
X125825200Y-67819861D01*
X125825200Y-67767198D01*
X129860132Y-67767198D01*
X129860132Y-67767201D01*
X129879964Y-67993886D01*
X129879966Y-67993897D01*
X129938858Y-68213688D01*
X129938861Y-68213697D01*
X130035031Y-68419932D01*
X130035032Y-68419934D01*
X130165554Y-68606341D01*
X130326459Y-68767246D01*
X130363021Y-68792846D01*
X130406647Y-68847421D01*
X130415900Y-68894422D01*
X130415900Y-69572751D01*
X130396215Y-69639790D01*
X130379581Y-69660432D01*
X130216354Y-69823658D01*
X130085832Y-70010065D01*
X130085831Y-70010067D01*
X129989661Y-70216302D01*
X129989658Y-70216311D01*
X129930766Y-70436102D01*
X129930764Y-70436113D01*
X129910932Y-70662798D01*
X129910932Y-70662801D01*
X129930764Y-70889486D01*
X129930766Y-70889497D01*
X129989658Y-71109288D01*
X129989661Y-71109297D01*
X130085831Y-71315532D01*
X130085832Y-71315534D01*
X130216354Y-71501941D01*
X130377258Y-71662845D01*
X130377261Y-71662847D01*
X130563666Y-71793368D01*
X130769904Y-71889539D01*
X130989708Y-71948435D01*
X131151630Y-71962601D01*
X131216398Y-71968268D01*
X131216400Y-71968268D01*
X131216402Y-71968268D01*
X131273073Y-71963309D01*
X131443092Y-71948435D01*
X131662896Y-71889539D01*
X131869134Y-71793368D01*
X132055539Y-71662847D01*
X132216447Y-71501939D01*
X132346968Y-71315534D01*
X132443139Y-71109296D01*
X132502035Y-70889492D01*
X132521868Y-70662800D01*
X132502035Y-70436108D01*
X132443139Y-70216304D01*
X132346968Y-70010066D01*
X132216447Y-69823661D01*
X132216445Y-69823658D01*
X132053219Y-69660432D01*
X132019734Y-69599109D01*
X132016900Y-69572751D01*
X132016900Y-68806448D01*
X132036585Y-68739409D01*
X132053214Y-68718771D01*
X132165647Y-68606339D01*
X132296168Y-68419934D01*
X132392339Y-68213696D01*
X132451235Y-67993892D01*
X132471068Y-67767200D01*
X132462157Y-67665358D01*
X132475923Y-67596862D01*
X132498001Y-67566875D01*
X133819389Y-66245489D01*
X133906994Y-66114379D01*
X133967337Y-65968697D01*
X133998100Y-65814042D01*
X133998100Y-65656358D01*
X133998100Y-64311699D01*
X134017785Y-64244660D01*
X134070589Y-64198905D01*
X134122100Y-64187699D01*
X134197971Y-64187699D01*
X134197972Y-64187699D01*
X134257583Y-64181291D01*
X134392431Y-64130996D01*
X134507646Y-64044746D01*
X134593896Y-63929531D01*
X134604290Y-63901660D01*
X134646160Y-63845727D01*
X134711623Y-63821308D01*
X134779897Y-63836158D01*
X134793346Y-63844665D01*
X134976062Y-63977417D01*
X135178927Y-64080782D01*
X135179844Y-64081249D01*
X135397351Y-64151921D01*
X135397352Y-64151921D01*
X135397355Y-64151922D01*
X135623246Y-64187700D01*
X135623247Y-64187700D01*
X135851953Y-64187700D01*
X135851954Y-64187700D01*
X136077845Y-64151922D01*
X136077848Y-64151921D01*
X136077849Y-64151921D01*
X136295355Y-64081249D01*
X136295355Y-64081248D01*
X136295358Y-64081248D01*
X136499138Y-63977417D01*
X136684166Y-63842986D01*
X136845886Y-63681266D01*
X136907592Y-63596334D01*
X136962919Y-63553670D01*
X137032532Y-63547691D01*
X137094327Y-63580296D01*
X137108226Y-63596335D01*
X137169697Y-63680941D01*
X137169697Y-63680942D01*
X137331357Y-63842602D01*
X137516323Y-63976988D01*
X137720029Y-64080782D01*
X137937471Y-64151434D01*
X138027600Y-64165709D01*
X138027600Y-63177947D01*
X138065308Y-63199718D01*
X138205191Y-63237200D01*
X138350009Y-63237200D01*
X138489892Y-63199718D01*
X138527600Y-63177947D01*
X138527600Y-64165708D01*
X138617728Y-64151434D01*
X138835170Y-64080782D01*
X139038876Y-63976988D01*
X139223842Y-63842602D01*
X139385502Y-63680942D01*
X139519888Y-63495976D01*
X139623682Y-63292270D01*
X139694334Y-63074828D01*
X139716132Y-62937200D01*
X138768348Y-62937200D01*
X138790118Y-62899492D01*
X138827600Y-62759609D01*
X138827600Y-62614791D01*
X138790118Y-62474908D01*
X138768348Y-62437200D01*
X139716132Y-62437200D01*
X139694334Y-62299571D01*
X139623682Y-62082129D01*
X139519888Y-61878423D01*
X139385502Y-61693457D01*
X139223842Y-61531797D01*
X139038876Y-61397411D01*
X138835168Y-61293617D01*
X138617724Y-61222965D01*
X138527600Y-61208690D01*
X138527600Y-62196452D01*
X138489892Y-62174682D01*
X138350009Y-62137200D01*
X138205191Y-62137200D01*
X138065308Y-62174682D01*
X138027600Y-62196452D01*
X138027600Y-61208690D01*
X138027599Y-61208690D01*
X137937475Y-61222965D01*
X137720031Y-61293617D01*
X137516323Y-61397411D01*
X137331357Y-61531797D01*
X137169697Y-61693457D01*
X137108227Y-61778064D01*
X137052897Y-61820729D01*
X136983284Y-61826708D01*
X136921489Y-61794102D01*
X136907591Y-61778064D01*
X136845886Y-61693134D01*
X136684166Y-61531414D01*
X136589213Y-61462426D01*
X136546549Y-61407096D01*
X136538100Y-61362109D01*
X136538100Y-57246557D01*
X136532100Y-57216391D01*
X136532100Y-57216390D01*
X136512869Y-57119710D01*
X136507338Y-57091903D01*
X136446994Y-56946221D01*
X136446992Y-56946218D01*
X136446990Y-56946214D01*
X136359389Y-56815111D01*
X136359386Y-56815107D01*
X134824419Y-55280140D01*
X134790934Y-55218817D01*
X134788100Y-55192459D01*
X134788100Y-52975395D01*
X134788099Y-52975382D01*
X134777719Y-52873782D01*
X134777599Y-52872602D01*
X134722414Y-52706065D01*
X134630312Y-52556744D01*
X134506256Y-52432688D01*
X134356935Y-52340586D01*
X134190398Y-52285401D01*
X134190396Y-52285400D01*
X134087617Y-52274900D01*
X134087610Y-52274900D01*
X131387590Y-52274900D01*
X131387582Y-52274900D01*
X131284803Y-52285400D01*
X131284802Y-52285401D01*
X131202269Y-52312749D01*
X131118267Y-52340585D01*
X131118262Y-52340587D01*
X130968942Y-52432689D01*
X130844889Y-52556742D01*
X130752787Y-52706062D01*
X130752785Y-52706067D01*
X130737961Y-52750803D01*
X130697601Y-52872602D01*
X130697601Y-52872603D01*
X130697600Y-52872603D01*
X130687100Y-52975382D01*
X130687100Y-55675417D01*
X130697600Y-55778196D01*
X130745553Y-55922907D01*
X130752786Y-55944735D01*
X130844888Y-56094056D01*
X130968944Y-56218112D01*
X131118265Y-56310214D01*
X131284802Y-56365399D01*
X131387590Y-56375900D01*
X133604660Y-56375900D01*
X133671699Y-56395585D01*
X133692341Y-56412219D01*
X134900781Y-57620659D01*
X134934266Y-57681982D01*
X134937100Y-57708340D01*
X134937100Y-61362109D01*
X134917415Y-61429148D01*
X134885986Y-61462426D01*
X134801875Y-61523538D01*
X134793359Y-61529725D01*
X134727552Y-61553205D01*
X134659499Y-61537380D01*
X134610804Y-61487274D01*
X134604290Y-61472738D01*
X134600444Y-61462427D01*
X134593896Y-61444869D01*
X134593893Y-61444864D01*
X134507647Y-61329655D01*
X134507644Y-61329652D01*
X134392435Y-61243406D01*
X134392428Y-61243402D01*
X134257582Y-61193108D01*
X134257583Y-61193108D01*
X134197983Y-61186701D01*
X134197981Y-61186700D01*
X134197973Y-61186700D01*
X134197964Y-61186700D01*
X132197229Y-61186700D01*
X132197223Y-61186701D01*
X132137616Y-61193108D01*
X132002771Y-61243402D01*
X132002764Y-61243406D01*
X131887555Y-61329652D01*
X131887552Y-61329655D01*
X131801306Y-61444864D01*
X131801302Y-61444871D01*
X131751008Y-61579717D01*
X131744601Y-61639316D01*
X131744600Y-61639335D01*
X131744600Y-63735070D01*
X131744601Y-63735076D01*
X131751008Y-63794683D01*
X131801302Y-63929528D01*
X131801306Y-63929535D01*
X131887552Y-64044744D01*
X131887555Y-64044747D01*
X132002764Y-64130993D01*
X132002771Y-64130997D01*
X132005592Y-64132049D01*
X132137617Y-64181291D01*
X132197227Y-64187700D01*
X132273100Y-64187699D01*
X132340138Y-64207383D01*
X132385894Y-64260186D01*
X132397100Y-64311699D01*
X132397100Y-65352259D01*
X132377415Y-65419298D01*
X132360781Y-65439940D01*
X131365926Y-66434794D01*
X131304603Y-66468279D01*
X131267438Y-66470641D01*
X131165602Y-66461732D01*
X131165598Y-66461732D01*
X130938913Y-66481564D01*
X130938902Y-66481566D01*
X130719111Y-66540458D01*
X130719102Y-66540461D01*
X130512867Y-66636631D01*
X130512865Y-66636632D01*
X130326458Y-66767154D01*
X130165554Y-66928058D01*
X130035032Y-67114465D01*
X130035031Y-67114467D01*
X129938861Y-67320702D01*
X129938858Y-67320711D01*
X129879966Y-67540502D01*
X129879964Y-67540513D01*
X129860132Y-67767198D01*
X125825200Y-67767198D01*
X125825200Y-67714539D01*
X125797941Y-67612806D01*
X125745280Y-67521594D01*
X125740886Y-67517200D01*
X126704072Y-67517200D01*
X126704072Y-67517199D01*
X126651469Y-67320882D01*
X126651465Y-67320873D01*
X126555334Y-67114717D01*
X126424857Y-66928379D01*
X126264020Y-66767542D01*
X126077682Y-66637065D01*
X125871528Y-66540934D01*
X125675200Y-66488327D01*
X125675200Y-67451514D01*
X125670806Y-67447120D01*
X125579594Y-67394459D01*
X125477861Y-67367200D01*
X125372539Y-67367200D01*
X125270806Y-67394459D01*
X125179594Y-67447120D01*
X125175200Y-67451514D01*
X125175200Y-66488327D01*
X124978871Y-66540934D01*
X124772717Y-66637065D01*
X124586379Y-66767542D01*
X124425542Y-66928379D01*
X124295065Y-67114717D01*
X124198934Y-67320873D01*
X124198930Y-67320882D01*
X124146327Y-67517199D01*
X123330100Y-67517199D01*
X123330100Y-56272958D01*
X123319191Y-56218112D01*
X123299337Y-56118302D01*
X123270491Y-56048662D01*
X123270491Y-56048661D01*
X123238997Y-55972627D01*
X123238990Y-55972614D01*
X123151390Y-55841512D01*
X123132810Y-55822932D01*
X123039889Y-55730011D01*
X122460974Y-55151096D01*
X122427489Y-55089773D01*
X122431814Y-55021892D01*
X122482275Y-54879911D01*
X122482276Y-54879903D01*
X122482278Y-54879899D01*
X122537810Y-54612662D01*
X122539348Y-54605262D01*
X122558491Y-54325400D01*
X122539348Y-54045538D01*
X122514037Y-53923735D01*
X122482278Y-53770900D01*
X122482273Y-53770883D01*
X122388336Y-53506571D01*
X122388336Y-53506570D01*
X122259281Y-53257504D01*
X122097512Y-53028331D01*
X122097507Y-53028325D01*
X121906045Y-52823319D01*
X121761923Y-52706067D01*
X121688446Y-52646289D01*
X121688444Y-52646288D01*
X121688442Y-52646286D01*
X121448766Y-52500536D01*
X121191476Y-52388780D01*
X120921366Y-52313098D01*
X120921362Y-52313097D01*
X120921361Y-52313097D01*
X120762144Y-52291213D01*
X120643459Y-52274900D01*
X120643458Y-52274900D01*
X120362942Y-52274900D01*
X120362941Y-52274900D01*
X120085039Y-52313097D01*
X120085033Y-52313098D01*
X119814923Y-52388780D01*
X119557633Y-52500536D01*
X119317957Y-52646286D01*
X119100354Y-52823319D01*
X118908892Y-53028325D01*
X118908892Y-53028326D01*
X118747119Y-53257503D01*
X118618063Y-53506571D01*
X118524126Y-53770883D01*
X118524121Y-53770900D01*
X118467052Y-54045535D01*
X118467051Y-54045537D01*
X118447909Y-54325400D01*
X118467051Y-54605262D01*
X118467052Y-54605264D01*
X118524121Y-54879899D01*
X118524126Y-54879916D01*
X118608464Y-55117218D01*
X118618064Y-55144230D01*
X118747119Y-55393296D01*
X118908888Y-55622469D01*
X118908892Y-55622473D01*
X118908892Y-55622474D01*
X119096109Y-55822935D01*
X119100355Y-55827481D01*
X119317954Y-56004511D01*
X119317956Y-56004512D01*
X119317957Y-56004513D01*
X119557633Y-56150263D01*
X119755253Y-56236101D01*
X119814925Y-56262020D01*
X120085039Y-56337703D01*
X120329359Y-56371284D01*
X120362941Y-56375900D01*
X120362942Y-56375900D01*
X120643459Y-56375900D01*
X120673419Y-56371781D01*
X120921361Y-56337703D01*
X121191475Y-56262020D01*
X121195119Y-56260436D01*
X121264449Y-56251779D01*
X121327455Y-56281978D01*
X121332209Y-56286487D01*
X121692781Y-56647059D01*
X121726266Y-56708382D01*
X121729100Y-56734740D01*
X121729100Y-80988659D01*
X121709415Y-81055698D01*
X121692781Y-81076340D01*
X113150937Y-89618183D01*
X113089614Y-89651668D01*
X113019925Y-89646685D01*
X113006785Y-89641784D01*
X112990939Y-89635874D01*
X112990937Y-89635873D01*
X112990933Y-89635872D01*
X112728801Y-89578849D01*
X112728794Y-89578848D01*
X112461201Y-89559709D01*
X112461199Y-89559709D01*
X112193605Y-89578848D01*
X112193598Y-89578849D01*
X111931465Y-89635872D01*
X111680097Y-89729627D01*
X111680093Y-89729629D01*
X111444643Y-89858195D01*
X111444635Y-89858200D01*
X111229878Y-90018964D01*
X111229860Y-90018980D01*
X111040180Y-90208660D01*
X111040164Y-90208678D01*
X110879400Y-90423435D01*
X110879395Y-90423443D01*
X110750829Y-90658893D01*
X110750827Y-90658897D01*
X110657072Y-90910265D01*
X110600049Y-91172398D01*
X110600048Y-91172405D01*
X110580909Y-91439998D01*
X100929397Y-91439998D01*
X100936562Y-83261198D01*
X111419732Y-83261198D01*
X111419732Y-83261201D01*
X111439564Y-83487886D01*
X111439566Y-83487897D01*
X111498458Y-83707688D01*
X111498461Y-83707697D01*
X111594631Y-83913932D01*
X111594632Y-83913934D01*
X111725154Y-84100341D01*
X111886058Y-84261245D01*
X111886061Y-84261247D01*
X112072466Y-84391768D01*
X112278704Y-84487939D01*
X112278709Y-84487940D01*
X112278711Y-84487941D01*
X112298965Y-84493368D01*
X112498508Y-84546835D01*
X112660430Y-84561001D01*
X112725198Y-84566668D01*
X112725200Y-84566668D01*
X112725202Y-84566668D01*
X112781873Y-84561709D01*
X112951892Y-84546835D01*
X113171696Y-84487939D01*
X113377934Y-84391768D01*
X113564339Y-84261247D01*
X113725247Y-84100339D01*
X113855768Y-83913934D01*
X113951939Y-83707696D01*
X114010835Y-83487892D01*
X114030668Y-83261200D01*
X114010835Y-83034508D01*
X113951939Y-82814704D01*
X113855768Y-82608466D01*
X113725247Y-82422061D01*
X113725245Y-82422058D01*
X113564341Y-82261154D01*
X113377934Y-82130632D01*
X113377932Y-82130631D01*
X113171697Y-82034461D01*
X113171688Y-82034458D01*
X112951897Y-81975566D01*
X112951893Y-81975565D01*
X112951892Y-81975565D01*
X112951891Y-81975564D01*
X112951886Y-81975564D01*
X112725202Y-81955732D01*
X112725198Y-81955732D01*
X112498513Y-81975564D01*
X112498502Y-81975566D01*
X112278711Y-82034458D01*
X112278702Y-82034461D01*
X112072467Y-82130631D01*
X112072465Y-82130632D01*
X111886058Y-82261154D01*
X111725154Y-82422058D01*
X111594632Y-82608465D01*
X111594631Y-82608467D01*
X111498461Y-82814702D01*
X111498458Y-82814711D01*
X111439566Y-83034502D01*
X111439564Y-83034513D01*
X111419732Y-83261198D01*
X100936562Y-83261198D01*
X100950136Y-67767198D01*
X111419732Y-67767198D01*
X111419732Y-67767201D01*
X111439564Y-67993886D01*
X111439566Y-67993897D01*
X111498458Y-68213688D01*
X111498461Y-68213697D01*
X111594631Y-68419932D01*
X111594632Y-68419934D01*
X111725154Y-68606341D01*
X111888381Y-68769568D01*
X111921866Y-68830891D01*
X111924700Y-68857249D01*
X111924700Y-69471151D01*
X111905015Y-69538190D01*
X111888381Y-69558832D01*
X111725154Y-69722058D01*
X111594632Y-69908465D01*
X111594631Y-69908467D01*
X111498461Y-70114702D01*
X111498458Y-70114711D01*
X111439566Y-70334502D01*
X111439564Y-70334513D01*
X111419732Y-70561198D01*
X111419732Y-70561201D01*
X111439564Y-70787886D01*
X111439566Y-70787897D01*
X111498458Y-71007688D01*
X111498461Y-71007697D01*
X111594631Y-71213932D01*
X111594632Y-71213934D01*
X111725154Y-71400341D01*
X111886058Y-71561245D01*
X111886061Y-71561247D01*
X112072466Y-71691768D01*
X112278704Y-71787939D01*
X112278709Y-71787940D01*
X112278711Y-71787941D01*
X112298965Y-71793368D01*
X112498508Y-71846835D01*
X112660430Y-71861001D01*
X112725198Y-71866668D01*
X112725200Y-71866668D01*
X112725202Y-71866668D01*
X112781873Y-71861709D01*
X112951892Y-71846835D01*
X113171696Y-71787939D01*
X113377934Y-71691768D01*
X113564339Y-71561247D01*
X113725247Y-71400339D01*
X113855768Y-71213934D01*
X113951939Y-71007696D01*
X114010835Y-70787892D01*
X114030668Y-70561200D01*
X114010835Y-70334508D01*
X113951939Y-70114704D01*
X113855768Y-69908466D01*
X113725247Y-69722061D01*
X113725245Y-69722058D01*
X113562019Y-69558832D01*
X113528534Y-69497509D01*
X113525700Y-69471151D01*
X113525700Y-68857249D01*
X113545385Y-68790210D01*
X113562019Y-68769568D01*
X113725245Y-68606341D01*
X113725247Y-68606339D01*
X113855768Y-68419934D01*
X113951939Y-68213696D01*
X114010835Y-67993892D01*
X114030668Y-67767200D01*
X114021757Y-67665358D01*
X114035523Y-67596862D01*
X114057601Y-67566875D01*
X115480589Y-66143889D01*
X115568194Y-66012779D01*
X115628537Y-65867097D01*
X115659300Y-65712442D01*
X115659300Y-65554758D01*
X115659300Y-64331899D01*
X115678985Y-64264860D01*
X115731789Y-64219105D01*
X115783300Y-64207899D01*
X115859171Y-64207899D01*
X115859172Y-64207899D01*
X115918783Y-64201491D01*
X116053631Y-64151196D01*
X116168846Y-64064946D01*
X116255096Y-63949731D01*
X116265490Y-63921860D01*
X116307360Y-63865927D01*
X116372823Y-63841508D01*
X116441097Y-63856358D01*
X116454546Y-63864865D01*
X116637262Y-63997617D01*
X116729758Y-64044746D01*
X116841044Y-64101449D01*
X117058551Y-64172121D01*
X117058552Y-64172121D01*
X117058555Y-64172122D01*
X117284446Y-64207900D01*
X117284447Y-64207900D01*
X117513153Y-64207900D01*
X117513154Y-64207900D01*
X117739045Y-64172122D01*
X117739048Y-64172121D01*
X117739049Y-64172121D01*
X117956555Y-64101449D01*
X117956555Y-64101448D01*
X117956558Y-64101448D01*
X118160338Y-63997617D01*
X118345366Y-63863186D01*
X118507086Y-63701466D01*
X118568792Y-63616534D01*
X118624119Y-63573870D01*
X118693732Y-63567891D01*
X118755527Y-63600496D01*
X118769426Y-63616535D01*
X118830897Y-63701141D01*
X118830897Y-63701142D01*
X118992557Y-63862802D01*
X119177523Y-63997188D01*
X119381229Y-64100982D01*
X119598671Y-64171634D01*
X119688800Y-64185909D01*
X119688800Y-63198147D01*
X119726508Y-63219918D01*
X119866391Y-63257400D01*
X120011209Y-63257400D01*
X120151092Y-63219918D01*
X120188800Y-63198147D01*
X120188800Y-64185908D01*
X120278928Y-64171634D01*
X120496370Y-64100982D01*
X120700076Y-63997188D01*
X120885042Y-63862802D01*
X121046702Y-63701142D01*
X121181088Y-63516176D01*
X121284882Y-63312470D01*
X121355534Y-63095028D01*
X121377332Y-62957400D01*
X120429548Y-62957400D01*
X120451318Y-62919692D01*
X120488800Y-62779809D01*
X120488800Y-62634991D01*
X120451318Y-62495108D01*
X120429548Y-62457400D01*
X121377332Y-62457400D01*
X121355534Y-62319771D01*
X121284882Y-62102329D01*
X121181088Y-61898623D01*
X121046702Y-61713657D01*
X120885042Y-61551997D01*
X120700076Y-61417611D01*
X120496368Y-61313817D01*
X120278924Y-61243165D01*
X120188800Y-61228890D01*
X120188800Y-62216652D01*
X120151092Y-62194882D01*
X120011209Y-62157400D01*
X119866391Y-62157400D01*
X119726508Y-62194882D01*
X119688800Y-62216652D01*
X119688800Y-61228890D01*
X119688799Y-61228890D01*
X119598675Y-61243165D01*
X119381231Y-61313817D01*
X119177523Y-61417611D01*
X118992557Y-61551997D01*
X118830897Y-61713657D01*
X118769427Y-61798264D01*
X118714097Y-61840929D01*
X118644484Y-61846908D01*
X118582689Y-61814302D01*
X118568791Y-61798264D01*
X118507086Y-61713334D01*
X118345366Y-61551614D01*
X118250413Y-61482626D01*
X118207749Y-61427296D01*
X118199300Y-61382309D01*
X118199300Y-57142155D01*
X118199299Y-57142153D01*
X118189305Y-57091910D01*
X118168537Y-56987503D01*
X118151435Y-56946214D01*
X118108197Y-56841827D01*
X118108190Y-56841814D01*
X118020590Y-56710712D01*
X117993256Y-56683378D01*
X117909089Y-56599211D01*
X116590018Y-55280140D01*
X116556534Y-55218818D01*
X116553700Y-55192460D01*
X116553700Y-52975395D01*
X116553699Y-52975382D01*
X116543319Y-52873782D01*
X116543199Y-52872602D01*
X116488014Y-52706065D01*
X116395912Y-52556744D01*
X116271856Y-52432688D01*
X116122535Y-52340586D01*
X115955998Y-52285401D01*
X115955996Y-52285400D01*
X115853217Y-52274900D01*
X115853210Y-52274900D01*
X113153190Y-52274900D01*
X113153182Y-52274900D01*
X113050403Y-52285400D01*
X113050402Y-52285401D01*
X112967869Y-52312749D01*
X112883867Y-52340585D01*
X112883862Y-52340587D01*
X112734542Y-52432689D01*
X112610489Y-52556742D01*
X112518387Y-52706062D01*
X112518385Y-52706067D01*
X112503561Y-52750803D01*
X112463201Y-52872602D01*
X112463201Y-52872603D01*
X112463200Y-52872603D01*
X112452700Y-52975382D01*
X112452700Y-55675417D01*
X112463200Y-55778196D01*
X112511153Y-55922907D01*
X112518386Y-55944735D01*
X112610488Y-56094056D01*
X112734544Y-56218112D01*
X112883865Y-56310214D01*
X113050402Y-56365399D01*
X113153190Y-56375900D01*
X115370260Y-56375900D01*
X115437299Y-56395585D01*
X115457941Y-56412219D01*
X116561981Y-57516259D01*
X116595466Y-57577582D01*
X116598300Y-57603940D01*
X116598300Y-61382309D01*
X116578615Y-61449348D01*
X116547186Y-61482626D01*
X116471826Y-61537380D01*
X116454559Y-61549925D01*
X116388752Y-61573405D01*
X116320699Y-61557580D01*
X116272004Y-61507474D01*
X116265490Y-61492938D01*
X116261644Y-61482627D01*
X116255096Y-61465069D01*
X116255093Y-61465064D01*
X116168847Y-61349855D01*
X116168844Y-61349852D01*
X116053635Y-61263606D01*
X116053628Y-61263602D01*
X115918782Y-61213308D01*
X115918783Y-61213308D01*
X115859183Y-61206901D01*
X115859181Y-61206900D01*
X115859173Y-61206900D01*
X115859164Y-61206900D01*
X113858429Y-61206900D01*
X113858423Y-61206901D01*
X113798816Y-61213308D01*
X113663971Y-61263602D01*
X113663964Y-61263606D01*
X113548755Y-61349852D01*
X113548752Y-61349855D01*
X113462506Y-61465064D01*
X113462502Y-61465071D01*
X113412208Y-61599917D01*
X113405801Y-61659516D01*
X113405800Y-61659535D01*
X113405800Y-63755270D01*
X113405801Y-63755276D01*
X113412208Y-63814883D01*
X113462502Y-63949728D01*
X113462506Y-63949735D01*
X113548752Y-64064944D01*
X113548755Y-64064947D01*
X113663964Y-64151193D01*
X113663971Y-64151197D01*
X113702878Y-64165708D01*
X113798817Y-64201491D01*
X113858427Y-64207900D01*
X113934300Y-64207899D01*
X114001338Y-64227583D01*
X114047094Y-64280386D01*
X114058300Y-64331899D01*
X114058300Y-65250659D01*
X114038615Y-65317698D01*
X114021981Y-65338340D01*
X112925526Y-66434794D01*
X112864203Y-66468279D01*
X112827038Y-66470641D01*
X112725202Y-66461732D01*
X112725198Y-66461732D01*
X112498513Y-66481564D01*
X112498502Y-66481566D01*
X112278711Y-66540458D01*
X112278702Y-66540461D01*
X112072467Y-66636631D01*
X112072465Y-66636632D01*
X111886058Y-66767154D01*
X111725154Y-66928058D01*
X111594632Y-67114465D01*
X111594631Y-67114467D01*
X111498461Y-67320702D01*
X111498458Y-67320711D01*
X111439566Y-67540502D01*
X111439564Y-67540513D01*
X111419732Y-67767198D01*
X100950136Y-67767198D01*
X100959152Y-57475072D01*
X100978895Y-57408052D01*
X101031739Y-57362344D01*
X101100907Y-57352461D01*
X101164437Y-57381541D01*
X101179517Y-57397146D01*
X101246219Y-57479516D01*
X101520484Y-57753781D01*
X101520488Y-57753784D01*
X101821917Y-57997877D01*
X102147206Y-58209122D01*
X102147211Y-58209125D01*
X102492806Y-58385214D01*
X102854913Y-58524214D01*
X103229567Y-58624602D01*
X103612662Y-58685278D01*
X103978576Y-58704455D01*
X103999999Y-58705578D01*
X104000000Y-58705578D01*
X104000001Y-58705578D01*
X104020301Y-58704514D01*
X104387338Y-58685278D01*
X104770433Y-58624602D01*
X105145087Y-58524214D01*
X105507194Y-58385214D01*
X105852789Y-58209125D01*
X106178084Y-57997876D01*
X106479516Y-57753781D01*
X106753781Y-57479516D01*
X106997876Y-57178084D01*
X107209125Y-56852789D01*
X107385214Y-56507194D01*
X107524214Y-56145087D01*
X107624602Y-55770433D01*
X107685278Y-55387338D01*
X107705578Y-55000000D01*
X107685278Y-54612662D01*
X107624602Y-54229567D01*
X107524214Y-53854913D01*
X107385214Y-53492806D01*
X107209125Y-53147211D01*
X107209122Y-53147206D01*
X106997877Y-52821917D01*
X106855656Y-52646289D01*
X106753781Y-52520484D01*
X106479516Y-52246219D01*
X106178084Y-52002124D01*
X106178082Y-52002122D01*
X105852793Y-51790877D01*
X105507197Y-51614787D01*
X105145094Y-51475788D01*
X105145087Y-51475786D01*
X104770433Y-51375398D01*
X104770429Y-51375397D01*
X104770428Y-51375397D01*
X104387339Y-51314722D01*
X104000001Y-51294422D01*
X103999999Y-51294422D01*
X103612660Y-51314722D01*
X103229572Y-51375397D01*
X103229570Y-51375397D01*
X102854905Y-51475788D01*
X102492802Y-51614787D01*
X102147206Y-51790877D01*
X101821917Y-52002122D01*
X101520488Y-52246215D01*
X101520480Y-52246222D01*
X101246222Y-52520480D01*
X101246215Y-52520488D01*
X101183859Y-52597491D01*
X101126371Y-52637203D01*
X101056540Y-52639530D01*
X100996537Y-52603734D01*
X100965411Y-52541180D01*
X100963493Y-52519354D01*
X100964891Y-50923889D01*
X100984634Y-50856869D01*
X101037478Y-50811161D01*
X101088891Y-50800000D01*
X171511960Y-50800000D01*
X171578999Y-50819685D01*
G37*
G04 #@! TD.AperFunction*
M02*
