M48
INCH,TZ
T1C0.0295
T2C0.0315
T3C0.0394
T4C0.0433
T5C0.0472
T6C0.0689
T7C0.0827
T8C0.1260
%
G90
G05
T1
X61720Y-35980
X62220Y-35480
X62220Y-36480
T2
X44380Y-26680
X44380Y-27780
X44380Y-32780
X49380Y-26680
X51640Y-26680
X51660Y-27820
X51660Y-32820
X54640Y-36000
X56640Y-26680
X57640Y-26680
X57640Y-27820
X57640Y-32820
X59640Y-36000
X59640Y-38480
X62640Y-26680
X63620Y-26680
X63620Y-27820
X63620Y-32820
X64640Y-38480
X65740Y-29440
X68620Y-26680
X69620Y-26680
X70740Y-29440
X73060Y-33560
X73060Y-36560
X74060Y-33560
X74060Y-36560
X74620Y-26680
X75060Y-33560
X75060Y-36560
X76040Y-23460
X76040Y-28460
X76060Y-33560
X76060Y-36560
T3
X64320Y-41820
X65320Y-41820
X66320Y-41820
X67320Y-41820
X68320Y-41820
X69320Y-41820
X70320Y-41820
X71320Y-41820
X72320Y-41820
X72640Y-29776
X72640Y-31744
X73320Y-41820
X76060Y-29776
X76060Y-31744
T4
X45220Y-24688
X46220Y-24688
X47220Y-24688
X52440Y-24680
X53440Y-24680
X54440Y-24680
X58460Y-24700
X59460Y-24700
X60460Y-24700
X64440Y-24680
X65440Y-24680
X66440Y-24680
X70160Y-24700
X71160Y-24700
X72160Y-24700
T5
X67160Y-32360
X67160Y-37360
X69960Y-32360
X69960Y-37360
T6
X44276Y-36000
X46402Y-36000
X48528Y-36000
X50654Y-36000
X52780Y-36000
T7
X45080Y-21388
X47442Y-21388
X52259Y-21388
X54621Y-21388
X58220Y-21340
X60582Y-21340
X64378Y-21348
X66740Y-21348
X69960Y-21348
X72322Y-21348
T8
X40945Y-21654
X40945Y-40945
X76772Y-21654
X76772Y-40945
M30
