G04 #@! TF.GenerationSoftware,KiCad,Pcbnew,8.0.7-8.0.7-0~ubuntu24.04.1*
G04 #@! TF.CreationDate,2025-01-24T13:02:35+01:00*
G04 #@! TF.ProjectId,astrobox_power_smallbox,61737472-6f62-46f7-985f-706f7765725f,1*
G04 #@! TF.SameCoordinates,Original*
G04 #@! TF.FileFunction,Copper,L1,Top*
G04 #@! TF.FilePolarity,Positive*
%FSLAX46Y46*%
G04 Gerber Fmt 4.6, Leading zero omitted, Abs format (unit mm)*
G04 Created by KiCad (PCBNEW 8.0.7-8.0.7-0~ubuntu24.04.1) date 2025-01-24 13:02:35*
%MOMM*%
%LPD*%
G01*
G04 APERTURE LIST*
G04 Aperture macros list*
%AMRoundRect*
0 Rectangle with rounded corners*
0 $1 Rounding radius*
0 $2 $3 $4 $5 $6 $7 $8 $9 X,Y pos of 4 corners*
0 Add a 4 corners polygon primitive as box body*
4,1,4,$2,$3,$4,$5,$6,$7,$8,$9,$2,$3,0*
0 Add four circle primitives for the rounded corners*
1,1,$1+$1,$2,$3*
1,1,$1+$1,$4,$5*
1,1,$1+$1,$6,$7*
1,1,$1+$1,$8,$9*
0 Add four rect primitives between the rounded corners*
20,1,$1+$1,$2,$3,$4,$5,0*
20,1,$1+$1,$4,$5,$6,$7,0*
20,1,$1+$1,$6,$7,$8,$9,0*
20,1,$1+$1,$8,$9,$2,$3,0*%
G04 Aperture macros list end*
G04 #@! TA.AperFunction,ComponentPad*
%ADD10RoundRect,0.249999X-1.300001X-1.300001X1.300001X-1.300001X1.300001X1.300001X-1.300001X1.300001X0*%
G04 #@! TD*
G04 #@! TA.AperFunction,ComponentPad*
%ADD11C,3.100000*%
G04 #@! TD*
G04 #@! TA.AperFunction,ComponentPad*
%ADD12R,1.905000X2.000000*%
G04 #@! TD*
G04 #@! TA.AperFunction,ComponentPad*
%ADD13O,1.905000X2.000000*%
G04 #@! TD*
G04 #@! TA.AperFunction,ComponentPad*
%ADD14C,6.400000*%
G04 #@! TD*
G04 #@! TA.AperFunction,ComponentPad*
%ADD15C,1.600000*%
G04 #@! TD*
G04 #@! TA.AperFunction,ComponentPad*
%ADD16O,1.600000X1.600000*%
G04 #@! TD*
G04 #@! TA.AperFunction,ComponentPad*
%ADD17R,1.600000X1.600000*%
G04 #@! TD*
G04 #@! TA.AperFunction,ComponentPad*
%ADD18R,2.400000X2.400000*%
G04 #@! TD*
G04 #@! TA.AperFunction,ComponentPad*
%ADD19O,2.400000X2.400000*%
G04 #@! TD*
G04 #@! TA.AperFunction,ComponentPad*
%ADD20R,1.700000X1.700000*%
G04 #@! TD*
G04 #@! TA.AperFunction,ComponentPad*
%ADD21O,1.700000X1.700000*%
G04 #@! TD*
G04 #@! TA.AperFunction,ComponentPad*
%ADD22C,2.000000*%
G04 #@! TD*
G04 #@! TA.AperFunction,ComponentPad*
%ADD23RoundRect,0.250000X1.125000X1.125000X-1.125000X1.125000X-1.125000X-1.125000X1.125000X-1.125000X0*%
G04 #@! TD*
G04 #@! TA.AperFunction,ComponentPad*
%ADD24C,2.750000*%
G04 #@! TD*
G04 #@! TA.AperFunction,ComponentPad*
%ADD25R,1.800000X1.100000*%
G04 #@! TD*
G04 #@! TA.AperFunction,ComponentPad*
%ADD26RoundRect,0.275000X0.625000X-0.275000X0.625000X0.275000X-0.625000X0.275000X-0.625000X-0.275000X0*%
G04 #@! TD*
G04 #@! TA.AperFunction,Conductor*
%ADD27C,0.600000*%
G04 #@! TD*
G04 APERTURE END LIST*
D10*
X147878800Y-54203600D03*
D11*
X153878800Y-54203600D03*
D10*
X163519600Y-54223800D03*
D11*
X169519600Y-54223800D03*
D12*
X114858800Y-62707400D03*
D13*
X117398800Y-62707400D03*
X119938800Y-62707400D03*
D14*
X104000000Y-55000000D03*
D10*
X132737600Y-54325400D03*
D11*
X138737600Y-54325400D03*
D15*
X166979600Y-74777600D03*
D16*
X179679600Y-74777600D03*
D12*
X133197600Y-62687200D03*
D13*
X135737600Y-62687200D03*
X138277600Y-62687200D03*
D17*
X185572400Y-92862400D03*
D16*
X188112400Y-92862400D03*
X190652400Y-92862400D03*
X193192400Y-92862400D03*
X193192400Y-85242400D03*
X190652400Y-85242400D03*
X188112400Y-85242400D03*
X185572400Y-85242400D03*
D10*
X177698400Y-54223800D03*
D11*
X183698400Y-54223800D03*
D18*
X177698400Y-94894400D03*
D19*
X177698400Y-82194400D03*
D20*
X163372800Y-106222800D03*
D21*
X165912800Y-106222800D03*
X168452800Y-106222800D03*
X170992800Y-106222800D03*
X173532800Y-106222800D03*
X176072800Y-106222800D03*
X178612800Y-106222800D03*
X181152800Y-106222800D03*
X183692800Y-106222800D03*
X186232800Y-106222800D03*
D15*
X161594800Y-67767200D03*
D16*
X174294800Y-67767200D03*
D15*
X146405600Y-67767200D03*
D16*
X159105600Y-67767200D03*
D14*
X195000000Y-55000000D03*
D12*
X178206400Y-62738000D03*
D13*
X180746400Y-62738000D03*
X183286400Y-62738000D03*
D15*
X164185600Y-97739200D03*
D16*
X151485600Y-97739200D03*
D15*
X161594800Y-83362800D03*
D16*
X161594800Y-70662800D03*
D15*
X112725200Y-67767200D03*
D16*
X125425200Y-67767200D03*
D15*
X146405600Y-83362800D03*
D16*
X146405600Y-70662800D03*
D14*
X195000000Y-104000000D03*
D22*
X184505600Y-80630400D03*
X184505600Y-75630400D03*
D18*
X170586400Y-82194400D03*
D19*
X170586400Y-94894400D03*
D22*
X193192400Y-80630400D03*
X193192400Y-75630400D03*
D12*
X148488400Y-62738000D03*
D13*
X151028400Y-62738000D03*
X153568400Y-62738000D03*
D15*
X131216400Y-83362800D03*
D16*
X131216400Y-70662800D03*
D15*
X189534800Y-67767200D03*
D16*
X176834800Y-67767200D03*
D15*
X112725200Y-83261200D03*
D16*
X112725200Y-70561200D03*
D15*
X131165600Y-67767200D03*
D16*
X143865600Y-67767200D03*
D14*
X104000000Y-104000000D03*
D12*
X163677600Y-62687200D03*
D13*
X166217600Y-62687200D03*
X168757600Y-62687200D03*
D15*
X193141600Y-59588400D03*
D16*
X193141600Y-72288400D03*
D10*
X114503200Y-54325400D03*
D11*
X120503200Y-54325400D03*
D23*
X134061200Y-91440000D03*
D24*
X128661200Y-91440000D03*
X123261200Y-91440000D03*
X117861200Y-91440000D03*
X112461200Y-91440000D03*
D25*
X158438800Y-92659200D03*
D26*
X156368800Y-91389200D03*
X158438800Y-90119200D03*
D15*
X138785600Y-91440000D03*
D16*
X151485600Y-91440000D03*
D27*
X163626800Y-103936800D02*
X125933200Y-103936800D01*
X115163600Y-85699600D02*
X112725200Y-83261200D01*
X125933200Y-103936800D02*
X115163600Y-93167200D01*
X115163600Y-93167200D02*
X115163600Y-85699600D01*
X165912800Y-106222800D02*
X163626800Y-103936800D01*
X165963600Y-101193600D02*
X161036000Y-101193600D01*
X161036000Y-101193600D02*
X153416000Y-93573600D01*
X150520400Y-83362800D02*
X146405600Y-83362800D01*
X153416000Y-93573600D02*
X153416000Y-86258400D01*
X153416000Y-86258400D02*
X150520400Y-83362800D01*
X170992800Y-106222800D02*
X165963600Y-101193600D01*
X121310400Y-106222800D02*
X112461200Y-97373600D01*
X112461200Y-97373600D02*
X112461200Y-91440000D01*
X163372800Y-106222800D02*
X121310400Y-106222800D01*
X168452800Y-106222800D02*
X164896800Y-102666800D01*
X140106400Y-102666800D02*
X131216400Y-93776800D01*
X164896800Y-102666800D02*
X140106400Y-102666800D01*
X131216400Y-93776800D02*
X131216400Y-83362800D01*
X158242000Y-92862400D02*
X158038800Y-92659200D01*
X185572400Y-92862400D02*
X158242000Y-92862400D01*
X195376800Y-69951600D02*
X193192400Y-67767200D01*
X190652400Y-92862400D02*
X190652400Y-91643200D01*
X193192400Y-67767200D02*
X189534800Y-67767200D01*
X190652400Y-91643200D02*
X195376800Y-86918800D01*
X195376800Y-86918800D02*
X195376800Y-69951600D01*
G04 #@! TA.AperFunction,Conductor*
G36*
X199358276Y-50819685D02*
G01*
X199404031Y-50872489D01*
X199415236Y-50924161D01*
X199397813Y-64172121D01*
X199339362Y-108613626D01*
X199319589Y-108680640D01*
X199266725Y-108726325D01*
X199215426Y-108737463D01*
X101038372Y-108788135D01*
X100971322Y-108768485D01*
X100925540Y-108715705D01*
X100914308Y-108664029D01*
X100916272Y-106422114D01*
X100936014Y-106355099D01*
X100988858Y-106309391D01*
X101058026Y-106299508D01*
X101121556Y-106328588D01*
X101136637Y-106344194D01*
X101246219Y-106479516D01*
X101520484Y-106753781D01*
X101648427Y-106857387D01*
X101821917Y-106997877D01*
X102039796Y-107139369D01*
X102147211Y-107209125D01*
X102492806Y-107385214D01*
X102854913Y-107524214D01*
X103229567Y-107624602D01*
X103612662Y-107685278D01*
X103978576Y-107704455D01*
X103999999Y-107705578D01*
X104000000Y-107705578D01*
X104000001Y-107705578D01*
X104020301Y-107704514D01*
X104387338Y-107685278D01*
X104770433Y-107624602D01*
X105145087Y-107524214D01*
X105507194Y-107385214D01*
X105852789Y-107209125D01*
X106178084Y-106997876D01*
X106479516Y-106753781D01*
X106753781Y-106479516D01*
X106997876Y-106178084D01*
X107209125Y-105852789D01*
X107385214Y-105507194D01*
X107524214Y-105145087D01*
X107624602Y-104770433D01*
X107685278Y-104387338D01*
X107705578Y-104000000D01*
X107685278Y-103612662D01*
X107624602Y-103229567D01*
X107524214Y-102854913D01*
X107385214Y-102492806D01*
X107209125Y-102147211D01*
X107109694Y-101994100D01*
X106997877Y-101821917D01*
X106753784Y-101520488D01*
X106753781Y-101520484D01*
X106479516Y-101246219D01*
X106178084Y-101002124D01*
X106178082Y-101002122D01*
X105852793Y-100790877D01*
X105507197Y-100614787D01*
X105145094Y-100475788D01*
X105145087Y-100475786D01*
X104770433Y-100375398D01*
X104770429Y-100375397D01*
X104770428Y-100375397D01*
X104387339Y-100314722D01*
X104000001Y-100294422D01*
X103999999Y-100294422D01*
X103612660Y-100314722D01*
X103229572Y-100375397D01*
X103229570Y-100375397D01*
X102854905Y-100475788D01*
X102492802Y-100614787D01*
X102147206Y-100790877D01*
X101821917Y-101002122D01*
X101520488Y-101246215D01*
X101520480Y-101246222D01*
X101246222Y-101520480D01*
X101246215Y-101520488D01*
X101140887Y-101650558D01*
X101083400Y-101690269D01*
X101013569Y-101692597D01*
X100953565Y-101656802D01*
X100922439Y-101594248D01*
X100920521Y-101572413D01*
X100929397Y-91439998D01*
X110580909Y-91439998D01*
X110580909Y-91440001D01*
X110600048Y-91707594D01*
X110600049Y-91707601D01*
X110657072Y-91969734D01*
X110750827Y-92221102D01*
X110750829Y-92221106D01*
X110879395Y-92456556D01*
X110879400Y-92456564D01*
X111040164Y-92671321D01*
X111040180Y-92671339D01*
X111229860Y-92861019D01*
X111229878Y-92861035D01*
X111444635Y-93021799D01*
X111444648Y-93021807D01*
X111596126Y-93104520D01*
X111645532Y-93153925D01*
X111660700Y-93213352D01*
X111660700Y-97452446D01*
X111691461Y-97607089D01*
X111691464Y-97607101D01*
X111751802Y-97752772D01*
X111751809Y-97752785D01*
X111839410Y-97883888D01*
X111839413Y-97883892D01*
X120800107Y-106844586D01*
X120800111Y-106844589D01*
X120931214Y-106932190D01*
X120931218Y-106932192D01*
X120931221Y-106932194D01*
X121076903Y-106992538D01*
X121231553Y-107023299D01*
X121231557Y-107023300D01*
X121231558Y-107023300D01*
X161900449Y-107023300D01*
X161967488Y-107042985D01*
X162013243Y-107095789D01*
X162023739Y-107134048D01*
X162028708Y-107180283D01*
X162079002Y-107315128D01*
X162079006Y-107315135D01*
X162165252Y-107430344D01*
X162165255Y-107430347D01*
X162280464Y-107516593D01*
X162280471Y-107516597D01*
X162415317Y-107566891D01*
X162415316Y-107566891D01*
X162422244Y-107567635D01*
X162474927Y-107573300D01*
X164270672Y-107573299D01*
X164330283Y-107566891D01*
X164465131Y-107516596D01*
X164580346Y-107430346D01*
X164666596Y-107315131D01*
X164715610Y-107183716D01*
X164757481Y-107127784D01*
X164822945Y-107103366D01*
X164891218Y-107118217D01*
X164919473Y-107139369D01*
X165041399Y-107261295D01*
X165138184Y-107329065D01*
X165234965Y-107396832D01*
X165234967Y-107396833D01*
X165234970Y-107396835D01*
X165449137Y-107496703D01*
X165677392Y-107557863D01*
X165853834Y-107573300D01*
X165912799Y-107578459D01*
X165912800Y-107578459D01*
X165912801Y-107578459D01*
X165971766Y-107573300D01*
X166148208Y-107557863D01*
X166376463Y-107496703D01*
X166590630Y-107396835D01*
X166784201Y-107261295D01*
X166951295Y-107094201D01*
X167081225Y-106908642D01*
X167135802Y-106865017D01*
X167205300Y-106857823D01*
X167267655Y-106889346D01*
X167284375Y-106908642D01*
X167414081Y-107093882D01*
X167414305Y-107094201D01*
X167581399Y-107261295D01*
X167678184Y-107329065D01*
X167774965Y-107396832D01*
X167774967Y-107396833D01*
X167774970Y-107396835D01*
X167989137Y-107496703D01*
X168217392Y-107557863D01*
X168393834Y-107573300D01*
X168452799Y-107578459D01*
X168452800Y-107578459D01*
X168452801Y-107578459D01*
X168511766Y-107573300D01*
X168688208Y-107557863D01*
X168916463Y-107496703D01*
X169130630Y-107396835D01*
X169324201Y-107261295D01*
X169491295Y-107094201D01*
X169621225Y-106908642D01*
X169675802Y-106865017D01*
X169745300Y-106857823D01*
X169807655Y-106889346D01*
X169824375Y-106908642D01*
X169954081Y-107093882D01*
X169954305Y-107094201D01*
X170121399Y-107261295D01*
X170218184Y-107329065D01*
X170314965Y-107396832D01*
X170314967Y-107396833D01*
X170314970Y-107396835D01*
X170529137Y-107496703D01*
X170757392Y-107557863D01*
X170933834Y-107573300D01*
X170992799Y-107578459D01*
X170992800Y-107578459D01*
X170992801Y-107578459D01*
X171051766Y-107573300D01*
X171228208Y-107557863D01*
X171456463Y-107496703D01*
X171670630Y-107396835D01*
X171864201Y-107261295D01*
X172031295Y-107094201D01*
X172161225Y-106908642D01*
X172215802Y-106865017D01*
X172285300Y-106857823D01*
X172347655Y-106889346D01*
X172364375Y-106908642D01*
X172494081Y-107093882D01*
X172494305Y-107094201D01*
X172661399Y-107261295D01*
X172758184Y-107329065D01*
X172854965Y-107396832D01*
X172854967Y-107396833D01*
X172854970Y-107396835D01*
X173069137Y-107496703D01*
X173297392Y-107557863D01*
X173473834Y-107573300D01*
X173532799Y-107578459D01*
X173532800Y-107578459D01*
X173532801Y-107578459D01*
X173591766Y-107573300D01*
X173768208Y-107557863D01*
X173996463Y-107496703D01*
X174210630Y-107396835D01*
X174404201Y-107261295D01*
X174571295Y-107094201D01*
X174701225Y-106908642D01*
X174755802Y-106865017D01*
X174825300Y-106857823D01*
X174887655Y-106889346D01*
X174904375Y-106908642D01*
X175034081Y-107093882D01*
X175034305Y-107094201D01*
X175201399Y-107261295D01*
X175298184Y-107329065D01*
X175394965Y-107396832D01*
X175394967Y-107396833D01*
X175394970Y-107396835D01*
X175609137Y-107496703D01*
X175837392Y-107557863D01*
X176013834Y-107573300D01*
X176072799Y-107578459D01*
X176072800Y-107578459D01*
X176072801Y-107578459D01*
X176131766Y-107573300D01*
X176308208Y-107557863D01*
X176536463Y-107496703D01*
X176750630Y-107396835D01*
X176944201Y-107261295D01*
X177111295Y-107094201D01*
X177241225Y-106908642D01*
X177295802Y-106865017D01*
X177365300Y-106857823D01*
X177427655Y-106889346D01*
X177444375Y-106908642D01*
X177574081Y-107093882D01*
X177574305Y-107094201D01*
X177741399Y-107261295D01*
X177838184Y-107329065D01*
X177934965Y-107396832D01*
X177934967Y-107396833D01*
X177934970Y-107396835D01*
X178149137Y-107496703D01*
X178377392Y-107557863D01*
X178553834Y-107573300D01*
X178612799Y-107578459D01*
X178612800Y-107578459D01*
X178612801Y-107578459D01*
X178671766Y-107573300D01*
X178848208Y-107557863D01*
X179076463Y-107496703D01*
X179290630Y-107396835D01*
X179484201Y-107261295D01*
X179651295Y-107094201D01*
X179781225Y-106908642D01*
X179835802Y-106865017D01*
X179905300Y-106857823D01*
X179967655Y-106889346D01*
X179984375Y-106908642D01*
X180114081Y-107093882D01*
X180114305Y-107094201D01*
X180281399Y-107261295D01*
X180378184Y-107329065D01*
X180474965Y-107396832D01*
X180474967Y-107396833D01*
X180474970Y-107396835D01*
X180689137Y-107496703D01*
X180917392Y-107557863D01*
X181093834Y-107573300D01*
X181152799Y-107578459D01*
X181152800Y-107578459D01*
X181152801Y-107578459D01*
X181211766Y-107573300D01*
X181388208Y-107557863D01*
X181616463Y-107496703D01*
X181830630Y-107396835D01*
X182024201Y-107261295D01*
X182191295Y-107094201D01*
X182321225Y-106908642D01*
X182375802Y-106865017D01*
X182445300Y-106857823D01*
X182507655Y-106889346D01*
X182524375Y-106908642D01*
X182654081Y-107093882D01*
X182654305Y-107094201D01*
X182821399Y-107261295D01*
X182918184Y-107329065D01*
X183014965Y-107396832D01*
X183014967Y-107396833D01*
X183014970Y-107396835D01*
X183229137Y-107496703D01*
X183457392Y-107557863D01*
X183633834Y-107573300D01*
X183692799Y-107578459D01*
X183692800Y-107578459D01*
X183692801Y-107578459D01*
X183751766Y-107573300D01*
X183928208Y-107557863D01*
X184156463Y-107496703D01*
X184370630Y-107396835D01*
X184564201Y-107261295D01*
X184731295Y-107094201D01*
X184861530Y-106908205D01*
X184916107Y-106864581D01*
X184985605Y-106857387D01*
X185047960Y-106888910D01*
X185064679Y-106908205D01*
X185194690Y-107093878D01*
X185361717Y-107260905D01*
X185555221Y-107396400D01*
X185769307Y-107496229D01*
X185769316Y-107496233D01*
X185982800Y-107553434D01*
X185982800Y-106655812D01*
X186039807Y-106688725D01*
X186166974Y-106722800D01*
X186298626Y-106722800D01*
X186425793Y-106688725D01*
X186482800Y-106655812D01*
X186482800Y-107553433D01*
X186696283Y-107496233D01*
X186696292Y-107496229D01*
X186910378Y-107396400D01*
X187103882Y-107260905D01*
X187270905Y-107093882D01*
X187406400Y-106900378D01*
X187506229Y-106686292D01*
X187506232Y-106686286D01*
X187563436Y-106472800D01*
X186665812Y-106472800D01*
X186698725Y-106415793D01*
X186732800Y-106288626D01*
X186732800Y-106156974D01*
X186698725Y-106029807D01*
X186665812Y-105972800D01*
X187563436Y-105972800D01*
X187563435Y-105972799D01*
X187506232Y-105759313D01*
X187506229Y-105759307D01*
X187406400Y-105545222D01*
X187406399Y-105545220D01*
X187270913Y-105351726D01*
X187270908Y-105351720D01*
X187103882Y-105184694D01*
X186910378Y-105049199D01*
X186696292Y-104949370D01*
X186696286Y-104949367D01*
X186482800Y-104892164D01*
X186482800Y-105789788D01*
X186425793Y-105756875D01*
X186298626Y-105722800D01*
X186166974Y-105722800D01*
X186039807Y-105756875D01*
X185982800Y-105789788D01*
X185982800Y-104892164D01*
X185982799Y-104892164D01*
X185769313Y-104949367D01*
X185769307Y-104949370D01*
X185555222Y-105049199D01*
X185555220Y-105049200D01*
X185361726Y-105184686D01*
X185361720Y-105184691D01*
X185194691Y-105351720D01*
X185194690Y-105351722D01*
X185064680Y-105537395D01*
X185010103Y-105581019D01*
X184940604Y-105588212D01*
X184878250Y-105556690D01*
X184861530Y-105537394D01*
X184731294Y-105351397D01*
X184564202Y-105184306D01*
X184564195Y-105184301D01*
X184370634Y-105048767D01*
X184370630Y-105048765D01*
X184298770Y-105015256D01*
X184156463Y-104948897D01*
X184156459Y-104948896D01*
X184156455Y-104948894D01*
X183928213Y-104887738D01*
X183928203Y-104887736D01*
X183692801Y-104867141D01*
X183692799Y-104867141D01*
X183457396Y-104887736D01*
X183457386Y-104887738D01*
X183229144Y-104948894D01*
X183229135Y-104948898D01*
X183014971Y-105048764D01*
X183014969Y-105048765D01*
X182821397Y-105184305D01*
X182654305Y-105351397D01*
X182524375Y-105536958D01*
X182469798Y-105580583D01*
X182400300Y-105587777D01*
X182337945Y-105556254D01*
X182321225Y-105536958D01*
X182191294Y-105351397D01*
X182024202Y-105184306D01*
X182024195Y-105184301D01*
X181830634Y-105048767D01*
X181830630Y-105048765D01*
X181758770Y-105015256D01*
X181616463Y-104948897D01*
X181616459Y-104948896D01*
X181616455Y-104948894D01*
X181388213Y-104887738D01*
X181388203Y-104887736D01*
X181152801Y-104867141D01*
X181152799Y-104867141D01*
X180917396Y-104887736D01*
X180917386Y-104887738D01*
X180689144Y-104948894D01*
X180689135Y-104948898D01*
X180474971Y-105048764D01*
X180474969Y-105048765D01*
X180281397Y-105184305D01*
X180114305Y-105351397D01*
X179984375Y-105536958D01*
X179929798Y-105580583D01*
X179860300Y-105587777D01*
X179797945Y-105556254D01*
X179781225Y-105536958D01*
X179651294Y-105351397D01*
X179484202Y-105184306D01*
X179484195Y-105184301D01*
X179290634Y-105048767D01*
X179290630Y-105048765D01*
X179218770Y-105015256D01*
X179076463Y-104948897D01*
X179076459Y-104948896D01*
X179076455Y-104948894D01*
X178848213Y-104887738D01*
X178848203Y-104887736D01*
X178612801Y-104867141D01*
X178612799Y-104867141D01*
X178377396Y-104887736D01*
X178377386Y-104887738D01*
X178149144Y-104948894D01*
X178149135Y-104948898D01*
X177934971Y-105048764D01*
X177934969Y-105048765D01*
X177741397Y-105184305D01*
X177574305Y-105351397D01*
X177444375Y-105536958D01*
X177389798Y-105580583D01*
X177320300Y-105587777D01*
X177257945Y-105556254D01*
X177241225Y-105536958D01*
X177111294Y-105351397D01*
X176944202Y-105184306D01*
X176944195Y-105184301D01*
X176750634Y-105048767D01*
X176750630Y-105048765D01*
X176678770Y-105015256D01*
X176536463Y-104948897D01*
X176536459Y-104948896D01*
X176536455Y-104948894D01*
X176308213Y-104887738D01*
X176308203Y-104887736D01*
X176072801Y-104867141D01*
X176072799Y-104867141D01*
X175837396Y-104887736D01*
X175837386Y-104887738D01*
X175609144Y-104948894D01*
X175609135Y-104948898D01*
X175394971Y-105048764D01*
X175394969Y-105048765D01*
X175201397Y-105184305D01*
X175034305Y-105351397D01*
X174904375Y-105536958D01*
X174849798Y-105580583D01*
X174780300Y-105587777D01*
X174717945Y-105556254D01*
X174701225Y-105536958D01*
X174571294Y-105351397D01*
X174404202Y-105184306D01*
X174404195Y-105184301D01*
X174210634Y-105048767D01*
X174210630Y-105048765D01*
X174138770Y-105015256D01*
X173996463Y-104948897D01*
X173996459Y-104948896D01*
X173996455Y-104948894D01*
X173768213Y-104887738D01*
X173768203Y-104887736D01*
X173532801Y-104867141D01*
X173532799Y-104867141D01*
X173297396Y-104887736D01*
X173297386Y-104887738D01*
X173069144Y-104948894D01*
X173069135Y-104948898D01*
X172854971Y-105048764D01*
X172854969Y-105048765D01*
X172661397Y-105184305D01*
X172494305Y-105351397D01*
X172364375Y-105536958D01*
X172309798Y-105580583D01*
X172240300Y-105587777D01*
X172177945Y-105556254D01*
X172161225Y-105536958D01*
X172031294Y-105351397D01*
X171864202Y-105184306D01*
X171864195Y-105184301D01*
X171670634Y-105048767D01*
X171670630Y-105048765D01*
X171598770Y-105015256D01*
X171456463Y-104948897D01*
X171456459Y-104948896D01*
X171456455Y-104948894D01*
X171228213Y-104887738D01*
X171228203Y-104887736D01*
X170992801Y-104867141D01*
X170992798Y-104867141D01*
X170844807Y-104880088D01*
X170776307Y-104866321D01*
X170746319Y-104844241D01*
X169902077Y-103999999D01*
X191294422Y-103999999D01*
X191294422Y-104000000D01*
X191314722Y-104387339D01*
X191362478Y-104688859D01*
X191375398Y-104770433D01*
X191449976Y-105048764D01*
X191475788Y-105145094D01*
X191614787Y-105507197D01*
X191790877Y-105852793D01*
X192002122Y-106178082D01*
X192002124Y-106178084D01*
X192246219Y-106479516D01*
X192520484Y-106753781D01*
X192648427Y-106857387D01*
X192821917Y-106997877D01*
X193039796Y-107139369D01*
X193147211Y-107209125D01*
X193492806Y-107385214D01*
X193854913Y-107524214D01*
X194229567Y-107624602D01*
X194612662Y-107685278D01*
X194978576Y-107704455D01*
X194999999Y-107705578D01*
X195000000Y-107705578D01*
X195000001Y-107705578D01*
X195020301Y-107704514D01*
X195387338Y-107685278D01*
X195770433Y-107624602D01*
X196145087Y-107524214D01*
X196507194Y-107385214D01*
X196852789Y-107209125D01*
X197178084Y-106997876D01*
X197479516Y-106753781D01*
X197753781Y-106479516D01*
X197997876Y-106178084D01*
X198209125Y-105852789D01*
X198385214Y-105507194D01*
X198524214Y-105145087D01*
X198624602Y-104770433D01*
X198685278Y-104387338D01*
X198705578Y-104000000D01*
X198685278Y-103612662D01*
X198624602Y-103229567D01*
X198524214Y-102854913D01*
X198385214Y-102492806D01*
X198209125Y-102147211D01*
X198109694Y-101994100D01*
X197997877Y-101821917D01*
X197753784Y-101520488D01*
X197753781Y-101520484D01*
X197479516Y-101246219D01*
X197178084Y-101002124D01*
X197178082Y-101002122D01*
X196852793Y-100790877D01*
X196507197Y-100614787D01*
X196145094Y-100475788D01*
X196145087Y-100475786D01*
X195770433Y-100375398D01*
X195770429Y-100375397D01*
X195770428Y-100375397D01*
X195387339Y-100314722D01*
X195000001Y-100294422D01*
X194999999Y-100294422D01*
X194612660Y-100314722D01*
X194229572Y-100375397D01*
X194229570Y-100375397D01*
X193854905Y-100475788D01*
X193492802Y-100614787D01*
X193147206Y-100790877D01*
X192821917Y-101002122D01*
X192520488Y-101246215D01*
X192520480Y-101246222D01*
X192246222Y-101520480D01*
X192246215Y-101520488D01*
X192002122Y-101821917D01*
X191790877Y-102147206D01*
X191614787Y-102492802D01*
X191475788Y-102854905D01*
X191375397Y-103229570D01*
X191375397Y-103229572D01*
X191314722Y-103612660D01*
X191294422Y-103999999D01*
X169902077Y-103999999D01*
X166473892Y-100571813D01*
X166473888Y-100571810D01*
X166342785Y-100484209D01*
X166342772Y-100484202D01*
X166197101Y-100423864D01*
X166197089Y-100423861D01*
X166042445Y-100393100D01*
X166042442Y-100393100D01*
X161418940Y-100393100D01*
X161351901Y-100373415D01*
X161331259Y-100356781D01*
X158713676Y-97739198D01*
X162880132Y-97739198D01*
X162880132Y-97739201D01*
X162899964Y-97965886D01*
X162899966Y-97965897D01*
X162958858Y-98185688D01*
X162958861Y-98185697D01*
X163055031Y-98391932D01*
X163055032Y-98391934D01*
X163185554Y-98578341D01*
X163346458Y-98739245D01*
X163346461Y-98739247D01*
X163532866Y-98869768D01*
X163739104Y-98965939D01*
X163958908Y-99024835D01*
X164120830Y-99039001D01*
X164185598Y-99044668D01*
X164185600Y-99044668D01*
X164185602Y-99044668D01*
X164242273Y-99039709D01*
X164412292Y-99024835D01*
X164632096Y-98965939D01*
X164838334Y-98869768D01*
X165024739Y-98739247D01*
X165185647Y-98578339D01*
X165316168Y-98391934D01*
X165412339Y-98185696D01*
X165471235Y-97965892D01*
X165488234Y-97771584D01*
X165491068Y-97739201D01*
X165491068Y-97739198D01*
X165471235Y-97512513D01*
X165471235Y-97512508D01*
X165412339Y-97292704D01*
X165316168Y-97086466D01*
X165185647Y-96900061D01*
X165185645Y-96900058D01*
X165024741Y-96739154D01*
X164838334Y-96608632D01*
X164838332Y-96608631D01*
X164632097Y-96512461D01*
X164632088Y-96512458D01*
X164412297Y-96453566D01*
X164412293Y-96453565D01*
X164412292Y-96453565D01*
X164412291Y-96453564D01*
X164412286Y-96453564D01*
X164185602Y-96433732D01*
X164185598Y-96433732D01*
X163958913Y-96453564D01*
X163958902Y-96453566D01*
X163739111Y-96512458D01*
X163739102Y-96512461D01*
X163532867Y-96608631D01*
X163532865Y-96608632D01*
X163346458Y-96739154D01*
X163185554Y-96900058D01*
X163055032Y-97086465D01*
X163055031Y-97086467D01*
X162958861Y-97292702D01*
X162958858Y-97292711D01*
X162899966Y-97512502D01*
X162899964Y-97512513D01*
X162880132Y-97739198D01*
X158713676Y-97739198D01*
X154252819Y-93278341D01*
X154219334Y-93217018D01*
X154216500Y-93190660D01*
X154216500Y-91070641D01*
X154968300Y-91070641D01*
X154968300Y-91707758D01*
X154982957Y-91837848D01*
X154982959Y-91837858D01*
X155038919Y-91997780D01*
X155040678Y-92002806D01*
X155133653Y-92150776D01*
X155257224Y-92274347D01*
X155405194Y-92367322D01*
X155570143Y-92425041D01*
X155570149Y-92425041D01*
X155570151Y-92425042D01*
X155611550Y-92429706D01*
X155700242Y-92439699D01*
X155700245Y-92439700D01*
X156914300Y-92439700D01*
X156981339Y-92459385D01*
X157027094Y-92512189D01*
X157038300Y-92563700D01*
X157038300Y-93257070D01*
X157038301Y-93257076D01*
X157044708Y-93316683D01*
X157095002Y-93451528D01*
X157095006Y-93451535D01*
X157181252Y-93566744D01*
X157181255Y-93566747D01*
X157296464Y-93652993D01*
X157296471Y-93652997D01*
X157431317Y-93703291D01*
X157431316Y-93703291D01*
X157438244Y-93704035D01*
X157490927Y-93709700D01*
X159386672Y-93709699D01*
X159446283Y-93703291D01*
X159501799Y-93682585D01*
X159533616Y-93670718D01*
X159576949Y-93662900D01*
X169135979Y-93662900D01*
X169203018Y-93682585D01*
X169248773Y-93735389D01*
X169258717Y-93804547D01*
X169232926Y-93864211D01*
X169200610Y-93904735D01*
X169177441Y-93933788D01*
X169050008Y-94154509D01*
X168956892Y-94391762D01*
X168956890Y-94391769D01*
X168900177Y-94640245D01*
X168881132Y-94894395D01*
X168881132Y-94894404D01*
X168900177Y-95148554D01*
X168900178Y-95148557D01*
X168956892Y-95397037D01*
X169050007Y-95634288D01*
X169177441Y-95855012D01*
X169336350Y-96054277D01*
X169523183Y-96227632D01*
X169733766Y-96371205D01*
X169733771Y-96371207D01*
X169733772Y-96371208D01*
X169733773Y-96371209D01*
X169855728Y-96429938D01*
X169963392Y-96481787D01*
X169963393Y-96481787D01*
X169963396Y-96481789D01*
X170206942Y-96556913D01*
X170458965Y-96594900D01*
X170713835Y-96594900D01*
X170965858Y-96556913D01*
X171209404Y-96481789D01*
X171439034Y-96371205D01*
X171649617Y-96227632D01*
X171836450Y-96054277D01*
X171995359Y-95855012D01*
X172122793Y-95634288D01*
X172215908Y-95397037D01*
X172272622Y-95148557D01*
X172291668Y-94894400D01*
X172272622Y-94640243D01*
X172215908Y-94391763D01*
X172122793Y-94154512D01*
X171995359Y-93933788D01*
X171939873Y-93864211D01*
X171913466Y-93799527D01*
X171926221Y-93730831D01*
X171974092Y-93679937D01*
X172036821Y-93662900D01*
X175873900Y-93662900D01*
X175940939Y-93682585D01*
X175986694Y-93735389D01*
X175997900Y-93786900D01*
X175997900Y-96142270D01*
X175997901Y-96142276D01*
X176004308Y-96201883D01*
X176054602Y-96336728D01*
X176054606Y-96336735D01*
X176140852Y-96451944D01*
X176140855Y-96451947D01*
X176256064Y-96538193D01*
X176256071Y-96538197D01*
X176390917Y-96588491D01*
X176390916Y-96588491D01*
X176397844Y-96589235D01*
X176450527Y-96594900D01*
X178946272Y-96594899D01*
X179005883Y-96588491D01*
X179140731Y-96538196D01*
X179255946Y-96451946D01*
X179342196Y-96336731D01*
X179392491Y-96201883D01*
X179398900Y-96142273D01*
X179398899Y-93786899D01*
X179418584Y-93719861D01*
X179471387Y-93674106D01*
X179522899Y-93662900D01*
X184155423Y-93662900D01*
X184222462Y-93682585D01*
X184268217Y-93735389D01*
X184275666Y-93762534D01*
X184276524Y-93762332D01*
X184278307Y-93769879D01*
X184328602Y-93904728D01*
X184328606Y-93904735D01*
X184414852Y-94019944D01*
X184414855Y-94019947D01*
X184530064Y-94106193D01*
X184530071Y-94106197D01*
X184664917Y-94156491D01*
X184664916Y-94156491D01*
X184671844Y-94157235D01*
X184724527Y-94162900D01*
X186420272Y-94162899D01*
X186479883Y-94156491D01*
X186614731Y-94106196D01*
X186729946Y-94019946D01*
X186816196Y-93904731D01*
X186866491Y-93769883D01*
X186870262Y-93734801D01*
X186896999Y-93670255D01*
X186954390Y-93630406D01*
X187024216Y-93627911D01*
X187084305Y-93663563D01*
X187095125Y-93676935D01*
X187095512Y-93677488D01*
X187112356Y-93701543D01*
X187273258Y-93862445D01*
X187273261Y-93862447D01*
X187459666Y-93992968D01*
X187665904Y-94089139D01*
X187885708Y-94148035D01*
X188047630Y-94162201D01*
X188112398Y-94167868D01*
X188112400Y-94167868D01*
X188112402Y-94167868D01*
X188169207Y-94162898D01*
X188339092Y-94148035D01*
X188558896Y-94089139D01*
X188765134Y-93992968D01*
X188951539Y-93862447D01*
X189112447Y-93701539D01*
X189242968Y-93515134D01*
X189270018Y-93457124D01*
X189316190Y-93404685D01*
X189383383Y-93385533D01*
X189450265Y-93405748D01*
X189494782Y-93457125D01*
X189521829Y-93515128D01*
X189521832Y-93515134D01*
X189652354Y-93701541D01*
X189813258Y-93862445D01*
X189813261Y-93862447D01*
X189999666Y-93992968D01*
X190205904Y-94089139D01*
X190425708Y-94148035D01*
X190587630Y-94162201D01*
X190652398Y-94167868D01*
X190652400Y-94167868D01*
X190652402Y-94167868D01*
X190709207Y-94162898D01*
X190879092Y-94148035D01*
X191098896Y-94089139D01*
X191305134Y-93992968D01*
X191491539Y-93862447D01*
X191652447Y-93701539D01*
X191782968Y-93515134D01*
X191810018Y-93457124D01*
X191856190Y-93404685D01*
X191923383Y-93385533D01*
X191990265Y-93405748D01*
X192034782Y-93457125D01*
X192061829Y-93515128D01*
X192061832Y-93515134D01*
X192192354Y-93701541D01*
X192353258Y-93862445D01*
X192353261Y-93862447D01*
X192539666Y-93992968D01*
X192745904Y-94089139D01*
X192965708Y-94148035D01*
X193127630Y-94162201D01*
X193192398Y-94167868D01*
X193192400Y-94167868D01*
X193192402Y-94167868D01*
X193249207Y-94162898D01*
X193419092Y-94148035D01*
X193638896Y-94089139D01*
X193845134Y-93992968D01*
X194031539Y-93862447D01*
X194192447Y-93701539D01*
X194322968Y-93515134D01*
X194419139Y-93308896D01*
X194478035Y-93089092D01*
X194497868Y-92862400D01*
X194478035Y-92635708D01*
X194419139Y-92415904D01*
X194322968Y-92209666D01*
X194192447Y-92023261D01*
X194192445Y-92023258D01*
X194031541Y-91862354D01*
X193845134Y-91731832D01*
X193845132Y-91731831D01*
X193638897Y-91635661D01*
X193638888Y-91635658D01*
X193419097Y-91576766D01*
X193419093Y-91576765D01*
X193419092Y-91576765D01*
X193419091Y-91576764D01*
X193419086Y-91576764D01*
X193192402Y-91556932D01*
X193192398Y-91556932D01*
X192965713Y-91576764D01*
X192965702Y-91576766D01*
X192745911Y-91635658D01*
X192745902Y-91635661D01*
X192539667Y-91731831D01*
X192539665Y-91731832D01*
X192353258Y-91862354D01*
X192192354Y-92023258D01*
X192061832Y-92209665D01*
X192061831Y-92209667D01*
X192056499Y-92221102D01*
X192039804Y-92256906D01*
X192034782Y-92267675D01*
X191988609Y-92320114D01*
X191921416Y-92339266D01*
X191854535Y-92319050D01*
X191810018Y-92267675D01*
X191782968Y-92209666D01*
X191652447Y-92023261D01*
X191652445Y-92023258D01*
X191616113Y-91986926D01*
X191582628Y-91925603D01*
X191587612Y-91855911D01*
X191616111Y-91811566D01*
X195998589Y-87429089D01*
X196086194Y-87297979D01*
X196146538Y-87152297D01*
X196177300Y-86997642D01*
X196177300Y-86839957D01*
X196177300Y-69872758D01*
X196177300Y-69872755D01*
X196177299Y-69872753D01*
X196147324Y-69722061D01*
X196146537Y-69718103D01*
X196123611Y-69662754D01*
X196086197Y-69572427D01*
X196086190Y-69572414D01*
X195998590Y-69441312D01*
X195987909Y-69430631D01*
X195887089Y-69329811D01*
X194847020Y-68289742D01*
X193702692Y-67145413D01*
X193702688Y-67145410D01*
X193571585Y-67057809D01*
X193571572Y-67057802D01*
X193425901Y-66997464D01*
X193425889Y-66997461D01*
X193271245Y-66966700D01*
X193271242Y-66966700D01*
X190624849Y-66966700D01*
X190557810Y-66947015D01*
X190537168Y-66930381D01*
X190373941Y-66767154D01*
X190187534Y-66636632D01*
X190187532Y-66636631D01*
X189981297Y-66540461D01*
X189981288Y-66540458D01*
X189761497Y-66481566D01*
X189761493Y-66481565D01*
X189761492Y-66481565D01*
X189761491Y-66481564D01*
X189761486Y-66481564D01*
X189534802Y-66461732D01*
X189534798Y-66461732D01*
X189308113Y-66481564D01*
X189308102Y-66481566D01*
X189088311Y-66540458D01*
X189088302Y-66540461D01*
X188882067Y-66636631D01*
X188882065Y-66636632D01*
X188695658Y-66767154D01*
X188534754Y-66928058D01*
X188404232Y-67114465D01*
X188404231Y-67114467D01*
X188308061Y-67320702D01*
X188308058Y-67320711D01*
X188249166Y-67540502D01*
X188249164Y-67540513D01*
X188229332Y-67767198D01*
X188229332Y-67767201D01*
X188249164Y-67993886D01*
X188249166Y-67993897D01*
X188308058Y-68213688D01*
X188308061Y-68213697D01*
X188404231Y-68419932D01*
X188404232Y-68419934D01*
X188534754Y-68606341D01*
X188695658Y-68767245D01*
X188695661Y-68767247D01*
X188882066Y-68897768D01*
X189088304Y-68993939D01*
X189308108Y-69052835D01*
X189470030Y-69067001D01*
X189534798Y-69072668D01*
X189534800Y-69072668D01*
X189534802Y-69072668D01*
X189591473Y-69067709D01*
X189761492Y-69052835D01*
X189981296Y-68993939D01*
X190187534Y-68897768D01*
X190373939Y-68767247D01*
X190374329Y-68766857D01*
X190537168Y-68604019D01*
X190598491Y-68570534D01*
X190624849Y-68567700D01*
X192809460Y-68567700D01*
X192876499Y-68587385D01*
X192897141Y-68604019D01*
X194539981Y-70246859D01*
X194573466Y-70308182D01*
X194576300Y-70334540D01*
X194576300Y-71729733D01*
X194556615Y-71796772D01*
X194503811Y-71842527D01*
X194434653Y-71852471D01*
X194371097Y-71823446D01*
X194339918Y-71782138D01*
X194271734Y-71635917D01*
X194141257Y-71449579D01*
X193980420Y-71288742D01*
X193794082Y-71158265D01*
X193587928Y-71062134D01*
X193391600Y-71009527D01*
X193391600Y-71972714D01*
X193387206Y-71968320D01*
X193295994Y-71915659D01*
X193194261Y-71888400D01*
X193088939Y-71888400D01*
X192987206Y-71915659D01*
X192895994Y-71968320D01*
X192891600Y-71972714D01*
X192891600Y-71009527D01*
X192695271Y-71062134D01*
X192489117Y-71158265D01*
X192302779Y-71288742D01*
X192141942Y-71449579D01*
X192011465Y-71635917D01*
X191915334Y-71842073D01*
X191915330Y-71842082D01*
X191862727Y-72038399D01*
X191862728Y-72038400D01*
X192825914Y-72038400D01*
X192821520Y-72042794D01*
X192768859Y-72134006D01*
X192741600Y-72235739D01*
X192741600Y-72341061D01*
X192768859Y-72442794D01*
X192821520Y-72534006D01*
X192825914Y-72538400D01*
X191862728Y-72538400D01*
X191915330Y-72734717D01*
X191915334Y-72734726D01*
X192011465Y-72940882D01*
X192141942Y-73127220D01*
X192302779Y-73288057D01*
X192489117Y-73418534D01*
X192695273Y-73514665D01*
X192695282Y-73514669D01*
X192891599Y-73567272D01*
X192891600Y-73567271D01*
X192891600Y-72604086D01*
X192895994Y-72608480D01*
X192987206Y-72661141D01*
X193088939Y-72688400D01*
X193194261Y-72688400D01*
X193295994Y-72661141D01*
X193387206Y-72608480D01*
X193391600Y-72604086D01*
X193391600Y-73567272D01*
X193587917Y-73514669D01*
X193587926Y-73514665D01*
X193794082Y-73418534D01*
X193980420Y-73288057D01*
X194141257Y-73127220D01*
X194271733Y-72940882D01*
X194339918Y-72794661D01*
X194386090Y-72742222D01*
X194453284Y-72723070D01*
X194520165Y-72743286D01*
X194565499Y-72796451D01*
X194576300Y-72847066D01*
X194576300Y-74639633D01*
X194556615Y-74706672D01*
X194503811Y-74752427D01*
X194439509Y-74762972D01*
X194415835Y-74760516D01*
X193675362Y-75500990D01*
X193658325Y-75437407D01*
X193592499Y-75323393D01*
X193499407Y-75230301D01*
X193385393Y-75164475D01*
X193321809Y-75147437D01*
X194062455Y-74406789D01*
X194062455Y-74406788D01*
X194015636Y-74370347D01*
X194015631Y-74370344D01*
X193797014Y-74252035D01*
X193797003Y-74252030D01*
X193561893Y-74171316D01*
X193316693Y-74130400D01*
X193068107Y-74130400D01*
X192822906Y-74171316D01*
X192587796Y-74252030D01*
X192587785Y-74252035D01*
X192369170Y-74370343D01*
X192322343Y-74406789D01*
X193062991Y-75147437D01*
X192999407Y-75164475D01*
X192885393Y-75230301D01*
X192792301Y-75323393D01*
X192726475Y-75437407D01*
X192709437Y-75500990D01*
X191968963Y-74760517D01*
X191868667Y-74914033D01*
X191868665Y-74914037D01*
X191768812Y-75141682D01*
X191707787Y-75382661D01*
X191707785Y-75382670D01*
X191687259Y-75630394D01*
X191687259Y-75630405D01*
X191707785Y-75878129D01*
X191707787Y-75878138D01*
X191768812Y-76119117D01*
X191868667Y-76346767D01*
X191968962Y-76500281D01*
X192709437Y-75759808D01*
X192726475Y-75823393D01*
X192792301Y-75937407D01*
X192885393Y-76030499D01*
X192999407Y-76096325D01*
X193062991Y-76113362D01*
X192322343Y-76854009D01*
X192369168Y-76890455D01*
X192369171Y-76890457D01*
X192587785Y-77008764D01*
X192587796Y-77008769D01*
X192822906Y-77089483D01*
X193068107Y-77130400D01*
X193316693Y-77130400D01*
X193561893Y-77089483D01*
X193797003Y-77008769D01*
X193797014Y-77008764D01*
X194015630Y-76890456D01*
X194015636Y-76890451D01*
X194062455Y-76854010D01*
X194062456Y-76854009D01*
X193321808Y-76113362D01*
X193385393Y-76096325D01*
X193499407Y-76030499D01*
X193592499Y-75937407D01*
X193658325Y-75823393D01*
X193675362Y-75759809D01*
X194415835Y-76500282D01*
X194439508Y-76497827D01*
X194508220Y-76510490D01*
X194559178Y-76558292D01*
X194576300Y-76621165D01*
X194576300Y-79600456D01*
X194556615Y-79667495D01*
X194503811Y-79713250D01*
X194434653Y-79723194D01*
X194371097Y-79694169D01*
X194361070Y-79684439D01*
X194283758Y-79600456D01*
X194212144Y-79522662D01*
X194015909Y-79369926D01*
X194015907Y-79369925D01*
X194015906Y-79369924D01*
X193797211Y-79251572D01*
X193797202Y-79251569D01*
X193562016Y-79170829D01*
X193316735Y-79129900D01*
X193068065Y-79129900D01*
X192822783Y-79170829D01*
X192587597Y-79251569D01*
X192587588Y-79251572D01*
X192368893Y-79369924D01*
X192172657Y-79522661D01*
X192004233Y-79705617D01*
X191868226Y-79913793D01*
X191768336Y-80141518D01*
X191707292Y-80382575D01*
X191707290Y-80382587D01*
X191686757Y-80630394D01*
X191686757Y-80630405D01*
X191707290Y-80878212D01*
X191707292Y-80878224D01*
X191768336Y-81119281D01*
X191868226Y-81347006D01*
X192004233Y-81555182D01*
X192004236Y-81555185D01*
X192172656Y-81738138D01*
X192368891Y-81890874D01*
X192587590Y-82009228D01*
X192822786Y-82089971D01*
X193068065Y-82130900D01*
X193316735Y-82130900D01*
X193562014Y-82089971D01*
X193797210Y-82009228D01*
X194015909Y-81890874D01*
X194212144Y-81738138D01*
X194361072Y-81576358D01*
X194420957Y-81540370D01*
X194490795Y-81542470D01*
X194548411Y-81581994D01*
X194575513Y-81646393D01*
X194576300Y-81660343D01*
X194576300Y-84573610D01*
X194556615Y-84640649D01*
X194503811Y-84686404D01*
X194434653Y-84696348D01*
X194371097Y-84667323D01*
X194339918Y-84626016D01*
X194322968Y-84589666D01*
X194192447Y-84403261D01*
X194192445Y-84403258D01*
X194031541Y-84242354D01*
X193845134Y-84111832D01*
X193845132Y-84111831D01*
X193638897Y-84015661D01*
X193638888Y-84015658D01*
X193419097Y-83956766D01*
X193419093Y-83956765D01*
X193419092Y-83956765D01*
X193419091Y-83956764D01*
X193419086Y-83956764D01*
X193192402Y-83936932D01*
X193192398Y-83936932D01*
X192965713Y-83956764D01*
X192965702Y-83956766D01*
X192745911Y-84015658D01*
X192745902Y-84015661D01*
X192539667Y-84111831D01*
X192539665Y-84111832D01*
X192353258Y-84242354D01*
X192192354Y-84403258D01*
X192061832Y-84589665D01*
X192061831Y-84589667D01*
X192034782Y-84647675D01*
X191988609Y-84700114D01*
X191921416Y-84719266D01*
X191854535Y-84699050D01*
X191810018Y-84647675D01*
X191782968Y-84589667D01*
X191782967Y-84589665D01*
X191782966Y-84589664D01*
X191652447Y-84403261D01*
X191652445Y-84403258D01*
X191491541Y-84242354D01*
X191305134Y-84111832D01*
X191305132Y-84111831D01*
X191098897Y-84015661D01*
X191098888Y-84015658D01*
X190879097Y-83956766D01*
X190879093Y-83956765D01*
X190879092Y-83956765D01*
X190879091Y-83956764D01*
X190879086Y-83956764D01*
X190652402Y-83936932D01*
X190652398Y-83936932D01*
X190425713Y-83956764D01*
X190425702Y-83956766D01*
X190205911Y-84015658D01*
X190205902Y-84015661D01*
X189999667Y-84111831D01*
X189999665Y-84111832D01*
X189813258Y-84242354D01*
X189652354Y-84403258D01*
X189521832Y-84589665D01*
X189521831Y-84589667D01*
X189494782Y-84647675D01*
X189448609Y-84700114D01*
X189381416Y-84719266D01*
X189314535Y-84699050D01*
X189270018Y-84647675D01*
X189242968Y-84589667D01*
X189242967Y-84589665D01*
X189242966Y-84589664D01*
X189112447Y-84403261D01*
X189112445Y-84403258D01*
X188951541Y-84242354D01*
X188765134Y-84111832D01*
X188765132Y-84111831D01*
X188558897Y-84015661D01*
X188558888Y-84015658D01*
X188339097Y-83956766D01*
X188339093Y-83956765D01*
X188339092Y-83956765D01*
X188339091Y-83956764D01*
X188339086Y-83956764D01*
X188112402Y-83936932D01*
X188112398Y-83936932D01*
X187885713Y-83956764D01*
X187885702Y-83956766D01*
X187665911Y-84015658D01*
X187665902Y-84015661D01*
X187459667Y-84111831D01*
X187459665Y-84111832D01*
X187273258Y-84242354D01*
X187112354Y-84403258D01*
X186981832Y-84589665D01*
X186981831Y-84589667D01*
X186954782Y-84647675D01*
X186908609Y-84700114D01*
X186841416Y-84719266D01*
X186774535Y-84699050D01*
X186730018Y-84647675D01*
X186702968Y-84589667D01*
X186702967Y-84589665D01*
X186702966Y-84589664D01*
X186572447Y-84403261D01*
X186572445Y-84403258D01*
X186411541Y-84242354D01*
X186225134Y-84111832D01*
X186225132Y-84111831D01*
X186018897Y-84015661D01*
X186018888Y-84015658D01*
X185799097Y-83956766D01*
X185799093Y-83956765D01*
X185799092Y-83956765D01*
X185799091Y-83956764D01*
X185799086Y-83956764D01*
X185572402Y-83936932D01*
X185572398Y-83936932D01*
X185345713Y-83956764D01*
X185345702Y-83956766D01*
X185125911Y-84015658D01*
X185125902Y-84015661D01*
X184919667Y-84111831D01*
X184919665Y-84111832D01*
X184733258Y-84242354D01*
X184572354Y-84403258D01*
X184441832Y-84589665D01*
X184441831Y-84589667D01*
X184345661Y-84795902D01*
X184345658Y-84795911D01*
X184286766Y-85015702D01*
X184286764Y-85015713D01*
X184266932Y-85242398D01*
X184266932Y-85242401D01*
X184286764Y-85469086D01*
X184286766Y-85469097D01*
X184345658Y-85688888D01*
X184345661Y-85688897D01*
X184441831Y-85895132D01*
X184441832Y-85895134D01*
X184572354Y-86081541D01*
X184733258Y-86242445D01*
X184733261Y-86242447D01*
X184919666Y-86372968D01*
X185125904Y-86469139D01*
X185345708Y-86528035D01*
X185507630Y-86542201D01*
X185572398Y-86547868D01*
X185572400Y-86547868D01*
X185572402Y-86547868D01*
X185629073Y-86542909D01*
X185799092Y-86528035D01*
X186018896Y-86469139D01*
X186225134Y-86372968D01*
X186411539Y-86242447D01*
X186572447Y-86081539D01*
X186702968Y-85895134D01*
X186730018Y-85837124D01*
X186776190Y-85784685D01*
X186843383Y-85765533D01*
X186910265Y-85785748D01*
X186954782Y-85837125D01*
X186981829Y-85895128D01*
X186981832Y-85895134D01*
X187112354Y-86081541D01*
X187273258Y-86242445D01*
X187273261Y-86242447D01*
X187459666Y-86372968D01*
X187665904Y-86469139D01*
X187885708Y-86528035D01*
X188047630Y-86542201D01*
X188112398Y-86547868D01*
X188112400Y-86547868D01*
X188112402Y-86547868D01*
X188169073Y-86542909D01*
X188339092Y-86528035D01*
X188558896Y-86469139D01*
X188765134Y-86372968D01*
X188951539Y-86242447D01*
X189112447Y-86081539D01*
X189242968Y-85895134D01*
X189270018Y-85837124D01*
X189316190Y-85784685D01*
X189383383Y-85765533D01*
X189450265Y-85785748D01*
X189494782Y-85837125D01*
X189521829Y-85895128D01*
X189521832Y-85895134D01*
X189652354Y-86081541D01*
X189813258Y-86242445D01*
X189813261Y-86242447D01*
X189999666Y-86372968D01*
X190205904Y-86469139D01*
X190425708Y-86528035D01*
X190587630Y-86542201D01*
X190652398Y-86547868D01*
X190652400Y-86547868D01*
X190652402Y-86547868D01*
X190709073Y-86542909D01*
X190879092Y-86528035D01*
X191098896Y-86469139D01*
X191305134Y-86372968D01*
X191491539Y-86242447D01*
X191652447Y-86081539D01*
X191782968Y-85895134D01*
X191810018Y-85837124D01*
X191856190Y-85784685D01*
X191923383Y-85765533D01*
X191990265Y-85785748D01*
X192034782Y-85837125D01*
X192061829Y-85895128D01*
X192061832Y-85895134D01*
X192192354Y-86081541D01*
X192353258Y-86242445D01*
X192353261Y-86242447D01*
X192539666Y-86372968D01*
X192745904Y-86469139D01*
X192965708Y-86528035D01*
X193127630Y-86542201D01*
X193192398Y-86547868D01*
X193192400Y-86547868D01*
X193192402Y-86547868D01*
X193249073Y-86542909D01*
X193419092Y-86528035D01*
X193638896Y-86469139D01*
X193845134Y-86372968D01*
X194031539Y-86242447D01*
X194192447Y-86081539D01*
X194322968Y-85895134D01*
X194339918Y-85858783D01*
X194386090Y-85806345D01*
X194453284Y-85787193D01*
X194520165Y-85807409D01*
X194565499Y-85860574D01*
X194576300Y-85911189D01*
X194576300Y-86535860D01*
X194556615Y-86602899D01*
X194539981Y-86623541D01*
X190142111Y-91021411D01*
X190096263Y-91067259D01*
X190030609Y-91132912D01*
X189943009Y-91264014D01*
X189943002Y-91264027D01*
X189882664Y-91409698D01*
X189882661Y-91409710D01*
X189851900Y-91564353D01*
X189851900Y-91772351D01*
X189832215Y-91839390D01*
X189815581Y-91860032D01*
X189652354Y-92023258D01*
X189521832Y-92209665D01*
X189521831Y-92209667D01*
X189516499Y-92221102D01*
X189499804Y-92256906D01*
X189494782Y-92267675D01*
X189448609Y-92320114D01*
X189381416Y-92339266D01*
X189314535Y-92319050D01*
X189270018Y-92267675D01*
X189242968Y-92209666D01*
X189112447Y-92023261D01*
X189112445Y-92023258D01*
X188951541Y-91862354D01*
X188765134Y-91731832D01*
X188765132Y-91731831D01*
X188558897Y-91635661D01*
X188558888Y-91635658D01*
X188339097Y-91576766D01*
X188339093Y-91576765D01*
X188339092Y-91576765D01*
X188339091Y-91576764D01*
X188339086Y-91576764D01*
X188112402Y-91556932D01*
X188112398Y-91556932D01*
X187885713Y-91576764D01*
X187885702Y-91576766D01*
X187665911Y-91635658D01*
X187665902Y-91635661D01*
X187459667Y-91731831D01*
X187459665Y-91731832D01*
X187273258Y-91862354D01*
X187112354Y-92023258D01*
X187095125Y-92047864D01*
X187040547Y-92091488D01*
X186971048Y-92098680D01*
X186908694Y-92067157D01*
X186873282Y-92006926D01*
X186870261Y-91989991D01*
X186866491Y-91954916D01*
X186816197Y-91820071D01*
X186816193Y-91820064D01*
X186729947Y-91704855D01*
X186729944Y-91704852D01*
X186614735Y-91618606D01*
X186614728Y-91618602D01*
X186479882Y-91568308D01*
X186479883Y-91568308D01*
X186420283Y-91561901D01*
X186420281Y-91561900D01*
X186420273Y-91561900D01*
X186420264Y-91561900D01*
X184724529Y-91561900D01*
X184724523Y-91561901D01*
X184664916Y-91568308D01*
X184530071Y-91618602D01*
X184530064Y-91618606D01*
X184414855Y-91704852D01*
X184414852Y-91704855D01*
X184328606Y-91820064D01*
X184328602Y-91820071D01*
X184278308Y-91954917D01*
X184276526Y-91962462D01*
X184274253Y-91961925D01*
X184251971Y-92015712D01*
X184194577Y-92055557D01*
X184155424Y-92061900D01*
X159941433Y-92061900D01*
X159874394Y-92042215D01*
X159828639Y-91989411D01*
X159825251Y-91981233D01*
X159782597Y-91866871D01*
X159782593Y-91866864D01*
X159696347Y-91751655D01*
X159696344Y-91751652D01*
X159581135Y-91665406D01*
X159581128Y-91665402D01*
X159446282Y-91615108D01*
X159446283Y-91615108D01*
X159386683Y-91608701D01*
X159386681Y-91608700D01*
X159386673Y-91608700D01*
X159386665Y-91608700D01*
X157893300Y-91608700D01*
X157826261Y-91589015D01*
X157780506Y-91536211D01*
X157769300Y-91484700D01*
X157769300Y-91293200D01*
X157788985Y-91226161D01*
X157841789Y-91180406D01*
X157893300Y-91169200D01*
X158188800Y-91169200D01*
X158688800Y-91169200D01*
X159107327Y-91169200D01*
X159107330Y-91169199D01*
X159237339Y-91154551D01*
X159402186Y-91096869D01*
X159550062Y-91003953D01*
X159673553Y-90880462D01*
X159766469Y-90732586D01*
X159824151Y-90567739D01*
X159838799Y-90437730D01*
X159838800Y-90437726D01*
X159838800Y-90369200D01*
X158688800Y-90369200D01*
X158688800Y-91169200D01*
X158188800Y-91169200D01*
X158188800Y-90465610D01*
X158269055Y-90419275D01*
X158338875Y-90349455D01*
X158388244Y-90263945D01*
X158413800Y-90168570D01*
X158413800Y-90069830D01*
X158388244Y-89974455D01*
X158338875Y-89888945D01*
X158319130Y-89869200D01*
X158688800Y-89869200D01*
X159838800Y-89869200D01*
X159838800Y-89800673D01*
X159838799Y-89800669D01*
X159824151Y-89670660D01*
X159766469Y-89505813D01*
X159673553Y-89357937D01*
X159550062Y-89234446D01*
X159402186Y-89141530D01*
X159237339Y-89083848D01*
X159107330Y-89069200D01*
X158688800Y-89069200D01*
X158688800Y-89869200D01*
X158319130Y-89869200D01*
X158269055Y-89819125D01*
X158188800Y-89772789D01*
X158188800Y-89069200D01*
X157770269Y-89069200D01*
X157640260Y-89083848D01*
X157475413Y-89141530D01*
X157327537Y-89234446D01*
X157204046Y-89357937D01*
X157111130Y-89505813D01*
X157053448Y-89670660D01*
X157038800Y-89800669D01*
X157038800Y-89869200D01*
X157758470Y-89869200D01*
X157738725Y-89888945D01*
X157689356Y-89974455D01*
X157663800Y-90069830D01*
X157663800Y-90168570D01*
X157689356Y-90263945D01*
X157738725Y-90349455D01*
X157758470Y-90369200D01*
X157233795Y-90369200D01*
X157192840Y-90362241D01*
X157167458Y-90353359D01*
X157167448Y-90353357D01*
X157037358Y-90338700D01*
X157037352Y-90338700D01*
X155700248Y-90338700D01*
X155700241Y-90338700D01*
X155570151Y-90353357D01*
X155570141Y-90353359D01*
X155405195Y-90411077D01*
X155257223Y-90504053D01*
X155133653Y-90627623D01*
X155040677Y-90775595D01*
X154982959Y-90940541D01*
X154982957Y-90940551D01*
X154968300Y-91070641D01*
X154216500Y-91070641D01*
X154216500Y-86179555D01*
X154216499Y-86179553D01*
X154197003Y-86081541D01*
X154185737Y-86024903D01*
X154185735Y-86024898D01*
X154125397Y-85879227D01*
X154125390Y-85879214D01*
X154037790Y-85748112D01*
X154037789Y-85748111D01*
X153926289Y-85636611D01*
X152489297Y-84199619D01*
X151652477Y-83362798D01*
X160289332Y-83362798D01*
X160289332Y-83362801D01*
X160309164Y-83589486D01*
X160309166Y-83589497D01*
X160368058Y-83809288D01*
X160368061Y-83809297D01*
X160464231Y-84015532D01*
X160464232Y-84015534D01*
X160594754Y-84201941D01*
X160755658Y-84362845D01*
X160755661Y-84362847D01*
X160942066Y-84493368D01*
X161148304Y-84589539D01*
X161148309Y-84589540D01*
X161148311Y-84589541D01*
X161163475Y-84593604D01*
X161368108Y-84648435D01*
X161530030Y-84662601D01*
X161594798Y-84668268D01*
X161594800Y-84668268D01*
X161594802Y-84668268D01*
X161651473Y-84663309D01*
X161821492Y-84648435D01*
X162041296Y-84589539D01*
X162247534Y-84493368D01*
X162433939Y-84362847D01*
X162594847Y-84201939D01*
X162725368Y-84015534D01*
X162821539Y-83809296D01*
X162880435Y-83589492D01*
X162900268Y-83362800D01*
X162899522Y-83354278D01*
X162882089Y-83155012D01*
X162880435Y-83136108D01*
X162821539Y-82916304D01*
X162725368Y-82710066D01*
X162608119Y-82542615D01*
X162594845Y-82523658D01*
X162433941Y-82362754D01*
X162247534Y-82232232D01*
X162247532Y-82232231D01*
X162041297Y-82136061D01*
X162041288Y-82136058D01*
X161821497Y-82077166D01*
X161821493Y-82077165D01*
X161821492Y-82077165D01*
X161821491Y-82077164D01*
X161821486Y-82077164D01*
X161594802Y-82057332D01*
X161594798Y-82057332D01*
X161368113Y-82077164D01*
X161368102Y-82077166D01*
X161148311Y-82136058D01*
X161148302Y-82136061D01*
X160942067Y-82232231D01*
X160942065Y-82232232D01*
X160755658Y-82362754D01*
X160594754Y-82523658D01*
X160464232Y-82710065D01*
X160464231Y-82710067D01*
X160368061Y-82916302D01*
X160368058Y-82916311D01*
X160309166Y-83136102D01*
X160309164Y-83136113D01*
X160289332Y-83362798D01*
X151652477Y-83362798D01*
X151030692Y-82741013D01*
X151030688Y-82741010D01*
X150899585Y-82653409D01*
X150899572Y-82653402D01*
X150753901Y-82593064D01*
X150753889Y-82593061D01*
X150599245Y-82562300D01*
X150599242Y-82562300D01*
X147495649Y-82562300D01*
X147428610Y-82542615D01*
X147407968Y-82525981D01*
X147244741Y-82362754D01*
X147058334Y-82232232D01*
X147058332Y-82232231D01*
X146852097Y-82136061D01*
X146852088Y-82136058D01*
X146632297Y-82077166D01*
X146632293Y-82077165D01*
X146632292Y-82077165D01*
X146632291Y-82077164D01*
X146632286Y-82077164D01*
X146405602Y-82057332D01*
X146405598Y-82057332D01*
X146178913Y-82077164D01*
X146178902Y-82077166D01*
X145959111Y-82136058D01*
X145959102Y-82136061D01*
X145752867Y-82232231D01*
X145752865Y-82232232D01*
X145566458Y-82362754D01*
X145405554Y-82523658D01*
X145275032Y-82710065D01*
X145275031Y-82710067D01*
X145178861Y-82916302D01*
X145178858Y-82916311D01*
X145119966Y-83136102D01*
X145119964Y-83136113D01*
X145100132Y-83362798D01*
X145100132Y-83362801D01*
X145119964Y-83589486D01*
X145119966Y-83589497D01*
X145178858Y-83809288D01*
X145178861Y-83809297D01*
X145275031Y-84015532D01*
X145275032Y-84015534D01*
X145405554Y-84201941D01*
X145566458Y-84362845D01*
X145566461Y-84362847D01*
X145752866Y-84493368D01*
X145959104Y-84589539D01*
X145959109Y-84589540D01*
X145959111Y-84589541D01*
X145974275Y-84593604D01*
X146178908Y-84648435D01*
X146340830Y-84662601D01*
X146405598Y-84668268D01*
X146405600Y-84668268D01*
X146405602Y-84668268D01*
X146462273Y-84663309D01*
X146632292Y-84648435D01*
X146852096Y-84589539D01*
X147058334Y-84493368D01*
X147244739Y-84362847D01*
X147244741Y-84362845D01*
X147407968Y-84199619D01*
X147469291Y-84166134D01*
X147495649Y-84163300D01*
X150137460Y-84163300D01*
X150204499Y-84182985D01*
X150225141Y-84199619D01*
X152579181Y-86553659D01*
X152612666Y-86614982D01*
X152615500Y-86641340D01*
X152615500Y-90431351D01*
X152595815Y-90498390D01*
X152543011Y-90544145D01*
X152473853Y-90554089D01*
X152410297Y-90525064D01*
X152403819Y-90519032D01*
X152324741Y-90439954D01*
X152138334Y-90309432D01*
X152138332Y-90309431D01*
X151932097Y-90213261D01*
X151932088Y-90213258D01*
X151712297Y-90154366D01*
X151712293Y-90154365D01*
X151712292Y-90154365D01*
X151712291Y-90154364D01*
X151712286Y-90154364D01*
X151485602Y-90134532D01*
X151485598Y-90134532D01*
X151258913Y-90154364D01*
X151258902Y-90154366D01*
X151039111Y-90213258D01*
X151039102Y-90213261D01*
X150832867Y-90309431D01*
X150832865Y-90309432D01*
X150646458Y-90439954D01*
X150485554Y-90600858D01*
X150355032Y-90787265D01*
X150355031Y-90787267D01*
X150258861Y-90993502D01*
X150258858Y-90993511D01*
X150199966Y-91213302D01*
X150199964Y-91213313D01*
X150180132Y-91439998D01*
X150180132Y-91440001D01*
X150199964Y-91666686D01*
X150199966Y-91666697D01*
X150258858Y-91886488D01*
X150258861Y-91886497D01*
X150355031Y-92092732D01*
X150355032Y-92092734D01*
X150485554Y-92279141D01*
X150646458Y-92440045D01*
X150670047Y-92456562D01*
X150832866Y-92570568D01*
X151039104Y-92666739D01*
X151039109Y-92666740D01*
X151039111Y-92666741D01*
X151092015Y-92680916D01*
X151258908Y-92725635D01*
X151420830Y-92739801D01*
X151485598Y-92745468D01*
X151485600Y-92745468D01*
X151485602Y-92745468D01*
X151542273Y-92740509D01*
X151712292Y-92725635D01*
X151932096Y-92666739D01*
X152138334Y-92570568D01*
X152324739Y-92440047D01*
X152348884Y-92415902D01*
X152403819Y-92360968D01*
X152465142Y-92327483D01*
X152534834Y-92332467D01*
X152590767Y-92374339D01*
X152615184Y-92439803D01*
X152615500Y-92448649D01*
X152615500Y-93652446D01*
X152646261Y-93807089D01*
X152646264Y-93807101D01*
X152706602Y-93952772D01*
X152706609Y-93952785D01*
X152794210Y-94083888D01*
X152794213Y-94083892D01*
X160364941Y-101654619D01*
X160398426Y-101715942D01*
X160393442Y-101785634D01*
X160351570Y-101841567D01*
X160286106Y-101865984D01*
X160277260Y-101866300D01*
X140489340Y-101866300D01*
X140422301Y-101846615D01*
X140401659Y-101829981D01*
X136310876Y-97739198D01*
X150180132Y-97739198D01*
X150180132Y-97739201D01*
X150199964Y-97965886D01*
X150199966Y-97965897D01*
X150258858Y-98185688D01*
X150258861Y-98185697D01*
X150355031Y-98391932D01*
X150355032Y-98391934D01*
X150485554Y-98578341D01*
X150646458Y-98739245D01*
X150646461Y-98739247D01*
X150832866Y-98869768D01*
X151039104Y-98965939D01*
X151258908Y-99024835D01*
X151420830Y-99039001D01*
X151485598Y-99044668D01*
X151485600Y-99044668D01*
X151485602Y-99044668D01*
X151542273Y-99039709D01*
X151712292Y-99024835D01*
X151932096Y-98965939D01*
X152138334Y-98869768D01*
X152324739Y-98739247D01*
X152485647Y-98578339D01*
X152616168Y-98391934D01*
X152712339Y-98185696D01*
X152771235Y-97965892D01*
X152788234Y-97771584D01*
X152791068Y-97739201D01*
X152791068Y-97739198D01*
X152771235Y-97512513D01*
X152771235Y-97512508D01*
X152712339Y-97292704D01*
X152616168Y-97086466D01*
X152485647Y-96900061D01*
X152485645Y-96900058D01*
X152324741Y-96739154D01*
X152138334Y-96608632D01*
X152138332Y-96608631D01*
X151932097Y-96512461D01*
X151932088Y-96512458D01*
X151712297Y-96453566D01*
X151712293Y-96453565D01*
X151712292Y-96453565D01*
X151712291Y-96453564D01*
X151712286Y-96453564D01*
X151485602Y-96433732D01*
X151485598Y-96433732D01*
X151258913Y-96453564D01*
X151258902Y-96453566D01*
X151039111Y-96512458D01*
X151039102Y-96512461D01*
X150832867Y-96608631D01*
X150832865Y-96608632D01*
X150646458Y-96739154D01*
X150485554Y-96900058D01*
X150355032Y-97086465D01*
X150355031Y-97086467D01*
X150258861Y-97292702D01*
X150258858Y-97292711D01*
X150199966Y-97512502D01*
X150199964Y-97512513D01*
X150180132Y-97739198D01*
X136310876Y-97739198D01*
X132053219Y-93481541D01*
X132019734Y-93420218D01*
X132016900Y-93393860D01*
X132016900Y-92939614D01*
X132036585Y-92872575D01*
X132089389Y-92826820D01*
X132158547Y-92816876D01*
X132222103Y-92845901D01*
X132246862Y-92878708D01*
X132248051Y-92877975D01*
X132343884Y-93033345D01*
X132467854Y-93157315D01*
X132617075Y-93249356D01*
X132617080Y-93249358D01*
X132783502Y-93304505D01*
X132783509Y-93304506D01*
X132886219Y-93314999D01*
X133811199Y-93314999D01*
X133811200Y-93314998D01*
X133811200Y-92282413D01*
X133975020Y-92315000D01*
X134147380Y-92315000D01*
X134311200Y-92282413D01*
X134311200Y-93314999D01*
X135236172Y-93314999D01*
X135236186Y-93314998D01*
X135338897Y-93304505D01*
X135505319Y-93249358D01*
X135505324Y-93249356D01*
X135654545Y-93157315D01*
X135778515Y-93033345D01*
X135870556Y-92884124D01*
X135870558Y-92884119D01*
X135925705Y-92717697D01*
X135925706Y-92717690D01*
X135936199Y-92614986D01*
X135936200Y-92614973D01*
X135936200Y-91690000D01*
X134903614Y-91690000D01*
X134936200Y-91526180D01*
X134936200Y-91439997D01*
X137480634Y-91439997D01*
X137480634Y-91440002D01*
X137500458Y-91666599D01*
X137500460Y-91666610D01*
X137559330Y-91886317D01*
X137559335Y-91886331D01*
X137655463Y-92092478D01*
X137706574Y-92165472D01*
X138385600Y-91486446D01*
X138385600Y-91492661D01*
X138412859Y-91594394D01*
X138465520Y-91685606D01*
X138539994Y-91760080D01*
X138631206Y-91812741D01*
X138732939Y-91840000D01*
X138739153Y-91840000D01*
X138060126Y-92519025D01*
X138133113Y-92570132D01*
X138133121Y-92570136D01*
X138339268Y-92666264D01*
X138339282Y-92666269D01*
X138558989Y-92725139D01*
X138559000Y-92725141D01*
X138785598Y-92744966D01*
X138785602Y-92744966D01*
X139012199Y-92725141D01*
X139012210Y-92725139D01*
X139231917Y-92666269D01*
X139231931Y-92666264D01*
X139438078Y-92570136D01*
X139511071Y-92519024D01*
X138832047Y-91840000D01*
X138838261Y-91840000D01*
X138939994Y-91812741D01*
X139031206Y-91760080D01*
X139105680Y-91685606D01*
X139158341Y-91594394D01*
X139185600Y-91492661D01*
X139185600Y-91486447D01*
X139864624Y-92165471D01*
X139915736Y-92092478D01*
X140011864Y-91886331D01*
X140011869Y-91886317D01*
X140070739Y-91666610D01*
X140070741Y-91666599D01*
X140090566Y-91440002D01*
X140090566Y-91439997D01*
X140070741Y-91213400D01*
X140070739Y-91213389D01*
X140011869Y-90993682D01*
X140011864Y-90993668D01*
X139915736Y-90787521D01*
X139915732Y-90787513D01*
X139864625Y-90714526D01*
X139185600Y-91393551D01*
X139185600Y-91387339D01*
X139158341Y-91285606D01*
X139105680Y-91194394D01*
X139031206Y-91119920D01*
X138939994Y-91067259D01*
X138838261Y-91040000D01*
X138832045Y-91040000D01*
X139511072Y-90360974D01*
X139438078Y-90309863D01*
X139231931Y-90213735D01*
X139231917Y-90213730D01*
X139012210Y-90154860D01*
X139012199Y-90154858D01*
X138785602Y-90135034D01*
X138785598Y-90135034D01*
X138559000Y-90154858D01*
X138558989Y-90154860D01*
X138339282Y-90213730D01*
X138339273Y-90213734D01*
X138133116Y-90309866D01*
X138133112Y-90309868D01*
X138060126Y-90360973D01*
X138060126Y-90360974D01*
X138739153Y-91040000D01*
X138732939Y-91040000D01*
X138631206Y-91067259D01*
X138539994Y-91119920D01*
X138465520Y-91194394D01*
X138412859Y-91285606D01*
X138385600Y-91387339D01*
X138385600Y-91393552D01*
X137706574Y-90714526D01*
X137706573Y-90714526D01*
X137655468Y-90787512D01*
X137655466Y-90787516D01*
X137559334Y-90993673D01*
X137559330Y-90993682D01*
X137500460Y-91213389D01*
X137500458Y-91213400D01*
X137480634Y-91439997D01*
X134936200Y-91439997D01*
X134936200Y-91353820D01*
X134903614Y-91190000D01*
X135936199Y-91190000D01*
X135936199Y-90265028D01*
X135936198Y-90265013D01*
X135925705Y-90162302D01*
X135870558Y-89995880D01*
X135870556Y-89995875D01*
X135778515Y-89846654D01*
X135654545Y-89722684D01*
X135505324Y-89630643D01*
X135505319Y-89630641D01*
X135338897Y-89575494D01*
X135338890Y-89575493D01*
X135236186Y-89565000D01*
X134311200Y-89565000D01*
X134311200Y-90597586D01*
X134147380Y-90565000D01*
X133975020Y-90565000D01*
X133811200Y-90597586D01*
X133811200Y-89565000D01*
X132886228Y-89565000D01*
X132886212Y-89565001D01*
X132783502Y-89575494D01*
X132617080Y-89630641D01*
X132617075Y-89630643D01*
X132467854Y-89722684D01*
X132343884Y-89846654D01*
X132248051Y-90002025D01*
X132246170Y-90000865D01*
X132207110Y-90045229D01*
X132139917Y-90064381D01*
X132073036Y-90044166D01*
X132027701Y-89991001D01*
X132016900Y-89940385D01*
X132016900Y-84452849D01*
X132036585Y-84385810D01*
X132053219Y-84365168D01*
X132216445Y-84201941D01*
X132216447Y-84201939D01*
X132346968Y-84015534D01*
X132443139Y-83809296D01*
X132502035Y-83589492D01*
X132521868Y-83362800D01*
X132521122Y-83354278D01*
X132503689Y-83155012D01*
X132502035Y-83136108D01*
X132443139Y-82916304D01*
X132346968Y-82710066D01*
X132229719Y-82542615D01*
X132216445Y-82523658D01*
X132055541Y-82362754D01*
X131869134Y-82232232D01*
X131869132Y-82232231D01*
X131662897Y-82136061D01*
X131662888Y-82136058D01*
X131443097Y-82077166D01*
X131443093Y-82077165D01*
X131443092Y-82077165D01*
X131443091Y-82077164D01*
X131443086Y-82077164D01*
X131216402Y-82057332D01*
X131216398Y-82057332D01*
X130989713Y-82077164D01*
X130989702Y-82077166D01*
X130769911Y-82136058D01*
X130769902Y-82136061D01*
X130563667Y-82232231D01*
X130563665Y-82232232D01*
X130377258Y-82362754D01*
X130216354Y-82523658D01*
X130085832Y-82710065D01*
X130085831Y-82710067D01*
X129989661Y-82916302D01*
X129989658Y-82916311D01*
X129930766Y-83136102D01*
X129930764Y-83136113D01*
X129910932Y-83362798D01*
X129910932Y-83362801D01*
X129930764Y-83589486D01*
X129930766Y-83589497D01*
X129989658Y-83809288D01*
X129989661Y-83809297D01*
X130085831Y-84015532D01*
X130085832Y-84015534D01*
X130216354Y-84201941D01*
X130379581Y-84365168D01*
X130413066Y-84426491D01*
X130415900Y-84452849D01*
X130415900Y-90281843D01*
X130396215Y-90348882D01*
X130343411Y-90394637D01*
X130274253Y-90404581D01*
X130210697Y-90375556D01*
X130192633Y-90356153D01*
X130082235Y-90208678D01*
X130082219Y-90208660D01*
X129892539Y-90018980D01*
X129892521Y-90018964D01*
X129677764Y-89858200D01*
X129677756Y-89858195D01*
X129442306Y-89729629D01*
X129442302Y-89729627D01*
X129190934Y-89635872D01*
X128928801Y-89578849D01*
X128928794Y-89578848D01*
X128661201Y-89559709D01*
X128661199Y-89559709D01*
X128393605Y-89578848D01*
X128393598Y-89578849D01*
X128131465Y-89635872D01*
X127880097Y-89729627D01*
X127880093Y-89729629D01*
X127644643Y-89858195D01*
X127644635Y-89858200D01*
X127429878Y-90018964D01*
X127429860Y-90018980D01*
X127240180Y-90208660D01*
X127240164Y-90208678D01*
X127079400Y-90423435D01*
X127079395Y-90423443D01*
X126950829Y-90658893D01*
X126950827Y-90658897D01*
X126857072Y-90910265D01*
X126800049Y-91172398D01*
X126800048Y-91172405D01*
X126780909Y-91439998D01*
X126780909Y-91440001D01*
X126800048Y-91707594D01*
X126800049Y-91707601D01*
X126857072Y-91969734D01*
X126950827Y-92221102D01*
X126950829Y-92221106D01*
X127079395Y-92456556D01*
X127079400Y-92456564D01*
X127240164Y-92671321D01*
X127240180Y-92671339D01*
X127429860Y-92861019D01*
X127429878Y-92861035D01*
X127644635Y-93021799D01*
X127644643Y-93021804D01*
X127880093Y-93150370D01*
X127880097Y-93150372D01*
X127880099Y-93150373D01*
X128131461Y-93244126D01*
X128131464Y-93244126D01*
X128131465Y-93244127D01*
X128210271Y-93261270D01*
X128393607Y-93301152D01*
X128640585Y-93318816D01*
X128661199Y-93320291D01*
X128661200Y-93320291D01*
X128661201Y-93320291D01*
X128680340Y-93318922D01*
X128928793Y-93301152D01*
X129190939Y-93244126D01*
X129442301Y-93150373D01*
X129677762Y-93021801D01*
X129892529Y-92861029D01*
X130082229Y-92671329D01*
X130192633Y-92523845D01*
X130248566Y-92481974D01*
X130318258Y-92476990D01*
X130379581Y-92510474D01*
X130413066Y-92571797D01*
X130415900Y-92598156D01*
X130415900Y-93855646D01*
X130446661Y-94010289D01*
X130446664Y-94010301D01*
X130507002Y-94155972D01*
X130507009Y-94155985D01*
X130594610Y-94287088D01*
X130594613Y-94287092D01*
X139232141Y-102924619D01*
X139265626Y-102985942D01*
X139260642Y-103055634D01*
X139218770Y-103111567D01*
X139153306Y-103135984D01*
X139144460Y-103136300D01*
X126316140Y-103136300D01*
X126249101Y-103116615D01*
X126228459Y-103099981D01*
X116000419Y-92871941D01*
X115966934Y-92810618D01*
X115964100Y-92784260D01*
X115964100Y-92364963D01*
X115983785Y-92297924D01*
X116036589Y-92252169D01*
X116105747Y-92242225D01*
X116169303Y-92271250D01*
X116196932Y-92305536D01*
X116279395Y-92456556D01*
X116279400Y-92456564D01*
X116440164Y-92671321D01*
X116440180Y-92671339D01*
X116629860Y-92861019D01*
X116629878Y-92861035D01*
X116844635Y-93021799D01*
X116844643Y-93021804D01*
X117080093Y-93150370D01*
X117080097Y-93150372D01*
X117080099Y-93150373D01*
X117331461Y-93244126D01*
X117331464Y-93244126D01*
X117331465Y-93244127D01*
X117410271Y-93261270D01*
X117593607Y-93301152D01*
X117840585Y-93318816D01*
X117861199Y-93320291D01*
X117861200Y-93320291D01*
X117861201Y-93320291D01*
X117880340Y-93318922D01*
X118128793Y-93301152D01*
X118390939Y-93244126D01*
X118642301Y-93150373D01*
X118877762Y-93021801D01*
X119092529Y-92861029D01*
X119282229Y-92671329D01*
X119443001Y-92456562D01*
X119571573Y-92221101D01*
X119665326Y-91969739D01*
X119722352Y-91707593D01*
X119741491Y-91440000D01*
X119741491Y-91439998D01*
X121380909Y-91439998D01*
X121380909Y-91440001D01*
X121400048Y-91707594D01*
X121400049Y-91707601D01*
X121457072Y-91969734D01*
X121550827Y-92221102D01*
X121550829Y-92221106D01*
X121679395Y-92456556D01*
X121679400Y-92456564D01*
X121840164Y-92671321D01*
X121840180Y-92671339D01*
X122029860Y-92861019D01*
X122029878Y-92861035D01*
X122244635Y-93021799D01*
X122244643Y-93021804D01*
X122480093Y-93150370D01*
X122480097Y-93150372D01*
X122480099Y-93150373D01*
X122731461Y-93244126D01*
X122731464Y-93244126D01*
X122731465Y-93244127D01*
X122810271Y-93261270D01*
X122993607Y-93301152D01*
X123240585Y-93318816D01*
X123261199Y-93320291D01*
X123261200Y-93320291D01*
X123261201Y-93320291D01*
X123280340Y-93318922D01*
X123528793Y-93301152D01*
X123790939Y-93244126D01*
X124042301Y-93150373D01*
X124277762Y-93021801D01*
X124492529Y-92861029D01*
X124682229Y-92671329D01*
X124843001Y-92456562D01*
X124971573Y-92221101D01*
X125065326Y-91969739D01*
X125122352Y-91707593D01*
X125141491Y-91440000D01*
X125122352Y-91172407D01*
X125071915Y-90940551D01*
X125065327Y-90910265D01*
X125054211Y-90880462D01*
X124971573Y-90658899D01*
X124960554Y-90638720D01*
X124843004Y-90423443D01*
X124842999Y-90423435D01*
X124682235Y-90208678D01*
X124682219Y-90208660D01*
X124492539Y-90018980D01*
X124492521Y-90018964D01*
X124277764Y-89858200D01*
X124277756Y-89858195D01*
X124042306Y-89729629D01*
X124042302Y-89729627D01*
X123790934Y-89635872D01*
X123528801Y-89578849D01*
X123528794Y-89578848D01*
X123261201Y-89559709D01*
X123261199Y-89559709D01*
X122993605Y-89578848D01*
X122993598Y-89578849D01*
X122731465Y-89635872D01*
X122480097Y-89729627D01*
X122480093Y-89729629D01*
X122244643Y-89858195D01*
X122244635Y-89858200D01*
X122029878Y-90018964D01*
X122029860Y-90018980D01*
X121840180Y-90208660D01*
X121840164Y-90208678D01*
X121679400Y-90423435D01*
X121679395Y-90423443D01*
X121550829Y-90658893D01*
X121550827Y-90658897D01*
X121457072Y-90910265D01*
X121400049Y-91172398D01*
X121400048Y-91172405D01*
X121380909Y-91439998D01*
X119741491Y-91439998D01*
X119722352Y-91172407D01*
X119671915Y-90940551D01*
X119665327Y-90910265D01*
X119654211Y-90880462D01*
X119571573Y-90658899D01*
X119560554Y-90638720D01*
X119443004Y-90423443D01*
X119442999Y-90423435D01*
X119282235Y-90208678D01*
X119282219Y-90208660D01*
X119092539Y-90018980D01*
X119092521Y-90018964D01*
X118877764Y-89858200D01*
X118877756Y-89858195D01*
X118642306Y-89729629D01*
X118642302Y-89729627D01*
X118390934Y-89635872D01*
X118128801Y-89578849D01*
X118128794Y-89578848D01*
X117861201Y-89559709D01*
X117861199Y-89559709D01*
X117593605Y-89578848D01*
X117593598Y-89578849D01*
X117331465Y-89635872D01*
X117080097Y-89729627D01*
X117080093Y-89729629D01*
X116844643Y-89858195D01*
X116844635Y-89858200D01*
X116629878Y-90018964D01*
X116629860Y-90018980D01*
X116440180Y-90208660D01*
X116440164Y-90208678D01*
X116279400Y-90423435D01*
X116279395Y-90423443D01*
X116196932Y-90574463D01*
X116147527Y-90623868D01*
X116079254Y-90638720D01*
X116013789Y-90614303D01*
X115971918Y-90558369D01*
X115964100Y-90515036D01*
X115964100Y-85620757D01*
X115964099Y-85620754D01*
X115945538Y-85527442D01*
X115937825Y-85488663D01*
X115933337Y-85466102D01*
X115915662Y-85423433D01*
X115872994Y-85320421D01*
X115785389Y-85189311D01*
X115673889Y-85077811D01*
X114057604Y-83461526D01*
X114024119Y-83400203D01*
X114021757Y-83363042D01*
X114030668Y-83261200D01*
X114010835Y-83034508D01*
X113951939Y-82814704D01*
X113855768Y-82608466D01*
X113725247Y-82422061D01*
X113725245Y-82422058D01*
X113564341Y-82261154D01*
X113377934Y-82130632D01*
X113377932Y-82130631D01*
X113171697Y-82034461D01*
X113171688Y-82034458D01*
X112951897Y-81975566D01*
X112951893Y-81975565D01*
X112951892Y-81975565D01*
X112951891Y-81975564D01*
X112951886Y-81975564D01*
X112725202Y-81955732D01*
X112725198Y-81955732D01*
X112498513Y-81975564D01*
X112498502Y-81975566D01*
X112278711Y-82034458D01*
X112278702Y-82034461D01*
X112072467Y-82130631D01*
X112072465Y-82130632D01*
X111886058Y-82261154D01*
X111725154Y-82422058D01*
X111594632Y-82608465D01*
X111594631Y-82608467D01*
X111498461Y-82814702D01*
X111498458Y-82814711D01*
X111439566Y-83034502D01*
X111439564Y-83034513D01*
X111419732Y-83261198D01*
X111419732Y-83261201D01*
X111439564Y-83487886D01*
X111439566Y-83487897D01*
X111498458Y-83707688D01*
X111498461Y-83707697D01*
X111594631Y-83913932D01*
X111594632Y-83913934D01*
X111725154Y-84100341D01*
X111886058Y-84261245D01*
X111886061Y-84261247D01*
X112072466Y-84391768D01*
X112278704Y-84487939D01*
X112278709Y-84487940D01*
X112278711Y-84487941D01*
X112298965Y-84493368D01*
X112498508Y-84546835D01*
X112660430Y-84561001D01*
X112725198Y-84566668D01*
X112725199Y-84566668D01*
X112725199Y-84566667D01*
X112725200Y-84566668D01*
X112827039Y-84557757D01*
X112895536Y-84571523D01*
X112925526Y-84593604D01*
X114326781Y-85994859D01*
X114360266Y-86056182D01*
X114363100Y-86082540D01*
X114363100Y-90523826D01*
X114343415Y-90590865D01*
X114290611Y-90636620D01*
X114221453Y-90646564D01*
X114157897Y-90617539D01*
X114130268Y-90583253D01*
X114043004Y-90423443D01*
X114042999Y-90423435D01*
X113882235Y-90208678D01*
X113882219Y-90208660D01*
X113692539Y-90018980D01*
X113692521Y-90018964D01*
X113477764Y-89858200D01*
X113477756Y-89858195D01*
X113242306Y-89729629D01*
X113242302Y-89729627D01*
X112990934Y-89635872D01*
X112728801Y-89578849D01*
X112728794Y-89578848D01*
X112461201Y-89559709D01*
X112461199Y-89559709D01*
X112193605Y-89578848D01*
X112193598Y-89578849D01*
X111931465Y-89635872D01*
X111680097Y-89729627D01*
X111680093Y-89729629D01*
X111444643Y-89858195D01*
X111444635Y-89858200D01*
X111229878Y-90018964D01*
X111229860Y-90018980D01*
X111040180Y-90208660D01*
X111040164Y-90208678D01*
X110879400Y-90423435D01*
X110879395Y-90423443D01*
X110750829Y-90658893D01*
X110750827Y-90658897D01*
X110657072Y-90910265D01*
X110600049Y-91172398D01*
X110600048Y-91172405D01*
X110580909Y-91439998D01*
X100929397Y-91439998D01*
X100938590Y-80946535D01*
X168885900Y-80946535D01*
X168885900Y-83442270D01*
X168885901Y-83442276D01*
X168892308Y-83501883D01*
X168942602Y-83636728D01*
X168942606Y-83636735D01*
X169028852Y-83751944D01*
X169028855Y-83751947D01*
X169144064Y-83838193D01*
X169144071Y-83838197D01*
X169278917Y-83888491D01*
X169278916Y-83888491D01*
X169285844Y-83889235D01*
X169338527Y-83894900D01*
X171834272Y-83894899D01*
X171893883Y-83888491D01*
X172028731Y-83838196D01*
X172143946Y-83751946D01*
X172230196Y-83636731D01*
X172280491Y-83501883D01*
X172286900Y-83442273D01*
X172286899Y-82194395D01*
X175993132Y-82194395D01*
X175993132Y-82194404D01*
X176012177Y-82448554D01*
X176058932Y-82653402D01*
X176068892Y-82697037D01*
X176162007Y-82934288D01*
X176289441Y-83155012D01*
X176448350Y-83354277D01*
X176635183Y-83527632D01*
X176845766Y-83671205D01*
X176845771Y-83671207D01*
X176845772Y-83671208D01*
X176845773Y-83671209D01*
X176921540Y-83707696D01*
X177075392Y-83781787D01*
X177075393Y-83781787D01*
X177075396Y-83781789D01*
X177318942Y-83856913D01*
X177570965Y-83894900D01*
X177825835Y-83894900D01*
X178077858Y-83856913D01*
X178321404Y-83781789D01*
X178551034Y-83671205D01*
X178761617Y-83527632D01*
X178948450Y-83354277D01*
X179107359Y-83155012D01*
X179234793Y-82934288D01*
X179327908Y-82697037D01*
X179384622Y-82448557D01*
X179403668Y-82194400D01*
X179398909Y-82130900D01*
X179384622Y-81940245D01*
X179373353Y-81890874D01*
X179327908Y-81691763D01*
X179234793Y-81454512D01*
X179107359Y-81233788D01*
X178948450Y-81034523D01*
X178761617Y-80861168D01*
X178551034Y-80717595D01*
X178551030Y-80717593D01*
X178551027Y-80717591D01*
X178551026Y-80717590D01*
X178369960Y-80630394D01*
X182999957Y-80630394D01*
X182999957Y-80630405D01*
X183020490Y-80878212D01*
X183020492Y-80878224D01*
X183081536Y-81119281D01*
X183181426Y-81347006D01*
X183317433Y-81555182D01*
X183317436Y-81555185D01*
X183485856Y-81738138D01*
X183682091Y-81890874D01*
X183900790Y-82009228D01*
X184135986Y-82089971D01*
X184381265Y-82130900D01*
X184629935Y-82130900D01*
X184875214Y-82089971D01*
X185110410Y-82009228D01*
X185329109Y-81890874D01*
X185525344Y-81738138D01*
X185693764Y-81555185D01*
X185829773Y-81347007D01*
X185929663Y-81119281D01*
X185990708Y-80878221D01*
X186001161Y-80752071D01*
X186011243Y-80630405D01*
X186011243Y-80630394D01*
X185990709Y-80382587D01*
X185990707Y-80382575D01*
X185929663Y-80141518D01*
X185829773Y-79913793D01*
X185693766Y-79705617D01*
X185596958Y-79600456D01*
X185525344Y-79522662D01*
X185329109Y-79369926D01*
X185329107Y-79369925D01*
X185329106Y-79369924D01*
X185110411Y-79251572D01*
X185110402Y-79251569D01*
X184875216Y-79170829D01*
X184629935Y-79129900D01*
X184381265Y-79129900D01*
X184135983Y-79170829D01*
X183900797Y-79251569D01*
X183900788Y-79251572D01*
X183682093Y-79369924D01*
X183485857Y-79522661D01*
X183317433Y-79705617D01*
X183181426Y-79913793D01*
X183081536Y-80141518D01*
X183020492Y-80382575D01*
X183020490Y-80382587D01*
X182999957Y-80630394D01*
X178369960Y-80630394D01*
X178321406Y-80607012D01*
X178321408Y-80607012D01*
X178077866Y-80531889D01*
X178077862Y-80531888D01*
X178077858Y-80531887D01*
X177956631Y-80513614D01*
X177825840Y-80493900D01*
X177825835Y-80493900D01*
X177570965Y-80493900D01*
X177570959Y-80493900D01*
X177414009Y-80517557D01*
X177318942Y-80531887D01*
X177318939Y-80531888D01*
X177318933Y-80531889D01*
X177075392Y-80607012D01*
X176845773Y-80717590D01*
X176845772Y-80717591D01*
X176635182Y-80861168D01*
X176448352Y-81034521D01*
X176448350Y-81034523D01*
X176289441Y-81233788D01*
X176162008Y-81454509D01*
X176068892Y-81691762D01*
X176068890Y-81691769D01*
X176012177Y-81940245D01*
X175993132Y-82194395D01*
X172286899Y-82194395D01*
X172286899Y-80946528D01*
X172280491Y-80886917D01*
X172277244Y-80878212D01*
X172230197Y-80752071D01*
X172230193Y-80752064D01*
X172143947Y-80636855D01*
X172143944Y-80636852D01*
X172028735Y-80550606D01*
X172028728Y-80550602D01*
X171893882Y-80500308D01*
X171893883Y-80500308D01*
X171834283Y-80493901D01*
X171834281Y-80493900D01*
X171834273Y-80493900D01*
X171834264Y-80493900D01*
X169338529Y-80493900D01*
X169338523Y-80493901D01*
X169278916Y-80500308D01*
X169144071Y-80550602D01*
X169144064Y-80550606D01*
X169028855Y-80636852D01*
X169028852Y-80636855D01*
X168942606Y-80752064D01*
X168942602Y-80752071D01*
X168892308Y-80886917D01*
X168885901Y-80946516D01*
X168885901Y-80946523D01*
X168885900Y-80946535D01*
X100938590Y-80946535D01*
X100943994Y-74777598D01*
X165674132Y-74777598D01*
X165674132Y-74777601D01*
X165693964Y-75004286D01*
X165693966Y-75004297D01*
X165752858Y-75224088D01*
X165752861Y-75224097D01*
X165849031Y-75430332D01*
X165849032Y-75430334D01*
X165979554Y-75616741D01*
X166140458Y-75777645D01*
X166140461Y-75777647D01*
X166326866Y-75908168D01*
X166533104Y-76004339D01*
X166752908Y-76063235D01*
X166914830Y-76077401D01*
X166979598Y-76083068D01*
X166979600Y-76083068D01*
X166979602Y-76083068D01*
X167036273Y-76078109D01*
X167206292Y-76063235D01*
X167426096Y-76004339D01*
X167632334Y-75908168D01*
X167818739Y-75777647D01*
X167979647Y-75616739D01*
X168110168Y-75430334D01*
X168206339Y-75224096D01*
X168265235Y-75004292D01*
X168285068Y-74777600D01*
X168285068Y-74777598D01*
X178374132Y-74777598D01*
X178374132Y-74777601D01*
X178393964Y-75004286D01*
X178393966Y-75004297D01*
X178452858Y-75224088D01*
X178452861Y-75224097D01*
X178549031Y-75430332D01*
X178549032Y-75430334D01*
X178679554Y-75616741D01*
X178840458Y-75777645D01*
X178840461Y-75777647D01*
X179026866Y-75908168D01*
X179233104Y-76004339D01*
X179452908Y-76063235D01*
X179614830Y-76077401D01*
X179679598Y-76083068D01*
X179679600Y-76083068D01*
X179679602Y-76083068D01*
X179736273Y-76078109D01*
X179906292Y-76063235D01*
X180126096Y-76004339D01*
X180332334Y-75908168D01*
X180518739Y-75777647D01*
X180665992Y-75630394D01*
X183000459Y-75630394D01*
X183000459Y-75630405D01*
X183020985Y-75878129D01*
X183020987Y-75878138D01*
X183082012Y-76119117D01*
X183181867Y-76346767D01*
X183282162Y-76500281D01*
X184022637Y-75759808D01*
X184039675Y-75823393D01*
X184105501Y-75937407D01*
X184198593Y-76030499D01*
X184312607Y-76096325D01*
X184376191Y-76113362D01*
X183635543Y-76854009D01*
X183682368Y-76890455D01*
X183682371Y-76890457D01*
X183900985Y-77008764D01*
X183900996Y-77008769D01*
X184136106Y-77089483D01*
X184381307Y-77130400D01*
X184629893Y-77130400D01*
X184875093Y-77089483D01*
X185110203Y-77008769D01*
X185110214Y-77008764D01*
X185328830Y-76890456D01*
X185328836Y-76890451D01*
X185375655Y-76854010D01*
X185375656Y-76854009D01*
X184635008Y-76113362D01*
X184698593Y-76096325D01*
X184812607Y-76030499D01*
X184905699Y-75937407D01*
X184971525Y-75823393D01*
X184988562Y-75759809D01*
X185729035Y-76500282D01*
X185829333Y-76346764D01*
X185929187Y-76119117D01*
X185990212Y-75878138D01*
X185990214Y-75878129D01*
X186010741Y-75630405D01*
X186010741Y-75630394D01*
X185990214Y-75382670D01*
X185990212Y-75382661D01*
X185929187Y-75141682D01*
X185829332Y-74914032D01*
X185729035Y-74760516D01*
X184988562Y-75500990D01*
X184971525Y-75437407D01*
X184905699Y-75323393D01*
X184812607Y-75230301D01*
X184698593Y-75164475D01*
X184635009Y-75147437D01*
X185375655Y-74406789D01*
X185375655Y-74406788D01*
X185328836Y-74370347D01*
X185328831Y-74370344D01*
X185110214Y-74252035D01*
X185110203Y-74252030D01*
X184875093Y-74171316D01*
X184629893Y-74130400D01*
X184381307Y-74130400D01*
X184136106Y-74171316D01*
X183900996Y-74252030D01*
X183900985Y-74252035D01*
X183682370Y-74370343D01*
X183635543Y-74406789D01*
X184376191Y-75147437D01*
X184312607Y-75164475D01*
X184198593Y-75230301D01*
X184105501Y-75323393D01*
X184039675Y-75437407D01*
X184022637Y-75500991D01*
X183282163Y-74760517D01*
X183181867Y-74914033D01*
X183181865Y-74914037D01*
X183082012Y-75141682D01*
X183020987Y-75382661D01*
X183020985Y-75382670D01*
X183000459Y-75630394D01*
X180665992Y-75630394D01*
X180679647Y-75616739D01*
X180810168Y-75430334D01*
X180906339Y-75224096D01*
X180965235Y-75004292D01*
X180985068Y-74777600D01*
X180983573Y-74760517D01*
X180965235Y-74550913D01*
X180965235Y-74550908D01*
X180906339Y-74331104D01*
X180810168Y-74124866D01*
X180679647Y-73938461D01*
X180679645Y-73938458D01*
X180518741Y-73777554D01*
X180332334Y-73647032D01*
X180332332Y-73647031D01*
X180126097Y-73550861D01*
X180126088Y-73550858D01*
X179906297Y-73491966D01*
X179906293Y-73491965D01*
X179906292Y-73491965D01*
X179906291Y-73491964D01*
X179906286Y-73491964D01*
X179679602Y-73472132D01*
X179679598Y-73472132D01*
X179452913Y-73491964D01*
X179452902Y-73491966D01*
X179233111Y-73550858D01*
X179233102Y-73550861D01*
X179026867Y-73647031D01*
X179026865Y-73647032D01*
X178840458Y-73777554D01*
X178679554Y-73938458D01*
X178549032Y-74124865D01*
X178549031Y-74124867D01*
X178452861Y-74331102D01*
X178452858Y-74331111D01*
X178393966Y-74550902D01*
X178393964Y-74550913D01*
X178374132Y-74777598D01*
X168285068Y-74777598D01*
X168283573Y-74760517D01*
X168265235Y-74550913D01*
X168265235Y-74550908D01*
X168206339Y-74331104D01*
X168110168Y-74124866D01*
X167979647Y-73938461D01*
X167979645Y-73938458D01*
X167818741Y-73777554D01*
X167632334Y-73647032D01*
X167632332Y-73647031D01*
X167426097Y-73550861D01*
X167426088Y-73550858D01*
X167206297Y-73491966D01*
X167206293Y-73491965D01*
X167206292Y-73491965D01*
X167206291Y-73491964D01*
X167206286Y-73491964D01*
X166979602Y-73472132D01*
X166979598Y-73472132D01*
X166752913Y-73491964D01*
X166752902Y-73491966D01*
X166533111Y-73550858D01*
X166533102Y-73550861D01*
X166326867Y-73647031D01*
X166326865Y-73647032D01*
X166140458Y-73777554D01*
X165979554Y-73938458D01*
X165849032Y-74124865D01*
X165849031Y-74124867D01*
X165752861Y-74331102D01*
X165752858Y-74331111D01*
X165693966Y-74550902D01*
X165693964Y-74550913D01*
X165674132Y-74777598D01*
X100943994Y-74777598D01*
X100950136Y-67767198D01*
X111419732Y-67767198D01*
X111419732Y-67767201D01*
X111439564Y-67993886D01*
X111439566Y-67993897D01*
X111498458Y-68213688D01*
X111498461Y-68213697D01*
X111594631Y-68419932D01*
X111594632Y-68419934D01*
X111725154Y-68606341D01*
X111886058Y-68767245D01*
X111886061Y-68767247D01*
X112072466Y-68897768D01*
X112278704Y-68993939D01*
X112278709Y-68993940D01*
X112278711Y-68993941D01*
X112467121Y-69044425D01*
X112526782Y-69080790D01*
X112557311Y-69143637D01*
X112549016Y-69213012D01*
X112504531Y-69266890D01*
X112467121Y-69283975D01*
X112278711Y-69334458D01*
X112278702Y-69334461D01*
X112072467Y-69430631D01*
X112072465Y-69430632D01*
X111886058Y-69561154D01*
X111725154Y-69722058D01*
X111594632Y-69908465D01*
X111594631Y-69908467D01*
X111498461Y-70114702D01*
X111498458Y-70114711D01*
X111439566Y-70334502D01*
X111439564Y-70334513D01*
X111419732Y-70561198D01*
X111419732Y-70561201D01*
X111439564Y-70787886D01*
X111439566Y-70787897D01*
X111498458Y-71007688D01*
X111498461Y-71007697D01*
X111594631Y-71213932D01*
X111594632Y-71213934D01*
X111725154Y-71400341D01*
X111886058Y-71561245D01*
X111886061Y-71561247D01*
X112072466Y-71691768D01*
X112278704Y-71787939D01*
X112278709Y-71787940D01*
X112278711Y-71787941D01*
X112298965Y-71793368D01*
X112498508Y-71846835D01*
X112660430Y-71861001D01*
X112725198Y-71866668D01*
X112725200Y-71866668D01*
X112725202Y-71866668D01*
X112781873Y-71861709D01*
X112951892Y-71846835D01*
X113171696Y-71787939D01*
X113377934Y-71691768D01*
X113564339Y-71561247D01*
X113725247Y-71400339D01*
X113855768Y-71213934D01*
X113951939Y-71007696D01*
X114010835Y-70787892D01*
X114021779Y-70662798D01*
X129910932Y-70662798D01*
X129910932Y-70662801D01*
X129930764Y-70889486D01*
X129930766Y-70889497D01*
X129989658Y-71109288D01*
X129989661Y-71109297D01*
X130085831Y-71315532D01*
X130085832Y-71315534D01*
X130216354Y-71501941D01*
X130377258Y-71662845D01*
X130377261Y-71662847D01*
X130563666Y-71793368D01*
X130769904Y-71889539D01*
X130989708Y-71948435D01*
X131151630Y-71962601D01*
X131216398Y-71968268D01*
X131216400Y-71968268D01*
X131216402Y-71968268D01*
X131273073Y-71963309D01*
X131443092Y-71948435D01*
X131662896Y-71889539D01*
X131869134Y-71793368D01*
X132055539Y-71662847D01*
X132216447Y-71501939D01*
X132346968Y-71315534D01*
X132443139Y-71109296D01*
X132502035Y-70889492D01*
X132521868Y-70662800D01*
X132521868Y-70662798D01*
X145100132Y-70662798D01*
X145100132Y-70662801D01*
X145119964Y-70889486D01*
X145119966Y-70889497D01*
X145178858Y-71109288D01*
X145178861Y-71109297D01*
X145275031Y-71315532D01*
X145275032Y-71315534D01*
X145405554Y-71501941D01*
X145566458Y-71662845D01*
X145566461Y-71662847D01*
X145752866Y-71793368D01*
X145959104Y-71889539D01*
X146178908Y-71948435D01*
X146340830Y-71962601D01*
X146405598Y-71968268D01*
X146405600Y-71968268D01*
X146405602Y-71968268D01*
X146462273Y-71963309D01*
X146632292Y-71948435D01*
X146852096Y-71889539D01*
X147058334Y-71793368D01*
X147244739Y-71662847D01*
X147405647Y-71501939D01*
X147536168Y-71315534D01*
X147632339Y-71109296D01*
X147691235Y-70889492D01*
X147711068Y-70662800D01*
X147711068Y-70662798D01*
X160289332Y-70662798D01*
X160289332Y-70662801D01*
X160309164Y-70889486D01*
X160309166Y-70889497D01*
X160368058Y-71109288D01*
X160368061Y-71109297D01*
X160464231Y-71315532D01*
X160464232Y-71315534D01*
X160594754Y-71501941D01*
X160755658Y-71662845D01*
X160755661Y-71662847D01*
X160942066Y-71793368D01*
X161148304Y-71889539D01*
X161368108Y-71948435D01*
X161530030Y-71962601D01*
X161594798Y-71968268D01*
X161594800Y-71968268D01*
X161594802Y-71968268D01*
X161651473Y-71963309D01*
X161821492Y-71948435D01*
X162041296Y-71889539D01*
X162247534Y-71793368D01*
X162433939Y-71662847D01*
X162594847Y-71501939D01*
X162725368Y-71315534D01*
X162821539Y-71109296D01*
X162880435Y-70889492D01*
X162900268Y-70662800D01*
X162880435Y-70436108D01*
X162821539Y-70216304D01*
X162725368Y-70010066D01*
X162594847Y-69823661D01*
X162594845Y-69823658D01*
X162433941Y-69662754D01*
X162247534Y-69532232D01*
X162247532Y-69532231D01*
X162041297Y-69436061D01*
X162041288Y-69436058D01*
X161821497Y-69377166D01*
X161821493Y-69377165D01*
X161821492Y-69377165D01*
X161821491Y-69377164D01*
X161821486Y-69377164D01*
X161594802Y-69357332D01*
X161594798Y-69357332D01*
X161368113Y-69377164D01*
X161368102Y-69377166D01*
X161148311Y-69436058D01*
X161148302Y-69436061D01*
X160942067Y-69532231D01*
X160942065Y-69532232D01*
X160755658Y-69662754D01*
X160594754Y-69823658D01*
X160464232Y-70010065D01*
X160464231Y-70010067D01*
X160368061Y-70216302D01*
X160368058Y-70216311D01*
X160309166Y-70436102D01*
X160309164Y-70436113D01*
X160289332Y-70662798D01*
X147711068Y-70662798D01*
X147691235Y-70436108D01*
X147632339Y-70216304D01*
X147536168Y-70010066D01*
X147405647Y-69823661D01*
X147405645Y-69823658D01*
X147244741Y-69662754D01*
X147058334Y-69532232D01*
X147058332Y-69532231D01*
X146852097Y-69436061D01*
X146852088Y-69436058D01*
X146632297Y-69377166D01*
X146632293Y-69377165D01*
X146632292Y-69377165D01*
X146632291Y-69377164D01*
X146632286Y-69377164D01*
X146405602Y-69357332D01*
X146405598Y-69357332D01*
X146178913Y-69377164D01*
X146178902Y-69377166D01*
X145959111Y-69436058D01*
X145959102Y-69436061D01*
X145752867Y-69532231D01*
X145752865Y-69532232D01*
X145566458Y-69662754D01*
X145405554Y-69823658D01*
X145275032Y-70010065D01*
X145275031Y-70010067D01*
X145178861Y-70216302D01*
X145178858Y-70216311D01*
X145119966Y-70436102D01*
X145119964Y-70436113D01*
X145100132Y-70662798D01*
X132521868Y-70662798D01*
X132502035Y-70436108D01*
X132443139Y-70216304D01*
X132346968Y-70010066D01*
X132216447Y-69823661D01*
X132216445Y-69823658D01*
X132055541Y-69662754D01*
X131869134Y-69532232D01*
X131869132Y-69532231D01*
X131662897Y-69436061D01*
X131662888Y-69436058D01*
X131443097Y-69377166D01*
X131443093Y-69377165D01*
X131443092Y-69377165D01*
X131443091Y-69377164D01*
X131443086Y-69377164D01*
X131216402Y-69357332D01*
X131216398Y-69357332D01*
X130989713Y-69377164D01*
X130989702Y-69377166D01*
X130769911Y-69436058D01*
X130769902Y-69436061D01*
X130563667Y-69532231D01*
X130563665Y-69532232D01*
X130377258Y-69662754D01*
X130216354Y-69823658D01*
X130085832Y-70010065D01*
X130085831Y-70010067D01*
X129989661Y-70216302D01*
X129989658Y-70216311D01*
X129930766Y-70436102D01*
X129930764Y-70436113D01*
X129910932Y-70662798D01*
X114021779Y-70662798D01*
X114030668Y-70561200D01*
X114010835Y-70334508D01*
X113951939Y-70114704D01*
X113855768Y-69908466D01*
X113725247Y-69722061D01*
X113725245Y-69722058D01*
X113564341Y-69561154D01*
X113377934Y-69430632D01*
X113377932Y-69430631D01*
X113171697Y-69334461D01*
X113171688Y-69334458D01*
X113017502Y-69293145D01*
X112983277Y-69283974D01*
X112923617Y-69247610D01*
X112893088Y-69184763D01*
X112901383Y-69115388D01*
X112945868Y-69061510D01*
X112983276Y-69044425D01*
X113171696Y-68993939D01*
X113377934Y-68897768D01*
X113564339Y-68767247D01*
X113725247Y-68606339D01*
X113855768Y-68419934D01*
X113951939Y-68213696D01*
X114010835Y-67993892D01*
X114030668Y-67767200D01*
X114010835Y-67540508D01*
X114004589Y-67517199D01*
X124146327Y-67517199D01*
X124146328Y-67517200D01*
X125109514Y-67517200D01*
X125105120Y-67521594D01*
X125052459Y-67612806D01*
X125025200Y-67714539D01*
X125025200Y-67819861D01*
X125052459Y-67921594D01*
X125105120Y-68012806D01*
X125109514Y-68017200D01*
X124146328Y-68017200D01*
X124198930Y-68213517D01*
X124198934Y-68213526D01*
X124295065Y-68419682D01*
X124425542Y-68606020D01*
X124586379Y-68766857D01*
X124772717Y-68897334D01*
X124978873Y-68993465D01*
X124978882Y-68993469D01*
X125175199Y-69046072D01*
X125175200Y-69046071D01*
X125175200Y-68082886D01*
X125179594Y-68087280D01*
X125270806Y-68139941D01*
X125372539Y-68167200D01*
X125477861Y-68167200D01*
X125579594Y-68139941D01*
X125670806Y-68087280D01*
X125675200Y-68082886D01*
X125675200Y-69046072D01*
X125871517Y-68993469D01*
X125871526Y-68993465D01*
X126077682Y-68897334D01*
X126264020Y-68766857D01*
X126424857Y-68606020D01*
X126555334Y-68419682D01*
X126651465Y-68213526D01*
X126651469Y-68213517D01*
X126704072Y-68017200D01*
X125740886Y-68017200D01*
X125745280Y-68012806D01*
X125797941Y-67921594D01*
X125825200Y-67819861D01*
X125825200Y-67767198D01*
X129860132Y-67767198D01*
X129860132Y-67767201D01*
X129879964Y-67993886D01*
X129879966Y-67993897D01*
X129938858Y-68213688D01*
X129938861Y-68213697D01*
X130035031Y-68419932D01*
X130035032Y-68419934D01*
X130165554Y-68606341D01*
X130326458Y-68767245D01*
X130326461Y-68767247D01*
X130512866Y-68897768D01*
X130719104Y-68993939D01*
X130938908Y-69052835D01*
X131100830Y-69067001D01*
X131165598Y-69072668D01*
X131165600Y-69072668D01*
X131165602Y-69072668D01*
X131222273Y-69067709D01*
X131392292Y-69052835D01*
X131612096Y-68993939D01*
X131818334Y-68897768D01*
X132004739Y-68767247D01*
X132165647Y-68606339D01*
X132296168Y-68419934D01*
X132392339Y-68213696D01*
X132451235Y-67993892D01*
X132471068Y-67767200D01*
X132451235Y-67540508D01*
X132444989Y-67517199D01*
X142586727Y-67517199D01*
X142586728Y-67517200D01*
X143549914Y-67517200D01*
X143545520Y-67521594D01*
X143492859Y-67612806D01*
X143465600Y-67714539D01*
X143465600Y-67819861D01*
X143492859Y-67921594D01*
X143545520Y-68012806D01*
X143549914Y-68017200D01*
X142586728Y-68017200D01*
X142639330Y-68213517D01*
X142639334Y-68213526D01*
X142735465Y-68419682D01*
X142865942Y-68606020D01*
X143026779Y-68766857D01*
X143213117Y-68897334D01*
X143419273Y-68993465D01*
X143419282Y-68993469D01*
X143615599Y-69046072D01*
X143615600Y-69046071D01*
X143615600Y-68082886D01*
X143619994Y-68087280D01*
X143711206Y-68139941D01*
X143812939Y-68167200D01*
X143918261Y-68167200D01*
X144019994Y-68139941D01*
X144111206Y-68087280D01*
X144115600Y-68082886D01*
X144115600Y-69046072D01*
X144311917Y-68993469D01*
X144311926Y-68993465D01*
X144518082Y-68897334D01*
X144704420Y-68766857D01*
X144865257Y-68606020D01*
X144995732Y-68419684D01*
X145022941Y-68361334D01*
X145069113Y-68308895D01*
X145136307Y-68289742D01*
X145203188Y-68309957D01*
X145247706Y-68361333D01*
X145275031Y-68419932D01*
X145275032Y-68419934D01*
X145405554Y-68606341D01*
X145566458Y-68767245D01*
X145566461Y-68767247D01*
X145752866Y-68897768D01*
X145959104Y-68993939D01*
X146178908Y-69052835D01*
X146340830Y-69067001D01*
X146405598Y-69072668D01*
X146405600Y-69072668D01*
X146405602Y-69072668D01*
X146462273Y-69067709D01*
X146632292Y-69052835D01*
X146852096Y-68993939D01*
X147058334Y-68897768D01*
X147244739Y-68767247D01*
X147405647Y-68606339D01*
X147536168Y-68419934D01*
X147632339Y-68213696D01*
X147691235Y-67993892D01*
X147711068Y-67767200D01*
X147691235Y-67540508D01*
X147684989Y-67517199D01*
X157826727Y-67517199D01*
X157826728Y-67517200D01*
X158789914Y-67517200D01*
X158785520Y-67521594D01*
X158732859Y-67612806D01*
X158705600Y-67714539D01*
X158705600Y-67819861D01*
X158732859Y-67921594D01*
X158785520Y-68012806D01*
X158789914Y-68017200D01*
X157826728Y-68017200D01*
X157879330Y-68213517D01*
X157879334Y-68213526D01*
X157975465Y-68419682D01*
X158105942Y-68606020D01*
X158266779Y-68766857D01*
X158453117Y-68897334D01*
X158659273Y-68993465D01*
X158659282Y-68993469D01*
X158855599Y-69046072D01*
X158855600Y-69046071D01*
X158855600Y-68082886D01*
X158859994Y-68087280D01*
X158951206Y-68139941D01*
X159052939Y-68167200D01*
X159158261Y-68167200D01*
X159259994Y-68139941D01*
X159351206Y-68087280D01*
X159355600Y-68082886D01*
X159355600Y-69046072D01*
X159551917Y-68993469D01*
X159551926Y-68993465D01*
X159758082Y-68897334D01*
X159944420Y-68766857D01*
X160105257Y-68606020D01*
X160235732Y-68419684D01*
X160237539Y-68415810D01*
X160283709Y-68363368D01*
X160350902Y-68344213D01*
X160417784Y-68364425D01*
X160462304Y-68415800D01*
X160464229Y-68419929D01*
X160464232Y-68419934D01*
X160594754Y-68606341D01*
X160755658Y-68767245D01*
X160755661Y-68767247D01*
X160942066Y-68897768D01*
X161148304Y-68993939D01*
X161368108Y-69052835D01*
X161530030Y-69067001D01*
X161594798Y-69072668D01*
X161594800Y-69072668D01*
X161594802Y-69072668D01*
X161651473Y-69067709D01*
X161821492Y-69052835D01*
X162041296Y-68993939D01*
X162247534Y-68897768D01*
X162433939Y-68767247D01*
X162594847Y-68606339D01*
X162725368Y-68419934D01*
X162821539Y-68213696D01*
X162880435Y-67993892D01*
X162900268Y-67767200D01*
X162880435Y-67540508D01*
X162874189Y-67517199D01*
X173015927Y-67517199D01*
X173015928Y-67517200D01*
X173979114Y-67517200D01*
X173974720Y-67521594D01*
X173922059Y-67612806D01*
X173894800Y-67714539D01*
X173894800Y-67819861D01*
X173922059Y-67921594D01*
X173974720Y-68012806D01*
X173979114Y-68017200D01*
X173015928Y-68017200D01*
X173068530Y-68213517D01*
X173068534Y-68213526D01*
X173164665Y-68419682D01*
X173295142Y-68606020D01*
X173455979Y-68766857D01*
X173642317Y-68897334D01*
X173848473Y-68993465D01*
X173848482Y-68993469D01*
X174044799Y-69046072D01*
X174044800Y-69046071D01*
X174044800Y-68082886D01*
X174049194Y-68087280D01*
X174140406Y-68139941D01*
X174242139Y-68167200D01*
X174347461Y-68167200D01*
X174449194Y-68139941D01*
X174540406Y-68087280D01*
X174544800Y-68082886D01*
X174544800Y-69046072D01*
X174741117Y-68993469D01*
X174741126Y-68993465D01*
X174947282Y-68897334D01*
X175133620Y-68766857D01*
X175294457Y-68606020D01*
X175424932Y-68419684D01*
X175452141Y-68361334D01*
X175498313Y-68308895D01*
X175565507Y-68289742D01*
X175632388Y-68309957D01*
X175676906Y-68361333D01*
X175704231Y-68419932D01*
X175704232Y-68419934D01*
X175834754Y-68606341D01*
X175995658Y-68767245D01*
X175995661Y-68767247D01*
X176182066Y-68897768D01*
X176388304Y-68993939D01*
X176608108Y-69052835D01*
X176770030Y-69067001D01*
X176834798Y-69072668D01*
X176834800Y-69072668D01*
X176834802Y-69072668D01*
X176891473Y-69067709D01*
X177061492Y-69052835D01*
X177281296Y-68993939D01*
X177487534Y-68897768D01*
X177673939Y-68767247D01*
X177834847Y-68606339D01*
X177965368Y-68419934D01*
X178061539Y-68213696D01*
X178120435Y-67993892D01*
X178140268Y-67767200D01*
X178120435Y-67540508D01*
X178061539Y-67320704D01*
X177965368Y-67114466D01*
X177848119Y-66947015D01*
X177834845Y-66928058D01*
X177673941Y-66767154D01*
X177487534Y-66636632D01*
X177487532Y-66636631D01*
X177281297Y-66540461D01*
X177281288Y-66540458D01*
X177061497Y-66481566D01*
X177061493Y-66481565D01*
X177061492Y-66481565D01*
X177061491Y-66481564D01*
X177061486Y-66481564D01*
X176834802Y-66461732D01*
X176834798Y-66461732D01*
X176608113Y-66481564D01*
X176608102Y-66481566D01*
X176388311Y-66540458D01*
X176388302Y-66540461D01*
X176182067Y-66636631D01*
X176182065Y-66636632D01*
X175995658Y-66767154D01*
X175834754Y-66928058D01*
X175743908Y-67057802D01*
X175704232Y-67114466D01*
X175677852Y-67171039D01*
X175676906Y-67173067D01*
X175630733Y-67225506D01*
X175563539Y-67244657D01*
X175496658Y-67224441D01*
X175452142Y-67173065D01*
X175424935Y-67114720D01*
X175424934Y-67114718D01*
X175294457Y-66928379D01*
X175133620Y-66767542D01*
X174947282Y-66637065D01*
X174741128Y-66540934D01*
X174544800Y-66488327D01*
X174544800Y-67451514D01*
X174540406Y-67447120D01*
X174449194Y-67394459D01*
X174347461Y-67367200D01*
X174242139Y-67367200D01*
X174140406Y-67394459D01*
X174049194Y-67447120D01*
X174044800Y-67451514D01*
X174044800Y-66488327D01*
X173848471Y-66540934D01*
X173642317Y-66637065D01*
X173455979Y-66767542D01*
X173295142Y-66928379D01*
X173164665Y-67114717D01*
X173068534Y-67320873D01*
X173068530Y-67320882D01*
X173015927Y-67517199D01*
X162874189Y-67517199D01*
X162821539Y-67320704D01*
X162725368Y-67114466D01*
X162608119Y-66947015D01*
X162594845Y-66928058D01*
X162433941Y-66767154D01*
X162247534Y-66636632D01*
X162247532Y-66636631D01*
X162041297Y-66540461D01*
X162041288Y-66540458D01*
X161821497Y-66481566D01*
X161821493Y-66481565D01*
X161821492Y-66481565D01*
X161821491Y-66481564D01*
X161821486Y-66481564D01*
X161594802Y-66461732D01*
X161594798Y-66461732D01*
X161368113Y-66481564D01*
X161368102Y-66481566D01*
X161148311Y-66540458D01*
X161148302Y-66540461D01*
X160942067Y-66636631D01*
X160942065Y-66636632D01*
X160755658Y-66767154D01*
X160594754Y-66928058D01*
X160464232Y-67114465D01*
X160464230Y-67114470D01*
X160462302Y-67118604D01*
X160416125Y-67171039D01*
X160348930Y-67190186D01*
X160282051Y-67169965D01*
X160237542Y-67118594D01*
X160235735Y-67114720D01*
X160235734Y-67114718D01*
X160105257Y-66928379D01*
X159944420Y-66767542D01*
X159758082Y-66637065D01*
X159551928Y-66540934D01*
X159355600Y-66488327D01*
X159355600Y-67451514D01*
X159351206Y-67447120D01*
X159259994Y-67394459D01*
X159158261Y-67367200D01*
X159052939Y-67367200D01*
X158951206Y-67394459D01*
X158859994Y-67447120D01*
X158855600Y-67451514D01*
X158855600Y-66488327D01*
X158659271Y-66540934D01*
X158453117Y-66637065D01*
X158266779Y-66767542D01*
X158105942Y-66928379D01*
X157975465Y-67114717D01*
X157879334Y-67320873D01*
X157879330Y-67320882D01*
X157826727Y-67517199D01*
X147684989Y-67517199D01*
X147632339Y-67320704D01*
X147536168Y-67114466D01*
X147418919Y-66947015D01*
X147405645Y-66928058D01*
X147244741Y-66767154D01*
X147058334Y-66636632D01*
X147058332Y-66636631D01*
X146852097Y-66540461D01*
X146852088Y-66540458D01*
X146632297Y-66481566D01*
X146632293Y-66481565D01*
X146632292Y-66481565D01*
X146632291Y-66481564D01*
X146632286Y-66481564D01*
X146405602Y-66461732D01*
X146405598Y-66461732D01*
X146178913Y-66481564D01*
X146178902Y-66481566D01*
X145959111Y-66540458D01*
X145959102Y-66540461D01*
X145752867Y-66636631D01*
X145752865Y-66636632D01*
X145566458Y-66767154D01*
X145405554Y-66928058D01*
X145314708Y-67057802D01*
X145275032Y-67114466D01*
X145248652Y-67171039D01*
X145247706Y-67173067D01*
X145201533Y-67225506D01*
X145134339Y-67244657D01*
X145067458Y-67224441D01*
X145022942Y-67173065D01*
X144995735Y-67114720D01*
X144995734Y-67114718D01*
X144865257Y-66928379D01*
X144704420Y-66767542D01*
X144518082Y-66637065D01*
X144311928Y-66540934D01*
X144115600Y-66488327D01*
X144115600Y-67451514D01*
X144111206Y-67447120D01*
X144019994Y-67394459D01*
X143918261Y-67367200D01*
X143812939Y-67367200D01*
X143711206Y-67394459D01*
X143619994Y-67447120D01*
X143615600Y-67451514D01*
X143615600Y-66488327D01*
X143419271Y-66540934D01*
X143213117Y-66637065D01*
X143026779Y-66767542D01*
X142865942Y-66928379D01*
X142735465Y-67114717D01*
X142639334Y-67320873D01*
X142639330Y-67320882D01*
X142586727Y-67517199D01*
X132444989Y-67517199D01*
X132392339Y-67320704D01*
X132296168Y-67114466D01*
X132178919Y-66947015D01*
X132165645Y-66928058D01*
X132004741Y-66767154D01*
X131818334Y-66636632D01*
X131818332Y-66636631D01*
X131612097Y-66540461D01*
X131612088Y-66540458D01*
X131392297Y-66481566D01*
X131392293Y-66481565D01*
X131392292Y-66481565D01*
X131392291Y-66481564D01*
X131392286Y-66481564D01*
X131165602Y-66461732D01*
X131165598Y-66461732D01*
X130938913Y-66481564D01*
X130938902Y-66481566D01*
X130719111Y-66540458D01*
X130719102Y-66540461D01*
X130512867Y-66636631D01*
X130512865Y-66636632D01*
X130326458Y-66767154D01*
X130165554Y-66928058D01*
X130035032Y-67114465D01*
X130035031Y-67114467D01*
X129938861Y-67320702D01*
X129938858Y-67320711D01*
X129879966Y-67540502D01*
X129879964Y-67540513D01*
X129860132Y-67767198D01*
X125825200Y-67767198D01*
X125825200Y-67714539D01*
X125797941Y-67612806D01*
X125745280Y-67521594D01*
X125740886Y-67517200D01*
X126704072Y-67517200D01*
X126704072Y-67517199D01*
X126651469Y-67320882D01*
X126651465Y-67320873D01*
X126555334Y-67114717D01*
X126424857Y-66928379D01*
X126264020Y-66767542D01*
X126077682Y-66637065D01*
X125871528Y-66540934D01*
X125675200Y-66488327D01*
X125675200Y-67451514D01*
X125670806Y-67447120D01*
X125579594Y-67394459D01*
X125477861Y-67367200D01*
X125372539Y-67367200D01*
X125270806Y-67394459D01*
X125179594Y-67447120D01*
X125175200Y-67451514D01*
X125175200Y-66488327D01*
X124978871Y-66540934D01*
X124772717Y-66637065D01*
X124586379Y-66767542D01*
X124425542Y-66928379D01*
X124295065Y-67114717D01*
X124198934Y-67320873D01*
X124198930Y-67320882D01*
X124146327Y-67517199D01*
X114004589Y-67517199D01*
X113951939Y-67320704D01*
X113855768Y-67114466D01*
X113738519Y-66947015D01*
X113725245Y-66928058D01*
X113564341Y-66767154D01*
X113377934Y-66636632D01*
X113377932Y-66636631D01*
X113171697Y-66540461D01*
X113171688Y-66540458D01*
X112951897Y-66481566D01*
X112951893Y-66481565D01*
X112951892Y-66481565D01*
X112951891Y-66481564D01*
X112951886Y-66481564D01*
X112725202Y-66461732D01*
X112725198Y-66461732D01*
X112498513Y-66481564D01*
X112498502Y-66481566D01*
X112278711Y-66540458D01*
X112278702Y-66540461D01*
X112072467Y-66636631D01*
X112072465Y-66636632D01*
X111886058Y-66767154D01*
X111725154Y-66928058D01*
X111594632Y-67114465D01*
X111594631Y-67114467D01*
X111498461Y-67320702D01*
X111498458Y-67320711D01*
X111439566Y-67540502D01*
X111439564Y-67540513D01*
X111419732Y-67767198D01*
X100950136Y-67767198D01*
X100955486Y-61659535D01*
X113405800Y-61659535D01*
X113405800Y-63755270D01*
X113405801Y-63755276D01*
X113412208Y-63814883D01*
X113462502Y-63949728D01*
X113462506Y-63949735D01*
X113548752Y-64064944D01*
X113548755Y-64064947D01*
X113663964Y-64151193D01*
X113663971Y-64151197D01*
X113798817Y-64201491D01*
X113798816Y-64201491D01*
X113805728Y-64202234D01*
X113858427Y-64207900D01*
X115859172Y-64207899D01*
X115918783Y-64201491D01*
X116053631Y-64151196D01*
X116168846Y-64064946D01*
X116255096Y-63949731D01*
X116265490Y-63921860D01*
X116307360Y-63865927D01*
X116372823Y-63841508D01*
X116441097Y-63856358D01*
X116454546Y-63864865D01*
X116637262Y-63997617D01*
X116729758Y-64044746D01*
X116841044Y-64101449D01*
X117058551Y-64172121D01*
X117058552Y-64172121D01*
X117058555Y-64172122D01*
X117284446Y-64207900D01*
X117284447Y-64207900D01*
X117513153Y-64207900D01*
X117513154Y-64207900D01*
X117739045Y-64172122D01*
X117739048Y-64172121D01*
X117739049Y-64172121D01*
X117956555Y-64101449D01*
X117956555Y-64101448D01*
X117956558Y-64101448D01*
X118160338Y-63997617D01*
X118345366Y-63863186D01*
X118507086Y-63701466D01*
X118568792Y-63616534D01*
X118624119Y-63573870D01*
X118693732Y-63567891D01*
X118755527Y-63600496D01*
X118769426Y-63616535D01*
X118830897Y-63701141D01*
X118830897Y-63701142D01*
X118992557Y-63862802D01*
X119177523Y-63997188D01*
X119381229Y-64100982D01*
X119598671Y-64171634D01*
X119688800Y-64185909D01*
X119688800Y-63198147D01*
X119726508Y-63219918D01*
X119866391Y-63257400D01*
X120011209Y-63257400D01*
X120151092Y-63219918D01*
X120188800Y-63198147D01*
X120188800Y-64185908D01*
X120278928Y-64171634D01*
X120496370Y-64100982D01*
X120700076Y-63997188D01*
X120885042Y-63862802D01*
X121046702Y-63701142D01*
X121181088Y-63516176D01*
X121284882Y-63312470D01*
X121355534Y-63095028D01*
X121377332Y-62957400D01*
X120429548Y-62957400D01*
X120451318Y-62919692D01*
X120488800Y-62779809D01*
X120488800Y-62634991D01*
X120451318Y-62495108D01*
X120429548Y-62457400D01*
X121377332Y-62457400D01*
X121355534Y-62319771D01*
X121284882Y-62102329D01*
X121181088Y-61898623D01*
X121046702Y-61713657D01*
X120972380Y-61639335D01*
X131744600Y-61639335D01*
X131744600Y-63735070D01*
X131744601Y-63735076D01*
X131751008Y-63794683D01*
X131801302Y-63929528D01*
X131801306Y-63929535D01*
X131887552Y-64044744D01*
X131887555Y-64044747D01*
X132002764Y-64130993D01*
X132002771Y-64130997D01*
X132137617Y-64181291D01*
X132137616Y-64181291D01*
X132142286Y-64181793D01*
X132197227Y-64187700D01*
X134197972Y-64187699D01*
X134257583Y-64181291D01*
X134392431Y-64130996D01*
X134507646Y-64044746D01*
X134593896Y-63929531D01*
X134604290Y-63901660D01*
X134646160Y-63845727D01*
X134711623Y-63821308D01*
X134779897Y-63836158D01*
X134793346Y-63844665D01*
X134976062Y-63977417D01*
X135178927Y-64080782D01*
X135179844Y-64081249D01*
X135397351Y-64151921D01*
X135397352Y-64151921D01*
X135397355Y-64151922D01*
X135623246Y-64187700D01*
X135623247Y-64187700D01*
X135851953Y-64187700D01*
X135851954Y-64187700D01*
X136077845Y-64151922D01*
X136077848Y-64151921D01*
X136077849Y-64151921D01*
X136295355Y-64081249D01*
X136295355Y-64081248D01*
X136295358Y-64081248D01*
X136499138Y-63977417D01*
X136684166Y-63842986D01*
X136845886Y-63681266D01*
X136907592Y-63596334D01*
X136962919Y-63553670D01*
X137032532Y-63547691D01*
X137094327Y-63580296D01*
X137108226Y-63596335D01*
X137169697Y-63680941D01*
X137169697Y-63680942D01*
X137331357Y-63842602D01*
X137516323Y-63976988D01*
X137720029Y-64080782D01*
X137937471Y-64151434D01*
X138027600Y-64165709D01*
X138027600Y-63177947D01*
X138065308Y-63199718D01*
X138205191Y-63237200D01*
X138350009Y-63237200D01*
X138489892Y-63199718D01*
X138527600Y-63177947D01*
X138527600Y-64165708D01*
X138617728Y-64151434D01*
X138835170Y-64080782D01*
X139038876Y-63976988D01*
X139223842Y-63842602D01*
X139385502Y-63680942D01*
X139519888Y-63495976D01*
X139623682Y-63292270D01*
X139694334Y-63074828D01*
X139716132Y-62937200D01*
X138768348Y-62937200D01*
X138790118Y-62899492D01*
X138827600Y-62759609D01*
X138827600Y-62614791D01*
X138790118Y-62474908D01*
X138768348Y-62437200D01*
X139716132Y-62437200D01*
X139694334Y-62299571D01*
X139623682Y-62082129D01*
X139519888Y-61878423D01*
X139385502Y-61693457D01*
X139382180Y-61690135D01*
X147035400Y-61690135D01*
X147035400Y-63785870D01*
X147035401Y-63785876D01*
X147041808Y-63845483D01*
X147092102Y-63980328D01*
X147092106Y-63980335D01*
X147178352Y-64095544D01*
X147178355Y-64095547D01*
X147293564Y-64181793D01*
X147293571Y-64181797D01*
X147428417Y-64232091D01*
X147428416Y-64232091D01*
X147435344Y-64232835D01*
X147488027Y-64238500D01*
X149488772Y-64238499D01*
X149548383Y-64232091D01*
X149683231Y-64181796D01*
X149798446Y-64095546D01*
X149884696Y-63980331D01*
X149895090Y-63952460D01*
X149936960Y-63896527D01*
X150002423Y-63872108D01*
X150070697Y-63886958D01*
X150084146Y-63895465D01*
X150266862Y-64028217D01*
X150410586Y-64101448D01*
X150470644Y-64132049D01*
X150688151Y-64202721D01*
X150688152Y-64202721D01*
X150688155Y-64202722D01*
X150914046Y-64238500D01*
X150914047Y-64238500D01*
X151142753Y-64238500D01*
X151142754Y-64238500D01*
X151368645Y-64202722D01*
X151368648Y-64202721D01*
X151368649Y-64202721D01*
X151586155Y-64132049D01*
X151586155Y-64132048D01*
X151586158Y-64132048D01*
X151789938Y-64028217D01*
X151974966Y-63893786D01*
X152136686Y-63732066D01*
X152198392Y-63647134D01*
X152253719Y-63604470D01*
X152323332Y-63598491D01*
X152385127Y-63631096D01*
X152399026Y-63647135D01*
X152460497Y-63731741D01*
X152460497Y-63731742D01*
X152622157Y-63893402D01*
X152807123Y-64027788D01*
X153010829Y-64131582D01*
X153228271Y-64202234D01*
X153318400Y-64216509D01*
X153318400Y-63228747D01*
X153356108Y-63250518D01*
X153495991Y-63288000D01*
X153640809Y-63288000D01*
X153780692Y-63250518D01*
X153818400Y-63228747D01*
X153818400Y-64216508D01*
X153908528Y-64202234D01*
X154125970Y-64131582D01*
X154329676Y-64027788D01*
X154514642Y-63893402D01*
X154676302Y-63731742D01*
X154810688Y-63546776D01*
X154914482Y-63343070D01*
X154985134Y-63125628D01*
X155006932Y-62988000D01*
X154059148Y-62988000D01*
X154080918Y-62950292D01*
X154118400Y-62810409D01*
X154118400Y-62665591D01*
X154080918Y-62525708D01*
X154059148Y-62488000D01*
X155006932Y-62488000D01*
X154985134Y-62350371D01*
X154914482Y-62132929D01*
X154810688Y-61929223D01*
X154676302Y-61744257D01*
X154571380Y-61639335D01*
X162224600Y-61639335D01*
X162224600Y-63735070D01*
X162224601Y-63735076D01*
X162231008Y-63794683D01*
X162281302Y-63929528D01*
X162281306Y-63929535D01*
X162367552Y-64044744D01*
X162367555Y-64044747D01*
X162482764Y-64130993D01*
X162482771Y-64130997D01*
X162617617Y-64181291D01*
X162617616Y-64181291D01*
X162622286Y-64181793D01*
X162677227Y-64187700D01*
X164677972Y-64187699D01*
X164737583Y-64181291D01*
X164872431Y-64130996D01*
X164987646Y-64044746D01*
X165073896Y-63929531D01*
X165084290Y-63901660D01*
X165126160Y-63845727D01*
X165191623Y-63821308D01*
X165259897Y-63836158D01*
X165273346Y-63844665D01*
X165456062Y-63977417D01*
X165658927Y-64080782D01*
X165659844Y-64081249D01*
X165877351Y-64151921D01*
X165877352Y-64151921D01*
X165877355Y-64151922D01*
X166103246Y-64187700D01*
X166103247Y-64187700D01*
X166331953Y-64187700D01*
X166331954Y-64187700D01*
X166557845Y-64151922D01*
X166557848Y-64151921D01*
X166557849Y-64151921D01*
X166775355Y-64081249D01*
X166775355Y-64081248D01*
X166775358Y-64081248D01*
X166979138Y-63977417D01*
X167164166Y-63842986D01*
X167325886Y-63681266D01*
X167387592Y-63596334D01*
X167442919Y-63553670D01*
X167512532Y-63547691D01*
X167574327Y-63580296D01*
X167588226Y-63596335D01*
X167649697Y-63680941D01*
X167649697Y-63680942D01*
X167811357Y-63842602D01*
X167996323Y-63976988D01*
X168200029Y-64080782D01*
X168417471Y-64151434D01*
X168507600Y-64165709D01*
X168507600Y-63177947D01*
X168545308Y-63199718D01*
X168685191Y-63237200D01*
X168830009Y-63237200D01*
X168969892Y-63199718D01*
X169007600Y-63177947D01*
X169007600Y-64165708D01*
X169097728Y-64151434D01*
X169315170Y-64080782D01*
X169518876Y-63976988D01*
X169703842Y-63842602D01*
X169865502Y-63680942D01*
X169999888Y-63495976D01*
X170103682Y-63292270D01*
X170174334Y-63074828D01*
X170196132Y-62937200D01*
X169248348Y-62937200D01*
X169270118Y-62899492D01*
X169307600Y-62759609D01*
X169307600Y-62614791D01*
X169270118Y-62474908D01*
X169248348Y-62437200D01*
X170196132Y-62437200D01*
X170174334Y-62299571D01*
X170103682Y-62082129D01*
X169999888Y-61878423D01*
X169865502Y-61693457D01*
X169862180Y-61690135D01*
X176753400Y-61690135D01*
X176753400Y-63785870D01*
X176753401Y-63785876D01*
X176759808Y-63845483D01*
X176810102Y-63980328D01*
X176810106Y-63980335D01*
X176896352Y-64095544D01*
X176896355Y-64095547D01*
X177011564Y-64181793D01*
X177011571Y-64181797D01*
X177146417Y-64232091D01*
X177146416Y-64232091D01*
X177153344Y-64232835D01*
X177206027Y-64238500D01*
X179206772Y-64238499D01*
X179266383Y-64232091D01*
X179401231Y-64181796D01*
X179516446Y-64095546D01*
X179602696Y-63980331D01*
X179613090Y-63952460D01*
X179654960Y-63896527D01*
X179720423Y-63872108D01*
X179788697Y-63886958D01*
X179802146Y-63895465D01*
X179984862Y-64028217D01*
X180128586Y-64101448D01*
X180188644Y-64132049D01*
X180406151Y-64202721D01*
X180406152Y-64202721D01*
X180406155Y-64202722D01*
X180632046Y-64238500D01*
X180632047Y-64238500D01*
X180860753Y-64238500D01*
X180860754Y-64238500D01*
X181086645Y-64202722D01*
X181086648Y-64202721D01*
X181086649Y-64202721D01*
X181304155Y-64132049D01*
X181304155Y-64132048D01*
X181304158Y-64132048D01*
X181507938Y-64028217D01*
X181692966Y-63893786D01*
X181854686Y-63732066D01*
X181916392Y-63647134D01*
X181971719Y-63604470D01*
X182041332Y-63598491D01*
X182103127Y-63631096D01*
X182117026Y-63647135D01*
X182178497Y-63731741D01*
X182178497Y-63731742D01*
X182340157Y-63893402D01*
X182525123Y-64027788D01*
X182728829Y-64131582D01*
X182946271Y-64202234D01*
X183036400Y-64216509D01*
X183036400Y-63228747D01*
X183074108Y-63250518D01*
X183213991Y-63288000D01*
X183358809Y-63288000D01*
X183498692Y-63250518D01*
X183536400Y-63228747D01*
X183536400Y-64216508D01*
X183626528Y-64202234D01*
X183843970Y-64131582D01*
X184047676Y-64027788D01*
X184232642Y-63893402D01*
X184394302Y-63731742D01*
X184528688Y-63546776D01*
X184632482Y-63343070D01*
X184703134Y-63125628D01*
X184724932Y-62988000D01*
X183777148Y-62988000D01*
X183798918Y-62950292D01*
X183836400Y-62810409D01*
X183836400Y-62665591D01*
X183798918Y-62525708D01*
X183777148Y-62488000D01*
X184724932Y-62488000D01*
X184703134Y-62350371D01*
X184632482Y-62132929D01*
X184528688Y-61929223D01*
X184394302Y-61744257D01*
X184232642Y-61582597D01*
X184047676Y-61448211D01*
X183843968Y-61344417D01*
X183626524Y-61273765D01*
X183536400Y-61259490D01*
X183536400Y-62247252D01*
X183498692Y-62225482D01*
X183358809Y-62188000D01*
X183213991Y-62188000D01*
X183074108Y-62225482D01*
X183036400Y-62247252D01*
X183036400Y-61259490D01*
X183036399Y-61259490D01*
X182946275Y-61273765D01*
X182728831Y-61344417D01*
X182525123Y-61448211D01*
X182340157Y-61582597D01*
X182178497Y-61744257D01*
X182117027Y-61828864D01*
X182061697Y-61871529D01*
X181992084Y-61877508D01*
X181930289Y-61844902D01*
X181916391Y-61828864D01*
X181914825Y-61826708D01*
X181854686Y-61743934D01*
X181692966Y-61582214D01*
X181507938Y-61447783D01*
X181447882Y-61417183D01*
X181304155Y-61343950D01*
X181086648Y-61273278D01*
X180901212Y-61243908D01*
X180860754Y-61237500D01*
X180632046Y-61237500D01*
X180591588Y-61243908D01*
X180406153Y-61273278D01*
X180406150Y-61273278D01*
X180188644Y-61343950D01*
X179984861Y-61447783D01*
X179802159Y-61580525D01*
X179736352Y-61604005D01*
X179668298Y-61588180D01*
X179619603Y-61538074D01*
X179613090Y-61523538D01*
X179602696Y-61495669D01*
X179602693Y-61495664D01*
X179516447Y-61380455D01*
X179516444Y-61380452D01*
X179401235Y-61294206D01*
X179401228Y-61294202D01*
X179266382Y-61243908D01*
X179266383Y-61243908D01*
X179206783Y-61237501D01*
X179206781Y-61237500D01*
X179206773Y-61237500D01*
X179206764Y-61237500D01*
X177206029Y-61237500D01*
X177206023Y-61237501D01*
X177146416Y-61243908D01*
X177011571Y-61294202D01*
X177011564Y-61294206D01*
X176896355Y-61380452D01*
X176896352Y-61380455D01*
X176810106Y-61495664D01*
X176810102Y-61495671D01*
X176759808Y-61630517D01*
X176753401Y-61690116D01*
X176753400Y-61690135D01*
X169862180Y-61690135D01*
X169703842Y-61531797D01*
X169518876Y-61397411D01*
X169315168Y-61293617D01*
X169097724Y-61222965D01*
X169007600Y-61208690D01*
X169007600Y-62196452D01*
X168969892Y-62174682D01*
X168830009Y-62137200D01*
X168685191Y-62137200D01*
X168545308Y-62174682D01*
X168507600Y-62196452D01*
X168507600Y-61208690D01*
X168507599Y-61208690D01*
X168417475Y-61222965D01*
X168200031Y-61293617D01*
X167996323Y-61397411D01*
X167811357Y-61531797D01*
X167649697Y-61693457D01*
X167588227Y-61778064D01*
X167532897Y-61820729D01*
X167463284Y-61826708D01*
X167401489Y-61794102D01*
X167387591Y-61778064D01*
X167325886Y-61693134D01*
X167164166Y-61531414D01*
X166979138Y-61396983D01*
X166886642Y-61349854D01*
X166775355Y-61293150D01*
X166557848Y-61222478D01*
X166372412Y-61193108D01*
X166331954Y-61186700D01*
X166103246Y-61186700D01*
X166062788Y-61193108D01*
X165877353Y-61222478D01*
X165877350Y-61222478D01*
X165659844Y-61293150D01*
X165456061Y-61396983D01*
X165320240Y-61495664D01*
X165281875Y-61523538D01*
X165273359Y-61529725D01*
X165207552Y-61553205D01*
X165139498Y-61537380D01*
X165090803Y-61487274D01*
X165084290Y-61472738D01*
X165073896Y-61444869D01*
X165073893Y-61444864D01*
X164987647Y-61329655D01*
X164987644Y-61329652D01*
X164872435Y-61243406D01*
X164872428Y-61243402D01*
X164737582Y-61193108D01*
X164737583Y-61193108D01*
X164677983Y-61186701D01*
X164677981Y-61186700D01*
X164677973Y-61186700D01*
X164677964Y-61186700D01*
X162677229Y-61186700D01*
X162677223Y-61186701D01*
X162617616Y-61193108D01*
X162482771Y-61243402D01*
X162482764Y-61243406D01*
X162367555Y-61329652D01*
X162367552Y-61329655D01*
X162281306Y-61444864D01*
X162281302Y-61444871D01*
X162231008Y-61579717D01*
X162224601Y-61639316D01*
X162224600Y-61639335D01*
X154571380Y-61639335D01*
X154514642Y-61582597D01*
X154329676Y-61448211D01*
X154125968Y-61344417D01*
X153908524Y-61273765D01*
X153818400Y-61259490D01*
X153818400Y-62247252D01*
X153780692Y-62225482D01*
X153640809Y-62188000D01*
X153495991Y-62188000D01*
X153356108Y-62225482D01*
X153318400Y-62247252D01*
X153318400Y-61259490D01*
X153318399Y-61259490D01*
X153228275Y-61273765D01*
X153010831Y-61344417D01*
X152807123Y-61448211D01*
X152622157Y-61582597D01*
X152460497Y-61744257D01*
X152399027Y-61828864D01*
X152343697Y-61871529D01*
X152274084Y-61877508D01*
X152212289Y-61844902D01*
X152198391Y-61828864D01*
X152196825Y-61826708D01*
X152136686Y-61743934D01*
X151974966Y-61582214D01*
X151789938Y-61447783D01*
X151729882Y-61417183D01*
X151586155Y-61343950D01*
X151368648Y-61273278D01*
X151183212Y-61243908D01*
X151142754Y-61237500D01*
X150914046Y-61237500D01*
X150873588Y-61243908D01*
X150688153Y-61273278D01*
X150688150Y-61273278D01*
X150470644Y-61343950D01*
X150266861Y-61447783D01*
X150084159Y-61580525D01*
X150018352Y-61604005D01*
X149950298Y-61588180D01*
X149901603Y-61538074D01*
X149895090Y-61523538D01*
X149884696Y-61495669D01*
X149884693Y-61495664D01*
X149798447Y-61380455D01*
X149798444Y-61380452D01*
X149683235Y-61294206D01*
X149683228Y-61294202D01*
X149548382Y-61243908D01*
X149548383Y-61243908D01*
X149488783Y-61237501D01*
X149488781Y-61237500D01*
X149488773Y-61237500D01*
X149488764Y-61237500D01*
X147488029Y-61237500D01*
X147488023Y-61237501D01*
X147428416Y-61243908D01*
X147293571Y-61294202D01*
X147293564Y-61294206D01*
X147178355Y-61380452D01*
X147178352Y-61380455D01*
X147092106Y-61495664D01*
X147092102Y-61495671D01*
X147041808Y-61630517D01*
X147035401Y-61690116D01*
X147035400Y-61690135D01*
X139382180Y-61690135D01*
X139223842Y-61531797D01*
X139038876Y-61397411D01*
X138835168Y-61293617D01*
X138617724Y-61222965D01*
X138527600Y-61208690D01*
X138527600Y-62196452D01*
X138489892Y-62174682D01*
X138350009Y-62137200D01*
X138205191Y-62137200D01*
X138065308Y-62174682D01*
X138027600Y-62196452D01*
X138027600Y-61208690D01*
X138027599Y-61208690D01*
X137937475Y-61222965D01*
X137720031Y-61293617D01*
X137516323Y-61397411D01*
X137331357Y-61531797D01*
X137169697Y-61693457D01*
X137108227Y-61778064D01*
X137052897Y-61820729D01*
X136983284Y-61826708D01*
X136921489Y-61794102D01*
X136907591Y-61778064D01*
X136845886Y-61693134D01*
X136684166Y-61531414D01*
X136499138Y-61396983D01*
X136406642Y-61349854D01*
X136295355Y-61293150D01*
X136077848Y-61222478D01*
X135892412Y-61193108D01*
X135851954Y-61186700D01*
X135623246Y-61186700D01*
X135582788Y-61193108D01*
X135397353Y-61222478D01*
X135397350Y-61222478D01*
X135179844Y-61293150D01*
X134976061Y-61396983D01*
X134840240Y-61495664D01*
X134801875Y-61523538D01*
X134793359Y-61529725D01*
X134727552Y-61553205D01*
X134659498Y-61537380D01*
X134610803Y-61487274D01*
X134604290Y-61472738D01*
X134593896Y-61444869D01*
X134593893Y-61444864D01*
X134507647Y-61329655D01*
X134507644Y-61329652D01*
X134392435Y-61243406D01*
X134392428Y-61243402D01*
X134257582Y-61193108D01*
X134257583Y-61193108D01*
X134197983Y-61186701D01*
X134197981Y-61186700D01*
X134197973Y-61186700D01*
X134197964Y-61186700D01*
X132197229Y-61186700D01*
X132197223Y-61186701D01*
X132137616Y-61193108D01*
X132002771Y-61243402D01*
X132002764Y-61243406D01*
X131887555Y-61329652D01*
X131887552Y-61329655D01*
X131801306Y-61444864D01*
X131801302Y-61444871D01*
X131751008Y-61579717D01*
X131744601Y-61639316D01*
X131744600Y-61639335D01*
X120972380Y-61639335D01*
X120885042Y-61551997D01*
X120700076Y-61417611D01*
X120496368Y-61313817D01*
X120278924Y-61243165D01*
X120188800Y-61228890D01*
X120188800Y-62216652D01*
X120151092Y-62194882D01*
X120011209Y-62157400D01*
X119866391Y-62157400D01*
X119726508Y-62194882D01*
X119688800Y-62216652D01*
X119688800Y-61228890D01*
X119688799Y-61228890D01*
X119598675Y-61243165D01*
X119381231Y-61313817D01*
X119177523Y-61417611D01*
X118992557Y-61551997D01*
X118830897Y-61713657D01*
X118769427Y-61798264D01*
X118714097Y-61840929D01*
X118644484Y-61846908D01*
X118582689Y-61814302D01*
X118568791Y-61798264D01*
X118507086Y-61713334D01*
X118345366Y-61551614D01*
X118160338Y-61417183D01*
X118120693Y-61396983D01*
X117956555Y-61313350D01*
X117739048Y-61242678D01*
X117524455Y-61208690D01*
X117513154Y-61206900D01*
X117284446Y-61206900D01*
X117273145Y-61208690D01*
X117058553Y-61242678D01*
X117058550Y-61242678D01*
X116841044Y-61313350D01*
X116637261Y-61417183D01*
X116529233Y-61495671D01*
X116471826Y-61537380D01*
X116454559Y-61549925D01*
X116388752Y-61573405D01*
X116320698Y-61557580D01*
X116272003Y-61507474D01*
X116265490Y-61492938D01*
X116255096Y-61465069D01*
X116255093Y-61465064D01*
X116168847Y-61349855D01*
X116168844Y-61349852D01*
X116053635Y-61263606D01*
X116053628Y-61263602D01*
X115918782Y-61213308D01*
X115918783Y-61213308D01*
X115859183Y-61206901D01*
X115859181Y-61206900D01*
X115859173Y-61206900D01*
X115859164Y-61206900D01*
X113858429Y-61206900D01*
X113858423Y-61206901D01*
X113798816Y-61213308D01*
X113663971Y-61263602D01*
X113663964Y-61263606D01*
X113548755Y-61349852D01*
X113548752Y-61349855D01*
X113462506Y-61465064D01*
X113462502Y-61465071D01*
X113412208Y-61599917D01*
X113405801Y-61659516D01*
X113405800Y-61659535D01*
X100955486Y-61659535D01*
X100959152Y-57475072D01*
X100978895Y-57408052D01*
X101031739Y-57362344D01*
X101100907Y-57352461D01*
X101164437Y-57381541D01*
X101179517Y-57397146D01*
X101246219Y-57479516D01*
X101520484Y-57753781D01*
X101520488Y-57753784D01*
X101821917Y-57997877D01*
X102147206Y-58209122D01*
X102147211Y-58209125D01*
X102492806Y-58385214D01*
X102854913Y-58524214D01*
X103229567Y-58624602D01*
X103612662Y-58685278D01*
X103978576Y-58704455D01*
X103999999Y-58705578D01*
X104000000Y-58705578D01*
X104000001Y-58705578D01*
X104020301Y-58704514D01*
X104387338Y-58685278D01*
X104770433Y-58624602D01*
X105145087Y-58524214D01*
X105507194Y-58385214D01*
X105852789Y-58209125D01*
X106178084Y-57997876D01*
X106479516Y-57753781D01*
X106753781Y-57479516D01*
X106997876Y-57178084D01*
X107209125Y-56852789D01*
X107385214Y-56507194D01*
X107524214Y-56145087D01*
X107624602Y-55770433D01*
X107685278Y-55387338D01*
X107705578Y-55000000D01*
X107685278Y-54612662D01*
X107624602Y-54229567D01*
X107524214Y-53854913D01*
X107385214Y-53492806D01*
X107209125Y-53147211D01*
X107209122Y-53147206D01*
X107097538Y-52975382D01*
X112452700Y-52975382D01*
X112452700Y-55675417D01*
X112463200Y-55778196D01*
X112518385Y-55944732D01*
X112518386Y-55944735D01*
X112610488Y-56094056D01*
X112734544Y-56218112D01*
X112883865Y-56310214D01*
X113050402Y-56365399D01*
X113153190Y-56375900D01*
X113153195Y-56375900D01*
X115853205Y-56375900D01*
X115853210Y-56375900D01*
X115955998Y-56365399D01*
X116122535Y-56310214D01*
X116271856Y-56218112D01*
X116395912Y-56094056D01*
X116488014Y-55944735D01*
X116543199Y-55778198D01*
X116553700Y-55675410D01*
X116553700Y-54325400D01*
X118447909Y-54325400D01*
X118467051Y-54605262D01*
X118467052Y-54605264D01*
X118524121Y-54879899D01*
X118524126Y-54879916D01*
X118581955Y-55042630D01*
X118618064Y-55144230D01*
X118747119Y-55393296D01*
X118908888Y-55622469D01*
X118908892Y-55622473D01*
X118908892Y-55622474D01*
X119096109Y-55822935D01*
X119100355Y-55827481D01*
X119317954Y-56004511D01*
X119317956Y-56004512D01*
X119317957Y-56004513D01*
X119557633Y-56150263D01*
X119755253Y-56236101D01*
X119814925Y-56262020D01*
X120085039Y-56337703D01*
X120329359Y-56371284D01*
X120362941Y-56375900D01*
X120362942Y-56375900D01*
X120643459Y-56375900D01*
X120673419Y-56371781D01*
X120921361Y-56337703D01*
X121191475Y-56262020D01*
X121448768Y-56150262D01*
X121688446Y-56004511D01*
X121906045Y-55827481D01*
X122097512Y-55622469D01*
X122259281Y-55393296D01*
X122388336Y-55144230D01*
X122482275Y-54879911D01*
X122482276Y-54879904D01*
X122482278Y-54879899D01*
X122537810Y-54612662D01*
X122539348Y-54605262D01*
X122558491Y-54325400D01*
X122539348Y-54045538D01*
X122514037Y-53923735D01*
X122482278Y-53770900D01*
X122482273Y-53770883D01*
X122388336Y-53506571D01*
X122388336Y-53506570D01*
X122259281Y-53257504D01*
X122097512Y-53028331D01*
X122097507Y-53028325D01*
X122048062Y-52975382D01*
X130687100Y-52975382D01*
X130687100Y-55675417D01*
X130697600Y-55778196D01*
X130752785Y-55944732D01*
X130752786Y-55944735D01*
X130844888Y-56094056D01*
X130968944Y-56218112D01*
X131118265Y-56310214D01*
X131284802Y-56365399D01*
X131387590Y-56375900D01*
X131387595Y-56375900D01*
X134087605Y-56375900D01*
X134087610Y-56375900D01*
X134190398Y-56365399D01*
X134356935Y-56310214D01*
X134506256Y-56218112D01*
X134630312Y-56094056D01*
X134722414Y-55944735D01*
X134777599Y-55778198D01*
X134788100Y-55675410D01*
X134788100Y-54325400D01*
X136682309Y-54325400D01*
X136701451Y-54605262D01*
X136701452Y-54605264D01*
X136758521Y-54879899D01*
X136758526Y-54879916D01*
X136816355Y-55042630D01*
X136852464Y-55144230D01*
X136981519Y-55393296D01*
X137143288Y-55622469D01*
X137143292Y-55622473D01*
X137143292Y-55622474D01*
X137330509Y-55822935D01*
X137334755Y-55827481D01*
X137552354Y-56004511D01*
X137552356Y-56004512D01*
X137552357Y-56004513D01*
X137792033Y-56150263D01*
X137989653Y-56236101D01*
X138049325Y-56262020D01*
X138319439Y-56337703D01*
X138563759Y-56371284D01*
X138597341Y-56375900D01*
X138597342Y-56375900D01*
X138877859Y-56375900D01*
X138907819Y-56371781D01*
X139155761Y-56337703D01*
X139425875Y-56262020D01*
X139683168Y-56150262D01*
X139922846Y-56004511D01*
X140140445Y-55827481D01*
X140331912Y-55622469D01*
X140493681Y-55393296D01*
X140622736Y-55144230D01*
X140716675Y-54879911D01*
X140716676Y-54879904D01*
X140716678Y-54879899D01*
X140772210Y-54612662D01*
X140773748Y-54605262D01*
X140792891Y-54325400D01*
X140773748Y-54045538D01*
X140748437Y-53923735D01*
X140716678Y-53770900D01*
X140716673Y-53770883D01*
X140622736Y-53506571D01*
X140622736Y-53506570D01*
X140493681Y-53257504D01*
X140331912Y-53028331D01*
X140331907Y-53028325D01*
X140168709Y-52853582D01*
X145828300Y-52853582D01*
X145828300Y-55553617D01*
X145838800Y-55656396D01*
X145893985Y-55822932D01*
X145893987Y-55822937D01*
X145906445Y-55843135D01*
X145986088Y-55972256D01*
X146110144Y-56096312D01*
X146259465Y-56188414D01*
X146426002Y-56243599D01*
X146528790Y-56254100D01*
X146528795Y-56254100D01*
X149228805Y-56254100D01*
X149228810Y-56254100D01*
X149331598Y-56243599D01*
X149498135Y-56188414D01*
X149647456Y-56096312D01*
X149771512Y-55972256D01*
X149863614Y-55822935D01*
X149918799Y-55656398D01*
X149929300Y-55553610D01*
X149929300Y-54203600D01*
X151823509Y-54203600D01*
X151842651Y-54483462D01*
X151842652Y-54483464D01*
X151899721Y-54758099D01*
X151899726Y-54758116D01*
X151985692Y-54999999D01*
X151993664Y-55022430D01*
X152122719Y-55271496D01*
X152284488Y-55500669D01*
X152284492Y-55500673D01*
X152284492Y-55500674D01*
X152448793Y-55676598D01*
X152475955Y-55705681D01*
X152693554Y-55882711D01*
X152693556Y-55882712D01*
X152693557Y-55882713D01*
X152933233Y-56028463D01*
X153135939Y-56116510D01*
X153190525Y-56140220D01*
X153460639Y-56215903D01*
X153704959Y-56249484D01*
X153738541Y-56254100D01*
X153738542Y-56254100D01*
X154019059Y-56254100D01*
X154049019Y-56249981D01*
X154296961Y-56215903D01*
X154567075Y-56140220D01*
X154824368Y-56028462D01*
X155064046Y-55882711D01*
X155281645Y-55705681D01*
X155473112Y-55500669D01*
X155634881Y-55271496D01*
X155763936Y-55022430D01*
X155857875Y-54758111D01*
X155857876Y-54758104D01*
X155857878Y-54758099D01*
X155889637Y-54605264D01*
X155914948Y-54483462D01*
X155934091Y-54203600D01*
X155914948Y-53923738D01*
X155883188Y-53770900D01*
X155857878Y-53649100D01*
X155857873Y-53649083D01*
X155802332Y-53492806D01*
X155763936Y-53384770D01*
X155634881Y-53135704D01*
X155473112Y-52906531D01*
X155473107Y-52906525D01*
X155442527Y-52873782D01*
X161469100Y-52873782D01*
X161469100Y-55573817D01*
X161479600Y-55676596D01*
X161510695Y-55770433D01*
X161534786Y-55843135D01*
X161626888Y-55992456D01*
X161750944Y-56116512D01*
X161900265Y-56208614D01*
X162066802Y-56263799D01*
X162169590Y-56274300D01*
X162169595Y-56274300D01*
X164869605Y-56274300D01*
X164869610Y-56274300D01*
X164972398Y-56263799D01*
X165138935Y-56208614D01*
X165288256Y-56116512D01*
X165412312Y-55992456D01*
X165504414Y-55843135D01*
X165559599Y-55676598D01*
X165570100Y-55573810D01*
X165570100Y-54223800D01*
X167464309Y-54223800D01*
X167483451Y-54503662D01*
X167483452Y-54503664D01*
X167540521Y-54778299D01*
X167540526Y-54778316D01*
X167576635Y-54879916D01*
X167634464Y-55042630D01*
X167763519Y-55291696D01*
X167925288Y-55520869D01*
X167925292Y-55520873D01*
X167925292Y-55520874D01*
X168116754Y-55725880D01*
X168116755Y-55725881D01*
X168334354Y-55902911D01*
X168334356Y-55902912D01*
X168334357Y-55902913D01*
X168574033Y-56048663D01*
X168782857Y-56139367D01*
X168831325Y-56160420D01*
X169101439Y-56236103D01*
X169345759Y-56269684D01*
X169379341Y-56274300D01*
X169379342Y-56274300D01*
X169659859Y-56274300D01*
X169689819Y-56270181D01*
X169937761Y-56236103D01*
X170207875Y-56160420D01*
X170465168Y-56048662D01*
X170704846Y-55902911D01*
X170922445Y-55725881D01*
X171113912Y-55520869D01*
X171275681Y-55291696D01*
X171404736Y-55042630D01*
X171498675Y-54778311D01*
X171498676Y-54778304D01*
X171498678Y-54778299D01*
X171534635Y-54605262D01*
X171555748Y-54503662D01*
X171574891Y-54223800D01*
X171555748Y-53943938D01*
X171519787Y-53770883D01*
X171498678Y-53669300D01*
X171498673Y-53669283D01*
X171440845Y-53506571D01*
X171404736Y-53404970D01*
X171275681Y-53155904D01*
X171113912Y-52926731D01*
X171113907Y-52926725D01*
X171064462Y-52873782D01*
X175647900Y-52873782D01*
X175647900Y-55573817D01*
X175658400Y-55676596D01*
X175689495Y-55770433D01*
X175713586Y-55843135D01*
X175805688Y-55992456D01*
X175929744Y-56116512D01*
X176079065Y-56208614D01*
X176245602Y-56263799D01*
X176348390Y-56274300D01*
X176348395Y-56274300D01*
X179048405Y-56274300D01*
X179048410Y-56274300D01*
X179151198Y-56263799D01*
X179317735Y-56208614D01*
X179467056Y-56116512D01*
X179591112Y-55992456D01*
X179683214Y-55843135D01*
X179738399Y-55676598D01*
X179748900Y-55573810D01*
X179748900Y-54223800D01*
X181643109Y-54223800D01*
X181662251Y-54503662D01*
X181662252Y-54503664D01*
X181719321Y-54778299D01*
X181719326Y-54778316D01*
X181755435Y-54879916D01*
X181813264Y-55042630D01*
X181942319Y-55291696D01*
X182104088Y-55520869D01*
X182104092Y-55520873D01*
X182104092Y-55520874D01*
X182295554Y-55725880D01*
X182295555Y-55725881D01*
X182513154Y-55902911D01*
X182513156Y-55902912D01*
X182513157Y-55902913D01*
X182752833Y-56048663D01*
X182961657Y-56139367D01*
X183010125Y-56160420D01*
X183280239Y-56236103D01*
X183524559Y-56269684D01*
X183558141Y-56274300D01*
X183558142Y-56274300D01*
X183838659Y-56274300D01*
X183868619Y-56270181D01*
X184116561Y-56236103D01*
X184386675Y-56160420D01*
X184643968Y-56048662D01*
X184883646Y-55902911D01*
X185101245Y-55725881D01*
X185292712Y-55520869D01*
X185454481Y-55291696D01*
X185583536Y-55042630D01*
X185598687Y-54999999D01*
X191294422Y-54999999D01*
X191294422Y-55000000D01*
X191314722Y-55387339D01*
X191368342Y-55725881D01*
X191375398Y-55770433D01*
X191444536Y-56028462D01*
X191475788Y-56145094D01*
X191614787Y-56507197D01*
X191790877Y-56852793D01*
X192002122Y-57178082D01*
X192218401Y-57445164D01*
X192246219Y-57479516D01*
X192520484Y-57753781D01*
X192520488Y-57753784D01*
X192821917Y-57997877D01*
X192947856Y-58079663D01*
X192993359Y-58132684D01*
X193002973Y-58201889D01*
X192973646Y-58265306D01*
X192914689Y-58302800D01*
X192912414Y-58303433D01*
X192695111Y-58361658D01*
X192695102Y-58361661D01*
X192488867Y-58457831D01*
X192488865Y-58457832D01*
X192302458Y-58588354D01*
X192141554Y-58749258D01*
X192011032Y-58935665D01*
X192011031Y-58935667D01*
X191914861Y-59141902D01*
X191914858Y-59141911D01*
X191855966Y-59361702D01*
X191855964Y-59361713D01*
X191836132Y-59588398D01*
X191836132Y-59588401D01*
X191855964Y-59815086D01*
X191855966Y-59815097D01*
X191914858Y-60034888D01*
X191914861Y-60034897D01*
X192011031Y-60241132D01*
X192011032Y-60241134D01*
X192141554Y-60427541D01*
X192302458Y-60588445D01*
X192302461Y-60588447D01*
X192488866Y-60718968D01*
X192695104Y-60815139D01*
X192914908Y-60874035D01*
X193076830Y-60888201D01*
X193141598Y-60893868D01*
X193141600Y-60893868D01*
X193141602Y-60893868D01*
X193198273Y-60888909D01*
X193368292Y-60874035D01*
X193588096Y-60815139D01*
X193794334Y-60718968D01*
X193980739Y-60588447D01*
X194141647Y-60427539D01*
X194272168Y-60241134D01*
X194368339Y-60034896D01*
X194427235Y-59815092D01*
X194447068Y-59588400D01*
X194427235Y-59361708D01*
X194368339Y-59141904D01*
X194272168Y-58935666D01*
X194200060Y-58832684D01*
X194177733Y-58766477D01*
X194194744Y-58698710D01*
X194245692Y-58650898D01*
X194314402Y-58638220D01*
X194321006Y-58639084D01*
X194612662Y-58685278D01*
X194978576Y-58704455D01*
X194999999Y-58705578D01*
X195000000Y-58705578D01*
X195000001Y-58705578D01*
X195020301Y-58704514D01*
X195387338Y-58685278D01*
X195770433Y-58624602D01*
X196145087Y-58524214D01*
X196507194Y-58385214D01*
X196852789Y-58209125D01*
X197178084Y-57997876D01*
X197479516Y-57753781D01*
X197753781Y-57479516D01*
X197997876Y-57178084D01*
X198209125Y-56852789D01*
X198385214Y-56507194D01*
X198524214Y-56145087D01*
X198624602Y-55770433D01*
X198685278Y-55387338D01*
X198705578Y-55000000D01*
X198685278Y-54612662D01*
X198624602Y-54229567D01*
X198524214Y-53854913D01*
X198385214Y-53492806D01*
X198209125Y-53147211D01*
X198209122Y-53147206D01*
X197997877Y-52821917D01*
X197855656Y-52646289D01*
X197753781Y-52520484D01*
X197479516Y-52246219D01*
X197178084Y-52002124D01*
X197178082Y-52002122D01*
X196852793Y-51790877D01*
X196507197Y-51614787D01*
X196145094Y-51475788D01*
X196145087Y-51475786D01*
X195770433Y-51375398D01*
X195770429Y-51375397D01*
X195770428Y-51375397D01*
X195387339Y-51314722D01*
X195000001Y-51294422D01*
X194999999Y-51294422D01*
X194612660Y-51314722D01*
X194229572Y-51375397D01*
X194229570Y-51375397D01*
X193854905Y-51475788D01*
X193492802Y-51614787D01*
X193147206Y-51790877D01*
X192821917Y-52002122D01*
X192520488Y-52246215D01*
X192520480Y-52246222D01*
X192246222Y-52520480D01*
X192246215Y-52520488D01*
X192002122Y-52821917D01*
X191790877Y-53147206D01*
X191614787Y-53492802D01*
X191475788Y-53854905D01*
X191375397Y-54229570D01*
X191375397Y-54229572D01*
X191314722Y-54612660D01*
X191294422Y-54999999D01*
X185598687Y-54999999D01*
X185677475Y-54778311D01*
X185677476Y-54778304D01*
X185677478Y-54778299D01*
X185713435Y-54605262D01*
X185734548Y-54503662D01*
X185753691Y-54223800D01*
X185734548Y-53943938D01*
X185698587Y-53770883D01*
X185677478Y-53669300D01*
X185677473Y-53669283D01*
X185619645Y-53506571D01*
X185583536Y-53404970D01*
X185454481Y-53155904D01*
X185292712Y-52926731D01*
X185292707Y-52926725D01*
X185101245Y-52721719D01*
X184957123Y-52604467D01*
X184883646Y-52544689D01*
X184883644Y-52544688D01*
X184883642Y-52544686D01*
X184643966Y-52398936D01*
X184386676Y-52287180D01*
X184116566Y-52211498D01*
X184116562Y-52211497D01*
X184116561Y-52211497D01*
X183969596Y-52191297D01*
X183838659Y-52173300D01*
X183838658Y-52173300D01*
X183558142Y-52173300D01*
X183558141Y-52173300D01*
X183280239Y-52211497D01*
X183280233Y-52211498D01*
X183010123Y-52287180D01*
X182752833Y-52398936D01*
X182513157Y-52544686D01*
X182295554Y-52721719D01*
X182104092Y-52926725D01*
X182104092Y-52926726D01*
X181942319Y-53155903D01*
X181813263Y-53404971D01*
X181719326Y-53669283D01*
X181719321Y-53669300D01*
X181662252Y-53943935D01*
X181662251Y-53943937D01*
X181643109Y-54223800D01*
X179748900Y-54223800D01*
X179748900Y-52873790D01*
X179738399Y-52771002D01*
X179683214Y-52604465D01*
X179591112Y-52455144D01*
X179467056Y-52331088D01*
X179374290Y-52273870D01*
X179317737Y-52238987D01*
X179317732Y-52238985D01*
X179316263Y-52238498D01*
X179151198Y-52183801D01*
X179151196Y-52183800D01*
X179048417Y-52173300D01*
X179048410Y-52173300D01*
X176348390Y-52173300D01*
X176348382Y-52173300D01*
X176245603Y-52183800D01*
X176245602Y-52183801D01*
X176222981Y-52191297D01*
X176079067Y-52238985D01*
X176079062Y-52238987D01*
X175929742Y-52331089D01*
X175805689Y-52455142D01*
X175713587Y-52604462D01*
X175713585Y-52604467D01*
X175699728Y-52646286D01*
X175658401Y-52771002D01*
X175658401Y-52771003D01*
X175658400Y-52771003D01*
X175647900Y-52873782D01*
X171064462Y-52873782D01*
X170922445Y-52721719D01*
X170778323Y-52604467D01*
X170704846Y-52544689D01*
X170704844Y-52544688D01*
X170704842Y-52544686D01*
X170465166Y-52398936D01*
X170207876Y-52287180D01*
X169937766Y-52211498D01*
X169937762Y-52211497D01*
X169937761Y-52211497D01*
X169790796Y-52191297D01*
X169659859Y-52173300D01*
X169659858Y-52173300D01*
X169379342Y-52173300D01*
X169379341Y-52173300D01*
X169101439Y-52211497D01*
X169101433Y-52211498D01*
X168831323Y-52287180D01*
X168574033Y-52398936D01*
X168334357Y-52544686D01*
X168116754Y-52721719D01*
X167925292Y-52926725D01*
X167925292Y-52926726D01*
X167763519Y-53155903D01*
X167634463Y-53404971D01*
X167540526Y-53669283D01*
X167540521Y-53669300D01*
X167483452Y-53943935D01*
X167483451Y-53943937D01*
X167464309Y-54223800D01*
X165570100Y-54223800D01*
X165570100Y-52873790D01*
X165559599Y-52771002D01*
X165504414Y-52604465D01*
X165412312Y-52455144D01*
X165288256Y-52331088D01*
X165195490Y-52273870D01*
X165138937Y-52238987D01*
X165138932Y-52238985D01*
X165137463Y-52238498D01*
X164972398Y-52183801D01*
X164972396Y-52183800D01*
X164869617Y-52173300D01*
X164869610Y-52173300D01*
X162169590Y-52173300D01*
X162169582Y-52173300D01*
X162066803Y-52183800D01*
X162066802Y-52183801D01*
X162044181Y-52191297D01*
X161900267Y-52238985D01*
X161900262Y-52238987D01*
X161750942Y-52331089D01*
X161626889Y-52455142D01*
X161534787Y-52604462D01*
X161534785Y-52604467D01*
X161520928Y-52646286D01*
X161479601Y-52771002D01*
X161479601Y-52771003D01*
X161479600Y-52771003D01*
X161469100Y-52873782D01*
X155442527Y-52873782D01*
X155281645Y-52701519D01*
X155213758Y-52646289D01*
X155064046Y-52524489D01*
X155064044Y-52524488D01*
X155064042Y-52524486D01*
X154824366Y-52378736D01*
X154567076Y-52266980D01*
X154296966Y-52191298D01*
X154296962Y-52191297D01*
X154296961Y-52191297D01*
X154158009Y-52172198D01*
X154019059Y-52153100D01*
X154019058Y-52153100D01*
X153738542Y-52153100D01*
X153738541Y-52153100D01*
X153460639Y-52191297D01*
X153460633Y-52191298D01*
X153190523Y-52266980D01*
X152933233Y-52378736D01*
X152693557Y-52524486D01*
X152475954Y-52701519D01*
X152284492Y-52906525D01*
X152284492Y-52906526D01*
X152284489Y-52906528D01*
X152284488Y-52906531D01*
X152235887Y-52975382D01*
X152122719Y-53135703D01*
X151993663Y-53384771D01*
X151899726Y-53649083D01*
X151899721Y-53649100D01*
X151842652Y-53923735D01*
X151842651Y-53923737D01*
X151823509Y-54203600D01*
X149929300Y-54203600D01*
X149929300Y-52853590D01*
X149918799Y-52750802D01*
X149863614Y-52584265D01*
X149771512Y-52434944D01*
X149647456Y-52310888D01*
X149542611Y-52246219D01*
X149498137Y-52218787D01*
X149498132Y-52218785D01*
X149476138Y-52211497D01*
X149331598Y-52163601D01*
X149331596Y-52163600D01*
X149228817Y-52153100D01*
X149228810Y-52153100D01*
X146528790Y-52153100D01*
X146528782Y-52153100D01*
X146426003Y-52163600D01*
X146426002Y-52163601D01*
X146365046Y-52183800D01*
X146259467Y-52218785D01*
X146259462Y-52218787D01*
X146110142Y-52310889D01*
X145986089Y-52434942D01*
X145893987Y-52584262D01*
X145893985Y-52584267D01*
X145876444Y-52637203D01*
X145838801Y-52750802D01*
X145838801Y-52750803D01*
X145838800Y-52750803D01*
X145828300Y-52853582D01*
X140168709Y-52853582D01*
X140140445Y-52823319D01*
X139996323Y-52706067D01*
X139922846Y-52646289D01*
X139922844Y-52646288D01*
X139922842Y-52646286D01*
X139683166Y-52500536D01*
X139425876Y-52388780D01*
X139155766Y-52313098D01*
X139155762Y-52313097D01*
X139155761Y-52313097D01*
X139016809Y-52293998D01*
X138877859Y-52274900D01*
X138877858Y-52274900D01*
X138597342Y-52274900D01*
X138597341Y-52274900D01*
X138319439Y-52313097D01*
X138319433Y-52313098D01*
X138049323Y-52388780D01*
X137792033Y-52500536D01*
X137552357Y-52646286D01*
X137334754Y-52823319D01*
X137143292Y-53028325D01*
X137143292Y-53028326D01*
X136981519Y-53257503D01*
X136852463Y-53506571D01*
X136758526Y-53770883D01*
X136758521Y-53770900D01*
X136701452Y-54045535D01*
X136701451Y-54045537D01*
X136682309Y-54325400D01*
X134788100Y-54325400D01*
X134788100Y-52975390D01*
X134777599Y-52872602D01*
X134722414Y-52706065D01*
X134630312Y-52556744D01*
X134506256Y-52432688D01*
X134356935Y-52340586D01*
X134190398Y-52285401D01*
X134190396Y-52285400D01*
X134087617Y-52274900D01*
X134087610Y-52274900D01*
X131387590Y-52274900D01*
X131387582Y-52274900D01*
X131284803Y-52285400D01*
X131284802Y-52285401D01*
X131202269Y-52312749D01*
X131118267Y-52340585D01*
X131118262Y-52340587D01*
X130968942Y-52432689D01*
X130844889Y-52556742D01*
X130752787Y-52706062D01*
X130752785Y-52706067D01*
X130737961Y-52750803D01*
X130697601Y-52872602D01*
X130697601Y-52872603D01*
X130697600Y-52872603D01*
X130687100Y-52975382D01*
X122048062Y-52975382D01*
X121906045Y-52823319D01*
X121761923Y-52706067D01*
X121688446Y-52646289D01*
X121688444Y-52646288D01*
X121688442Y-52646286D01*
X121448766Y-52500536D01*
X121191476Y-52388780D01*
X120921366Y-52313098D01*
X120921362Y-52313097D01*
X120921361Y-52313097D01*
X120782409Y-52293998D01*
X120643459Y-52274900D01*
X120643458Y-52274900D01*
X120362942Y-52274900D01*
X120362941Y-52274900D01*
X120085039Y-52313097D01*
X120085033Y-52313098D01*
X119814923Y-52388780D01*
X119557633Y-52500536D01*
X119317957Y-52646286D01*
X119100354Y-52823319D01*
X118908892Y-53028325D01*
X118908892Y-53028326D01*
X118747119Y-53257503D01*
X118618063Y-53506571D01*
X118524126Y-53770883D01*
X118524121Y-53770900D01*
X118467052Y-54045535D01*
X118467051Y-54045537D01*
X118447909Y-54325400D01*
X116553700Y-54325400D01*
X116553700Y-52975390D01*
X116543199Y-52872602D01*
X116488014Y-52706065D01*
X116395912Y-52556744D01*
X116271856Y-52432688D01*
X116122535Y-52340586D01*
X115955998Y-52285401D01*
X115955996Y-52285400D01*
X115853217Y-52274900D01*
X115853210Y-52274900D01*
X113153190Y-52274900D01*
X113153182Y-52274900D01*
X113050403Y-52285400D01*
X113050402Y-52285401D01*
X112967869Y-52312749D01*
X112883867Y-52340585D01*
X112883862Y-52340587D01*
X112734542Y-52432689D01*
X112610489Y-52556742D01*
X112518387Y-52706062D01*
X112518385Y-52706067D01*
X112503561Y-52750803D01*
X112463201Y-52872602D01*
X112463201Y-52872603D01*
X112463200Y-52872603D01*
X112452700Y-52975382D01*
X107097538Y-52975382D01*
X106997877Y-52821917D01*
X106855656Y-52646289D01*
X106753781Y-52520484D01*
X106479516Y-52246219D01*
X106178084Y-52002124D01*
X106178082Y-52002122D01*
X105852793Y-51790877D01*
X105507197Y-51614787D01*
X105145094Y-51475788D01*
X105145087Y-51475786D01*
X104770433Y-51375398D01*
X104770429Y-51375397D01*
X104770428Y-51375397D01*
X104387339Y-51314722D01*
X104000001Y-51294422D01*
X103999999Y-51294422D01*
X103612660Y-51314722D01*
X103229572Y-51375397D01*
X103229570Y-51375397D01*
X102854905Y-51475788D01*
X102492802Y-51614787D01*
X102147206Y-51790877D01*
X101821917Y-52002122D01*
X101520488Y-52246215D01*
X101520480Y-52246222D01*
X101246222Y-52520480D01*
X101246215Y-52520488D01*
X101183859Y-52597491D01*
X101126371Y-52637203D01*
X101056540Y-52639530D01*
X100996537Y-52603734D01*
X100965411Y-52541180D01*
X100963493Y-52519354D01*
X100964891Y-50923889D01*
X100984634Y-50856869D01*
X101037478Y-50811161D01*
X101088891Y-50800000D01*
X199291237Y-50800000D01*
X199358276Y-50819685D01*
G37*
G04 #@! TD.AperFunction*
M02*
