G04 #@! TF.GenerationSoftware,KiCad,Pcbnew,8.0.7-8.0.7-0~ubuntu24.04.1*
G04 #@! TF.CreationDate,2025-01-24T13:02:35+01:00*
G04 #@! TF.ProjectId,astrobox_power_smallbox,61737472-6f62-46f7-985f-706f7765725f,1*
G04 #@! TF.SameCoordinates,Original*
G04 #@! TF.FileFunction,Soldermask,Top*
G04 #@! TF.FilePolarity,Negative*
%FSLAX46Y46*%
G04 Gerber Fmt 4.6, Leading zero omitted, Abs format (unit mm)*
G04 Created by KiCad (PCBNEW 8.0.7-8.0.7-0~ubuntu24.04.1) date 2025-01-24 13:02:35*
%MOMM*%
%LPD*%
G01*
G04 APERTURE LIST*
G04 Aperture macros list*
%AMRoundRect*
0 Rectangle with rounded corners*
0 $1 Rounding radius*
0 $2 $3 $4 $5 $6 $7 $8 $9 X,Y pos of 4 corners*
0 Add a 4 corners polygon primitive as box body*
4,1,4,$2,$3,$4,$5,$6,$7,$8,$9,$2,$3,0*
0 Add four circle primitives for the rounded corners*
1,1,$1+$1,$2,$3*
1,1,$1+$1,$4,$5*
1,1,$1+$1,$6,$7*
1,1,$1+$1,$8,$9*
0 Add four rect primitives between the rounded corners*
20,1,$1+$1,$2,$3,$4,$5,0*
20,1,$1+$1,$4,$5,$6,$7,0*
20,1,$1+$1,$6,$7,$8,$9,0*
20,1,$1+$1,$8,$9,$2,$3,0*%
G04 Aperture macros list end*
%ADD10RoundRect,0.249999X-1.300001X-1.300001X1.300001X-1.300001X1.300001X1.300001X-1.300001X1.300001X0*%
%ADD11C,3.100000*%
%ADD12R,1.905000X2.000000*%
%ADD13O,1.905000X2.000000*%
%ADD14C,6.400000*%
%ADD15C,1.600000*%
%ADD16O,1.600000X1.600000*%
%ADD17R,1.600000X1.600000*%
%ADD18R,2.400000X2.400000*%
%ADD19O,2.400000X2.400000*%
%ADD20R,1.700000X1.700000*%
%ADD21O,1.700000X1.700000*%
%ADD22C,2.000000*%
%ADD23RoundRect,0.250000X1.125000X1.125000X-1.125000X1.125000X-1.125000X-1.125000X1.125000X-1.125000X0*%
%ADD24C,2.750000*%
%ADD25R,1.800000X1.100000*%
%ADD26RoundRect,0.275000X0.625000X-0.275000X0.625000X0.275000X-0.625000X0.275000X-0.625000X-0.275000X0*%
G04 APERTURE END LIST*
D10*
X147878800Y-54203600D03*
D11*
X153878800Y-54203600D03*
D10*
X163519600Y-54223800D03*
D11*
X169519600Y-54223800D03*
D12*
X114858800Y-62707400D03*
D13*
X117398800Y-62707400D03*
X119938800Y-62707400D03*
D14*
X104000000Y-55000000D03*
D10*
X132737600Y-54325400D03*
D11*
X138737600Y-54325400D03*
D15*
X166979600Y-74777600D03*
D16*
X179679600Y-74777600D03*
D12*
X133197600Y-62687200D03*
D13*
X135737600Y-62687200D03*
X138277600Y-62687200D03*
D17*
X185572400Y-92862400D03*
D16*
X188112400Y-92862400D03*
X190652400Y-92862400D03*
X193192400Y-92862400D03*
X193192400Y-85242400D03*
X190652400Y-85242400D03*
X188112400Y-85242400D03*
X185572400Y-85242400D03*
D10*
X177698400Y-54223800D03*
D11*
X183698400Y-54223800D03*
D18*
X177698400Y-94894400D03*
D19*
X177698400Y-82194400D03*
D20*
X163372800Y-106222800D03*
D21*
X165912800Y-106222800D03*
X168452800Y-106222800D03*
X170992800Y-106222800D03*
X173532800Y-106222800D03*
X176072800Y-106222800D03*
X178612800Y-106222800D03*
X181152800Y-106222800D03*
X183692800Y-106222800D03*
X186232800Y-106222800D03*
D15*
X161594800Y-67767200D03*
D16*
X174294800Y-67767200D03*
D15*
X146405600Y-67767200D03*
D16*
X159105600Y-67767200D03*
D14*
X195000000Y-55000000D03*
D12*
X178206400Y-62738000D03*
D13*
X180746400Y-62738000D03*
X183286400Y-62738000D03*
D15*
X164185600Y-97739200D03*
D16*
X151485600Y-97739200D03*
D15*
X161594800Y-83362800D03*
D16*
X161594800Y-70662800D03*
D15*
X112725200Y-67767200D03*
D16*
X125425200Y-67767200D03*
D15*
X146405600Y-83362800D03*
D16*
X146405600Y-70662800D03*
D14*
X195000000Y-104000000D03*
D22*
X184505600Y-80630400D03*
X184505600Y-75630400D03*
D18*
X170586400Y-82194400D03*
D19*
X170586400Y-94894400D03*
D22*
X193192400Y-80630400D03*
X193192400Y-75630400D03*
D12*
X148488400Y-62738000D03*
D13*
X151028400Y-62738000D03*
X153568400Y-62738000D03*
D15*
X131216400Y-83362800D03*
D16*
X131216400Y-70662800D03*
D15*
X189534800Y-67767200D03*
D16*
X176834800Y-67767200D03*
D15*
X112725200Y-83261200D03*
D16*
X112725200Y-70561200D03*
D15*
X131165600Y-67767200D03*
D16*
X143865600Y-67767200D03*
D14*
X104000000Y-104000000D03*
D12*
X163677600Y-62687200D03*
D13*
X166217600Y-62687200D03*
X168757600Y-62687200D03*
D15*
X193141600Y-59588400D03*
D16*
X193141600Y-72288400D03*
D10*
X114503200Y-54325400D03*
D11*
X120503200Y-54325400D03*
D23*
X134061200Y-91440000D03*
D24*
X128661200Y-91440000D03*
X123261200Y-91440000D03*
X117861200Y-91440000D03*
X112461200Y-91440000D03*
D25*
X158438800Y-92659200D03*
D26*
X156368800Y-91389200D03*
X158438800Y-90119200D03*
D15*
X138785600Y-91440000D03*
D16*
X151485600Y-91440000D03*
M02*
