M48
INCH,TZ
T1C0.0394
%
G90
G05
T1
X46244Y-21654
X46244Y-22654
X46244Y-23654
X46244Y-24654
X46244Y-25654
X46244Y-26654
X46244Y-27654
X46244Y-28654
X46244Y-29654
X46244Y-30654
X46244Y-31654
X46244Y-32654
X46244Y-33654
X46244Y-34654
X46244Y-35654
X46244Y-36654
X46244Y-37654
X46244Y-38654
X46244Y-39654
X46244Y-40654
X47244Y-21654
X47244Y-22654
X47244Y-23654
X47244Y-24654
X47244Y-25654
X47244Y-26654
X47244Y-27654
X47244Y-28654
X47244Y-29654
X47244Y-30654
X47244Y-31654
X47244Y-32654
X47244Y-33654
X47244Y-34654
X47244Y-35654
X47244Y-36654
X47244Y-37654
X47244Y-38654
X47244Y-39654
X47244Y-40654
X65929Y-21654
X65929Y-22654
X65929Y-23654
X65929Y-24654
X65929Y-25654
X65929Y-26654
X65929Y-27654
X65929Y-28654
X65929Y-29654
X65929Y-30654
X65929Y-31654
X65929Y-32654
X65929Y-33654
X65929Y-34654
X65929Y-35654
X65929Y-36654
X65929Y-37654
X65929Y-38654
X65929Y-39654
X65929Y-40654
X66929Y-21654
X66929Y-22654
X66929Y-23654
X66929Y-24654
X66929Y-25654
X66929Y-26654
X66929Y-27654
X66929Y-28654
X66929Y-29654
X66929Y-30654
X66929Y-31654
X66929Y-32654
X66929Y-33654
X66929Y-34654
X66929Y-35654
X66929Y-36654
X66929Y-37654
X66929Y-38654
X66929Y-39654
X66929Y-40654
M30
