%TF.GenerationSoftware,KiCad,Pcbnew,8.0.2-8.0.2-0~ubuntu24.04.1*%
%TF.CreationDate,2024-05-08T14:09:33+02:00*%
%TF.ProjectId,astrobox_rpi_line,61737472-6f62-46f7-985f-7270695f6c69,rev?*%
%TF.SameCoordinates,Original*%
%TF.FileFunction,Copper,L2,Bot*%
%TF.FilePolarity,Positive*%
%FSLAX46Y46*%
G04 Gerber Fmt 4.6, Leading zero omitted, Abs format (unit mm)*
G04 Created by KiCad (PCBNEW 8.0.2-8.0.2-0~ubuntu24.04.1) date 2024-05-08 14:09:33*
%MOMM*%
%LPD*%
G01*
G04 APERTURE LIST*
%TA.AperFunction,ComponentPad*%
%ADD10R,1.700000X1.700000*%
%TD*%
%TA.AperFunction,ComponentPad*%
%ADD11O,1.700000X1.700000*%
%TD*%
%TA.AperFunction,Conductor*%
%ADD12C,0.200000*%
%TD*%
G04 APERTURE END LIST*
D10*
X120000000Y-55000000D03*
D11*
X117460000Y-55000000D03*
X120000000Y-57540000D03*
X117460000Y-57540000D03*
X120000000Y-60080000D03*
X117460000Y-60080000D03*
X120000000Y-62620000D03*
X117460000Y-62620000D03*
X120000000Y-65160000D03*
X117460000Y-65160000D03*
X120000000Y-67700000D03*
X117460000Y-67700000D03*
X120000000Y-70240000D03*
X117460000Y-70240000D03*
X120000000Y-72780000D03*
X117460000Y-72780000D03*
X120000000Y-75320000D03*
X117460000Y-75320000D03*
X120000000Y-77860000D03*
X117460000Y-77860000D03*
X120000000Y-80400000D03*
X117460000Y-80400000D03*
X120000000Y-82940000D03*
X117460000Y-82940000D03*
X120000000Y-85480000D03*
X117460000Y-85480000D03*
X120000000Y-88020000D03*
X117460000Y-88020000D03*
X120000000Y-90560000D03*
X117460000Y-90560000D03*
X120000000Y-93100000D03*
X117460000Y-93100000D03*
X120000000Y-95640000D03*
X117460000Y-95640000D03*
X120000000Y-98180000D03*
X117460000Y-98180000D03*
X120000000Y-100720000D03*
X117460000Y-100720000D03*
X120000000Y-103260000D03*
X117460000Y-103260000D03*
D10*
X170000000Y-55000000D03*
D11*
X167460000Y-55000000D03*
X170000000Y-57540000D03*
X167460000Y-57540000D03*
X170000000Y-60080000D03*
X167460000Y-60080000D03*
X170000000Y-62620000D03*
X167460000Y-62620000D03*
X170000000Y-65160000D03*
X167460000Y-65160000D03*
X170000000Y-67700000D03*
X167460000Y-67700000D03*
X170000000Y-70240000D03*
X167460000Y-70240000D03*
X170000000Y-72780000D03*
X167460000Y-72780000D03*
X170000000Y-75320000D03*
X167460000Y-75320000D03*
X170000000Y-77860000D03*
X167460000Y-77860000D03*
X170000000Y-80400000D03*
X167460000Y-80400000D03*
X170000000Y-82940000D03*
X167460000Y-82940000D03*
X170000000Y-85480000D03*
X167460000Y-85480000D03*
X170000000Y-88020000D03*
X167460000Y-88020000D03*
X170000000Y-90560000D03*
X167460000Y-90560000D03*
X170000000Y-93100000D03*
X167460000Y-93100000D03*
X170000000Y-95640000D03*
X167460000Y-95640000D03*
X170000000Y-98180000D03*
X167460000Y-98180000D03*
X170000000Y-100720000D03*
X167460000Y-100720000D03*
X170000000Y-103260000D03*
X167460000Y-103260000D03*
D12*
X120000000Y-103260000D02*
X162975400Y-103260000D01*
X162975400Y-103260000D02*
X164125400Y-104410000D01*
X168850000Y-104410000D02*
X170000000Y-103260000D01*
X164125400Y-104410000D02*
X168850000Y-104410000D01*
X168850000Y-68850000D02*
X170000000Y-67700000D01*
X120000000Y-67700000D02*
X162721400Y-67700000D01*
X162721400Y-67700000D02*
X163871400Y-68850000D01*
X163871400Y-68850000D02*
X168850000Y-68850000D01*
X163820600Y-76470000D02*
X168850000Y-76470000D01*
X162670600Y-75320000D02*
X163820600Y-76470000D01*
X120000000Y-75320000D02*
X162670600Y-75320000D01*
X168850000Y-76470000D02*
X170000000Y-75320000D01*
X164067600Y-98180000D02*
X162677600Y-96790000D01*
X118850000Y-96790000D02*
X117460000Y-98180000D01*
X162677600Y-96790000D02*
X118850000Y-96790000D01*
X167460000Y-98180000D02*
X164067600Y-98180000D01*
X164118400Y-57540000D02*
X162968400Y-56390000D01*
X118610000Y-56390000D02*
X117460000Y-57540000D01*
X167460000Y-57540000D02*
X164118400Y-57540000D01*
X162968400Y-56390000D02*
X118610000Y-56390000D01*
X120000000Y-60080000D02*
X162848400Y-60080000D01*
X168850000Y-61230000D02*
X170000000Y-60080000D01*
X162848400Y-60080000D02*
X163998400Y-61230000D01*
X163998400Y-61230000D02*
X168850000Y-61230000D01*
X120000000Y-57540000D02*
X162670600Y-57540000D01*
X163820600Y-58690000D02*
X168850000Y-58690000D01*
X168850000Y-58690000D02*
X170000000Y-57540000D01*
X162670600Y-57540000D02*
X163820600Y-58690000D01*
X163744400Y-91710000D02*
X168850000Y-91710000D01*
X162594400Y-90560000D02*
X163744400Y-91710000D01*
X168850000Y-91710000D02*
X170000000Y-90560000D01*
X120000000Y-90560000D02*
X162594400Y-90560000D01*
X162721400Y-85480000D02*
X163871400Y-86630000D01*
X120000000Y-85480000D02*
X162721400Y-85480000D01*
X163871400Y-86630000D02*
X168850000Y-86630000D01*
X168850000Y-86630000D02*
X170000000Y-85480000D01*
X162714400Y-76710000D02*
X118610000Y-76710000D01*
X118610000Y-76710000D02*
X117460000Y-77860000D01*
X163864400Y-77860000D02*
X162714400Y-76710000D01*
X167460000Y-77860000D02*
X163864400Y-77860000D01*
X164016800Y-55000000D02*
X167460000Y-55000000D01*
X117460000Y-55000000D02*
X118610000Y-53850000D01*
X162866800Y-53850000D02*
X164016800Y-55000000D01*
X118610000Y-53850000D02*
X162866800Y-53850000D01*
X163991400Y-100720000D02*
X162841400Y-99570000D01*
X162841400Y-99570000D02*
X118610000Y-99570000D01*
X167460000Y-100720000D02*
X163991400Y-100720000D01*
X118610000Y-99570000D02*
X117460000Y-100720000D01*
X120000000Y-65160000D02*
X162645200Y-65160000D01*
X163795200Y-66310000D02*
X168850000Y-66310000D01*
X162645200Y-65160000D02*
X163795200Y-66310000D01*
X168850000Y-66310000D02*
X170000000Y-65160000D01*
X120000000Y-62620000D02*
X162746800Y-62620000D01*
X162746800Y-62620000D02*
X163896800Y-63770000D01*
X168850000Y-63770000D02*
X170000000Y-62620000D01*
X163896800Y-63770000D02*
X168850000Y-63770000D01*
X163813600Y-88020000D02*
X162663600Y-86870000D01*
X167460000Y-88020000D02*
X163813600Y-88020000D01*
X162663600Y-86870000D02*
X118610000Y-86870000D01*
X118610000Y-86870000D02*
X117460000Y-88020000D01*
X163973000Y-96790000D02*
X168850000Y-96790000D01*
X162823000Y-95640000D02*
X163973000Y-96790000D01*
X168850000Y-96790000D02*
X170000000Y-95640000D01*
X120000000Y-95640000D02*
X162823000Y-95640000D01*
X120000000Y-77860000D02*
X162873800Y-77860000D01*
X164023800Y-79010000D02*
X168850000Y-79010000D01*
X162873800Y-77860000D02*
X164023800Y-79010000D01*
X168850000Y-79010000D02*
X170000000Y-77860000D01*
X167460000Y-90560000D02*
X163712000Y-90560000D01*
X162562000Y-89410000D02*
X118610000Y-89410000D01*
X118610000Y-89410000D02*
X117460000Y-90560000D01*
X163712000Y-90560000D02*
X162562000Y-89410000D01*
X167460000Y-67700000D02*
X163889800Y-67700000D01*
X118610000Y-66550000D02*
X117460000Y-67700000D01*
X163889800Y-67700000D02*
X162739800Y-66550000D01*
X162739800Y-66550000D02*
X118610000Y-66550000D01*
X162696000Y-80400000D02*
X163846000Y-81550000D01*
X163846000Y-81550000D02*
X168850000Y-81550000D01*
X120000000Y-80400000D02*
X162696000Y-80400000D01*
X168850000Y-81550000D02*
X170000000Y-80400000D01*
X164067600Y-75320000D02*
X162917600Y-74170000D01*
X162917600Y-74170000D02*
X118610000Y-74170000D01*
X167460000Y-75320000D02*
X164067600Y-75320000D01*
X118610000Y-74170000D02*
X117460000Y-75320000D01*
X163940600Y-103260000D02*
X162790600Y-102110000D01*
X118610000Y-102110000D02*
X117460000Y-103260000D01*
X162790600Y-102110000D02*
X118610000Y-102110000D01*
X167460000Y-103260000D02*
X163940600Y-103260000D01*
X167460000Y-65160000D02*
X163940600Y-65160000D01*
X162790600Y-64010000D02*
X118610000Y-64010000D01*
X118610000Y-64010000D02*
X117460000Y-65160000D01*
X163940600Y-65160000D02*
X162790600Y-64010000D01*
X162569000Y-93100000D02*
X163719000Y-94250000D01*
X120000000Y-93100000D02*
X162569000Y-93100000D01*
X168850000Y-94250000D02*
X170000000Y-93100000D01*
X163719000Y-94250000D02*
X168850000Y-94250000D01*
X118610000Y-79250000D02*
X117460000Y-80400000D01*
X162689000Y-79250000D02*
X118610000Y-79250000D01*
X163839000Y-80400000D02*
X162689000Y-79250000D01*
X167460000Y-80400000D02*
X163839000Y-80400000D01*
X167460000Y-60080000D02*
X163915200Y-60080000D01*
X118610000Y-58930000D02*
X117460000Y-60080000D01*
X163915200Y-60080000D02*
X162765200Y-58930000D01*
X162765200Y-58930000D02*
X118610000Y-58930000D01*
X118610000Y-84330000D02*
X117460000Y-85480000D01*
X167460000Y-85480000D02*
X164042200Y-85480000D01*
X164042200Y-85480000D02*
X162892200Y-84330000D01*
X162892200Y-84330000D02*
X118610000Y-84330000D01*
X162816000Y-71630000D02*
X118610000Y-71630000D01*
X163966000Y-72780000D02*
X162816000Y-71630000D01*
X167460000Y-72780000D02*
X163966000Y-72780000D01*
X118610000Y-71630000D02*
X117460000Y-72780000D01*
X162645200Y-82940000D02*
X163795200Y-84090000D01*
X168850000Y-84090000D02*
X170000000Y-82940000D01*
X120000000Y-82940000D02*
X162645200Y-82940000D01*
X163795200Y-84090000D02*
X168850000Y-84090000D01*
X120000000Y-72780000D02*
X162899200Y-72780000D01*
X164049200Y-73930000D02*
X168850000Y-73930000D01*
X168850000Y-73930000D02*
X170000000Y-72780000D01*
X162899200Y-72780000D02*
X164049200Y-73930000D01*
X162772200Y-55000000D02*
X163922200Y-56150000D01*
X163922200Y-56150000D02*
X168850000Y-56150000D01*
X168850000Y-56150000D02*
X170000000Y-55000000D01*
X120000000Y-55000000D02*
X162772200Y-55000000D01*
X163991400Y-62620000D02*
X162841400Y-61470000D01*
X167460000Y-62620000D02*
X163991400Y-62620000D01*
X162841400Y-61470000D02*
X118610000Y-61470000D01*
X118610000Y-61470000D02*
X117460000Y-62620000D01*
X162790600Y-69090000D02*
X118610000Y-69090000D01*
X163940600Y-70240000D02*
X162790600Y-69090000D01*
X167460000Y-70240000D02*
X163940600Y-70240000D01*
X118610000Y-69090000D02*
X117460000Y-70240000D01*
X162696000Y-70240000D02*
X163846000Y-71390000D01*
X168850000Y-71390000D02*
X170000000Y-70240000D01*
X120000000Y-70240000D02*
X162696000Y-70240000D01*
X163846000Y-71390000D02*
X168850000Y-71390000D01*
X162594400Y-100720000D02*
X163744400Y-101870000D01*
X163744400Y-101870000D02*
X168850000Y-101870000D01*
X120000000Y-100720000D02*
X162594400Y-100720000D01*
X168850000Y-101870000D02*
X170000000Y-100720000D01*
X162899200Y-98180000D02*
X164049200Y-99330000D01*
X164049200Y-99330000D02*
X168850000Y-99330000D01*
X168850000Y-99330000D02*
X170000000Y-98180000D01*
X120000000Y-98180000D02*
X162899200Y-98180000D01*
X163864400Y-82940000D02*
X162714400Y-81790000D01*
X162714400Y-81790000D02*
X118610000Y-81790000D01*
X167460000Y-82940000D02*
X163864400Y-82940000D01*
X118610000Y-81790000D02*
X117460000Y-82940000D01*
X162739800Y-91950000D02*
X118610000Y-91950000D01*
X118610000Y-91950000D02*
X117460000Y-93100000D01*
X167460000Y-93100000D02*
X163889800Y-93100000D01*
X163889800Y-93100000D02*
X162739800Y-91950000D01*
X118610000Y-94490000D02*
X117460000Y-95640000D01*
X162689000Y-94490000D02*
X118610000Y-94490000D01*
X167460000Y-95640000D02*
X163839000Y-95640000D01*
X163839000Y-95640000D02*
X162689000Y-94490000D01*
X120000000Y-88020000D02*
X162416600Y-88020000D01*
X163566600Y-89170000D02*
X168850000Y-89170000D01*
X168850000Y-89170000D02*
X170000000Y-88020000D01*
X162416600Y-88020000D02*
X163566600Y-89170000D01*
M02*
