G04 #@! TF.GenerationSoftware,KiCad,Pcbnew,9.0.5-9.0.5~ubuntu25.10.1*
G04 #@! TF.CreationDate,2025-11-16T09:42:55+01:00*
G04 #@! TF.ProjectId,astrobox_power_mediumbox,61737472-6f62-46f7-985f-706f7765725f,1*
G04 #@! TF.SameCoordinates,Original*
G04 #@! TF.FileFunction,Soldermask,Bot*
G04 #@! TF.FilePolarity,Negative*
%FSLAX46Y46*%
G04 Gerber Fmt 4.6, Leading zero omitted, Abs format (unit mm)*
G04 Created by KiCad (PCBNEW 9.0.5-9.0.5~ubuntu25.10.1) date 2025-11-16 09:42:55*
%MOMM*%
%LPD*%
G01*
G04 APERTURE LIST*
G04 Aperture macros list*
%AMRoundRect*
0 Rectangle with rounded corners*
0 $1 Rounding radius*
0 $2 $3 $4 $5 $6 $7 $8 $9 X,Y pos of 4 corners*
0 Add a 4 corners polygon primitive as box body*
4,1,4,$2,$3,$4,$5,$6,$7,$8,$9,$2,$3,0*
0 Add four circle primitives for the rounded corners*
1,1,$1+$1,$2,$3*
1,1,$1+$1,$4,$5*
1,1,$1+$1,$6,$7*
1,1,$1+$1,$8,$9*
0 Add four rect primitives between the rounded corners*
20,1,$1+$1,$2,$3,$4,$5,0*
20,1,$1+$1,$4,$5,$6,$7,0*
20,1,$1+$1,$6,$7,$8,$9,0*
20,1,$1+$1,$8,$9,$2,$3,0*%
G04 Aperture macros list end*
%ADD10RoundRect,0.250000X1.325000X-1.325000X1.325000X1.325000X-1.325000X1.325000X-1.325000X-1.325000X0*%
%ADD11C,3.150000*%
%ADD12C,0.800000*%
%ADD13C,6.400000*%
%ADD14R,1.700000X1.700000*%
%ADD15C,1.700000*%
G04 APERTURE END LIST*
D10*
X146000000Y-50000000D03*
D11*
X146000000Y-44000000D03*
D10*
X128000000Y-50000000D03*
D11*
X128000000Y-44000000D03*
D12*
X155000000Y-47400000D03*
X153302944Y-46697056D03*
X156697056Y-46697056D03*
X152600000Y-45000000D03*
D13*
X155000000Y-45000000D03*
D12*
X157400000Y-45000000D03*
X153302944Y-43302944D03*
X156697056Y-43302944D03*
X155000000Y-42600000D03*
X72600000Y-45000000D03*
X73302944Y-43302944D03*
X73302944Y-46697056D03*
X75000000Y-42600000D03*
D13*
X75000000Y-45000000D03*
D12*
X75000000Y-47400000D03*
X76697056Y-43302944D03*
X76697056Y-46697056D03*
X77400000Y-45000000D03*
D10*
X96000000Y-50000000D03*
D11*
X96000000Y-44000000D03*
D14*
X134655325Y-86895356D03*
D15*
X137195325Y-86895356D03*
X139735325Y-86895356D03*
X142275325Y-86895356D03*
X144815325Y-86895356D03*
X147355325Y-86895356D03*
X149895325Y-86895356D03*
X152435325Y-86895356D03*
X154975325Y-86895356D03*
X157515325Y-86895356D03*
X160055325Y-86895356D03*
D12*
X152600000Y-95000000D03*
X153302944Y-93302944D03*
X153302944Y-96697056D03*
X155000000Y-92600000D03*
D13*
X155000000Y-95000000D03*
D12*
X155000000Y-97400000D03*
X156697056Y-93302944D03*
X156697056Y-96697056D03*
X157400000Y-95000000D03*
X72600000Y-95000000D03*
X73302944Y-93302944D03*
X73302944Y-96697056D03*
X75000000Y-92600000D03*
D13*
X75000000Y-95000000D03*
D12*
X75000000Y-97400000D03*
X76697056Y-93302944D03*
X76697056Y-96697056D03*
X77400000Y-95000000D03*
D10*
X104000000Y-50000000D03*
D11*
X104000000Y-44000000D03*
D10*
X84000000Y-50000000D03*
D11*
X84000000Y-44000000D03*
D14*
X104282625Y-86830786D03*
D15*
X106822625Y-86830786D03*
X109362625Y-86830786D03*
X111902625Y-86830786D03*
X114442625Y-86830786D03*
X116982625Y-86830786D03*
X119522625Y-86830786D03*
X122062625Y-86830786D03*
X124602625Y-86830786D03*
X127142625Y-86830786D03*
X129682625Y-86830786D03*
D10*
X78600000Y-77900000D03*
D11*
X78600000Y-71900000D03*
X78600000Y-65900000D03*
X78600000Y-59900000D03*
X78600000Y-53900000D03*
D10*
X134000000Y-50000000D03*
D11*
X134000000Y-44000000D03*
D10*
X122000000Y-50000000D03*
D11*
X122000000Y-44000000D03*
D12*
X77200000Y-94900000D03*
D10*
X90000000Y-50000000D03*
D11*
X90000000Y-44000000D03*
D10*
X140000000Y-50000000D03*
D11*
X140000000Y-44000000D03*
D10*
X116000000Y-50000000D03*
D11*
X116000000Y-44000000D03*
D14*
X73219597Y-86762946D03*
D15*
X75759597Y-86762946D03*
X78299597Y-86762946D03*
X80839597Y-86762946D03*
X83379597Y-86762946D03*
X85919597Y-86762946D03*
X88459597Y-86762946D03*
X90999597Y-86762946D03*
X93539597Y-86762946D03*
X96079597Y-86762946D03*
X98619597Y-86762946D03*
D10*
X110000000Y-50000000D03*
D11*
X110000000Y-44000000D03*
M02*
