M48
INCH,TZ
T1C0.0157
T2C0.0197
T3C0.0394
T4C0.0846
T5C0.1260
%
G90
G05
T1
X35315Y-24449
T2
X28583Y-17717
X28583Y-37402
X28859Y-17048
X28859Y-18385
X28859Y-36733
X28859Y-38070
X29528Y-16772
X29528Y-18661
X29528Y-36457
X29528Y-38346
X30196Y-17048
X30196Y-18385
X30196Y-36733
X30196Y-38070
X30394Y-37362
X30472Y-17717
X30472Y-37402
X60079Y-17717
X60079Y-37402
X60355Y-17048
X60355Y-18385
X60355Y-36733
X60355Y-38070
X61024Y-16772
X61024Y-18661
X61024Y-36457
X61024Y-38346
X61692Y-17048
X61692Y-18385
X61692Y-36733
X61692Y-38070
X61969Y-17717
X61969Y-37402
T3
X28827Y-34159
X29827Y-34159
X30827Y-34159
X31827Y-34159
X32827Y-34159
X33827Y-34159
X34827Y-34159
X35827Y-34159
X36827Y-34159
X37827Y-34159
X38827Y-34159
X41056Y-34185
X42056Y-34185
X43056Y-34185
X44056Y-34185
X45056Y-34185
X46056Y-34185
X47056Y-34185
X48056Y-34185
X49056Y-34185
X50056Y-34185
X51056Y-34185
X53014Y-34211
X54014Y-34211
X55014Y-34211
X56014Y-34211
X57014Y-34211
X58014Y-34211
X59014Y-34211
X60014Y-34211
X61014Y-34211
X62014Y-34211
X63014Y-34211
T4
X30945Y-21220
X30945Y-23583
X30945Y-25945
X30945Y-28307
X30945Y-30669
X33071Y-17323
X33071Y-19685
X35433Y-17323
X35433Y-19685
X37795Y-17323
X37795Y-19685
X40945Y-17323
X40945Y-19685
X43307Y-17323
X43307Y-19685
X45669Y-17323
X45669Y-19685
X48031Y-17323
X48031Y-19685
X50394Y-17323
X50394Y-19685
X52756Y-17323
X52756Y-19685
X55118Y-17323
X55118Y-19685
X57480Y-17323
X57480Y-19685
T5
X29528Y-17717
X29528Y-37402
X61024Y-17717
X61024Y-37402
M30
