G04 #@! TF.GenerationSoftware,KiCad,Pcbnew,9.0.5-9.0.5~ubuntu25.10.1*
G04 #@! TF.CreationDate,2025-11-16T09:42:55+01:00*
G04 #@! TF.ProjectId,astrobox_power_mediumbox,61737472-6f62-46f7-985f-706f7765725f,1*
G04 #@! TF.SameCoordinates,Original*
G04 #@! TF.FileFunction,Copper,L2,Bot*
G04 #@! TF.FilePolarity,Positive*
%FSLAX46Y46*%
G04 Gerber Fmt 4.6, Leading zero omitted, Abs format (unit mm)*
G04 Created by KiCad (PCBNEW 9.0.5-9.0.5~ubuntu25.10.1) date 2025-11-16 09:42:55*
%MOMM*%
%LPD*%
G01*
G04 APERTURE LIST*
G04 Aperture macros list*
%AMRoundRect*
0 Rectangle with rounded corners*
0 $1 Rounding radius*
0 $2 $3 $4 $5 $6 $7 $8 $9 X,Y pos of 4 corners*
0 Add a 4 corners polygon primitive as box body*
4,1,4,$2,$3,$4,$5,$6,$7,$8,$9,$2,$3,0*
0 Add four circle primitives for the rounded corners*
1,1,$1+$1,$2,$3*
1,1,$1+$1,$4,$5*
1,1,$1+$1,$6,$7*
1,1,$1+$1,$8,$9*
0 Add four rect primitives between the rounded corners*
20,1,$1+$1,$2,$3,$4,$5,0*
20,1,$1+$1,$4,$5,$6,$7,0*
20,1,$1+$1,$6,$7,$8,$9,0*
20,1,$1+$1,$8,$9,$2,$3,0*%
G04 Aperture macros list end*
G04 #@! TA.AperFunction,ComponentPad*
%ADD10RoundRect,0.250000X1.325000X-1.325000X1.325000X1.325000X-1.325000X1.325000X-1.325000X-1.325000X0*%
G04 #@! TD*
G04 #@! TA.AperFunction,ComponentPad*
%ADD11C,3.150000*%
G04 #@! TD*
G04 #@! TA.AperFunction,ComponentPad*
%ADD12C,0.800000*%
G04 #@! TD*
G04 #@! TA.AperFunction,ComponentPad*
%ADD13C,6.400000*%
G04 #@! TD*
G04 #@! TA.AperFunction,ComponentPad*
%ADD14R,1.700000X1.700000*%
G04 #@! TD*
G04 #@! TA.AperFunction,ComponentPad*
%ADD15C,1.700000*%
G04 #@! TD*
G04 #@! TA.AperFunction,ViaPad*
%ADD16C,0.800000*%
G04 #@! TD*
G04 #@! TA.AperFunction,Conductor*
%ADD17C,2.000000*%
G04 #@! TD*
G04 APERTURE END LIST*
D10*
X146000000Y-50000000D03*
D11*
X146000000Y-44000000D03*
D10*
X128000000Y-50000000D03*
D11*
X128000000Y-44000000D03*
D12*
X155000000Y-47400000D03*
X153302944Y-46697056D03*
X156697056Y-46697056D03*
X152600000Y-45000000D03*
D13*
X155000000Y-45000000D03*
D12*
X157400000Y-45000000D03*
X153302944Y-43302944D03*
X156697056Y-43302944D03*
X155000000Y-42600000D03*
X72600000Y-45000000D03*
X73302944Y-43302944D03*
X73302944Y-46697056D03*
X75000000Y-42600000D03*
D13*
X75000000Y-45000000D03*
D12*
X75000000Y-47400000D03*
X76697056Y-43302944D03*
X76697056Y-46697056D03*
X77400000Y-45000000D03*
D10*
X96000000Y-50000000D03*
D11*
X96000000Y-44000000D03*
D14*
X134655325Y-86895356D03*
D15*
X137195325Y-86895356D03*
X139735325Y-86895356D03*
X142275325Y-86895356D03*
X144815325Y-86895356D03*
X147355325Y-86895356D03*
X149895325Y-86895356D03*
X152435325Y-86895356D03*
X154975325Y-86895356D03*
X157515325Y-86895356D03*
X160055325Y-86895356D03*
D12*
X152600000Y-95000000D03*
X153302944Y-93302944D03*
X153302944Y-96697056D03*
X155000000Y-92600000D03*
D13*
X155000000Y-95000000D03*
D12*
X155000000Y-97400000D03*
X156697056Y-93302944D03*
X156697056Y-96697056D03*
X157400000Y-95000000D03*
X72600000Y-95000000D03*
X73302944Y-93302944D03*
X73302944Y-96697056D03*
X75000000Y-92600000D03*
D13*
X75000000Y-95000000D03*
D12*
X75000000Y-97400000D03*
X76697056Y-93302944D03*
X76697056Y-96697056D03*
X77400000Y-95000000D03*
D10*
X104000000Y-50000000D03*
D11*
X104000000Y-44000000D03*
D10*
X84000000Y-50000000D03*
D11*
X84000000Y-44000000D03*
D14*
X104282625Y-86830786D03*
D15*
X106822625Y-86830786D03*
X109362625Y-86830786D03*
X111902625Y-86830786D03*
X114442625Y-86830786D03*
X116982625Y-86830786D03*
X119522625Y-86830786D03*
X122062625Y-86830786D03*
X124602625Y-86830786D03*
X127142625Y-86830786D03*
X129682625Y-86830786D03*
D10*
X78600000Y-77900000D03*
D11*
X78600000Y-71900000D03*
X78600000Y-65900000D03*
X78600000Y-59900000D03*
X78600000Y-53900000D03*
D10*
X134000000Y-50000000D03*
D11*
X134000000Y-44000000D03*
D10*
X122000000Y-50000000D03*
D11*
X122000000Y-44000000D03*
D12*
X77200000Y-94900000D03*
D10*
X90000000Y-50000000D03*
D11*
X90000000Y-44000000D03*
D10*
X140000000Y-50000000D03*
D11*
X140000000Y-44000000D03*
D10*
X116000000Y-50000000D03*
D11*
X116000000Y-44000000D03*
D14*
X73219597Y-86762946D03*
D15*
X75759597Y-86762946D03*
X78299597Y-86762946D03*
X80839597Y-86762946D03*
X83379597Y-86762946D03*
X85919597Y-86762946D03*
X88459597Y-86762946D03*
X90999597Y-86762946D03*
X93539597Y-86762946D03*
X96079597Y-86762946D03*
X98619597Y-86762946D03*
D10*
X110000000Y-50000000D03*
D11*
X110000000Y-44000000D03*
D16*
X89700000Y-62100000D03*
D17*
X78600000Y-71900000D02*
X87300000Y-71900000D01*
X99900000Y-48100000D02*
X104000000Y-44000000D01*
X116000000Y-44000000D02*
X110000000Y-44000000D01*
X128000000Y-44000000D02*
X122000000Y-44000000D01*
X134000000Y-44000000D02*
X128000000Y-44000000D01*
X146000000Y-44000000D02*
X140000000Y-44000000D01*
X110000000Y-44000000D02*
X104000000Y-44000000D01*
X87300000Y-71900000D02*
X99900000Y-59300000D01*
X140000000Y-44000000D02*
X134000000Y-44000000D01*
X99900000Y-59300000D02*
X99900000Y-48100000D01*
X122000000Y-44000000D02*
X116000000Y-44000000D01*
X78299597Y-86762946D02*
X75759597Y-86762946D01*
X78299597Y-86762946D02*
X98619597Y-86762946D01*
X73219597Y-59280403D02*
X78600000Y-53900000D01*
X73219597Y-86762946D02*
X73219597Y-59280403D01*
X73219597Y-86762946D02*
X75759597Y-86762946D01*
G04 #@! TA.AperFunction,Conductor*
G36*
X161943039Y-41019685D02*
G01*
X161988794Y-41072489D01*
X162000000Y-41124000D01*
X162000000Y-98876000D01*
X161980315Y-98943039D01*
X161927511Y-98988794D01*
X161876000Y-99000000D01*
X71124000Y-99000000D01*
X71056961Y-98980315D01*
X71011206Y-98927511D01*
X71000000Y-98876000D01*
X71000000Y-94818209D01*
X71299500Y-94818209D01*
X71299500Y-95181790D01*
X71335137Y-95543630D01*
X71406064Y-95900212D01*
X71406067Y-95900223D01*
X71511614Y-96248165D01*
X71650754Y-96584078D01*
X71650756Y-96584083D01*
X71822140Y-96904720D01*
X71822151Y-96904738D01*
X72024140Y-97207035D01*
X72024150Y-97207049D01*
X72254807Y-97488106D01*
X72511893Y-97745192D01*
X72511898Y-97745196D01*
X72511899Y-97745197D01*
X72792956Y-97975854D01*
X73095268Y-98177853D01*
X73095277Y-98177858D01*
X73095279Y-98177859D01*
X73415916Y-98349243D01*
X73415918Y-98349243D01*
X73415924Y-98349247D01*
X73751836Y-98488386D01*
X74099767Y-98593930D01*
X74099773Y-98593931D01*
X74099776Y-98593932D01*
X74099787Y-98593935D01*
X74456369Y-98664862D01*
X74818206Y-98700500D01*
X74818209Y-98700500D01*
X75181791Y-98700500D01*
X75181794Y-98700500D01*
X75543631Y-98664862D01*
X75613045Y-98651054D01*
X75900212Y-98593935D01*
X75900223Y-98593932D01*
X75900223Y-98593931D01*
X75900233Y-98593930D01*
X76248164Y-98488386D01*
X76584076Y-98349247D01*
X76904732Y-98177853D01*
X77207044Y-97975854D01*
X77488101Y-97745197D01*
X77745197Y-97488101D01*
X77975854Y-97207044D01*
X78177853Y-96904732D01*
X78349247Y-96584076D01*
X78488386Y-96248164D01*
X78593930Y-95900233D01*
X78593932Y-95900223D01*
X78593935Y-95900212D01*
X78664862Y-95543630D01*
X78700500Y-95181790D01*
X78700500Y-94818209D01*
X151299500Y-94818209D01*
X151299500Y-95181790D01*
X151335137Y-95543630D01*
X151406064Y-95900212D01*
X151406067Y-95900223D01*
X151511614Y-96248165D01*
X151650754Y-96584078D01*
X151650756Y-96584083D01*
X151822140Y-96904720D01*
X151822151Y-96904738D01*
X152024140Y-97207035D01*
X152024150Y-97207049D01*
X152254807Y-97488106D01*
X152511893Y-97745192D01*
X152511898Y-97745196D01*
X152511899Y-97745197D01*
X152792956Y-97975854D01*
X153095268Y-98177853D01*
X153095277Y-98177858D01*
X153095279Y-98177859D01*
X153415916Y-98349243D01*
X153415918Y-98349243D01*
X153415924Y-98349247D01*
X153751836Y-98488386D01*
X154099767Y-98593930D01*
X154099773Y-98593931D01*
X154099776Y-98593932D01*
X154099787Y-98593935D01*
X154456369Y-98664862D01*
X154818206Y-98700500D01*
X154818209Y-98700500D01*
X155181791Y-98700500D01*
X155181794Y-98700500D01*
X155543631Y-98664862D01*
X155613045Y-98651054D01*
X155900212Y-98593935D01*
X155900223Y-98593932D01*
X155900223Y-98593931D01*
X155900233Y-98593930D01*
X156248164Y-98488386D01*
X156584076Y-98349247D01*
X156904732Y-98177853D01*
X157207044Y-97975854D01*
X157488101Y-97745197D01*
X157745197Y-97488101D01*
X157975854Y-97207044D01*
X158177853Y-96904732D01*
X158349247Y-96584076D01*
X158488386Y-96248164D01*
X158593930Y-95900233D01*
X158593932Y-95900223D01*
X158593935Y-95900212D01*
X158664862Y-95543630D01*
X158700500Y-95181790D01*
X158700500Y-94818209D01*
X158664862Y-94456369D01*
X158593935Y-94099787D01*
X158593932Y-94099776D01*
X158593931Y-94099773D01*
X158593930Y-94099767D01*
X158488386Y-93751836D01*
X158349247Y-93415924D01*
X158177853Y-93095268D01*
X157975854Y-92792956D01*
X157745197Y-92511899D01*
X157745196Y-92511898D01*
X157745192Y-92511893D01*
X157488106Y-92254807D01*
X157207049Y-92024150D01*
X157207048Y-92024149D01*
X157207044Y-92024146D01*
X156904732Y-91822147D01*
X156904727Y-91822144D01*
X156904720Y-91822140D01*
X156584083Y-91650756D01*
X156584078Y-91650754D01*
X156248165Y-91511614D01*
X155900223Y-91406067D01*
X155900212Y-91406064D01*
X155543630Y-91335137D01*
X155271111Y-91308296D01*
X155181794Y-91299500D01*
X154818206Y-91299500D01*
X154735679Y-91307628D01*
X154456369Y-91335137D01*
X154099787Y-91406064D01*
X154099776Y-91406067D01*
X153751834Y-91511614D01*
X153415921Y-91650754D01*
X153415916Y-91650756D01*
X153095279Y-91822140D01*
X153095261Y-91822151D01*
X152792964Y-92024140D01*
X152792950Y-92024150D01*
X152511893Y-92254807D01*
X152254807Y-92511893D01*
X152024150Y-92792950D01*
X152024140Y-92792964D01*
X151822151Y-93095261D01*
X151822140Y-93095279D01*
X151650756Y-93415916D01*
X151650754Y-93415921D01*
X151511614Y-93751834D01*
X151406067Y-94099776D01*
X151406064Y-94099787D01*
X151335137Y-94456369D01*
X151299500Y-94818209D01*
X78700500Y-94818209D01*
X78664862Y-94456369D01*
X78593935Y-94099787D01*
X78593932Y-94099776D01*
X78593931Y-94099773D01*
X78593930Y-94099767D01*
X78488386Y-93751836D01*
X78349247Y-93415924D01*
X78177853Y-93095268D01*
X77975854Y-92792956D01*
X77745197Y-92511899D01*
X77745196Y-92511898D01*
X77745192Y-92511893D01*
X77488106Y-92254807D01*
X77207049Y-92024150D01*
X77207048Y-92024149D01*
X77207044Y-92024146D01*
X76904732Y-91822147D01*
X76904727Y-91822144D01*
X76904720Y-91822140D01*
X76584083Y-91650756D01*
X76584078Y-91650754D01*
X76248165Y-91511614D01*
X75900223Y-91406067D01*
X75900212Y-91406064D01*
X75543630Y-91335137D01*
X75271111Y-91308296D01*
X75181794Y-91299500D01*
X74818206Y-91299500D01*
X74735679Y-91307628D01*
X74456369Y-91335137D01*
X74099787Y-91406064D01*
X74099776Y-91406067D01*
X73751834Y-91511614D01*
X73415921Y-91650754D01*
X73415916Y-91650756D01*
X73095279Y-91822140D01*
X73095261Y-91822151D01*
X72792964Y-92024140D01*
X72792950Y-92024150D01*
X72511893Y-92254807D01*
X72254807Y-92511893D01*
X72024150Y-92792950D01*
X72024140Y-92792964D01*
X71822151Y-93095261D01*
X71822140Y-93095279D01*
X71650756Y-93415916D01*
X71650754Y-93415921D01*
X71511614Y-93751834D01*
X71406067Y-94099776D01*
X71406064Y-94099787D01*
X71335137Y-94456369D01*
X71299500Y-94818209D01*
X71000000Y-94818209D01*
X71000000Y-59162305D01*
X71719097Y-59162305D01*
X71719097Y-86881043D01*
X71756044Y-87114315D01*
X71756044Y-87114318D01*
X71829027Y-87338934D01*
X71829027Y-87338935D01*
X71855582Y-87391052D01*
X71869097Y-87447345D01*
X71869097Y-87660815D01*
X71869098Y-87660822D01*
X71875505Y-87720429D01*
X71925799Y-87855274D01*
X71925803Y-87855281D01*
X72012049Y-87970490D01*
X72012052Y-87970493D01*
X72127261Y-88056739D01*
X72127268Y-88056743D01*
X72172215Y-88073507D01*
X72262114Y-88107037D01*
X72321724Y-88113446D01*
X72535195Y-88113445D01*
X72591490Y-88126960D01*
X72643605Y-88153514D01*
X72824656Y-88212341D01*
X72868228Y-88226499D01*
X73101500Y-88263446D01*
X73101505Y-88263446D01*
X98737694Y-88263446D01*
X98970965Y-88226499D01*
X99013735Y-88212602D01*
X99195589Y-88153514D01*
X99406030Y-88046289D01*
X99597107Y-87907463D01*
X99764114Y-87740456D01*
X99902940Y-87549379D01*
X100010165Y-87338938D01*
X100083150Y-87114314D01*
X100088460Y-87080786D01*
X100099668Y-87010026D01*
X100120097Y-86881043D01*
X100120097Y-86644848D01*
X100083150Y-86411577D01*
X100035164Y-86263892D01*
X100010165Y-86186954D01*
X100010163Y-86186951D01*
X100010163Y-86186949D01*
X99922837Y-86015564D01*
X99902940Y-85976513D01*
X99871283Y-85932941D01*
X102932625Y-85932941D01*
X102932625Y-86580786D01*
X103849613Y-86580786D01*
X103816700Y-86637793D01*
X103782625Y-86764960D01*
X103782625Y-86896612D01*
X103816700Y-87023779D01*
X103849613Y-87080786D01*
X102932625Y-87080786D01*
X102932625Y-87728630D01*
X102939026Y-87788158D01*
X102939028Y-87788165D01*
X102989270Y-87922872D01*
X102989274Y-87922879D01*
X103075434Y-88037973D01*
X103075437Y-88037976D01*
X103190531Y-88124136D01*
X103190538Y-88124140D01*
X103325245Y-88174382D01*
X103325252Y-88174384D01*
X103384780Y-88180785D01*
X103384797Y-88180786D01*
X104032625Y-88180786D01*
X104032625Y-87263798D01*
X104089632Y-87296711D01*
X104216799Y-87330786D01*
X104348451Y-87330786D01*
X104475618Y-87296711D01*
X104532625Y-87263798D01*
X104532625Y-88180786D01*
X105180453Y-88180786D01*
X105180469Y-88180785D01*
X105239997Y-88174384D01*
X105240004Y-88174382D01*
X105374711Y-88124140D01*
X105374718Y-88124136D01*
X105489812Y-88037976D01*
X105489815Y-88037973D01*
X105575975Y-87922879D01*
X105575979Y-87922872D01*
X105598154Y-87863418D01*
X105636944Y-87690176D01*
X105637307Y-87689520D01*
X105637267Y-87688770D01*
X105670267Y-87629588D01*
X106339662Y-86960194D01*
X106356700Y-87023779D01*
X106422526Y-87137793D01*
X106515618Y-87230885D01*
X106629632Y-87296711D01*
X106693215Y-87313748D01*
X106060907Y-87946055D01*
X106060907Y-87946056D01*
X106115074Y-87985410D01*
X106304407Y-88081881D01*
X106506495Y-88147543D01*
X106716379Y-88180786D01*
X106928871Y-88180786D01*
X107138752Y-88147543D01*
X107138755Y-88147543D01*
X107340842Y-88081881D01*
X107530179Y-87985408D01*
X107584341Y-87946056D01*
X107584342Y-87946056D01*
X106952033Y-87313748D01*
X107015618Y-87296711D01*
X107129632Y-87230885D01*
X107222724Y-87137793D01*
X107288550Y-87023779D01*
X107305587Y-86960194D01*
X107937895Y-87592503D01*
X107937895Y-87592502D01*
X107977247Y-87538340D01*
X107982139Y-87528740D01*
X108030113Y-87477943D01*
X108097933Y-87461147D01*
X108164069Y-87483683D01*
X108203111Y-87528740D01*
X108208000Y-87538336D01*
X108247353Y-87592502D01*
X108879662Y-86960194D01*
X108896700Y-87023779D01*
X108962526Y-87137793D01*
X109055618Y-87230885D01*
X109169632Y-87296711D01*
X109233215Y-87313748D01*
X108600907Y-87946055D01*
X108600907Y-87946056D01*
X108655074Y-87985410D01*
X108844407Y-88081881D01*
X109046495Y-88147543D01*
X109256379Y-88180786D01*
X109468871Y-88180786D01*
X109678752Y-88147543D01*
X109678755Y-88147543D01*
X109880842Y-88081881D01*
X110070179Y-87985408D01*
X110124341Y-87946056D01*
X110124342Y-87946056D01*
X109492033Y-87313748D01*
X109555618Y-87296711D01*
X109669632Y-87230885D01*
X109762724Y-87137793D01*
X109828550Y-87023779D01*
X109845587Y-86960194D01*
X110477895Y-87592503D01*
X110477895Y-87592502D01*
X110517247Y-87538340D01*
X110522139Y-87528740D01*
X110570113Y-87477943D01*
X110637933Y-87461147D01*
X110704069Y-87483683D01*
X110743111Y-87528740D01*
X110748000Y-87538336D01*
X110787353Y-87592502D01*
X111419662Y-86960194D01*
X111436700Y-87023779D01*
X111502526Y-87137793D01*
X111595618Y-87230885D01*
X111709632Y-87296711D01*
X111773215Y-87313748D01*
X111140907Y-87946055D01*
X111140907Y-87946056D01*
X111195074Y-87985410D01*
X111384407Y-88081881D01*
X111586495Y-88147543D01*
X111796379Y-88180786D01*
X112008871Y-88180786D01*
X112218752Y-88147543D01*
X112218755Y-88147543D01*
X112420842Y-88081881D01*
X112610179Y-87985408D01*
X112664341Y-87946056D01*
X112664342Y-87946056D01*
X112032033Y-87313748D01*
X112095618Y-87296711D01*
X112209632Y-87230885D01*
X112302724Y-87137793D01*
X112368550Y-87023779D01*
X112385587Y-86960195D01*
X113017895Y-87592503D01*
X113017895Y-87592502D01*
X113057247Y-87538340D01*
X113062139Y-87528740D01*
X113110113Y-87477943D01*
X113177933Y-87461147D01*
X113244069Y-87483683D01*
X113283111Y-87528740D01*
X113288000Y-87538336D01*
X113327353Y-87592502D01*
X113959662Y-86960194D01*
X113976700Y-87023779D01*
X114042526Y-87137793D01*
X114135618Y-87230885D01*
X114249632Y-87296711D01*
X114313215Y-87313748D01*
X113680907Y-87946055D01*
X113680907Y-87946056D01*
X113735074Y-87985410D01*
X113924407Y-88081881D01*
X114126495Y-88147543D01*
X114336379Y-88180786D01*
X114548871Y-88180786D01*
X114758752Y-88147543D01*
X114758755Y-88147543D01*
X114960842Y-88081881D01*
X115150179Y-87985408D01*
X115204341Y-87946056D01*
X115204342Y-87946056D01*
X114572033Y-87313748D01*
X114635618Y-87296711D01*
X114749632Y-87230885D01*
X114842724Y-87137793D01*
X114908550Y-87023779D01*
X114925587Y-86960194D01*
X115557895Y-87592503D01*
X115557895Y-87592502D01*
X115597247Y-87538340D01*
X115602139Y-87528740D01*
X115650113Y-87477943D01*
X115717933Y-87461147D01*
X115784069Y-87483683D01*
X115823111Y-87528740D01*
X115828000Y-87538336D01*
X115867353Y-87592502D01*
X116499662Y-86960194D01*
X116516700Y-87023779D01*
X116582526Y-87137793D01*
X116675618Y-87230885D01*
X116789632Y-87296711D01*
X116853215Y-87313748D01*
X116220907Y-87946055D01*
X116220907Y-87946056D01*
X116275074Y-87985410D01*
X116464407Y-88081881D01*
X116666495Y-88147543D01*
X116876379Y-88180786D01*
X117088871Y-88180786D01*
X117298752Y-88147543D01*
X117298755Y-88147543D01*
X117500842Y-88081881D01*
X117690179Y-87985408D01*
X117744341Y-87946056D01*
X117744342Y-87946056D01*
X117112033Y-87313748D01*
X117175618Y-87296711D01*
X117289632Y-87230885D01*
X117382724Y-87137793D01*
X117448550Y-87023779D01*
X117465587Y-86960194D01*
X118097895Y-87592503D01*
X118097895Y-87592502D01*
X118137247Y-87538340D01*
X118142139Y-87528740D01*
X118190113Y-87477943D01*
X118257933Y-87461147D01*
X118324069Y-87483683D01*
X118363111Y-87528740D01*
X118368000Y-87538336D01*
X118407353Y-87592502D01*
X119039662Y-86960194D01*
X119056700Y-87023779D01*
X119122526Y-87137793D01*
X119215618Y-87230885D01*
X119329632Y-87296711D01*
X119393215Y-87313748D01*
X118760907Y-87946055D01*
X118760907Y-87946056D01*
X118815074Y-87985410D01*
X119004407Y-88081881D01*
X119206495Y-88147543D01*
X119416379Y-88180786D01*
X119628871Y-88180786D01*
X119838752Y-88147543D01*
X119838755Y-88147543D01*
X120040842Y-88081881D01*
X120230179Y-87985408D01*
X120284341Y-87946056D01*
X120284342Y-87946056D01*
X119652033Y-87313748D01*
X119715618Y-87296711D01*
X119829632Y-87230885D01*
X119922724Y-87137793D01*
X119988550Y-87023779D01*
X120005587Y-86960195D01*
X120637895Y-87592503D01*
X120637895Y-87592502D01*
X120677247Y-87538340D01*
X120682139Y-87528740D01*
X120730113Y-87477943D01*
X120797933Y-87461147D01*
X120864069Y-87483683D01*
X120903111Y-87528740D01*
X120908000Y-87538336D01*
X120947353Y-87592502D01*
X121579662Y-86960194D01*
X121596700Y-87023779D01*
X121662526Y-87137793D01*
X121755618Y-87230885D01*
X121869632Y-87296711D01*
X121933215Y-87313748D01*
X121300907Y-87946055D01*
X121300907Y-87946056D01*
X121355074Y-87985410D01*
X121544407Y-88081881D01*
X121746495Y-88147543D01*
X121956379Y-88180786D01*
X122168871Y-88180786D01*
X122378752Y-88147543D01*
X122378755Y-88147543D01*
X122580842Y-88081881D01*
X122770179Y-87985408D01*
X122824341Y-87946056D01*
X122824342Y-87946056D01*
X122192033Y-87313748D01*
X122255618Y-87296711D01*
X122369632Y-87230885D01*
X122462724Y-87137793D01*
X122528550Y-87023779D01*
X122545587Y-86960194D01*
X123177895Y-87592503D01*
X123177895Y-87592502D01*
X123217247Y-87538340D01*
X123222139Y-87528740D01*
X123270113Y-87477943D01*
X123337933Y-87461147D01*
X123404069Y-87483683D01*
X123443111Y-87528740D01*
X123448000Y-87538336D01*
X123487353Y-87592502D01*
X124119662Y-86960194D01*
X124136700Y-87023779D01*
X124202526Y-87137793D01*
X124295618Y-87230885D01*
X124409632Y-87296711D01*
X124473215Y-87313748D01*
X123840907Y-87946055D01*
X123840907Y-87946056D01*
X123895074Y-87985410D01*
X124084407Y-88081881D01*
X124286495Y-88147543D01*
X124496379Y-88180786D01*
X124708871Y-88180786D01*
X124918752Y-88147543D01*
X124918755Y-88147543D01*
X125120842Y-88081881D01*
X125310179Y-87985408D01*
X125364341Y-87946056D01*
X125364342Y-87946056D01*
X124732033Y-87313748D01*
X124795618Y-87296711D01*
X124909632Y-87230885D01*
X125002724Y-87137793D01*
X125068550Y-87023779D01*
X125085587Y-86960195D01*
X125717895Y-87592503D01*
X125717895Y-87592502D01*
X125757247Y-87538340D01*
X125762139Y-87528740D01*
X125810113Y-87477943D01*
X125877933Y-87461147D01*
X125944069Y-87483683D01*
X125983111Y-87528740D01*
X125988000Y-87538336D01*
X126027353Y-87592502D01*
X126659662Y-86960194D01*
X126676700Y-87023779D01*
X126742526Y-87137793D01*
X126835618Y-87230885D01*
X126949632Y-87296711D01*
X127013215Y-87313748D01*
X126380907Y-87946055D01*
X126380907Y-87946056D01*
X126435074Y-87985410D01*
X126624407Y-88081881D01*
X126826495Y-88147543D01*
X127036379Y-88180786D01*
X127248871Y-88180786D01*
X127458752Y-88147543D01*
X127458755Y-88147543D01*
X127660842Y-88081881D01*
X127850179Y-87985408D01*
X127904341Y-87946056D01*
X127904342Y-87946056D01*
X127272033Y-87313748D01*
X127335618Y-87296711D01*
X127449632Y-87230885D01*
X127542724Y-87137793D01*
X127608550Y-87023779D01*
X127625587Y-86960194D01*
X128257895Y-87592503D01*
X128257895Y-87592502D01*
X128297247Y-87538340D01*
X128302139Y-87528740D01*
X128350113Y-87477943D01*
X128417933Y-87461147D01*
X128484069Y-87483683D01*
X128523111Y-87528740D01*
X128528000Y-87538336D01*
X128567353Y-87592502D01*
X129199662Y-86960194D01*
X129216700Y-87023779D01*
X129282526Y-87137793D01*
X129375618Y-87230885D01*
X129489632Y-87296711D01*
X129553215Y-87313748D01*
X128920907Y-87946055D01*
X128920907Y-87946056D01*
X128975074Y-87985410D01*
X129164407Y-88081881D01*
X129366495Y-88147543D01*
X129576379Y-88180786D01*
X129788871Y-88180786D01*
X129998752Y-88147543D01*
X129998755Y-88147543D01*
X130200842Y-88081881D01*
X130390179Y-87985408D01*
X130444341Y-87946056D01*
X130444342Y-87946056D01*
X129812033Y-87313748D01*
X129875618Y-87296711D01*
X129989632Y-87230885D01*
X130082724Y-87137793D01*
X130148550Y-87023779D01*
X130165587Y-86960195D01*
X130797895Y-87592503D01*
X130797895Y-87592502D01*
X130837247Y-87538340D01*
X130933720Y-87349003D01*
X130999382Y-87146916D01*
X130999382Y-87146913D01*
X131032625Y-86937032D01*
X131032625Y-86724539D01*
X130999382Y-86514658D01*
X130999382Y-86514655D01*
X130933720Y-86312568D01*
X130837248Y-86123233D01*
X130837247Y-86123231D01*
X130797896Y-86069068D01*
X130797894Y-86069068D01*
X130165587Y-86701376D01*
X130148550Y-86637793D01*
X130082724Y-86523779D01*
X129989632Y-86430687D01*
X129875618Y-86364861D01*
X129812034Y-86347823D01*
X130162365Y-85997491D01*
X133304825Y-85997491D01*
X133304825Y-87793226D01*
X133304826Y-87793232D01*
X133311233Y-87852839D01*
X133361527Y-87987684D01*
X133361531Y-87987691D01*
X133447777Y-88102900D01*
X133447780Y-88102903D01*
X133562989Y-88189149D01*
X133562996Y-88189153D01*
X133697842Y-88239447D01*
X133697841Y-88239447D01*
X133704769Y-88240191D01*
X133757452Y-88245856D01*
X135553197Y-88245855D01*
X135612808Y-88239447D01*
X135747656Y-88189152D01*
X135862871Y-88102902D01*
X135949121Y-87987687D01*
X135998135Y-87856272D01*
X136040006Y-87800340D01*
X136105470Y-87775922D01*
X136173743Y-87790773D01*
X136201998Y-87811925D01*
X136315538Y-87925465D01*
X136487504Y-88050404D01*
X136487506Y-88050405D01*
X136487509Y-88050407D01*
X136676913Y-88146913D01*
X136879082Y-88212602D01*
X137089038Y-88245856D01*
X137089039Y-88245856D01*
X137301611Y-88245856D01*
X137301612Y-88245856D01*
X137511568Y-88212602D01*
X137713737Y-88146913D01*
X137903141Y-88050407D01*
X137989463Y-87987691D01*
X138075111Y-87925465D01*
X138075113Y-87925462D01*
X138075117Y-87925460D01*
X138225429Y-87775148D01*
X138225431Y-87775144D01*
X138225434Y-87775142D01*
X138350373Y-87603176D01*
X138350372Y-87603176D01*
X138350376Y-87603172D01*
X138354839Y-87594410D01*
X138402813Y-87543615D01*
X138470633Y-87526819D01*
X138536769Y-87549355D01*
X138575811Y-87594412D01*
X138580276Y-87603176D01*
X138705215Y-87775142D01*
X138855538Y-87925465D01*
X139027504Y-88050404D01*
X139027506Y-88050405D01*
X139027509Y-88050407D01*
X139216913Y-88146913D01*
X139419082Y-88212602D01*
X139629038Y-88245856D01*
X139629039Y-88245856D01*
X139841611Y-88245856D01*
X139841612Y-88245856D01*
X140051568Y-88212602D01*
X140253737Y-88146913D01*
X140443141Y-88050407D01*
X140529463Y-87987691D01*
X140615111Y-87925465D01*
X140615113Y-87925462D01*
X140615117Y-87925460D01*
X140765429Y-87775148D01*
X140765431Y-87775144D01*
X140765434Y-87775142D01*
X140890373Y-87603176D01*
X140890372Y-87603176D01*
X140890376Y-87603172D01*
X140894839Y-87594410D01*
X140942813Y-87543615D01*
X141010633Y-87526819D01*
X141076769Y-87549355D01*
X141115811Y-87594412D01*
X141120276Y-87603176D01*
X141245215Y-87775142D01*
X141395538Y-87925465D01*
X141567504Y-88050404D01*
X141567506Y-88050405D01*
X141567509Y-88050407D01*
X141756913Y-88146913D01*
X141959082Y-88212602D01*
X142169038Y-88245856D01*
X142169039Y-88245856D01*
X142381611Y-88245856D01*
X142381612Y-88245856D01*
X142591568Y-88212602D01*
X142793737Y-88146913D01*
X142983141Y-88050407D01*
X143069463Y-87987691D01*
X143155111Y-87925465D01*
X143155113Y-87925462D01*
X143155117Y-87925460D01*
X143305429Y-87775148D01*
X143305431Y-87775144D01*
X143305434Y-87775142D01*
X143430373Y-87603176D01*
X143430372Y-87603176D01*
X143430376Y-87603172D01*
X143434839Y-87594410D01*
X143482813Y-87543615D01*
X143550633Y-87526819D01*
X143616769Y-87549355D01*
X143655811Y-87594412D01*
X143660276Y-87603176D01*
X143785215Y-87775142D01*
X143935538Y-87925465D01*
X144107504Y-88050404D01*
X144107506Y-88050405D01*
X144107509Y-88050407D01*
X144296913Y-88146913D01*
X144499082Y-88212602D01*
X144709038Y-88245856D01*
X144709039Y-88245856D01*
X144921611Y-88245856D01*
X144921612Y-88245856D01*
X145131568Y-88212602D01*
X145333737Y-88146913D01*
X145523141Y-88050407D01*
X145609463Y-87987691D01*
X145695111Y-87925465D01*
X145695113Y-87925462D01*
X145695117Y-87925460D01*
X145845429Y-87775148D01*
X145845431Y-87775144D01*
X145845434Y-87775142D01*
X145970373Y-87603176D01*
X145970372Y-87603176D01*
X145970376Y-87603172D01*
X145974839Y-87594410D01*
X146022813Y-87543615D01*
X146090633Y-87526819D01*
X146156769Y-87549355D01*
X146195811Y-87594412D01*
X146200276Y-87603176D01*
X146325215Y-87775142D01*
X146475538Y-87925465D01*
X146647504Y-88050404D01*
X146647506Y-88050405D01*
X146647509Y-88050407D01*
X146836913Y-88146913D01*
X147039082Y-88212602D01*
X147249038Y-88245856D01*
X147249039Y-88245856D01*
X147461611Y-88245856D01*
X147461612Y-88245856D01*
X147671568Y-88212602D01*
X147873737Y-88146913D01*
X148063141Y-88050407D01*
X148149463Y-87987691D01*
X148235111Y-87925465D01*
X148235113Y-87925462D01*
X148235117Y-87925460D01*
X148385429Y-87775148D01*
X148385431Y-87775144D01*
X148385434Y-87775142D01*
X148510373Y-87603176D01*
X148510372Y-87603176D01*
X148510376Y-87603172D01*
X148514839Y-87594410D01*
X148562813Y-87543615D01*
X148630633Y-87526819D01*
X148696769Y-87549355D01*
X148735811Y-87594412D01*
X148740276Y-87603176D01*
X148865215Y-87775142D01*
X149015538Y-87925465D01*
X149187504Y-88050404D01*
X149187506Y-88050405D01*
X149187509Y-88050407D01*
X149376913Y-88146913D01*
X149579082Y-88212602D01*
X149789038Y-88245856D01*
X149789039Y-88245856D01*
X150001611Y-88245856D01*
X150001612Y-88245856D01*
X150211568Y-88212602D01*
X150413737Y-88146913D01*
X150603141Y-88050407D01*
X150689463Y-87987691D01*
X150775111Y-87925465D01*
X150775113Y-87925462D01*
X150775117Y-87925460D01*
X150925429Y-87775148D01*
X150925431Y-87775144D01*
X150925434Y-87775142D01*
X151050373Y-87603176D01*
X151050372Y-87603176D01*
X151050376Y-87603172D01*
X151054839Y-87594410D01*
X151102813Y-87543615D01*
X151170633Y-87526819D01*
X151236769Y-87549355D01*
X151275811Y-87594412D01*
X151280276Y-87603176D01*
X151405215Y-87775142D01*
X151555538Y-87925465D01*
X151727504Y-88050404D01*
X151727506Y-88050405D01*
X151727509Y-88050407D01*
X151916913Y-88146913D01*
X152119082Y-88212602D01*
X152329038Y-88245856D01*
X152329039Y-88245856D01*
X152541611Y-88245856D01*
X152541612Y-88245856D01*
X152751568Y-88212602D01*
X152953737Y-88146913D01*
X153143141Y-88050407D01*
X153229463Y-87987691D01*
X153315111Y-87925465D01*
X153315113Y-87925462D01*
X153315117Y-87925460D01*
X153465429Y-87775148D01*
X153465431Y-87775144D01*
X153465434Y-87775142D01*
X153590373Y-87603176D01*
X153590372Y-87603176D01*
X153590376Y-87603172D01*
X153594839Y-87594410D01*
X153642813Y-87543615D01*
X153710633Y-87526819D01*
X153776769Y-87549355D01*
X153815811Y-87594412D01*
X153820276Y-87603176D01*
X153945215Y-87775142D01*
X154095538Y-87925465D01*
X154267504Y-88050404D01*
X154267506Y-88050405D01*
X154267509Y-88050407D01*
X154456913Y-88146913D01*
X154659082Y-88212602D01*
X154869038Y-88245856D01*
X154869039Y-88245856D01*
X155081611Y-88245856D01*
X155081612Y-88245856D01*
X155291568Y-88212602D01*
X155493737Y-88146913D01*
X155683141Y-88050407D01*
X155769463Y-87987691D01*
X155855111Y-87925465D01*
X155855113Y-87925462D01*
X155855117Y-87925460D01*
X156005429Y-87775148D01*
X156005431Y-87775144D01*
X156005434Y-87775142D01*
X156130373Y-87603176D01*
X156130372Y-87603176D01*
X156130376Y-87603172D01*
X156134839Y-87594410D01*
X156182813Y-87543615D01*
X156250633Y-87526819D01*
X156316769Y-87549355D01*
X156355811Y-87594412D01*
X156360276Y-87603176D01*
X156485215Y-87775142D01*
X156635538Y-87925465D01*
X156807504Y-88050404D01*
X156807506Y-88050405D01*
X156807509Y-88050407D01*
X156996913Y-88146913D01*
X157199082Y-88212602D01*
X157409038Y-88245856D01*
X157409039Y-88245856D01*
X157621611Y-88245856D01*
X157621612Y-88245856D01*
X157831568Y-88212602D01*
X158033737Y-88146913D01*
X158223141Y-88050407D01*
X158309463Y-87987691D01*
X158395111Y-87925465D01*
X158395113Y-87925462D01*
X158395117Y-87925460D01*
X158545429Y-87775148D01*
X158545431Y-87775144D01*
X158545434Y-87775142D01*
X158670373Y-87603176D01*
X158670372Y-87603176D01*
X158670376Y-87603172D01*
X158674839Y-87594410D01*
X158722813Y-87543615D01*
X158790633Y-87526819D01*
X158856769Y-87549355D01*
X158895811Y-87594412D01*
X158900276Y-87603176D01*
X159025215Y-87775142D01*
X159175538Y-87925465D01*
X159347504Y-88050404D01*
X159347506Y-88050405D01*
X159347509Y-88050407D01*
X159536913Y-88146913D01*
X159739082Y-88212602D01*
X159949038Y-88245856D01*
X159949039Y-88245856D01*
X160161611Y-88245856D01*
X160161612Y-88245856D01*
X160371568Y-88212602D01*
X160573737Y-88146913D01*
X160763141Y-88050407D01*
X160849463Y-87987691D01*
X160935111Y-87925465D01*
X160935113Y-87925462D01*
X160935117Y-87925460D01*
X161085429Y-87775148D01*
X161085431Y-87775144D01*
X161085434Y-87775142D01*
X161210373Y-87603176D01*
X161210372Y-87603176D01*
X161210376Y-87603172D01*
X161306882Y-87413768D01*
X161372571Y-87211599D01*
X161405825Y-87001643D01*
X161405825Y-86789069D01*
X161372571Y-86579113D01*
X161306882Y-86376944D01*
X161210376Y-86187540D01*
X161210374Y-86187537D01*
X161210373Y-86187535D01*
X161085434Y-86015569D01*
X160935111Y-85865246D01*
X160763145Y-85740307D01*
X160573739Y-85643800D01*
X160573738Y-85643799D01*
X160573737Y-85643799D01*
X160371568Y-85578110D01*
X160371566Y-85578109D01*
X160371565Y-85578109D01*
X160210282Y-85552564D01*
X160161612Y-85544856D01*
X159949038Y-85544856D01*
X159900367Y-85552564D01*
X159739085Y-85578109D01*
X159536910Y-85643800D01*
X159347504Y-85740307D01*
X159175538Y-85865246D01*
X159025215Y-86015569D01*
X158900274Y-86187538D01*
X158895809Y-86196302D01*
X158847834Y-86247098D01*
X158780013Y-86263892D01*
X158713878Y-86241354D01*
X158674841Y-86196302D01*
X158670375Y-86187538D01*
X158545434Y-86015569D01*
X158395111Y-85865246D01*
X158223145Y-85740307D01*
X158033739Y-85643800D01*
X158033738Y-85643799D01*
X158033737Y-85643799D01*
X157831568Y-85578110D01*
X157831566Y-85578109D01*
X157831565Y-85578109D01*
X157670282Y-85552564D01*
X157621612Y-85544856D01*
X157409038Y-85544856D01*
X157360367Y-85552564D01*
X157199085Y-85578109D01*
X156996910Y-85643800D01*
X156807504Y-85740307D01*
X156635538Y-85865246D01*
X156485215Y-86015569D01*
X156360274Y-86187538D01*
X156355809Y-86196302D01*
X156307834Y-86247098D01*
X156240013Y-86263892D01*
X156173878Y-86241354D01*
X156134841Y-86196302D01*
X156130375Y-86187538D01*
X156005434Y-86015569D01*
X155855111Y-85865246D01*
X155683145Y-85740307D01*
X155493739Y-85643800D01*
X155493738Y-85643799D01*
X155493737Y-85643799D01*
X155291568Y-85578110D01*
X155291566Y-85578109D01*
X155291565Y-85578109D01*
X155130282Y-85552564D01*
X155081612Y-85544856D01*
X154869038Y-85544856D01*
X154820367Y-85552564D01*
X154659085Y-85578109D01*
X154456910Y-85643800D01*
X154267504Y-85740307D01*
X154095538Y-85865246D01*
X153945215Y-86015569D01*
X153820274Y-86187538D01*
X153815809Y-86196302D01*
X153767834Y-86247098D01*
X153700013Y-86263892D01*
X153633878Y-86241354D01*
X153594841Y-86196302D01*
X153590375Y-86187538D01*
X153465434Y-86015569D01*
X153315111Y-85865246D01*
X153143145Y-85740307D01*
X152953739Y-85643800D01*
X152953738Y-85643799D01*
X152953737Y-85643799D01*
X152751568Y-85578110D01*
X152751566Y-85578109D01*
X152751565Y-85578109D01*
X152590282Y-85552564D01*
X152541612Y-85544856D01*
X152329038Y-85544856D01*
X152280367Y-85552564D01*
X152119085Y-85578109D01*
X151916910Y-85643800D01*
X151727504Y-85740307D01*
X151555538Y-85865246D01*
X151405215Y-86015569D01*
X151280274Y-86187538D01*
X151275809Y-86196302D01*
X151227834Y-86247098D01*
X151160013Y-86263892D01*
X151093878Y-86241354D01*
X151054841Y-86196302D01*
X151050375Y-86187538D01*
X150925434Y-86015569D01*
X150775111Y-85865246D01*
X150603145Y-85740307D01*
X150413739Y-85643800D01*
X150413738Y-85643799D01*
X150413737Y-85643799D01*
X150211568Y-85578110D01*
X150211566Y-85578109D01*
X150211565Y-85578109D01*
X150050282Y-85552564D01*
X150001612Y-85544856D01*
X149789038Y-85544856D01*
X149740367Y-85552564D01*
X149579085Y-85578109D01*
X149376910Y-85643800D01*
X149187504Y-85740307D01*
X149015538Y-85865246D01*
X148865215Y-86015569D01*
X148740274Y-86187538D01*
X148735809Y-86196302D01*
X148687834Y-86247098D01*
X148620013Y-86263892D01*
X148553878Y-86241354D01*
X148514841Y-86196302D01*
X148510375Y-86187538D01*
X148385434Y-86015569D01*
X148235111Y-85865246D01*
X148063145Y-85740307D01*
X147873739Y-85643800D01*
X147873738Y-85643799D01*
X147873737Y-85643799D01*
X147671568Y-85578110D01*
X147671566Y-85578109D01*
X147671565Y-85578109D01*
X147510282Y-85552564D01*
X147461612Y-85544856D01*
X147249038Y-85544856D01*
X147200367Y-85552564D01*
X147039085Y-85578109D01*
X146836910Y-85643800D01*
X146647504Y-85740307D01*
X146475538Y-85865246D01*
X146325215Y-86015569D01*
X146200274Y-86187538D01*
X146195809Y-86196302D01*
X146147834Y-86247098D01*
X146080013Y-86263892D01*
X146013878Y-86241354D01*
X145974841Y-86196302D01*
X145970375Y-86187538D01*
X145845434Y-86015569D01*
X145695111Y-85865246D01*
X145523145Y-85740307D01*
X145333739Y-85643800D01*
X145333738Y-85643799D01*
X145333737Y-85643799D01*
X145131568Y-85578110D01*
X145131566Y-85578109D01*
X145131565Y-85578109D01*
X144970282Y-85552564D01*
X144921612Y-85544856D01*
X144709038Y-85544856D01*
X144660367Y-85552564D01*
X144499085Y-85578109D01*
X144296910Y-85643800D01*
X144107504Y-85740307D01*
X143935538Y-85865246D01*
X143785215Y-86015569D01*
X143660274Y-86187538D01*
X143655809Y-86196302D01*
X143607834Y-86247098D01*
X143540013Y-86263892D01*
X143473878Y-86241354D01*
X143434841Y-86196302D01*
X143430375Y-86187538D01*
X143305434Y-86015569D01*
X143155111Y-85865246D01*
X142983145Y-85740307D01*
X142793739Y-85643800D01*
X142793738Y-85643799D01*
X142793737Y-85643799D01*
X142591568Y-85578110D01*
X142591566Y-85578109D01*
X142591565Y-85578109D01*
X142430282Y-85552564D01*
X142381612Y-85544856D01*
X142169038Y-85544856D01*
X142120367Y-85552564D01*
X141959085Y-85578109D01*
X141756910Y-85643800D01*
X141567504Y-85740307D01*
X141395538Y-85865246D01*
X141245215Y-86015569D01*
X141120274Y-86187538D01*
X141115809Y-86196302D01*
X141067834Y-86247098D01*
X141000013Y-86263892D01*
X140933878Y-86241354D01*
X140894841Y-86196302D01*
X140890375Y-86187538D01*
X140765434Y-86015569D01*
X140615111Y-85865246D01*
X140443145Y-85740307D01*
X140253739Y-85643800D01*
X140253738Y-85643799D01*
X140253737Y-85643799D01*
X140051568Y-85578110D01*
X140051566Y-85578109D01*
X140051565Y-85578109D01*
X139890282Y-85552564D01*
X139841612Y-85544856D01*
X139629038Y-85544856D01*
X139580367Y-85552564D01*
X139419085Y-85578109D01*
X139216910Y-85643800D01*
X139027504Y-85740307D01*
X138855538Y-85865246D01*
X138705215Y-86015569D01*
X138580274Y-86187538D01*
X138575809Y-86196302D01*
X138527834Y-86247098D01*
X138460013Y-86263892D01*
X138393878Y-86241354D01*
X138354841Y-86196302D01*
X138350375Y-86187538D01*
X138225434Y-86015569D01*
X138075111Y-85865246D01*
X137903145Y-85740307D01*
X137713739Y-85643800D01*
X137713738Y-85643799D01*
X137713737Y-85643799D01*
X137511568Y-85578110D01*
X137511566Y-85578109D01*
X137511565Y-85578109D01*
X137350282Y-85552564D01*
X137301612Y-85544856D01*
X137089038Y-85544856D01*
X137040367Y-85552564D01*
X136879085Y-85578109D01*
X136676910Y-85643800D01*
X136487504Y-85740307D01*
X136315540Y-85865245D01*
X136201998Y-85978787D01*
X136140675Y-86012271D01*
X136070983Y-86007287D01*
X136015050Y-85965415D01*
X135998135Y-85934438D01*
X135949122Y-85803027D01*
X135949118Y-85803020D01*
X135862872Y-85687811D01*
X135862869Y-85687808D01*
X135747660Y-85601562D01*
X135747653Y-85601558D01*
X135612807Y-85551264D01*
X135612808Y-85551264D01*
X135553208Y-85544857D01*
X135553206Y-85544856D01*
X135553198Y-85544856D01*
X135553189Y-85544856D01*
X133757454Y-85544856D01*
X133757448Y-85544857D01*
X133697841Y-85551264D01*
X133562996Y-85601558D01*
X133562989Y-85601562D01*
X133447780Y-85687808D01*
X133447777Y-85687811D01*
X133361531Y-85803020D01*
X133361527Y-85803027D01*
X133311233Y-85937873D01*
X133304826Y-85997472D01*
X133304825Y-85997491D01*
X130162365Y-85997491D01*
X130444341Y-85715514D01*
X130390175Y-85676161D01*
X130200842Y-85579690D01*
X129998754Y-85514028D01*
X129788871Y-85480786D01*
X129576379Y-85480786D01*
X129366497Y-85514028D01*
X129366494Y-85514028D01*
X129164407Y-85579690D01*
X128975064Y-85676166D01*
X128920907Y-85715513D01*
X128920907Y-85715514D01*
X129553216Y-86347823D01*
X129489632Y-86364861D01*
X129375618Y-86430687D01*
X129282526Y-86523779D01*
X129216700Y-86637793D01*
X129199662Y-86701377D01*
X128567353Y-86069068D01*
X128567352Y-86069068D01*
X128528005Y-86123226D01*
X128523108Y-86132837D01*
X128475131Y-86183631D01*
X128407309Y-86200424D01*
X128341175Y-86177884D01*
X128302141Y-86132834D01*
X128297251Y-86123238D01*
X128257895Y-86069068D01*
X127625587Y-86701376D01*
X127608550Y-86637793D01*
X127542724Y-86523779D01*
X127449632Y-86430687D01*
X127335618Y-86364861D01*
X127272034Y-86347823D01*
X127904341Y-85715514D01*
X127850175Y-85676161D01*
X127660842Y-85579690D01*
X127458754Y-85514028D01*
X127248871Y-85480786D01*
X127036379Y-85480786D01*
X126826497Y-85514028D01*
X126826494Y-85514028D01*
X126624407Y-85579690D01*
X126435064Y-85676166D01*
X126380907Y-85715513D01*
X126380907Y-85715514D01*
X127013216Y-86347823D01*
X126949632Y-86364861D01*
X126835618Y-86430687D01*
X126742526Y-86523779D01*
X126676700Y-86637793D01*
X126659662Y-86701377D01*
X126027353Y-86069068D01*
X126027352Y-86069068D01*
X125988005Y-86123226D01*
X125983108Y-86132837D01*
X125935131Y-86183631D01*
X125867309Y-86200424D01*
X125801175Y-86177884D01*
X125762141Y-86132834D01*
X125757251Y-86123238D01*
X125717895Y-86069068D01*
X125085587Y-86701376D01*
X125068550Y-86637793D01*
X125002724Y-86523779D01*
X124909632Y-86430687D01*
X124795618Y-86364861D01*
X124732034Y-86347823D01*
X125364341Y-85715514D01*
X125310175Y-85676161D01*
X125120842Y-85579690D01*
X124918754Y-85514028D01*
X124708871Y-85480786D01*
X124496379Y-85480786D01*
X124286497Y-85514028D01*
X124286494Y-85514028D01*
X124084407Y-85579690D01*
X123895064Y-85676166D01*
X123840907Y-85715513D01*
X123840907Y-85715514D01*
X124473216Y-86347823D01*
X124409632Y-86364861D01*
X124295618Y-86430687D01*
X124202526Y-86523779D01*
X124136700Y-86637793D01*
X124119662Y-86701377D01*
X123487353Y-86069068D01*
X123487352Y-86069068D01*
X123448005Y-86123226D01*
X123443108Y-86132837D01*
X123395131Y-86183631D01*
X123327309Y-86200424D01*
X123261175Y-86177884D01*
X123222141Y-86132834D01*
X123217251Y-86123238D01*
X123177895Y-86069068D01*
X122545587Y-86701376D01*
X122528550Y-86637793D01*
X122462724Y-86523779D01*
X122369632Y-86430687D01*
X122255618Y-86364861D01*
X122192034Y-86347823D01*
X122824341Y-85715514D01*
X122770175Y-85676161D01*
X122580842Y-85579690D01*
X122378754Y-85514028D01*
X122168871Y-85480786D01*
X121956379Y-85480786D01*
X121746497Y-85514028D01*
X121746494Y-85514028D01*
X121544407Y-85579690D01*
X121355064Y-85676166D01*
X121300907Y-85715513D01*
X121300907Y-85715514D01*
X121933216Y-86347823D01*
X121869632Y-86364861D01*
X121755618Y-86430687D01*
X121662526Y-86523779D01*
X121596700Y-86637793D01*
X121579662Y-86701377D01*
X120947353Y-86069068D01*
X120947352Y-86069068D01*
X120908005Y-86123226D01*
X120903108Y-86132837D01*
X120855131Y-86183631D01*
X120787309Y-86200424D01*
X120721175Y-86177884D01*
X120682141Y-86132834D01*
X120677251Y-86123238D01*
X120637895Y-86069068D01*
X120005587Y-86701376D01*
X119988550Y-86637793D01*
X119922724Y-86523779D01*
X119829632Y-86430687D01*
X119715618Y-86364861D01*
X119652034Y-86347823D01*
X120284341Y-85715514D01*
X120230175Y-85676161D01*
X120040842Y-85579690D01*
X119838754Y-85514028D01*
X119628871Y-85480786D01*
X119416379Y-85480786D01*
X119206497Y-85514028D01*
X119206494Y-85514028D01*
X119004407Y-85579690D01*
X118815064Y-85676166D01*
X118760907Y-85715513D01*
X118760907Y-85715514D01*
X119393216Y-86347823D01*
X119329632Y-86364861D01*
X119215618Y-86430687D01*
X119122526Y-86523779D01*
X119056700Y-86637793D01*
X119039662Y-86701377D01*
X118407353Y-86069068D01*
X118407352Y-86069068D01*
X118368005Y-86123226D01*
X118363108Y-86132837D01*
X118315131Y-86183631D01*
X118247309Y-86200424D01*
X118181175Y-86177884D01*
X118142141Y-86132834D01*
X118137251Y-86123238D01*
X118097895Y-86069068D01*
X118097894Y-86069068D01*
X117465587Y-86701376D01*
X117448550Y-86637793D01*
X117382724Y-86523779D01*
X117289632Y-86430687D01*
X117175618Y-86364861D01*
X117112034Y-86347823D01*
X117744341Y-85715514D01*
X117690175Y-85676161D01*
X117500842Y-85579690D01*
X117298754Y-85514028D01*
X117088871Y-85480786D01*
X116876379Y-85480786D01*
X116666497Y-85514028D01*
X116666494Y-85514028D01*
X116464407Y-85579690D01*
X116275064Y-85676166D01*
X116220907Y-85715513D01*
X116220907Y-85715514D01*
X116853216Y-86347823D01*
X116789632Y-86364861D01*
X116675618Y-86430687D01*
X116582526Y-86523779D01*
X116516700Y-86637793D01*
X116499662Y-86701377D01*
X115867353Y-86069068D01*
X115867352Y-86069068D01*
X115828005Y-86123226D01*
X115823108Y-86132837D01*
X115775131Y-86183631D01*
X115707309Y-86200424D01*
X115641175Y-86177884D01*
X115602141Y-86132834D01*
X115597251Y-86123238D01*
X115557895Y-86069068D01*
X114925587Y-86701376D01*
X114908550Y-86637793D01*
X114842724Y-86523779D01*
X114749632Y-86430687D01*
X114635618Y-86364861D01*
X114572034Y-86347823D01*
X115204341Y-85715514D01*
X115150175Y-85676161D01*
X114960842Y-85579690D01*
X114758754Y-85514028D01*
X114548871Y-85480786D01*
X114336379Y-85480786D01*
X114126497Y-85514028D01*
X114126494Y-85514028D01*
X113924407Y-85579690D01*
X113735064Y-85676166D01*
X113680907Y-85715513D01*
X113680907Y-85715514D01*
X114313216Y-86347823D01*
X114249632Y-86364861D01*
X114135618Y-86430687D01*
X114042526Y-86523779D01*
X113976700Y-86637793D01*
X113959662Y-86701377D01*
X113327353Y-86069068D01*
X113327352Y-86069068D01*
X113288005Y-86123226D01*
X113283108Y-86132837D01*
X113235131Y-86183631D01*
X113167309Y-86200424D01*
X113101175Y-86177884D01*
X113062141Y-86132834D01*
X113057251Y-86123238D01*
X113017895Y-86069068D01*
X113017894Y-86069068D01*
X112385587Y-86701376D01*
X112368550Y-86637793D01*
X112302724Y-86523779D01*
X112209632Y-86430687D01*
X112095618Y-86364861D01*
X112032034Y-86347823D01*
X112664341Y-85715514D01*
X112610175Y-85676161D01*
X112420842Y-85579690D01*
X112218754Y-85514028D01*
X112008871Y-85480786D01*
X111796379Y-85480786D01*
X111586497Y-85514028D01*
X111586494Y-85514028D01*
X111384407Y-85579690D01*
X111195064Y-85676166D01*
X111140907Y-85715513D01*
X111140907Y-85715514D01*
X111773216Y-86347823D01*
X111709632Y-86364861D01*
X111595618Y-86430687D01*
X111502526Y-86523779D01*
X111436700Y-86637793D01*
X111419662Y-86701377D01*
X110787353Y-86069068D01*
X110787352Y-86069068D01*
X110748005Y-86123226D01*
X110743108Y-86132837D01*
X110695131Y-86183631D01*
X110627309Y-86200424D01*
X110561175Y-86177884D01*
X110522141Y-86132834D01*
X110517251Y-86123238D01*
X110477895Y-86069068D01*
X109845587Y-86701376D01*
X109828550Y-86637793D01*
X109762724Y-86523779D01*
X109669632Y-86430687D01*
X109555618Y-86364861D01*
X109492034Y-86347823D01*
X110124341Y-85715514D01*
X110070175Y-85676161D01*
X109880842Y-85579690D01*
X109678754Y-85514028D01*
X109468871Y-85480786D01*
X109256379Y-85480786D01*
X109046497Y-85514028D01*
X109046494Y-85514028D01*
X108844407Y-85579690D01*
X108655064Y-85676166D01*
X108600907Y-85715513D01*
X108600907Y-85715514D01*
X109233216Y-86347823D01*
X109169632Y-86364861D01*
X109055618Y-86430687D01*
X108962526Y-86523779D01*
X108896700Y-86637793D01*
X108879662Y-86701377D01*
X108247353Y-86069068D01*
X108247352Y-86069068D01*
X108208005Y-86123226D01*
X108203108Y-86132837D01*
X108155131Y-86183631D01*
X108087309Y-86200424D01*
X108021175Y-86177884D01*
X107982141Y-86132834D01*
X107977251Y-86123238D01*
X107937895Y-86069068D01*
X107305587Y-86701376D01*
X107288550Y-86637793D01*
X107222724Y-86523779D01*
X107129632Y-86430687D01*
X107015618Y-86364861D01*
X106952034Y-86347823D01*
X107584341Y-85715514D01*
X107530175Y-85676161D01*
X107340842Y-85579690D01*
X107138754Y-85514028D01*
X106928871Y-85480786D01*
X106716379Y-85480786D01*
X106506497Y-85514028D01*
X106506494Y-85514028D01*
X106304407Y-85579690D01*
X106115064Y-85676166D01*
X106060907Y-85715513D01*
X106060907Y-85715514D01*
X106693216Y-86347823D01*
X106629632Y-86364861D01*
X106515618Y-86430687D01*
X106422526Y-86523779D01*
X106356700Y-86637793D01*
X106339662Y-86701377D01*
X105670267Y-86031982D01*
X105636944Y-85971395D01*
X105598152Y-85798150D01*
X105575979Y-85738699D01*
X105575975Y-85738692D01*
X105489815Y-85623598D01*
X105489812Y-85623595D01*
X105374718Y-85537435D01*
X105374711Y-85537431D01*
X105240004Y-85487189D01*
X105239997Y-85487187D01*
X105180469Y-85480786D01*
X104532625Y-85480786D01*
X104532625Y-86397774D01*
X104475618Y-86364861D01*
X104348451Y-86330786D01*
X104216799Y-86330786D01*
X104089632Y-86364861D01*
X104032625Y-86397774D01*
X104032625Y-85480786D01*
X103384780Y-85480786D01*
X103325252Y-85487187D01*
X103325245Y-85487189D01*
X103190538Y-85537431D01*
X103190531Y-85537435D01*
X103075437Y-85623595D01*
X103075434Y-85623598D01*
X102989274Y-85738692D01*
X102989270Y-85738699D01*
X102939028Y-85873406D01*
X102939026Y-85873413D01*
X102932625Y-85932941D01*
X99871283Y-85932941D01*
X99764114Y-85785436D01*
X99597107Y-85618429D01*
X99406030Y-85479603D01*
X99195593Y-85372379D01*
X98970965Y-85299392D01*
X98737694Y-85262446D01*
X98737689Y-85262446D01*
X78417689Y-85262446D01*
X75877689Y-85262446D01*
X74844097Y-85262446D01*
X74777058Y-85242761D01*
X74731303Y-85189957D01*
X74720097Y-85138446D01*
X74720097Y-76525013D01*
X76525000Y-76525013D01*
X76525000Y-77650000D01*
X77551196Y-77650000D01*
X77525000Y-77815396D01*
X77525000Y-77984604D01*
X77551196Y-78150000D01*
X76525001Y-78150000D01*
X76525001Y-79274986D01*
X76535494Y-79377697D01*
X76590641Y-79544119D01*
X76590643Y-79544124D01*
X76682684Y-79693345D01*
X76806654Y-79817315D01*
X76955875Y-79909356D01*
X76955880Y-79909358D01*
X77122302Y-79964505D01*
X77122309Y-79964506D01*
X77225019Y-79974999D01*
X78349999Y-79974999D01*
X78350000Y-79974998D01*
X78350000Y-78948804D01*
X78515396Y-78975000D01*
X78684604Y-78975000D01*
X78850000Y-78948804D01*
X78850000Y-79974999D01*
X79974972Y-79974999D01*
X79974986Y-79974998D01*
X80077697Y-79964505D01*
X80244119Y-79909358D01*
X80244124Y-79909356D01*
X80393345Y-79817315D01*
X80517315Y-79693345D01*
X80609356Y-79544124D01*
X80609358Y-79544119D01*
X80664505Y-79377697D01*
X80664506Y-79377690D01*
X80674999Y-79274986D01*
X80675000Y-79274973D01*
X80675000Y-78150000D01*
X79648804Y-78150000D01*
X79675000Y-77984604D01*
X79675000Y-77815396D01*
X79648804Y-77650000D01*
X80674999Y-77650000D01*
X80674999Y-76525028D01*
X80674998Y-76525013D01*
X80664505Y-76422302D01*
X80609358Y-76255880D01*
X80609356Y-76255875D01*
X80517315Y-76106654D01*
X80393345Y-75982684D01*
X80244124Y-75890643D01*
X80244119Y-75890641D01*
X80077697Y-75835494D01*
X80077690Y-75835493D01*
X79974986Y-75825000D01*
X78850000Y-75825000D01*
X78850000Y-76851195D01*
X78684604Y-76825000D01*
X78515396Y-76825000D01*
X78350000Y-76851195D01*
X78350000Y-75825000D01*
X77225028Y-75825000D01*
X77225012Y-75825001D01*
X77122302Y-75835494D01*
X76955880Y-75890641D01*
X76955875Y-75890643D01*
X76806654Y-75982684D01*
X76682684Y-76106654D01*
X76590643Y-76255875D01*
X76590641Y-76255880D01*
X76535494Y-76422302D01*
X76535493Y-76422309D01*
X76525000Y-76525013D01*
X74720097Y-76525013D01*
X74720097Y-71763957D01*
X76524500Y-71763957D01*
X76524500Y-72036042D01*
X76552121Y-72245835D01*
X76560013Y-72305779D01*
X76595221Y-72437179D01*
X76630430Y-72568581D01*
X76734544Y-72819933D01*
X76734547Y-72819940D01*
X76870582Y-73055560D01*
X76870585Y-73055564D01*
X76870589Y-73055570D01*
X77036209Y-73271408D01*
X77036217Y-73271417D01*
X77228583Y-73463783D01*
X77228591Y-73463790D01*
X77444429Y-73629410D01*
X77444432Y-73629412D01*
X77444440Y-73629418D01*
X77680060Y-73765453D01*
X77847634Y-73834864D01*
X77931418Y-73869569D01*
X77931419Y-73869569D01*
X77931421Y-73869570D01*
X78194221Y-73939987D01*
X78463965Y-73975500D01*
X78463972Y-73975500D01*
X78736028Y-73975500D01*
X78736035Y-73975500D01*
X79005779Y-73939987D01*
X79268579Y-73869570D01*
X79519940Y-73765453D01*
X79755560Y-73629418D01*
X79971408Y-73463791D01*
X79971412Y-73463786D01*
X79971417Y-73463783D01*
X79998381Y-73436819D01*
X80059704Y-73403334D01*
X80086062Y-73400500D01*
X87418097Y-73400500D01*
X87651368Y-73363553D01*
X87875992Y-73290568D01*
X88086434Y-73183343D01*
X88277510Y-73044517D01*
X101044517Y-60277510D01*
X101183343Y-60086433D01*
X101290568Y-59875992D01*
X101363553Y-59651368D01*
X101400500Y-59418097D01*
X101400500Y-48772889D01*
X101420185Y-48705850D01*
X101436819Y-48685208D01*
X101528097Y-48593930D01*
X101731155Y-48390871D01*
X101792476Y-48357388D01*
X101862167Y-48362372D01*
X101918101Y-48404243D01*
X101942518Y-48469708D01*
X101936542Y-48517552D01*
X101935001Y-48522201D01*
X101935000Y-48522204D01*
X101924500Y-48624983D01*
X101924500Y-51375001D01*
X101924501Y-51375018D01*
X101935000Y-51477796D01*
X101935001Y-51477799D01*
X101990185Y-51644331D01*
X101990186Y-51644334D01*
X102082288Y-51793656D01*
X102206344Y-51917712D01*
X102355666Y-52009814D01*
X102522203Y-52064999D01*
X102624991Y-52075500D01*
X105375008Y-52075499D01*
X105477797Y-52064999D01*
X105644334Y-52009814D01*
X105793656Y-51917712D01*
X105917712Y-51793656D01*
X106009814Y-51644334D01*
X106064999Y-51477797D01*
X106075500Y-51375009D01*
X106075499Y-48624992D01*
X106075498Y-48624983D01*
X107924500Y-48624983D01*
X107924500Y-51375001D01*
X107924501Y-51375018D01*
X107935000Y-51477796D01*
X107935001Y-51477799D01*
X107990185Y-51644331D01*
X107990186Y-51644334D01*
X108082288Y-51793656D01*
X108206344Y-51917712D01*
X108355666Y-52009814D01*
X108522203Y-52064999D01*
X108624991Y-52075500D01*
X111375008Y-52075499D01*
X111477797Y-52064999D01*
X111644334Y-52009814D01*
X111793656Y-51917712D01*
X111917712Y-51793656D01*
X112009814Y-51644334D01*
X112064999Y-51477797D01*
X112075500Y-51375009D01*
X112075499Y-48624992D01*
X112075498Y-48624983D01*
X113924500Y-48624983D01*
X113924500Y-51375001D01*
X113924501Y-51375018D01*
X113935000Y-51477796D01*
X113935001Y-51477799D01*
X113990185Y-51644331D01*
X113990186Y-51644334D01*
X114082288Y-51793656D01*
X114206344Y-51917712D01*
X114355666Y-52009814D01*
X114522203Y-52064999D01*
X114624991Y-52075500D01*
X117375008Y-52075499D01*
X117477797Y-52064999D01*
X117644334Y-52009814D01*
X117793656Y-51917712D01*
X117917712Y-51793656D01*
X118009814Y-51644334D01*
X118064999Y-51477797D01*
X118075500Y-51375009D01*
X118075499Y-48624992D01*
X118075498Y-48624983D01*
X119924500Y-48624983D01*
X119924500Y-51375001D01*
X119924501Y-51375018D01*
X119935000Y-51477796D01*
X119935001Y-51477799D01*
X119990185Y-51644331D01*
X119990186Y-51644334D01*
X120082288Y-51793656D01*
X120206344Y-51917712D01*
X120355666Y-52009814D01*
X120522203Y-52064999D01*
X120624991Y-52075500D01*
X123375008Y-52075499D01*
X123477797Y-52064999D01*
X123644334Y-52009814D01*
X123793656Y-51917712D01*
X123917712Y-51793656D01*
X124009814Y-51644334D01*
X124064999Y-51477797D01*
X124075500Y-51375009D01*
X124075499Y-48624992D01*
X124075498Y-48624983D01*
X125924500Y-48624983D01*
X125924500Y-51375001D01*
X125924501Y-51375018D01*
X125935000Y-51477796D01*
X125935001Y-51477799D01*
X125990185Y-51644331D01*
X125990186Y-51644334D01*
X126082288Y-51793656D01*
X126206344Y-51917712D01*
X126355666Y-52009814D01*
X126522203Y-52064999D01*
X126624991Y-52075500D01*
X129375008Y-52075499D01*
X129477797Y-52064999D01*
X129644334Y-52009814D01*
X129793656Y-51917712D01*
X129917712Y-51793656D01*
X130009814Y-51644334D01*
X130064999Y-51477797D01*
X130075500Y-51375009D01*
X130075499Y-48624992D01*
X130075498Y-48624983D01*
X131924500Y-48624983D01*
X131924500Y-51375001D01*
X131924501Y-51375018D01*
X131935000Y-51477796D01*
X131935001Y-51477799D01*
X131990185Y-51644331D01*
X131990186Y-51644334D01*
X132082288Y-51793656D01*
X132206344Y-51917712D01*
X132355666Y-52009814D01*
X132522203Y-52064999D01*
X132624991Y-52075500D01*
X135375008Y-52075499D01*
X135477797Y-52064999D01*
X135644334Y-52009814D01*
X135793656Y-51917712D01*
X135917712Y-51793656D01*
X136009814Y-51644334D01*
X136064999Y-51477797D01*
X136075500Y-51375009D01*
X136075499Y-48624992D01*
X136075498Y-48624983D01*
X137924500Y-48624983D01*
X137924500Y-51375001D01*
X137924501Y-51375018D01*
X137935000Y-51477796D01*
X137935001Y-51477799D01*
X137990185Y-51644331D01*
X137990186Y-51644334D01*
X138082288Y-51793656D01*
X138206344Y-51917712D01*
X138355666Y-52009814D01*
X138522203Y-52064999D01*
X138624991Y-52075500D01*
X141375008Y-52075499D01*
X141477797Y-52064999D01*
X141644334Y-52009814D01*
X141793656Y-51917712D01*
X141917712Y-51793656D01*
X142009814Y-51644334D01*
X142064999Y-51477797D01*
X142075500Y-51375009D01*
X142075499Y-48624992D01*
X142075498Y-48624983D01*
X143924500Y-48624983D01*
X143924500Y-51375001D01*
X143924501Y-51375018D01*
X143935000Y-51477796D01*
X143935001Y-51477799D01*
X143990185Y-51644331D01*
X143990186Y-51644334D01*
X144082288Y-51793656D01*
X144206344Y-51917712D01*
X144355666Y-52009814D01*
X144522203Y-52064999D01*
X144624991Y-52075500D01*
X147375008Y-52075499D01*
X147477797Y-52064999D01*
X147644334Y-52009814D01*
X147793656Y-51917712D01*
X147917712Y-51793656D01*
X148009814Y-51644334D01*
X148064999Y-51477797D01*
X148075500Y-51375009D01*
X148075499Y-48624992D01*
X148072326Y-48593935D01*
X148064999Y-48522203D01*
X148064998Y-48522200D01*
X148047604Y-48469708D01*
X148009814Y-48355666D01*
X147917712Y-48206344D01*
X147793656Y-48082288D01*
X147644334Y-47990186D01*
X147477797Y-47935001D01*
X147477795Y-47935000D01*
X147375010Y-47924500D01*
X144624998Y-47924500D01*
X144624981Y-47924501D01*
X144522203Y-47935000D01*
X144522200Y-47935001D01*
X144355668Y-47990185D01*
X144355663Y-47990187D01*
X144206342Y-48082289D01*
X144082289Y-48206342D01*
X143990187Y-48355663D01*
X143990185Y-48355668D01*
X143974089Y-48404243D01*
X143935001Y-48522203D01*
X143935001Y-48522204D01*
X143935000Y-48522204D01*
X143924500Y-48624983D01*
X142075498Y-48624983D01*
X142072326Y-48593935D01*
X142064999Y-48522203D01*
X142064998Y-48522200D01*
X142047604Y-48469708D01*
X142009814Y-48355666D01*
X141917712Y-48206344D01*
X141793656Y-48082288D01*
X141644334Y-47990186D01*
X141477797Y-47935001D01*
X141477795Y-47935000D01*
X141375010Y-47924500D01*
X138624998Y-47924500D01*
X138624981Y-47924501D01*
X138522203Y-47935000D01*
X138522200Y-47935001D01*
X138355668Y-47990185D01*
X138355663Y-47990187D01*
X138206342Y-48082289D01*
X138082289Y-48206342D01*
X137990187Y-48355663D01*
X137990185Y-48355668D01*
X137974089Y-48404243D01*
X137935001Y-48522203D01*
X137935001Y-48522204D01*
X137935000Y-48522204D01*
X137924500Y-48624983D01*
X136075498Y-48624983D01*
X136072326Y-48593935D01*
X136064999Y-48522203D01*
X136064998Y-48522200D01*
X136047604Y-48469708D01*
X136009814Y-48355666D01*
X135917712Y-48206344D01*
X135793656Y-48082288D01*
X135644334Y-47990186D01*
X135477797Y-47935001D01*
X135477795Y-47935000D01*
X135375010Y-47924500D01*
X132624998Y-47924500D01*
X132624981Y-47924501D01*
X132522203Y-47935000D01*
X132522200Y-47935001D01*
X132355668Y-47990185D01*
X132355663Y-47990187D01*
X132206342Y-48082289D01*
X132082289Y-48206342D01*
X131990187Y-48355663D01*
X131990185Y-48355668D01*
X131974089Y-48404243D01*
X131935001Y-48522203D01*
X131935001Y-48522204D01*
X131935000Y-48522204D01*
X131924500Y-48624983D01*
X130075498Y-48624983D01*
X130072326Y-48593935D01*
X130064999Y-48522203D01*
X130064998Y-48522200D01*
X130047604Y-48469708D01*
X130009814Y-48355666D01*
X129917712Y-48206344D01*
X129793656Y-48082288D01*
X129644334Y-47990186D01*
X129477797Y-47935001D01*
X129477795Y-47935000D01*
X129375010Y-47924500D01*
X126624998Y-47924500D01*
X126624981Y-47924501D01*
X126522203Y-47935000D01*
X126522200Y-47935001D01*
X126355668Y-47990185D01*
X126355663Y-47990187D01*
X126206342Y-48082289D01*
X126082289Y-48206342D01*
X125990187Y-48355663D01*
X125990185Y-48355668D01*
X125974089Y-48404243D01*
X125935001Y-48522203D01*
X125935001Y-48522204D01*
X125935000Y-48522204D01*
X125924500Y-48624983D01*
X124075498Y-48624983D01*
X124072326Y-48593935D01*
X124064999Y-48522203D01*
X124064998Y-48522200D01*
X124047604Y-48469708D01*
X124009814Y-48355666D01*
X123917712Y-48206344D01*
X123793656Y-48082288D01*
X123644334Y-47990186D01*
X123477797Y-47935001D01*
X123477795Y-47935000D01*
X123375010Y-47924500D01*
X120624998Y-47924500D01*
X120624981Y-47924501D01*
X120522203Y-47935000D01*
X120522200Y-47935001D01*
X120355668Y-47990185D01*
X120355663Y-47990187D01*
X120206342Y-48082289D01*
X120082289Y-48206342D01*
X119990187Y-48355663D01*
X119990185Y-48355668D01*
X119974089Y-48404243D01*
X119935001Y-48522203D01*
X119935001Y-48522204D01*
X119935000Y-48522204D01*
X119924500Y-48624983D01*
X118075498Y-48624983D01*
X118072326Y-48593935D01*
X118064999Y-48522203D01*
X118064998Y-48522200D01*
X118047604Y-48469708D01*
X118009814Y-48355666D01*
X117917712Y-48206344D01*
X117793656Y-48082288D01*
X117644334Y-47990186D01*
X117477797Y-47935001D01*
X117477795Y-47935000D01*
X117375010Y-47924500D01*
X114624998Y-47924500D01*
X114624981Y-47924501D01*
X114522203Y-47935000D01*
X114522200Y-47935001D01*
X114355668Y-47990185D01*
X114355663Y-47990187D01*
X114206342Y-48082289D01*
X114082289Y-48206342D01*
X113990187Y-48355663D01*
X113990185Y-48355668D01*
X113974089Y-48404243D01*
X113935001Y-48522203D01*
X113935001Y-48522204D01*
X113935000Y-48522204D01*
X113924500Y-48624983D01*
X112075498Y-48624983D01*
X112072326Y-48593935D01*
X112064999Y-48522203D01*
X112064998Y-48522200D01*
X112047604Y-48469708D01*
X112009814Y-48355666D01*
X111917712Y-48206344D01*
X111793656Y-48082288D01*
X111644334Y-47990186D01*
X111477797Y-47935001D01*
X111477795Y-47935000D01*
X111375010Y-47924500D01*
X108624998Y-47924500D01*
X108624981Y-47924501D01*
X108522203Y-47935000D01*
X108522200Y-47935001D01*
X108355668Y-47990185D01*
X108355663Y-47990187D01*
X108206342Y-48082289D01*
X108082289Y-48206342D01*
X107990187Y-48355663D01*
X107990185Y-48355668D01*
X107974089Y-48404243D01*
X107935001Y-48522203D01*
X107935001Y-48522204D01*
X107935000Y-48522204D01*
X107924500Y-48624983D01*
X106075498Y-48624983D01*
X106072326Y-48593935D01*
X106064999Y-48522203D01*
X106064998Y-48522200D01*
X106047604Y-48469708D01*
X106009814Y-48355666D01*
X105917712Y-48206344D01*
X105793656Y-48082288D01*
X105644334Y-47990186D01*
X105477797Y-47935001D01*
X105477795Y-47935000D01*
X105375010Y-47924500D01*
X102624998Y-47924500D01*
X102624981Y-47924501D01*
X102522203Y-47935000D01*
X102522201Y-47935001D01*
X102517558Y-47936540D01*
X102447729Y-47938940D01*
X102387688Y-47903207D01*
X102356497Y-47840686D01*
X102364059Y-47771227D01*
X102390875Y-47731152D01*
X102808462Y-47313566D01*
X104010209Y-46111819D01*
X104071532Y-46078334D01*
X104097890Y-46075500D01*
X104136028Y-46075500D01*
X104136035Y-46075500D01*
X104405779Y-46039987D01*
X104668579Y-45969570D01*
X104919940Y-45865453D01*
X105155560Y-45729418D01*
X105371408Y-45563791D01*
X105371412Y-45563786D01*
X105371417Y-45563783D01*
X105398381Y-45536819D01*
X105459704Y-45503334D01*
X105486062Y-45500500D01*
X108513938Y-45500500D01*
X108580977Y-45520185D01*
X108601619Y-45536819D01*
X108628583Y-45563783D01*
X108628591Y-45563790D01*
X108844429Y-45729410D01*
X108844432Y-45729412D01*
X108844440Y-45729418D01*
X109080060Y-45865453D01*
X109247634Y-45934864D01*
X109331418Y-45969569D01*
X109331419Y-45969569D01*
X109331421Y-45969570D01*
X109594221Y-46039987D01*
X109863965Y-46075500D01*
X109863972Y-46075500D01*
X110136028Y-46075500D01*
X110136035Y-46075500D01*
X110405779Y-46039987D01*
X110668579Y-45969570D01*
X110919940Y-45865453D01*
X111155560Y-45729418D01*
X111371408Y-45563791D01*
X111371412Y-45563786D01*
X111371417Y-45563783D01*
X111398381Y-45536819D01*
X111459704Y-45503334D01*
X111486062Y-45500500D01*
X114513938Y-45500500D01*
X114580977Y-45520185D01*
X114601619Y-45536819D01*
X114628583Y-45563783D01*
X114628591Y-45563790D01*
X114844429Y-45729410D01*
X114844432Y-45729412D01*
X114844440Y-45729418D01*
X115080060Y-45865453D01*
X115247634Y-45934864D01*
X115331418Y-45969569D01*
X115331419Y-45969569D01*
X115331421Y-45969570D01*
X115594221Y-46039987D01*
X115863965Y-46075500D01*
X115863972Y-46075500D01*
X116136028Y-46075500D01*
X116136035Y-46075500D01*
X116405779Y-46039987D01*
X116668579Y-45969570D01*
X116919940Y-45865453D01*
X117155560Y-45729418D01*
X117371408Y-45563791D01*
X117371412Y-45563786D01*
X117371417Y-45563783D01*
X117398381Y-45536819D01*
X117459704Y-45503334D01*
X117486062Y-45500500D01*
X120513938Y-45500500D01*
X120580977Y-45520185D01*
X120601619Y-45536819D01*
X120628583Y-45563783D01*
X120628591Y-45563790D01*
X120844429Y-45729410D01*
X120844432Y-45729412D01*
X120844440Y-45729418D01*
X121080060Y-45865453D01*
X121247634Y-45934864D01*
X121331418Y-45969569D01*
X121331419Y-45969569D01*
X121331421Y-45969570D01*
X121594221Y-46039987D01*
X121863965Y-46075500D01*
X121863972Y-46075500D01*
X122136028Y-46075500D01*
X122136035Y-46075500D01*
X122405779Y-46039987D01*
X122668579Y-45969570D01*
X122919940Y-45865453D01*
X123155560Y-45729418D01*
X123371408Y-45563791D01*
X123371412Y-45563786D01*
X123371417Y-45563783D01*
X123398381Y-45536819D01*
X123459704Y-45503334D01*
X123486062Y-45500500D01*
X126513938Y-45500500D01*
X126580977Y-45520185D01*
X126601619Y-45536819D01*
X126628583Y-45563783D01*
X126628591Y-45563790D01*
X126844429Y-45729410D01*
X126844432Y-45729412D01*
X126844440Y-45729418D01*
X127080060Y-45865453D01*
X127247634Y-45934864D01*
X127331418Y-45969569D01*
X127331419Y-45969569D01*
X127331421Y-45969570D01*
X127594221Y-46039987D01*
X127863965Y-46075500D01*
X127863972Y-46075500D01*
X128136028Y-46075500D01*
X128136035Y-46075500D01*
X128405779Y-46039987D01*
X128668579Y-45969570D01*
X128919940Y-45865453D01*
X129155560Y-45729418D01*
X129371408Y-45563791D01*
X129371412Y-45563786D01*
X129371417Y-45563783D01*
X129398381Y-45536819D01*
X129459704Y-45503334D01*
X129486062Y-45500500D01*
X132513938Y-45500500D01*
X132580977Y-45520185D01*
X132601619Y-45536819D01*
X132628583Y-45563783D01*
X132628591Y-45563790D01*
X132844429Y-45729410D01*
X132844432Y-45729412D01*
X132844440Y-45729418D01*
X133080060Y-45865453D01*
X133247634Y-45934864D01*
X133331418Y-45969569D01*
X133331419Y-45969569D01*
X133331421Y-45969570D01*
X133594221Y-46039987D01*
X133863965Y-46075500D01*
X133863972Y-46075500D01*
X134136028Y-46075500D01*
X134136035Y-46075500D01*
X134405779Y-46039987D01*
X134668579Y-45969570D01*
X134919940Y-45865453D01*
X135155560Y-45729418D01*
X135371408Y-45563791D01*
X135371412Y-45563786D01*
X135371417Y-45563783D01*
X135398381Y-45536819D01*
X135459704Y-45503334D01*
X135486062Y-45500500D01*
X138513938Y-45500500D01*
X138580977Y-45520185D01*
X138601619Y-45536819D01*
X138628583Y-45563783D01*
X138628591Y-45563790D01*
X138844429Y-45729410D01*
X138844432Y-45729412D01*
X138844440Y-45729418D01*
X139080060Y-45865453D01*
X139247634Y-45934864D01*
X139331418Y-45969569D01*
X139331419Y-45969569D01*
X139331421Y-45969570D01*
X139594221Y-46039987D01*
X139863965Y-46075500D01*
X139863972Y-46075500D01*
X140136028Y-46075500D01*
X140136035Y-46075500D01*
X140405779Y-46039987D01*
X140668579Y-45969570D01*
X140919940Y-45865453D01*
X141155560Y-45729418D01*
X141371408Y-45563791D01*
X141371412Y-45563786D01*
X141371417Y-45563783D01*
X141398381Y-45536819D01*
X141459704Y-45503334D01*
X141486062Y-45500500D01*
X144513938Y-45500500D01*
X144580977Y-45520185D01*
X144601619Y-45536819D01*
X144628583Y-45563783D01*
X144628591Y-45563790D01*
X144844429Y-45729410D01*
X144844432Y-45729412D01*
X144844440Y-45729418D01*
X145080060Y-45865453D01*
X145247634Y-45934864D01*
X145331418Y-45969569D01*
X145331419Y-45969569D01*
X145331421Y-45969570D01*
X145594221Y-46039987D01*
X145863965Y-46075500D01*
X145863972Y-46075500D01*
X146136028Y-46075500D01*
X146136035Y-46075500D01*
X146405779Y-46039987D01*
X146668579Y-45969570D01*
X146919940Y-45865453D01*
X147155560Y-45729418D01*
X147371408Y-45563791D01*
X147371412Y-45563786D01*
X147371417Y-45563783D01*
X147563783Y-45371417D01*
X147563786Y-45371412D01*
X147563791Y-45371408D01*
X147729418Y-45155560D01*
X147865453Y-44919940D01*
X147865458Y-44919928D01*
X147907592Y-44818209D01*
X151299500Y-44818209D01*
X151299500Y-45181790D01*
X151335137Y-45543630D01*
X151406064Y-45900212D01*
X151406067Y-45900223D01*
X151511614Y-46248165D01*
X151650754Y-46584078D01*
X151650756Y-46584083D01*
X151822140Y-46904720D01*
X151822151Y-46904738D01*
X152024140Y-47207035D01*
X152024150Y-47207049D01*
X152254807Y-47488106D01*
X152511893Y-47745192D01*
X152511898Y-47745196D01*
X152511899Y-47745197D01*
X152792956Y-47975854D01*
X153095268Y-48177853D01*
X153095277Y-48177858D01*
X153095279Y-48177859D01*
X153415916Y-48349243D01*
X153415918Y-48349243D01*
X153415924Y-48349247D01*
X153751836Y-48488386D01*
X154099767Y-48593930D01*
X154099773Y-48593931D01*
X154099776Y-48593932D01*
X154099787Y-48593935D01*
X154456369Y-48664862D01*
X154818206Y-48700500D01*
X154818209Y-48700500D01*
X155181791Y-48700500D01*
X155181794Y-48700500D01*
X155543631Y-48664862D01*
X155613045Y-48651054D01*
X155900212Y-48593935D01*
X155900223Y-48593932D01*
X155900223Y-48593931D01*
X155900233Y-48593930D01*
X156248164Y-48488386D01*
X156584076Y-48349247D01*
X156904732Y-48177853D01*
X157207044Y-47975854D01*
X157488101Y-47745197D01*
X157745197Y-47488101D01*
X157975854Y-47207044D01*
X158177853Y-46904732D01*
X158349247Y-46584076D01*
X158488386Y-46248164D01*
X158593930Y-45900233D01*
X158593932Y-45900223D01*
X158593935Y-45900212D01*
X158660852Y-45563790D01*
X158664862Y-45543631D01*
X158700500Y-45181794D01*
X158700500Y-44818206D01*
X158664862Y-44456369D01*
X158654799Y-44405777D01*
X158593935Y-44099787D01*
X158593932Y-44099776D01*
X158593931Y-44099773D01*
X158593930Y-44099767D01*
X158488386Y-43751836D01*
X158349247Y-43415924D01*
X158177853Y-43095268D01*
X157975854Y-42792956D01*
X157745197Y-42511899D01*
X157745196Y-42511898D01*
X157745192Y-42511893D01*
X157488106Y-42254807D01*
X157207049Y-42024150D01*
X157207048Y-42024149D01*
X157207044Y-42024146D01*
X156904732Y-41822147D01*
X156904727Y-41822144D01*
X156904720Y-41822140D01*
X156584083Y-41650756D01*
X156584078Y-41650754D01*
X156248165Y-41511614D01*
X155900223Y-41406067D01*
X155900212Y-41406064D01*
X155543630Y-41335137D01*
X155271111Y-41308296D01*
X155181794Y-41299500D01*
X154818206Y-41299500D01*
X154735679Y-41307628D01*
X154456369Y-41335137D01*
X154099787Y-41406064D01*
X154099776Y-41406067D01*
X153751834Y-41511614D01*
X153415921Y-41650754D01*
X153415916Y-41650756D01*
X153095279Y-41822140D01*
X153095261Y-41822151D01*
X152792964Y-42024140D01*
X152792950Y-42024150D01*
X152511893Y-42254807D01*
X152254807Y-42511893D01*
X152024150Y-42792950D01*
X152024140Y-42792964D01*
X151822151Y-43095261D01*
X151822140Y-43095279D01*
X151650756Y-43415916D01*
X151650754Y-43415921D01*
X151511614Y-43751834D01*
X151406067Y-44099776D01*
X151406064Y-44099787D01*
X151335137Y-44456369D01*
X151314237Y-44668579D01*
X151304474Y-44767710D01*
X151299500Y-44818209D01*
X147907592Y-44818209D01*
X147928509Y-44767710D01*
X147928509Y-44767709D01*
X147969569Y-44668581D01*
X147969570Y-44668579D01*
X148039987Y-44405779D01*
X148075500Y-44136035D01*
X148075500Y-43863965D01*
X148039987Y-43594221D01*
X147969570Y-43331421D01*
X147865453Y-43080060D01*
X147729418Y-42844440D01*
X147563791Y-42628592D01*
X147563790Y-42628591D01*
X147563783Y-42628583D01*
X147371417Y-42436217D01*
X147371408Y-42436209D01*
X147155570Y-42270589D01*
X147155564Y-42270585D01*
X147155560Y-42270582D01*
X146919940Y-42134547D01*
X146919933Y-42134544D01*
X146668581Y-42030430D01*
X146537179Y-41995221D01*
X146405779Y-41960013D01*
X146345835Y-41952121D01*
X146136042Y-41924500D01*
X146136035Y-41924500D01*
X145863965Y-41924500D01*
X145863957Y-41924500D01*
X145624192Y-41956067D01*
X145594221Y-41960013D01*
X145528521Y-41977617D01*
X145331418Y-42030430D01*
X145080066Y-42134544D01*
X145080057Y-42134548D01*
X144844446Y-42270578D01*
X144844429Y-42270589D01*
X144628591Y-42436209D01*
X144601619Y-42463181D01*
X144540296Y-42496666D01*
X144513938Y-42499500D01*
X141486062Y-42499500D01*
X141419023Y-42479815D01*
X141398381Y-42463181D01*
X141371417Y-42436217D01*
X141371408Y-42436209D01*
X141155570Y-42270589D01*
X141155564Y-42270585D01*
X141155560Y-42270582D01*
X140919940Y-42134547D01*
X140919933Y-42134544D01*
X140668581Y-42030430D01*
X140537179Y-41995221D01*
X140405779Y-41960013D01*
X140345835Y-41952121D01*
X140136042Y-41924500D01*
X140136035Y-41924500D01*
X139863965Y-41924500D01*
X139863957Y-41924500D01*
X139624192Y-41956067D01*
X139594221Y-41960013D01*
X139528521Y-41977617D01*
X139331418Y-42030430D01*
X139080066Y-42134544D01*
X139080057Y-42134548D01*
X138844446Y-42270578D01*
X138844429Y-42270589D01*
X138628591Y-42436209D01*
X138601619Y-42463181D01*
X138540296Y-42496666D01*
X138513938Y-42499500D01*
X135486062Y-42499500D01*
X135419023Y-42479815D01*
X135398381Y-42463181D01*
X135371417Y-42436217D01*
X135371408Y-42436209D01*
X135155570Y-42270589D01*
X135155564Y-42270585D01*
X135155560Y-42270582D01*
X134919940Y-42134547D01*
X134919933Y-42134544D01*
X134668581Y-42030430D01*
X134537179Y-41995221D01*
X134405779Y-41960013D01*
X134345835Y-41952121D01*
X134136042Y-41924500D01*
X134136035Y-41924500D01*
X133863965Y-41924500D01*
X133863957Y-41924500D01*
X133624192Y-41956067D01*
X133594221Y-41960013D01*
X133528521Y-41977617D01*
X133331418Y-42030430D01*
X133080066Y-42134544D01*
X133080057Y-42134548D01*
X132844446Y-42270578D01*
X132844429Y-42270589D01*
X132628591Y-42436209D01*
X132601619Y-42463181D01*
X132540296Y-42496666D01*
X132513938Y-42499500D01*
X129486062Y-42499500D01*
X129419023Y-42479815D01*
X129398381Y-42463181D01*
X129371417Y-42436217D01*
X129371408Y-42436209D01*
X129155570Y-42270589D01*
X129155564Y-42270585D01*
X129155560Y-42270582D01*
X128919940Y-42134547D01*
X128919933Y-42134544D01*
X128668581Y-42030430D01*
X128537179Y-41995221D01*
X128405779Y-41960013D01*
X128345835Y-41952121D01*
X128136042Y-41924500D01*
X128136035Y-41924500D01*
X127863965Y-41924500D01*
X127863957Y-41924500D01*
X127624192Y-41956067D01*
X127594221Y-41960013D01*
X127528521Y-41977617D01*
X127331418Y-42030430D01*
X127080066Y-42134544D01*
X127080057Y-42134548D01*
X126844446Y-42270578D01*
X126844429Y-42270589D01*
X126628591Y-42436209D01*
X126601619Y-42463181D01*
X126540296Y-42496666D01*
X126513938Y-42499500D01*
X123486062Y-42499500D01*
X123419023Y-42479815D01*
X123398381Y-42463181D01*
X123371417Y-42436217D01*
X123371408Y-42436209D01*
X123155570Y-42270589D01*
X123155564Y-42270585D01*
X123155560Y-42270582D01*
X122919940Y-42134547D01*
X122919933Y-42134544D01*
X122668581Y-42030430D01*
X122537179Y-41995221D01*
X122405779Y-41960013D01*
X122345835Y-41952121D01*
X122136042Y-41924500D01*
X122136035Y-41924500D01*
X121863965Y-41924500D01*
X121863957Y-41924500D01*
X121624192Y-41956067D01*
X121594221Y-41960013D01*
X121528521Y-41977617D01*
X121331418Y-42030430D01*
X121080066Y-42134544D01*
X121080057Y-42134548D01*
X120844446Y-42270578D01*
X120844429Y-42270589D01*
X120628591Y-42436209D01*
X120601619Y-42463181D01*
X120540296Y-42496666D01*
X120513938Y-42499500D01*
X117486062Y-42499500D01*
X117419023Y-42479815D01*
X117398381Y-42463181D01*
X117371417Y-42436217D01*
X117371408Y-42436209D01*
X117155570Y-42270589D01*
X117155564Y-42270585D01*
X117155560Y-42270582D01*
X116919940Y-42134547D01*
X116919933Y-42134544D01*
X116668581Y-42030430D01*
X116537179Y-41995221D01*
X116405779Y-41960013D01*
X116345835Y-41952121D01*
X116136042Y-41924500D01*
X116136035Y-41924500D01*
X115863965Y-41924500D01*
X115863957Y-41924500D01*
X115624192Y-41956067D01*
X115594221Y-41960013D01*
X115528521Y-41977617D01*
X115331418Y-42030430D01*
X115080066Y-42134544D01*
X115080057Y-42134548D01*
X114844446Y-42270578D01*
X114844429Y-42270589D01*
X114628591Y-42436209D01*
X114601619Y-42463181D01*
X114540296Y-42496666D01*
X114513938Y-42499500D01*
X111486062Y-42499500D01*
X111419023Y-42479815D01*
X111398381Y-42463181D01*
X111371417Y-42436217D01*
X111371408Y-42436209D01*
X111155570Y-42270589D01*
X111155564Y-42270585D01*
X111155560Y-42270582D01*
X110919940Y-42134547D01*
X110919933Y-42134544D01*
X110668581Y-42030430D01*
X110537179Y-41995221D01*
X110405779Y-41960013D01*
X110345835Y-41952121D01*
X110136042Y-41924500D01*
X110136035Y-41924500D01*
X109863965Y-41924500D01*
X109863957Y-41924500D01*
X109624192Y-41956067D01*
X109594221Y-41960013D01*
X109528521Y-41977617D01*
X109331418Y-42030430D01*
X109080066Y-42134544D01*
X109080057Y-42134548D01*
X108844446Y-42270578D01*
X108844429Y-42270589D01*
X108628591Y-42436209D01*
X108601619Y-42463181D01*
X108540296Y-42496666D01*
X108513938Y-42499500D01*
X105486062Y-42499500D01*
X105419023Y-42479815D01*
X105398381Y-42463181D01*
X105371417Y-42436217D01*
X105371408Y-42436209D01*
X105155570Y-42270589D01*
X105155564Y-42270585D01*
X105155560Y-42270582D01*
X104919940Y-42134547D01*
X104919933Y-42134544D01*
X104668581Y-42030430D01*
X104537179Y-41995221D01*
X104405779Y-41960013D01*
X104345835Y-41952121D01*
X104136042Y-41924500D01*
X104136035Y-41924500D01*
X103863965Y-41924500D01*
X103863957Y-41924500D01*
X103624192Y-41956067D01*
X103594221Y-41960013D01*
X103528521Y-41977617D01*
X103331418Y-42030430D01*
X103080066Y-42134544D01*
X103080057Y-42134548D01*
X102844446Y-42270578D01*
X102844429Y-42270589D01*
X102628591Y-42436209D01*
X102436209Y-42628591D01*
X102270589Y-42844429D01*
X102270578Y-42844446D01*
X102134548Y-43080057D01*
X102134544Y-43080066D01*
X102030430Y-43331418D01*
X101960013Y-43594222D01*
X101924500Y-43863957D01*
X101924500Y-43902110D01*
X101904815Y-43969149D01*
X101888181Y-43989791D01*
X98755484Y-47122488D01*
X98616657Y-47313565D01*
X98527427Y-47488691D01*
X98509433Y-47524003D01*
X98436446Y-47748631D01*
X98399500Y-47981902D01*
X98399500Y-58627111D01*
X98379815Y-58694150D01*
X98363181Y-58714792D01*
X86714792Y-70363181D01*
X86653469Y-70396666D01*
X86627111Y-70399500D01*
X80086062Y-70399500D01*
X80019023Y-70379815D01*
X79998381Y-70363181D01*
X79971417Y-70336217D01*
X79971408Y-70336209D01*
X79755570Y-70170589D01*
X79755564Y-70170585D01*
X79755560Y-70170582D01*
X79519940Y-70034547D01*
X79519933Y-70034544D01*
X79268581Y-69930430D01*
X79137179Y-69895221D01*
X79005779Y-69860013D01*
X78945835Y-69852121D01*
X78736042Y-69824500D01*
X78736035Y-69824500D01*
X78463965Y-69824500D01*
X78463957Y-69824500D01*
X78224192Y-69856067D01*
X78194221Y-69860013D01*
X78128521Y-69877617D01*
X77931418Y-69930430D01*
X77680066Y-70034544D01*
X77680057Y-70034548D01*
X77444446Y-70170578D01*
X77444429Y-70170589D01*
X77228591Y-70336209D01*
X77036209Y-70528591D01*
X76870589Y-70744429D01*
X76870578Y-70744446D01*
X76734548Y-70980057D01*
X76734544Y-70980066D01*
X76630430Y-71231418D01*
X76560013Y-71494222D01*
X76524500Y-71763957D01*
X74720097Y-71763957D01*
X74720097Y-65763957D01*
X76524500Y-65763957D01*
X76524500Y-66036042D01*
X76552121Y-66245835D01*
X76560013Y-66305779D01*
X76595221Y-66437179D01*
X76630430Y-66568581D01*
X76734544Y-66819933D01*
X76734547Y-66819940D01*
X76870582Y-67055560D01*
X76870585Y-67055564D01*
X76870589Y-67055570D01*
X77036209Y-67271408D01*
X77036217Y-67271417D01*
X77228583Y-67463783D01*
X77228591Y-67463790D01*
X77444429Y-67629410D01*
X77444432Y-67629412D01*
X77444440Y-67629418D01*
X77680060Y-67765453D01*
X77847634Y-67834864D01*
X77931418Y-67869569D01*
X77931419Y-67869569D01*
X77931421Y-67869570D01*
X78194221Y-67939987D01*
X78463965Y-67975500D01*
X78463972Y-67975500D01*
X78736028Y-67975500D01*
X78736035Y-67975500D01*
X79005779Y-67939987D01*
X79268579Y-67869570D01*
X79519940Y-67765453D01*
X79755560Y-67629418D01*
X79971408Y-67463791D01*
X79971412Y-67463786D01*
X79971417Y-67463783D01*
X80163783Y-67271417D01*
X80163786Y-67271412D01*
X80163791Y-67271408D01*
X80329418Y-67055560D01*
X80465453Y-66819940D01*
X80569570Y-66568579D01*
X80639987Y-66305779D01*
X80675500Y-66036035D01*
X80675500Y-65763965D01*
X80639987Y-65494221D01*
X80569570Y-65231421D01*
X80465453Y-64980060D01*
X80329418Y-64744440D01*
X80163791Y-64528592D01*
X80163790Y-64528591D01*
X80163783Y-64528583D01*
X79971417Y-64336217D01*
X79971408Y-64336209D01*
X79755570Y-64170589D01*
X79755564Y-64170585D01*
X79755560Y-64170582D01*
X79519940Y-64034547D01*
X79519933Y-64034544D01*
X79268581Y-63930430D01*
X79137179Y-63895221D01*
X79005779Y-63860013D01*
X78945835Y-63852121D01*
X78736042Y-63824500D01*
X78736035Y-63824500D01*
X78463965Y-63824500D01*
X78463957Y-63824500D01*
X78224192Y-63856067D01*
X78194221Y-63860013D01*
X78128521Y-63877617D01*
X77931418Y-63930430D01*
X77680066Y-64034544D01*
X77680057Y-64034548D01*
X77444446Y-64170578D01*
X77444429Y-64170589D01*
X77228591Y-64336209D01*
X77036209Y-64528591D01*
X76870589Y-64744429D01*
X76870578Y-64744446D01*
X76734548Y-64980057D01*
X76734544Y-64980066D01*
X76630430Y-65231418D01*
X76560013Y-65494222D01*
X76524500Y-65763957D01*
X74720097Y-65763957D01*
X74720097Y-59953292D01*
X74739782Y-59886253D01*
X74756416Y-59865611D01*
X74858070Y-59763957D01*
X76524500Y-59763957D01*
X76524500Y-60036042D01*
X76552121Y-60245835D01*
X76560013Y-60305779D01*
X76595221Y-60437179D01*
X76630430Y-60568581D01*
X76734544Y-60819933D01*
X76734547Y-60819940D01*
X76870582Y-61055560D01*
X76870585Y-61055564D01*
X76870589Y-61055570D01*
X77036209Y-61271408D01*
X77036217Y-61271417D01*
X77228583Y-61463783D01*
X77228591Y-61463790D01*
X77444429Y-61629410D01*
X77444432Y-61629412D01*
X77444440Y-61629418D01*
X77680060Y-61765453D01*
X77847634Y-61834864D01*
X77931418Y-61869569D01*
X77931419Y-61869569D01*
X77931421Y-61869570D01*
X78194221Y-61939987D01*
X78463965Y-61975500D01*
X78463972Y-61975500D01*
X78736028Y-61975500D01*
X78736035Y-61975500D01*
X79005779Y-61939987D01*
X79268579Y-61869570D01*
X79519940Y-61765453D01*
X79755560Y-61629418D01*
X79971408Y-61463791D01*
X79971412Y-61463786D01*
X79971417Y-61463783D01*
X80163783Y-61271417D01*
X80163786Y-61271412D01*
X80163791Y-61271408D01*
X80329418Y-61055560D01*
X80465453Y-60819940D01*
X80569570Y-60568579D01*
X80639987Y-60305779D01*
X80675500Y-60036035D01*
X80675500Y-59763965D01*
X80639987Y-59494221D01*
X80569570Y-59231421D01*
X80465453Y-58980060D01*
X80329418Y-58744440D01*
X80298702Y-58704411D01*
X80163790Y-58528591D01*
X80163783Y-58528583D01*
X79971417Y-58336217D01*
X79971408Y-58336209D01*
X79755570Y-58170589D01*
X79755564Y-58170585D01*
X79755560Y-58170582D01*
X79519940Y-58034547D01*
X79519933Y-58034544D01*
X79268581Y-57930430D01*
X79137179Y-57895221D01*
X79005779Y-57860013D01*
X78945835Y-57852121D01*
X78736042Y-57824500D01*
X78736035Y-57824500D01*
X78463965Y-57824500D01*
X78463957Y-57824500D01*
X78224192Y-57856067D01*
X78194221Y-57860013D01*
X78128521Y-57877617D01*
X77931418Y-57930430D01*
X77680066Y-58034544D01*
X77680057Y-58034548D01*
X77444446Y-58170578D01*
X77444429Y-58170589D01*
X77228591Y-58336209D01*
X77036209Y-58528591D01*
X76870589Y-58744429D01*
X76870578Y-58744446D01*
X76734548Y-58980057D01*
X76734544Y-58980066D01*
X76630430Y-59231418D01*
X76560013Y-59494222D01*
X76524500Y-59763957D01*
X74858070Y-59763957D01*
X78610208Y-56011819D01*
X78671531Y-55978334D01*
X78697889Y-55975500D01*
X78736028Y-55975500D01*
X78736035Y-55975500D01*
X79005779Y-55939987D01*
X79268579Y-55869570D01*
X79519940Y-55765453D01*
X79755560Y-55629418D01*
X79971408Y-55463791D01*
X79971412Y-55463786D01*
X79971417Y-55463783D01*
X80163783Y-55271417D01*
X80163786Y-55271412D01*
X80163791Y-55271408D01*
X80329418Y-55055560D01*
X80465453Y-54819940D01*
X80569570Y-54568579D01*
X80639987Y-54305779D01*
X80675500Y-54036035D01*
X80675500Y-53763965D01*
X80639987Y-53494221D01*
X80569570Y-53231421D01*
X80465453Y-52980060D01*
X80329418Y-52744440D01*
X80163791Y-52528592D01*
X80163790Y-52528591D01*
X80163783Y-52528583D01*
X79971417Y-52336217D01*
X79971408Y-52336209D01*
X79755570Y-52170589D01*
X79755564Y-52170585D01*
X79755560Y-52170582D01*
X79590871Y-52075499D01*
X79519942Y-52034548D01*
X79519933Y-52034544D01*
X79268581Y-51930430D01*
X79137179Y-51895221D01*
X79005779Y-51860013D01*
X78945835Y-51852121D01*
X78736042Y-51824500D01*
X78736035Y-51824500D01*
X78463965Y-51824500D01*
X78463957Y-51824500D01*
X78224192Y-51856067D01*
X78194221Y-51860013D01*
X78128521Y-51877617D01*
X77931418Y-51930430D01*
X77680066Y-52034544D01*
X77680057Y-52034548D01*
X77444446Y-52170578D01*
X77444429Y-52170589D01*
X77228591Y-52336209D01*
X77036209Y-52528591D01*
X76870589Y-52744429D01*
X76870578Y-52744446D01*
X76734548Y-52980057D01*
X76734544Y-52980066D01*
X76630430Y-53231418D01*
X76560013Y-53494222D01*
X76524500Y-53763957D01*
X76524500Y-53802111D01*
X76504815Y-53869150D01*
X76488181Y-53889792D01*
X72075082Y-58302890D01*
X72075081Y-58302891D01*
X71936256Y-58493965D01*
X71936254Y-58493968D01*
X71926268Y-58513568D01*
X71829030Y-58704406D01*
X71756043Y-58929034D01*
X71719097Y-59162305D01*
X71000000Y-59162305D01*
X71000000Y-44818209D01*
X71299500Y-44818209D01*
X71299500Y-45181790D01*
X71335137Y-45543630D01*
X71406064Y-45900212D01*
X71406067Y-45900223D01*
X71511614Y-46248165D01*
X71650754Y-46584078D01*
X71650756Y-46584083D01*
X71822140Y-46904720D01*
X71822151Y-46904738D01*
X72024140Y-47207035D01*
X72024150Y-47207049D01*
X72254807Y-47488106D01*
X72511893Y-47745192D01*
X72511898Y-47745196D01*
X72511899Y-47745197D01*
X72792956Y-47975854D01*
X73095268Y-48177853D01*
X73095277Y-48177858D01*
X73095279Y-48177859D01*
X73415916Y-48349243D01*
X73415918Y-48349243D01*
X73415924Y-48349247D01*
X73751836Y-48488386D01*
X74099767Y-48593930D01*
X74099773Y-48593931D01*
X74099776Y-48593932D01*
X74099787Y-48593935D01*
X74456369Y-48664862D01*
X74818206Y-48700500D01*
X74818209Y-48700500D01*
X75181791Y-48700500D01*
X75181794Y-48700500D01*
X75543631Y-48664862D01*
X75613045Y-48651054D01*
X75744118Y-48624983D01*
X81924500Y-48624983D01*
X81924500Y-51375001D01*
X81924501Y-51375018D01*
X81935000Y-51477796D01*
X81935001Y-51477799D01*
X81990185Y-51644331D01*
X81990186Y-51644334D01*
X82082288Y-51793656D01*
X82206344Y-51917712D01*
X82355666Y-52009814D01*
X82522203Y-52064999D01*
X82624991Y-52075500D01*
X85375008Y-52075499D01*
X85477797Y-52064999D01*
X85644334Y-52009814D01*
X85793656Y-51917712D01*
X85917712Y-51793656D01*
X86009814Y-51644334D01*
X86064999Y-51477797D01*
X86075500Y-51375009D01*
X86075499Y-48624992D01*
X86075498Y-48624983D01*
X87924500Y-48624983D01*
X87924500Y-51375001D01*
X87924501Y-51375018D01*
X87935000Y-51477796D01*
X87935001Y-51477799D01*
X87990185Y-51644331D01*
X87990186Y-51644334D01*
X88082288Y-51793656D01*
X88206344Y-51917712D01*
X88355666Y-52009814D01*
X88522203Y-52064999D01*
X88624991Y-52075500D01*
X91375008Y-52075499D01*
X91477797Y-52064999D01*
X91644334Y-52009814D01*
X91793656Y-51917712D01*
X91917712Y-51793656D01*
X92009814Y-51644334D01*
X92064999Y-51477797D01*
X92075500Y-51375009D01*
X92075499Y-48624992D01*
X92075498Y-48624983D01*
X93924500Y-48624983D01*
X93924500Y-51375001D01*
X93924501Y-51375018D01*
X93935000Y-51477796D01*
X93935001Y-51477799D01*
X93990185Y-51644331D01*
X93990186Y-51644334D01*
X94082288Y-51793656D01*
X94206344Y-51917712D01*
X94355666Y-52009814D01*
X94522203Y-52064999D01*
X94624991Y-52075500D01*
X97375008Y-52075499D01*
X97477797Y-52064999D01*
X97644334Y-52009814D01*
X97793656Y-51917712D01*
X97917712Y-51793656D01*
X98009814Y-51644334D01*
X98064999Y-51477797D01*
X98075500Y-51375009D01*
X98075499Y-48624992D01*
X98072326Y-48593935D01*
X98064999Y-48522203D01*
X98064998Y-48522200D01*
X98047604Y-48469708D01*
X98009814Y-48355666D01*
X97917712Y-48206344D01*
X97793656Y-48082288D01*
X97644334Y-47990186D01*
X97477797Y-47935001D01*
X97477795Y-47935000D01*
X97375010Y-47924500D01*
X94624998Y-47924500D01*
X94624981Y-47924501D01*
X94522203Y-47935000D01*
X94522200Y-47935001D01*
X94355668Y-47990185D01*
X94355663Y-47990187D01*
X94206342Y-48082289D01*
X94082289Y-48206342D01*
X93990187Y-48355663D01*
X93990185Y-48355668D01*
X93974089Y-48404243D01*
X93935001Y-48522203D01*
X93935001Y-48522204D01*
X93935000Y-48522204D01*
X93924500Y-48624983D01*
X92075498Y-48624983D01*
X92072326Y-48593935D01*
X92064999Y-48522203D01*
X92064998Y-48522200D01*
X92047604Y-48469708D01*
X92009814Y-48355666D01*
X91917712Y-48206344D01*
X91793656Y-48082288D01*
X91644334Y-47990186D01*
X91477797Y-47935001D01*
X91477795Y-47935000D01*
X91375010Y-47924500D01*
X88624998Y-47924500D01*
X88624981Y-47924501D01*
X88522203Y-47935000D01*
X88522200Y-47935001D01*
X88355668Y-47990185D01*
X88355663Y-47990187D01*
X88206342Y-48082289D01*
X88082289Y-48206342D01*
X87990187Y-48355663D01*
X87990185Y-48355668D01*
X87974089Y-48404243D01*
X87935001Y-48522203D01*
X87935001Y-48522204D01*
X87935000Y-48522204D01*
X87924500Y-48624983D01*
X86075498Y-48624983D01*
X86072326Y-48593935D01*
X86064999Y-48522203D01*
X86064998Y-48522200D01*
X86047604Y-48469708D01*
X86009814Y-48355666D01*
X85917712Y-48206344D01*
X85793656Y-48082288D01*
X85644334Y-47990186D01*
X85477797Y-47935001D01*
X85477795Y-47935000D01*
X85375010Y-47924500D01*
X82624998Y-47924500D01*
X82624981Y-47924501D01*
X82522203Y-47935000D01*
X82522200Y-47935001D01*
X82355668Y-47990185D01*
X82355663Y-47990187D01*
X82206342Y-48082289D01*
X82082289Y-48206342D01*
X81990187Y-48355663D01*
X81990185Y-48355668D01*
X81974089Y-48404243D01*
X81935001Y-48522203D01*
X81935001Y-48522204D01*
X81935000Y-48522204D01*
X81924500Y-48624983D01*
X75744118Y-48624983D01*
X75900212Y-48593935D01*
X75900223Y-48593932D01*
X75900223Y-48593931D01*
X75900233Y-48593930D01*
X76248164Y-48488386D01*
X76584076Y-48349247D01*
X76904732Y-48177853D01*
X77207044Y-47975854D01*
X77488101Y-47745197D01*
X77745197Y-47488101D01*
X77975854Y-47207044D01*
X78177853Y-46904732D01*
X78349247Y-46584076D01*
X78488386Y-46248164D01*
X78593930Y-45900233D01*
X78593932Y-45900223D01*
X78593935Y-45900212D01*
X78660852Y-45563790D01*
X78664862Y-45543631D01*
X78700500Y-45181794D01*
X78700500Y-44818206D01*
X78664862Y-44456369D01*
X78654799Y-44405777D01*
X78593935Y-44099787D01*
X78593932Y-44099776D01*
X78593931Y-44099773D01*
X78593930Y-44099767D01*
X78522398Y-43863957D01*
X81924500Y-43863957D01*
X81924500Y-44136042D01*
X81952121Y-44345835D01*
X81960013Y-44405779D01*
X81973569Y-44456369D01*
X82030430Y-44668581D01*
X82134542Y-44919928D01*
X82134547Y-44919940D01*
X82270582Y-45155560D01*
X82270585Y-45155564D01*
X82270589Y-45155570D01*
X82436209Y-45371408D01*
X82436217Y-45371417D01*
X82628583Y-45563783D01*
X82628591Y-45563790D01*
X82844429Y-45729410D01*
X82844432Y-45729412D01*
X82844440Y-45729418D01*
X83080060Y-45865453D01*
X83247634Y-45934864D01*
X83331418Y-45969569D01*
X83331419Y-45969569D01*
X83331421Y-45969570D01*
X83594221Y-46039987D01*
X83863965Y-46075500D01*
X83863972Y-46075500D01*
X84136028Y-46075500D01*
X84136035Y-46075500D01*
X84405779Y-46039987D01*
X84668579Y-45969570D01*
X84919940Y-45865453D01*
X85155560Y-45729418D01*
X85371408Y-45563791D01*
X85371412Y-45563786D01*
X85371417Y-45563783D01*
X85563783Y-45371417D01*
X85563786Y-45371412D01*
X85563791Y-45371408D01*
X85729418Y-45155560D01*
X85865453Y-44919940D01*
X85969570Y-44668579D01*
X86039987Y-44405779D01*
X86075500Y-44136035D01*
X86075500Y-43863965D01*
X86075499Y-43863957D01*
X87924500Y-43863957D01*
X87924500Y-44136042D01*
X87952121Y-44345835D01*
X87960013Y-44405779D01*
X87973569Y-44456369D01*
X88030430Y-44668581D01*
X88134542Y-44919928D01*
X88134547Y-44919940D01*
X88270582Y-45155560D01*
X88270585Y-45155564D01*
X88270589Y-45155570D01*
X88436209Y-45371408D01*
X88436217Y-45371417D01*
X88628583Y-45563783D01*
X88628591Y-45563790D01*
X88844429Y-45729410D01*
X88844432Y-45729412D01*
X88844440Y-45729418D01*
X89080060Y-45865453D01*
X89247634Y-45934864D01*
X89331418Y-45969569D01*
X89331419Y-45969569D01*
X89331421Y-45969570D01*
X89594221Y-46039987D01*
X89863965Y-46075500D01*
X89863972Y-46075500D01*
X90136028Y-46075500D01*
X90136035Y-46075500D01*
X90405779Y-46039987D01*
X90668579Y-45969570D01*
X90919940Y-45865453D01*
X91155560Y-45729418D01*
X91371408Y-45563791D01*
X91371412Y-45563786D01*
X91371417Y-45563783D01*
X91563783Y-45371417D01*
X91563786Y-45371412D01*
X91563791Y-45371408D01*
X91729418Y-45155560D01*
X91865453Y-44919940D01*
X91969570Y-44668579D01*
X92039987Y-44405779D01*
X92075500Y-44136035D01*
X92075500Y-43863965D01*
X92075499Y-43863957D01*
X93924500Y-43863957D01*
X93924500Y-44136042D01*
X93952121Y-44345835D01*
X93960013Y-44405779D01*
X93973569Y-44456369D01*
X94030430Y-44668581D01*
X94134542Y-44919928D01*
X94134547Y-44919940D01*
X94270582Y-45155560D01*
X94270585Y-45155564D01*
X94270589Y-45155570D01*
X94436209Y-45371408D01*
X94436217Y-45371417D01*
X94628583Y-45563783D01*
X94628591Y-45563790D01*
X94844429Y-45729410D01*
X94844432Y-45729412D01*
X94844440Y-45729418D01*
X95080060Y-45865453D01*
X95247634Y-45934864D01*
X95331418Y-45969569D01*
X95331419Y-45969569D01*
X95331421Y-45969570D01*
X95594221Y-46039987D01*
X95863965Y-46075500D01*
X95863972Y-46075500D01*
X96136028Y-46075500D01*
X96136035Y-46075500D01*
X96405779Y-46039987D01*
X96668579Y-45969570D01*
X96919940Y-45865453D01*
X97155560Y-45729418D01*
X97371408Y-45563791D01*
X97371412Y-45563786D01*
X97371417Y-45563783D01*
X97563783Y-45371417D01*
X97563786Y-45371412D01*
X97563791Y-45371408D01*
X97729418Y-45155560D01*
X97865453Y-44919940D01*
X97969570Y-44668579D01*
X98039987Y-44405779D01*
X98075500Y-44136035D01*
X98075500Y-43863965D01*
X98039987Y-43594221D01*
X97969570Y-43331421D01*
X97865453Y-43080060D01*
X97729418Y-42844440D01*
X97563791Y-42628592D01*
X97563790Y-42628591D01*
X97563783Y-42628583D01*
X97371417Y-42436217D01*
X97371408Y-42436209D01*
X97155570Y-42270589D01*
X97155564Y-42270585D01*
X97155560Y-42270582D01*
X96919940Y-42134547D01*
X96919933Y-42134544D01*
X96668581Y-42030430D01*
X96537179Y-41995221D01*
X96405779Y-41960013D01*
X96345835Y-41952121D01*
X96136042Y-41924500D01*
X96136035Y-41924500D01*
X95863965Y-41924500D01*
X95863957Y-41924500D01*
X95624192Y-41956067D01*
X95594221Y-41960013D01*
X95528521Y-41977617D01*
X95331418Y-42030430D01*
X95080066Y-42134544D01*
X95080057Y-42134548D01*
X94844446Y-42270578D01*
X94844429Y-42270589D01*
X94628591Y-42436209D01*
X94436209Y-42628591D01*
X94270589Y-42844429D01*
X94270578Y-42844446D01*
X94134548Y-43080057D01*
X94134544Y-43080066D01*
X94030430Y-43331418D01*
X93960013Y-43594222D01*
X93924500Y-43863957D01*
X92075499Y-43863957D01*
X92039987Y-43594221D01*
X91969570Y-43331421D01*
X91865453Y-43080060D01*
X91729418Y-42844440D01*
X91563791Y-42628592D01*
X91563790Y-42628591D01*
X91563783Y-42628583D01*
X91371417Y-42436217D01*
X91371408Y-42436209D01*
X91155570Y-42270589D01*
X91155564Y-42270585D01*
X91155560Y-42270582D01*
X90919940Y-42134547D01*
X90919933Y-42134544D01*
X90668581Y-42030430D01*
X90537179Y-41995221D01*
X90405779Y-41960013D01*
X90345835Y-41952121D01*
X90136042Y-41924500D01*
X90136035Y-41924500D01*
X89863965Y-41924500D01*
X89863957Y-41924500D01*
X89624192Y-41956067D01*
X89594221Y-41960013D01*
X89528521Y-41977617D01*
X89331418Y-42030430D01*
X89080066Y-42134544D01*
X89080057Y-42134548D01*
X88844446Y-42270578D01*
X88844429Y-42270589D01*
X88628591Y-42436209D01*
X88436209Y-42628591D01*
X88270589Y-42844429D01*
X88270578Y-42844446D01*
X88134548Y-43080057D01*
X88134544Y-43080066D01*
X88030430Y-43331418D01*
X87960013Y-43594222D01*
X87924500Y-43863957D01*
X86075499Y-43863957D01*
X86039987Y-43594221D01*
X85969570Y-43331421D01*
X85865453Y-43080060D01*
X85729418Y-42844440D01*
X85563791Y-42628592D01*
X85563790Y-42628591D01*
X85563783Y-42628583D01*
X85371417Y-42436217D01*
X85371408Y-42436209D01*
X85155570Y-42270589D01*
X85155564Y-42270585D01*
X85155560Y-42270582D01*
X84919940Y-42134547D01*
X84919933Y-42134544D01*
X84668581Y-42030430D01*
X84537179Y-41995221D01*
X84405779Y-41960013D01*
X84345835Y-41952121D01*
X84136042Y-41924500D01*
X84136035Y-41924500D01*
X83863965Y-41924500D01*
X83863957Y-41924500D01*
X83624192Y-41956067D01*
X83594221Y-41960013D01*
X83528521Y-41977617D01*
X83331418Y-42030430D01*
X83080066Y-42134544D01*
X83080057Y-42134548D01*
X82844446Y-42270578D01*
X82844429Y-42270589D01*
X82628591Y-42436209D01*
X82436209Y-42628591D01*
X82270589Y-42844429D01*
X82270578Y-42844446D01*
X82134548Y-43080057D01*
X82134544Y-43080066D01*
X82030430Y-43331418D01*
X81960013Y-43594222D01*
X81924500Y-43863957D01*
X78522398Y-43863957D01*
X78488386Y-43751836D01*
X78349247Y-43415924D01*
X78177853Y-43095268D01*
X77975854Y-42792956D01*
X77745197Y-42511899D01*
X77745196Y-42511898D01*
X77745192Y-42511893D01*
X77488106Y-42254807D01*
X77207049Y-42024150D01*
X77207048Y-42024149D01*
X77207044Y-42024146D01*
X76904732Y-41822147D01*
X76904727Y-41822144D01*
X76904720Y-41822140D01*
X76584083Y-41650756D01*
X76584078Y-41650754D01*
X76248165Y-41511614D01*
X75900223Y-41406067D01*
X75900212Y-41406064D01*
X75543630Y-41335137D01*
X75271111Y-41308296D01*
X75181794Y-41299500D01*
X74818206Y-41299500D01*
X74735679Y-41307628D01*
X74456369Y-41335137D01*
X74099787Y-41406064D01*
X74099776Y-41406067D01*
X73751834Y-41511614D01*
X73415921Y-41650754D01*
X73415916Y-41650756D01*
X73095279Y-41822140D01*
X73095261Y-41822151D01*
X72792964Y-42024140D01*
X72792950Y-42024150D01*
X72511893Y-42254807D01*
X72254807Y-42511893D01*
X72024150Y-42792950D01*
X72024140Y-42792964D01*
X71822151Y-43095261D01*
X71822140Y-43095279D01*
X71650756Y-43415916D01*
X71650754Y-43415921D01*
X71511614Y-43751834D01*
X71406067Y-44099776D01*
X71406064Y-44099787D01*
X71335137Y-44456369D01*
X71314237Y-44668579D01*
X71304474Y-44767710D01*
X71299500Y-44818209D01*
X71000000Y-44818209D01*
X71000000Y-41124000D01*
X71019685Y-41056961D01*
X71072489Y-41011206D01*
X71124000Y-41000000D01*
X161876000Y-41000000D01*
X161943039Y-41019685D01*
G37*
G04 #@! TD.AperFunction*
M02*
