M48
INCH,TZ
T1C0.0157
T2C0.0315
T3C0.0335
T4C0.0374
T5C0.0394
T6C0.0433
T7C0.0472
T8C0.0512
T9C0.0630
T10C0.0827
T11C0.1260
%
G90
G05
T1
X46506Y-50810
X48010Y-31980
X50200Y-43900
X51370Y-34950
X53640Y-32320
X62980Y-30560
T2
X29820Y-39680
X29820Y-42680
X43390Y-25670
X47390Y-25670
X48234Y-27384
X48234Y-28384
X48234Y-29384
X48234Y-30384
X48898Y-37118
X48898Y-38118
X48898Y-39118
X48898Y-40118
X51234Y-27384
X51234Y-28384
X51234Y-29384
X51234Y-30384
X51898Y-37118
X51898Y-38118
X51898Y-39118
X51898Y-40118
X57470Y-35330
X60470Y-35330
X60798Y-49598
X60798Y-50598
X60798Y-51598
X60798Y-52598
X62534Y-48196
X62534Y-49196
X62534Y-50196
X65534Y-48196
X65534Y-49196
X65534Y-50196
T3
X47882Y-52362
X49535Y-52362
T4
X31132Y-26033
X31132Y-27018
X31132Y-28002
X31132Y-28986
X64847Y-26091
X64847Y-27076
X64847Y-28060
X64847Y-29044
X64847Y-30029
T5
X53378Y-36378
X53378Y-38386
X54200Y-42490
X54200Y-43490
X54378Y-36378
X54378Y-38386
X55200Y-42490
X55200Y-43490
X56200Y-42490
X56200Y-43490
X57892Y-52362
X58892Y-52362
X64847Y-22238
X64847Y-23222
T6
X31959Y-39197
X31959Y-40197
X31959Y-41197
X44614Y-36890
X44614Y-37890
X44614Y-38890
X48384Y-46959
X48790Y-32890
X49384Y-46959
X49790Y-32890
X50384Y-46959
X50790Y-32890
X54049Y-46969
X55049Y-46969
X56049Y-46969
X64390Y-42160
X64390Y-43160
X64390Y-44160
T7
X33838Y-19197
X33838Y-22150
X42000Y-19167
X42000Y-22120
X50230Y-19166
X50230Y-22119
X56780Y-25638
X56780Y-30442
X58450Y-19166
X58450Y-22119
T8
X29890Y-45641
X29890Y-50444
X32252Y-51231
X34417Y-35562
X34417Y-40365
X34614Y-45641
X34614Y-50444
X35990Y-25776
X35990Y-30500
X36780Y-41153
X38827Y-45630
X38827Y-50433
X39142Y-35562
X39142Y-40365
X40793Y-25776
X40793Y-30500
X41189Y-51220
X41581Y-28138
X43551Y-45630
X43551Y-50433
X58407Y-37781
X59391Y-41719
X60375Y-37781
T9
X57670Y-32930
X63670Y-32930
T10
X29772Y-33228
X29772Y-35591
X36698Y-53470
X39060Y-53470
X43573Y-41791
T11
X28900Y-18200
X28900Y-53150
X63780Y-18200
X63780Y-53150
M30
