M48
INCH,TZ
T1C0.0157
T2C0.0315
T3C0.0335
T4C0.0374
T5C0.0394
T6C0.0433
T7C0.0472
T8C0.0512
T9C0.0630
T10C0.0827
T11C0.1260
%
G90
G05
T1
X46506Y-50810
X50200Y-43900
X61127Y-35036
T2
X29732Y-38185
X29732Y-41185
X48898Y-37118
X48898Y-38118
X48898Y-39118
X48898Y-40118
X51898Y-37118
X51898Y-38118
X51898Y-39118
X51898Y-40118
X53276Y-30945
X53276Y-31945
X53276Y-32945
X53276Y-33945
X56276Y-30945
X56276Y-31945
X56276Y-32945
X56276Y-33945
X66972Y-37283
X68897Y-49838
X68897Y-50838
X68897Y-51838
X68897Y-52838
X69439Y-45118
X69439Y-46118
X69439Y-47118
X69972Y-37283
X72439Y-45118
X72439Y-46118
X72439Y-47118
T3
X47882Y-52362
X49535Y-52362
T4
X31132Y-26033
X31132Y-27018
X31132Y-28002
X31132Y-28986
X71799Y-27118
X71799Y-28102
X71799Y-29087
X71799Y-30071
X71799Y-31055
T5
X53378Y-36378
X53378Y-38386
X54378Y-36378
X54378Y-38386
X57892Y-52362
X58892Y-52362
X73041Y-23051
X73041Y-24035
T6
X31959Y-39197
X31959Y-40197
X31959Y-41197
X44614Y-36890
X44614Y-37890
X44614Y-38890
X48384Y-46959
X49384Y-46959
X50384Y-46959
X54049Y-46969
X55049Y-46969
X56049Y-46969
X58984Y-33543
X58984Y-34543
X58984Y-35543
X72482Y-36234
X72482Y-37234
X72482Y-38234
T7
X39142Y-19724
X39142Y-22677
X48089Y-27451
X48413Y-19715
X48413Y-22667
X56907Y-27451
X57380Y-19706
X57380Y-22659
X62823Y-26742
X62823Y-31545
X66465Y-19706
X66465Y-22659
T8
X29890Y-45641
X29890Y-50444
X32252Y-51231
X34417Y-35562
X34417Y-40365
X34614Y-45641
X34614Y-50444
X36780Y-41153
X38827Y-45630
X38827Y-50433
X39102Y-26811
X39102Y-31535
X39142Y-35562
X39142Y-40365
X41189Y-51220
X43551Y-45630
X43551Y-50433
X43906Y-26811
X43906Y-31535
X44693Y-29173
X63374Y-37283
X64358Y-41220
X65343Y-37283
T9
X62803Y-34557
X68803Y-34557
T10
X29772Y-33228
X29772Y-35591
X36476Y-55650
X38839Y-55650
X43573Y-41791
T11
X28900Y-18200
X28900Y-55600
X73000Y-18200
X73000Y-55600
M30
