G04 #@! TF.GenerationSoftware,KiCad,Pcbnew,8.0.2-8.0.2-0~ubuntu24.04.1*
G04 #@! TF.CreationDate,2024-04-29T20:27:31+02:00*
G04 #@! TF.ProjectId,astrobox_power,61737472-6f62-46f7-985f-706f7765722e,1*
G04 #@! TF.SameCoordinates,Original*
G04 #@! TF.FileFunction,Soldermask,Bot*
G04 #@! TF.FilePolarity,Negative*
%FSLAX46Y46*%
G04 Gerber Fmt 4.6, Leading zero omitted, Abs format (unit mm)*
G04 Created by KiCad (PCBNEW 8.0.2-8.0.2-0~ubuntu24.04.1) date 2024-04-29 20:27:31*
%MOMM*%
%LPD*%
G01*
G04 APERTURE LIST*
G04 Aperture macros list*
%AMRoundRect*
0 Rectangle with rounded corners*
0 $1 Rounding radius*
0 $2 $3 $4 $5 $6 $7 $8 $9 X,Y pos of 4 corners*
0 Add a 4 corners polygon primitive as box body*
4,1,4,$2,$3,$4,$5,$6,$7,$8,$9,$2,$3,0*
0 Add four circle primitives for the rounded corners*
1,1,$1+$1,$2,$3*
1,1,$1+$1,$4,$5*
1,1,$1+$1,$6,$7*
1,1,$1+$1,$8,$9*
0 Add four rect primitives between the rounded corners*
20,1,$1+$1,$2,$3,$4,$5,0*
20,1,$1+$1,$4,$5,$6,$7,0*
20,1,$1+$1,$6,$7,$8,$9,0*
20,1,$1+$1,$8,$9,$2,$3,0*%
G04 Aperture macros list end*
%ADD10R,1.700000X1.700000*%
%ADD11O,1.700000X1.700000*%
%ADD12R,2.500000X2.500000*%
%ADD13O,2.500000X2.500000*%
%ADD14C,6.400000*%
%ADD15R,1.600000X1.600000*%
%ADD16O,1.600000X1.600000*%
%ADD17R,1.905000X2.000000*%
%ADD18O,1.905000X2.000000*%
%ADD19C,2.340000*%
%ADD20RoundRect,0.249999X1.300001X1.300001X-1.300001X1.300001X-1.300001X-1.300001X1.300001X-1.300001X0*%
%ADD21C,3.100000*%
%ADD22R,2.000000X1.905000*%
%ADD23O,2.000000X1.905000*%
%ADD24RoundRect,0.249999X-1.300001X-1.300001X1.300001X-1.300001X1.300001X1.300001X-1.300001X1.300001X0*%
%ADD25R,2.400000X2.400000*%
%ADD26C,2.400000*%
%ADD27RoundRect,0.250000X0.675000X0.675000X-0.675000X0.675000X-0.675000X-0.675000X0.675000X-0.675000X0*%
%ADD28C,1.850000*%
%ADD29RoundRect,0.250000X-0.725000X0.600000X-0.725000X-0.600000X0.725000X-0.600000X0.725000X0.600000X0*%
%ADD30O,1.950000X1.700000*%
%ADD31R,3.200000X3.200000*%
%ADD32O,3.200000X3.200000*%
%ADD33RoundRect,0.250000X-0.750000X0.600000X-0.750000X-0.600000X0.750000X-0.600000X0.750000X0.600000X0*%
%ADD34O,2.000000X1.700000*%
%ADD35RoundRect,0.249999X-1.300001X1.300001X-1.300001X-1.300001X1.300001X-1.300001X1.300001X1.300001X0*%
%ADD36O,2.400000X2.400000*%
%ADD37R,1.500000X1.500000*%
%ADD38C,1.500000*%
G04 APERTURE END LIST*
D10*
G04 #@! TO.C,D8*
X138120000Y-92400000D03*
D11*
X135580000Y-92400000D03*
G04 #@! TD*
D12*
G04 #@! TO.C,K3*
X81920000Y-130127500D03*
D13*
X87920000Y-128127500D03*
X87920000Y-115927500D03*
X75920000Y-115927500D03*
X75920000Y-128127500D03*
G04 #@! TD*
D14*
G04 #@! TO.C,REF\u002A\u002A*
X185420000Y-46228000D03*
G04 #@! TD*
D15*
G04 #@! TO.C,U1*
X135320000Y-78600000D03*
D16*
X135320000Y-81140000D03*
X135320000Y-83680000D03*
X135320000Y-86220000D03*
X142940000Y-86220000D03*
X142940000Y-83680000D03*
X142940000Y-81140000D03*
X142940000Y-78600000D03*
G04 #@! TD*
D17*
G04 #@! TO.C,U3*
X127975000Y-119275000D03*
D18*
X125435000Y-119275000D03*
X122895000Y-119275000D03*
G04 #@! TD*
D15*
G04 #@! TO.C,D4*
X75520000Y-104610000D03*
D16*
X75520000Y-96990000D03*
G04 #@! TD*
D14*
G04 #@! TO.C,REF\u002A\u002A*
X73406000Y-46228000D03*
G04 #@! TD*
D15*
G04 #@! TO.C,D7*
X177730000Y-94700000D03*
D16*
X170110000Y-94700000D03*
G04 #@! TD*
D19*
G04 #@! TO.C,RV1*
X160970000Y-94700000D03*
X163470000Y-104700000D03*
X165970000Y-94700000D03*
G04 #@! TD*
D20*
G04 #@! TO.C,J8*
X98650000Y-141350000D03*
D21*
X92650000Y-141350000D03*
G04 #@! TD*
D22*
G04 #@! TO.C,Q2*
X149820000Y-90280000D03*
D23*
X149820000Y-87740000D03*
X149820000Y-85200000D03*
G04 #@! TD*
D12*
G04 #@! TO.C,K1*
X104620000Y-130100000D03*
D13*
X110620000Y-128100000D03*
X110620000Y-115900000D03*
X98620000Y-115900000D03*
X98620000Y-128100000D03*
G04 #@! TD*
D24*
G04 #@! TO.C,J7*
X110675000Y-106150000D03*
G04 #@! TD*
D12*
G04 #@! TO.C,K2*
X113520000Y-74100000D03*
D13*
X111520000Y-68100000D03*
X99320000Y-68100000D03*
X99320000Y-80100000D03*
X111520000Y-80100000D03*
G04 #@! TD*
D15*
G04 #@! TO.C,U6*
X176375000Y-114600000D03*
D16*
X176375000Y-117140000D03*
X176375000Y-119680000D03*
X183995000Y-119680000D03*
X183995000Y-117140000D03*
X183995000Y-114600000D03*
G04 #@! TD*
D25*
G04 #@! TO.C,C2*
X145745000Y-57552780D03*
D26*
X145745000Y-50052780D03*
G04 #@! TD*
D27*
G04 #@! TO.C,BT2*
X125820000Y-133000000D03*
D28*
X121620000Y-133000000D03*
G04 #@! TD*
D25*
G04 #@! TO.C,C4*
X99420000Y-57600000D03*
D26*
X99420000Y-50100000D03*
G04 #@! TD*
D29*
G04 #@! TO.C,PS1*
X79075000Y-66125000D03*
D30*
X79075000Y-68625000D03*
X79075000Y-71125000D03*
X79075000Y-73625000D03*
G04 #@! TD*
D25*
G04 #@! TO.C,C3*
X122970000Y-57575000D03*
D26*
X122970000Y-50075000D03*
G04 #@! TD*
D31*
G04 #@! TO.C,D6*
X174760000Y-87775000D03*
D32*
X159520000Y-87775000D03*
G04 #@! TD*
D22*
G04 #@! TO.C,Q1*
X81175000Y-99560000D03*
D23*
X81175000Y-102100000D03*
X81175000Y-104640000D03*
G04 #@! TD*
D33*
G04 #@! TO.C,J10*
X185525000Y-58550000D03*
D34*
X185525000Y-61050000D03*
G04 #@! TD*
D26*
G04 #@! TO.C,L1*
X159570000Y-67925000D03*
X159570000Y-80125000D03*
G04 #@! TD*
D17*
G04 #@! TO.C,U2*
X142365000Y-119300000D03*
D18*
X139825000Y-119300000D03*
X137285000Y-119300000D03*
G04 #@! TD*
D25*
G04 #@! TO.C,C1*
X168820000Y-57552780D03*
D26*
X168820000Y-50052780D03*
G04 #@! TD*
D35*
G04 #@! TO.C,J9*
X75620000Y-84400000D03*
D21*
X75620000Y-90400000D03*
G04 #@! TD*
D14*
G04 #@! TO.C,REF\u002A\u002A*
X73406000Y-141224000D03*
G04 #@! TD*
D12*
G04 #@! TO.C,K4*
X93420000Y-104527500D03*
D13*
X99420000Y-102527500D03*
X99420000Y-90327500D03*
X87420000Y-90327500D03*
X87420000Y-102527500D03*
G04 #@! TD*
D26*
G04 #@! TO.C,R2*
X122145000Y-69725000D03*
D36*
X144545000Y-69725000D03*
G04 #@! TD*
D10*
G04 #@! TO.C,D9*
X138120000Y-97500000D03*
D11*
X135580000Y-97500000D03*
G04 #@! TD*
D14*
G04 #@! TO.C,REF\u002A\u002A*
X185420000Y-141224000D03*
G04 #@! TD*
D22*
G04 #@! TO.C,Q3*
X113320000Y-98780000D03*
D23*
X113320000Y-96240000D03*
X113320000Y-93700000D03*
G04 #@! TD*
D22*
G04 #@! TO.C,Q4*
X184105000Y-92035000D03*
D23*
X184105000Y-94575000D03*
X184105000Y-97115000D03*
G04 #@! TD*
D10*
G04 #@! TO.C,SW5*
X147045000Y-133000000D03*
D11*
X149585000Y-133000000D03*
G04 #@! TD*
D37*
G04 #@! TO.C,U5*
X174997500Y-126587500D03*
D38*
X174997500Y-129127500D03*
X174997500Y-131667500D03*
X174997500Y-134207500D03*
G04 #@! TD*
D15*
G04 #@! TO.C,U4*
X131820000Y-101900000D03*
D16*
X131820000Y-99360000D03*
X131820000Y-96820000D03*
X131820000Y-94280000D03*
X124200000Y-94280000D03*
X124200000Y-96820000D03*
X124200000Y-99360000D03*
X124200000Y-101900000D03*
G04 #@! TD*
D29*
G04 #@! TO.C,J6*
X182370000Y-68880000D03*
D30*
X182370000Y-71380000D03*
X182370000Y-73880000D03*
X182370000Y-76380000D03*
X182370000Y-78880000D03*
G04 #@! TD*
M02*
