%TF.GenerationSoftware,KiCad,Pcbnew,8.0.2-8.0.2-0~ubuntu24.04.1*%
%TF.CreationDate,2024-05-08T13:27:02+02:00*%
%TF.ProjectId,astrobox_power,61737472-6f62-46f7-985f-706f7765722e,3*%
%TF.SameCoordinates,Original*%
%TF.FileFunction,Soldermask,Bot*%
%TF.FilePolarity,Negative*%
%FSLAX46Y46*%
G04 Gerber Fmt 4.6, Leading zero omitted, Abs format (unit mm)*
G04 Created by KiCad (PCBNEW 8.0.2-8.0.2-0~ubuntu24.04.1) date 2024-05-08 13:27:02*
%MOMM*%
%LPD*%
G01*
G04 APERTURE LIST*
G04 Aperture macros list*
%AMRoundRect*
0 Rectangle with rounded corners*
0 $1 Rounding radius*
0 $2 $3 $4 $5 $6 $7 $8 $9 X,Y pos of 4 corners*
0 Add a 4 corners polygon primitive as box body*
4,1,4,$2,$3,$4,$5,$6,$7,$8,$9,$2,$3,0*
0 Add four circle primitives for the rounded corners*
1,1,$1+$1,$2,$3*
1,1,$1+$1,$4,$5*
1,1,$1+$1,$6,$7*
1,1,$1+$1,$8,$9*
0 Add four rect primitives between the rounded corners*
20,1,$1+$1,$2,$3,$4,$5,0*
20,1,$1+$1,$4,$5,$6,$7,0*
20,1,$1+$1,$6,$7,$8,$9,0*
20,1,$1+$1,$8,$9,$2,$3,0*%
G04 Aperture macros list end*
%ADD10R,1.700000X1.700000*%
%ADD11O,1.700000X1.700000*%
%ADD12R,2.500000X2.500000*%
%ADD13O,2.500000X2.500000*%
%ADD14C,6.400000*%
%ADD15R,1.600000X1.600000*%
%ADD16O,1.600000X1.600000*%
%ADD17R,1.905000X2.000000*%
%ADD18O,1.905000X2.000000*%
%ADD19C,2.340000*%
%ADD20RoundRect,0.249999X1.300001X1.300001X-1.300001X1.300001X-1.300001X-1.300001X1.300001X-1.300001X0*%
%ADD21C,3.100000*%
%ADD22RoundRect,0.249999X-1.300001X-1.300001X1.300001X-1.300001X1.300001X1.300001X-1.300001X1.300001X0*%
%ADD23R,2.400000X2.400000*%
%ADD24C,2.400000*%
%ADD25RoundRect,0.250000X0.675000X0.675000X-0.675000X0.675000X-0.675000X-0.675000X0.675000X-0.675000X0*%
%ADD26C,1.850000*%
%ADD27RoundRect,0.250000X-0.725000X0.600000X-0.725000X-0.600000X0.725000X-0.600000X0.725000X0.600000X0*%
%ADD28O,1.950000X1.700000*%
%ADD29R,3.200000X3.200000*%
%ADD30O,3.200000X3.200000*%
%ADD31R,2.000000X1.905000*%
%ADD32O,2.000000X1.905000*%
%ADD33RoundRect,0.250000X-0.750000X0.600000X-0.750000X-0.600000X0.750000X-0.600000X0.750000X0.600000X0*%
%ADD34O,2.000000X1.700000*%
%ADD35RoundRect,0.249999X-1.300001X1.300001X-1.300001X-1.300001X1.300001X-1.300001X1.300001X1.300001X0*%
%ADD36C,1.600000*%
%ADD37R,1.500000X1.500000*%
%ADD38C,1.500000*%
G04 APERTURE END LIST*
D10*
X138120000Y-92400000D03*
D11*
X135580000Y-92400000D03*
D12*
X81920000Y-130127500D03*
D13*
X87920000Y-128127500D03*
X87920000Y-115927500D03*
X75920000Y-115927500D03*
X75920000Y-128127500D03*
D14*
X162000000Y-46228000D03*
D15*
X122514200Y-69555200D03*
D16*
X122514200Y-72095200D03*
X122514200Y-74635200D03*
X122514200Y-77175200D03*
X130134200Y-77175200D03*
X130134200Y-74635200D03*
X130134200Y-72095200D03*
X130134200Y-69555200D03*
D17*
X127975000Y-119275000D03*
D18*
X125435000Y-119275000D03*
X122895000Y-119275000D03*
D15*
X75742800Y-108407200D03*
D16*
X75742800Y-100787200D03*
D14*
X73406000Y-46228000D03*
D15*
X153593800Y-89738200D03*
D16*
X145973800Y-89738200D03*
D19*
X148353000Y-95965000D03*
X150853000Y-105965000D03*
X153353000Y-95965000D03*
D20*
X99212400Y-135813800D03*
D21*
X93212400Y-135813800D03*
D17*
X129006600Y-83540600D03*
D18*
X126466600Y-83540600D03*
X123926600Y-83540600D03*
D12*
X104620000Y-130100000D03*
D13*
X110620000Y-128100000D03*
X110620000Y-115900000D03*
X98620000Y-115900000D03*
X98620000Y-128100000D03*
D22*
X110675000Y-106150000D03*
D12*
X105614600Y-71470000D03*
D13*
X103614600Y-65470000D03*
X91414600Y-65470000D03*
X91414600Y-77470000D03*
X103614600Y-77470000D03*
D15*
X158836200Y-122417600D03*
D16*
X158836200Y-124957600D03*
X158836200Y-127497600D03*
X166456200Y-127497600D03*
X166456200Y-124957600D03*
X166456200Y-122417600D03*
D23*
X127584200Y-56182780D03*
D24*
X127584200Y-48682780D03*
D25*
X125820000Y-133000000D03*
D26*
X121620000Y-133000000D03*
D23*
X85949400Y-56260600D03*
D24*
X85949400Y-48760600D03*
D27*
X79075000Y-66125000D03*
D28*
X79075000Y-68625000D03*
X79075000Y-71125000D03*
X79075000Y-73625000D03*
D23*
X106680000Y-56184800D03*
D24*
X106680000Y-48684800D03*
D29*
X161721800Y-83642200D03*
D30*
X146481800Y-83642200D03*
D31*
X81175000Y-99560000D03*
D32*
X81175000Y-102100000D03*
X81175000Y-104640000D03*
D33*
X164710600Y-56484200D03*
D34*
X164710600Y-58984200D03*
D10*
X137668000Y-110464600D03*
D11*
X137668000Y-107924600D03*
X140208000Y-110464600D03*
X140208000Y-107924600D03*
X142748000Y-110464600D03*
X142748000Y-107924600D03*
D24*
X144221200Y-65121600D03*
X144221200Y-77321600D03*
D17*
X142365000Y-119300000D03*
D18*
X139825000Y-119300000D03*
X137285000Y-119300000D03*
D23*
X148463000Y-56182780D03*
D24*
X148463000Y-48682780D03*
D35*
X75620000Y-84400000D03*
D21*
X75620000Y-90400000D03*
D14*
X73406000Y-135000000D03*
D12*
X93420000Y-104527500D03*
D13*
X99420000Y-102527500D03*
X99420000Y-90327500D03*
X87420000Y-90327500D03*
X87420000Y-102527500D03*
D36*
X110210600Y-65201800D03*
D16*
X120370600Y-65201800D03*
D10*
X138120000Y-97500000D03*
D11*
X135580000Y-97500000D03*
D14*
X162000000Y-135000000D03*
D31*
X113320000Y-98780000D03*
D32*
X113320000Y-96240000D03*
X113320000Y-93700000D03*
D31*
X163550600Y-107086400D03*
D32*
X163550600Y-109626400D03*
X163550600Y-112166400D03*
D10*
X147045000Y-133000000D03*
D11*
X149585000Y-133000000D03*
D37*
X154427900Y-125979900D03*
D38*
X154427900Y-128519900D03*
X154427900Y-131059900D03*
X154427900Y-133599900D03*
D15*
X131820000Y-101900000D03*
D16*
X131820000Y-99360000D03*
X131820000Y-96820000D03*
X131820000Y-94280000D03*
X124200000Y-94280000D03*
X124200000Y-96820000D03*
X124200000Y-99360000D03*
X124200000Y-101900000D03*
D27*
X164710600Y-66272400D03*
D28*
X164710600Y-68772400D03*
X164710600Y-71272400D03*
X164710600Y-73772400D03*
X164710600Y-76272400D03*
M02*
