M48
INCH,TZ
T1C0.0315
T2C0.0374
T3C0.0394
T4C0.0433
T5C0.0472
T6C0.1063
T7C0.1260
%
G90
G05
T1
X25571Y-18789
X25571Y-20758
X27549Y-18789
X27549Y-20758
X40787Y-21565
X40807Y-19026
X42756Y-21565
X42776Y-19026
T2
X31216Y-14520
X32200Y-14520
X33184Y-14520
X34169Y-14520
X35153Y-14520
X40272Y-14533
X41256Y-14533
X42241Y-14533
X43225Y-14533
X44209Y-14533
T3
X26400Y-27050
X26400Y-28050
X27400Y-27050
X27400Y-28050
X28400Y-27050
X28400Y-28050
X29400Y-27050
X29400Y-28050
X30400Y-27050
X30400Y-28050
X31400Y-27050
X31400Y-28050
X32400Y-27050
X32400Y-28050
X33400Y-27050
X33400Y-28050
X34400Y-27050
X34400Y-28050
X35100Y-23450
X35400Y-27050
X35400Y-28050
X36100Y-23450
X36400Y-27050
X36400Y-28050
X37100Y-23450
X37400Y-27050
X37400Y-28050
X38400Y-27050
X38400Y-28050
X39400Y-27050
X39400Y-28050
X40400Y-27050
X40400Y-28050
X41400Y-27050
X41400Y-28050
X42400Y-27050
X42400Y-28050
X43400Y-27050
X43400Y-28050
X44400Y-27050
X44400Y-28050
X45400Y-27050
X45400Y-28050
X47300Y-17050
X47526Y-21845
X47526Y-22845
X47526Y-23845
X47526Y-24845
X48300Y-17050
X49300Y-17050
X50300Y-17050
X51300Y-17050
X52300Y-17050
X53300Y-17050
X54300Y-17050
X55300Y-17050
X56300Y-17050
X60973Y-29263
X60973Y-30263
X60973Y-31263
X60973Y-32263
X60973Y-33263
X61000Y-37450
X61000Y-38450
X61000Y-39450
X61000Y-40450
X61000Y-41450
X61973Y-29263
X61973Y-30263
X61973Y-31263
X61973Y-32263
X61973Y-33263
X62000Y-37450
X62000Y-38450
X62000Y-39450
X62000Y-40450
X62000Y-41450
T4
X25949Y-22423
X26949Y-22423
X27949Y-22423
X44303Y-19443
X44303Y-20443
X44303Y-21443
T5
X35100Y-17347
X35100Y-22150
T6
X27265Y-30356
X27265Y-49647
X50100Y-30356
X50100Y-49647
T7
X25591Y-13780
X25591Y-52362
X61024Y-13780
X61024Y-52362
M30
