%TF.GenerationSoftware,KiCad,Pcbnew,8.0.2-8.0.2-0~ubuntu24.04.1*%
%TF.CreationDate,2024-05-08T14:11:34+02:00*%
%TF.ProjectId,astrobox_radio_input,61737472-6f62-46f7-985f-726164696f5f,1*%
%TF.SameCoordinates,Original*%
%TF.FileFunction,Soldermask,Bot*%
%TF.FilePolarity,Negative*%
%FSLAX46Y46*%
G04 Gerber Fmt 4.6, Leading zero omitted, Abs format (unit mm)*
G04 Created by KiCad (PCBNEW 8.0.2-8.0.2-0~ubuntu24.04.1) date 2024-05-08 14:11:34*
%MOMM*%
%LPD*%
G01*
G04 APERTURE LIST*
G04 Aperture macros list*
%AMRoundRect*
0 Rectangle with rounded corners*
0 $1 Rounding radius*
0 $2 $3 $4 $5 $6 $7 $8 $9 X,Y pos of 4 corners*
0 Add a 4 corners polygon primitive as box body*
4,1,4,$2,$3,$4,$5,$6,$7,$8,$9,$2,$3,0*
0 Add four circle primitives for the rounded corners*
1,1,$1+$1,$2,$3*
1,1,$1+$1,$4,$5*
1,1,$1+$1,$6,$7*
1,1,$1+$1,$8,$9*
0 Add four rect primitives between the rounded corners*
20,1,$1+$1,$2,$3,$4,$5,0*
20,1,$1+$1,$4,$5,$6,$7,0*
20,1,$1+$1,$6,$7,$8,$9,0*
20,1,$1+$1,$8,$9,$2,$3,0*%
G04 Aperture macros list end*
%ADD10R,1.700000X1.700000*%
%ADD11O,1.700000X1.700000*%
%ADD12C,6.400000*%
%ADD13C,2.400000*%
%ADD14RoundRect,0.250000X0.600000X0.725000X-0.600000X0.725000X-0.600000X-0.725000X0.600000X-0.725000X0*%
%ADD15O,1.700000X1.950000*%
%ADD16C,1.600000*%
%ADD17R,1.905000X2.000000*%
%ADD18O,1.905000X2.000000*%
%ADD19R,2.000000X1.905000*%
%ADD20O,2.000000X1.905000*%
G04 APERTURE END LIST*
D10*
X67056000Y-71247000D03*
D11*
X67056000Y-68707000D03*
X69596000Y-71247000D03*
X69596000Y-68707000D03*
X72136000Y-71247000D03*
X72136000Y-68707000D03*
X74676000Y-71247000D03*
X74676000Y-68707000D03*
X77216000Y-71247000D03*
X77216000Y-68707000D03*
X79756000Y-71247000D03*
X79756000Y-68707000D03*
X82296000Y-71247000D03*
X82296000Y-68707000D03*
X84836000Y-71247000D03*
X84836000Y-68707000D03*
X87376000Y-71247000D03*
X87376000Y-68707000D03*
X89916000Y-71247000D03*
X89916000Y-68707000D03*
X92456000Y-71247000D03*
X92456000Y-68707000D03*
X94996000Y-71247000D03*
X94996000Y-68707000D03*
X97536000Y-71247000D03*
X97536000Y-68707000D03*
X100076000Y-71247000D03*
X100076000Y-68707000D03*
X102616000Y-71247000D03*
X102616000Y-68707000D03*
X105156000Y-71247000D03*
X105156000Y-68707000D03*
X107696000Y-71247000D03*
X107696000Y-68707000D03*
X110236000Y-71247000D03*
X110236000Y-68707000D03*
X112776000Y-71247000D03*
X112776000Y-68707000D03*
X115316000Y-71247000D03*
X115316000Y-68707000D03*
D12*
X155000000Y-78000000D03*
X65000000Y-35000000D03*
D13*
X89154000Y-44061000D03*
X89154000Y-56261000D03*
D14*
X89288000Y-36880000D03*
D15*
X86788000Y-36880000D03*
X84288000Y-36880000D03*
X81788000Y-36880000D03*
X79288000Y-36880000D03*
D10*
X120716000Y-63107000D03*
D11*
X120716000Y-60567000D03*
X120716000Y-58027000D03*
X120716000Y-55487000D03*
D10*
X143002000Y-43307000D03*
D11*
X140462000Y-43307000D03*
X137922000Y-43307000D03*
X135382000Y-43307000D03*
X132842000Y-43307000D03*
X130302000Y-43307000D03*
X127762000Y-43307000D03*
X125222000Y-43307000D03*
X122682000Y-43307000D03*
X120142000Y-43307000D03*
D12*
X155000000Y-35000000D03*
D14*
X112291000Y-36913381D03*
D15*
X109791000Y-36913381D03*
X107291000Y-36913381D03*
X104791000Y-36913381D03*
X102291000Y-36913381D03*
D16*
X64950000Y-52725000D03*
X64950000Y-47725000D03*
X69975000Y-47725000D03*
X69975000Y-52725000D03*
D17*
X70990000Y-56955000D03*
D18*
X68450000Y-56955000D03*
X65910000Y-56955000D03*
D12*
X65000000Y-78000000D03*
D10*
X89154000Y-59563000D03*
D11*
X91694000Y-59563000D03*
X94234000Y-59563000D03*
D19*
X112530000Y-49385000D03*
D20*
X112530000Y-51925000D03*
X112530000Y-54465000D03*
D10*
X144907000Y-74676000D03*
D11*
X144907000Y-77216000D03*
X142367000Y-74676000D03*
X142367000Y-77216000D03*
X139827000Y-74676000D03*
X139827000Y-77216000D03*
X137287000Y-74676000D03*
X137287000Y-77216000D03*
X134747000Y-74676000D03*
X134747000Y-77216000D03*
D10*
X129895600Y-74676000D03*
D11*
X129895600Y-77216000D03*
X127355600Y-74676000D03*
X127355600Y-77216000D03*
X124815600Y-74676000D03*
X124815600Y-77216000D03*
X122275600Y-74676000D03*
X122275600Y-77216000D03*
X119735600Y-74676000D03*
X119735600Y-77216000D03*
D16*
X108600000Y-54775000D03*
X103600000Y-54775000D03*
X103650000Y-48325000D03*
X108650000Y-48325000D03*
M02*
