%TF.GenerationSoftware,KiCad,Pcbnew,8.0.2-8.0.2-0~ubuntu24.04.1*%
%TF.CreationDate,2024-05-08T14:11:34+02:00*%
%TF.ProjectId,astrobox_radio_input,61737472-6f62-46f7-985f-726164696f5f,1*%
%TF.SameCoordinates,Original*%
%TF.FileFunction,Copper,L2,Bot*%
%TF.FilePolarity,Positive*%
%FSLAX46Y46*%
G04 Gerber Fmt 4.6, Leading zero omitted, Abs format (unit mm)*
G04 Created by KiCad (PCBNEW 8.0.2-8.0.2-0~ubuntu24.04.1) date 2024-05-08 14:11:34*
%MOMM*%
%LPD*%
G01*
G04 APERTURE LIST*
G04 Aperture macros list*
%AMRoundRect*
0 Rectangle with rounded corners*
0 $1 Rounding radius*
0 $2 $3 $4 $5 $6 $7 $8 $9 X,Y pos of 4 corners*
0 Add a 4 corners polygon primitive as box body*
4,1,4,$2,$3,$4,$5,$6,$7,$8,$9,$2,$3,0*
0 Add four circle primitives for the rounded corners*
1,1,$1+$1,$2,$3*
1,1,$1+$1,$4,$5*
1,1,$1+$1,$6,$7*
1,1,$1+$1,$8,$9*
0 Add four rect primitives between the rounded corners*
20,1,$1+$1,$2,$3,$4,$5,0*
20,1,$1+$1,$4,$5,$6,$7,0*
20,1,$1+$1,$6,$7,$8,$9,0*
20,1,$1+$1,$8,$9,$2,$3,0*%
G04 Aperture macros list end*
%TA.AperFunction,ComponentPad*%
%ADD10R,1.700000X1.700000*%
%TD*%
%TA.AperFunction,ComponentPad*%
%ADD11O,1.700000X1.700000*%
%TD*%
%TA.AperFunction,ComponentPad*%
%ADD12C,6.400000*%
%TD*%
%TA.AperFunction,ComponentPad*%
%ADD13C,2.400000*%
%TD*%
%TA.AperFunction,ComponentPad*%
%ADD14RoundRect,0.250000X0.600000X0.725000X-0.600000X0.725000X-0.600000X-0.725000X0.600000X-0.725000X0*%
%TD*%
%TA.AperFunction,ComponentPad*%
%ADD15O,1.700000X1.950000*%
%TD*%
%TA.AperFunction,ComponentPad*%
%ADD16C,1.600000*%
%TD*%
%TA.AperFunction,ComponentPad*%
%ADD17R,1.905000X2.000000*%
%TD*%
%TA.AperFunction,ComponentPad*%
%ADD18O,1.905000X2.000000*%
%TD*%
%TA.AperFunction,ComponentPad*%
%ADD19R,2.000000X1.905000*%
%TD*%
%TA.AperFunction,ComponentPad*%
%ADD20O,2.000000X1.905000*%
%TD*%
%TA.AperFunction,Conductor*%
%ADD21C,0.600000*%
%TD*%
%TA.AperFunction,Conductor*%
%ADD22C,0.200000*%
%TD*%
G04 APERTURE END LIST*
D10*
X67056000Y-71247000D03*
D11*
X67056000Y-68707000D03*
X69596000Y-71247000D03*
X69596000Y-68707000D03*
X72136000Y-71247000D03*
X72136000Y-68707000D03*
X74676000Y-71247000D03*
X74676000Y-68707000D03*
X77216000Y-71247000D03*
X77216000Y-68707000D03*
X79756000Y-71247000D03*
X79756000Y-68707000D03*
X82296000Y-71247000D03*
X82296000Y-68707000D03*
X84836000Y-71247000D03*
X84836000Y-68707000D03*
X87376000Y-71247000D03*
X87376000Y-68707000D03*
X89916000Y-71247000D03*
X89916000Y-68707000D03*
X92456000Y-71247000D03*
X92456000Y-68707000D03*
X94996000Y-71247000D03*
X94996000Y-68707000D03*
X97536000Y-71247000D03*
X97536000Y-68707000D03*
X100076000Y-71247000D03*
X100076000Y-68707000D03*
X102616000Y-71247000D03*
X102616000Y-68707000D03*
X105156000Y-71247000D03*
X105156000Y-68707000D03*
X107696000Y-71247000D03*
X107696000Y-68707000D03*
X110236000Y-71247000D03*
X110236000Y-68707000D03*
X112776000Y-71247000D03*
X112776000Y-68707000D03*
X115316000Y-71247000D03*
X115316000Y-68707000D03*
D12*
X155000000Y-78000000D03*
X65000000Y-35000000D03*
D13*
X89154000Y-44061000D03*
X89154000Y-56261000D03*
D14*
X89288000Y-36880000D03*
D15*
X86788000Y-36880000D03*
X84288000Y-36880000D03*
X81788000Y-36880000D03*
X79288000Y-36880000D03*
D10*
X120716000Y-63107000D03*
D11*
X120716000Y-60567000D03*
X120716000Y-58027000D03*
X120716000Y-55487000D03*
D10*
X143002000Y-43307000D03*
D11*
X140462000Y-43307000D03*
X137922000Y-43307000D03*
X135382000Y-43307000D03*
X132842000Y-43307000D03*
X130302000Y-43307000D03*
X127762000Y-43307000D03*
X125222000Y-43307000D03*
X122682000Y-43307000D03*
X120142000Y-43307000D03*
D12*
X155000000Y-35000000D03*
D14*
X112291000Y-36913381D03*
D15*
X109791000Y-36913381D03*
X107291000Y-36913381D03*
X104791000Y-36913381D03*
X102291000Y-36913381D03*
D16*
X64950000Y-52725000D03*
X64950000Y-47725000D03*
X69975000Y-47725000D03*
X69975000Y-52725000D03*
D17*
X70990000Y-56955000D03*
D18*
X68450000Y-56955000D03*
X65910000Y-56955000D03*
D12*
X65000000Y-78000000D03*
D10*
X89154000Y-59563000D03*
D11*
X91694000Y-59563000D03*
X94234000Y-59563000D03*
D19*
X112530000Y-49385000D03*
D20*
X112530000Y-51925000D03*
X112530000Y-54465000D03*
D10*
X144907000Y-74676000D03*
D11*
X144907000Y-77216000D03*
X142367000Y-74676000D03*
X142367000Y-77216000D03*
X139827000Y-74676000D03*
X139827000Y-77216000D03*
X137287000Y-74676000D03*
X137287000Y-77216000D03*
X134747000Y-74676000D03*
X134747000Y-77216000D03*
D10*
X129895600Y-74676000D03*
D11*
X129895600Y-77216000D03*
X127355600Y-74676000D03*
X127355600Y-77216000D03*
X124815600Y-74676000D03*
X124815600Y-77216000D03*
X122275600Y-74676000D03*
X122275600Y-77216000D03*
X119735600Y-74676000D03*
X119735600Y-77216000D03*
D16*
X108600000Y-54775000D03*
X103600000Y-54775000D03*
X103650000Y-48325000D03*
X108650000Y-48325000D03*
D21*
X131470400Y-77216000D02*
X132511800Y-76174600D01*
X132511800Y-73355200D02*
X135825000Y-70042000D01*
X124815600Y-77216000D02*
X127355600Y-77216000D01*
X135825000Y-70042000D02*
X135825000Y-70002400D01*
X108600000Y-54775000D02*
X112220000Y-54775000D01*
X115175000Y-53475000D02*
X114185000Y-54465000D01*
X122275600Y-77216000D02*
X124815600Y-77216000D01*
X132511800Y-76174600D02*
X132511800Y-73355200D01*
X127355600Y-77216000D02*
X129895600Y-77216000D01*
X112220000Y-54775000D02*
X112530000Y-54465000D01*
X129895600Y-77216000D02*
X131470400Y-77216000D01*
X114185000Y-54465000D02*
X112530000Y-54465000D01*
X135825000Y-47750000D02*
X140225000Y-47750000D01*
X115175000Y-47750000D02*
X115175000Y-53475000D01*
X140225000Y-47750000D02*
X143002000Y-44973000D01*
X112291000Y-36913381D02*
X112291000Y-44866000D01*
X112291000Y-44866000D02*
X115175000Y-47750000D01*
X135825000Y-70002400D02*
X135825000Y-47750000D01*
X115175000Y-47750000D02*
X135825000Y-47750000D01*
X119735600Y-77216000D02*
X122275600Y-77216000D01*
X143002000Y-44973000D02*
X143002000Y-43307000D01*
X109791000Y-47184000D02*
X108650000Y-48325000D01*
X96425000Y-44800000D02*
X94192500Y-47032500D01*
X70990000Y-54025000D02*
X70990000Y-53740000D01*
X86788000Y-38227000D02*
X77982500Y-47032500D01*
X86788000Y-36880000D02*
X86788000Y-38227000D01*
X70990000Y-53740000D02*
X69975000Y-52725000D01*
X94192500Y-47032500D02*
X77982500Y-47032500D01*
X109791000Y-36913381D02*
X109791000Y-44800000D01*
X108650000Y-48325000D02*
X111470000Y-48325000D01*
X77982500Y-47032500D02*
X70990000Y-54025000D01*
X109791000Y-44800000D02*
X109791000Y-47184000D01*
X109791000Y-44800000D02*
X96425000Y-44800000D01*
X70990000Y-56955000D02*
X70990000Y-54025000D01*
X111470000Y-48325000D02*
X112530000Y-49385000D01*
X89154000Y-59563000D02*
X89154000Y-56261000D01*
X89288000Y-43927000D02*
X89154000Y-44061000D01*
X89288000Y-36880000D02*
X89288000Y-43927000D01*
X123500000Y-56875000D02*
X123500000Y-69175000D01*
X87850000Y-74050000D02*
X87376000Y-73576000D01*
X122112000Y-55487000D02*
X123500000Y-56875000D01*
X118625000Y-74050000D02*
X87850000Y-74050000D01*
X87376000Y-73576000D02*
X87376000Y-71247000D01*
X123500000Y-69175000D02*
X118625000Y-74050000D01*
X120716000Y-55487000D02*
X122112000Y-55487000D01*
D22*
X129525000Y-32425000D02*
X99775000Y-32425000D01*
X135382000Y-43307000D02*
X135382000Y-38282000D01*
X70320000Y-36880000D02*
X79288000Y-36880000D01*
X69596000Y-71247000D02*
X68374000Y-70025000D01*
X102291000Y-34941000D02*
X102291000Y-36913381D01*
X99775000Y-32425000D02*
X102291000Y-34941000D01*
X79288000Y-36880000D02*
X79288000Y-34487000D01*
X135382000Y-38282000D02*
X129525000Y-32425000D01*
X81350000Y-32425000D02*
X99775000Y-32425000D01*
X66747654Y-70025000D02*
X62375000Y-65652346D01*
X62375000Y-44825000D02*
X70320000Y-36880000D01*
X79288000Y-34487000D02*
X81350000Y-32425000D01*
X62375000Y-65652346D02*
X62375000Y-44825000D01*
X68374000Y-70025000D02*
X66747654Y-70025000D01*
X81788000Y-34812000D02*
X83150000Y-33450000D01*
X137287000Y-74676000D02*
X139827000Y-74676000D01*
X137922000Y-43307000D02*
X137922000Y-44953000D01*
X101700000Y-38875000D02*
X104275000Y-38875000D01*
X137922000Y-44953000D02*
X137250000Y-45625000D01*
X83150000Y-33450000D02*
X99675000Y-33450000D01*
X104791000Y-35709000D02*
X104791000Y-36913381D01*
X137922000Y-40603000D02*
X137922000Y-43307000D01*
X142367000Y-74676000D02*
X144907000Y-74676000D01*
X104275000Y-38875000D02*
X104791000Y-38359000D01*
X143404600Y-39925000D02*
X138600000Y-39925000D01*
X100450000Y-37625000D02*
X101700000Y-38875000D01*
X138600000Y-39925000D02*
X137922000Y-40603000D01*
X139827000Y-74676000D02*
X142367000Y-74676000D01*
X81788000Y-36880000D02*
X81788000Y-34812000D01*
X134747000Y-74676000D02*
X137287000Y-74676000D01*
X131452000Y-44102000D02*
X131452000Y-42752000D01*
X104791000Y-38359000D02*
X104791000Y-36913381D01*
X137250000Y-45625000D02*
X132975000Y-45625000D01*
X144907000Y-41427400D02*
X143404600Y-39925000D01*
X122575000Y-33875000D02*
X106625000Y-33875000D01*
X131452000Y-42752000D02*
X122575000Y-33875000D01*
X132975000Y-45625000D02*
X131452000Y-44102000D01*
X100450000Y-34225000D02*
X100450000Y-37625000D01*
X144907000Y-74676000D02*
X144907000Y-41427400D01*
X99675000Y-33450000D02*
X100450000Y-34225000D01*
X106625000Y-33875000D02*
X104791000Y-35709000D01*
X120716000Y-58027000D02*
X119198000Y-58027000D01*
X78658000Y-64725000D02*
X74676000Y-68707000D01*
X119198000Y-58027000D02*
X112500000Y-64725000D01*
X112500000Y-64725000D02*
X78658000Y-64725000D01*
X112900000Y-65850000D02*
X80073000Y-65850000D01*
X120716000Y-60567000D02*
X118183000Y-60567000D01*
X118183000Y-60567000D02*
X112900000Y-65850000D01*
X80073000Y-65850000D02*
X77216000Y-68707000D01*
D21*
X65910000Y-53685000D02*
X64950000Y-52725000D01*
X65910000Y-56955000D02*
X65910000Y-53685000D01*
X65910000Y-67561000D02*
X67056000Y-68707000D01*
X67056000Y-68707000D02*
X69596000Y-68707000D01*
X65910000Y-56955000D02*
X65910000Y-67561000D01*
%TA.AperFunction,Conductor*%
G36*
X108933539Y-45620185D02*
G01*
X108979294Y-45672989D01*
X108990500Y-45724500D01*
X108990500Y-46801059D01*
X108970815Y-46868098D01*
X108954181Y-46888741D01*
X108850326Y-46992595D01*
X108789003Y-47026079D01*
X108751838Y-47028441D01*
X108650002Y-47019532D01*
X108649998Y-47019532D01*
X108423313Y-47039364D01*
X108423302Y-47039366D01*
X108203511Y-47098258D01*
X108203502Y-47098261D01*
X107997267Y-47194431D01*
X107997265Y-47194432D01*
X107810858Y-47324954D01*
X107649954Y-47485858D01*
X107519432Y-47672265D01*
X107519431Y-47672267D01*
X107423261Y-47878502D01*
X107423258Y-47878511D01*
X107364366Y-48098302D01*
X107364364Y-48098313D01*
X107344532Y-48324998D01*
X107344532Y-48325001D01*
X107364364Y-48551686D01*
X107364366Y-48551697D01*
X107423258Y-48771488D01*
X107423261Y-48771497D01*
X107519431Y-48977732D01*
X107519432Y-48977734D01*
X107649954Y-49164141D01*
X107810858Y-49325045D01*
X107810861Y-49325047D01*
X107997266Y-49455568D01*
X108203504Y-49551739D01*
X108423308Y-49610635D01*
X108585230Y-49624801D01*
X108649998Y-49630468D01*
X108650000Y-49630468D01*
X108650002Y-49630468D01*
X108706673Y-49625509D01*
X108876692Y-49610635D01*
X109096496Y-49551739D01*
X109302734Y-49455568D01*
X109489139Y-49325047D01*
X109564686Y-49249500D01*
X109652368Y-49161819D01*
X109713691Y-49128334D01*
X109740049Y-49125500D01*
X110905500Y-49125500D01*
X110972539Y-49145185D01*
X111018294Y-49197989D01*
X111029500Y-49249500D01*
X111029500Y-50385370D01*
X111029501Y-50385376D01*
X111035908Y-50444983D01*
X111086202Y-50579828D01*
X111086206Y-50579835D01*
X111172452Y-50695044D01*
X111172455Y-50695047D01*
X111287664Y-50781293D01*
X111287667Y-50781295D01*
X111287668Y-50781295D01*
X111287669Y-50781296D01*
X111316025Y-50791872D01*
X111371958Y-50833742D01*
X111396376Y-50899206D01*
X111381525Y-50967479D01*
X111373010Y-50980939D01*
X111240213Y-51163719D01*
X111136417Y-51367429D01*
X111065765Y-51584871D01*
X111051491Y-51675000D01*
X112039252Y-51675000D01*
X112017482Y-51712708D01*
X111980000Y-51852591D01*
X111980000Y-51997409D01*
X112017482Y-52137292D01*
X112039252Y-52175000D01*
X111051491Y-52175000D01*
X111065765Y-52265128D01*
X111136417Y-52482570D01*
X111240211Y-52686276D01*
X111374597Y-52871242D01*
X111536257Y-53032902D01*
X111536263Y-53032907D01*
X111620863Y-53094372D01*
X111663529Y-53149701D01*
X111669508Y-53219315D01*
X111636903Y-53281110D01*
X111620864Y-53295007D01*
X111535940Y-53356709D01*
X111535931Y-53356716D01*
X111374216Y-53518431D01*
X111374216Y-53518432D01*
X111374214Y-53518434D01*
X111341006Y-53564141D01*
X111239783Y-53703461D01*
X111203356Y-53774954D01*
X111162993Y-53854172D01*
X111136180Y-53906795D01*
X111088206Y-53957591D01*
X111025695Y-53974500D01*
X109690049Y-53974500D01*
X109623010Y-53954815D01*
X109602368Y-53938181D01*
X109439141Y-53774954D01*
X109252734Y-53644432D01*
X109252732Y-53644431D01*
X109046497Y-53548261D01*
X109046488Y-53548258D01*
X108826697Y-53489366D01*
X108826693Y-53489365D01*
X108826692Y-53489365D01*
X108826691Y-53489364D01*
X108826686Y-53489364D01*
X108600002Y-53469532D01*
X108599998Y-53469532D01*
X108373313Y-53489364D01*
X108373302Y-53489366D01*
X108153511Y-53548258D01*
X108153502Y-53548261D01*
X107947267Y-53644431D01*
X107947265Y-53644432D01*
X107760858Y-53774954D01*
X107599954Y-53935858D01*
X107469432Y-54122265D01*
X107469431Y-54122267D01*
X107373261Y-54328502D01*
X107373258Y-54328511D01*
X107314366Y-54548302D01*
X107314364Y-54548313D01*
X107294532Y-54774998D01*
X107294532Y-54775001D01*
X107314364Y-55001686D01*
X107314366Y-55001697D01*
X107373258Y-55221488D01*
X107373261Y-55221497D01*
X107469431Y-55427732D01*
X107469432Y-55427734D01*
X107599954Y-55614141D01*
X107760858Y-55775045D01*
X107760861Y-55775047D01*
X107947266Y-55905568D01*
X108153504Y-56001739D01*
X108373308Y-56060635D01*
X108535230Y-56074801D01*
X108599998Y-56080468D01*
X108600000Y-56080468D01*
X108600002Y-56080468D01*
X108656673Y-56075509D01*
X108826692Y-56060635D01*
X109046496Y-56001739D01*
X109252734Y-55905568D01*
X109439139Y-55775047D01*
X109517238Y-55696948D01*
X109602368Y-55611819D01*
X109663691Y-55578334D01*
X109690049Y-55575500D01*
X111498691Y-55575500D01*
X111565730Y-55595185D01*
X111571567Y-55599175D01*
X111720962Y-55707717D01*
X111898174Y-55798011D01*
X111924744Y-55811549D01*
X112142251Y-55882221D01*
X112142252Y-55882221D01*
X112142255Y-55882222D01*
X112368146Y-55918000D01*
X112368147Y-55918000D01*
X112691853Y-55918000D01*
X112691854Y-55918000D01*
X112917745Y-55882222D01*
X112917748Y-55882221D01*
X112917749Y-55882221D01*
X113135255Y-55811549D01*
X113135255Y-55811548D01*
X113135258Y-55811548D01*
X113339038Y-55707717D01*
X113524066Y-55573286D01*
X113685786Y-55411566D01*
X113754772Y-55316615D01*
X113810102Y-55273949D01*
X113855090Y-55265500D01*
X114263844Y-55265500D01*
X114263845Y-55265499D01*
X114418497Y-55234737D01*
X114564179Y-55174394D01*
X114695289Y-55086789D01*
X115796788Y-53985290D01*
X115804668Y-53973497D01*
X115884394Y-53854179D01*
X115944737Y-53708497D01*
X115947370Y-53695263D01*
X115975500Y-53553843D01*
X115975500Y-53396158D01*
X115975500Y-48674500D01*
X115995185Y-48607461D01*
X116047989Y-48561706D01*
X116099500Y-48550500D01*
X134900500Y-48550500D01*
X134967539Y-48570185D01*
X135013294Y-48622989D01*
X135024500Y-48674500D01*
X135024500Y-69659060D01*
X135004815Y-69726099D01*
X134988181Y-69746741D01*
X132001511Y-72733411D01*
X131945760Y-72789162D01*
X131890009Y-72844912D01*
X131802409Y-72976014D01*
X131802402Y-72976027D01*
X131742064Y-73121698D01*
X131742061Y-73121710D01*
X131711300Y-73276353D01*
X131711300Y-75791660D01*
X131691615Y-75858699D01*
X131674981Y-75879341D01*
X131175141Y-76379181D01*
X131113818Y-76412666D01*
X131087460Y-76415500D01*
X131048291Y-76415500D01*
X130981252Y-76395815D01*
X130946716Y-76362624D01*
X130934095Y-76344599D01*
X130811779Y-76222283D01*
X130778296Y-76160963D01*
X130783280Y-76091271D01*
X130825151Y-76035337D01*
X130856129Y-76018422D01*
X130987686Y-75969354D01*
X130987693Y-75969350D01*
X131102787Y-75883190D01*
X131102790Y-75883187D01*
X131188950Y-75768093D01*
X131188954Y-75768086D01*
X131239196Y-75633379D01*
X131239198Y-75633372D01*
X131245599Y-75573844D01*
X131245600Y-75573827D01*
X131245600Y-74926000D01*
X130328612Y-74926000D01*
X130361525Y-74868993D01*
X130395600Y-74741826D01*
X130395600Y-74610174D01*
X130361525Y-74483007D01*
X130328612Y-74426000D01*
X131245600Y-74426000D01*
X131245600Y-73778172D01*
X131245599Y-73778155D01*
X131239198Y-73718627D01*
X131239196Y-73718620D01*
X131188954Y-73583913D01*
X131188950Y-73583906D01*
X131102790Y-73468812D01*
X131102787Y-73468809D01*
X130987693Y-73382649D01*
X130987686Y-73382645D01*
X130852979Y-73332403D01*
X130852972Y-73332401D01*
X130793444Y-73326000D01*
X130145600Y-73326000D01*
X130145600Y-74242988D01*
X130088593Y-74210075D01*
X129961426Y-74176000D01*
X129829774Y-74176000D01*
X129702607Y-74210075D01*
X129645600Y-74242988D01*
X129645600Y-73326000D01*
X128997755Y-73326000D01*
X128938227Y-73332401D01*
X128938220Y-73332403D01*
X128803513Y-73382645D01*
X128803506Y-73382649D01*
X128688412Y-73468809D01*
X128688409Y-73468812D01*
X128602249Y-73583906D01*
X128602246Y-73583911D01*
X128552985Y-73715987D01*
X128511113Y-73771920D01*
X128445649Y-73796337D01*
X128377376Y-73781485D01*
X128349122Y-73760334D01*
X128226682Y-73637894D01*
X128033178Y-73502399D01*
X127819092Y-73402570D01*
X127819086Y-73402567D01*
X127605600Y-73345364D01*
X127605600Y-74242988D01*
X127548593Y-74210075D01*
X127421426Y-74176000D01*
X127289774Y-74176000D01*
X127162607Y-74210075D01*
X127105600Y-74242988D01*
X127105600Y-73345364D01*
X127105599Y-73345364D01*
X126892113Y-73402567D01*
X126892107Y-73402570D01*
X126678022Y-73502399D01*
X126678020Y-73502400D01*
X126484526Y-73637886D01*
X126484520Y-73637891D01*
X126317491Y-73804920D01*
X126317490Y-73804922D01*
X126187175Y-73991031D01*
X126132598Y-74034655D01*
X126063099Y-74041848D01*
X126000745Y-74010326D01*
X125984025Y-73991031D01*
X125853709Y-73804922D01*
X125853708Y-73804920D01*
X125686682Y-73637894D01*
X125493178Y-73502399D01*
X125279092Y-73402570D01*
X125279086Y-73402567D01*
X125065600Y-73345364D01*
X125065600Y-74242988D01*
X125008593Y-74210075D01*
X124881426Y-74176000D01*
X124749774Y-74176000D01*
X124622607Y-74210075D01*
X124565600Y-74242988D01*
X124565600Y-73345364D01*
X124565599Y-73345364D01*
X124352113Y-73402567D01*
X124352107Y-73402570D01*
X124138022Y-73502399D01*
X124138020Y-73502400D01*
X123944526Y-73637886D01*
X123944520Y-73637891D01*
X123777491Y-73804920D01*
X123777490Y-73804922D01*
X123647175Y-73991031D01*
X123592598Y-74034655D01*
X123523099Y-74041848D01*
X123460745Y-74010326D01*
X123444025Y-73991031D01*
X123313709Y-73804922D01*
X123313708Y-73804920D01*
X123146682Y-73637894D01*
X122953178Y-73502399D01*
X122739092Y-73402570D01*
X122739086Y-73402567D01*
X122525600Y-73345364D01*
X122525600Y-74242988D01*
X122468593Y-74210075D01*
X122341426Y-74176000D01*
X122209774Y-74176000D01*
X122082607Y-74210075D01*
X122025600Y-74242988D01*
X122025600Y-73345364D01*
X122025599Y-73345364D01*
X121812113Y-73402567D01*
X121812107Y-73402570D01*
X121598022Y-73502399D01*
X121598020Y-73502400D01*
X121404526Y-73637886D01*
X121404520Y-73637891D01*
X121237491Y-73804920D01*
X121237490Y-73804922D01*
X121107175Y-73991031D01*
X121052598Y-74034655D01*
X120983099Y-74041848D01*
X120920745Y-74010326D01*
X120904025Y-73991031D01*
X120773709Y-73804922D01*
X120773708Y-73804920D01*
X120606678Y-73637890D01*
X120470413Y-73542475D01*
X120426788Y-73487898D01*
X120419596Y-73418400D01*
X120451119Y-73356045D01*
X120453793Y-73353284D01*
X124121789Y-69685289D01*
X124132639Y-69669051D01*
X124209394Y-69554179D01*
X124269737Y-69408497D01*
X124300500Y-69253842D01*
X124300500Y-56796158D01*
X124300500Y-56796155D01*
X124300499Y-56796153D01*
X124269738Y-56641510D01*
X124269737Y-56641503D01*
X124221687Y-56525498D01*
X124209397Y-56495827D01*
X124209390Y-56495814D01*
X124121790Y-56364712D01*
X124106820Y-56349742D01*
X124010289Y-56253211D01*
X123318495Y-55561417D01*
X122622292Y-54865213D01*
X122622288Y-54865210D01*
X122491185Y-54777609D01*
X122491172Y-54777602D01*
X122345501Y-54717264D01*
X122345489Y-54717261D01*
X122190845Y-54686500D01*
X122190842Y-54686500D01*
X121868691Y-54686500D01*
X121801652Y-54666815D01*
X121767116Y-54633624D01*
X121754491Y-54615594D01*
X121587402Y-54448506D01*
X121587395Y-54448501D01*
X121393834Y-54312967D01*
X121393830Y-54312965D01*
X121393828Y-54312964D01*
X121179663Y-54213097D01*
X121179659Y-54213096D01*
X121179655Y-54213094D01*
X120951413Y-54151938D01*
X120951403Y-54151936D01*
X120716001Y-54131341D01*
X120715999Y-54131341D01*
X120480596Y-54151936D01*
X120480586Y-54151938D01*
X120252344Y-54213094D01*
X120252335Y-54213098D01*
X120038171Y-54312964D01*
X120038169Y-54312965D01*
X119844597Y-54448505D01*
X119677505Y-54615597D01*
X119541965Y-54809169D01*
X119541964Y-54809171D01*
X119452234Y-55001599D01*
X119443371Y-55020606D01*
X119442098Y-55023335D01*
X119442094Y-55023344D01*
X119380938Y-55251586D01*
X119380936Y-55251596D01*
X119360341Y-55486999D01*
X119360341Y-55487000D01*
X119380936Y-55722403D01*
X119380938Y-55722413D01*
X119442094Y-55950655D01*
X119442096Y-55950659D01*
X119442097Y-55950663D01*
X119486490Y-56045864D01*
X119541965Y-56164830D01*
X119541967Y-56164834D01*
X119677501Y-56358395D01*
X119677506Y-56358402D01*
X119844597Y-56525493D01*
X119844603Y-56525498D01*
X120030158Y-56655425D01*
X120073783Y-56710002D01*
X120080977Y-56779500D01*
X120049454Y-56841855D01*
X120030158Y-56858575D01*
X119844597Y-56988505D01*
X119677506Y-57155596D01*
X119541965Y-57349170D01*
X119541962Y-57349175D01*
X119539289Y-57354909D01*
X119493115Y-57407346D01*
X119426909Y-57426500D01*
X119118940Y-57426500D01*
X119078019Y-57437464D01*
X119078019Y-57437465D01*
X119040751Y-57447451D01*
X118966214Y-57467423D01*
X118966209Y-57467426D01*
X118829290Y-57546475D01*
X118829282Y-57546481D01*
X118717478Y-57658286D01*
X112287584Y-64088181D01*
X112226261Y-64121666D01*
X112199903Y-64124500D01*
X78578940Y-64124500D01*
X78538019Y-64135464D01*
X78538019Y-64135465D01*
X78500751Y-64145451D01*
X78426214Y-64165423D01*
X78426209Y-64165426D01*
X78289290Y-64244475D01*
X78289282Y-64244481D01*
X78177478Y-64356286D01*
X75159530Y-67374233D01*
X75098207Y-67407718D01*
X75039756Y-67406327D01*
X74911413Y-67371938D01*
X74911403Y-67371936D01*
X74676001Y-67351341D01*
X74675999Y-67351341D01*
X74440596Y-67371936D01*
X74440586Y-67371938D01*
X74212344Y-67433094D01*
X74212335Y-67433098D01*
X73998171Y-67532964D01*
X73998169Y-67532965D01*
X73804597Y-67668505D01*
X73637508Y-67835594D01*
X73507269Y-68021595D01*
X73452692Y-68065219D01*
X73383193Y-68072412D01*
X73320839Y-68040890D01*
X73304119Y-68021594D01*
X73174113Y-67835926D01*
X73174108Y-67835920D01*
X73007082Y-67668894D01*
X72813578Y-67533399D01*
X72599492Y-67433570D01*
X72599486Y-67433567D01*
X72386000Y-67376364D01*
X72386000Y-68273988D01*
X72328993Y-68241075D01*
X72201826Y-68207000D01*
X72070174Y-68207000D01*
X71943007Y-68241075D01*
X71886000Y-68273988D01*
X71886000Y-67376364D01*
X71885999Y-67376364D01*
X71672513Y-67433567D01*
X71672507Y-67433570D01*
X71458422Y-67533399D01*
X71458420Y-67533400D01*
X71264926Y-67668886D01*
X71264920Y-67668891D01*
X71097891Y-67835920D01*
X71097890Y-67835922D01*
X70967880Y-68021595D01*
X70913303Y-68065219D01*
X70843804Y-68072412D01*
X70781450Y-68040890D01*
X70764730Y-68021594D01*
X70634494Y-67835597D01*
X70467402Y-67668506D01*
X70467395Y-67668501D01*
X70273834Y-67532967D01*
X70273830Y-67532965D01*
X70164874Y-67482158D01*
X70059663Y-67433097D01*
X70059659Y-67433096D01*
X70059655Y-67433094D01*
X69831413Y-67371938D01*
X69831403Y-67371936D01*
X69596001Y-67351341D01*
X69595999Y-67351341D01*
X69360596Y-67371936D01*
X69360586Y-67371938D01*
X69132344Y-67433094D01*
X69132335Y-67433098D01*
X68918171Y-67532964D01*
X68918169Y-67532965D01*
X68724597Y-67668505D01*
X68557508Y-67835594D01*
X68544884Y-67853624D01*
X68490307Y-67897248D01*
X68443309Y-67906500D01*
X68208691Y-67906500D01*
X68141652Y-67886815D01*
X68107116Y-67853624D01*
X68094495Y-67835599D01*
X68094493Y-67835597D01*
X68094491Y-67835594D01*
X67927402Y-67668506D01*
X67927395Y-67668501D01*
X67733834Y-67532967D01*
X67733830Y-67532965D01*
X67624874Y-67482158D01*
X67519663Y-67433097D01*
X67519659Y-67433096D01*
X67519655Y-67433094D01*
X67291413Y-67371938D01*
X67291403Y-67371936D01*
X67056001Y-67351341D01*
X67055998Y-67351341D01*
X66908007Y-67364288D01*
X66839507Y-67350521D01*
X66809519Y-67328441D01*
X66746819Y-67265741D01*
X66713334Y-67204418D01*
X66710500Y-67178060D01*
X66710500Y-58280089D01*
X66730185Y-58213050D01*
X66761609Y-58179775D01*
X66856566Y-58110786D01*
X67018286Y-57949066D01*
X67079992Y-57864134D01*
X67135319Y-57821470D01*
X67204932Y-57815491D01*
X67266727Y-57848096D01*
X67280626Y-57864135D01*
X67342097Y-57948741D01*
X67342097Y-57948742D01*
X67503757Y-58110402D01*
X67688723Y-58244788D01*
X67892429Y-58348582D01*
X68109871Y-58419234D01*
X68200000Y-58433509D01*
X68200000Y-57445747D01*
X68237708Y-57467518D01*
X68377591Y-57505000D01*
X68522409Y-57505000D01*
X68662292Y-57467518D01*
X68700000Y-57445747D01*
X68700000Y-58433508D01*
X68790128Y-58419234D01*
X69007570Y-58348582D01*
X69211276Y-58244788D01*
X69394059Y-58111988D01*
X69459865Y-58088508D01*
X69527919Y-58104333D01*
X69576614Y-58154439D01*
X69583127Y-58168974D01*
X69593701Y-58197326D01*
X69593706Y-58197335D01*
X69679952Y-58312544D01*
X69679955Y-58312547D01*
X69795164Y-58398793D01*
X69795171Y-58398797D01*
X69930017Y-58449091D01*
X69930016Y-58449091D01*
X69936944Y-58449835D01*
X69989627Y-58455500D01*
X71990372Y-58455499D01*
X72049983Y-58449091D01*
X72184831Y-58398796D01*
X72300046Y-58312546D01*
X72386296Y-58197331D01*
X72436591Y-58062483D01*
X72443000Y-58002873D01*
X72442999Y-56260995D01*
X87448732Y-56260995D01*
X87448732Y-56261004D01*
X87467777Y-56515154D01*
X87517841Y-56734500D01*
X87524492Y-56763637D01*
X87617607Y-57000888D01*
X87745041Y-57221612D01*
X87903950Y-57420877D01*
X88090783Y-57594232D01*
X88299353Y-57736432D01*
X88343653Y-57790459D01*
X88353500Y-57838884D01*
X88353500Y-58090648D01*
X88333815Y-58157687D01*
X88281011Y-58203442D01*
X88242755Y-58213938D01*
X88196516Y-58218909D01*
X88061671Y-58269202D01*
X88061664Y-58269206D01*
X87946455Y-58355452D01*
X87946452Y-58355455D01*
X87860206Y-58470664D01*
X87860202Y-58470671D01*
X87809908Y-58605517D01*
X87803501Y-58665116D01*
X87803500Y-58665135D01*
X87803500Y-60460870D01*
X87803501Y-60460876D01*
X87809908Y-60520483D01*
X87860202Y-60655328D01*
X87860206Y-60655335D01*
X87946452Y-60770544D01*
X87946455Y-60770547D01*
X88061664Y-60856793D01*
X88061671Y-60856797D01*
X88196517Y-60907091D01*
X88196516Y-60907091D01*
X88203444Y-60907835D01*
X88256127Y-60913500D01*
X90051872Y-60913499D01*
X90111483Y-60907091D01*
X90246331Y-60856796D01*
X90361546Y-60770546D01*
X90447796Y-60655331D01*
X90497002Y-60523401D01*
X90538872Y-60467468D01*
X90604337Y-60443050D01*
X90672610Y-60457901D01*
X90700865Y-60479053D01*
X90822917Y-60601105D01*
X91016421Y-60736600D01*
X91230507Y-60836429D01*
X91230516Y-60836433D01*
X91444000Y-60893634D01*
X91444000Y-59996012D01*
X91501007Y-60028925D01*
X91628174Y-60063000D01*
X91759826Y-60063000D01*
X91886993Y-60028925D01*
X91944000Y-59996012D01*
X91944000Y-60893633D01*
X92157483Y-60836433D01*
X92157492Y-60836429D01*
X92371578Y-60736600D01*
X92565082Y-60601105D01*
X92732105Y-60434082D01*
X92862119Y-60248405D01*
X92916696Y-60204781D01*
X92986195Y-60197588D01*
X93048549Y-60229110D01*
X93065269Y-60248405D01*
X93195505Y-60434401D01*
X93362599Y-60601495D01*
X93459384Y-60669265D01*
X93556165Y-60737032D01*
X93556167Y-60737033D01*
X93556170Y-60737035D01*
X93770337Y-60836903D01*
X93998592Y-60898063D01*
X94175034Y-60913500D01*
X94233999Y-60918659D01*
X94234000Y-60918659D01*
X94234001Y-60918659D01*
X94292966Y-60913500D01*
X94469408Y-60898063D01*
X94697663Y-60836903D01*
X94911830Y-60737035D01*
X95105401Y-60601495D01*
X95272495Y-60434401D01*
X95408035Y-60240830D01*
X95507903Y-60026663D01*
X95569063Y-59798408D01*
X95589659Y-59563000D01*
X95569063Y-59327592D01*
X95507903Y-59099337D01*
X95408035Y-58885171D01*
X95402731Y-58877595D01*
X95272494Y-58691597D01*
X95105402Y-58524506D01*
X95105395Y-58524501D01*
X94911834Y-58388967D01*
X94911830Y-58388965D01*
X94911828Y-58388964D01*
X94697663Y-58289097D01*
X94697659Y-58289096D01*
X94697655Y-58289094D01*
X94469413Y-58227938D01*
X94469403Y-58227936D01*
X94234001Y-58207341D01*
X94233999Y-58207341D01*
X93998596Y-58227936D01*
X93998586Y-58227938D01*
X93770344Y-58289094D01*
X93770335Y-58289098D01*
X93556171Y-58388964D01*
X93556169Y-58388965D01*
X93362597Y-58524505D01*
X93195508Y-58691594D01*
X93065269Y-58877595D01*
X93010692Y-58921219D01*
X92941193Y-58928412D01*
X92878839Y-58896890D01*
X92862119Y-58877594D01*
X92732113Y-58691926D01*
X92732108Y-58691920D01*
X92565082Y-58524894D01*
X92371578Y-58389399D01*
X92157492Y-58289570D01*
X92157486Y-58289567D01*
X91944000Y-58232364D01*
X91944000Y-59129988D01*
X91886993Y-59097075D01*
X91759826Y-59063000D01*
X91628174Y-59063000D01*
X91501007Y-59097075D01*
X91444000Y-59129988D01*
X91444000Y-58232364D01*
X91443999Y-58232364D01*
X91230513Y-58289567D01*
X91230507Y-58289570D01*
X91016422Y-58389399D01*
X91016420Y-58389400D01*
X90822926Y-58524886D01*
X90700865Y-58646947D01*
X90639542Y-58680431D01*
X90569850Y-58675447D01*
X90513917Y-58633575D01*
X90497002Y-58602598D01*
X90447797Y-58470671D01*
X90447793Y-58470664D01*
X90361547Y-58355455D01*
X90361544Y-58355452D01*
X90246335Y-58269206D01*
X90246328Y-58269202D01*
X90111483Y-58218908D01*
X90065243Y-58213937D01*
X90000693Y-58187199D01*
X89960845Y-58129806D01*
X89954500Y-58090648D01*
X89954500Y-57838884D01*
X89974185Y-57771845D01*
X90008645Y-57736433D01*
X90217217Y-57594232D01*
X90404050Y-57420877D01*
X90562959Y-57221612D01*
X90690393Y-57000888D01*
X90783508Y-56763637D01*
X90840222Y-56515157D01*
X90851969Y-56358401D01*
X90859268Y-56261004D01*
X90859268Y-56260995D01*
X90840222Y-56006845D01*
X90839057Y-56001741D01*
X90783508Y-55758363D01*
X90690393Y-55521112D01*
X90562959Y-55300388D01*
X90404050Y-55101123D01*
X90217217Y-54927768D01*
X90006634Y-54784195D01*
X90006630Y-54784193D01*
X90006627Y-54784191D01*
X90006626Y-54784190D01*
X89987536Y-54774997D01*
X102295034Y-54774997D01*
X102295034Y-54775002D01*
X102314858Y-55001599D01*
X102314860Y-55001610D01*
X102373730Y-55221317D01*
X102373735Y-55221331D01*
X102469863Y-55427478D01*
X102520974Y-55500472D01*
X103200000Y-54821446D01*
X103200000Y-54827661D01*
X103227259Y-54929394D01*
X103279920Y-55020606D01*
X103354394Y-55095080D01*
X103445606Y-55147741D01*
X103547339Y-55175000D01*
X103553553Y-55175000D01*
X102874526Y-55854025D01*
X102947513Y-55905132D01*
X102947521Y-55905136D01*
X103153668Y-56001264D01*
X103153682Y-56001269D01*
X103373389Y-56060139D01*
X103373400Y-56060141D01*
X103599998Y-56079966D01*
X103600002Y-56079966D01*
X103826599Y-56060141D01*
X103826610Y-56060139D01*
X104046317Y-56001269D01*
X104046331Y-56001264D01*
X104252478Y-55905136D01*
X104325471Y-55854024D01*
X103646447Y-55175000D01*
X103652661Y-55175000D01*
X103754394Y-55147741D01*
X103845606Y-55095080D01*
X103920080Y-55020606D01*
X103972741Y-54929394D01*
X104000000Y-54827661D01*
X104000000Y-54821447D01*
X104679024Y-55500471D01*
X104730136Y-55427478D01*
X104826264Y-55221331D01*
X104826269Y-55221317D01*
X104885139Y-55001610D01*
X104885141Y-55001599D01*
X104904966Y-54775002D01*
X104904966Y-54774997D01*
X104885141Y-54548400D01*
X104885139Y-54548389D01*
X104826269Y-54328682D01*
X104826264Y-54328668D01*
X104730136Y-54122521D01*
X104730132Y-54122513D01*
X104679025Y-54049526D01*
X104000000Y-54728551D01*
X104000000Y-54722339D01*
X103972741Y-54620606D01*
X103920080Y-54529394D01*
X103845606Y-54454920D01*
X103754394Y-54402259D01*
X103652661Y-54375000D01*
X103646448Y-54375000D01*
X104325472Y-53695974D01*
X104252478Y-53644863D01*
X104046331Y-53548735D01*
X104046317Y-53548730D01*
X103826610Y-53489860D01*
X103826599Y-53489858D01*
X103600002Y-53470034D01*
X103599998Y-53470034D01*
X103373400Y-53489858D01*
X103373389Y-53489860D01*
X103153682Y-53548730D01*
X103153673Y-53548734D01*
X102947516Y-53644866D01*
X102947512Y-53644868D01*
X102874526Y-53695973D01*
X102874526Y-53695974D01*
X103553553Y-54375000D01*
X103547339Y-54375000D01*
X103445606Y-54402259D01*
X103354394Y-54454920D01*
X103279920Y-54529394D01*
X103227259Y-54620606D01*
X103200000Y-54722339D01*
X103200000Y-54728552D01*
X102520974Y-54049526D01*
X102520973Y-54049526D01*
X102469868Y-54122512D01*
X102469866Y-54122516D01*
X102373734Y-54328673D01*
X102373730Y-54328682D01*
X102314860Y-54548389D01*
X102314858Y-54548400D01*
X102295034Y-54774997D01*
X89987536Y-54774997D01*
X89777006Y-54673612D01*
X89777008Y-54673612D01*
X89533466Y-54598489D01*
X89533462Y-54598488D01*
X89533458Y-54598487D01*
X89412231Y-54580214D01*
X89281440Y-54560500D01*
X89281435Y-54560500D01*
X89026565Y-54560500D01*
X89026559Y-54560500D01*
X88869609Y-54584157D01*
X88774542Y-54598487D01*
X88774539Y-54598488D01*
X88774533Y-54598489D01*
X88530992Y-54673612D01*
X88301373Y-54784190D01*
X88301372Y-54784191D01*
X88090782Y-54927768D01*
X87903952Y-55101121D01*
X87903950Y-55101123D01*
X87745041Y-55300388D01*
X87617608Y-55521109D01*
X87524492Y-55758362D01*
X87524490Y-55758369D01*
X87467777Y-56006845D01*
X87448732Y-56260995D01*
X72442999Y-56260995D01*
X72442999Y-55907128D01*
X72437291Y-55854025D01*
X72436591Y-55847516D01*
X72386297Y-55712671D01*
X72386293Y-55712664D01*
X72300047Y-55597455D01*
X72300044Y-55597452D01*
X72184835Y-55511206D01*
X72184828Y-55511202D01*
X72049982Y-55460908D01*
X72049983Y-55460908D01*
X71990383Y-55454501D01*
X71990381Y-55454500D01*
X71990373Y-55454500D01*
X71990365Y-55454500D01*
X71914500Y-55454500D01*
X71847461Y-55434815D01*
X71801706Y-55382011D01*
X71790500Y-55330500D01*
X71790500Y-54407940D01*
X71810185Y-54340901D01*
X71826819Y-54320259D01*
X77822081Y-48324997D01*
X102345034Y-48324997D01*
X102345034Y-48325002D01*
X102364858Y-48551599D01*
X102364860Y-48551610D01*
X102423730Y-48771317D01*
X102423735Y-48771331D01*
X102519863Y-48977478D01*
X102570974Y-49050472D01*
X103250000Y-48371446D01*
X103250000Y-48377661D01*
X103277259Y-48479394D01*
X103329920Y-48570606D01*
X103404394Y-48645080D01*
X103495606Y-48697741D01*
X103597339Y-48725000D01*
X103603553Y-48725000D01*
X102924526Y-49404025D01*
X102997513Y-49455132D01*
X102997521Y-49455136D01*
X103203668Y-49551264D01*
X103203682Y-49551269D01*
X103423389Y-49610139D01*
X103423400Y-49610141D01*
X103649998Y-49629966D01*
X103650002Y-49629966D01*
X103876599Y-49610141D01*
X103876610Y-49610139D01*
X104096317Y-49551269D01*
X104096331Y-49551264D01*
X104302478Y-49455136D01*
X104375471Y-49404024D01*
X103696447Y-48725000D01*
X103702661Y-48725000D01*
X103804394Y-48697741D01*
X103895606Y-48645080D01*
X103970080Y-48570606D01*
X104022741Y-48479394D01*
X104050000Y-48377661D01*
X104050000Y-48371447D01*
X104729024Y-49050471D01*
X104780136Y-48977478D01*
X104876264Y-48771331D01*
X104876269Y-48771317D01*
X104935139Y-48551610D01*
X104935141Y-48551599D01*
X104954966Y-48325002D01*
X104954966Y-48324997D01*
X104935141Y-48098400D01*
X104935139Y-48098389D01*
X104876269Y-47878682D01*
X104876264Y-47878668D01*
X104780136Y-47672521D01*
X104780132Y-47672513D01*
X104729025Y-47599526D01*
X104050000Y-48278551D01*
X104050000Y-48272339D01*
X104022741Y-48170606D01*
X103970080Y-48079394D01*
X103895606Y-48004920D01*
X103804394Y-47952259D01*
X103702661Y-47925000D01*
X103696448Y-47925000D01*
X104375472Y-47245974D01*
X104302478Y-47194863D01*
X104096331Y-47098735D01*
X104096317Y-47098730D01*
X103876610Y-47039860D01*
X103876599Y-47039858D01*
X103650002Y-47020034D01*
X103649998Y-47020034D01*
X103423400Y-47039858D01*
X103423389Y-47039860D01*
X103203682Y-47098730D01*
X103203673Y-47098734D01*
X102997516Y-47194866D01*
X102997512Y-47194868D01*
X102924526Y-47245973D01*
X102924526Y-47245974D01*
X103603553Y-47925000D01*
X103597339Y-47925000D01*
X103495606Y-47952259D01*
X103404394Y-48004920D01*
X103329920Y-48079394D01*
X103277259Y-48170606D01*
X103250000Y-48272339D01*
X103250000Y-48278552D01*
X102570974Y-47599526D01*
X102570973Y-47599526D01*
X102519868Y-47672512D01*
X102519866Y-47672516D01*
X102423734Y-47878673D01*
X102423730Y-47878682D01*
X102364860Y-48098389D01*
X102364858Y-48098400D01*
X102345034Y-48324997D01*
X77822081Y-48324997D01*
X78277759Y-47869319D01*
X78339082Y-47835834D01*
X78365440Y-47833000D01*
X94271344Y-47833000D01*
X94271345Y-47832999D01*
X94425997Y-47802237D01*
X94571679Y-47741894D01*
X94702789Y-47654289D01*
X96720259Y-45636819D01*
X96781582Y-45603334D01*
X96807940Y-45600500D01*
X108866500Y-45600500D01*
X108933539Y-45620185D01*
G37*
%TD.AperFunction*%
%TA.AperFunction,Conductor*%
G36*
X121809675Y-74483007D02*
G01*
X121775600Y-74610174D01*
X121775600Y-74741826D01*
X121809675Y-74868993D01*
X121842588Y-74926000D01*
X120168612Y-74926000D01*
X120201525Y-74868993D01*
X120235600Y-74741826D01*
X120235600Y-74610174D01*
X120201525Y-74483007D01*
X120168612Y-74426000D01*
X121842588Y-74426000D01*
X121809675Y-74483007D01*
G37*
%TD.AperFunction*%
%TA.AperFunction,Conductor*%
G36*
X124349675Y-74483007D02*
G01*
X124315600Y-74610174D01*
X124315600Y-74741826D01*
X124349675Y-74868993D01*
X124382588Y-74926000D01*
X122708612Y-74926000D01*
X122741525Y-74868993D01*
X122775600Y-74741826D01*
X122775600Y-74610174D01*
X122741525Y-74483007D01*
X122708612Y-74426000D01*
X124382588Y-74426000D01*
X124349675Y-74483007D01*
G37*
%TD.AperFunction*%
%TA.AperFunction,Conductor*%
G36*
X126889675Y-74483007D02*
G01*
X126855600Y-74610174D01*
X126855600Y-74741826D01*
X126889675Y-74868993D01*
X126922588Y-74926000D01*
X125248612Y-74926000D01*
X125281525Y-74868993D01*
X125315600Y-74741826D01*
X125315600Y-74610174D01*
X125281525Y-74483007D01*
X125248612Y-74426000D01*
X126922588Y-74426000D01*
X126889675Y-74483007D01*
G37*
%TD.AperFunction*%
%TA.AperFunction,Conductor*%
G36*
X129429675Y-74483007D02*
G01*
X129395600Y-74610174D01*
X129395600Y-74741826D01*
X129429675Y-74868993D01*
X129462588Y-74926000D01*
X127788612Y-74926000D01*
X127821525Y-74868993D01*
X127855600Y-74741826D01*
X127855600Y-74610174D01*
X127821525Y-74483007D01*
X127788612Y-74426000D01*
X129462588Y-74426000D01*
X129429675Y-74483007D01*
G37*
%TD.AperFunction*%
%TA.AperFunction,Conductor*%
G36*
X121846243Y-56369167D02*
G01*
X121890590Y-56397668D01*
X122663181Y-57170259D01*
X122696666Y-57231582D01*
X122699500Y-57257940D01*
X122699500Y-68792060D01*
X122679815Y-68859099D01*
X122663181Y-68879741D01*
X118329741Y-73213181D01*
X118268418Y-73246666D01*
X118242060Y-73249500D01*
X88300500Y-73249500D01*
X88233461Y-73229815D01*
X88187706Y-73177011D01*
X88176500Y-73125500D01*
X88176500Y-72399690D01*
X88196185Y-72332651D01*
X88229375Y-72298116D01*
X88247401Y-72285495D01*
X88414495Y-72118401D01*
X88544425Y-71932842D01*
X88599002Y-71889217D01*
X88668500Y-71882023D01*
X88730855Y-71913546D01*
X88747575Y-71932842D01*
X88877281Y-72118082D01*
X88877505Y-72118401D01*
X89044599Y-72285495D01*
X89140562Y-72352689D01*
X89238165Y-72421032D01*
X89238167Y-72421033D01*
X89238170Y-72421035D01*
X89452337Y-72520903D01*
X89680592Y-72582063D01*
X89857034Y-72597500D01*
X89915999Y-72602659D01*
X89916000Y-72602659D01*
X89916001Y-72602659D01*
X89974966Y-72597500D01*
X90151408Y-72582063D01*
X90379663Y-72520903D01*
X90593830Y-72421035D01*
X90787401Y-72285495D01*
X90954495Y-72118401D01*
X91084425Y-71932842D01*
X91139002Y-71889217D01*
X91208500Y-71882023D01*
X91270855Y-71913546D01*
X91287575Y-71932842D01*
X91417281Y-72118082D01*
X91417505Y-72118401D01*
X91584599Y-72285495D01*
X91680562Y-72352689D01*
X91778165Y-72421032D01*
X91778167Y-72421033D01*
X91778170Y-72421035D01*
X91992337Y-72520903D01*
X92220592Y-72582063D01*
X92397034Y-72597500D01*
X92455999Y-72602659D01*
X92456000Y-72602659D01*
X92456001Y-72602659D01*
X92514966Y-72597500D01*
X92691408Y-72582063D01*
X92919663Y-72520903D01*
X93133830Y-72421035D01*
X93327401Y-72285495D01*
X93494495Y-72118401D01*
X93624425Y-71932842D01*
X93679002Y-71889217D01*
X93748500Y-71882023D01*
X93810855Y-71913546D01*
X93827575Y-71932842D01*
X93957281Y-72118082D01*
X93957505Y-72118401D01*
X94124599Y-72285495D01*
X94220562Y-72352689D01*
X94318165Y-72421032D01*
X94318167Y-72421033D01*
X94318170Y-72421035D01*
X94532337Y-72520903D01*
X94760592Y-72582063D01*
X94937034Y-72597500D01*
X94995999Y-72602659D01*
X94996000Y-72602659D01*
X94996001Y-72602659D01*
X95054966Y-72597500D01*
X95231408Y-72582063D01*
X95459663Y-72520903D01*
X95673830Y-72421035D01*
X95867401Y-72285495D01*
X96034495Y-72118401D01*
X96164730Y-71932405D01*
X96219307Y-71888781D01*
X96288805Y-71881587D01*
X96351160Y-71913110D01*
X96367879Y-71932405D01*
X96497890Y-72118078D01*
X96664917Y-72285105D01*
X96858421Y-72420600D01*
X97072507Y-72520429D01*
X97072516Y-72520433D01*
X97286000Y-72577634D01*
X97286000Y-71680012D01*
X97343007Y-71712925D01*
X97470174Y-71747000D01*
X97601826Y-71747000D01*
X97728993Y-71712925D01*
X97786000Y-71680012D01*
X97786000Y-72577634D01*
X97999483Y-72520433D01*
X97999492Y-72520429D01*
X98213578Y-72420600D01*
X98407082Y-72285105D01*
X98574105Y-72118082D01*
X98704119Y-71932405D01*
X98758696Y-71888781D01*
X98828195Y-71881588D01*
X98890549Y-71913110D01*
X98907269Y-71932405D01*
X99037505Y-72118401D01*
X99204599Y-72285495D01*
X99300562Y-72352689D01*
X99398165Y-72421032D01*
X99398167Y-72421033D01*
X99398170Y-72421035D01*
X99612337Y-72520903D01*
X99840592Y-72582063D01*
X100017034Y-72597500D01*
X100075999Y-72602659D01*
X100076000Y-72602659D01*
X100076001Y-72602659D01*
X100134966Y-72597500D01*
X100311408Y-72582063D01*
X100539663Y-72520903D01*
X100753830Y-72421035D01*
X100947401Y-72285495D01*
X101114495Y-72118401D01*
X101244425Y-71932842D01*
X101299002Y-71889217D01*
X101368500Y-71882023D01*
X101430855Y-71913546D01*
X101447575Y-71932842D01*
X101577281Y-72118082D01*
X101577505Y-72118401D01*
X101744599Y-72285495D01*
X101840562Y-72352689D01*
X101938165Y-72421032D01*
X101938167Y-72421033D01*
X101938170Y-72421035D01*
X102152337Y-72520903D01*
X102380592Y-72582063D01*
X102557034Y-72597500D01*
X102615999Y-72602659D01*
X102616000Y-72602659D01*
X102616001Y-72602659D01*
X102674966Y-72597500D01*
X102851408Y-72582063D01*
X103079663Y-72520903D01*
X103293830Y-72421035D01*
X103487401Y-72285495D01*
X103654495Y-72118401D01*
X103784425Y-71932842D01*
X103839002Y-71889217D01*
X103908500Y-71882023D01*
X103970855Y-71913546D01*
X103987575Y-71932842D01*
X104117281Y-72118082D01*
X104117505Y-72118401D01*
X104284599Y-72285495D01*
X104380562Y-72352689D01*
X104478165Y-72421032D01*
X104478167Y-72421033D01*
X104478170Y-72421035D01*
X104692337Y-72520903D01*
X104920592Y-72582063D01*
X105097034Y-72597500D01*
X105155999Y-72602659D01*
X105156000Y-72602659D01*
X105156001Y-72602659D01*
X105214966Y-72597500D01*
X105391408Y-72582063D01*
X105619663Y-72520903D01*
X105833830Y-72421035D01*
X106027401Y-72285495D01*
X106194495Y-72118401D01*
X106324425Y-71932842D01*
X106379002Y-71889217D01*
X106448500Y-71882023D01*
X106510855Y-71913546D01*
X106527575Y-71932842D01*
X106657281Y-72118082D01*
X106657505Y-72118401D01*
X106824599Y-72285495D01*
X106920562Y-72352689D01*
X107018165Y-72421032D01*
X107018167Y-72421033D01*
X107018170Y-72421035D01*
X107232337Y-72520903D01*
X107460592Y-72582063D01*
X107637034Y-72597500D01*
X107695999Y-72602659D01*
X107696000Y-72602659D01*
X107696001Y-72602659D01*
X107754966Y-72597500D01*
X107931408Y-72582063D01*
X108159663Y-72520903D01*
X108373830Y-72421035D01*
X108567401Y-72285495D01*
X108734495Y-72118401D01*
X108864425Y-71932842D01*
X108919002Y-71889217D01*
X108988500Y-71882023D01*
X109050855Y-71913546D01*
X109067575Y-71932842D01*
X109197281Y-72118082D01*
X109197505Y-72118401D01*
X109364599Y-72285495D01*
X109460562Y-72352689D01*
X109558165Y-72421032D01*
X109558167Y-72421033D01*
X109558170Y-72421035D01*
X109772337Y-72520903D01*
X110000592Y-72582063D01*
X110177034Y-72597500D01*
X110235999Y-72602659D01*
X110236000Y-72602659D01*
X110236001Y-72602659D01*
X110294966Y-72597500D01*
X110471408Y-72582063D01*
X110699663Y-72520903D01*
X110913830Y-72421035D01*
X111107401Y-72285495D01*
X111274495Y-72118401D01*
X111404425Y-71932842D01*
X111459002Y-71889217D01*
X111528500Y-71882023D01*
X111590855Y-71913546D01*
X111607575Y-71932842D01*
X111737281Y-72118082D01*
X111737505Y-72118401D01*
X111904599Y-72285495D01*
X112000562Y-72352689D01*
X112098165Y-72421032D01*
X112098167Y-72421033D01*
X112098170Y-72421035D01*
X112312337Y-72520903D01*
X112540592Y-72582063D01*
X112717034Y-72597500D01*
X112775999Y-72602659D01*
X112776000Y-72602659D01*
X112776001Y-72602659D01*
X112834966Y-72597500D01*
X113011408Y-72582063D01*
X113239663Y-72520903D01*
X113453830Y-72421035D01*
X113647401Y-72285495D01*
X113814495Y-72118401D01*
X113944730Y-71932405D01*
X113999307Y-71888781D01*
X114068805Y-71881587D01*
X114131160Y-71913110D01*
X114147879Y-71932405D01*
X114277890Y-72118078D01*
X114444917Y-72285105D01*
X114638421Y-72420600D01*
X114852507Y-72520429D01*
X114852516Y-72520433D01*
X115066000Y-72577634D01*
X115066000Y-71680012D01*
X115123007Y-71712925D01*
X115250174Y-71747000D01*
X115381826Y-71747000D01*
X115508993Y-71712925D01*
X115566000Y-71680012D01*
X115566000Y-72577633D01*
X115779483Y-72520433D01*
X115779492Y-72520429D01*
X115993578Y-72420600D01*
X116187082Y-72285105D01*
X116354105Y-72118082D01*
X116489600Y-71924578D01*
X116589429Y-71710492D01*
X116589432Y-71710486D01*
X116646636Y-71497000D01*
X115749012Y-71497000D01*
X115781925Y-71439993D01*
X115816000Y-71312826D01*
X115816000Y-71181174D01*
X115781925Y-71054007D01*
X115749012Y-70997000D01*
X116646636Y-70997000D01*
X116646635Y-70996999D01*
X116589432Y-70783513D01*
X116589429Y-70783507D01*
X116489600Y-70569422D01*
X116489599Y-70569420D01*
X116354113Y-70375926D01*
X116354108Y-70375920D01*
X116187078Y-70208890D01*
X116001405Y-70078879D01*
X115957780Y-70024302D01*
X115950588Y-69954804D01*
X115982110Y-69892449D01*
X116001406Y-69875730D01*
X116002279Y-69875119D01*
X116187401Y-69745495D01*
X116354495Y-69578401D01*
X116490035Y-69384830D01*
X116589903Y-69170663D01*
X116651063Y-68942408D01*
X116671659Y-68707000D01*
X116651063Y-68471592D01*
X116589903Y-68243337D01*
X116490035Y-68029171D01*
X116484731Y-68021595D01*
X116354494Y-67835597D01*
X116187402Y-67668506D01*
X116187395Y-67668501D01*
X115993834Y-67532967D01*
X115993830Y-67532965D01*
X115884874Y-67482158D01*
X115779663Y-67433097D01*
X115779659Y-67433096D01*
X115779655Y-67433094D01*
X115551413Y-67371938D01*
X115551403Y-67371936D01*
X115316001Y-67351341D01*
X115315999Y-67351341D01*
X115080596Y-67371936D01*
X115080586Y-67371938D01*
X114852344Y-67433094D01*
X114852335Y-67433098D01*
X114638171Y-67532964D01*
X114638169Y-67532965D01*
X114444597Y-67668505D01*
X114277505Y-67835597D01*
X114147575Y-68021158D01*
X114092998Y-68064783D01*
X114023500Y-68071977D01*
X113961145Y-68040454D01*
X113944425Y-68021158D01*
X113814494Y-67835597D01*
X113647402Y-67668506D01*
X113647395Y-67668501D01*
X113453834Y-67532967D01*
X113453830Y-67532965D01*
X113344874Y-67482158D01*
X113239663Y-67433097D01*
X113239659Y-67433096D01*
X113239655Y-67433094D01*
X113011413Y-67371938D01*
X113011403Y-67371936D01*
X112776001Y-67351341D01*
X112775999Y-67351341D01*
X112540596Y-67371936D01*
X112540586Y-67371938D01*
X112312344Y-67433094D01*
X112312335Y-67433098D01*
X112098171Y-67532964D01*
X112098169Y-67532965D01*
X111904597Y-67668505D01*
X111737505Y-67835597D01*
X111607575Y-68021158D01*
X111552998Y-68064783D01*
X111483500Y-68071977D01*
X111421145Y-68040454D01*
X111404425Y-68021158D01*
X111274494Y-67835597D01*
X111107402Y-67668506D01*
X111107395Y-67668501D01*
X110913834Y-67532967D01*
X110913830Y-67532965D01*
X110804874Y-67482158D01*
X110699663Y-67433097D01*
X110699659Y-67433096D01*
X110699655Y-67433094D01*
X110471413Y-67371938D01*
X110471403Y-67371936D01*
X110236001Y-67351341D01*
X110235999Y-67351341D01*
X110000596Y-67371936D01*
X110000586Y-67371938D01*
X109772344Y-67433094D01*
X109772335Y-67433098D01*
X109558171Y-67532964D01*
X109558169Y-67532965D01*
X109364597Y-67668505D01*
X109197508Y-67835594D01*
X109067269Y-68021595D01*
X109012692Y-68065219D01*
X108943193Y-68072412D01*
X108880839Y-68040890D01*
X108864119Y-68021594D01*
X108734113Y-67835926D01*
X108734108Y-67835920D01*
X108567082Y-67668894D01*
X108373578Y-67533399D01*
X108159492Y-67433570D01*
X108159486Y-67433567D01*
X107946000Y-67376364D01*
X107946000Y-68273988D01*
X107888993Y-68241075D01*
X107761826Y-68207000D01*
X107630174Y-68207000D01*
X107503007Y-68241075D01*
X107446000Y-68273988D01*
X107446000Y-67376364D01*
X107445999Y-67376364D01*
X107232513Y-67433567D01*
X107232507Y-67433570D01*
X107018422Y-67533399D01*
X107018420Y-67533400D01*
X106824926Y-67668886D01*
X106824920Y-67668891D01*
X106657891Y-67835920D01*
X106657890Y-67835922D01*
X106527880Y-68021595D01*
X106473303Y-68065219D01*
X106403804Y-68072412D01*
X106341450Y-68040890D01*
X106324730Y-68021594D01*
X106194494Y-67835597D01*
X106027402Y-67668506D01*
X106027395Y-67668501D01*
X105833834Y-67532967D01*
X105833830Y-67532965D01*
X105724874Y-67482158D01*
X105619663Y-67433097D01*
X105619659Y-67433096D01*
X105619655Y-67433094D01*
X105391413Y-67371938D01*
X105391403Y-67371936D01*
X105156001Y-67351341D01*
X105155999Y-67351341D01*
X104920596Y-67371936D01*
X104920586Y-67371938D01*
X104692344Y-67433094D01*
X104692335Y-67433098D01*
X104478171Y-67532964D01*
X104478169Y-67532965D01*
X104284597Y-67668505D01*
X104117508Y-67835594D01*
X103987269Y-68021595D01*
X103932692Y-68065219D01*
X103863193Y-68072412D01*
X103800839Y-68040890D01*
X103784119Y-68021594D01*
X103654113Y-67835926D01*
X103654108Y-67835920D01*
X103487082Y-67668894D01*
X103293578Y-67533399D01*
X103079492Y-67433570D01*
X103079486Y-67433567D01*
X102866000Y-67376364D01*
X102866000Y-68273988D01*
X102808993Y-68241075D01*
X102681826Y-68207000D01*
X102550174Y-68207000D01*
X102423007Y-68241075D01*
X102366000Y-68273988D01*
X102366000Y-67376364D01*
X102365999Y-67376364D01*
X102152513Y-67433567D01*
X102152507Y-67433570D01*
X101938422Y-67533399D01*
X101938420Y-67533400D01*
X101744926Y-67668886D01*
X101744920Y-67668891D01*
X101577891Y-67835920D01*
X101577890Y-67835922D01*
X101447880Y-68021595D01*
X101393303Y-68065219D01*
X101323804Y-68072412D01*
X101261450Y-68040890D01*
X101244730Y-68021594D01*
X101114494Y-67835597D01*
X100947402Y-67668506D01*
X100947395Y-67668501D01*
X100753834Y-67532967D01*
X100753830Y-67532965D01*
X100644874Y-67482158D01*
X100539663Y-67433097D01*
X100539659Y-67433096D01*
X100539655Y-67433094D01*
X100311413Y-67371938D01*
X100311403Y-67371936D01*
X100076001Y-67351341D01*
X100075999Y-67351341D01*
X99840596Y-67371936D01*
X99840586Y-67371938D01*
X99612344Y-67433094D01*
X99612335Y-67433098D01*
X99398171Y-67532964D01*
X99398169Y-67532965D01*
X99204597Y-67668505D01*
X99037505Y-67835597D01*
X98907575Y-68021158D01*
X98852998Y-68064783D01*
X98783500Y-68071977D01*
X98721145Y-68040454D01*
X98704425Y-68021158D01*
X98574494Y-67835597D01*
X98407402Y-67668506D01*
X98407395Y-67668501D01*
X98213834Y-67532967D01*
X98213830Y-67532965D01*
X98104874Y-67482158D01*
X97999663Y-67433097D01*
X97999659Y-67433096D01*
X97999655Y-67433094D01*
X97771413Y-67371938D01*
X97771403Y-67371936D01*
X97536001Y-67351341D01*
X97535999Y-67351341D01*
X97300596Y-67371936D01*
X97300586Y-67371938D01*
X97072344Y-67433094D01*
X97072335Y-67433098D01*
X96858171Y-67532964D01*
X96858169Y-67532965D01*
X96664597Y-67668505D01*
X96497505Y-67835597D01*
X96367575Y-68021158D01*
X96312998Y-68064783D01*
X96243500Y-68071977D01*
X96181145Y-68040454D01*
X96164425Y-68021158D01*
X96034494Y-67835597D01*
X95867402Y-67668506D01*
X95867395Y-67668501D01*
X95673834Y-67532967D01*
X95673830Y-67532965D01*
X95564874Y-67482158D01*
X95459663Y-67433097D01*
X95459659Y-67433096D01*
X95459655Y-67433094D01*
X95231413Y-67371938D01*
X95231403Y-67371936D01*
X94996001Y-67351341D01*
X94995999Y-67351341D01*
X94760596Y-67371936D01*
X94760586Y-67371938D01*
X94532344Y-67433094D01*
X94532335Y-67433098D01*
X94318171Y-67532964D01*
X94318169Y-67532965D01*
X94124597Y-67668505D01*
X93957505Y-67835597D01*
X93827575Y-68021158D01*
X93772998Y-68064783D01*
X93703500Y-68071977D01*
X93641145Y-68040454D01*
X93624425Y-68021158D01*
X93494494Y-67835597D01*
X93327402Y-67668506D01*
X93327395Y-67668501D01*
X93133834Y-67532967D01*
X93133830Y-67532965D01*
X93024874Y-67482158D01*
X92919663Y-67433097D01*
X92919659Y-67433096D01*
X92919655Y-67433094D01*
X92691413Y-67371938D01*
X92691403Y-67371936D01*
X92456001Y-67351341D01*
X92455999Y-67351341D01*
X92220596Y-67371936D01*
X92220586Y-67371938D01*
X91992344Y-67433094D01*
X91992335Y-67433098D01*
X91778171Y-67532964D01*
X91778169Y-67532965D01*
X91584597Y-67668505D01*
X91417508Y-67835594D01*
X91287269Y-68021595D01*
X91232692Y-68065219D01*
X91163193Y-68072412D01*
X91100839Y-68040890D01*
X91084119Y-68021594D01*
X90954113Y-67835926D01*
X90954108Y-67835920D01*
X90787082Y-67668894D01*
X90593578Y-67533399D01*
X90379492Y-67433570D01*
X90379486Y-67433567D01*
X90166000Y-67376364D01*
X90166000Y-68273988D01*
X90108993Y-68241075D01*
X89981826Y-68207000D01*
X89850174Y-68207000D01*
X89723007Y-68241075D01*
X89666000Y-68273988D01*
X89666000Y-67376364D01*
X89665999Y-67376364D01*
X89452513Y-67433567D01*
X89452507Y-67433570D01*
X89238422Y-67533399D01*
X89238420Y-67533400D01*
X89044926Y-67668886D01*
X89044920Y-67668891D01*
X88877891Y-67835920D01*
X88877890Y-67835922D01*
X88747880Y-68021595D01*
X88693303Y-68065219D01*
X88623804Y-68072412D01*
X88561450Y-68040890D01*
X88544730Y-68021594D01*
X88414494Y-67835597D01*
X88247402Y-67668506D01*
X88247395Y-67668501D01*
X88053834Y-67532967D01*
X88053830Y-67532965D01*
X87944874Y-67482158D01*
X87839663Y-67433097D01*
X87839659Y-67433096D01*
X87839655Y-67433094D01*
X87611413Y-67371938D01*
X87611403Y-67371936D01*
X87376001Y-67351341D01*
X87375999Y-67351341D01*
X87140596Y-67371936D01*
X87140586Y-67371938D01*
X86912344Y-67433094D01*
X86912335Y-67433098D01*
X86698171Y-67532964D01*
X86698169Y-67532965D01*
X86504597Y-67668505D01*
X86337505Y-67835597D01*
X86207575Y-68021158D01*
X86152998Y-68064783D01*
X86083500Y-68071977D01*
X86021145Y-68040454D01*
X86004425Y-68021158D01*
X85874494Y-67835597D01*
X85707402Y-67668506D01*
X85707395Y-67668501D01*
X85513834Y-67532967D01*
X85513830Y-67532965D01*
X85404874Y-67482158D01*
X85299663Y-67433097D01*
X85299659Y-67433096D01*
X85299655Y-67433094D01*
X85071413Y-67371938D01*
X85071403Y-67371936D01*
X84836001Y-67351341D01*
X84835999Y-67351341D01*
X84600596Y-67371936D01*
X84600586Y-67371938D01*
X84372344Y-67433094D01*
X84372335Y-67433098D01*
X84158171Y-67532964D01*
X84158169Y-67532965D01*
X83964597Y-67668505D01*
X83797508Y-67835594D01*
X83667269Y-68021595D01*
X83612692Y-68065219D01*
X83543193Y-68072412D01*
X83480839Y-68040890D01*
X83464119Y-68021594D01*
X83334113Y-67835926D01*
X83334108Y-67835920D01*
X83167082Y-67668894D01*
X82973578Y-67533399D01*
X82759492Y-67433570D01*
X82759486Y-67433567D01*
X82546000Y-67376364D01*
X82546000Y-68273988D01*
X82488993Y-68241075D01*
X82361826Y-68207000D01*
X82230174Y-68207000D01*
X82103007Y-68241075D01*
X82046000Y-68273988D01*
X82046000Y-67376364D01*
X82045999Y-67376364D01*
X81832513Y-67433567D01*
X81832507Y-67433570D01*
X81618422Y-67533399D01*
X81618420Y-67533400D01*
X81424926Y-67668886D01*
X81424920Y-67668891D01*
X81257891Y-67835920D01*
X81257890Y-67835922D01*
X81127880Y-68021595D01*
X81073303Y-68065219D01*
X81003804Y-68072412D01*
X80941450Y-68040890D01*
X80924730Y-68021594D01*
X80794494Y-67835597D01*
X80627402Y-67668506D01*
X80627395Y-67668501D01*
X80433834Y-67532967D01*
X80433830Y-67532965D01*
X80324874Y-67482158D01*
X80219663Y-67433097D01*
X80219659Y-67433096D01*
X80219655Y-67433094D01*
X79991413Y-67371938D01*
X79991403Y-67371936D01*
X79756001Y-67351341D01*
X79755998Y-67351341D01*
X79728154Y-67353777D01*
X79659654Y-67340010D01*
X79609471Y-67291395D01*
X79593538Y-67223366D01*
X79616913Y-67157523D01*
X79629666Y-67142568D01*
X80285416Y-66486819D01*
X80346739Y-66453334D01*
X80373097Y-66450500D01*
X112813331Y-66450500D01*
X112813347Y-66450501D01*
X112820943Y-66450501D01*
X112979054Y-66450501D01*
X112979057Y-66450501D01*
X113131785Y-66409577D01*
X113181904Y-66380639D01*
X113268716Y-66330520D01*
X113380520Y-66218716D01*
X113380520Y-66218714D01*
X113390728Y-66208507D01*
X113390729Y-66208504D01*
X118395416Y-61203819D01*
X118456739Y-61170334D01*
X118483097Y-61167500D01*
X119426909Y-61167500D01*
X119493948Y-61187185D01*
X119539292Y-61239097D01*
X119541965Y-61244830D01*
X119677501Y-61438396D01*
X119677506Y-61438402D01*
X119799818Y-61560714D01*
X119833303Y-61622037D01*
X119828319Y-61691729D01*
X119786447Y-61747662D01*
X119755471Y-61764577D01*
X119623912Y-61813646D01*
X119623906Y-61813649D01*
X119508812Y-61899809D01*
X119508809Y-61899812D01*
X119422649Y-62014906D01*
X119422645Y-62014913D01*
X119372403Y-62149620D01*
X119372401Y-62149627D01*
X119366000Y-62209155D01*
X119366000Y-62857000D01*
X120282988Y-62857000D01*
X120250075Y-62914007D01*
X120216000Y-63041174D01*
X120216000Y-63172826D01*
X120250075Y-63299993D01*
X120282988Y-63357000D01*
X119366000Y-63357000D01*
X119366000Y-64004844D01*
X119372401Y-64064372D01*
X119372403Y-64064379D01*
X119422645Y-64199086D01*
X119422649Y-64199093D01*
X119508809Y-64314187D01*
X119508812Y-64314190D01*
X119623906Y-64400350D01*
X119623913Y-64400354D01*
X119758620Y-64450596D01*
X119758627Y-64450598D01*
X119818155Y-64456999D01*
X119818172Y-64457000D01*
X120466000Y-64457000D01*
X120466000Y-63540012D01*
X120523007Y-63572925D01*
X120650174Y-63607000D01*
X120781826Y-63607000D01*
X120908993Y-63572925D01*
X120966000Y-63540012D01*
X120966000Y-64457000D01*
X121613828Y-64457000D01*
X121613844Y-64456999D01*
X121673372Y-64450598D01*
X121673379Y-64450596D01*
X121808086Y-64400354D01*
X121808093Y-64400350D01*
X121923187Y-64314190D01*
X121923190Y-64314187D01*
X122009350Y-64199093D01*
X122009354Y-64199086D01*
X122059596Y-64064379D01*
X122059598Y-64064372D01*
X122065999Y-64004844D01*
X122066000Y-64004827D01*
X122066000Y-63357000D01*
X121149012Y-63357000D01*
X121181925Y-63299993D01*
X121216000Y-63172826D01*
X121216000Y-63041174D01*
X121181925Y-62914007D01*
X121149012Y-62857000D01*
X122066000Y-62857000D01*
X122066000Y-62209172D01*
X122065999Y-62209155D01*
X122059598Y-62149627D01*
X122059596Y-62149620D01*
X122009354Y-62014913D01*
X122009350Y-62014906D01*
X121923190Y-61899812D01*
X121923187Y-61899809D01*
X121808093Y-61813649D01*
X121808088Y-61813646D01*
X121676528Y-61764577D01*
X121620595Y-61722705D01*
X121596178Y-61657241D01*
X121611030Y-61588968D01*
X121632175Y-61560720D01*
X121754495Y-61438401D01*
X121890035Y-61244830D01*
X121989903Y-61030663D01*
X122051063Y-60802408D01*
X122071659Y-60567000D01*
X122051063Y-60331592D01*
X121989903Y-60103337D01*
X121890035Y-59889171D01*
X121890034Y-59889169D01*
X121754494Y-59695597D01*
X121587402Y-59528506D01*
X121587396Y-59528501D01*
X121401842Y-59398575D01*
X121358217Y-59343998D01*
X121351023Y-59274500D01*
X121382546Y-59212145D01*
X121401842Y-59195425D01*
X121448291Y-59162901D01*
X121587401Y-59065495D01*
X121754495Y-58898401D01*
X121890035Y-58704830D01*
X121989903Y-58490663D01*
X122051063Y-58262408D01*
X122071659Y-58027000D01*
X122051063Y-57791592D01*
X122004626Y-57618285D01*
X121989905Y-57563344D01*
X121989904Y-57563343D01*
X121989903Y-57563337D01*
X121890035Y-57349171D01*
X121890034Y-57349169D01*
X121754494Y-57155597D01*
X121587402Y-56988506D01*
X121587396Y-56988501D01*
X121401842Y-56858575D01*
X121358217Y-56803998D01*
X121351023Y-56734500D01*
X121382546Y-56672145D01*
X121401842Y-56655425D01*
X121456301Y-56617292D01*
X121587401Y-56525495D01*
X121715228Y-56397668D01*
X121776551Y-56364183D01*
X121846243Y-56369167D01*
G37*
%TD.AperFunction*%
%TA.AperFunction,Conductor*%
G36*
X84538000Y-38332230D02*
G01*
X84604126Y-38321757D01*
X84604129Y-38321757D01*
X84806217Y-38256095D01*
X84995557Y-38159620D01*
X85167459Y-38034727D01*
X85167464Y-38034723D01*
X85317721Y-37884466D01*
X85437371Y-37719781D01*
X85492701Y-37677115D01*
X85562314Y-37671136D01*
X85624110Y-37703741D01*
X85638008Y-37719781D01*
X85757890Y-37884785D01*
X85757894Y-37884790D01*
X85790332Y-37917228D01*
X85823817Y-37978551D01*
X85818833Y-38048243D01*
X85790332Y-38092590D01*
X77472210Y-46410712D01*
X71438703Y-52444217D01*
X71377380Y-52477702D01*
X71307688Y-52472718D01*
X71251755Y-52430846D01*
X71231247Y-52388629D01*
X71201741Y-52278511D01*
X71201738Y-52278502D01*
X71105568Y-52072267D01*
X71105567Y-52072265D01*
X70975045Y-51885858D01*
X70814141Y-51724954D01*
X70627734Y-51594432D01*
X70627732Y-51594431D01*
X70421497Y-51498261D01*
X70421488Y-51498258D01*
X70201697Y-51439366D01*
X70201693Y-51439365D01*
X70201692Y-51439365D01*
X70201691Y-51439364D01*
X70201686Y-51439364D01*
X69975002Y-51419532D01*
X69974998Y-51419532D01*
X69748313Y-51439364D01*
X69748302Y-51439366D01*
X69528511Y-51498258D01*
X69528502Y-51498261D01*
X69322267Y-51594431D01*
X69322265Y-51594432D01*
X69135858Y-51724954D01*
X68974954Y-51885858D01*
X68844432Y-52072265D01*
X68844431Y-52072267D01*
X68748261Y-52278502D01*
X68748258Y-52278511D01*
X68689366Y-52498302D01*
X68689364Y-52498313D01*
X68669532Y-52724998D01*
X68669532Y-52725001D01*
X68689364Y-52951686D01*
X68689366Y-52951697D01*
X68748258Y-53171488D01*
X68748261Y-53171497D01*
X68844431Y-53377732D01*
X68844432Y-53377734D01*
X68974954Y-53564141D01*
X69135858Y-53725045D01*
X69135861Y-53725047D01*
X69322266Y-53855568D01*
X69528504Y-53951739D01*
X69528509Y-53951740D01*
X69528511Y-53951741D01*
X69550344Y-53957591D01*
X69748308Y-54010635D01*
X69910230Y-54024801D01*
X69974998Y-54030468D01*
X69974999Y-54030468D01*
X69974999Y-54030467D01*
X69975000Y-54030468D01*
X70054692Y-54023495D01*
X70123191Y-54037261D01*
X70173375Y-54085876D01*
X70189500Y-54147023D01*
X70189500Y-55330500D01*
X70169815Y-55397539D01*
X70117011Y-55443294D01*
X70065502Y-55454500D01*
X69989630Y-55454500D01*
X69989623Y-55454501D01*
X69930016Y-55460908D01*
X69795171Y-55511202D01*
X69795164Y-55511206D01*
X69679955Y-55597452D01*
X69679952Y-55597455D01*
X69593706Y-55712664D01*
X69593702Y-55712671D01*
X69583127Y-55741026D01*
X69541256Y-55796960D01*
X69475791Y-55821377D01*
X69407518Y-55806525D01*
X69394060Y-55798011D01*
X69211279Y-55665213D01*
X69007568Y-55561417D01*
X68790124Y-55490765D01*
X68700000Y-55476490D01*
X68700000Y-56464252D01*
X68662292Y-56442482D01*
X68522409Y-56405000D01*
X68377591Y-56405000D01*
X68237708Y-56442482D01*
X68200000Y-56464252D01*
X68200000Y-55476490D01*
X68199999Y-55476490D01*
X68109875Y-55490765D01*
X67892431Y-55561417D01*
X67688723Y-55665211D01*
X67503757Y-55799597D01*
X67342097Y-55961257D01*
X67280627Y-56045864D01*
X67225297Y-56088529D01*
X67155684Y-56094508D01*
X67093889Y-56061902D01*
X67079991Y-56045864D01*
X67018286Y-55960934D01*
X66856566Y-55799214D01*
X66761613Y-55730226D01*
X66718949Y-55674896D01*
X66710500Y-55629909D01*
X66710500Y-53606155D01*
X66710499Y-53606153D01*
X66702142Y-53564139D01*
X66679737Y-53451503D01*
X66649181Y-53377734D01*
X66619397Y-53305827D01*
X66619390Y-53305814D01*
X66531790Y-53174712D01*
X66500500Y-53143422D01*
X66420289Y-53063211D01*
X66282404Y-52925326D01*
X66248919Y-52864003D01*
X66246557Y-52826842D01*
X66255468Y-52725000D01*
X66235635Y-52498308D01*
X66176739Y-52278504D01*
X66080568Y-52072266D01*
X65950047Y-51885861D01*
X65950045Y-51885858D01*
X65789141Y-51724954D01*
X65602734Y-51594432D01*
X65602732Y-51594431D01*
X65396497Y-51498261D01*
X65396488Y-51498258D01*
X65176697Y-51439366D01*
X65176693Y-51439365D01*
X65176692Y-51439365D01*
X65176691Y-51439364D01*
X65176686Y-51439364D01*
X64950002Y-51419532D01*
X64949998Y-51419532D01*
X64723313Y-51439364D01*
X64723302Y-51439366D01*
X64503511Y-51498258D01*
X64503502Y-51498261D01*
X64297267Y-51594431D01*
X64297265Y-51594432D01*
X64110858Y-51724954D01*
X63949954Y-51885858D01*
X63819432Y-52072265D01*
X63819431Y-52072267D01*
X63723261Y-52278502D01*
X63723258Y-52278511D01*
X63664366Y-52498302D01*
X63664364Y-52498313D01*
X63644532Y-52724998D01*
X63644532Y-52725001D01*
X63664364Y-52951686D01*
X63664366Y-52951697D01*
X63723258Y-53171488D01*
X63723261Y-53171497D01*
X63819431Y-53377732D01*
X63819432Y-53377734D01*
X63949954Y-53564141D01*
X64110858Y-53725045D01*
X64110861Y-53725047D01*
X64297266Y-53855568D01*
X64503504Y-53951739D01*
X64503509Y-53951740D01*
X64503511Y-53951741D01*
X64525344Y-53957591D01*
X64723308Y-54010635D01*
X64950000Y-54030468D01*
X64974692Y-54028307D01*
X65043190Y-54042072D01*
X65093374Y-54090686D01*
X65109500Y-54151835D01*
X65109500Y-55629909D01*
X65089815Y-55696948D01*
X65058386Y-55730227D01*
X64963432Y-55799215D01*
X64801716Y-55960931D01*
X64801716Y-55960932D01*
X64801714Y-55960934D01*
X64772066Y-56001741D01*
X64667283Y-56145961D01*
X64563450Y-56349744D01*
X64492778Y-56567250D01*
X64492778Y-56567253D01*
X64457000Y-56793146D01*
X64457000Y-57116853D01*
X64492778Y-57342746D01*
X64492778Y-57342749D01*
X64563450Y-57560255D01*
X64653216Y-57736430D01*
X64667283Y-57764038D01*
X64801714Y-57949066D01*
X64963434Y-58110786D01*
X65058388Y-58179774D01*
X65101051Y-58235100D01*
X65109500Y-58280089D01*
X65109500Y-67238248D01*
X65089815Y-67305287D01*
X65037011Y-67351042D01*
X64967853Y-67360986D01*
X64904297Y-67331961D01*
X64897819Y-67325929D01*
X63011819Y-65439929D01*
X62978334Y-65378606D01*
X62975500Y-65352248D01*
X62975500Y-47724997D01*
X63645034Y-47724997D01*
X63645034Y-47725002D01*
X63664858Y-47951599D01*
X63664860Y-47951610D01*
X63723730Y-48171317D01*
X63723735Y-48171331D01*
X63819863Y-48377478D01*
X63870974Y-48450472D01*
X64550000Y-47771446D01*
X64550000Y-47777661D01*
X64577259Y-47879394D01*
X64629920Y-47970606D01*
X64704394Y-48045080D01*
X64795606Y-48097741D01*
X64897339Y-48125000D01*
X64903553Y-48125000D01*
X64224526Y-48804025D01*
X64297513Y-48855132D01*
X64297521Y-48855136D01*
X64503668Y-48951264D01*
X64503682Y-48951269D01*
X64723389Y-49010139D01*
X64723400Y-49010141D01*
X64949998Y-49029966D01*
X64950002Y-49029966D01*
X65176599Y-49010141D01*
X65176610Y-49010139D01*
X65396317Y-48951269D01*
X65396331Y-48951264D01*
X65602478Y-48855136D01*
X65675471Y-48804024D01*
X64996447Y-48125000D01*
X65002661Y-48125000D01*
X65104394Y-48097741D01*
X65195606Y-48045080D01*
X65270080Y-47970606D01*
X65322741Y-47879394D01*
X65350000Y-47777661D01*
X65350000Y-47771447D01*
X66029024Y-48450471D01*
X66080136Y-48377478D01*
X66176264Y-48171331D01*
X66176269Y-48171317D01*
X66235139Y-47951610D01*
X66235141Y-47951599D01*
X66254966Y-47725002D01*
X66254966Y-47724997D01*
X68670034Y-47724997D01*
X68670034Y-47725002D01*
X68689858Y-47951599D01*
X68689860Y-47951610D01*
X68748730Y-48171317D01*
X68748735Y-48171331D01*
X68844863Y-48377478D01*
X68895974Y-48450472D01*
X69575000Y-47771446D01*
X69575000Y-47777661D01*
X69602259Y-47879394D01*
X69654920Y-47970606D01*
X69729394Y-48045080D01*
X69820606Y-48097741D01*
X69922339Y-48125000D01*
X69928553Y-48125000D01*
X69249526Y-48804025D01*
X69322513Y-48855132D01*
X69322521Y-48855136D01*
X69528668Y-48951264D01*
X69528682Y-48951269D01*
X69748389Y-49010139D01*
X69748400Y-49010141D01*
X69974998Y-49029966D01*
X69975002Y-49029966D01*
X70201599Y-49010141D01*
X70201610Y-49010139D01*
X70421317Y-48951269D01*
X70421331Y-48951264D01*
X70627478Y-48855136D01*
X70700471Y-48804024D01*
X70021447Y-48125000D01*
X70027661Y-48125000D01*
X70129394Y-48097741D01*
X70220606Y-48045080D01*
X70295080Y-47970606D01*
X70347741Y-47879394D01*
X70375000Y-47777661D01*
X70375000Y-47771447D01*
X71054024Y-48450471D01*
X71105136Y-48377478D01*
X71201264Y-48171331D01*
X71201269Y-48171317D01*
X71260139Y-47951610D01*
X71260141Y-47951599D01*
X71279966Y-47725002D01*
X71279966Y-47724997D01*
X71260141Y-47498400D01*
X71260139Y-47498389D01*
X71201269Y-47278682D01*
X71201264Y-47278668D01*
X71105136Y-47072521D01*
X71105132Y-47072513D01*
X71054025Y-46999526D01*
X70375000Y-47678551D01*
X70375000Y-47672339D01*
X70347741Y-47570606D01*
X70295080Y-47479394D01*
X70220606Y-47404920D01*
X70129394Y-47352259D01*
X70027661Y-47325000D01*
X70021448Y-47325000D01*
X70700472Y-46645974D01*
X70627478Y-46594863D01*
X70421331Y-46498735D01*
X70421317Y-46498730D01*
X70201610Y-46439860D01*
X70201599Y-46439858D01*
X69975002Y-46420034D01*
X69974998Y-46420034D01*
X69748400Y-46439858D01*
X69748389Y-46439860D01*
X69528682Y-46498730D01*
X69528673Y-46498734D01*
X69322516Y-46594866D01*
X69322512Y-46594868D01*
X69249526Y-46645973D01*
X69249526Y-46645974D01*
X69928553Y-47325000D01*
X69922339Y-47325000D01*
X69820606Y-47352259D01*
X69729394Y-47404920D01*
X69654920Y-47479394D01*
X69602259Y-47570606D01*
X69575000Y-47672339D01*
X69575000Y-47678552D01*
X68895974Y-46999526D01*
X68895973Y-46999526D01*
X68844868Y-47072512D01*
X68844866Y-47072516D01*
X68748734Y-47278673D01*
X68748730Y-47278682D01*
X68689860Y-47498389D01*
X68689858Y-47498400D01*
X68670034Y-47724997D01*
X66254966Y-47724997D01*
X66235141Y-47498400D01*
X66235139Y-47498389D01*
X66176269Y-47278682D01*
X66176264Y-47278668D01*
X66080136Y-47072521D01*
X66080132Y-47072513D01*
X66029025Y-46999526D01*
X65350000Y-47678551D01*
X65350000Y-47672339D01*
X65322741Y-47570606D01*
X65270080Y-47479394D01*
X65195606Y-47404920D01*
X65104394Y-47352259D01*
X65002661Y-47325000D01*
X64996448Y-47325000D01*
X65675472Y-46645974D01*
X65602478Y-46594863D01*
X65396331Y-46498735D01*
X65396317Y-46498730D01*
X65176610Y-46439860D01*
X65176599Y-46439858D01*
X64950002Y-46420034D01*
X64949998Y-46420034D01*
X64723400Y-46439858D01*
X64723389Y-46439860D01*
X64503682Y-46498730D01*
X64503673Y-46498734D01*
X64297516Y-46594866D01*
X64297512Y-46594868D01*
X64224526Y-46645973D01*
X64224526Y-46645974D01*
X64903553Y-47325000D01*
X64897339Y-47325000D01*
X64795606Y-47352259D01*
X64704394Y-47404920D01*
X64629920Y-47479394D01*
X64577259Y-47570606D01*
X64550000Y-47672339D01*
X64550000Y-47678552D01*
X63870974Y-46999526D01*
X63870973Y-46999526D01*
X63819868Y-47072512D01*
X63819866Y-47072516D01*
X63723734Y-47278673D01*
X63723730Y-47278682D01*
X63664860Y-47498389D01*
X63664858Y-47498400D01*
X63645034Y-47724997D01*
X62975500Y-47724997D01*
X62975500Y-45125097D01*
X62995185Y-45058058D01*
X63011819Y-45037416D01*
X70532417Y-37516819D01*
X70593740Y-37483334D01*
X70620098Y-37480500D01*
X77938591Y-37480500D01*
X78005630Y-37500185D01*
X78049075Y-37548204D01*
X78114975Y-37677540D01*
X78132951Y-37712820D01*
X78257890Y-37884786D01*
X78408213Y-38035109D01*
X78580179Y-38160048D01*
X78580181Y-38160049D01*
X78580184Y-38160051D01*
X78769588Y-38256557D01*
X78971757Y-38322246D01*
X79181713Y-38355500D01*
X79181714Y-38355500D01*
X79394286Y-38355500D01*
X79394287Y-38355500D01*
X79604243Y-38322246D01*
X79806412Y-38256557D01*
X79995816Y-38160051D01*
X80088669Y-38092590D01*
X80167786Y-38035109D01*
X80167788Y-38035106D01*
X80167792Y-38035104D01*
X80318104Y-37884792D01*
X80437683Y-37720204D01*
X80493011Y-37677540D01*
X80562624Y-37671561D01*
X80624420Y-37704166D01*
X80638313Y-37720199D01*
X80697367Y-37801480D01*
X80757896Y-37884792D01*
X80908213Y-38035109D01*
X81080179Y-38160048D01*
X81080181Y-38160049D01*
X81080184Y-38160051D01*
X81269588Y-38256557D01*
X81471757Y-38322246D01*
X81681713Y-38355500D01*
X81681714Y-38355500D01*
X81894286Y-38355500D01*
X81894287Y-38355500D01*
X82104243Y-38322246D01*
X82306412Y-38256557D01*
X82495816Y-38160051D01*
X82588669Y-38092590D01*
X82667786Y-38035109D01*
X82667788Y-38035106D01*
X82667792Y-38035104D01*
X82818104Y-37884792D01*
X82937991Y-37719779D01*
X82993320Y-37677115D01*
X83062933Y-37671136D01*
X83124729Y-37703741D01*
X83138627Y-37719781D01*
X83258272Y-37884459D01*
X83258276Y-37884464D01*
X83408535Y-38034723D01*
X83408540Y-38034727D01*
X83580442Y-38159620D01*
X83769782Y-38256095D01*
X83971871Y-38321757D01*
X84038000Y-38332231D01*
X84038000Y-37284145D01*
X84104657Y-37322630D01*
X84225465Y-37355000D01*
X84350535Y-37355000D01*
X84471343Y-37322630D01*
X84538000Y-37284145D01*
X84538000Y-38332230D01*
G37*
%TD.AperFunction*%
%TA.AperFunction,Conductor*%
G36*
X110940615Y-37901174D02*
G01*
X110996549Y-37943045D01*
X111002821Y-37952259D01*
X111006185Y-37957714D01*
X111006186Y-37957715D01*
X111098288Y-38107037D01*
X111222344Y-38231093D01*
X111371666Y-38323195D01*
X111405500Y-38334406D01*
X111462947Y-38374177D01*
X111489772Y-38438692D01*
X111490500Y-38452113D01*
X111490500Y-44944846D01*
X111521261Y-45099489D01*
X111521264Y-45099501D01*
X111581602Y-45245172D01*
X111581609Y-45245185D01*
X111669210Y-45376288D01*
X111669213Y-45376292D01*
X114338181Y-48045259D01*
X114371666Y-48106582D01*
X114374500Y-48132940D01*
X114374500Y-53092060D01*
X114354815Y-53159099D01*
X114338181Y-53179741D01*
X113920455Y-53597466D01*
X113859132Y-53630951D01*
X113789440Y-53625967D01*
X113733507Y-53584095D01*
X113732456Y-53582670D01*
X113718994Y-53564141D01*
X113685786Y-53518434D01*
X113524066Y-53356714D01*
X113439134Y-53295007D01*
X113396470Y-53239678D01*
X113390491Y-53170064D01*
X113423097Y-53108269D01*
X113439137Y-53094371D01*
X113523739Y-53032905D01*
X113685402Y-52871242D01*
X113819788Y-52686276D01*
X113923582Y-52482570D01*
X113994234Y-52265128D01*
X114008509Y-52175000D01*
X113020748Y-52175000D01*
X113042518Y-52137292D01*
X113080000Y-51997409D01*
X113080000Y-51852591D01*
X113042518Y-51712708D01*
X113020748Y-51675000D01*
X114008509Y-51675000D01*
X113994234Y-51584871D01*
X113923582Y-51367429D01*
X113819788Y-51163723D01*
X113686988Y-50980940D01*
X113663508Y-50915133D01*
X113679333Y-50847079D01*
X113729439Y-50798384D01*
X113743966Y-50791875D01*
X113772331Y-50781296D01*
X113887546Y-50695046D01*
X113973796Y-50579831D01*
X114024091Y-50444983D01*
X114030500Y-50385373D01*
X114030499Y-48384628D01*
X114024091Y-48325017D01*
X114024085Y-48325002D01*
X113973797Y-48190171D01*
X113973793Y-48190164D01*
X113887547Y-48074955D01*
X113887544Y-48074952D01*
X113772335Y-47988706D01*
X113772328Y-47988702D01*
X113637482Y-47938408D01*
X113637483Y-47938408D01*
X113577883Y-47932001D01*
X113577881Y-47932000D01*
X113577873Y-47932000D01*
X113577865Y-47932000D01*
X112260440Y-47932000D01*
X112193401Y-47912315D01*
X112172759Y-47895681D01*
X111980292Y-47703213D01*
X111980288Y-47703210D01*
X111849185Y-47615609D01*
X111849172Y-47615602D01*
X111703501Y-47555264D01*
X111703489Y-47555261D01*
X111548845Y-47524500D01*
X111548842Y-47524500D01*
X110690548Y-47524500D01*
X110623509Y-47504815D01*
X110577754Y-47452011D01*
X110567810Y-47382853D01*
X110568931Y-47376309D01*
X110591499Y-47262846D01*
X110591500Y-47262843D01*
X110591500Y-38189274D01*
X110611185Y-38122235D01*
X110642614Y-38088957D01*
X110670792Y-38068485D01*
X110809604Y-37929672D01*
X110870923Y-37896190D01*
X110940615Y-37901174D01*
G37*
%TD.AperFunction*%
%TA.AperFunction,Conductor*%
G36*
X122341942Y-34495185D02*
G01*
X122362584Y-34511819D01*
X129744162Y-41893398D01*
X129777647Y-41954721D01*
X129772663Y-42024413D01*
X129730791Y-42080346D01*
X129708886Y-42093461D01*
X129624171Y-42132964D01*
X129624169Y-42132965D01*
X129430597Y-42268505D01*
X129263505Y-42435597D01*
X129133575Y-42621158D01*
X129078998Y-42664783D01*
X129009500Y-42671977D01*
X128947145Y-42640454D01*
X128930425Y-42621158D01*
X128800494Y-42435597D01*
X128633402Y-42268506D01*
X128633395Y-42268501D01*
X128439834Y-42132967D01*
X128439830Y-42132965D01*
X128434085Y-42130286D01*
X128225663Y-42033097D01*
X128225659Y-42033096D01*
X128225655Y-42033094D01*
X127997413Y-41971938D01*
X127997403Y-41971936D01*
X127762001Y-41951341D01*
X127761999Y-41951341D01*
X127526596Y-41971936D01*
X127526586Y-41971938D01*
X127298344Y-42033094D01*
X127298335Y-42033098D01*
X127084171Y-42132964D01*
X127084169Y-42132965D01*
X126890597Y-42268505D01*
X126723505Y-42435597D01*
X126593575Y-42621158D01*
X126538998Y-42664783D01*
X126469500Y-42671977D01*
X126407145Y-42640454D01*
X126390425Y-42621158D01*
X126260494Y-42435597D01*
X126093402Y-42268506D01*
X126093395Y-42268501D01*
X125899834Y-42132967D01*
X125899830Y-42132965D01*
X125894085Y-42130286D01*
X125685663Y-42033097D01*
X125685659Y-42033096D01*
X125685655Y-42033094D01*
X125457413Y-41971938D01*
X125457403Y-41971936D01*
X125222001Y-41951341D01*
X125221999Y-41951341D01*
X124986596Y-41971936D01*
X124986586Y-41971938D01*
X124758344Y-42033094D01*
X124758335Y-42033098D01*
X124544171Y-42132964D01*
X124544169Y-42132965D01*
X124350597Y-42268505D01*
X124183505Y-42435597D01*
X124053575Y-42621158D01*
X123998998Y-42664783D01*
X123929500Y-42671977D01*
X123867145Y-42640454D01*
X123850425Y-42621158D01*
X123720494Y-42435597D01*
X123553402Y-42268506D01*
X123553395Y-42268501D01*
X123359834Y-42132967D01*
X123359830Y-42132965D01*
X123354085Y-42130286D01*
X123145663Y-42033097D01*
X123145659Y-42033096D01*
X123145655Y-42033094D01*
X122917413Y-41971938D01*
X122917403Y-41971936D01*
X122682001Y-41951341D01*
X122681999Y-41951341D01*
X122446596Y-41971936D01*
X122446586Y-41971938D01*
X122218344Y-42033094D01*
X122218335Y-42033098D01*
X122004171Y-42132964D01*
X122004169Y-42132965D01*
X121810597Y-42268505D01*
X121643505Y-42435597D01*
X121513575Y-42621158D01*
X121458998Y-42664783D01*
X121389500Y-42671977D01*
X121327145Y-42640454D01*
X121310425Y-42621158D01*
X121180494Y-42435597D01*
X121013402Y-42268506D01*
X121013395Y-42268501D01*
X120819834Y-42132967D01*
X120819830Y-42132965D01*
X120814085Y-42130286D01*
X120605663Y-42033097D01*
X120605659Y-42033096D01*
X120605655Y-42033094D01*
X120377413Y-41971938D01*
X120377403Y-41971936D01*
X120142001Y-41951341D01*
X120141999Y-41951341D01*
X119906596Y-41971936D01*
X119906586Y-41971938D01*
X119678344Y-42033094D01*
X119678335Y-42033098D01*
X119464171Y-42132964D01*
X119464169Y-42132965D01*
X119270597Y-42268505D01*
X119103505Y-42435597D01*
X118967965Y-42629169D01*
X118967964Y-42629171D01*
X118868098Y-42843335D01*
X118868094Y-42843344D01*
X118806938Y-43071586D01*
X118806936Y-43071596D01*
X118786341Y-43306999D01*
X118786341Y-43307000D01*
X118806936Y-43542403D01*
X118806938Y-43542413D01*
X118868094Y-43770655D01*
X118868096Y-43770659D01*
X118868097Y-43770663D01*
X118948004Y-43942023D01*
X118967965Y-43984830D01*
X118967967Y-43984834D01*
X119042029Y-44090604D01*
X119103505Y-44178401D01*
X119270599Y-44345495D01*
X119367384Y-44413265D01*
X119464165Y-44481032D01*
X119464167Y-44481033D01*
X119464170Y-44481035D01*
X119678337Y-44580903D01*
X119678343Y-44580904D01*
X119678344Y-44580905D01*
X119733285Y-44595626D01*
X119906592Y-44642063D01*
X120083034Y-44657500D01*
X120141999Y-44662659D01*
X120142000Y-44662659D01*
X120142001Y-44662659D01*
X120200966Y-44657500D01*
X120377408Y-44642063D01*
X120605663Y-44580903D01*
X120819830Y-44481035D01*
X121013401Y-44345495D01*
X121180495Y-44178401D01*
X121310425Y-43992842D01*
X121365002Y-43949217D01*
X121434500Y-43942023D01*
X121496855Y-43973546D01*
X121513575Y-43992842D01*
X121643500Y-44178395D01*
X121643505Y-44178401D01*
X121810599Y-44345495D01*
X121907384Y-44413265D01*
X122004165Y-44481032D01*
X122004167Y-44481033D01*
X122004170Y-44481035D01*
X122218337Y-44580903D01*
X122218343Y-44580904D01*
X122218344Y-44580905D01*
X122273285Y-44595626D01*
X122446592Y-44642063D01*
X122623034Y-44657500D01*
X122681999Y-44662659D01*
X122682000Y-44662659D01*
X122682001Y-44662659D01*
X122740966Y-44657500D01*
X122917408Y-44642063D01*
X123145663Y-44580903D01*
X123359830Y-44481035D01*
X123553401Y-44345495D01*
X123720495Y-44178401D01*
X123850425Y-43992842D01*
X123905002Y-43949217D01*
X123974500Y-43942023D01*
X124036855Y-43973546D01*
X124053575Y-43992842D01*
X124183500Y-44178395D01*
X124183505Y-44178401D01*
X124350599Y-44345495D01*
X124447384Y-44413265D01*
X124544165Y-44481032D01*
X124544167Y-44481033D01*
X124544170Y-44481035D01*
X124758337Y-44580903D01*
X124758343Y-44580904D01*
X124758344Y-44580905D01*
X124813285Y-44595626D01*
X124986592Y-44642063D01*
X125163034Y-44657500D01*
X125221999Y-44662659D01*
X125222000Y-44662659D01*
X125222001Y-44662659D01*
X125280966Y-44657500D01*
X125457408Y-44642063D01*
X125685663Y-44580903D01*
X125899830Y-44481035D01*
X126093401Y-44345495D01*
X126260495Y-44178401D01*
X126390425Y-43992842D01*
X126445002Y-43949217D01*
X126514500Y-43942023D01*
X126576855Y-43973546D01*
X126593575Y-43992842D01*
X126723500Y-44178395D01*
X126723505Y-44178401D01*
X126890599Y-44345495D01*
X126987384Y-44413265D01*
X127084165Y-44481032D01*
X127084167Y-44481033D01*
X127084170Y-44481035D01*
X127298337Y-44580903D01*
X127298343Y-44580904D01*
X127298344Y-44580905D01*
X127353285Y-44595626D01*
X127526592Y-44642063D01*
X127703034Y-44657500D01*
X127761999Y-44662659D01*
X127762000Y-44662659D01*
X127762001Y-44662659D01*
X127820966Y-44657500D01*
X127997408Y-44642063D01*
X128225663Y-44580903D01*
X128439830Y-44481035D01*
X128633401Y-44345495D01*
X128800495Y-44178401D01*
X128930425Y-43992842D01*
X128985002Y-43949217D01*
X129054500Y-43942023D01*
X129116855Y-43973546D01*
X129133575Y-43992842D01*
X129263500Y-44178395D01*
X129263505Y-44178401D01*
X129430599Y-44345495D01*
X129527384Y-44413265D01*
X129624165Y-44481032D01*
X129624167Y-44481033D01*
X129624170Y-44481035D01*
X129838337Y-44580903D01*
X129838343Y-44580904D01*
X129838344Y-44580905D01*
X129893285Y-44595626D01*
X130066592Y-44642063D01*
X130243034Y-44657500D01*
X130301999Y-44662659D01*
X130302000Y-44662659D01*
X130302001Y-44662659D01*
X130360966Y-44657500D01*
X130537408Y-44642063D01*
X130765663Y-44580903D01*
X130902482Y-44517102D01*
X130971560Y-44506611D01*
X131035344Y-44535131D01*
X131042568Y-44541804D01*
X131090349Y-44589585D01*
X131090355Y-44589590D01*
X132490139Y-45989374D01*
X132490149Y-45989385D01*
X132494479Y-45993715D01*
X132494480Y-45993716D01*
X132606284Y-46105520D01*
X132693095Y-46155639D01*
X132693097Y-46155641D01*
X132743213Y-46184576D01*
X132743215Y-46184577D01*
X132895942Y-46225500D01*
X132895943Y-46225500D01*
X137163331Y-46225500D01*
X137163347Y-46225501D01*
X137170943Y-46225501D01*
X137329054Y-46225501D01*
X137329057Y-46225501D01*
X137481785Y-46184577D01*
X137531904Y-46155639D01*
X137618716Y-46105520D01*
X137730520Y-45993716D01*
X137730520Y-45993714D01*
X137740728Y-45983507D01*
X137740729Y-45983504D01*
X138402520Y-45321716D01*
X138481577Y-45184784D01*
X138522501Y-45032057D01*
X138522501Y-44873942D01*
X138522501Y-44866347D01*
X138522500Y-44866329D01*
X138522500Y-44596090D01*
X138542185Y-44529051D01*
X138594101Y-44483706D01*
X138599830Y-44481035D01*
X138793401Y-44345495D01*
X138960495Y-44178401D01*
X139090730Y-43992405D01*
X139145307Y-43948781D01*
X139214805Y-43941587D01*
X139277160Y-43973110D01*
X139293879Y-43992405D01*
X139423890Y-44178078D01*
X139590917Y-44345105D01*
X139784421Y-44480600D01*
X139998507Y-44580429D01*
X139998516Y-44580433D01*
X140212000Y-44637634D01*
X140212000Y-43740012D01*
X140269007Y-43772925D01*
X140396174Y-43807000D01*
X140527826Y-43807000D01*
X140654993Y-43772925D01*
X140712000Y-43740012D01*
X140712000Y-44637633D01*
X140925483Y-44580433D01*
X140925492Y-44580429D01*
X141139578Y-44480600D01*
X141333078Y-44345108D01*
X141455133Y-44223053D01*
X141516456Y-44189568D01*
X141586148Y-44194552D01*
X141642082Y-44236423D01*
X141658997Y-44267401D01*
X141708202Y-44399328D01*
X141708206Y-44399335D01*
X141794452Y-44514544D01*
X141794455Y-44514547D01*
X141909664Y-44600793D01*
X141909673Y-44600798D01*
X141971027Y-44623681D01*
X142026961Y-44665551D01*
X142051379Y-44731015D01*
X142036528Y-44799288D01*
X142015376Y-44827544D01*
X139929741Y-46913181D01*
X139868418Y-46946666D01*
X139842060Y-46949500D01*
X115557940Y-46949500D01*
X115490901Y-46929815D01*
X115470259Y-46913181D01*
X113127819Y-44570741D01*
X113094334Y-44509418D01*
X113091500Y-44483060D01*
X113091500Y-38452113D01*
X113111185Y-38385074D01*
X113163989Y-38339319D01*
X113176495Y-38334407D01*
X113210334Y-38323195D01*
X113359656Y-38231093D01*
X113483712Y-38107037D01*
X113575814Y-37957715D01*
X113630999Y-37791178D01*
X113641500Y-37688390D01*
X113641499Y-36138373D01*
X113639851Y-36122244D01*
X113630999Y-36035584D01*
X113630998Y-36035581D01*
X113575814Y-35869047D01*
X113483712Y-35719725D01*
X113359656Y-35595669D01*
X113256093Y-35531791D01*
X113210336Y-35503568D01*
X113210331Y-35503566D01*
X113207603Y-35502662D01*
X113043797Y-35448382D01*
X113043795Y-35448381D01*
X112941010Y-35437881D01*
X111640998Y-35437881D01*
X111640981Y-35437882D01*
X111538203Y-35448381D01*
X111538200Y-35448382D01*
X111371668Y-35503566D01*
X111371663Y-35503568D01*
X111222342Y-35595670D01*
X111098289Y-35719723D01*
X111002821Y-35874502D01*
X110950873Y-35921226D01*
X110881910Y-35932449D01*
X110817828Y-35904605D01*
X110809601Y-35897086D01*
X110670786Y-35758271D01*
X110498820Y-35633332D01*
X110309414Y-35536825D01*
X110309413Y-35536824D01*
X110309412Y-35536824D01*
X110107243Y-35471135D01*
X110107241Y-35471134D01*
X110107240Y-35471134D01*
X109945957Y-35445589D01*
X109897287Y-35437881D01*
X109684713Y-35437881D01*
X109636042Y-35445589D01*
X109474760Y-35471134D01*
X109272585Y-35536825D01*
X109083179Y-35633332D01*
X108911213Y-35758271D01*
X108760894Y-35908590D01*
X108760890Y-35908595D01*
X108641008Y-36073599D01*
X108585678Y-36116265D01*
X108516065Y-36122244D01*
X108454270Y-36089638D01*
X108440372Y-36073599D01*
X108320727Y-35908921D01*
X108320723Y-35908916D01*
X108170464Y-35758657D01*
X108170459Y-35758653D01*
X107998557Y-35633760D01*
X107809215Y-35537284D01*
X107607124Y-35471622D01*
X107541000Y-35461149D01*
X107541000Y-36509235D01*
X107474343Y-36470751D01*
X107353535Y-36438381D01*
X107228465Y-36438381D01*
X107107657Y-36470751D01*
X107041000Y-36509235D01*
X107041000Y-35461149D01*
X107040999Y-35461149D01*
X106974875Y-35471622D01*
X106772784Y-35537284D01*
X106583442Y-35633760D01*
X106411540Y-35758653D01*
X106411535Y-35758657D01*
X106261276Y-35908916D01*
X106261272Y-35908921D01*
X106141627Y-36073599D01*
X106086297Y-36116265D01*
X106016684Y-36122244D01*
X105954889Y-36089638D01*
X105940991Y-36073599D01*
X105821109Y-35908595D01*
X105821105Y-35908590D01*
X105718555Y-35806040D01*
X105685070Y-35744717D01*
X105690054Y-35675025D01*
X105718552Y-35630681D01*
X106837417Y-34511819D01*
X106898740Y-34478334D01*
X106925098Y-34475500D01*
X122274903Y-34475500D01*
X122341942Y-34495185D01*
G37*
%TD.AperFunction*%
%TA.AperFunction,Conductor*%
G36*
X99441942Y-34070185D02*
G01*
X99462584Y-34086819D01*
X99813181Y-34437416D01*
X99846666Y-34498739D01*
X99849500Y-34525097D01*
X99849500Y-37538330D01*
X99849499Y-37538348D01*
X99849499Y-37704054D01*
X99849498Y-37704054D01*
X99849499Y-37704057D01*
X99875603Y-37801478D01*
X99890424Y-37856787D01*
X99906592Y-37884790D01*
X99906593Y-37884792D01*
X99969477Y-37993712D01*
X99969481Y-37993717D01*
X100088349Y-38112585D01*
X100088355Y-38112590D01*
X101215139Y-39239374D01*
X101215149Y-39239385D01*
X101219479Y-39243715D01*
X101219480Y-39243716D01*
X101331284Y-39355520D01*
X101348439Y-39365424D01*
X101418095Y-39405639D01*
X101418097Y-39405641D01*
X101456151Y-39427611D01*
X101468215Y-39434577D01*
X101620943Y-39475501D01*
X101620946Y-39475501D01*
X101786653Y-39475501D01*
X101786669Y-39475500D01*
X104188331Y-39475500D01*
X104188347Y-39475501D01*
X104195943Y-39475501D01*
X104354054Y-39475501D01*
X104354057Y-39475501D01*
X104506785Y-39434577D01*
X104556904Y-39405639D01*
X104643716Y-39355520D01*
X104755520Y-39243716D01*
X104755520Y-39243714D01*
X104765728Y-39233507D01*
X104765730Y-39233504D01*
X105149506Y-38849728D01*
X105149511Y-38849724D01*
X105159714Y-38839520D01*
X105159716Y-38839520D01*
X105271520Y-38727716D01*
X105341689Y-38606179D01*
X105350577Y-38590785D01*
X105391500Y-38438058D01*
X105391500Y-38324099D01*
X105411185Y-38257060D01*
X105459207Y-38213614D01*
X105498815Y-38193433D01*
X105498815Y-38193432D01*
X105498816Y-38193432D01*
X105617728Y-38107038D01*
X105670786Y-38068490D01*
X105670788Y-38068487D01*
X105670792Y-38068485D01*
X105821104Y-37918173D01*
X105940991Y-37753160D01*
X105996320Y-37710496D01*
X106065933Y-37704517D01*
X106127729Y-37737122D01*
X106141627Y-37753162D01*
X106261272Y-37917840D01*
X106261276Y-37917845D01*
X106411535Y-38068104D01*
X106411540Y-38068108D01*
X106583442Y-38193001D01*
X106772782Y-38289476D01*
X106974871Y-38355138D01*
X107041000Y-38365612D01*
X107041000Y-37317526D01*
X107107657Y-37356011D01*
X107228465Y-37388381D01*
X107353535Y-37388381D01*
X107474343Y-37356011D01*
X107541000Y-37317526D01*
X107541000Y-38365611D01*
X107607126Y-38355138D01*
X107607129Y-38355138D01*
X107809217Y-38289476D01*
X107998557Y-38193001D01*
X108170459Y-38068108D01*
X108170464Y-38068104D01*
X108320721Y-37917847D01*
X108440371Y-37753162D01*
X108495701Y-37710496D01*
X108565314Y-37704517D01*
X108627110Y-37737122D01*
X108641008Y-37753162D01*
X108760890Y-37918166D01*
X108760894Y-37918171D01*
X108760896Y-37918173D01*
X108911208Y-38068485D01*
X108939384Y-38088956D01*
X108982050Y-38144283D01*
X108990500Y-38189274D01*
X108990500Y-43875500D01*
X108970815Y-43942539D01*
X108918011Y-43988294D01*
X108866500Y-43999500D01*
X96346153Y-43999500D01*
X96191510Y-44030260D01*
X96191502Y-44030262D01*
X96045824Y-44090604D01*
X96045814Y-44090609D01*
X95914711Y-44178210D01*
X95914707Y-44178213D01*
X93897241Y-46195681D01*
X93835918Y-46229166D01*
X93809560Y-46232000D01*
X80214440Y-46232000D01*
X80147401Y-46212315D01*
X80101646Y-46159511D01*
X80091702Y-46090353D01*
X80120727Y-46026797D01*
X80126759Y-46020319D01*
X87409786Y-38737292D01*
X87409789Y-38737289D01*
X87497394Y-38606179D01*
X87497395Y-38606175D01*
X87497398Y-38606171D01*
X87543688Y-38494416D01*
X87557738Y-38460497D01*
X87588500Y-38305842D01*
X87588500Y-38155893D01*
X87608185Y-38088854D01*
X87639614Y-38055576D01*
X87667792Y-38035104D01*
X87806604Y-37896291D01*
X87867923Y-37862809D01*
X87937615Y-37867793D01*
X87993549Y-37909664D01*
X87999821Y-37918878D01*
X88003185Y-37924333D01*
X88003186Y-37924334D01*
X88095288Y-38073656D01*
X88219344Y-38197712D01*
X88368666Y-38289814D01*
X88402500Y-38301025D01*
X88459947Y-38340796D01*
X88486772Y-38405311D01*
X88487500Y-38418732D01*
X88487500Y-42416642D01*
X88467815Y-42483681D01*
X88417302Y-42528362D01*
X88301370Y-42584192D01*
X88090782Y-42727768D01*
X87903952Y-42901121D01*
X87903950Y-42901123D01*
X87745041Y-43100388D01*
X87617608Y-43321109D01*
X87524492Y-43558362D01*
X87524490Y-43558369D01*
X87467777Y-43806845D01*
X87448732Y-44060995D01*
X87448732Y-44061004D01*
X87467777Y-44315154D01*
X87519508Y-44541804D01*
X87524492Y-44563637D01*
X87617607Y-44800888D01*
X87745041Y-45021612D01*
X87903950Y-45220877D01*
X88090783Y-45394232D01*
X88301366Y-45537805D01*
X88301371Y-45537807D01*
X88301372Y-45537808D01*
X88301373Y-45537809D01*
X88423328Y-45596538D01*
X88530992Y-45648387D01*
X88530993Y-45648387D01*
X88530996Y-45648389D01*
X88774542Y-45723513D01*
X89026565Y-45761500D01*
X89281435Y-45761500D01*
X89533458Y-45723513D01*
X89777004Y-45648389D01*
X90006634Y-45537805D01*
X90217217Y-45394232D01*
X90404050Y-45220877D01*
X90562959Y-45021612D01*
X90690393Y-44800888D01*
X90783508Y-44563637D01*
X90840222Y-44315157D01*
X90850484Y-44178213D01*
X90859268Y-44061004D01*
X90859268Y-44060995D01*
X90840222Y-43806845D01*
X90783509Y-43558369D01*
X90783508Y-43558363D01*
X90690393Y-43321112D01*
X90562959Y-43100388D01*
X90404050Y-42901123D01*
X90217217Y-42727768D01*
X90195733Y-42713120D01*
X90142647Y-42676926D01*
X90098346Y-42622896D01*
X90088500Y-42574473D01*
X90088500Y-38418732D01*
X90108185Y-38351693D01*
X90160989Y-38305938D01*
X90173495Y-38301026D01*
X90207334Y-38289814D01*
X90356656Y-38197712D01*
X90480712Y-38073656D01*
X90572814Y-37924334D01*
X90627999Y-37757797D01*
X90638500Y-37655009D01*
X90638499Y-36104992D01*
X90636851Y-36088863D01*
X90627999Y-36002203D01*
X90627998Y-36002200D01*
X90605997Y-35935805D01*
X90572814Y-35835666D01*
X90480712Y-35686344D01*
X90356656Y-35562288D01*
X90218730Y-35477215D01*
X90207336Y-35470187D01*
X90207331Y-35470185D01*
X90180062Y-35461149D01*
X90040797Y-35415001D01*
X90040795Y-35415000D01*
X89938010Y-35404500D01*
X88637998Y-35404500D01*
X88637981Y-35404501D01*
X88535203Y-35415000D01*
X88535200Y-35415001D01*
X88368668Y-35470185D01*
X88368663Y-35470187D01*
X88219342Y-35562289D01*
X88095289Y-35686342D01*
X87999821Y-35841121D01*
X87947873Y-35887845D01*
X87878910Y-35899068D01*
X87814828Y-35871224D01*
X87806601Y-35863705D01*
X87667786Y-35724890D01*
X87495820Y-35599951D01*
X87306414Y-35503444D01*
X87306413Y-35503443D01*
X87306412Y-35503443D01*
X87104243Y-35437754D01*
X87104241Y-35437753D01*
X87104240Y-35437753D01*
X86942957Y-35412208D01*
X86894287Y-35404500D01*
X86681713Y-35404500D01*
X86633042Y-35412208D01*
X86471760Y-35437753D01*
X86269585Y-35503444D01*
X86080179Y-35599951D01*
X85908213Y-35724890D01*
X85757894Y-35875209D01*
X85757890Y-35875214D01*
X85638008Y-36040218D01*
X85582678Y-36082884D01*
X85513065Y-36088863D01*
X85451270Y-36056257D01*
X85437372Y-36040218D01*
X85317727Y-35875540D01*
X85317723Y-35875535D01*
X85167464Y-35725276D01*
X85167459Y-35725272D01*
X84995557Y-35600379D01*
X84806215Y-35503903D01*
X84604124Y-35438241D01*
X84538000Y-35427768D01*
X84538000Y-36475854D01*
X84471343Y-36437370D01*
X84350535Y-36405000D01*
X84225465Y-36405000D01*
X84104657Y-36437370D01*
X84038000Y-36475854D01*
X84038000Y-35427768D01*
X84037999Y-35427768D01*
X83971875Y-35438241D01*
X83769784Y-35503903D01*
X83580442Y-35600379D01*
X83408540Y-35725272D01*
X83408535Y-35725276D01*
X83258276Y-35875535D01*
X83258272Y-35875540D01*
X83138627Y-36040218D01*
X83083297Y-36082884D01*
X83013684Y-36088863D01*
X82951889Y-36056257D01*
X82937991Y-36040218D01*
X82818109Y-35875214D01*
X82818105Y-35875209D01*
X82667786Y-35724890D01*
X82495815Y-35599948D01*
X82495814Y-35599947D01*
X82456205Y-35579765D01*
X82405409Y-35531791D01*
X82388500Y-35469281D01*
X82388500Y-35112097D01*
X82408185Y-35045058D01*
X82424819Y-35024416D01*
X83362416Y-34086819D01*
X83423739Y-34053334D01*
X83450097Y-34050500D01*
X99374903Y-34050500D01*
X99441942Y-34070185D01*
G37*
%TD.AperFunction*%
%TA.AperFunction,Conductor*%
G36*
X143171542Y-40545185D02*
G01*
X143192184Y-40561819D01*
X144270181Y-41639816D01*
X144303666Y-41701139D01*
X144306500Y-41727497D01*
X144306500Y-41924311D01*
X144286815Y-41991350D01*
X144234011Y-42037105D01*
X144164853Y-42047049D01*
X144108189Y-42023578D01*
X144094331Y-42013204D01*
X144094328Y-42013202D01*
X143959482Y-41962908D01*
X143959483Y-41962908D01*
X143899883Y-41956501D01*
X143899881Y-41956500D01*
X143899873Y-41956500D01*
X143899864Y-41956500D01*
X142104129Y-41956500D01*
X142104123Y-41956501D01*
X142044516Y-41962908D01*
X141909671Y-42013202D01*
X141909664Y-42013206D01*
X141794455Y-42099452D01*
X141794452Y-42099455D01*
X141708206Y-42214664D01*
X141708202Y-42214671D01*
X141658997Y-42346598D01*
X141617126Y-42402532D01*
X141551661Y-42426949D01*
X141483388Y-42412097D01*
X141455134Y-42390946D01*
X141333082Y-42268894D01*
X141139578Y-42133399D01*
X140925492Y-42033570D01*
X140925486Y-42033567D01*
X140712000Y-41976364D01*
X140712000Y-42873988D01*
X140654993Y-42841075D01*
X140527826Y-42807000D01*
X140396174Y-42807000D01*
X140269007Y-42841075D01*
X140212000Y-42873988D01*
X140212000Y-41976364D01*
X140211999Y-41976364D01*
X139998513Y-42033567D01*
X139998507Y-42033570D01*
X139784422Y-42133399D01*
X139784420Y-42133400D01*
X139590926Y-42268886D01*
X139590920Y-42268891D01*
X139423891Y-42435920D01*
X139423890Y-42435922D01*
X139293880Y-42621595D01*
X139239303Y-42665219D01*
X139169804Y-42672412D01*
X139107450Y-42640890D01*
X139090730Y-42621594D01*
X138960494Y-42435597D01*
X138793402Y-42268506D01*
X138793395Y-42268501D01*
X138599831Y-42132965D01*
X138599826Y-42132962D01*
X138594091Y-42130288D01*
X138541653Y-42084113D01*
X138522500Y-42017908D01*
X138522500Y-40903097D01*
X138542185Y-40836058D01*
X138558819Y-40815416D01*
X138812417Y-40561819D01*
X138873740Y-40528334D01*
X138900098Y-40525500D01*
X143104503Y-40525500D01*
X143171542Y-40545185D01*
G37*
%TD.AperFunction*%
%TA.AperFunction,Conductor*%
G36*
X157650805Y-29775471D02*
G01*
X157800930Y-29771459D01*
X157814023Y-29771801D01*
X158112471Y-29795433D01*
X158127275Y-29797511D01*
X158419788Y-29856760D01*
X158434240Y-29860608D01*
X158717482Y-29954685D01*
X158731360Y-29960246D01*
X159001180Y-30087771D01*
X159014306Y-30094974D01*
X159266791Y-30254094D01*
X159278940Y-30262818D01*
X159510406Y-30451213D01*
X159521424Y-30461346D01*
X159728486Y-30676259D01*
X159738205Y-30687650D01*
X159917847Y-30925947D01*
X159926123Y-30938426D01*
X160075738Y-31196650D01*
X160082449Y-31210036D01*
X160199847Y-31484410D01*
X160204895Y-31498507D01*
X160288364Y-31785028D01*
X160291673Y-31799617D01*
X160340158Y-32095084D01*
X160341589Y-32108042D01*
X160349995Y-32254442D01*
X160350199Y-32261559D01*
X160346601Y-80000343D01*
X160350615Y-80150483D01*
X160350272Y-80163582D01*
X160326647Y-80462020D01*
X160324566Y-80476849D01*
X160265327Y-80769339D01*
X160261475Y-80783808D01*
X160167405Y-81067053D01*
X160161835Y-81080954D01*
X160034323Y-81350762D01*
X160027120Y-81363888D01*
X159868006Y-81616377D01*
X159859272Y-81628541D01*
X159670883Y-81860010D01*
X159660747Y-81871031D01*
X159445842Y-82078096D01*
X159434452Y-82087816D01*
X159196136Y-82267481D01*
X159183657Y-82275756D01*
X158925443Y-82425374D01*
X158912057Y-82432085D01*
X158637684Y-82549491D01*
X158623587Y-82554540D01*
X158337061Y-82638019D01*
X158322458Y-82641332D01*
X158027049Y-82689815D01*
X158013982Y-82691253D01*
X157867583Y-82699549D01*
X157860567Y-82699748D01*
X63128656Y-82698801D01*
X63128655Y-82698801D01*
X63128646Y-82698801D01*
X63090541Y-82699819D01*
X62978516Y-82702815D01*
X62965417Y-82702472D01*
X62666979Y-82678847D01*
X62652150Y-82676766D01*
X62359660Y-82617527D01*
X62345191Y-82613675D01*
X62061946Y-82519605D01*
X62048057Y-82514040D01*
X61778231Y-82386520D01*
X61765111Y-82379320D01*
X61600771Y-82275756D01*
X61512619Y-82220204D01*
X61500458Y-82211472D01*
X61342982Y-82083305D01*
X61268988Y-82023082D01*
X61257968Y-82012947D01*
X61050903Y-81798042D01*
X61041183Y-81786652D01*
X60861518Y-81548336D01*
X60853243Y-81535857D01*
X60703617Y-81277629D01*
X60696917Y-81264264D01*
X60579506Y-80989880D01*
X60574459Y-80975787D01*
X60520011Y-80788903D01*
X60490978Y-80689256D01*
X60487667Y-80674658D01*
X60455202Y-80476849D01*
X60439183Y-80379243D01*
X60437746Y-80366182D01*
X60429450Y-80219783D01*
X60429251Y-80212766D01*
X60429295Y-77999999D01*
X61294922Y-77999999D01*
X61294922Y-78000000D01*
X61315219Y-78387287D01*
X61375886Y-78770323D01*
X61375887Y-78770330D01*
X61476262Y-79144936D01*
X61615244Y-79506994D01*
X61791310Y-79852543D01*
X62002531Y-80177793D01*
X62211095Y-80435350D01*
X62211096Y-80435350D01*
X63705748Y-78940698D01*
X63779588Y-79042330D01*
X63957670Y-79220412D01*
X64059300Y-79294251D01*
X62564648Y-80788903D01*
X62564649Y-80788904D01*
X62822206Y-80997468D01*
X63147456Y-81208689D01*
X63493005Y-81384755D01*
X63855063Y-81523737D01*
X64229669Y-81624112D01*
X64229676Y-81624113D01*
X64612712Y-81684780D01*
X64999999Y-81705078D01*
X65000001Y-81705078D01*
X65387287Y-81684780D01*
X65770323Y-81624113D01*
X65770330Y-81624112D01*
X66144936Y-81523737D01*
X66506994Y-81384755D01*
X66852543Y-81208689D01*
X67177783Y-80997476D01*
X67177785Y-80997475D01*
X67435349Y-80788902D01*
X65940698Y-79294251D01*
X66042330Y-79220412D01*
X66220412Y-79042330D01*
X66294251Y-78940698D01*
X67788902Y-80435349D01*
X67997475Y-80177785D01*
X67997476Y-80177783D01*
X68208689Y-79852543D01*
X68384755Y-79506994D01*
X68523737Y-79144936D01*
X68624112Y-78770330D01*
X68624113Y-78770323D01*
X68684780Y-78387287D01*
X68705078Y-78000000D01*
X68705078Y-77999999D01*
X68684780Y-77612712D01*
X68624113Y-77229676D01*
X68624112Y-77229669D01*
X68523737Y-76855063D01*
X68384755Y-76493005D01*
X68208689Y-76147456D01*
X67997468Y-75822206D01*
X67788904Y-75564649D01*
X67788903Y-75564648D01*
X66294251Y-77059300D01*
X66220412Y-76957670D01*
X66042330Y-76779588D01*
X65940698Y-76705748D01*
X67435350Y-75211096D01*
X67435350Y-75211095D01*
X67177793Y-75002531D01*
X66852543Y-74791310D01*
X66506994Y-74615244D01*
X66144936Y-74476262D01*
X65770330Y-74375887D01*
X65770323Y-74375886D01*
X65387287Y-74315219D01*
X65000001Y-74294922D01*
X64999999Y-74294922D01*
X64612712Y-74315219D01*
X64229676Y-74375886D01*
X64229669Y-74375887D01*
X63855063Y-74476262D01*
X63493005Y-74615244D01*
X63147456Y-74791310D01*
X62822206Y-75002531D01*
X62564648Y-75211095D01*
X62564648Y-75211096D01*
X64059301Y-76705748D01*
X63957670Y-76779588D01*
X63779588Y-76957670D01*
X63705748Y-77059300D01*
X62211096Y-75564648D01*
X62211095Y-75564648D01*
X62002531Y-75822206D01*
X61791310Y-76147456D01*
X61615244Y-76493005D01*
X61476262Y-76855063D01*
X61375887Y-77229669D01*
X61375886Y-77229676D01*
X61315219Y-77612712D01*
X61294922Y-77999999D01*
X60429295Y-77999999D01*
X60429310Y-77229669D01*
X60429538Y-65731400D01*
X61774498Y-65731400D01*
X61774499Y-65731403D01*
X61815423Y-65884131D01*
X61841361Y-65929057D01*
X61894477Y-66021058D01*
X61894481Y-66021063D01*
X62013349Y-66139931D01*
X62013355Y-66139936D01*
X65800055Y-69926637D01*
X65833540Y-69987960D01*
X65828556Y-70057652D01*
X65811641Y-70088629D01*
X65762204Y-70154668D01*
X65762204Y-70154669D01*
X65711908Y-70289517D01*
X65705501Y-70349116D01*
X65705500Y-70349135D01*
X65705500Y-72144870D01*
X65705501Y-72144876D01*
X65711908Y-72204483D01*
X65762202Y-72339328D01*
X65762206Y-72339335D01*
X65848452Y-72454544D01*
X65848455Y-72454547D01*
X65963664Y-72540793D01*
X65963671Y-72540797D01*
X66098517Y-72591091D01*
X66098516Y-72591091D01*
X66105444Y-72591835D01*
X66158127Y-72597500D01*
X67953872Y-72597499D01*
X68013483Y-72591091D01*
X68148331Y-72540796D01*
X68263546Y-72454546D01*
X68349796Y-72339331D01*
X68398810Y-72207916D01*
X68440681Y-72151984D01*
X68506145Y-72127566D01*
X68574418Y-72142417D01*
X68602673Y-72163569D01*
X68724599Y-72285495D01*
X68820562Y-72352689D01*
X68918165Y-72421032D01*
X68918167Y-72421033D01*
X68918170Y-72421035D01*
X69132337Y-72520903D01*
X69360592Y-72582063D01*
X69537034Y-72597500D01*
X69595999Y-72602659D01*
X69596000Y-72602659D01*
X69596001Y-72602659D01*
X69654966Y-72597500D01*
X69831408Y-72582063D01*
X70059663Y-72520903D01*
X70273830Y-72421035D01*
X70467401Y-72285495D01*
X70634495Y-72118401D01*
X70764425Y-71932842D01*
X70819002Y-71889217D01*
X70888500Y-71882023D01*
X70950855Y-71913546D01*
X70967575Y-71932842D01*
X71097281Y-72118082D01*
X71097505Y-72118401D01*
X71264599Y-72285495D01*
X71360562Y-72352689D01*
X71458165Y-72421032D01*
X71458167Y-72421033D01*
X71458170Y-72421035D01*
X71672337Y-72520903D01*
X71900592Y-72582063D01*
X72077034Y-72597500D01*
X72135999Y-72602659D01*
X72136000Y-72602659D01*
X72136001Y-72602659D01*
X72194966Y-72597500D01*
X72371408Y-72582063D01*
X72599663Y-72520903D01*
X72813830Y-72421035D01*
X73007401Y-72285495D01*
X73174495Y-72118401D01*
X73304425Y-71932842D01*
X73359002Y-71889217D01*
X73428500Y-71882023D01*
X73490855Y-71913546D01*
X73507575Y-71932842D01*
X73637281Y-72118082D01*
X73637505Y-72118401D01*
X73804599Y-72285495D01*
X73900562Y-72352689D01*
X73998165Y-72421032D01*
X73998167Y-72421033D01*
X73998170Y-72421035D01*
X74212337Y-72520903D01*
X74440592Y-72582063D01*
X74617034Y-72597500D01*
X74675999Y-72602659D01*
X74676000Y-72602659D01*
X74676001Y-72602659D01*
X74734966Y-72597500D01*
X74911408Y-72582063D01*
X75139663Y-72520903D01*
X75353830Y-72421035D01*
X75547401Y-72285495D01*
X75714495Y-72118401D01*
X75844730Y-71932405D01*
X75899307Y-71888781D01*
X75968805Y-71881587D01*
X76031160Y-71913110D01*
X76047879Y-71932405D01*
X76177890Y-72118078D01*
X76344917Y-72285105D01*
X76538421Y-72420600D01*
X76752507Y-72520429D01*
X76752516Y-72520433D01*
X76966000Y-72577634D01*
X76966000Y-71680012D01*
X77023007Y-71712925D01*
X77150174Y-71747000D01*
X77281826Y-71747000D01*
X77408993Y-71712925D01*
X77466000Y-71680012D01*
X77466000Y-72577634D01*
X77679483Y-72520433D01*
X77679492Y-72520429D01*
X77893578Y-72420600D01*
X78087082Y-72285105D01*
X78254105Y-72118082D01*
X78384119Y-71932405D01*
X78438696Y-71888781D01*
X78508195Y-71881588D01*
X78570549Y-71913110D01*
X78587269Y-71932405D01*
X78717505Y-72118401D01*
X78884599Y-72285495D01*
X78980562Y-72352689D01*
X79078165Y-72421032D01*
X79078167Y-72421033D01*
X79078170Y-72421035D01*
X79292337Y-72520903D01*
X79520592Y-72582063D01*
X79697034Y-72597500D01*
X79755999Y-72602659D01*
X79756000Y-72602659D01*
X79756001Y-72602659D01*
X79814966Y-72597500D01*
X79991408Y-72582063D01*
X80219663Y-72520903D01*
X80433830Y-72421035D01*
X80627401Y-72285495D01*
X80794495Y-72118401D01*
X80924425Y-71932842D01*
X80979002Y-71889217D01*
X81048500Y-71882023D01*
X81110855Y-71913546D01*
X81127575Y-71932842D01*
X81257281Y-72118082D01*
X81257505Y-72118401D01*
X81424599Y-72285495D01*
X81520562Y-72352689D01*
X81618165Y-72421032D01*
X81618167Y-72421033D01*
X81618170Y-72421035D01*
X81832337Y-72520903D01*
X82060592Y-72582063D01*
X82237034Y-72597500D01*
X82295999Y-72602659D01*
X82296000Y-72602659D01*
X82296001Y-72602659D01*
X82354966Y-72597500D01*
X82531408Y-72582063D01*
X82759663Y-72520903D01*
X82973830Y-72421035D01*
X83167401Y-72285495D01*
X83334495Y-72118401D01*
X83464425Y-71932842D01*
X83519002Y-71889217D01*
X83588500Y-71882023D01*
X83650855Y-71913546D01*
X83667575Y-71932842D01*
X83797281Y-72118082D01*
X83797505Y-72118401D01*
X83964599Y-72285495D01*
X84060562Y-72352689D01*
X84158165Y-72421032D01*
X84158167Y-72421033D01*
X84158170Y-72421035D01*
X84372337Y-72520903D01*
X84600592Y-72582063D01*
X84777034Y-72597500D01*
X84835999Y-72602659D01*
X84836000Y-72602659D01*
X84836001Y-72602659D01*
X84894966Y-72597500D01*
X85071408Y-72582063D01*
X85299663Y-72520903D01*
X85513830Y-72421035D01*
X85707401Y-72285495D01*
X85874495Y-72118401D01*
X86004425Y-71932842D01*
X86059002Y-71889217D01*
X86128500Y-71882023D01*
X86190855Y-71913546D01*
X86207575Y-71932842D01*
X86337501Y-72118396D01*
X86337506Y-72118402D01*
X86504594Y-72285491D01*
X86504597Y-72285493D01*
X86504599Y-72285495D01*
X86522622Y-72298115D01*
X86566247Y-72352689D01*
X86575500Y-72399690D01*
X86575500Y-73654846D01*
X86606261Y-73809489D01*
X86606264Y-73809501D01*
X86666602Y-73955172D01*
X86666609Y-73955185D01*
X86754210Y-74086288D01*
X86754213Y-74086292D01*
X87228211Y-74560289D01*
X87339711Y-74671789D01*
X87339712Y-74671790D01*
X87470814Y-74759390D01*
X87470827Y-74759397D01*
X87616498Y-74819735D01*
X87616503Y-74819737D01*
X87616507Y-74819737D01*
X87616508Y-74819738D01*
X87771154Y-74850500D01*
X118289586Y-74850500D01*
X118356625Y-74870185D01*
X118402380Y-74922989D01*
X118409361Y-74942407D01*
X118462166Y-75139483D01*
X118462170Y-75139492D01*
X118561999Y-75353578D01*
X118697494Y-75547082D01*
X118864517Y-75714105D01*
X119050195Y-75844119D01*
X119093819Y-75898696D01*
X119101012Y-75968195D01*
X119069490Y-76030549D01*
X119050195Y-76047269D01*
X118864194Y-76177508D01*
X118697105Y-76344597D01*
X118561565Y-76538169D01*
X118561564Y-76538171D01*
X118461698Y-76752335D01*
X118461694Y-76752344D01*
X118400538Y-76980586D01*
X118400536Y-76980596D01*
X118379941Y-77215999D01*
X118379941Y-77216000D01*
X118400536Y-77451403D01*
X118400538Y-77451413D01*
X118461694Y-77679655D01*
X118461696Y-77679659D01*
X118461697Y-77679663D01*
X118465600Y-77688032D01*
X118561565Y-77893830D01*
X118561567Y-77893834D01*
X118653938Y-78025752D01*
X118697105Y-78087401D01*
X118864199Y-78254495D01*
X118960984Y-78322265D01*
X119057765Y-78390032D01*
X119057767Y-78390033D01*
X119057770Y-78390035D01*
X119271937Y-78489903D01*
X119500192Y-78551063D01*
X119688518Y-78567539D01*
X119735599Y-78571659D01*
X119735600Y-78571659D01*
X119735601Y-78571659D01*
X119774834Y-78568226D01*
X119971008Y-78551063D01*
X120199263Y-78489903D01*
X120413430Y-78390035D01*
X120607001Y-78254495D01*
X120774095Y-78087401D01*
X120786716Y-78069375D01*
X120841293Y-78025752D01*
X120888291Y-78016500D01*
X121122909Y-78016500D01*
X121189948Y-78036185D01*
X121224483Y-78069375D01*
X121237101Y-78087396D01*
X121237108Y-78087405D01*
X121404197Y-78254493D01*
X121404199Y-78254495D01*
X121500984Y-78322265D01*
X121597765Y-78390032D01*
X121597767Y-78390033D01*
X121597770Y-78390035D01*
X121811937Y-78489903D01*
X122040192Y-78551063D01*
X122228518Y-78567539D01*
X122275599Y-78571659D01*
X122275600Y-78571659D01*
X122275601Y-78571659D01*
X122314834Y-78568226D01*
X122511008Y-78551063D01*
X122739263Y-78489903D01*
X122953430Y-78390035D01*
X123147001Y-78254495D01*
X123314095Y-78087401D01*
X123326716Y-78069375D01*
X123381293Y-78025752D01*
X123428291Y-78016500D01*
X123662909Y-78016500D01*
X123729948Y-78036185D01*
X123764483Y-78069375D01*
X123777101Y-78087396D01*
X123777108Y-78087405D01*
X123944197Y-78254493D01*
X123944199Y-78254495D01*
X124040984Y-78322265D01*
X124137765Y-78390032D01*
X124137767Y-78390033D01*
X124137770Y-78390035D01*
X124351937Y-78489903D01*
X124580192Y-78551063D01*
X124768518Y-78567539D01*
X124815599Y-78571659D01*
X124815600Y-78571659D01*
X124815601Y-78571659D01*
X124854834Y-78568226D01*
X125051008Y-78551063D01*
X125279263Y-78489903D01*
X125493430Y-78390035D01*
X125687001Y-78254495D01*
X125854095Y-78087401D01*
X125866716Y-78069375D01*
X125921293Y-78025752D01*
X125968291Y-78016500D01*
X126202909Y-78016500D01*
X126269948Y-78036185D01*
X126304483Y-78069375D01*
X126317101Y-78087396D01*
X126317108Y-78087405D01*
X126484197Y-78254493D01*
X126484199Y-78254495D01*
X126580984Y-78322265D01*
X126677765Y-78390032D01*
X126677767Y-78390033D01*
X126677770Y-78390035D01*
X126891937Y-78489903D01*
X127120192Y-78551063D01*
X127308518Y-78567539D01*
X127355599Y-78571659D01*
X127355600Y-78571659D01*
X127355601Y-78571659D01*
X127394834Y-78568226D01*
X127591008Y-78551063D01*
X127819263Y-78489903D01*
X128033430Y-78390035D01*
X128227001Y-78254495D01*
X128394095Y-78087401D01*
X128406716Y-78069375D01*
X128461293Y-78025752D01*
X128508291Y-78016500D01*
X128742909Y-78016500D01*
X128809948Y-78036185D01*
X128844483Y-78069375D01*
X128857101Y-78087396D01*
X128857108Y-78087405D01*
X129024197Y-78254493D01*
X129024199Y-78254495D01*
X129120984Y-78322265D01*
X129217765Y-78390032D01*
X129217767Y-78390033D01*
X129217770Y-78390035D01*
X129431937Y-78489903D01*
X129660192Y-78551063D01*
X129848518Y-78567539D01*
X129895599Y-78571659D01*
X129895600Y-78571659D01*
X129895601Y-78571659D01*
X129934834Y-78568226D01*
X130131008Y-78551063D01*
X130359263Y-78489903D01*
X130573430Y-78390035D01*
X130767001Y-78254495D01*
X130934095Y-78087401D01*
X130946716Y-78069375D01*
X131001293Y-78025752D01*
X131048291Y-78016500D01*
X131549244Y-78016500D01*
X131549245Y-78016499D01*
X131703897Y-77985737D01*
X131849579Y-77925394D01*
X131980689Y-77837789D01*
X133133589Y-76684889D01*
X133221194Y-76553779D01*
X133222986Y-76549454D01*
X133268572Y-76439397D01*
X133281537Y-76408097D01*
X133312300Y-76253442D01*
X133312300Y-76095758D01*
X133312300Y-75354159D01*
X133331985Y-75287120D01*
X133384789Y-75241365D01*
X133453947Y-75231421D01*
X133517503Y-75260446D01*
X133548682Y-75301755D01*
X133572963Y-75353826D01*
X133572967Y-75353834D01*
X133681281Y-75508521D01*
X133708501Y-75547396D01*
X133708506Y-75547402D01*
X133875597Y-75714493D01*
X133875603Y-75714498D01*
X134061158Y-75844425D01*
X134104783Y-75899002D01*
X134111977Y-75968500D01*
X134080454Y-76030855D01*
X134061158Y-76047575D01*
X133875597Y-76177505D01*
X133708505Y-76344597D01*
X133572965Y-76538169D01*
X133572964Y-76538171D01*
X133473098Y-76752335D01*
X133473094Y-76752344D01*
X133411938Y-76980586D01*
X133411936Y-76980596D01*
X133391341Y-77215999D01*
X133391341Y-77216000D01*
X133411936Y-77451403D01*
X133411938Y-77451413D01*
X133473094Y-77679655D01*
X133473096Y-77679659D01*
X133473097Y-77679663D01*
X133477000Y-77688032D01*
X133572965Y-77893830D01*
X133572967Y-77893834D01*
X133665338Y-78025752D01*
X133708505Y-78087401D01*
X133875599Y-78254495D01*
X133972384Y-78322265D01*
X134069165Y-78390032D01*
X134069167Y-78390033D01*
X134069170Y-78390035D01*
X134283337Y-78489903D01*
X134511592Y-78551063D01*
X134699918Y-78567539D01*
X134746999Y-78571659D01*
X134747000Y-78571659D01*
X134747001Y-78571659D01*
X134786234Y-78568226D01*
X134982408Y-78551063D01*
X135210663Y-78489903D01*
X135424830Y-78390035D01*
X135618401Y-78254495D01*
X135785495Y-78087401D01*
X135915425Y-77901842D01*
X135970002Y-77858217D01*
X136039500Y-77851023D01*
X136101855Y-77882546D01*
X136118575Y-77901842D01*
X136248500Y-78087395D01*
X136248505Y-78087401D01*
X136415599Y-78254495D01*
X136512384Y-78322265D01*
X136609165Y-78390032D01*
X136609167Y-78390033D01*
X136609170Y-78390035D01*
X136823337Y-78489903D01*
X137051592Y-78551063D01*
X137239918Y-78567539D01*
X137286999Y-78571659D01*
X137287000Y-78571659D01*
X137287001Y-78571659D01*
X137326234Y-78568226D01*
X137522408Y-78551063D01*
X137750663Y-78489903D01*
X137964830Y-78390035D01*
X138158401Y-78254495D01*
X138325495Y-78087401D01*
X138455425Y-77901842D01*
X138510002Y-77858217D01*
X138579500Y-77851023D01*
X138641855Y-77882546D01*
X138658575Y-77901842D01*
X138788500Y-78087395D01*
X138788505Y-78087401D01*
X138955599Y-78254495D01*
X139052384Y-78322265D01*
X139149165Y-78390032D01*
X139149167Y-78390033D01*
X139149170Y-78390035D01*
X139363337Y-78489903D01*
X139591592Y-78551063D01*
X139779918Y-78567539D01*
X139826999Y-78571659D01*
X139827000Y-78571659D01*
X139827001Y-78571659D01*
X139866234Y-78568226D01*
X140062408Y-78551063D01*
X140290663Y-78489903D01*
X140504830Y-78390035D01*
X140698401Y-78254495D01*
X140865495Y-78087401D01*
X140995425Y-77901842D01*
X141050002Y-77858217D01*
X141119500Y-77851023D01*
X141181855Y-77882546D01*
X141198575Y-77901842D01*
X141328500Y-78087395D01*
X141328505Y-78087401D01*
X141495599Y-78254495D01*
X141592384Y-78322265D01*
X141689165Y-78390032D01*
X141689167Y-78390033D01*
X141689170Y-78390035D01*
X141903337Y-78489903D01*
X142131592Y-78551063D01*
X142319918Y-78567539D01*
X142366999Y-78571659D01*
X142367000Y-78571659D01*
X142367001Y-78571659D01*
X142406234Y-78568226D01*
X142602408Y-78551063D01*
X142830663Y-78489903D01*
X143044830Y-78390035D01*
X143238401Y-78254495D01*
X143405495Y-78087401D01*
X143535425Y-77901842D01*
X143590002Y-77858217D01*
X143659500Y-77851023D01*
X143721855Y-77882546D01*
X143738575Y-77901842D01*
X143868500Y-78087395D01*
X143868505Y-78087401D01*
X144035599Y-78254495D01*
X144132384Y-78322265D01*
X144229165Y-78390032D01*
X144229167Y-78390033D01*
X144229170Y-78390035D01*
X144443337Y-78489903D01*
X144671592Y-78551063D01*
X144859918Y-78567539D01*
X144906999Y-78571659D01*
X144907000Y-78571659D01*
X144907001Y-78571659D01*
X144946234Y-78568226D01*
X145142408Y-78551063D01*
X145370663Y-78489903D01*
X145584830Y-78390035D01*
X145778401Y-78254495D01*
X145945495Y-78087401D01*
X146006695Y-77999999D01*
X151294922Y-77999999D01*
X151294922Y-78000000D01*
X151315219Y-78387287D01*
X151375886Y-78770323D01*
X151375887Y-78770330D01*
X151476262Y-79144936D01*
X151615244Y-79506994D01*
X151791310Y-79852543D01*
X152002531Y-80177793D01*
X152211095Y-80435350D01*
X152211096Y-80435350D01*
X153705748Y-78940698D01*
X153779588Y-79042330D01*
X153957670Y-79220412D01*
X154059300Y-79294251D01*
X152564648Y-80788903D01*
X152564649Y-80788904D01*
X152822206Y-80997468D01*
X153147456Y-81208689D01*
X153493005Y-81384755D01*
X153855063Y-81523737D01*
X154229669Y-81624112D01*
X154229676Y-81624113D01*
X154612712Y-81684780D01*
X154999999Y-81705078D01*
X155000001Y-81705078D01*
X155387287Y-81684780D01*
X155770323Y-81624113D01*
X155770330Y-81624112D01*
X156144936Y-81523737D01*
X156506994Y-81384755D01*
X156852543Y-81208689D01*
X157177783Y-80997476D01*
X157177785Y-80997475D01*
X157435349Y-80788902D01*
X155940698Y-79294251D01*
X156042330Y-79220412D01*
X156220412Y-79042330D01*
X156294251Y-78940698D01*
X157788902Y-80435349D01*
X157997475Y-80177785D01*
X157997476Y-80177783D01*
X158208689Y-79852543D01*
X158384755Y-79506994D01*
X158523737Y-79144936D01*
X158624112Y-78770330D01*
X158624113Y-78770323D01*
X158684780Y-78387287D01*
X158705078Y-78000000D01*
X158705078Y-77999999D01*
X158684780Y-77612712D01*
X158624113Y-77229676D01*
X158624112Y-77229669D01*
X158523737Y-76855063D01*
X158384755Y-76493005D01*
X158208689Y-76147456D01*
X157997468Y-75822206D01*
X157788904Y-75564649D01*
X157788903Y-75564648D01*
X156294251Y-77059300D01*
X156220412Y-76957670D01*
X156042330Y-76779588D01*
X155940698Y-76705748D01*
X157435350Y-75211096D01*
X157435350Y-75211095D01*
X157177793Y-75002531D01*
X156852543Y-74791310D01*
X156506994Y-74615244D01*
X156144936Y-74476262D01*
X155770330Y-74375887D01*
X155770323Y-74375886D01*
X155387287Y-74315219D01*
X155000001Y-74294922D01*
X154999999Y-74294922D01*
X154612712Y-74315219D01*
X154229676Y-74375886D01*
X154229669Y-74375887D01*
X153855063Y-74476262D01*
X153493005Y-74615244D01*
X153147456Y-74791310D01*
X152822206Y-75002531D01*
X152564648Y-75211095D01*
X152564648Y-75211096D01*
X154059301Y-76705748D01*
X153957670Y-76779588D01*
X153779588Y-76957670D01*
X153705748Y-77059300D01*
X152211096Y-75564648D01*
X152211095Y-75564648D01*
X152002531Y-75822206D01*
X151791310Y-76147456D01*
X151615244Y-76493005D01*
X151476262Y-76855063D01*
X151375887Y-77229669D01*
X151375886Y-77229676D01*
X151315219Y-77612712D01*
X151294922Y-77999999D01*
X146006695Y-77999999D01*
X146081035Y-77893830D01*
X146180903Y-77679663D01*
X146242063Y-77451408D01*
X146262659Y-77216000D01*
X146242063Y-76980592D01*
X146180903Y-76752337D01*
X146081035Y-76538171D01*
X146075424Y-76530158D01*
X145945496Y-76344600D01*
X145945490Y-76344594D01*
X145823567Y-76222671D01*
X145790084Y-76161351D01*
X145795068Y-76091659D01*
X145836939Y-76035725D01*
X145867915Y-76018810D01*
X145999331Y-75969796D01*
X146114546Y-75883546D01*
X146200796Y-75768331D01*
X146251091Y-75633483D01*
X146257500Y-75573873D01*
X146257499Y-73778128D01*
X146251091Y-73718517D01*
X146250147Y-73715987D01*
X146200797Y-73583671D01*
X146200793Y-73583664D01*
X146114547Y-73468455D01*
X146114544Y-73468452D01*
X145999335Y-73382206D01*
X145999328Y-73382202D01*
X145864482Y-73331908D01*
X145864483Y-73331908D01*
X145804883Y-73325501D01*
X145804881Y-73325500D01*
X145804873Y-73325500D01*
X145804865Y-73325500D01*
X145631500Y-73325500D01*
X145564461Y-73305815D01*
X145518706Y-73253011D01*
X145507500Y-73201500D01*
X145507500Y-41348345D01*
X145507500Y-41348343D01*
X145466577Y-41195616D01*
X145466573Y-41195609D01*
X145387524Y-41058690D01*
X145387521Y-41058686D01*
X145387520Y-41058684D01*
X145275716Y-40946880D01*
X145275715Y-40946879D01*
X145271385Y-40942549D01*
X145271374Y-40942539D01*
X143892190Y-39563355D01*
X143892188Y-39563352D01*
X143773317Y-39444481D01*
X143773316Y-39444480D01*
X143686504Y-39394360D01*
X143686504Y-39394359D01*
X143686500Y-39394358D01*
X143636385Y-39365423D01*
X143483657Y-39324499D01*
X143325543Y-39324499D01*
X143317947Y-39324499D01*
X143317931Y-39324500D01*
X138686670Y-39324500D01*
X138686654Y-39324499D01*
X138679058Y-39324499D01*
X138520943Y-39324499D01*
X138368215Y-39365423D01*
X138248439Y-39434576D01*
X138231281Y-39444482D01*
X137441481Y-40234282D01*
X137441479Y-40234285D01*
X137391361Y-40321094D01*
X137391359Y-40321096D01*
X137362425Y-40371209D01*
X137362424Y-40371210D01*
X137362423Y-40371215D01*
X137321499Y-40523943D01*
X137321499Y-40523945D01*
X137321499Y-40692046D01*
X137321500Y-40692059D01*
X137321500Y-42017908D01*
X137301815Y-42084947D01*
X137249914Y-42130286D01*
X137244173Y-42132963D01*
X137244169Y-42132965D01*
X137050597Y-42268505D01*
X136883505Y-42435597D01*
X136753575Y-42621158D01*
X136698998Y-42664783D01*
X136629500Y-42671977D01*
X136567145Y-42640454D01*
X136550425Y-42621158D01*
X136420494Y-42435597D01*
X136253402Y-42268506D01*
X136253395Y-42268501D01*
X136059831Y-42132965D01*
X136059826Y-42132962D01*
X136054091Y-42130288D01*
X136001653Y-42084113D01*
X135982500Y-42017908D01*
X135982500Y-38371059D01*
X135982501Y-38371046D01*
X135982501Y-38202945D01*
X135982501Y-38202943D01*
X135941577Y-38050215D01*
X135915419Y-38004909D01*
X135908833Y-37993501D01*
X135908832Y-37993500D01*
X135868901Y-37924336D01*
X135862520Y-37913284D01*
X135750716Y-37801480D01*
X135750715Y-37801479D01*
X135746385Y-37797149D01*
X135746374Y-37797139D01*
X132949234Y-34999999D01*
X151294922Y-34999999D01*
X151294922Y-35000000D01*
X151315219Y-35387287D01*
X151375886Y-35770323D01*
X151375887Y-35770330D01*
X151476262Y-36144936D01*
X151615244Y-36506994D01*
X151791310Y-36852543D01*
X152002531Y-37177793D01*
X152211095Y-37435350D01*
X152211096Y-37435350D01*
X153705748Y-35940698D01*
X153779588Y-36042330D01*
X153957670Y-36220412D01*
X154059300Y-36294251D01*
X152564648Y-37788903D01*
X152564649Y-37788904D01*
X152822206Y-37997468D01*
X153147456Y-38208689D01*
X153493005Y-38384755D01*
X153855063Y-38523737D01*
X154229669Y-38624112D01*
X154229676Y-38624113D01*
X154612712Y-38684780D01*
X154999999Y-38705078D01*
X155000001Y-38705078D01*
X155387287Y-38684780D01*
X155770323Y-38624113D01*
X155770330Y-38624112D01*
X156144936Y-38523737D01*
X156506994Y-38384755D01*
X156852543Y-38208689D01*
X157177783Y-37997476D01*
X157177785Y-37997475D01*
X157435349Y-37788902D01*
X155940698Y-36294251D01*
X156042330Y-36220412D01*
X156220412Y-36042330D01*
X156294251Y-35940698D01*
X157788902Y-37435349D01*
X157997475Y-37177785D01*
X157997476Y-37177783D01*
X158208689Y-36852543D01*
X158384755Y-36506994D01*
X158523737Y-36144936D01*
X158624112Y-35770330D01*
X158624113Y-35770323D01*
X158684780Y-35387287D01*
X158705078Y-35000000D01*
X158705078Y-34999999D01*
X158684780Y-34612712D01*
X158624113Y-34229676D01*
X158624112Y-34229669D01*
X158523737Y-33855063D01*
X158384755Y-33493005D01*
X158208689Y-33147456D01*
X157997468Y-32822206D01*
X157788904Y-32564649D01*
X157788903Y-32564648D01*
X156294251Y-34059300D01*
X156220412Y-33957670D01*
X156042330Y-33779588D01*
X155940698Y-33705748D01*
X157435350Y-32211096D01*
X157435350Y-32211095D01*
X157177793Y-32002531D01*
X156852543Y-31791310D01*
X156506994Y-31615244D01*
X156144936Y-31476262D01*
X155770330Y-31375887D01*
X155770323Y-31375886D01*
X155387287Y-31315219D01*
X155000001Y-31294922D01*
X154999999Y-31294922D01*
X154612712Y-31315219D01*
X154229676Y-31375886D01*
X154229669Y-31375887D01*
X153855063Y-31476262D01*
X153493005Y-31615244D01*
X153147456Y-31791310D01*
X152822206Y-32002531D01*
X152564648Y-32211095D01*
X152564648Y-32211096D01*
X154059301Y-33705748D01*
X153957670Y-33779588D01*
X153779588Y-33957670D01*
X153705748Y-34059300D01*
X152211096Y-32564648D01*
X152211095Y-32564648D01*
X152002531Y-32822206D01*
X151791310Y-33147456D01*
X151615244Y-33493005D01*
X151476262Y-33855063D01*
X151375887Y-34229669D01*
X151375886Y-34229676D01*
X151315219Y-34612712D01*
X151294922Y-34999999D01*
X132949234Y-34999999D01*
X130012590Y-32063355D01*
X130012588Y-32063352D01*
X129893717Y-31944481D01*
X129893716Y-31944480D01*
X129806904Y-31894360D01*
X129806904Y-31894359D01*
X129806900Y-31894358D01*
X129756785Y-31865423D01*
X129604057Y-31824499D01*
X129445943Y-31824499D01*
X129438347Y-31824499D01*
X129438331Y-31824500D01*
X99861669Y-31824500D01*
X99861653Y-31824499D01*
X99854057Y-31824499D01*
X99695943Y-31824499D01*
X99688347Y-31824499D01*
X99688331Y-31824500D01*
X81270940Y-31824500D01*
X81230019Y-31835464D01*
X81230019Y-31835465D01*
X81192751Y-31845451D01*
X81118214Y-31865423D01*
X81118209Y-31865426D01*
X80981290Y-31944475D01*
X80981282Y-31944481D01*
X78807481Y-34118282D01*
X78807479Y-34118285D01*
X78757361Y-34205094D01*
X78757359Y-34205096D01*
X78728425Y-34255209D01*
X78728424Y-34255210D01*
X78728423Y-34255215D01*
X78687499Y-34407943D01*
X78687499Y-34407945D01*
X78687499Y-34576046D01*
X78687500Y-34576059D01*
X78687500Y-35469281D01*
X78667815Y-35536320D01*
X78619795Y-35579765D01*
X78580185Y-35599947D01*
X78580184Y-35599948D01*
X78408213Y-35724890D01*
X78257890Y-35875213D01*
X78132951Y-36047179D01*
X78049076Y-36211795D01*
X78001102Y-36262591D01*
X77938591Y-36279500D01*
X70406670Y-36279500D01*
X70406654Y-36279499D01*
X70399058Y-36279499D01*
X70240943Y-36279499D01*
X70164579Y-36299961D01*
X70088214Y-36320423D01*
X70088209Y-36320426D01*
X69951290Y-36399475D01*
X69951282Y-36399481D01*
X61894481Y-44456282D01*
X61894477Y-44456287D01*
X61880191Y-44481034D01*
X61878799Y-44483445D01*
X61848958Y-44535131D01*
X61822533Y-44580901D01*
X61815423Y-44593215D01*
X61774499Y-44745943D01*
X61774499Y-44745945D01*
X61774499Y-44914046D01*
X61774500Y-44914059D01*
X61774500Y-65565676D01*
X61774499Y-65565694D01*
X61774499Y-65731400D01*
X61774498Y-65731400D01*
X60429538Y-65731400D01*
X60430149Y-34999999D01*
X61294922Y-34999999D01*
X61294922Y-35000000D01*
X61315219Y-35387287D01*
X61375886Y-35770323D01*
X61375887Y-35770330D01*
X61476262Y-36144936D01*
X61615244Y-36506994D01*
X61791310Y-36852543D01*
X62002531Y-37177793D01*
X62211095Y-37435350D01*
X62211096Y-37435350D01*
X63705748Y-35940698D01*
X63779588Y-36042330D01*
X63957670Y-36220412D01*
X64059300Y-36294251D01*
X62564648Y-37788903D01*
X62564649Y-37788904D01*
X62822206Y-37997468D01*
X63147456Y-38208689D01*
X63493005Y-38384755D01*
X63855063Y-38523737D01*
X64229669Y-38624112D01*
X64229676Y-38624113D01*
X64612712Y-38684780D01*
X64999999Y-38705078D01*
X65000001Y-38705078D01*
X65387287Y-38684780D01*
X65770323Y-38624113D01*
X65770330Y-38624112D01*
X66144936Y-38523737D01*
X66506994Y-38384755D01*
X66852543Y-38208689D01*
X67177783Y-37997476D01*
X67177785Y-37997475D01*
X67435349Y-37788902D01*
X65940698Y-36294251D01*
X66042330Y-36220412D01*
X66220412Y-36042330D01*
X66294251Y-35940698D01*
X67788902Y-37435349D01*
X67997475Y-37177785D01*
X67997476Y-37177783D01*
X68208689Y-36852543D01*
X68384755Y-36506994D01*
X68523737Y-36144936D01*
X68624112Y-35770330D01*
X68624113Y-35770323D01*
X68684780Y-35387287D01*
X68705078Y-35000000D01*
X68705078Y-34999999D01*
X68684780Y-34612712D01*
X68624113Y-34229676D01*
X68624112Y-34229669D01*
X68523737Y-33855063D01*
X68384755Y-33493005D01*
X68208689Y-33147456D01*
X67997468Y-32822206D01*
X67788904Y-32564649D01*
X67788903Y-32564648D01*
X66294251Y-34059300D01*
X66220412Y-33957670D01*
X66042330Y-33779588D01*
X65940698Y-33705748D01*
X67435350Y-32211096D01*
X67435350Y-32211095D01*
X67177793Y-32002531D01*
X66852543Y-31791310D01*
X66506994Y-31615244D01*
X66144936Y-31476262D01*
X65770330Y-31375887D01*
X65770323Y-31375886D01*
X65387287Y-31315219D01*
X65000001Y-31294922D01*
X64999999Y-31294922D01*
X64612712Y-31315219D01*
X64229676Y-31375886D01*
X64229669Y-31375887D01*
X63855063Y-31476262D01*
X63493005Y-31615244D01*
X63147456Y-31791310D01*
X62822206Y-32002531D01*
X62564648Y-32211095D01*
X62564648Y-32211096D01*
X64059301Y-33705748D01*
X63957670Y-33779588D01*
X63779588Y-33957670D01*
X63705748Y-34059300D01*
X62211096Y-32564648D01*
X62211095Y-32564648D01*
X62002531Y-32822206D01*
X61791310Y-33147456D01*
X61615244Y-33493005D01*
X61476262Y-33855063D01*
X61375887Y-34229669D01*
X61375886Y-34229676D01*
X61315219Y-34612712D01*
X61294922Y-34999999D01*
X60430149Y-34999999D01*
X60430199Y-32470846D01*
X60426184Y-32320712D01*
X60426527Y-32307617D01*
X60430737Y-32254442D01*
X60450152Y-32009175D01*
X60452233Y-31994350D01*
X60462334Y-31944479D01*
X60511473Y-31701854D01*
X60515324Y-31687391D01*
X60539285Y-31615244D01*
X60609399Y-31404131D01*
X60614953Y-31390271D01*
X60742486Y-31120418D01*
X60749672Y-31107323D01*
X60908803Y-30854808D01*
X60917516Y-30842672D01*
X61105925Y-30611178D01*
X61116043Y-30600177D01*
X61330964Y-30393096D01*
X61342340Y-30383388D01*
X61580669Y-30203713D01*
X61593129Y-30195451D01*
X61851377Y-30045814D01*
X61864728Y-30039120D01*
X62139125Y-29921704D01*
X62153203Y-29916662D01*
X62439747Y-29833177D01*
X62454333Y-29829868D01*
X62749758Y-29781383D01*
X62762807Y-29779946D01*
X62909219Y-29771649D01*
X62916228Y-29771451D01*
X157650805Y-29775471D01*
G37*
%TD.AperFunction*%
M02*
