G04 #@! TF.GenerationSoftware,KiCad,Pcbnew,8.0.2-8.0.2-0~ubuntu24.04.1*
G04 #@! TF.CreationDate,2024-04-29T20:25:20+02:00*
G04 #@! TF.ProjectId,astrobox_radio_input,61737472-6f62-46f7-985f-726164696f5f,1*
G04 #@! TF.SameCoordinates,Original*
G04 #@! TF.FileFunction,Legend,Top*
G04 #@! TF.FilePolarity,Positive*
%FSLAX46Y46*%
G04 Gerber Fmt 4.6, Leading zero omitted, Abs format (unit mm)*
G04 Created by KiCad (PCBNEW 8.0.2-8.0.2-0~ubuntu24.04.1) date 2024-04-29 20:25:20*
%MOMM*%
%LPD*%
G01*
G04 APERTURE LIST*
%ADD10C,0.150000*%
%ADD11C,0.120000*%
G04 APERTURE END LIST*
D10*
X65754000Y-73604000D02*
X150754000Y-73604000D01*
X150754000Y-129604000D01*
X65754000Y-129604000D01*
X65754000Y-73604000D01*
X118416000Y-47244000D02*
X153416000Y-47244000D01*
X153416000Y-72244000D01*
X118416000Y-72244000D01*
X118416000Y-47244000D01*
X118542000Y-34907000D02*
X144542000Y-34907000D01*
X144542000Y-44907000D01*
X118542000Y-44907000D01*
X118542000Y-34907000D01*
X154017550Y-92692411D02*
X153969931Y-92787649D01*
X153969931Y-92787649D02*
X153969931Y-92930506D01*
X153969931Y-92930506D02*
X154017550Y-93073363D01*
X154017550Y-93073363D02*
X154112788Y-93168601D01*
X154112788Y-93168601D02*
X154208026Y-93216220D01*
X154208026Y-93216220D02*
X154398502Y-93263839D01*
X154398502Y-93263839D02*
X154541359Y-93263839D01*
X154541359Y-93263839D02*
X154731835Y-93216220D01*
X154731835Y-93216220D02*
X154827073Y-93168601D01*
X154827073Y-93168601D02*
X154922312Y-93073363D01*
X154922312Y-93073363D02*
X154969931Y-92930506D01*
X154969931Y-92930506D02*
X154969931Y-92835268D01*
X154969931Y-92835268D02*
X154922312Y-92692411D01*
X154922312Y-92692411D02*
X154874692Y-92644792D01*
X154874692Y-92644792D02*
X154541359Y-92644792D01*
X154541359Y-92644792D02*
X154541359Y-92835268D01*
X154969931Y-92216220D02*
X153969931Y-92216220D01*
X153969931Y-92216220D02*
X154969931Y-91644792D01*
X154969931Y-91644792D02*
X153969931Y-91644792D01*
X154969931Y-91168601D02*
X153969931Y-91168601D01*
X153969931Y-91168601D02*
X153969931Y-90930506D01*
X153969931Y-90930506D02*
X154017550Y-90787649D01*
X154017550Y-90787649D02*
X154112788Y-90692411D01*
X154112788Y-90692411D02*
X154208026Y-90644792D01*
X154208026Y-90644792D02*
X154398502Y-90597173D01*
X154398502Y-90597173D02*
X154541359Y-90597173D01*
X154541359Y-90597173D02*
X154731835Y-90644792D01*
X154731835Y-90644792D02*
X154827073Y-90692411D01*
X154827073Y-90692411D02*
X154922312Y-90787649D01*
X154922312Y-90787649D02*
X154969931Y-90930506D01*
X154969931Y-90930506D02*
X154969931Y-91168601D01*
X154922312Y-88692410D02*
X154969931Y-88549553D01*
X154969931Y-88549553D02*
X154969931Y-88311458D01*
X154969931Y-88311458D02*
X154922312Y-88216220D01*
X154922312Y-88216220D02*
X154874692Y-88168601D01*
X154874692Y-88168601D02*
X154779454Y-88120982D01*
X154779454Y-88120982D02*
X154684216Y-88120982D01*
X154684216Y-88120982D02*
X154588978Y-88168601D01*
X154588978Y-88168601D02*
X154541359Y-88216220D01*
X154541359Y-88216220D02*
X154493740Y-88311458D01*
X154493740Y-88311458D02*
X154446121Y-88501934D01*
X154446121Y-88501934D02*
X154398502Y-88597172D01*
X154398502Y-88597172D02*
X154350883Y-88644791D01*
X154350883Y-88644791D02*
X154255645Y-88692410D01*
X154255645Y-88692410D02*
X154160407Y-88692410D01*
X154160407Y-88692410D02*
X154065169Y-88644791D01*
X154065169Y-88644791D02*
X154017550Y-88597172D01*
X154017550Y-88597172D02*
X153969931Y-88501934D01*
X153969931Y-88501934D02*
X153969931Y-88263839D01*
X153969931Y-88263839D02*
X154017550Y-88120982D01*
X154969931Y-87692410D02*
X153969931Y-87692410D01*
X153969931Y-87692410D02*
X153969931Y-87454315D01*
X153969931Y-87454315D02*
X154017550Y-87311458D01*
X154017550Y-87311458D02*
X154112788Y-87216220D01*
X154112788Y-87216220D02*
X154208026Y-87168601D01*
X154208026Y-87168601D02*
X154398502Y-87120982D01*
X154398502Y-87120982D02*
X154541359Y-87120982D01*
X154541359Y-87120982D02*
X154731835Y-87168601D01*
X154731835Y-87168601D02*
X154827073Y-87216220D01*
X154827073Y-87216220D02*
X154922312Y-87311458D01*
X154922312Y-87311458D02*
X154969931Y-87454315D01*
X154969931Y-87454315D02*
X154969931Y-87692410D01*
X154684216Y-86740029D02*
X154684216Y-86263839D01*
X154969931Y-86835267D02*
X153969931Y-86501934D01*
X153969931Y-86501934D02*
X154969931Y-86168601D01*
X157808866Y-93216220D02*
X157808866Y-92454316D01*
X158189819Y-92835268D02*
X157427914Y-92835268D01*
X157189819Y-91501935D02*
X157189819Y-91978125D01*
X157189819Y-91978125D02*
X157666009Y-92025744D01*
X157666009Y-92025744D02*
X157618390Y-91978125D01*
X157618390Y-91978125D02*
X157570771Y-91882887D01*
X157570771Y-91882887D02*
X157570771Y-91644792D01*
X157570771Y-91644792D02*
X157618390Y-91549554D01*
X157618390Y-91549554D02*
X157666009Y-91501935D01*
X157666009Y-91501935D02*
X157761247Y-91454316D01*
X157761247Y-91454316D02*
X157999342Y-91454316D01*
X157999342Y-91454316D02*
X158094580Y-91501935D01*
X158094580Y-91501935D02*
X158142200Y-91549554D01*
X158142200Y-91549554D02*
X158189819Y-91644792D01*
X158189819Y-91644792D02*
X158189819Y-91882887D01*
X158189819Y-91882887D02*
X158142200Y-91978125D01*
X158142200Y-91978125D02*
X158094580Y-92025744D01*
X157189819Y-91168601D02*
X158189819Y-90835268D01*
X158189819Y-90835268D02*
X157189819Y-90501935D01*
X158142200Y-88692410D02*
X158189819Y-88549553D01*
X158189819Y-88549553D02*
X158189819Y-88311458D01*
X158189819Y-88311458D02*
X158142200Y-88216220D01*
X158142200Y-88216220D02*
X158094580Y-88168601D01*
X158094580Y-88168601D02*
X157999342Y-88120982D01*
X157999342Y-88120982D02*
X157904104Y-88120982D01*
X157904104Y-88120982D02*
X157808866Y-88168601D01*
X157808866Y-88168601D02*
X157761247Y-88216220D01*
X157761247Y-88216220D02*
X157713628Y-88311458D01*
X157713628Y-88311458D02*
X157666009Y-88501934D01*
X157666009Y-88501934D02*
X157618390Y-88597172D01*
X157618390Y-88597172D02*
X157570771Y-88644791D01*
X157570771Y-88644791D02*
X157475533Y-88692410D01*
X157475533Y-88692410D02*
X157380295Y-88692410D01*
X157380295Y-88692410D02*
X157285057Y-88644791D01*
X157285057Y-88644791D02*
X157237438Y-88597172D01*
X157237438Y-88597172D02*
X157189819Y-88501934D01*
X157189819Y-88501934D02*
X157189819Y-88263839D01*
X157189819Y-88263839D02*
X157237438Y-88120982D01*
X158094580Y-87120982D02*
X158142200Y-87168601D01*
X158142200Y-87168601D02*
X158189819Y-87311458D01*
X158189819Y-87311458D02*
X158189819Y-87406696D01*
X158189819Y-87406696D02*
X158142200Y-87549553D01*
X158142200Y-87549553D02*
X158046961Y-87644791D01*
X158046961Y-87644791D02*
X157951723Y-87692410D01*
X157951723Y-87692410D02*
X157761247Y-87740029D01*
X157761247Y-87740029D02*
X157618390Y-87740029D01*
X157618390Y-87740029D02*
X157427914Y-87692410D01*
X157427914Y-87692410D02*
X157332676Y-87644791D01*
X157332676Y-87644791D02*
X157237438Y-87549553D01*
X157237438Y-87549553D02*
X157189819Y-87406696D01*
X157189819Y-87406696D02*
X157189819Y-87311458D01*
X157189819Y-87311458D02*
X157237438Y-87168601D01*
X157237438Y-87168601D02*
X157285057Y-87120982D01*
X158189819Y-86216220D02*
X158189819Y-86692410D01*
X158189819Y-86692410D02*
X157189819Y-86692410D01*
X78264190Y-31582256D02*
X78407047Y-31629875D01*
X78407047Y-31629875D02*
X78645142Y-31629875D01*
X78645142Y-31629875D02*
X78740380Y-31582256D01*
X78740380Y-31582256D02*
X78787999Y-31534636D01*
X78787999Y-31534636D02*
X78835618Y-31439398D01*
X78835618Y-31439398D02*
X78835618Y-31344160D01*
X78835618Y-31344160D02*
X78787999Y-31248922D01*
X78787999Y-31248922D02*
X78740380Y-31201303D01*
X78740380Y-31201303D02*
X78645142Y-31153684D01*
X78645142Y-31153684D02*
X78454666Y-31106065D01*
X78454666Y-31106065D02*
X78359428Y-31058446D01*
X78359428Y-31058446D02*
X78311809Y-31010827D01*
X78311809Y-31010827D02*
X78264190Y-30915589D01*
X78264190Y-30915589D02*
X78264190Y-30820351D01*
X78264190Y-30820351D02*
X78311809Y-30725113D01*
X78311809Y-30725113D02*
X78359428Y-30677494D01*
X78359428Y-30677494D02*
X78454666Y-30629875D01*
X78454666Y-30629875D02*
X78692761Y-30629875D01*
X78692761Y-30629875D02*
X78835618Y-30677494D01*
X79264190Y-31629875D02*
X79264190Y-30629875D01*
X79264190Y-30629875D02*
X79502285Y-30629875D01*
X79502285Y-30629875D02*
X79645142Y-30677494D01*
X79645142Y-30677494D02*
X79740380Y-30772732D01*
X79740380Y-30772732D02*
X79787999Y-30867970D01*
X79787999Y-30867970D02*
X79835618Y-31058446D01*
X79835618Y-31058446D02*
X79835618Y-31201303D01*
X79835618Y-31201303D02*
X79787999Y-31391779D01*
X79787999Y-31391779D02*
X79740380Y-31487017D01*
X79740380Y-31487017D02*
X79645142Y-31582256D01*
X79645142Y-31582256D02*
X79502285Y-31629875D01*
X79502285Y-31629875D02*
X79264190Y-31629875D01*
X80216571Y-31344160D02*
X80692761Y-31344160D01*
X80121333Y-31629875D02*
X80454666Y-30629875D01*
X80454666Y-30629875D02*
X80787999Y-31629875D01*
X83930857Y-30677494D02*
X83835619Y-30629875D01*
X83835619Y-30629875D02*
X83692762Y-30629875D01*
X83692762Y-30629875D02*
X83549905Y-30677494D01*
X83549905Y-30677494D02*
X83454667Y-30772732D01*
X83454667Y-30772732D02*
X83407048Y-30867970D01*
X83407048Y-30867970D02*
X83359429Y-31058446D01*
X83359429Y-31058446D02*
X83359429Y-31201303D01*
X83359429Y-31201303D02*
X83407048Y-31391779D01*
X83407048Y-31391779D02*
X83454667Y-31487017D01*
X83454667Y-31487017D02*
X83549905Y-31582256D01*
X83549905Y-31582256D02*
X83692762Y-31629875D01*
X83692762Y-31629875D02*
X83788000Y-31629875D01*
X83788000Y-31629875D02*
X83930857Y-31582256D01*
X83930857Y-31582256D02*
X83978476Y-31534636D01*
X83978476Y-31534636D02*
X83978476Y-31201303D01*
X83978476Y-31201303D02*
X83788000Y-31201303D01*
X84407048Y-31629875D02*
X84407048Y-30629875D01*
X84407048Y-30629875D02*
X84978476Y-31629875D01*
X84978476Y-31629875D02*
X84978476Y-30629875D01*
X85454667Y-31629875D02*
X85454667Y-30629875D01*
X85454667Y-30629875D02*
X85692762Y-30629875D01*
X85692762Y-30629875D02*
X85835619Y-30677494D01*
X85835619Y-30677494D02*
X85930857Y-30772732D01*
X85930857Y-30772732D02*
X85978476Y-30867970D01*
X85978476Y-30867970D02*
X86026095Y-31058446D01*
X86026095Y-31058446D02*
X86026095Y-31201303D01*
X86026095Y-31201303D02*
X85978476Y-31391779D01*
X85978476Y-31391779D02*
X85930857Y-31487017D01*
X85930857Y-31487017D02*
X85835619Y-31582256D01*
X85835619Y-31582256D02*
X85692762Y-31629875D01*
X85692762Y-31629875D02*
X85454667Y-31629875D01*
X88502286Y-31629875D02*
X87930858Y-31629875D01*
X88216572Y-31629875D02*
X88216572Y-30629875D01*
X88216572Y-30629875D02*
X88121334Y-30772732D01*
X88121334Y-30772732D02*
X88026096Y-30867970D01*
X88026096Y-30867970D02*
X87930858Y-30915589D01*
X89407048Y-30629875D02*
X88930858Y-30629875D01*
X88930858Y-30629875D02*
X88883239Y-31106065D01*
X88883239Y-31106065D02*
X88930858Y-31058446D01*
X88930858Y-31058446D02*
X89026096Y-31010827D01*
X89026096Y-31010827D02*
X89264191Y-31010827D01*
X89264191Y-31010827D02*
X89359429Y-31058446D01*
X89359429Y-31058446D02*
X89407048Y-31106065D01*
X89407048Y-31106065D02*
X89454667Y-31201303D01*
X89454667Y-31201303D02*
X89454667Y-31439398D01*
X89454667Y-31439398D02*
X89407048Y-31534636D01*
X89407048Y-31534636D02*
X89359429Y-31582256D01*
X89359429Y-31582256D02*
X89264191Y-31629875D01*
X89264191Y-31629875D02*
X89026096Y-31629875D01*
X89026096Y-31629875D02*
X88930858Y-31582256D01*
X88930858Y-31582256D02*
X88883239Y-31534636D01*
X89740382Y-30629875D02*
X90073715Y-31629875D01*
X90073715Y-31629875D02*
X90407048Y-30629875D01*
X80954666Y-33192200D02*
X81097523Y-33239819D01*
X81097523Y-33239819D02*
X81335618Y-33239819D01*
X81335618Y-33239819D02*
X81430856Y-33192200D01*
X81430856Y-33192200D02*
X81478475Y-33144580D01*
X81478475Y-33144580D02*
X81526094Y-33049342D01*
X81526094Y-33049342D02*
X81526094Y-32954104D01*
X81526094Y-32954104D02*
X81478475Y-32858866D01*
X81478475Y-32858866D02*
X81430856Y-32811247D01*
X81430856Y-32811247D02*
X81335618Y-32763628D01*
X81335618Y-32763628D02*
X81145142Y-32716009D01*
X81145142Y-32716009D02*
X81049904Y-32668390D01*
X81049904Y-32668390D02*
X81002285Y-32620771D01*
X81002285Y-32620771D02*
X80954666Y-32525533D01*
X80954666Y-32525533D02*
X80954666Y-32430295D01*
X80954666Y-32430295D02*
X81002285Y-32335057D01*
X81002285Y-32335057D02*
X81049904Y-32287438D01*
X81049904Y-32287438D02*
X81145142Y-32239819D01*
X81145142Y-32239819D02*
X81383237Y-32239819D01*
X81383237Y-32239819D02*
X81526094Y-32287438D01*
X82526094Y-33144580D02*
X82478475Y-33192200D01*
X82478475Y-33192200D02*
X82335618Y-33239819D01*
X82335618Y-33239819D02*
X82240380Y-33239819D01*
X82240380Y-33239819D02*
X82097523Y-33192200D01*
X82097523Y-33192200D02*
X82002285Y-33096961D01*
X82002285Y-33096961D02*
X81954666Y-33001723D01*
X81954666Y-33001723D02*
X81907047Y-32811247D01*
X81907047Y-32811247D02*
X81907047Y-32668390D01*
X81907047Y-32668390D02*
X81954666Y-32477914D01*
X81954666Y-32477914D02*
X82002285Y-32382676D01*
X82002285Y-32382676D02*
X82097523Y-32287438D01*
X82097523Y-32287438D02*
X82240380Y-32239819D01*
X82240380Y-32239819D02*
X82335618Y-32239819D01*
X82335618Y-32239819D02*
X82478475Y-32287438D01*
X82478475Y-32287438D02*
X82526094Y-32335057D01*
X83430856Y-33239819D02*
X82954666Y-33239819D01*
X82954666Y-33239819D02*
X82954666Y-32239819D01*
X86573714Y-33239819D02*
X86002286Y-33239819D01*
X86288000Y-33239819D02*
X86288000Y-32239819D01*
X86288000Y-32239819D02*
X86192762Y-32382676D01*
X86192762Y-32382676D02*
X86097524Y-32477914D01*
X86097524Y-32477914D02*
X86002286Y-32525533D01*
X86954667Y-32335057D02*
X87002286Y-32287438D01*
X87002286Y-32287438D02*
X87097524Y-32239819D01*
X87097524Y-32239819D02*
X87335619Y-32239819D01*
X87335619Y-32239819D02*
X87430857Y-32287438D01*
X87430857Y-32287438D02*
X87478476Y-32335057D01*
X87478476Y-32335057D02*
X87526095Y-32430295D01*
X87526095Y-32430295D02*
X87526095Y-32525533D01*
X87526095Y-32525533D02*
X87478476Y-32668390D01*
X87478476Y-32668390D02*
X86907048Y-33239819D01*
X86907048Y-33239819D02*
X87526095Y-33239819D01*
X87811810Y-32239819D02*
X88145143Y-33239819D01*
X88145143Y-33239819D02*
X88478476Y-32239819D01*
X101362428Y-31615637D02*
X101505285Y-31663256D01*
X101505285Y-31663256D02*
X101743380Y-31663256D01*
X101743380Y-31663256D02*
X101838618Y-31615637D01*
X101838618Y-31615637D02*
X101886237Y-31568017D01*
X101886237Y-31568017D02*
X101933856Y-31472779D01*
X101933856Y-31472779D02*
X101933856Y-31377541D01*
X101933856Y-31377541D02*
X101886237Y-31282303D01*
X101886237Y-31282303D02*
X101838618Y-31234684D01*
X101838618Y-31234684D02*
X101743380Y-31187065D01*
X101743380Y-31187065D02*
X101552904Y-31139446D01*
X101552904Y-31139446D02*
X101457666Y-31091827D01*
X101457666Y-31091827D02*
X101410047Y-31044208D01*
X101410047Y-31044208D02*
X101362428Y-30948970D01*
X101362428Y-30948970D02*
X101362428Y-30853732D01*
X101362428Y-30853732D02*
X101410047Y-30758494D01*
X101410047Y-30758494D02*
X101457666Y-30710875D01*
X101457666Y-30710875D02*
X101552904Y-30663256D01*
X101552904Y-30663256D02*
X101790999Y-30663256D01*
X101790999Y-30663256D02*
X101933856Y-30710875D01*
X102362428Y-31663256D02*
X102362428Y-30663256D01*
X102362428Y-30663256D02*
X102600523Y-30663256D01*
X102600523Y-30663256D02*
X102743380Y-30710875D01*
X102743380Y-30710875D02*
X102838618Y-30806113D01*
X102838618Y-30806113D02*
X102886237Y-30901351D01*
X102886237Y-30901351D02*
X102933856Y-31091827D01*
X102933856Y-31091827D02*
X102933856Y-31234684D01*
X102933856Y-31234684D02*
X102886237Y-31425160D01*
X102886237Y-31425160D02*
X102838618Y-31520398D01*
X102838618Y-31520398D02*
X102743380Y-31615637D01*
X102743380Y-31615637D02*
X102600523Y-31663256D01*
X102600523Y-31663256D02*
X102362428Y-31663256D01*
X103314809Y-31377541D02*
X103790999Y-31377541D01*
X103219571Y-31663256D02*
X103552904Y-30663256D01*
X103552904Y-30663256D02*
X103886237Y-31663256D01*
X107029095Y-30710875D02*
X106933857Y-30663256D01*
X106933857Y-30663256D02*
X106791000Y-30663256D01*
X106791000Y-30663256D02*
X106648143Y-30710875D01*
X106648143Y-30710875D02*
X106552905Y-30806113D01*
X106552905Y-30806113D02*
X106505286Y-30901351D01*
X106505286Y-30901351D02*
X106457667Y-31091827D01*
X106457667Y-31091827D02*
X106457667Y-31234684D01*
X106457667Y-31234684D02*
X106505286Y-31425160D01*
X106505286Y-31425160D02*
X106552905Y-31520398D01*
X106552905Y-31520398D02*
X106648143Y-31615637D01*
X106648143Y-31615637D02*
X106791000Y-31663256D01*
X106791000Y-31663256D02*
X106886238Y-31663256D01*
X106886238Y-31663256D02*
X107029095Y-31615637D01*
X107029095Y-31615637D02*
X107076714Y-31568017D01*
X107076714Y-31568017D02*
X107076714Y-31234684D01*
X107076714Y-31234684D02*
X106886238Y-31234684D01*
X107505286Y-31663256D02*
X107505286Y-30663256D01*
X107505286Y-30663256D02*
X108076714Y-31663256D01*
X108076714Y-31663256D02*
X108076714Y-30663256D01*
X108552905Y-31663256D02*
X108552905Y-30663256D01*
X108552905Y-30663256D02*
X108791000Y-30663256D01*
X108791000Y-30663256D02*
X108933857Y-30710875D01*
X108933857Y-30710875D02*
X109029095Y-30806113D01*
X109029095Y-30806113D02*
X109076714Y-30901351D01*
X109076714Y-30901351D02*
X109124333Y-31091827D01*
X109124333Y-31091827D02*
X109124333Y-31234684D01*
X109124333Y-31234684D02*
X109076714Y-31425160D01*
X109076714Y-31425160D02*
X109029095Y-31520398D01*
X109029095Y-31520398D02*
X108933857Y-31615637D01*
X108933857Y-31615637D02*
X108791000Y-31663256D01*
X108791000Y-31663256D02*
X108552905Y-31663256D01*
X112314810Y-30663256D02*
X111838620Y-30663256D01*
X111838620Y-30663256D02*
X111791001Y-31139446D01*
X111791001Y-31139446D02*
X111838620Y-31091827D01*
X111838620Y-31091827D02*
X111933858Y-31044208D01*
X111933858Y-31044208D02*
X112171953Y-31044208D01*
X112171953Y-31044208D02*
X112267191Y-31091827D01*
X112267191Y-31091827D02*
X112314810Y-31139446D01*
X112314810Y-31139446D02*
X112362429Y-31234684D01*
X112362429Y-31234684D02*
X112362429Y-31472779D01*
X112362429Y-31472779D02*
X112314810Y-31568017D01*
X112314810Y-31568017D02*
X112267191Y-31615637D01*
X112267191Y-31615637D02*
X112171953Y-31663256D01*
X112171953Y-31663256D02*
X111933858Y-31663256D01*
X111933858Y-31663256D02*
X111838620Y-31615637D01*
X111838620Y-31615637D02*
X111791001Y-31568017D01*
X112648144Y-30663256D02*
X112981477Y-31663256D01*
X112981477Y-31663256D02*
X113314810Y-30663256D01*
X103957666Y-33225581D02*
X104100523Y-33273200D01*
X104100523Y-33273200D02*
X104338618Y-33273200D01*
X104338618Y-33273200D02*
X104433856Y-33225581D01*
X104433856Y-33225581D02*
X104481475Y-33177961D01*
X104481475Y-33177961D02*
X104529094Y-33082723D01*
X104529094Y-33082723D02*
X104529094Y-32987485D01*
X104529094Y-32987485D02*
X104481475Y-32892247D01*
X104481475Y-32892247D02*
X104433856Y-32844628D01*
X104433856Y-32844628D02*
X104338618Y-32797009D01*
X104338618Y-32797009D02*
X104148142Y-32749390D01*
X104148142Y-32749390D02*
X104052904Y-32701771D01*
X104052904Y-32701771D02*
X104005285Y-32654152D01*
X104005285Y-32654152D02*
X103957666Y-32558914D01*
X103957666Y-32558914D02*
X103957666Y-32463676D01*
X103957666Y-32463676D02*
X104005285Y-32368438D01*
X104005285Y-32368438D02*
X104052904Y-32320819D01*
X104052904Y-32320819D02*
X104148142Y-32273200D01*
X104148142Y-32273200D02*
X104386237Y-32273200D01*
X104386237Y-32273200D02*
X104529094Y-32320819D01*
X105529094Y-33177961D02*
X105481475Y-33225581D01*
X105481475Y-33225581D02*
X105338618Y-33273200D01*
X105338618Y-33273200D02*
X105243380Y-33273200D01*
X105243380Y-33273200D02*
X105100523Y-33225581D01*
X105100523Y-33225581D02*
X105005285Y-33130342D01*
X105005285Y-33130342D02*
X104957666Y-33035104D01*
X104957666Y-33035104D02*
X104910047Y-32844628D01*
X104910047Y-32844628D02*
X104910047Y-32701771D01*
X104910047Y-32701771D02*
X104957666Y-32511295D01*
X104957666Y-32511295D02*
X105005285Y-32416057D01*
X105005285Y-32416057D02*
X105100523Y-32320819D01*
X105100523Y-32320819D02*
X105243380Y-32273200D01*
X105243380Y-32273200D02*
X105338618Y-32273200D01*
X105338618Y-32273200D02*
X105481475Y-32320819D01*
X105481475Y-32320819D02*
X105529094Y-32368438D01*
X106433856Y-33273200D02*
X105957666Y-33273200D01*
X105957666Y-33273200D02*
X105957666Y-32273200D01*
X109576714Y-33273200D02*
X109005286Y-33273200D01*
X109291000Y-33273200D02*
X109291000Y-32273200D01*
X109291000Y-32273200D02*
X109195762Y-32416057D01*
X109195762Y-32416057D02*
X109100524Y-32511295D01*
X109100524Y-32511295D02*
X109005286Y-32558914D01*
X109957667Y-32368438D02*
X110005286Y-32320819D01*
X110005286Y-32320819D02*
X110100524Y-32273200D01*
X110100524Y-32273200D02*
X110338619Y-32273200D01*
X110338619Y-32273200D02*
X110433857Y-32320819D01*
X110433857Y-32320819D02*
X110481476Y-32368438D01*
X110481476Y-32368438D02*
X110529095Y-32463676D01*
X110529095Y-32463676D02*
X110529095Y-32558914D01*
X110529095Y-32558914D02*
X110481476Y-32701771D01*
X110481476Y-32701771D02*
X109910048Y-33273200D01*
X109910048Y-33273200D02*
X110529095Y-33273200D01*
X110814810Y-32273200D02*
X111148143Y-33273200D01*
X111148143Y-33273200D02*
X111481476Y-32273200D01*
X95393956Y-63646255D02*
X95393956Y-63836731D01*
X95393956Y-63836731D02*
X95346337Y-63931969D01*
X95346337Y-63931969D02*
X95251099Y-64027207D01*
X95251099Y-64027207D02*
X95060623Y-64074826D01*
X95060623Y-64074826D02*
X94727290Y-64074826D01*
X94727290Y-64074826D02*
X94536814Y-64027207D01*
X94536814Y-64027207D02*
X94441576Y-63931969D01*
X94441576Y-63931969D02*
X94393956Y-63836731D01*
X94393956Y-63836731D02*
X94393956Y-63646255D01*
X94393956Y-63646255D02*
X94441576Y-63551017D01*
X94441576Y-63551017D02*
X94536814Y-63455779D01*
X94536814Y-63455779D02*
X94727290Y-63408160D01*
X94727290Y-63408160D02*
X95060623Y-63408160D01*
X95060623Y-63408160D02*
X95251099Y-63455779D01*
X95251099Y-63455779D02*
X95346337Y-63551017D01*
X95346337Y-63551017D02*
X95393956Y-63646255D01*
X95393956Y-64503398D02*
X94584433Y-64503398D01*
X94584433Y-64503398D02*
X94489195Y-64551017D01*
X94489195Y-64551017D02*
X94441576Y-64598636D01*
X94441576Y-64598636D02*
X94393956Y-64693874D01*
X94393956Y-64693874D02*
X94393956Y-64884350D01*
X94393956Y-64884350D02*
X94441576Y-64979588D01*
X94441576Y-64979588D02*
X94489195Y-65027207D01*
X94489195Y-65027207D02*
X94584433Y-65074826D01*
X94584433Y-65074826D02*
X95393956Y-65074826D01*
X95393956Y-65408160D02*
X95393956Y-65979588D01*
X94393956Y-65693874D02*
X95393956Y-65693874D01*
X92126449Y-63979588D02*
X92174068Y-63884350D01*
X92174068Y-63884350D02*
X92174068Y-63741493D01*
X92174068Y-63741493D02*
X92126449Y-63598636D01*
X92126449Y-63598636D02*
X92031211Y-63503398D01*
X92031211Y-63503398D02*
X91935973Y-63455779D01*
X91935973Y-63455779D02*
X91745497Y-63408160D01*
X91745497Y-63408160D02*
X91602640Y-63408160D01*
X91602640Y-63408160D02*
X91412164Y-63455779D01*
X91412164Y-63455779D02*
X91316926Y-63503398D01*
X91316926Y-63503398D02*
X91221688Y-63598636D01*
X91221688Y-63598636D02*
X91174068Y-63741493D01*
X91174068Y-63741493D02*
X91174068Y-63836731D01*
X91174068Y-63836731D02*
X91221688Y-63979588D01*
X91221688Y-63979588D02*
X91269307Y-64027207D01*
X91269307Y-64027207D02*
X91602640Y-64027207D01*
X91602640Y-64027207D02*
X91602640Y-63836731D01*
X91174068Y-64455779D02*
X92174068Y-64455779D01*
X92174068Y-64455779D02*
X91174068Y-65027207D01*
X91174068Y-65027207D02*
X92174068Y-65027207D01*
X91174068Y-65503398D02*
X92174068Y-65503398D01*
X92174068Y-65503398D02*
X92174068Y-65741493D01*
X92174068Y-65741493D02*
X92126449Y-65884350D01*
X92126449Y-65884350D02*
X92031211Y-65979588D01*
X92031211Y-65979588D02*
X91935973Y-66027207D01*
X91935973Y-66027207D02*
X91745497Y-66074826D01*
X91745497Y-66074826D02*
X91602640Y-66074826D01*
X91602640Y-66074826D02*
X91412164Y-66027207D01*
X91412164Y-66027207D02*
X91316926Y-65979588D01*
X91316926Y-65979588D02*
X91221688Y-65884350D01*
X91221688Y-65884350D02*
X91174068Y-65741493D01*
X91174068Y-65741493D02*
X91174068Y-65503398D01*
X87954180Y-63979588D02*
X87954180Y-63408160D01*
X87954180Y-63693874D02*
X88954180Y-63693874D01*
X88954180Y-63693874D02*
X88811323Y-63598636D01*
X88811323Y-63598636D02*
X88716085Y-63503398D01*
X88716085Y-63503398D02*
X88668466Y-63408160D01*
X88954180Y-64884350D02*
X88954180Y-64408160D01*
X88954180Y-64408160D02*
X88477990Y-64360541D01*
X88477990Y-64360541D02*
X88525609Y-64408160D01*
X88525609Y-64408160D02*
X88573228Y-64503398D01*
X88573228Y-64503398D02*
X88573228Y-64741493D01*
X88573228Y-64741493D02*
X88525609Y-64836731D01*
X88525609Y-64836731D02*
X88477990Y-64884350D01*
X88477990Y-64884350D02*
X88382752Y-64931969D01*
X88382752Y-64931969D02*
X88144657Y-64931969D01*
X88144657Y-64931969D02*
X88049419Y-64884350D01*
X88049419Y-64884350D02*
X88001800Y-64836731D01*
X88001800Y-64836731D02*
X87954180Y-64741493D01*
X87954180Y-64741493D02*
X87954180Y-64503398D01*
X87954180Y-64503398D02*
X88001800Y-64408160D01*
X88001800Y-64408160D02*
X88049419Y-64360541D01*
X88954180Y-65217684D02*
X87954180Y-65551017D01*
X87954180Y-65551017D02*
X88954180Y-65884350D01*
X64180819Y-70310333D02*
X64895104Y-70310333D01*
X64895104Y-70310333D02*
X65037961Y-70357952D01*
X65037961Y-70357952D02*
X65133200Y-70453190D01*
X65133200Y-70453190D02*
X65180819Y-70596047D01*
X65180819Y-70596047D02*
X65180819Y-70691285D01*
X64609390Y-69691285D02*
X64561771Y-69786523D01*
X64561771Y-69786523D02*
X64514152Y-69834142D01*
X64514152Y-69834142D02*
X64418914Y-69881761D01*
X64418914Y-69881761D02*
X64371295Y-69881761D01*
X64371295Y-69881761D02*
X64276057Y-69834142D01*
X64276057Y-69834142D02*
X64228438Y-69786523D01*
X64228438Y-69786523D02*
X64180819Y-69691285D01*
X64180819Y-69691285D02*
X64180819Y-69500809D01*
X64180819Y-69500809D02*
X64228438Y-69405571D01*
X64228438Y-69405571D02*
X64276057Y-69357952D01*
X64276057Y-69357952D02*
X64371295Y-69310333D01*
X64371295Y-69310333D02*
X64418914Y-69310333D01*
X64418914Y-69310333D02*
X64514152Y-69357952D01*
X64514152Y-69357952D02*
X64561771Y-69405571D01*
X64561771Y-69405571D02*
X64609390Y-69500809D01*
X64609390Y-69500809D02*
X64609390Y-69691285D01*
X64609390Y-69691285D02*
X64657009Y-69786523D01*
X64657009Y-69786523D02*
X64704628Y-69834142D01*
X64704628Y-69834142D02*
X64799866Y-69881761D01*
X64799866Y-69881761D02*
X64990342Y-69881761D01*
X64990342Y-69881761D02*
X65085580Y-69834142D01*
X65085580Y-69834142D02*
X65133200Y-69786523D01*
X65133200Y-69786523D02*
X65180819Y-69691285D01*
X65180819Y-69691285D02*
X65180819Y-69500809D01*
X65180819Y-69500809D02*
X65133200Y-69405571D01*
X65133200Y-69405571D02*
X65085580Y-69357952D01*
X65085580Y-69357952D02*
X64990342Y-69310333D01*
X64990342Y-69310333D02*
X64799866Y-69310333D01*
X64799866Y-69310333D02*
X64704628Y-69357952D01*
X64704628Y-69357952D02*
X64657009Y-69405571D01*
X64657009Y-69405571D02*
X64609390Y-69500809D01*
X107975999Y-66631819D02*
X107642666Y-66155628D01*
X107404571Y-66631819D02*
X107404571Y-65631819D01*
X107404571Y-65631819D02*
X107785523Y-65631819D01*
X107785523Y-65631819D02*
X107880761Y-65679438D01*
X107880761Y-65679438D02*
X107928380Y-65727057D01*
X107928380Y-65727057D02*
X107975999Y-65822295D01*
X107975999Y-65822295D02*
X107975999Y-65965152D01*
X107975999Y-65965152D02*
X107928380Y-66060390D01*
X107928380Y-66060390D02*
X107880761Y-66108009D01*
X107880761Y-66108009D02*
X107785523Y-66155628D01*
X107785523Y-66155628D02*
X107404571Y-66155628D01*
X108833142Y-66631819D02*
X108833142Y-66108009D01*
X108833142Y-66108009D02*
X108785523Y-66012771D01*
X108785523Y-66012771D02*
X108690285Y-65965152D01*
X108690285Y-65965152D02*
X108499809Y-65965152D01*
X108499809Y-65965152D02*
X108404571Y-66012771D01*
X108833142Y-66584200D02*
X108737904Y-66631819D01*
X108737904Y-66631819D02*
X108499809Y-66631819D01*
X108499809Y-66631819D02*
X108404571Y-66584200D01*
X108404571Y-66584200D02*
X108356952Y-66488961D01*
X108356952Y-66488961D02*
X108356952Y-66393723D01*
X108356952Y-66393723D02*
X108404571Y-66298485D01*
X108404571Y-66298485D02*
X108499809Y-66250866D01*
X108499809Y-66250866D02*
X108737904Y-66250866D01*
X108737904Y-66250866D02*
X108833142Y-66203247D01*
X109261714Y-66584200D02*
X109356952Y-66631819D01*
X109356952Y-66631819D02*
X109547428Y-66631819D01*
X109547428Y-66631819D02*
X109642666Y-66584200D01*
X109642666Y-66584200D02*
X109690285Y-66488961D01*
X109690285Y-66488961D02*
X109690285Y-66441342D01*
X109690285Y-66441342D02*
X109642666Y-66346104D01*
X109642666Y-66346104D02*
X109547428Y-66298485D01*
X109547428Y-66298485D02*
X109404571Y-66298485D01*
X109404571Y-66298485D02*
X109309333Y-66250866D01*
X109309333Y-66250866D02*
X109261714Y-66155628D01*
X109261714Y-66155628D02*
X109261714Y-66108009D01*
X109261714Y-66108009D02*
X109309333Y-66012771D01*
X109309333Y-66012771D02*
X109404571Y-65965152D01*
X109404571Y-65965152D02*
X109547428Y-65965152D01*
X109547428Y-65965152D02*
X109642666Y-66012771D01*
X110118857Y-65965152D02*
X110118857Y-66965152D01*
X110118857Y-66012771D02*
X110214095Y-65965152D01*
X110214095Y-65965152D02*
X110404571Y-65965152D01*
X110404571Y-65965152D02*
X110499809Y-66012771D01*
X110499809Y-66012771D02*
X110547428Y-66060390D01*
X110547428Y-66060390D02*
X110595047Y-66155628D01*
X110595047Y-66155628D02*
X110595047Y-66441342D01*
X110595047Y-66441342D02*
X110547428Y-66536580D01*
X110547428Y-66536580D02*
X110499809Y-66584200D01*
X110499809Y-66584200D02*
X110404571Y-66631819D01*
X110404571Y-66631819D02*
X110214095Y-66631819D01*
X110214095Y-66631819D02*
X110118857Y-66584200D01*
X111023619Y-66631819D02*
X111023619Y-65631819D01*
X111023619Y-66012771D02*
X111118857Y-65965152D01*
X111118857Y-65965152D02*
X111309333Y-65965152D01*
X111309333Y-65965152D02*
X111404571Y-66012771D01*
X111404571Y-66012771D02*
X111452190Y-66060390D01*
X111452190Y-66060390D02*
X111499809Y-66155628D01*
X111499809Y-66155628D02*
X111499809Y-66441342D01*
X111499809Y-66441342D02*
X111452190Y-66536580D01*
X111452190Y-66536580D02*
X111404571Y-66584200D01*
X111404571Y-66584200D02*
X111309333Y-66631819D01*
X111309333Y-66631819D02*
X111118857Y-66631819D01*
X111118857Y-66631819D02*
X111023619Y-66584200D01*
X112309333Y-66584200D02*
X112214095Y-66631819D01*
X112214095Y-66631819D02*
X112023619Y-66631819D01*
X112023619Y-66631819D02*
X111928381Y-66584200D01*
X111928381Y-66584200D02*
X111880762Y-66488961D01*
X111880762Y-66488961D02*
X111880762Y-66108009D01*
X111880762Y-66108009D02*
X111928381Y-66012771D01*
X111928381Y-66012771D02*
X112023619Y-65965152D01*
X112023619Y-65965152D02*
X112214095Y-65965152D01*
X112214095Y-65965152D02*
X112309333Y-66012771D01*
X112309333Y-66012771D02*
X112356952Y-66108009D01*
X112356952Y-66108009D02*
X112356952Y-66203247D01*
X112356952Y-66203247D02*
X111880762Y-66298485D01*
X112785524Y-66631819D02*
X112785524Y-65965152D01*
X112785524Y-66155628D02*
X112833143Y-66060390D01*
X112833143Y-66060390D02*
X112880762Y-66012771D01*
X112880762Y-66012771D02*
X112976000Y-65965152D01*
X112976000Y-65965152D02*
X113071238Y-65965152D01*
X113404572Y-66631819D02*
X113404572Y-65965152D01*
X113404572Y-66155628D02*
X113452191Y-66060390D01*
X113452191Y-66060390D02*
X113499810Y-66012771D01*
X113499810Y-66012771D02*
X113595048Y-65965152D01*
X113595048Y-65965152D02*
X113690286Y-65965152D01*
X113928382Y-65965152D02*
X114166477Y-66631819D01*
X114404572Y-65965152D02*
X114166477Y-66631819D01*
X114166477Y-66631819D02*
X114071239Y-66869914D01*
X114071239Y-66869914D02*
X114023620Y-66917533D01*
X114023620Y-66917533D02*
X113928382Y-66965152D01*
X114547430Y-66727057D02*
X115309334Y-66727057D01*
X115547430Y-66631819D02*
X115547430Y-65631819D01*
X115547430Y-65631819D02*
X115928382Y-65631819D01*
X115928382Y-65631819D02*
X116023620Y-65679438D01*
X116023620Y-65679438D02*
X116071239Y-65727057D01*
X116071239Y-65727057D02*
X116118858Y-65822295D01*
X116118858Y-65822295D02*
X116118858Y-65965152D01*
X116118858Y-65965152D02*
X116071239Y-66060390D01*
X116071239Y-66060390D02*
X116023620Y-66108009D01*
X116023620Y-66108009D02*
X115928382Y-66155628D01*
X115928382Y-66155628D02*
X115547430Y-66155628D01*
X116547430Y-66631819D02*
X116547430Y-65965152D01*
X116547430Y-65631819D02*
X116499811Y-65679438D01*
X116499811Y-65679438D02*
X116547430Y-65727057D01*
X116547430Y-65727057D02*
X116595049Y-65679438D01*
X116595049Y-65679438D02*
X116547430Y-65631819D01*
X116547430Y-65631819D02*
X116547430Y-65727057D01*
X88987333Y-42015819D02*
X88511143Y-42015819D01*
X88511143Y-42015819D02*
X88511143Y-41015819D01*
X89844476Y-42015819D02*
X89273048Y-42015819D01*
X89558762Y-42015819D02*
X89558762Y-41015819D01*
X89558762Y-41015819D02*
X89463524Y-41158676D01*
X89463524Y-41158676D02*
X89368286Y-41253914D01*
X89368286Y-41253914D02*
X89273048Y-41301533D01*
X76329143Y-59331819D02*
X76329143Y-58331819D01*
X76329143Y-58331819D02*
X76567238Y-58331819D01*
X76567238Y-58331819D02*
X76710095Y-58379438D01*
X76710095Y-58379438D02*
X76805333Y-58474676D01*
X76805333Y-58474676D02*
X76852952Y-58569914D01*
X76852952Y-58569914D02*
X76900571Y-58760390D01*
X76900571Y-58760390D02*
X76900571Y-58903247D01*
X76900571Y-58903247D02*
X76852952Y-59093723D01*
X76852952Y-59093723D02*
X76805333Y-59188961D01*
X76805333Y-59188961D02*
X76710095Y-59284200D01*
X76710095Y-59284200D02*
X76567238Y-59331819D01*
X76567238Y-59331819D02*
X76329143Y-59331819D01*
X77329143Y-59331819D02*
X77329143Y-58331819D01*
X77329143Y-58331819D02*
X77710095Y-58331819D01*
X77710095Y-58331819D02*
X77805333Y-58379438D01*
X77805333Y-58379438D02*
X77852952Y-58427057D01*
X77852952Y-58427057D02*
X77900571Y-58522295D01*
X77900571Y-58522295D02*
X77900571Y-58665152D01*
X77900571Y-58665152D02*
X77852952Y-58760390D01*
X77852952Y-58760390D02*
X77805333Y-58808009D01*
X77805333Y-58808009D02*
X77710095Y-58855628D01*
X77710095Y-58855628D02*
X77329143Y-58855628D01*
X78519619Y-58331819D02*
X78710095Y-58331819D01*
X78710095Y-58331819D02*
X78805333Y-58379438D01*
X78805333Y-58379438D02*
X78900571Y-58474676D01*
X78900571Y-58474676D02*
X78948190Y-58665152D01*
X78948190Y-58665152D02*
X78948190Y-58998485D01*
X78948190Y-58998485D02*
X78900571Y-59188961D01*
X78900571Y-59188961D02*
X78805333Y-59284200D01*
X78805333Y-59284200D02*
X78710095Y-59331819D01*
X78710095Y-59331819D02*
X78519619Y-59331819D01*
X78519619Y-59331819D02*
X78424381Y-59284200D01*
X78424381Y-59284200D02*
X78329143Y-59188961D01*
X78329143Y-59188961D02*
X78281524Y-58998485D01*
X78281524Y-58998485D02*
X78281524Y-58665152D01*
X78281524Y-58665152D02*
X78329143Y-58474676D01*
X78329143Y-58474676D02*
X78424381Y-58379438D01*
X78424381Y-58379438D02*
X78519619Y-58331819D01*
X79376762Y-58950866D02*
X80138667Y-58950866D01*
X80519619Y-58331819D02*
X81138666Y-58331819D01*
X81138666Y-58331819D02*
X80805333Y-58712771D01*
X80805333Y-58712771D02*
X80948190Y-58712771D01*
X80948190Y-58712771D02*
X81043428Y-58760390D01*
X81043428Y-58760390D02*
X81091047Y-58808009D01*
X81091047Y-58808009D02*
X81138666Y-58903247D01*
X81138666Y-58903247D02*
X81138666Y-59141342D01*
X81138666Y-59141342D02*
X81091047Y-59236580D01*
X81091047Y-59236580D02*
X81043428Y-59284200D01*
X81043428Y-59284200D02*
X80948190Y-59331819D01*
X80948190Y-59331819D02*
X80662476Y-59331819D01*
X80662476Y-59331819D02*
X80567238Y-59284200D01*
X80567238Y-59284200D02*
X80519619Y-59236580D01*
X81567238Y-59236580D02*
X81614857Y-59284200D01*
X81614857Y-59284200D02*
X81567238Y-59331819D01*
X81567238Y-59331819D02*
X81519619Y-59284200D01*
X81519619Y-59284200D02*
X81567238Y-59236580D01*
X81567238Y-59236580D02*
X81567238Y-59331819D01*
X82233904Y-58331819D02*
X82329142Y-58331819D01*
X82329142Y-58331819D02*
X82424380Y-58379438D01*
X82424380Y-58379438D02*
X82471999Y-58427057D01*
X82471999Y-58427057D02*
X82519618Y-58522295D01*
X82519618Y-58522295D02*
X82567237Y-58712771D01*
X82567237Y-58712771D02*
X82567237Y-58950866D01*
X82567237Y-58950866D02*
X82519618Y-59141342D01*
X82519618Y-59141342D02*
X82471999Y-59236580D01*
X82471999Y-59236580D02*
X82424380Y-59284200D01*
X82424380Y-59284200D02*
X82329142Y-59331819D01*
X82329142Y-59331819D02*
X82233904Y-59331819D01*
X82233904Y-59331819D02*
X82138666Y-59284200D01*
X82138666Y-59284200D02*
X82091047Y-59236580D01*
X82091047Y-59236580D02*
X82043428Y-59141342D01*
X82043428Y-59141342D02*
X81995809Y-58950866D01*
X81995809Y-58950866D02*
X81995809Y-58712771D01*
X81995809Y-58712771D02*
X82043428Y-58522295D01*
X82043428Y-58522295D02*
X82091047Y-58427057D01*
X82091047Y-58427057D02*
X82138666Y-58379438D01*
X82138666Y-58379438D02*
X82233904Y-58331819D01*
X82995809Y-58950866D02*
X83757714Y-58950866D01*
X84757713Y-59331819D02*
X84186285Y-59331819D01*
X84471999Y-59331819D02*
X84471999Y-58331819D01*
X84471999Y-58331819D02*
X84376761Y-58474676D01*
X84376761Y-58474676D02*
X84281523Y-58569914D01*
X84281523Y-58569914D02*
X84186285Y-58617533D01*
X85376761Y-58331819D02*
X85471999Y-58331819D01*
X85471999Y-58331819D02*
X85567237Y-58379438D01*
X85567237Y-58379438D02*
X85614856Y-58427057D01*
X85614856Y-58427057D02*
X85662475Y-58522295D01*
X85662475Y-58522295D02*
X85710094Y-58712771D01*
X85710094Y-58712771D02*
X85710094Y-58950866D01*
X85710094Y-58950866D02*
X85662475Y-59141342D01*
X85662475Y-59141342D02*
X85614856Y-59236580D01*
X85614856Y-59236580D02*
X85567237Y-59284200D01*
X85567237Y-59284200D02*
X85471999Y-59331819D01*
X85471999Y-59331819D02*
X85376761Y-59331819D01*
X85376761Y-59331819D02*
X85281523Y-59284200D01*
X85281523Y-59284200D02*
X85233904Y-59236580D01*
X85233904Y-59236580D02*
X85186285Y-59141342D01*
X85186285Y-59141342D02*
X85138666Y-58950866D01*
X85138666Y-58950866D02*
X85138666Y-58712771D01*
X85138666Y-58712771D02*
X85186285Y-58522295D01*
X85186285Y-58522295D02*
X85233904Y-58427057D01*
X85233904Y-58427057D02*
X85281523Y-58379438D01*
X85281523Y-58379438D02*
X85376761Y-58331819D01*
X86329142Y-58331819D02*
X86424380Y-58331819D01*
X86424380Y-58331819D02*
X86519618Y-58379438D01*
X86519618Y-58379438D02*
X86567237Y-58427057D01*
X86567237Y-58427057D02*
X86614856Y-58522295D01*
X86614856Y-58522295D02*
X86662475Y-58712771D01*
X86662475Y-58712771D02*
X86662475Y-58950866D01*
X86662475Y-58950866D02*
X86614856Y-59141342D01*
X86614856Y-59141342D02*
X86567237Y-59236580D01*
X86567237Y-59236580D02*
X86519618Y-59284200D01*
X86519618Y-59284200D02*
X86424380Y-59331819D01*
X86424380Y-59331819D02*
X86329142Y-59331819D01*
X86329142Y-59331819D02*
X86233904Y-59284200D01*
X86233904Y-59284200D02*
X86186285Y-59236580D01*
X86186285Y-59236580D02*
X86138666Y-59141342D01*
X86138666Y-59141342D02*
X86091047Y-58950866D01*
X86091047Y-58950866D02*
X86091047Y-58712771D01*
X86091047Y-58712771D02*
X86138666Y-58522295D01*
X86138666Y-58522295D02*
X86186285Y-58427057D01*
X86186285Y-58427057D02*
X86233904Y-58379438D01*
X86233904Y-58379438D02*
X86329142Y-58331819D01*
X83954666Y-39884819D02*
X83954666Y-40599104D01*
X83954666Y-40599104D02*
X83907047Y-40741961D01*
X83907047Y-40741961D02*
X83811809Y-40837200D01*
X83811809Y-40837200D02*
X83668952Y-40884819D01*
X83668952Y-40884819D02*
X83573714Y-40884819D01*
X84335619Y-39884819D02*
X84954666Y-39884819D01*
X84954666Y-39884819D02*
X84621333Y-40265771D01*
X84621333Y-40265771D02*
X84764190Y-40265771D01*
X84764190Y-40265771D02*
X84859428Y-40313390D01*
X84859428Y-40313390D02*
X84907047Y-40361009D01*
X84907047Y-40361009D02*
X84954666Y-40456247D01*
X84954666Y-40456247D02*
X84954666Y-40694342D01*
X84954666Y-40694342D02*
X84907047Y-40789580D01*
X84907047Y-40789580D02*
X84859428Y-40837200D01*
X84859428Y-40837200D02*
X84764190Y-40884819D01*
X84764190Y-40884819D02*
X84478476Y-40884819D01*
X84478476Y-40884819D02*
X84383238Y-40837200D01*
X84383238Y-40837200D02*
X84335619Y-40789580D01*
X120382666Y-65331819D02*
X120382666Y-66046104D01*
X120382666Y-66046104D02*
X120335047Y-66188961D01*
X120335047Y-66188961D02*
X120239809Y-66284200D01*
X120239809Y-66284200D02*
X120096952Y-66331819D01*
X120096952Y-66331819D02*
X120001714Y-66331819D01*
X120811238Y-65427057D02*
X120858857Y-65379438D01*
X120858857Y-65379438D02*
X120954095Y-65331819D01*
X120954095Y-65331819D02*
X121192190Y-65331819D01*
X121192190Y-65331819D02*
X121287428Y-65379438D01*
X121287428Y-65379438D02*
X121335047Y-65427057D01*
X121335047Y-65427057D02*
X121382666Y-65522295D01*
X121382666Y-65522295D02*
X121382666Y-65617533D01*
X121382666Y-65617533D02*
X121335047Y-65760390D01*
X121335047Y-65760390D02*
X120763619Y-66331819D01*
X120763619Y-66331819D02*
X121382666Y-66331819D01*
X128683380Y-58726438D02*
X128588142Y-58678819D01*
X128588142Y-58678819D02*
X128445285Y-58678819D01*
X128445285Y-58678819D02*
X128302428Y-58726438D01*
X128302428Y-58726438D02*
X128207190Y-58821676D01*
X128207190Y-58821676D02*
X128159571Y-58916914D01*
X128159571Y-58916914D02*
X128111952Y-59107390D01*
X128111952Y-59107390D02*
X128111952Y-59250247D01*
X128111952Y-59250247D02*
X128159571Y-59440723D01*
X128159571Y-59440723D02*
X128207190Y-59535961D01*
X128207190Y-59535961D02*
X128302428Y-59631200D01*
X128302428Y-59631200D02*
X128445285Y-59678819D01*
X128445285Y-59678819D02*
X128540523Y-59678819D01*
X128540523Y-59678819D02*
X128683380Y-59631200D01*
X128683380Y-59631200D02*
X128730999Y-59583580D01*
X128730999Y-59583580D02*
X128730999Y-59250247D01*
X128730999Y-59250247D02*
X128540523Y-59250247D01*
X129159571Y-59678819D02*
X129159571Y-58678819D01*
X129159571Y-58678819D02*
X129540523Y-58678819D01*
X129540523Y-58678819D02*
X129635761Y-58726438D01*
X129635761Y-58726438D02*
X129683380Y-58774057D01*
X129683380Y-58774057D02*
X129730999Y-58869295D01*
X129730999Y-58869295D02*
X129730999Y-59012152D01*
X129730999Y-59012152D02*
X129683380Y-59107390D01*
X129683380Y-59107390D02*
X129635761Y-59155009D01*
X129635761Y-59155009D02*
X129540523Y-59202628D01*
X129540523Y-59202628D02*
X129159571Y-59202628D01*
X130111952Y-59631200D02*
X130254809Y-59678819D01*
X130254809Y-59678819D02*
X130492904Y-59678819D01*
X130492904Y-59678819D02*
X130588142Y-59631200D01*
X130588142Y-59631200D02*
X130635761Y-59583580D01*
X130635761Y-59583580D02*
X130683380Y-59488342D01*
X130683380Y-59488342D02*
X130683380Y-59393104D01*
X130683380Y-59393104D02*
X130635761Y-59297866D01*
X130635761Y-59297866D02*
X130588142Y-59250247D01*
X130588142Y-59250247D02*
X130492904Y-59202628D01*
X130492904Y-59202628D02*
X130302428Y-59155009D01*
X130302428Y-59155009D02*
X130207190Y-59107390D01*
X130207190Y-59107390D02*
X130159571Y-59059771D01*
X130159571Y-59059771D02*
X130111952Y-58964533D01*
X130111952Y-58964533D02*
X130111952Y-58869295D01*
X130111952Y-58869295D02*
X130159571Y-58774057D01*
X130159571Y-58774057D02*
X130207190Y-58726438D01*
X130207190Y-58726438D02*
X130302428Y-58678819D01*
X130302428Y-58678819D02*
X130540523Y-58678819D01*
X130540523Y-58678819D02*
X130683380Y-58726438D01*
X131873857Y-59678819D02*
X131873857Y-58678819D01*
X131873857Y-58678819D02*
X132207190Y-59393104D01*
X132207190Y-59393104D02*
X132540523Y-58678819D01*
X132540523Y-58678819D02*
X132540523Y-59678819D01*
X133159571Y-59678819D02*
X133064333Y-59631200D01*
X133064333Y-59631200D02*
X133016714Y-59583580D01*
X133016714Y-59583580D02*
X132969095Y-59488342D01*
X132969095Y-59488342D02*
X132969095Y-59202628D01*
X132969095Y-59202628D02*
X133016714Y-59107390D01*
X133016714Y-59107390D02*
X133064333Y-59059771D01*
X133064333Y-59059771D02*
X133159571Y-59012152D01*
X133159571Y-59012152D02*
X133302428Y-59012152D01*
X133302428Y-59012152D02*
X133397666Y-59059771D01*
X133397666Y-59059771D02*
X133445285Y-59107390D01*
X133445285Y-59107390D02*
X133492904Y-59202628D01*
X133492904Y-59202628D02*
X133492904Y-59488342D01*
X133492904Y-59488342D02*
X133445285Y-59583580D01*
X133445285Y-59583580D02*
X133397666Y-59631200D01*
X133397666Y-59631200D02*
X133302428Y-59678819D01*
X133302428Y-59678819D02*
X133159571Y-59678819D01*
X134350047Y-59678819D02*
X134350047Y-58678819D01*
X134350047Y-59631200D02*
X134254809Y-59678819D01*
X134254809Y-59678819D02*
X134064333Y-59678819D01*
X134064333Y-59678819D02*
X133969095Y-59631200D01*
X133969095Y-59631200D02*
X133921476Y-59583580D01*
X133921476Y-59583580D02*
X133873857Y-59488342D01*
X133873857Y-59488342D02*
X133873857Y-59202628D01*
X133873857Y-59202628D02*
X133921476Y-59107390D01*
X133921476Y-59107390D02*
X133969095Y-59059771D01*
X133969095Y-59059771D02*
X134064333Y-59012152D01*
X134064333Y-59012152D02*
X134254809Y-59012152D01*
X134254809Y-59012152D02*
X134350047Y-59059771D01*
X135254809Y-59012152D02*
X135254809Y-59678819D01*
X134826238Y-59012152D02*
X134826238Y-59535961D01*
X134826238Y-59535961D02*
X134873857Y-59631200D01*
X134873857Y-59631200D02*
X134969095Y-59678819D01*
X134969095Y-59678819D02*
X135111952Y-59678819D01*
X135111952Y-59678819D02*
X135207190Y-59631200D01*
X135207190Y-59631200D02*
X135254809Y-59583580D01*
X135873857Y-59678819D02*
X135778619Y-59631200D01*
X135778619Y-59631200D02*
X135731000Y-59535961D01*
X135731000Y-59535961D02*
X135731000Y-58678819D01*
X137540524Y-58726438D02*
X137445286Y-58678819D01*
X137445286Y-58678819D02*
X137302429Y-58678819D01*
X137302429Y-58678819D02*
X137159572Y-58726438D01*
X137159572Y-58726438D02*
X137064334Y-58821676D01*
X137064334Y-58821676D02*
X137016715Y-58916914D01*
X137016715Y-58916914D02*
X136969096Y-59107390D01*
X136969096Y-59107390D02*
X136969096Y-59250247D01*
X136969096Y-59250247D02*
X137016715Y-59440723D01*
X137016715Y-59440723D02*
X137064334Y-59535961D01*
X137064334Y-59535961D02*
X137159572Y-59631200D01*
X137159572Y-59631200D02*
X137302429Y-59678819D01*
X137302429Y-59678819D02*
X137397667Y-59678819D01*
X137397667Y-59678819D02*
X137540524Y-59631200D01*
X137540524Y-59631200D02*
X137588143Y-59583580D01*
X137588143Y-59583580D02*
X137588143Y-59250247D01*
X137588143Y-59250247D02*
X137397667Y-59250247D01*
X138207191Y-59202628D02*
X138207191Y-59678819D01*
X137873858Y-58678819D02*
X138207191Y-59202628D01*
X138207191Y-59202628D02*
X138540524Y-58678819D01*
X138873858Y-59297866D02*
X139635763Y-59297866D01*
X140111953Y-59678819D02*
X140111953Y-58678819D01*
X140111953Y-58678819D02*
X140683381Y-59678819D01*
X140683381Y-59678819D02*
X140683381Y-58678819D01*
X141159572Y-59155009D02*
X141492905Y-59155009D01*
X141635762Y-59678819D02*
X141159572Y-59678819D01*
X141159572Y-59678819D02*
X141159572Y-58678819D01*
X141159572Y-58678819D02*
X141635762Y-58678819D01*
X142254810Y-58678819D02*
X142445286Y-58678819D01*
X142445286Y-58678819D02*
X142540524Y-58726438D01*
X142540524Y-58726438D02*
X142635762Y-58821676D01*
X142635762Y-58821676D02*
X142683381Y-59012152D01*
X142683381Y-59012152D02*
X142683381Y-59345485D01*
X142683381Y-59345485D02*
X142635762Y-59535961D01*
X142635762Y-59535961D02*
X142540524Y-59631200D01*
X142540524Y-59631200D02*
X142445286Y-59678819D01*
X142445286Y-59678819D02*
X142254810Y-59678819D01*
X142254810Y-59678819D02*
X142159572Y-59631200D01*
X142159572Y-59631200D02*
X142064334Y-59535961D01*
X142064334Y-59535961D02*
X142016715Y-59345485D01*
X142016715Y-59345485D02*
X142016715Y-59012152D01*
X142016715Y-59012152D02*
X142064334Y-58821676D01*
X142064334Y-58821676D02*
X142159572Y-58726438D01*
X142159572Y-58726438D02*
X142254810Y-58678819D01*
X143540524Y-58678819D02*
X143350048Y-58678819D01*
X143350048Y-58678819D02*
X143254810Y-58726438D01*
X143254810Y-58726438D02*
X143207191Y-58774057D01*
X143207191Y-58774057D02*
X143111953Y-58916914D01*
X143111953Y-58916914D02*
X143064334Y-59107390D01*
X143064334Y-59107390D02*
X143064334Y-59488342D01*
X143064334Y-59488342D02*
X143111953Y-59583580D01*
X143111953Y-59583580D02*
X143159572Y-59631200D01*
X143159572Y-59631200D02*
X143254810Y-59678819D01*
X143254810Y-59678819D02*
X143445286Y-59678819D01*
X143445286Y-59678819D02*
X143540524Y-59631200D01*
X143540524Y-59631200D02*
X143588143Y-59583580D01*
X143588143Y-59583580D02*
X143635762Y-59488342D01*
X143635762Y-59488342D02*
X143635762Y-59250247D01*
X143635762Y-59250247D02*
X143588143Y-59155009D01*
X143588143Y-59155009D02*
X143540524Y-59107390D01*
X143540524Y-59107390D02*
X143445286Y-59059771D01*
X143445286Y-59059771D02*
X143254810Y-59059771D01*
X143254810Y-59059771D02*
X143159572Y-59107390D01*
X143159572Y-59107390D02*
X143111953Y-59155009D01*
X143111953Y-59155009D02*
X143064334Y-59250247D01*
X144064334Y-59678819D02*
X144064334Y-58678819D01*
X144064334Y-58678819D02*
X144397667Y-59393104D01*
X144397667Y-59393104D02*
X144731000Y-58678819D01*
X144731000Y-58678819D02*
X144731000Y-59678819D01*
X145064334Y-58678819D02*
X145397667Y-59678819D01*
X145397667Y-59678819D02*
X145731000Y-58678819D01*
X146016715Y-58774057D02*
X146064334Y-58726438D01*
X146064334Y-58726438D02*
X146159572Y-58678819D01*
X146159572Y-58678819D02*
X146397667Y-58678819D01*
X146397667Y-58678819D02*
X146492905Y-58726438D01*
X146492905Y-58726438D02*
X146540524Y-58774057D01*
X146540524Y-58774057D02*
X146588143Y-58869295D01*
X146588143Y-58869295D02*
X146588143Y-58964533D01*
X146588143Y-58964533D02*
X146540524Y-59107390D01*
X146540524Y-59107390D02*
X145969096Y-59678819D01*
X145969096Y-59678819D02*
X146588143Y-59678819D01*
X118919666Y-45047819D02*
X118919666Y-45762104D01*
X118919666Y-45762104D02*
X118872047Y-45904961D01*
X118872047Y-45904961D02*
X118776809Y-46000200D01*
X118776809Y-46000200D02*
X118633952Y-46047819D01*
X118633952Y-46047819D02*
X118538714Y-46047819D01*
X119824428Y-45381152D02*
X119824428Y-46047819D01*
X119586333Y-45000200D02*
X119348238Y-45714485D01*
X119348238Y-45714485D02*
X119967285Y-45714485D01*
X126306285Y-38751104D02*
X126782475Y-38751104D01*
X126211047Y-39036819D02*
X126544380Y-38036819D01*
X126544380Y-38036819D02*
X126877713Y-39036819D01*
X127211047Y-39036819D02*
X127211047Y-38036819D01*
X127211047Y-38036819D02*
X127449142Y-38036819D01*
X127449142Y-38036819D02*
X127591999Y-38084438D01*
X127591999Y-38084438D02*
X127687237Y-38179676D01*
X127687237Y-38179676D02*
X127734856Y-38274914D01*
X127734856Y-38274914D02*
X127782475Y-38465390D01*
X127782475Y-38465390D02*
X127782475Y-38608247D01*
X127782475Y-38608247D02*
X127734856Y-38798723D01*
X127734856Y-38798723D02*
X127687237Y-38893961D01*
X127687237Y-38893961D02*
X127591999Y-38989200D01*
X127591999Y-38989200D02*
X127449142Y-39036819D01*
X127449142Y-39036819D02*
X127211047Y-39036819D01*
X128163428Y-38989200D02*
X128306285Y-39036819D01*
X128306285Y-39036819D02*
X128544380Y-39036819D01*
X128544380Y-39036819D02*
X128639618Y-38989200D01*
X128639618Y-38989200D02*
X128687237Y-38941580D01*
X128687237Y-38941580D02*
X128734856Y-38846342D01*
X128734856Y-38846342D02*
X128734856Y-38751104D01*
X128734856Y-38751104D02*
X128687237Y-38655866D01*
X128687237Y-38655866D02*
X128639618Y-38608247D01*
X128639618Y-38608247D02*
X128544380Y-38560628D01*
X128544380Y-38560628D02*
X128353904Y-38513009D01*
X128353904Y-38513009D02*
X128258666Y-38465390D01*
X128258666Y-38465390D02*
X128211047Y-38417771D01*
X128211047Y-38417771D02*
X128163428Y-38322533D01*
X128163428Y-38322533D02*
X128163428Y-38227295D01*
X128163428Y-38227295D02*
X128211047Y-38132057D01*
X128211047Y-38132057D02*
X128258666Y-38084438D01*
X128258666Y-38084438D02*
X128353904Y-38036819D01*
X128353904Y-38036819D02*
X128591999Y-38036819D01*
X128591999Y-38036819D02*
X128734856Y-38084438D01*
X129687237Y-39036819D02*
X129115809Y-39036819D01*
X129401523Y-39036819D02*
X129401523Y-38036819D01*
X129401523Y-38036819D02*
X129306285Y-38179676D01*
X129306285Y-38179676D02*
X129211047Y-38274914D01*
X129211047Y-38274914D02*
X129115809Y-38322533D01*
X130639618Y-39036819D02*
X130068190Y-39036819D01*
X130353904Y-39036819D02*
X130353904Y-38036819D01*
X130353904Y-38036819D02*
X130258666Y-38179676D01*
X130258666Y-38179676D02*
X130163428Y-38274914D01*
X130163428Y-38274914D02*
X130068190Y-38322533D01*
X131591999Y-39036819D02*
X131020571Y-39036819D01*
X131306285Y-39036819D02*
X131306285Y-38036819D01*
X131306285Y-38036819D02*
X131211047Y-38179676D01*
X131211047Y-38179676D02*
X131115809Y-38274914D01*
X131115809Y-38274914D02*
X131020571Y-38322533D01*
X132496761Y-38036819D02*
X132020571Y-38036819D01*
X132020571Y-38036819D02*
X131972952Y-38513009D01*
X131972952Y-38513009D02*
X132020571Y-38465390D01*
X132020571Y-38465390D02*
X132115809Y-38417771D01*
X132115809Y-38417771D02*
X132353904Y-38417771D01*
X132353904Y-38417771D02*
X132449142Y-38465390D01*
X132449142Y-38465390D02*
X132496761Y-38513009D01*
X132496761Y-38513009D02*
X132544380Y-38608247D01*
X132544380Y-38608247D02*
X132544380Y-38846342D01*
X132544380Y-38846342D02*
X132496761Y-38941580D01*
X132496761Y-38941580D02*
X132449142Y-38989200D01*
X132449142Y-38989200D02*
X132353904Y-39036819D01*
X132353904Y-39036819D02*
X132115809Y-39036819D01*
X132115809Y-39036819D02*
X132020571Y-38989200D01*
X132020571Y-38989200D02*
X131972952Y-38941580D01*
X133734857Y-39036819D02*
X133734857Y-38370152D01*
X133734857Y-38465390D02*
X133782476Y-38417771D01*
X133782476Y-38417771D02*
X133877714Y-38370152D01*
X133877714Y-38370152D02*
X134020571Y-38370152D01*
X134020571Y-38370152D02*
X134115809Y-38417771D01*
X134115809Y-38417771D02*
X134163428Y-38513009D01*
X134163428Y-38513009D02*
X134163428Y-39036819D01*
X134163428Y-38513009D02*
X134211047Y-38417771D01*
X134211047Y-38417771D02*
X134306285Y-38370152D01*
X134306285Y-38370152D02*
X134449142Y-38370152D01*
X134449142Y-38370152D02*
X134544381Y-38417771D01*
X134544381Y-38417771D02*
X134592000Y-38513009D01*
X134592000Y-38513009D02*
X134592000Y-39036819D01*
X135211047Y-39036819D02*
X135115809Y-38989200D01*
X135115809Y-38989200D02*
X135068190Y-38941580D01*
X135068190Y-38941580D02*
X135020571Y-38846342D01*
X135020571Y-38846342D02*
X135020571Y-38560628D01*
X135020571Y-38560628D02*
X135068190Y-38465390D01*
X135068190Y-38465390D02*
X135115809Y-38417771D01*
X135115809Y-38417771D02*
X135211047Y-38370152D01*
X135211047Y-38370152D02*
X135353904Y-38370152D01*
X135353904Y-38370152D02*
X135449142Y-38417771D01*
X135449142Y-38417771D02*
X135496761Y-38465390D01*
X135496761Y-38465390D02*
X135544380Y-38560628D01*
X135544380Y-38560628D02*
X135544380Y-38846342D01*
X135544380Y-38846342D02*
X135496761Y-38941580D01*
X135496761Y-38941580D02*
X135449142Y-38989200D01*
X135449142Y-38989200D02*
X135353904Y-39036819D01*
X135353904Y-39036819D02*
X135211047Y-39036819D01*
X136401523Y-39036819D02*
X136401523Y-38036819D01*
X136401523Y-38989200D02*
X136306285Y-39036819D01*
X136306285Y-39036819D02*
X136115809Y-39036819D01*
X136115809Y-39036819D02*
X136020571Y-38989200D01*
X136020571Y-38989200D02*
X135972952Y-38941580D01*
X135972952Y-38941580D02*
X135925333Y-38846342D01*
X135925333Y-38846342D02*
X135925333Y-38560628D01*
X135925333Y-38560628D02*
X135972952Y-38465390D01*
X135972952Y-38465390D02*
X136020571Y-38417771D01*
X136020571Y-38417771D02*
X136115809Y-38370152D01*
X136115809Y-38370152D02*
X136306285Y-38370152D01*
X136306285Y-38370152D02*
X136401523Y-38417771D01*
X137306285Y-38370152D02*
X137306285Y-39036819D01*
X136877714Y-38370152D02*
X136877714Y-38893961D01*
X136877714Y-38893961D02*
X136925333Y-38989200D01*
X136925333Y-38989200D02*
X137020571Y-39036819D01*
X137020571Y-39036819D02*
X137163428Y-39036819D01*
X137163428Y-39036819D02*
X137258666Y-38989200D01*
X137258666Y-38989200D02*
X137306285Y-38941580D01*
X137925333Y-39036819D02*
X137830095Y-38989200D01*
X137830095Y-38989200D02*
X137782476Y-38893961D01*
X137782476Y-38893961D02*
X137782476Y-38036819D01*
X106957666Y-39918200D02*
X106957666Y-40632485D01*
X106957666Y-40632485D02*
X106910047Y-40775342D01*
X106910047Y-40775342D02*
X106814809Y-40870581D01*
X106814809Y-40870581D02*
X106671952Y-40918200D01*
X106671952Y-40918200D02*
X106576714Y-40918200D01*
X107862428Y-39918200D02*
X107671952Y-39918200D01*
X107671952Y-39918200D02*
X107576714Y-39965819D01*
X107576714Y-39965819D02*
X107529095Y-40013438D01*
X107529095Y-40013438D02*
X107433857Y-40156295D01*
X107433857Y-40156295D02*
X107386238Y-40346771D01*
X107386238Y-40346771D02*
X107386238Y-40727723D01*
X107386238Y-40727723D02*
X107433857Y-40822961D01*
X107433857Y-40822961D02*
X107481476Y-40870581D01*
X107481476Y-40870581D02*
X107576714Y-40918200D01*
X107576714Y-40918200D02*
X107767190Y-40918200D01*
X107767190Y-40918200D02*
X107862428Y-40870581D01*
X107862428Y-40870581D02*
X107910047Y-40822961D01*
X107910047Y-40822961D02*
X107957666Y-40727723D01*
X107957666Y-40727723D02*
X107957666Y-40489628D01*
X107957666Y-40489628D02*
X107910047Y-40394390D01*
X107910047Y-40394390D02*
X107862428Y-40346771D01*
X107862428Y-40346771D02*
X107767190Y-40299152D01*
X107767190Y-40299152D02*
X107576714Y-40299152D01*
X107576714Y-40299152D02*
X107481476Y-40346771D01*
X107481476Y-40346771D02*
X107433857Y-40394390D01*
X107433857Y-40394390D02*
X107386238Y-40489628D01*
X63059580Y-47716666D02*
X63107200Y-47764285D01*
X63107200Y-47764285D02*
X63154819Y-47907142D01*
X63154819Y-47907142D02*
X63154819Y-48002380D01*
X63154819Y-48002380D02*
X63107200Y-48145237D01*
X63107200Y-48145237D02*
X63011961Y-48240475D01*
X63011961Y-48240475D02*
X62916723Y-48288094D01*
X62916723Y-48288094D02*
X62726247Y-48335713D01*
X62726247Y-48335713D02*
X62583390Y-48335713D01*
X62583390Y-48335713D02*
X62392914Y-48288094D01*
X62392914Y-48288094D02*
X62297676Y-48240475D01*
X62297676Y-48240475D02*
X62202438Y-48145237D01*
X62202438Y-48145237D02*
X62154819Y-48002380D01*
X62154819Y-48002380D02*
X62154819Y-47907142D01*
X62154819Y-47907142D02*
X62202438Y-47764285D01*
X62202438Y-47764285D02*
X62250057Y-47716666D01*
X62154819Y-47383332D02*
X62154819Y-46764285D01*
X62154819Y-46764285D02*
X62535771Y-47097618D01*
X62535771Y-47097618D02*
X62535771Y-46954761D01*
X62535771Y-46954761D02*
X62583390Y-46859523D01*
X62583390Y-46859523D02*
X62631009Y-46811904D01*
X62631009Y-46811904D02*
X62726247Y-46764285D01*
X62726247Y-46764285D02*
X62964342Y-46764285D01*
X62964342Y-46764285D02*
X63059580Y-46811904D01*
X63059580Y-46811904D02*
X63107200Y-46859523D01*
X63107200Y-46859523D02*
X63154819Y-46954761D01*
X63154819Y-46954761D02*
X63154819Y-47240475D01*
X63154819Y-47240475D02*
X63107200Y-47335713D01*
X63107200Y-47335713D02*
X63059580Y-47383332D01*
X67904819Y-51772619D02*
X67904819Y-52344047D01*
X67904819Y-52058333D02*
X66904819Y-52058333D01*
X66904819Y-52058333D02*
X67047676Y-52153571D01*
X67047676Y-52153571D02*
X67142914Y-52248809D01*
X67142914Y-52248809D02*
X67190533Y-52344047D01*
X66904819Y-51153571D02*
X66904819Y-51058333D01*
X66904819Y-51058333D02*
X66952438Y-50963095D01*
X66952438Y-50963095D02*
X67000057Y-50915476D01*
X67000057Y-50915476D02*
X67095295Y-50867857D01*
X67095295Y-50867857D02*
X67285771Y-50820238D01*
X67285771Y-50820238D02*
X67523866Y-50820238D01*
X67523866Y-50820238D02*
X67714342Y-50867857D01*
X67714342Y-50867857D02*
X67809580Y-50915476D01*
X67809580Y-50915476D02*
X67857200Y-50963095D01*
X67857200Y-50963095D02*
X67904819Y-51058333D01*
X67904819Y-51058333D02*
X67904819Y-51153571D01*
X67904819Y-51153571D02*
X67857200Y-51248809D01*
X67857200Y-51248809D02*
X67809580Y-51296428D01*
X67809580Y-51296428D02*
X67714342Y-51344047D01*
X67714342Y-51344047D02*
X67523866Y-51391666D01*
X67523866Y-51391666D02*
X67285771Y-51391666D01*
X67285771Y-51391666D02*
X67095295Y-51344047D01*
X67095295Y-51344047D02*
X67000057Y-51296428D01*
X67000057Y-51296428D02*
X66952438Y-51248809D01*
X66952438Y-51248809D02*
X66904819Y-51153571D01*
X66904819Y-50201190D02*
X66904819Y-50105952D01*
X66904819Y-50105952D02*
X66952438Y-50010714D01*
X66952438Y-50010714D02*
X67000057Y-49963095D01*
X67000057Y-49963095D02*
X67095295Y-49915476D01*
X67095295Y-49915476D02*
X67285771Y-49867857D01*
X67285771Y-49867857D02*
X67523866Y-49867857D01*
X67523866Y-49867857D02*
X67714342Y-49915476D01*
X67714342Y-49915476D02*
X67809580Y-49963095D01*
X67809580Y-49963095D02*
X67857200Y-50010714D01*
X67857200Y-50010714D02*
X67904819Y-50105952D01*
X67904819Y-50105952D02*
X67904819Y-50201190D01*
X67904819Y-50201190D02*
X67857200Y-50296428D01*
X67857200Y-50296428D02*
X67809580Y-50344047D01*
X67809580Y-50344047D02*
X67714342Y-50391666D01*
X67714342Y-50391666D02*
X67523866Y-50439285D01*
X67523866Y-50439285D02*
X67285771Y-50439285D01*
X67285771Y-50439285D02*
X67095295Y-50391666D01*
X67095295Y-50391666D02*
X67000057Y-50344047D01*
X67000057Y-50344047D02*
X66952438Y-50296428D01*
X66952438Y-50296428D02*
X66904819Y-50201190D01*
X67238152Y-49439285D02*
X67904819Y-49439285D01*
X67333390Y-49439285D02*
X67285771Y-49391666D01*
X67285771Y-49391666D02*
X67238152Y-49296428D01*
X67238152Y-49296428D02*
X67238152Y-49153571D01*
X67238152Y-49153571D02*
X67285771Y-49058333D01*
X67285771Y-49058333D02*
X67381009Y-49010714D01*
X67381009Y-49010714D02*
X67904819Y-49010714D01*
X67381009Y-48201190D02*
X67381009Y-48534523D01*
X67904819Y-48534523D02*
X66904819Y-48534523D01*
X66904819Y-48534523D02*
X66904819Y-48058333D01*
X69808333Y-54902580D02*
X69760714Y-54950200D01*
X69760714Y-54950200D02*
X69617857Y-54997819D01*
X69617857Y-54997819D02*
X69522619Y-54997819D01*
X69522619Y-54997819D02*
X69379762Y-54950200D01*
X69379762Y-54950200D02*
X69284524Y-54854961D01*
X69284524Y-54854961D02*
X69236905Y-54759723D01*
X69236905Y-54759723D02*
X69189286Y-54569247D01*
X69189286Y-54569247D02*
X69189286Y-54426390D01*
X69189286Y-54426390D02*
X69236905Y-54235914D01*
X69236905Y-54235914D02*
X69284524Y-54140676D01*
X69284524Y-54140676D02*
X69379762Y-54045438D01*
X69379762Y-54045438D02*
X69522619Y-53997819D01*
X69522619Y-53997819D02*
X69617857Y-53997819D01*
X69617857Y-53997819D02*
X69760714Y-54045438D01*
X69760714Y-54045438D02*
X69808333Y-54093057D01*
X70665476Y-54331152D02*
X70665476Y-54997819D01*
X70427381Y-53950200D02*
X70189286Y-54664485D01*
X70189286Y-54664485D02*
X70808333Y-54664485D01*
X71715819Y-52391666D02*
X71715819Y-51772619D01*
X71715819Y-51772619D02*
X72096771Y-52105952D01*
X72096771Y-52105952D02*
X72096771Y-51963095D01*
X72096771Y-51963095D02*
X72144390Y-51867857D01*
X72144390Y-51867857D02*
X72192009Y-51820238D01*
X72192009Y-51820238D02*
X72287247Y-51772619D01*
X72287247Y-51772619D02*
X72525342Y-51772619D01*
X72525342Y-51772619D02*
X72620580Y-51820238D01*
X72620580Y-51820238D02*
X72668200Y-51867857D01*
X72668200Y-51867857D02*
X72715819Y-51963095D01*
X72715819Y-51963095D02*
X72715819Y-52248809D01*
X72715819Y-52248809D02*
X72668200Y-52344047D01*
X72668200Y-52344047D02*
X72620580Y-52391666D01*
X71715819Y-51439285D02*
X71715819Y-50820238D01*
X71715819Y-50820238D02*
X72096771Y-51153571D01*
X72096771Y-51153571D02*
X72096771Y-51010714D01*
X72096771Y-51010714D02*
X72144390Y-50915476D01*
X72144390Y-50915476D02*
X72192009Y-50867857D01*
X72192009Y-50867857D02*
X72287247Y-50820238D01*
X72287247Y-50820238D02*
X72525342Y-50820238D01*
X72525342Y-50820238D02*
X72620580Y-50867857D01*
X72620580Y-50867857D02*
X72668200Y-50915476D01*
X72668200Y-50915476D02*
X72715819Y-51010714D01*
X72715819Y-51010714D02*
X72715819Y-51296428D01*
X72715819Y-51296428D02*
X72668200Y-51391666D01*
X72668200Y-51391666D02*
X72620580Y-51439285D01*
X71715819Y-50201190D02*
X71715819Y-50105952D01*
X71715819Y-50105952D02*
X71763438Y-50010714D01*
X71763438Y-50010714D02*
X71811057Y-49963095D01*
X71811057Y-49963095D02*
X71906295Y-49915476D01*
X71906295Y-49915476D02*
X72096771Y-49867857D01*
X72096771Y-49867857D02*
X72334866Y-49867857D01*
X72334866Y-49867857D02*
X72525342Y-49915476D01*
X72525342Y-49915476D02*
X72620580Y-49963095D01*
X72620580Y-49963095D02*
X72668200Y-50010714D01*
X72668200Y-50010714D02*
X72715819Y-50105952D01*
X72715819Y-50105952D02*
X72715819Y-50201190D01*
X72715819Y-50201190D02*
X72668200Y-50296428D01*
X72668200Y-50296428D02*
X72620580Y-50344047D01*
X72620580Y-50344047D02*
X72525342Y-50391666D01*
X72525342Y-50391666D02*
X72334866Y-50439285D01*
X72334866Y-50439285D02*
X72096771Y-50439285D01*
X72096771Y-50439285D02*
X71906295Y-50391666D01*
X71906295Y-50391666D02*
X71811057Y-50344047D01*
X71811057Y-50344047D02*
X71763438Y-50296428D01*
X71763438Y-50296428D02*
X71715819Y-50201190D01*
X72049152Y-49439285D02*
X72715819Y-49439285D01*
X72144390Y-49439285D02*
X72096771Y-49391666D01*
X72096771Y-49391666D02*
X72049152Y-49296428D01*
X72049152Y-49296428D02*
X72049152Y-49153571D01*
X72049152Y-49153571D02*
X72096771Y-49058333D01*
X72096771Y-49058333D02*
X72192009Y-49010714D01*
X72192009Y-49010714D02*
X72715819Y-49010714D01*
X72192009Y-48201190D02*
X72192009Y-48534523D01*
X72715819Y-48534523D02*
X71715819Y-48534523D01*
X71715819Y-48534523D02*
X71715819Y-48058333D01*
X71638095Y-54279819D02*
X71638095Y-55089342D01*
X71638095Y-55089342D02*
X71685714Y-55184580D01*
X71685714Y-55184580D02*
X71733333Y-55232200D01*
X71733333Y-55232200D02*
X71828571Y-55279819D01*
X71828571Y-55279819D02*
X72019047Y-55279819D01*
X72019047Y-55279819D02*
X72114285Y-55232200D01*
X72114285Y-55232200D02*
X72161904Y-55184580D01*
X72161904Y-55184580D02*
X72209523Y-55089342D01*
X72209523Y-55089342D02*
X72209523Y-54279819D01*
X72638095Y-54375057D02*
X72685714Y-54327438D01*
X72685714Y-54327438D02*
X72780952Y-54279819D01*
X72780952Y-54279819D02*
X73019047Y-54279819D01*
X73019047Y-54279819D02*
X73114285Y-54327438D01*
X73114285Y-54327438D02*
X73161904Y-54375057D01*
X73161904Y-54375057D02*
X73209523Y-54470295D01*
X73209523Y-54470295D02*
X73209523Y-54565533D01*
X73209523Y-54565533D02*
X73161904Y-54708390D01*
X73161904Y-54708390D02*
X72590476Y-55279819D01*
X72590476Y-55279819D02*
X73209523Y-55279819D01*
X63829761Y-55279819D02*
X63353571Y-55279819D01*
X63353571Y-55279819D02*
X63353571Y-54279819D01*
X64067857Y-54279819D02*
X64734523Y-54279819D01*
X64734523Y-54279819D02*
X64305952Y-55279819D01*
X65258333Y-54708390D02*
X65163095Y-54660771D01*
X65163095Y-54660771D02*
X65115476Y-54613152D01*
X65115476Y-54613152D02*
X65067857Y-54517914D01*
X65067857Y-54517914D02*
X65067857Y-54470295D01*
X65067857Y-54470295D02*
X65115476Y-54375057D01*
X65115476Y-54375057D02*
X65163095Y-54327438D01*
X65163095Y-54327438D02*
X65258333Y-54279819D01*
X65258333Y-54279819D02*
X65448809Y-54279819D01*
X65448809Y-54279819D02*
X65544047Y-54327438D01*
X65544047Y-54327438D02*
X65591666Y-54375057D01*
X65591666Y-54375057D02*
X65639285Y-54470295D01*
X65639285Y-54470295D02*
X65639285Y-54517914D01*
X65639285Y-54517914D02*
X65591666Y-54613152D01*
X65591666Y-54613152D02*
X65544047Y-54660771D01*
X65544047Y-54660771D02*
X65448809Y-54708390D01*
X65448809Y-54708390D02*
X65258333Y-54708390D01*
X65258333Y-54708390D02*
X65163095Y-54756009D01*
X65163095Y-54756009D02*
X65115476Y-54803628D01*
X65115476Y-54803628D02*
X65067857Y-54898866D01*
X65067857Y-54898866D02*
X65067857Y-55089342D01*
X65067857Y-55089342D02*
X65115476Y-55184580D01*
X65115476Y-55184580D02*
X65163095Y-55232200D01*
X65163095Y-55232200D02*
X65258333Y-55279819D01*
X65258333Y-55279819D02*
X65448809Y-55279819D01*
X65448809Y-55279819D02*
X65544047Y-55232200D01*
X65544047Y-55232200D02*
X65591666Y-55184580D01*
X65591666Y-55184580D02*
X65639285Y-55089342D01*
X65639285Y-55089342D02*
X65639285Y-54898866D01*
X65639285Y-54898866D02*
X65591666Y-54803628D01*
X65591666Y-54803628D02*
X65544047Y-54756009D01*
X65544047Y-54756009D02*
X65448809Y-54708390D01*
X66258333Y-54279819D02*
X66353571Y-54279819D01*
X66353571Y-54279819D02*
X66448809Y-54327438D01*
X66448809Y-54327438D02*
X66496428Y-54375057D01*
X66496428Y-54375057D02*
X66544047Y-54470295D01*
X66544047Y-54470295D02*
X66591666Y-54660771D01*
X66591666Y-54660771D02*
X66591666Y-54898866D01*
X66591666Y-54898866D02*
X66544047Y-55089342D01*
X66544047Y-55089342D02*
X66496428Y-55184580D01*
X66496428Y-55184580D02*
X66448809Y-55232200D01*
X66448809Y-55232200D02*
X66353571Y-55279819D01*
X66353571Y-55279819D02*
X66258333Y-55279819D01*
X66258333Y-55279819D02*
X66163095Y-55232200D01*
X66163095Y-55232200D02*
X66115476Y-55184580D01*
X66115476Y-55184580D02*
X66067857Y-55089342D01*
X66067857Y-55089342D02*
X66020238Y-54898866D01*
X66020238Y-54898866D02*
X66020238Y-54660771D01*
X66020238Y-54660771D02*
X66067857Y-54470295D01*
X66067857Y-54470295D02*
X66115476Y-54375057D01*
X66115476Y-54375057D02*
X66163095Y-54327438D01*
X66163095Y-54327438D02*
X66258333Y-54279819D01*
X67496428Y-54279819D02*
X67020238Y-54279819D01*
X67020238Y-54279819D02*
X66972619Y-54756009D01*
X66972619Y-54756009D02*
X67020238Y-54708390D01*
X67020238Y-54708390D02*
X67115476Y-54660771D01*
X67115476Y-54660771D02*
X67353571Y-54660771D01*
X67353571Y-54660771D02*
X67448809Y-54708390D01*
X67448809Y-54708390D02*
X67496428Y-54756009D01*
X67496428Y-54756009D02*
X67544047Y-54851247D01*
X67544047Y-54851247D02*
X67544047Y-55089342D01*
X67544047Y-55089342D02*
X67496428Y-55184580D01*
X67496428Y-55184580D02*
X67448809Y-55232200D01*
X67448809Y-55232200D02*
X67353571Y-55279819D01*
X67353571Y-55279819D02*
X67115476Y-55279819D01*
X67115476Y-55279819D02*
X67020238Y-55232200D01*
X67020238Y-55232200D02*
X66972619Y-55184580D01*
X95847819Y-59896333D02*
X96562104Y-59896333D01*
X96562104Y-59896333D02*
X96704961Y-59943952D01*
X96704961Y-59943952D02*
X96800200Y-60039190D01*
X96800200Y-60039190D02*
X96847819Y-60182047D01*
X96847819Y-60182047D02*
X96847819Y-60277285D01*
X96847819Y-58896333D02*
X96847819Y-59467761D01*
X96847819Y-59182047D02*
X95847819Y-59182047D01*
X95847819Y-59182047D02*
X95990676Y-59277285D01*
X95990676Y-59277285D02*
X96085914Y-59372523D01*
X96085914Y-59372523D02*
X96133533Y-59467761D01*
X85971713Y-62256200D02*
X86114570Y-62303819D01*
X86114570Y-62303819D02*
X86352665Y-62303819D01*
X86352665Y-62303819D02*
X86447903Y-62256200D01*
X86447903Y-62256200D02*
X86495522Y-62208580D01*
X86495522Y-62208580D02*
X86543141Y-62113342D01*
X86543141Y-62113342D02*
X86543141Y-62018104D01*
X86543141Y-62018104D02*
X86495522Y-61922866D01*
X86495522Y-61922866D02*
X86447903Y-61875247D01*
X86447903Y-61875247D02*
X86352665Y-61827628D01*
X86352665Y-61827628D02*
X86162189Y-61780009D01*
X86162189Y-61780009D02*
X86066951Y-61732390D01*
X86066951Y-61732390D02*
X86019332Y-61684771D01*
X86019332Y-61684771D02*
X85971713Y-61589533D01*
X85971713Y-61589533D02*
X85971713Y-61494295D01*
X85971713Y-61494295D02*
X86019332Y-61399057D01*
X86019332Y-61399057D02*
X86066951Y-61351438D01*
X86066951Y-61351438D02*
X86162189Y-61303819D01*
X86162189Y-61303819D02*
X86400284Y-61303819D01*
X86400284Y-61303819D02*
X86543141Y-61351438D01*
X87400284Y-62303819D02*
X87400284Y-61780009D01*
X87400284Y-61780009D02*
X87352665Y-61684771D01*
X87352665Y-61684771D02*
X87257427Y-61637152D01*
X87257427Y-61637152D02*
X87066951Y-61637152D01*
X87066951Y-61637152D02*
X86971713Y-61684771D01*
X87400284Y-62256200D02*
X87305046Y-62303819D01*
X87305046Y-62303819D02*
X87066951Y-62303819D01*
X87066951Y-62303819D02*
X86971713Y-62256200D01*
X86971713Y-62256200D02*
X86924094Y-62160961D01*
X86924094Y-62160961D02*
X86924094Y-62065723D01*
X86924094Y-62065723D02*
X86971713Y-61970485D01*
X86971713Y-61970485D02*
X87066951Y-61922866D01*
X87066951Y-61922866D02*
X87305046Y-61922866D01*
X87305046Y-61922866D02*
X87400284Y-61875247D01*
X87733618Y-61637152D02*
X88114570Y-61637152D01*
X87876475Y-61303819D02*
X87876475Y-62160961D01*
X87876475Y-62160961D02*
X87924094Y-62256200D01*
X87924094Y-62256200D02*
X88019332Y-62303819D01*
X88019332Y-62303819D02*
X88114570Y-62303819D01*
X88828856Y-62256200D02*
X88733618Y-62303819D01*
X88733618Y-62303819D02*
X88543142Y-62303819D01*
X88543142Y-62303819D02*
X88447904Y-62256200D01*
X88447904Y-62256200D02*
X88400285Y-62160961D01*
X88400285Y-62160961D02*
X88400285Y-61780009D01*
X88400285Y-61780009D02*
X88447904Y-61684771D01*
X88447904Y-61684771D02*
X88543142Y-61637152D01*
X88543142Y-61637152D02*
X88733618Y-61637152D01*
X88733618Y-61637152D02*
X88828856Y-61684771D01*
X88828856Y-61684771D02*
X88876475Y-61780009D01*
X88876475Y-61780009D02*
X88876475Y-61875247D01*
X88876475Y-61875247D02*
X88400285Y-61970485D01*
X89447904Y-62303819D02*
X89352666Y-62256200D01*
X89352666Y-62256200D02*
X89305047Y-62160961D01*
X89305047Y-62160961D02*
X89305047Y-61303819D01*
X89828857Y-62303819D02*
X89828857Y-61637152D01*
X89828857Y-61303819D02*
X89781238Y-61351438D01*
X89781238Y-61351438D02*
X89828857Y-61399057D01*
X89828857Y-61399057D02*
X89876476Y-61351438D01*
X89876476Y-61351438D02*
X89828857Y-61303819D01*
X89828857Y-61303819D02*
X89828857Y-61399057D01*
X90162190Y-61637152D02*
X90543142Y-61637152D01*
X90305047Y-61303819D02*
X90305047Y-62160961D01*
X90305047Y-62160961D02*
X90352666Y-62256200D01*
X90352666Y-62256200D02*
X90447904Y-62303819D01*
X90447904Y-62303819D02*
X90543142Y-62303819D01*
X91257428Y-62256200D02*
X91162190Y-62303819D01*
X91162190Y-62303819D02*
X90971714Y-62303819D01*
X90971714Y-62303819D02*
X90876476Y-62256200D01*
X90876476Y-62256200D02*
X90828857Y-62160961D01*
X90828857Y-62160961D02*
X90828857Y-61780009D01*
X90828857Y-61780009D02*
X90876476Y-61684771D01*
X90876476Y-61684771D02*
X90971714Y-61637152D01*
X90971714Y-61637152D02*
X91162190Y-61637152D01*
X91162190Y-61637152D02*
X91257428Y-61684771D01*
X91257428Y-61684771D02*
X91305047Y-61780009D01*
X91305047Y-61780009D02*
X91305047Y-61875247D01*
X91305047Y-61875247D02*
X90828857Y-61970485D01*
X92352667Y-61637152D02*
X92733619Y-61637152D01*
X92495524Y-62303819D02*
X92495524Y-61446676D01*
X92495524Y-61446676D02*
X92543143Y-61351438D01*
X92543143Y-61351438D02*
X92638381Y-61303819D01*
X92638381Y-61303819D02*
X92733619Y-61303819D01*
X93066953Y-62303819D02*
X93066953Y-61637152D01*
X93066953Y-61303819D02*
X93019334Y-61351438D01*
X93019334Y-61351438D02*
X93066953Y-61399057D01*
X93066953Y-61399057D02*
X93114572Y-61351438D01*
X93114572Y-61351438D02*
X93066953Y-61303819D01*
X93066953Y-61303819D02*
X93066953Y-61399057D01*
X93543143Y-61637152D02*
X93543143Y-62303819D01*
X93543143Y-61732390D02*
X93590762Y-61684771D01*
X93590762Y-61684771D02*
X93686000Y-61637152D01*
X93686000Y-61637152D02*
X93828857Y-61637152D01*
X93828857Y-61637152D02*
X93924095Y-61684771D01*
X93924095Y-61684771D02*
X93971714Y-61780009D01*
X93971714Y-61780009D02*
X93971714Y-62303819D01*
X94876476Y-62303819D02*
X94876476Y-61303819D01*
X94876476Y-62256200D02*
X94781238Y-62303819D01*
X94781238Y-62303819D02*
X94590762Y-62303819D01*
X94590762Y-62303819D02*
X94495524Y-62256200D01*
X94495524Y-62256200D02*
X94447905Y-62208580D01*
X94447905Y-62208580D02*
X94400286Y-62113342D01*
X94400286Y-62113342D02*
X94400286Y-61827628D01*
X94400286Y-61827628D02*
X94447905Y-61732390D01*
X94447905Y-61732390D02*
X94495524Y-61684771D01*
X94495524Y-61684771D02*
X94590762Y-61637152D01*
X94590762Y-61637152D02*
X94781238Y-61637152D01*
X94781238Y-61637152D02*
X94876476Y-61684771D01*
X95733619Y-62256200D02*
X95638381Y-62303819D01*
X95638381Y-62303819D02*
X95447905Y-62303819D01*
X95447905Y-62303819D02*
X95352667Y-62256200D01*
X95352667Y-62256200D02*
X95305048Y-62160961D01*
X95305048Y-62160961D02*
X95305048Y-61780009D01*
X95305048Y-61780009D02*
X95352667Y-61684771D01*
X95352667Y-61684771D02*
X95447905Y-61637152D01*
X95447905Y-61637152D02*
X95638381Y-61637152D01*
X95638381Y-61637152D02*
X95733619Y-61684771D01*
X95733619Y-61684771D02*
X95781238Y-61780009D01*
X95781238Y-61780009D02*
X95781238Y-61875247D01*
X95781238Y-61875247D02*
X95305048Y-61970485D01*
X96209810Y-62303819D02*
X96209810Y-61637152D01*
X96209810Y-61827628D02*
X96257429Y-61732390D01*
X96257429Y-61732390D02*
X96305048Y-61684771D01*
X96305048Y-61684771D02*
X96400286Y-61637152D01*
X96400286Y-61637152D02*
X96495524Y-61637152D01*
X109829819Y-56686904D02*
X110639342Y-56686904D01*
X110639342Y-56686904D02*
X110734580Y-56639285D01*
X110734580Y-56639285D02*
X110782200Y-56591666D01*
X110782200Y-56591666D02*
X110829819Y-56496428D01*
X110829819Y-56496428D02*
X110829819Y-56305952D01*
X110829819Y-56305952D02*
X110782200Y-56210714D01*
X110782200Y-56210714D02*
X110734580Y-56163095D01*
X110734580Y-56163095D02*
X110639342Y-56115476D01*
X110639342Y-56115476D02*
X109829819Y-56115476D01*
X110829819Y-55115476D02*
X110829819Y-55686904D01*
X110829819Y-55401190D02*
X109829819Y-55401190D01*
X109829819Y-55401190D02*
X109972676Y-55496428D01*
X109972676Y-55496428D02*
X110067914Y-55591666D01*
X110067914Y-55591666D02*
X110115533Y-55686904D01*
X110754819Y-50745238D02*
X110754819Y-51221428D01*
X110754819Y-51221428D02*
X109754819Y-51221428D01*
X109754819Y-50507142D02*
X109754819Y-49840476D01*
X109754819Y-49840476D02*
X110754819Y-50269047D01*
X110183390Y-49316666D02*
X110135771Y-49411904D01*
X110135771Y-49411904D02*
X110088152Y-49459523D01*
X110088152Y-49459523D02*
X109992914Y-49507142D01*
X109992914Y-49507142D02*
X109945295Y-49507142D01*
X109945295Y-49507142D02*
X109850057Y-49459523D01*
X109850057Y-49459523D02*
X109802438Y-49411904D01*
X109802438Y-49411904D02*
X109754819Y-49316666D01*
X109754819Y-49316666D02*
X109754819Y-49126190D01*
X109754819Y-49126190D02*
X109802438Y-49030952D01*
X109802438Y-49030952D02*
X109850057Y-48983333D01*
X109850057Y-48983333D02*
X109945295Y-48935714D01*
X109945295Y-48935714D02*
X109992914Y-48935714D01*
X109992914Y-48935714D02*
X110088152Y-48983333D01*
X110088152Y-48983333D02*
X110135771Y-49030952D01*
X110135771Y-49030952D02*
X110183390Y-49126190D01*
X110183390Y-49126190D02*
X110183390Y-49316666D01*
X110183390Y-49316666D02*
X110231009Y-49411904D01*
X110231009Y-49411904D02*
X110278628Y-49459523D01*
X110278628Y-49459523D02*
X110373866Y-49507142D01*
X110373866Y-49507142D02*
X110564342Y-49507142D01*
X110564342Y-49507142D02*
X110659580Y-49459523D01*
X110659580Y-49459523D02*
X110707200Y-49411904D01*
X110707200Y-49411904D02*
X110754819Y-49316666D01*
X110754819Y-49316666D02*
X110754819Y-49126190D01*
X110754819Y-49126190D02*
X110707200Y-49030952D01*
X110707200Y-49030952D02*
X110659580Y-48983333D01*
X110659580Y-48983333D02*
X110564342Y-48935714D01*
X110564342Y-48935714D02*
X110373866Y-48935714D01*
X110373866Y-48935714D02*
X110278628Y-48983333D01*
X110278628Y-48983333D02*
X110231009Y-49030952D01*
X110231009Y-49030952D02*
X110183390Y-49126190D01*
X109754819Y-48316666D02*
X109754819Y-48221428D01*
X109754819Y-48221428D02*
X109802438Y-48126190D01*
X109802438Y-48126190D02*
X109850057Y-48078571D01*
X109850057Y-48078571D02*
X109945295Y-48030952D01*
X109945295Y-48030952D02*
X110135771Y-47983333D01*
X110135771Y-47983333D02*
X110373866Y-47983333D01*
X110373866Y-47983333D02*
X110564342Y-48030952D01*
X110564342Y-48030952D02*
X110659580Y-48078571D01*
X110659580Y-48078571D02*
X110707200Y-48126190D01*
X110707200Y-48126190D02*
X110754819Y-48221428D01*
X110754819Y-48221428D02*
X110754819Y-48316666D01*
X110754819Y-48316666D02*
X110707200Y-48411904D01*
X110707200Y-48411904D02*
X110659580Y-48459523D01*
X110659580Y-48459523D02*
X110564342Y-48507142D01*
X110564342Y-48507142D02*
X110373866Y-48554761D01*
X110373866Y-48554761D02*
X110135771Y-48554761D01*
X110135771Y-48554761D02*
X109945295Y-48507142D01*
X109945295Y-48507142D02*
X109850057Y-48459523D01*
X109850057Y-48459523D02*
X109802438Y-48411904D01*
X109802438Y-48411904D02*
X109754819Y-48316666D01*
X109754819Y-47078571D02*
X109754819Y-47554761D01*
X109754819Y-47554761D02*
X110231009Y-47602380D01*
X110231009Y-47602380D02*
X110183390Y-47554761D01*
X110183390Y-47554761D02*
X110135771Y-47459523D01*
X110135771Y-47459523D02*
X110135771Y-47221428D01*
X110135771Y-47221428D02*
X110183390Y-47126190D01*
X110183390Y-47126190D02*
X110231009Y-47078571D01*
X110231009Y-47078571D02*
X110326247Y-47030952D01*
X110326247Y-47030952D02*
X110564342Y-47030952D01*
X110564342Y-47030952D02*
X110659580Y-47078571D01*
X110659580Y-47078571D02*
X110707200Y-47126190D01*
X110707200Y-47126190D02*
X110754819Y-47221428D01*
X110754819Y-47221428D02*
X110754819Y-47459523D01*
X110754819Y-47459523D02*
X110707200Y-47554761D01*
X110707200Y-47554761D02*
X110659580Y-47602380D01*
X152235819Y-79750333D02*
X152950104Y-79750333D01*
X152950104Y-79750333D02*
X153092961Y-79797952D01*
X153092961Y-79797952D02*
X153188200Y-79893190D01*
X153188200Y-79893190D02*
X153235819Y-80036047D01*
X153235819Y-80036047D02*
X153235819Y-80131285D01*
X152235819Y-79369380D02*
X152235819Y-78702714D01*
X152235819Y-78702714D02*
X153235819Y-79131285D01*
X155165810Y-72451819D02*
X155165810Y-71451819D01*
X155594381Y-71547057D02*
X155642000Y-71499438D01*
X155642000Y-71499438D02*
X155737238Y-71451819D01*
X155737238Y-71451819D02*
X155975333Y-71451819D01*
X155975333Y-71451819D02*
X156070571Y-71499438D01*
X156070571Y-71499438D02*
X156118190Y-71547057D01*
X156118190Y-71547057D02*
X156165809Y-71642295D01*
X156165809Y-71642295D02*
X156165809Y-71737533D01*
X156165809Y-71737533D02*
X156118190Y-71880390D01*
X156118190Y-71880390D02*
X155546762Y-72451819D01*
X155546762Y-72451819D02*
X156165809Y-72451819D01*
X157165809Y-72356580D02*
X157118190Y-72404200D01*
X157118190Y-72404200D02*
X156975333Y-72451819D01*
X156975333Y-72451819D02*
X156880095Y-72451819D01*
X156880095Y-72451819D02*
X156737238Y-72404200D01*
X156737238Y-72404200D02*
X156642000Y-72308961D01*
X156642000Y-72308961D02*
X156594381Y-72213723D01*
X156594381Y-72213723D02*
X156546762Y-72023247D01*
X156546762Y-72023247D02*
X156546762Y-71880390D01*
X156546762Y-71880390D02*
X156594381Y-71689914D01*
X156594381Y-71689914D02*
X156642000Y-71594676D01*
X156642000Y-71594676D02*
X156737238Y-71499438D01*
X156737238Y-71499438D02*
X156880095Y-71451819D01*
X156880095Y-71451819D02*
X156975333Y-71451819D01*
X156975333Y-71451819D02*
X157118190Y-71499438D01*
X157118190Y-71499438D02*
X157165809Y-71547057D01*
X152184819Y-100526333D02*
X152899104Y-100526333D01*
X152899104Y-100526333D02*
X153041961Y-100573952D01*
X153041961Y-100573952D02*
X153137200Y-100669190D01*
X153137200Y-100669190D02*
X153184819Y-100812047D01*
X153184819Y-100812047D02*
X153184819Y-100907285D01*
X152184819Y-99573952D02*
X152184819Y-100050142D01*
X152184819Y-100050142D02*
X152661009Y-100097761D01*
X152661009Y-100097761D02*
X152613390Y-100050142D01*
X152613390Y-100050142D02*
X152565771Y-99954904D01*
X152565771Y-99954904D02*
X152565771Y-99716809D01*
X152565771Y-99716809D02*
X152613390Y-99621571D01*
X152613390Y-99621571D02*
X152661009Y-99573952D01*
X152661009Y-99573952D02*
X152756247Y-99526333D01*
X152756247Y-99526333D02*
X152994342Y-99526333D01*
X152994342Y-99526333D02*
X153089580Y-99573952D01*
X153089580Y-99573952D02*
X153137200Y-99621571D01*
X153137200Y-99621571D02*
X153184819Y-99716809D01*
X153184819Y-99716809D02*
X153184819Y-99954904D01*
X153184819Y-99954904D02*
X153137200Y-100050142D01*
X153137200Y-100050142D02*
X153089580Y-100097761D01*
X153186190Y-107544009D02*
X153519523Y-107544009D01*
X153662380Y-108067819D02*
X153186190Y-108067819D01*
X153186190Y-108067819D02*
X153186190Y-107067819D01*
X153186190Y-107067819D02*
X153662380Y-107067819D01*
X153995714Y-107067819D02*
X154662380Y-108067819D01*
X154662380Y-107067819D02*
X153995714Y-108067819D01*
X154900476Y-107067819D02*
X155471904Y-107067819D01*
X155186190Y-108067819D02*
X155186190Y-107067819D01*
X155567143Y-108163057D02*
X156329047Y-108163057D01*
X156567143Y-108067819D02*
X156567143Y-107067819D01*
X156567143Y-107067819D02*
X156948095Y-107067819D01*
X156948095Y-107067819D02*
X157043333Y-107115438D01*
X157043333Y-107115438D02*
X157090952Y-107163057D01*
X157090952Y-107163057D02*
X157138571Y-107258295D01*
X157138571Y-107258295D02*
X157138571Y-107401152D01*
X157138571Y-107401152D02*
X157090952Y-107496390D01*
X157090952Y-107496390D02*
X157043333Y-107544009D01*
X157043333Y-107544009D02*
X156948095Y-107591628D01*
X156948095Y-107591628D02*
X156567143Y-107591628D01*
X157471905Y-107067819D02*
X157710000Y-108067819D01*
X157710000Y-108067819D02*
X157900476Y-107353533D01*
X157900476Y-107353533D02*
X158090952Y-108067819D01*
X158090952Y-108067819D02*
X158329048Y-107067819D01*
X159281428Y-108067819D02*
X158948095Y-107591628D01*
X158710000Y-108067819D02*
X158710000Y-107067819D01*
X158710000Y-107067819D02*
X159090952Y-107067819D01*
X159090952Y-107067819D02*
X159186190Y-107115438D01*
X159186190Y-107115438D02*
X159233809Y-107163057D01*
X159233809Y-107163057D02*
X159281428Y-107258295D01*
X159281428Y-107258295D02*
X159281428Y-107401152D01*
X159281428Y-107401152D02*
X159233809Y-107496390D01*
X159233809Y-107496390D02*
X159186190Y-107544009D01*
X159186190Y-107544009D02*
X159090952Y-107591628D01*
X159090952Y-107591628D02*
X158710000Y-107591628D01*
X103158333Y-57209580D02*
X103110714Y-57257200D01*
X103110714Y-57257200D02*
X102967857Y-57304819D01*
X102967857Y-57304819D02*
X102872619Y-57304819D01*
X102872619Y-57304819D02*
X102729762Y-57257200D01*
X102729762Y-57257200D02*
X102634524Y-57161961D01*
X102634524Y-57161961D02*
X102586905Y-57066723D01*
X102586905Y-57066723D02*
X102539286Y-56876247D01*
X102539286Y-56876247D02*
X102539286Y-56733390D01*
X102539286Y-56733390D02*
X102586905Y-56542914D01*
X102586905Y-56542914D02*
X102634524Y-56447676D01*
X102634524Y-56447676D02*
X102729762Y-56352438D01*
X102729762Y-56352438D02*
X102872619Y-56304819D01*
X102872619Y-56304819D02*
X102967857Y-56304819D01*
X102967857Y-56304819D02*
X103110714Y-56352438D01*
X103110714Y-56352438D02*
X103158333Y-56400057D01*
X104110714Y-57304819D02*
X103539286Y-57304819D01*
X103825000Y-57304819D02*
X103825000Y-56304819D01*
X103825000Y-56304819D02*
X103729762Y-56447676D01*
X103729762Y-56447676D02*
X103634524Y-56542914D01*
X103634524Y-56542914D02*
X103539286Y-56590533D01*
X104552380Y-52729819D02*
X103980952Y-52729819D01*
X104266666Y-52729819D02*
X104266666Y-51729819D01*
X104266666Y-51729819D02*
X104171428Y-51872676D01*
X104171428Y-51872676D02*
X104076190Y-51967914D01*
X104076190Y-51967914D02*
X103980952Y-52015533D01*
X105171428Y-51729819D02*
X105266666Y-51729819D01*
X105266666Y-51729819D02*
X105361904Y-51777438D01*
X105361904Y-51777438D02*
X105409523Y-51825057D01*
X105409523Y-51825057D02*
X105457142Y-51920295D01*
X105457142Y-51920295D02*
X105504761Y-52110771D01*
X105504761Y-52110771D02*
X105504761Y-52348866D01*
X105504761Y-52348866D02*
X105457142Y-52539342D01*
X105457142Y-52539342D02*
X105409523Y-52634580D01*
X105409523Y-52634580D02*
X105361904Y-52682200D01*
X105361904Y-52682200D02*
X105266666Y-52729819D01*
X105266666Y-52729819D02*
X105171428Y-52729819D01*
X105171428Y-52729819D02*
X105076190Y-52682200D01*
X105076190Y-52682200D02*
X105028571Y-52634580D01*
X105028571Y-52634580D02*
X104980952Y-52539342D01*
X104980952Y-52539342D02*
X104933333Y-52348866D01*
X104933333Y-52348866D02*
X104933333Y-52110771D01*
X104933333Y-52110771D02*
X104980952Y-51920295D01*
X104980952Y-51920295D02*
X105028571Y-51825057D01*
X105028571Y-51825057D02*
X105076190Y-51777438D01*
X105076190Y-51777438D02*
X105171428Y-51729819D01*
X106123809Y-51729819D02*
X106219047Y-51729819D01*
X106219047Y-51729819D02*
X106314285Y-51777438D01*
X106314285Y-51777438D02*
X106361904Y-51825057D01*
X106361904Y-51825057D02*
X106409523Y-51920295D01*
X106409523Y-51920295D02*
X106457142Y-52110771D01*
X106457142Y-52110771D02*
X106457142Y-52348866D01*
X106457142Y-52348866D02*
X106409523Y-52539342D01*
X106409523Y-52539342D02*
X106361904Y-52634580D01*
X106361904Y-52634580D02*
X106314285Y-52682200D01*
X106314285Y-52682200D02*
X106219047Y-52729819D01*
X106219047Y-52729819D02*
X106123809Y-52729819D01*
X106123809Y-52729819D02*
X106028571Y-52682200D01*
X106028571Y-52682200D02*
X105980952Y-52634580D01*
X105980952Y-52634580D02*
X105933333Y-52539342D01*
X105933333Y-52539342D02*
X105885714Y-52348866D01*
X105885714Y-52348866D02*
X105885714Y-52110771D01*
X105885714Y-52110771D02*
X105933333Y-51920295D01*
X105933333Y-51920295D02*
X105980952Y-51825057D01*
X105980952Y-51825057D02*
X106028571Y-51777438D01*
X106028571Y-51777438D02*
X106123809Y-51729819D01*
X106885714Y-52063152D02*
X106885714Y-52729819D01*
X106885714Y-52158390D02*
X106933333Y-52110771D01*
X106933333Y-52110771D02*
X107028571Y-52063152D01*
X107028571Y-52063152D02*
X107171428Y-52063152D01*
X107171428Y-52063152D02*
X107266666Y-52110771D01*
X107266666Y-52110771D02*
X107314285Y-52206009D01*
X107314285Y-52206009D02*
X107314285Y-52729819D01*
X108123809Y-52206009D02*
X107790476Y-52206009D01*
X107790476Y-52729819D02*
X107790476Y-51729819D01*
X107790476Y-51729819D02*
X108266666Y-51729819D01*
X103033333Y-46309580D02*
X102985714Y-46357200D01*
X102985714Y-46357200D02*
X102842857Y-46404819D01*
X102842857Y-46404819D02*
X102747619Y-46404819D01*
X102747619Y-46404819D02*
X102604762Y-46357200D01*
X102604762Y-46357200D02*
X102509524Y-46261961D01*
X102509524Y-46261961D02*
X102461905Y-46166723D01*
X102461905Y-46166723D02*
X102414286Y-45976247D01*
X102414286Y-45976247D02*
X102414286Y-45833390D01*
X102414286Y-45833390D02*
X102461905Y-45642914D01*
X102461905Y-45642914D02*
X102509524Y-45547676D01*
X102509524Y-45547676D02*
X102604762Y-45452438D01*
X102604762Y-45452438D02*
X102747619Y-45404819D01*
X102747619Y-45404819D02*
X102842857Y-45404819D01*
X102842857Y-45404819D02*
X102985714Y-45452438D01*
X102985714Y-45452438D02*
X103033333Y-45500057D01*
X103414286Y-45500057D02*
X103461905Y-45452438D01*
X103461905Y-45452438D02*
X103557143Y-45404819D01*
X103557143Y-45404819D02*
X103795238Y-45404819D01*
X103795238Y-45404819D02*
X103890476Y-45452438D01*
X103890476Y-45452438D02*
X103938095Y-45500057D01*
X103938095Y-45500057D02*
X103985714Y-45595295D01*
X103985714Y-45595295D02*
X103985714Y-45690533D01*
X103985714Y-45690533D02*
X103938095Y-45833390D01*
X103938095Y-45833390D02*
X103366667Y-46404819D01*
X103366667Y-46404819D02*
X103985714Y-46404819D01*
X103983333Y-50279819D02*
X104602380Y-50279819D01*
X104602380Y-50279819D02*
X104269047Y-50660771D01*
X104269047Y-50660771D02*
X104411904Y-50660771D01*
X104411904Y-50660771D02*
X104507142Y-50708390D01*
X104507142Y-50708390D02*
X104554761Y-50756009D01*
X104554761Y-50756009D02*
X104602380Y-50851247D01*
X104602380Y-50851247D02*
X104602380Y-51089342D01*
X104602380Y-51089342D02*
X104554761Y-51184580D01*
X104554761Y-51184580D02*
X104507142Y-51232200D01*
X104507142Y-51232200D02*
X104411904Y-51279819D01*
X104411904Y-51279819D02*
X104126190Y-51279819D01*
X104126190Y-51279819D02*
X104030952Y-51232200D01*
X104030952Y-51232200D02*
X103983333Y-51184580D01*
X104935714Y-50279819D02*
X105554761Y-50279819D01*
X105554761Y-50279819D02*
X105221428Y-50660771D01*
X105221428Y-50660771D02*
X105364285Y-50660771D01*
X105364285Y-50660771D02*
X105459523Y-50708390D01*
X105459523Y-50708390D02*
X105507142Y-50756009D01*
X105507142Y-50756009D02*
X105554761Y-50851247D01*
X105554761Y-50851247D02*
X105554761Y-51089342D01*
X105554761Y-51089342D02*
X105507142Y-51184580D01*
X105507142Y-51184580D02*
X105459523Y-51232200D01*
X105459523Y-51232200D02*
X105364285Y-51279819D01*
X105364285Y-51279819D02*
X105078571Y-51279819D01*
X105078571Y-51279819D02*
X104983333Y-51232200D01*
X104983333Y-51232200D02*
X104935714Y-51184580D01*
X106173809Y-50279819D02*
X106269047Y-50279819D01*
X106269047Y-50279819D02*
X106364285Y-50327438D01*
X106364285Y-50327438D02*
X106411904Y-50375057D01*
X106411904Y-50375057D02*
X106459523Y-50470295D01*
X106459523Y-50470295D02*
X106507142Y-50660771D01*
X106507142Y-50660771D02*
X106507142Y-50898866D01*
X106507142Y-50898866D02*
X106459523Y-51089342D01*
X106459523Y-51089342D02*
X106411904Y-51184580D01*
X106411904Y-51184580D02*
X106364285Y-51232200D01*
X106364285Y-51232200D02*
X106269047Y-51279819D01*
X106269047Y-51279819D02*
X106173809Y-51279819D01*
X106173809Y-51279819D02*
X106078571Y-51232200D01*
X106078571Y-51232200D02*
X106030952Y-51184580D01*
X106030952Y-51184580D02*
X105983333Y-51089342D01*
X105983333Y-51089342D02*
X105935714Y-50898866D01*
X105935714Y-50898866D02*
X105935714Y-50660771D01*
X105935714Y-50660771D02*
X105983333Y-50470295D01*
X105983333Y-50470295D02*
X106030952Y-50375057D01*
X106030952Y-50375057D02*
X106078571Y-50327438D01*
X106078571Y-50327438D02*
X106173809Y-50279819D01*
X106935714Y-50613152D02*
X106935714Y-51279819D01*
X106935714Y-50708390D02*
X106983333Y-50660771D01*
X106983333Y-50660771D02*
X107078571Y-50613152D01*
X107078571Y-50613152D02*
X107221428Y-50613152D01*
X107221428Y-50613152D02*
X107316666Y-50660771D01*
X107316666Y-50660771D02*
X107364285Y-50756009D01*
X107364285Y-50756009D02*
X107364285Y-51279819D01*
X108173809Y-50756009D02*
X107840476Y-50756009D01*
X107840476Y-51279819D02*
X107840476Y-50279819D01*
X107840476Y-50279819D02*
X108316666Y-50279819D01*
D11*
G04 #@! TO.C,J8*
X65726000Y-67377000D02*
X116646000Y-67377000D01*
X65726000Y-69977000D02*
X65726000Y-67377000D01*
X65726000Y-72577000D02*
X65726000Y-71247000D01*
X67056000Y-72577000D02*
X65726000Y-72577000D01*
X68326000Y-69977000D02*
X65726000Y-69977000D01*
X68326000Y-72577000D02*
X68326000Y-69977000D01*
X68326000Y-72577000D02*
X116646000Y-72577000D01*
X116646000Y-72577000D02*
X116646000Y-67377000D01*
G04 #@! TO.C,L1*
X76334000Y-42691000D02*
X76334000Y-57631000D01*
X76334000Y-42691000D02*
X88637000Y-42691000D01*
X76334000Y-57631000D02*
X88637000Y-57631000D01*
X89671000Y-42691000D02*
X101974000Y-42691000D01*
X89671000Y-57631000D02*
X101974000Y-57631000D01*
X101974000Y-42691000D02*
X101974000Y-57631000D01*
G04 #@! TO.C,J3*
X76728000Y-33370000D02*
X76728000Y-39340000D01*
X76728000Y-39340000D02*
X91848000Y-39340000D01*
X76738000Y-37080000D02*
X77488000Y-37080000D01*
X76738000Y-38580000D02*
X76738000Y-39330000D01*
X76738000Y-39330000D02*
X78538000Y-39330000D01*
X77488000Y-34130000D02*
X84288000Y-34130000D01*
X77488000Y-37080000D02*
X77488000Y-34130000D01*
X78538000Y-38580000D02*
X76738000Y-38580000D01*
X78538000Y-39330000D02*
X78538000Y-38580000D01*
X80038000Y-38580000D02*
X80038000Y-39330000D01*
X80038000Y-39330000D02*
X88538000Y-39330000D01*
X88538000Y-38580000D02*
X80038000Y-38580000D01*
X88538000Y-39330000D02*
X88538000Y-38580000D01*
X90038000Y-38580000D02*
X90038000Y-39330000D01*
X90038000Y-39330000D02*
X91838000Y-39330000D01*
X90888000Y-39630000D02*
X92138000Y-39630000D01*
X91088000Y-34130000D02*
X84288000Y-34130000D01*
X91088000Y-37080000D02*
X91088000Y-34130000D01*
X91838000Y-37080000D02*
X91088000Y-37080000D01*
X91838000Y-38580000D02*
X90038000Y-38580000D01*
X91838000Y-39330000D02*
X91838000Y-38580000D01*
X91848000Y-33370000D02*
X76728000Y-33370000D01*
X91848000Y-39340000D02*
X91848000Y-33370000D01*
X92138000Y-39630000D02*
X92138000Y-38380000D01*
G04 #@! TO.C,J2*
X119386000Y-61837000D02*
X119386000Y-54157000D01*
X119386000Y-64437000D02*
X119386000Y-63107000D01*
X120716000Y-64437000D02*
X119386000Y-64437000D01*
X122046000Y-54157000D02*
X119386000Y-54157000D01*
X122046000Y-61837000D02*
X119386000Y-61837000D01*
X122046000Y-61837000D02*
X122046000Y-54157000D01*
G04 #@! TO.C,J4*
X118812000Y-41977000D02*
X118812000Y-44637000D01*
X141732000Y-41977000D02*
X118812000Y-41977000D01*
X141732000Y-41977000D02*
X141732000Y-44637000D01*
X141732000Y-44637000D02*
X118812000Y-44637000D01*
X144332000Y-43307000D02*
X144332000Y-44637000D01*
X144332000Y-44637000D02*
X143002000Y-44637000D01*
G04 #@! TO.C,J6*
X99731000Y-33403381D02*
X99731000Y-39373381D01*
X99731000Y-39373381D02*
X114851000Y-39373381D01*
X99741000Y-37113381D02*
X100491000Y-37113381D01*
X99741000Y-38613381D02*
X99741000Y-39363381D01*
X99741000Y-39363381D02*
X101541000Y-39363381D01*
X100491000Y-34163381D02*
X107291000Y-34163381D01*
X100491000Y-37113381D02*
X100491000Y-34163381D01*
X101541000Y-38613381D02*
X99741000Y-38613381D01*
X101541000Y-39363381D02*
X101541000Y-38613381D01*
X103041000Y-38613381D02*
X103041000Y-39363381D01*
X103041000Y-39363381D02*
X111541000Y-39363381D01*
X111541000Y-38613381D02*
X103041000Y-38613381D01*
X111541000Y-39363381D02*
X111541000Y-38613381D01*
X113041000Y-38613381D02*
X113041000Y-39363381D01*
X113041000Y-39363381D02*
X114841000Y-39363381D01*
X113891000Y-39663381D02*
X115141000Y-39663381D01*
X114091000Y-34163381D02*
X107291000Y-34163381D01*
X114091000Y-37113381D02*
X114091000Y-34163381D01*
X114841000Y-37113381D02*
X114091000Y-37113381D01*
X114841000Y-38613381D02*
X113041000Y-38613381D01*
X114841000Y-39363381D02*
X114841000Y-38613381D01*
X114851000Y-33403381D02*
X99731000Y-33403381D01*
X114851000Y-39373381D02*
X114851000Y-33403381D01*
X115141000Y-39663381D02*
X115141000Y-38413381D01*
G04 #@! TO.C,C3*
X63580000Y-47605000D02*
X63895000Y-47605000D01*
X63580000Y-52845000D02*
X63580000Y-47605000D01*
X63580000Y-52845000D02*
X63895000Y-52845000D01*
X66005000Y-47605000D02*
X66320000Y-47605000D01*
X66005000Y-52845000D02*
X66320000Y-52845000D01*
X66320000Y-52845000D02*
X66320000Y-47605000D01*
G04 #@! TO.C,C4*
X68605000Y-47605000D02*
X68605000Y-52845000D01*
X68920000Y-47605000D02*
X68605000Y-47605000D01*
X68920000Y-52845000D02*
X68605000Y-52845000D01*
X71345000Y-47605000D02*
X71030000Y-47605000D01*
X71345000Y-47605000D02*
X71345000Y-52845000D01*
X71345000Y-52845000D02*
X71030000Y-52845000D01*
G04 #@! TO.C,U2*
X63330000Y-60225000D02*
X63330000Y-55584000D01*
X66599000Y-60225000D02*
X66599000Y-58715000D01*
X70300000Y-60225000D02*
X70300000Y-58715000D01*
X73570000Y-55584000D02*
X63330000Y-55584000D01*
X73570000Y-58715000D02*
X63330000Y-58715000D01*
X73570000Y-60225000D02*
X63330000Y-60225000D01*
X73570000Y-60225000D02*
X73570000Y-55584000D01*
G04 #@! TO.C,J1*
X87824000Y-60893000D02*
X87824000Y-59563000D01*
X89154000Y-60893000D02*
X87824000Y-60893000D01*
X90424000Y-58233000D02*
X95564000Y-58233000D01*
X90424000Y-60893000D02*
X90424000Y-58233000D01*
X90424000Y-60893000D02*
X95564000Y-60893000D01*
X95564000Y-60893000D02*
X95564000Y-58233000D01*
G04 #@! TO.C,REF\u002A\u002A*
X61680000Y-61910000D02*
X61680000Y-48990000D01*
X63110000Y-48990000D02*
X61680000Y-48990000D01*
X63110000Y-60490000D02*
X63110000Y-48990000D01*
X66500000Y-60790000D02*
X66500000Y-60490000D01*
X66500000Y-61350000D02*
X66500000Y-61050000D01*
X66500000Y-61910000D02*
X66500000Y-61610000D01*
X70300000Y-60790000D02*
X70300000Y-60490000D01*
X70300000Y-61350000D02*
X70300000Y-61050000D01*
X70300000Y-61910000D02*
X70300000Y-61610000D01*
X73690000Y-48990000D02*
X73690000Y-60490000D01*
X73690000Y-60490000D02*
X63110000Y-60490000D01*
X75120000Y-48990000D02*
X73690000Y-48990000D01*
X75120000Y-61910000D02*
X61680000Y-61910000D01*
X75120000Y-61910000D02*
X75120000Y-48990000D01*
G04 #@! TO.C,U1*
X111159000Y-46805000D02*
X111159000Y-57045000D01*
X114290000Y-46805000D02*
X114290000Y-57045000D01*
X115800000Y-46805000D02*
X111159000Y-46805000D01*
X115800000Y-46805000D02*
X115800000Y-57045000D01*
X115800000Y-50075000D02*
X114290000Y-50075000D01*
X115800000Y-53776000D02*
X114290000Y-53776000D01*
X115800000Y-57045000D02*
X111159000Y-57045000D01*
G04 #@! TO.C,J7*
X153542000Y-85817000D02*
X153542000Y-72997000D01*
X156142000Y-83217000D02*
X156142000Y-85817000D01*
X156142000Y-85817000D02*
X153542000Y-85817000D01*
X158742000Y-72997000D02*
X153542000Y-72997000D01*
X158742000Y-83217000D02*
X156142000Y-83217000D01*
X158742000Y-83217000D02*
X158742000Y-72997000D01*
X158742000Y-84487000D02*
X158742000Y-85817000D01*
X158742000Y-85817000D02*
X157412000Y-85817000D01*
G04 #@! TO.C,J5*
X153610000Y-93793000D02*
X154940000Y-93793000D01*
X153610000Y-95123000D02*
X153610000Y-93793000D01*
X153610000Y-96393000D02*
X153610000Y-106613000D01*
X153610000Y-96393000D02*
X156210000Y-96393000D01*
X153610000Y-106613000D02*
X158810000Y-106613000D01*
X156210000Y-93793000D02*
X158810000Y-93793000D01*
X156210000Y-96393000D02*
X156210000Y-93793000D01*
X158810000Y-93793000D02*
X158810000Y-106613000D01*
G04 #@! TO.C,REF\u002A\u002A*
X104490000Y-45205000D02*
X104490000Y-46635000D01*
X104490000Y-46635000D02*
X115990000Y-46635000D01*
X104490000Y-57215000D02*
X104490000Y-58645000D01*
X115990000Y-46635000D02*
X115990000Y-57215000D01*
X115990000Y-57215000D02*
X104490000Y-57215000D01*
X116290000Y-50025000D02*
X115990000Y-50025000D01*
X116290000Y-53825000D02*
X115990000Y-53825000D01*
X116850000Y-50025000D02*
X116550000Y-50025000D01*
X116850000Y-53825000D02*
X116550000Y-53825000D01*
X117410000Y-45205000D02*
X104490000Y-45205000D01*
X117410000Y-45205000D02*
X117410000Y-58645000D01*
X117410000Y-50025000D02*
X117110000Y-50025000D01*
X117410000Y-53825000D02*
X117110000Y-53825000D01*
X117410000Y-58645000D02*
X104490000Y-58645000D01*
G04 #@! TO.C,C1*
X103480000Y-53720000D02*
X103480000Y-53405000D01*
X103480000Y-56145000D02*
X103480000Y-55830000D01*
X108720000Y-53405000D02*
X103480000Y-53405000D01*
X108720000Y-53720000D02*
X108720000Y-53405000D01*
X108720000Y-56145000D02*
X103480000Y-56145000D01*
X108720000Y-56145000D02*
X108720000Y-55830000D01*
G04 #@! TO.C,C2*
X103530000Y-46955000D02*
X103530000Y-47270000D01*
X103530000Y-46955000D02*
X108770000Y-46955000D01*
X103530000Y-49380000D02*
X103530000Y-49695000D01*
X103530000Y-49695000D02*
X108770000Y-49695000D01*
X108770000Y-46955000D02*
X108770000Y-47270000D01*
X108770000Y-49380000D02*
X108770000Y-49695000D01*
G04 #@! TD*
M02*
